<?xml version="1.0" encoding="utf-8"?>
<!-- Generator: Adobe Illustrator 24.0.1, SVG Export Plug-In . SVG Version: 6.00 Build 0)  -->
<svg version="1.1" id="Layer_1" xmlns="http://www.w3.org/2000/svg" xmlns:xlink="http://www.w3.org/1999/xlink" x="0px" y="0px"
	 viewBox="0 0 58.55 51.98" style="enable-background:new 0 0 58.55 51.98;" xml:space="preserve">
<style type="text/css">
	.st0{clip-path:url(#SVGID_2_);fill:#FFFFFF;}
</style>
<g>
	<defs>
		<rect id="SVGID_1_" x="2.11" width="54" height="52.14"/>
	</defs>
	<clipPath id="SVGID_2_">
		<use xlink:href="#SVGID_1_"  style="overflow:visible;"/>
	</clipPath>
	<path class="st0" d="M51.55,7.51c-0.25-0.01-0.49,0.05-0.72,0.18c-0.75,0.42-1.11,1.46-0.56,2.28c0.12,0.18,0.29,0.28,0.45,0.42
		c0.3,0.25,0.65,0.34,1.02,0.27c0.63-0.12,1.04-0.52,1.23-1.13C53.27,8.57,52.52,7.51,51.55,7.51 M51.53,44.63
		c0.26,0,0.5-0.07,0.73-0.21c0.77-0.45,1.14-1.64,0.33-2.48c-0.45-0.48-1.13-0.61-1.66-0.33c-0.13,0.07-0.24,0.17-0.36,0.26
		c-0.1,0.08-0.21,0.17-0.28,0.27c-0.28,0.43-0.37,0.9-0.2,1.4C50.3,44.19,50.9,44.64,51.53,44.63 M54.43,22.11
		c-0.07-0.62-0.33-1.13-0.94-1.42c-0.33-0.16-0.67-0.18-1.01-0.06c-0.87,0.3-1.33,1.28-0.94,2.16c0.34,0.77,1.21,1.16,1.98,0.79
		C54.11,23.3,54.38,22.78,54.43,22.11 M54.41,29.87c-0.01-0.42-0.24-0.87-0.68-1.18c-0.47-0.33-1-0.38-1.5-0.1
		c-0.87,0.49-1.11,1.53-0.53,2.35c0.31,0.45,0.76,0.69,1.32,0.63C53.82,31.49,54.41,30.81,54.41,29.87 M43.98,3.3
		c0-0.43-0.15-0.82-0.45-1.13c-0.32-0.34-0.73-0.52-1.2-0.47c-1.04,0.12-1.8,1.36-1.12,2.44c0.3,0.47,0.75,0.74,1.31,0.72
		C43.32,4.83,43.98,4.11,43.98,3.3 M43.98,48.82c-0.01-0.28-0.09-0.59-0.28-0.86c-0.39-0.57-1.18-0.96-2-0.45
		c-0.65,0.4-1.07,1.39-0.45,2.28c0.31,0.44,0.74,0.68,1.3,0.65C43.34,50.39,43.97,49.69,43.98,48.82 M27.24,12.84
		c-3.86,0.16-8.19,2.42-10.6,6.54c-2.71,4.62-2.41,10.43,0.91,14.78c1.54,2.01,3.5,3.47,5.86,4.38c1.22,0.47,2.5,0.75,3.84,0.82
		V12.84z M27.2,41.05c-3.84-0.3-7.14-1.76-9.83-4.51c-2.69-2.76-4.11-6.08-4.25-9.93c-0.13-3.59,0.9-6.85,3.12-9.69
		c2.78-3.55,6.48-5.45,10.96-5.81c0.06-0.21,0.06-3.72,0-3.96c-0.22,0.01-0.45,0.02-0.68,0.05c-0.37,0.04-0.74,0.08-1.11,0.13
		c-0.44,0.05-0.75-0.13-0.96-0.51c-0.26-0.49-0.54-0.97-0.81-1.46c-0.54-0.96-1.07-1.92-1.61-2.88c-0.08-0.14-0.16-0.28-0.26-0.45
		c-1.03,0.41-2.04,0.84-3.06,1.25c-1.02,0.42-2.03,0.84-3.05,1.25c0.01,0.08,0.01,0.13,0.02,0.18c0.23,0.83,0.46,1.66,0.69,2.49
		c0.24,0.88,0.49,1.76,0.73,2.63c0.1,0.34,0.03,0.65-0.2,0.9c-0.21,0.23-0.48,0.42-0.72,0.62c-0.22,0.18-0.44,0.34-0.66,0.51
		c-0.02,0.01-0.03,0.04-0.05,0.06c-0.08,0.08-0.16,0.17-0.24,0.24c-0.2,0.18-0.41,0.35-0.6,0.54c-0.15,0.15-0.27,0.32-0.41,0.48
		c-0.2,0.22-0.42,0.43-0.61,0.67c-0.21,0.28-0.46,0.53-0.65,0.82c-0.07,0.1-0.16,0.19-0.25,0.27c-0.12,0.1-0.26,0.16-0.41,0.13
		c-0.32-0.06-0.65-0.13-0.97-0.21c-0.41-0.1-0.81-0.23-1.22-0.34c-0.89-0.25-1.78-0.51-2.68-0.76c-0.26-0.07-0.53-0.14-0.78-0.21
		c-0.1,0.14-2.47,5.69-2.56,6c-0.01,0.04,0,0.08,0.01,0.13c0.44,0.25,0.88,0.51,1.31,0.75c1.14,0.64,2.28,1.28,3.42,1.93
		c0.44,0.24,0.57,0.5,0.51,1c-0.06,0.54-0.14,1.07-0.17,1.61c-0.07,1.26-0.04,2.52,0.16,3.77c0.07,0.41-0.06,0.73-0.44,0.94
		c-0.6,0.34-1.2,0.68-1.79,1.01c-0.98,0.55-1.95,1.09-2.93,1.64c-0.04,0.02-0.08,0.06-0.11,0.08c0.06,0.29,2.38,5.91,2.52,6.09
		c0.04,0,0.09,0,0.14-0.01c0.18-0.05,0.35-0.1,0.53-0.15c0.88-0.24,1.76-0.49,2.64-0.73c0.67-0.19,1.34-0.38,2.01-0.56
		c0.13-0.03,0.26-0.05,0.39-0.04c0.23,0.01,0.41,0.13,0.55,0.3c0.3,0.38,0.59,0.76,0.9,1.12c0.49,0.57,1.01,1.12,1.58,1.62
		c0.46,0.39,0.92,0.78,1.39,1.16c0.36,0.28,0.46,0.63,0.34,1.06c-0.09,0.33-0.19,0.65-0.29,0.98c-0.09,0.33-0.16,0.66-0.29,0.98
		c-0.1,0.25-0.11,0.53-0.24,0.77c-0.08,0.16-0.08,0.35-0.12,0.53c-0.03,0.1-0.09,0.2-0.12,0.3c-0.06,0.23-0.1,0.46-0.16,0.69
		c-0.08,0.3-0.16,0.59-0.25,0.89c-0.01,0.05-0.02,0.11-0.03,0.16c0.53,0.28,5.89,2.49,6.1,2.51c0.02-0.03,0.05-0.06,0.07-0.09
		c0.27-0.48,0.54-0.95,0.81-1.43c0.61-1.08,1.22-2.16,1.83-3.25c0.19-0.33,0.46-0.51,0.85-0.48c0.06,0,0.12,0.01,0.17,0.01
		c0.44,0.05,0.87,0.1,1.31,0.15c0.16,0.02,0.33,0.02,0.48,0.03C27.27,44.77,27.27,41.27,27.2,41.05 M41.57,42.18
		c-0.19-0.06-12.36-0.06-12.6,0c0,0.09-0.01,0.18-0.01,0.28c0,1.12,0,2.24,0,3.36c0,0.56-0.33,0.91-0.88,0.92
		c-0.35,0.01-0.7-0.02-1.04-0.04c-0.44-0.03-0.88-0.07-1.31-0.11c-0.02,0-0.05,0.01-0.09,0.02c-0.15,0.26-0.31,0.53-0.46,0.81
		c-0.57,1.01-1.14,2.02-1.71,3.02c-0.2,0.36-0.41,0.72-0.61,1.09c-0.3,0.58-0.84,0.59-1.27,0.41c-0.95-0.41-1.91-0.8-2.86-1.2
		c-0.89-0.37-1.77-0.74-2.66-1.11c-0.6-0.25-1.19-0.51-1.79-0.74c-0.39-0.15-0.69-0.55-0.53-1.06c0.11-0.35,0.18-0.72,0.28-1.08
		c0.09-0.32,0.2-0.62,0.3-0.94c0.04-0.13,0.05-0.26,0.08-0.39c0.18-0.66,0.38-1.32,0.56-1.98c0.11-0.38,0.21-0.76,0.32-1.17
		c-1.29-1.02-2.43-2.17-3.43-3.44c-0.51,0.14-1,0.27-1.49,0.41c-0.78,0.22-1.56,0.44-2.35,0.66c-0.55,0.15-1.1,0.32-1.65,0.46
		C6,40.46,5.65,40.41,5.4,40.09c-0.06-0.08-0.11-0.17-0.14-0.26c-0.47-1.13-0.93-2.25-1.39-3.38c-0.54-1.29-1.07-2.59-1.61-3.88
		c-0.1-0.24-0.18-0.48-0.12-0.75c0.06-0.26,0.23-0.44,0.45-0.57c0.94-0.53,1.89-1.06,2.84-1.59c0.66-0.37,1.33-0.75,1.99-1.12
		c0.06-0.03,0.11-0.07,0.17-0.12c-0.18-1.61-0.18-3.21,0.02-4.81c-0.4-0.23-0.79-0.44-1.17-0.66c-1.28-0.73-2.56-1.46-3.85-2.17
		c-0.36-0.2-0.55-0.68-0.39-1.07c0.19-0.46,0.38-0.92,0.57-1.38c0.32-0.77,0.64-1.53,0.96-2.29c0.36-0.86,0.72-1.71,1.08-2.56
		c0.17-0.41,0.35-0.81,0.5-1.22c0.22-0.59,0.73-0.67,1.14-0.55c0.58,0.16,1.16,0.33,1.75,0.5c1.2,0.34,2.39,0.68,3.59,1.01
		c0.04,0.01,0.08,0.02,0.1,0.02c0.56-0.61,1.08-1.23,1.65-1.8c0.57-0.57,1.2-1.09,1.81-1.64c-0.13-0.48-0.27-0.95-0.4-1.43
		c-0.25-0.9-0.5-1.8-0.75-2.71c-0.12-0.42-0.24-0.85-0.36-1.27c-0.17-0.58,0.04-0.98,0.6-1.21c0.86-0.34,1.72-0.7,2.58-1.06
		c0.62-0.25,1.24-0.51,1.86-0.76c0.72-0.3,1.44-0.59,2.16-0.89c0.25-0.1,0.5-0.22,0.76-0.31c0.48-0.19,0.91-0.02,1.16,0.43
		c0.66,1.19,1.33,2.39,1.99,3.58c0.21,0.38,0.43,0.77,0.64,1.15c0.05,0.08,0.11,0.16,0.16,0.24c0.36-0.02,0.7-0.05,1.04-0.07
		c0.45-0.02,0.89-0.05,1.34-0.05c0.47,0,0.83,0.37,0.83,0.84c0,0.5,0,1,0,1.49c0,0.66,0,1.31,0,1.97c0,0.07,0.01,0.13,0.01,0.23
		C29.08,9.98,29.18,10,29.28,10c1.04,0,2.07,0,3.11,0c2.94,0,5.89,0,8.84,0c0.11,0,0.23-0.01,0.35-0.02
		c0.01-0.08,0.03-0.13,0.03-0.18c0-1.05,0-2.09,0-3.14c0-0.2-0.02-0.23-0.2-0.3c-1.15-0.43-1.86-1.26-2.09-2.45
		c-0.34-1.78,0.73-3.49,2.48-3.84c1.3-0.26,2.41,0.15,3.23,1.23c0.36,0.47,0.55,1.01,0.62,1.6c0.09,0.78-0.07,1.5-0.5,2.16
		c-0.42,0.64-0.98,1.09-1.71,1.33c-0.03,0.01-0.06,0.03-0.11,0.06c-0.01,0.09-0.02,0.18-0.02,0.28c0,1.35,0,2.71,0,4.06
		c0,0.27-0.09,0.5-0.29,0.69c-0.13,0.12-0.29,0.19-0.47,0.19c-0.08,0-0.15,0-0.22,0c-4.35,0-8.7,0-13.04,0
		c-0.1,0-0.19,0.01-0.28,0.01c-0.06,0.2-0.07,3.82-0.02,4.12c0.09,0.01,0.18,0.02,0.28,0.02c1.78,0,3.55,0,5.33,0
		c3.41,0,6.82,0,10.23,0c0.21,0,0.36-0.06,0.49-0.22c0.37-0.47,0.74-0.93,1.12-1.39c0.3-0.37,0.6-0.73,0.89-1.1
		c0.49-0.6,0.97-1.2,1.46-1.79c0.05-0.06,0.11-0.13,0.18-0.21c-0.07-0.13-0.14-0.26-0.22-0.39c-0.18-0.29-0.3-0.61-0.36-0.94
		c-0.19-0.98-0.01-1.89,0.59-2.68c0.62-0.82,1.46-1.27,2.5-1.27c1.39,0,2.36,0.67,2.96,1.89c0.28,0.56,0.34,1.17,0.27,1.79
		c-0.09,0.72-0.37,1.34-0.86,1.86c-0.7,0.73-1.57,1.07-2.58,0.98c-0.3-0.03-0.6-0.11-0.94-0.18c-0.02,0.02-0.09,0.06-0.13,0.12
		c-0.82,1.01-1.64,2.02-2.46,3.03c-0.48,0.59-0.96,1.18-1.43,1.78c-0.22,0.28-0.49,0.41-0.86,0.41c-3.36-0.01-6.72,0-10.08,0
		c-2.03,0-4.07,0-6.1,0c-0.1,0-0.19,0.01-0.3,0.02v4.08c0.07,0.01,0.13,0.03,0.18,0.03c6.85,0,13.7,0,20.56,0
		c0.07-0.24,0.13-0.46,0.21-0.66c0.37-0.97,1.03-1.65,2.03-1.97c0.9-0.29,1.77-0.19,2.58,0.29c0.91,0.55,1.43,1.36,1.55,2.42
		c0.14,1.16-0.24,2.15-1.1,2.92c-0.55,0.49-1.22,0.74-1.98,0.76c-0.84,0.02-1.56-0.24-2.19-0.78c-0.34-0.29-0.59-0.65-0.78-1.04
		c-0.04-0.07-0.07-0.15-0.1-0.21c-0.29-0.05-20.74-0.04-20.92,0.01c-0.05,0.17-0.07,5.06-0.01,5.39c0.09,0.01,0.18,0.02,0.28,0.02
		c1.42,0,2.84,0,4.26,0c0.43,0,0.86,0,1.29,0c0.3,0,0.59,0.01,0.89,0.01c0.56-0.01,1.12-0.01,1.68-0.01c4.08,0,8.16,0,12.25,0h0.28
		c0.05-0.11,0.09-0.21,0.14-0.31c0.53-0.98,1.33-1.61,2.45-1.74c1.21-0.15,2.21,0.28,2.95,1.24c0.55,0.71,0.75,1.54,0.64,2.44
		c-0.09,0.74-0.4,1.39-0.92,1.91c-1.22,1.22-3.05,1.2-4.22,0.26c-0.61-0.49-0.98-1.13-1.17-1.88c-0.01-0.06-0.03-0.11-0.05-0.17
		c0-0.01-0.01-0.01-0.03-0.04c-0.04,0-0.09-0.02-0.15-0.02c-0.12,0-0.23,0-0.35,0c-4.8,0-9.59,0-14.39,0
		c-0.16,0-0.31-0.02-0.47-0.03c-0.07,0-0.15,0-0.22,0.01c-0.05,0-0.1,0.02-0.15,0.02c-0.33,0-0.66-0.02-0.98-0.02
		c-0.17,0-0.34,0.02-0.52,0.02c-0.24,0-0.48,0-0.72,0c-0.82,0-1.64,0-2.46,0h-0.3c-0.01,0.11-0.03,0.2-0.03,0.3c0,0.8,0,1.59,0,2.39
		c0,0.22-0.04,0.44-0.04,0.66c0,0.24,0.04,0.48,0.06,0.72c0.17,0.06,0.33,0.13,0.52,0.07c0.07-0.02,0.15-0.02,0.22-0.02
		c5.24,0,10.49,0,15.73,0c0.32,0,0.58,0.1,0.79,0.35c0.4,0.5,0.81,0.99,1.21,1.48c0.34,0.42,0.69,0.85,1.03,1.28
		c0.37,0.46,0.75,0.93,1.12,1.39c0.2,0.24,0.4,0.49,0.6,0.73c0.04,0.05,0.08,0.11,0.1,0.15c0.24-0.06,0.43-0.12,0.62-0.16
		c0.98-0.19,1.86,0.04,2.63,0.67c0.7,0.57,1.08,1.33,1.16,2.23c0.09,0.91-0.17,1.72-0.73,2.44c-0.12,0.15-0.25,0.3-0.44,0.4
		c-0.1,0.05-0.16,0.16-0.26,0.23c-0.51,0.34-1.06,0.52-1.68,0.53c-0.54,0.01-1.06-0.09-1.54-0.34c-0.79-0.42-1.34-1.05-1.6-1.91
		c-0.29-0.95-0.19-1.87,0.32-2.73c0.05-0.08,0.11-0.16,0.18-0.27c-0.09-0.13-0.19-0.26-0.29-0.39c-0.66-0.82-1.33-1.63-1.99-2.45
		c-0.45-0.56-0.9-1.12-1.35-1.69c-0.13-0.17-0.28-0.24-0.5-0.24c-5.17,0.01-10.34,0-15.51,0.01c-0.11,0-0.23,0.01-0.35,0.02v4.09
		c0.06,0.01,0.12,0.03,0.19,0.04c0.07,0.01,0.15,0,0.22,0c4.34,0,8.68,0,13.02,0c0.12,0,0.25,0,0.37,0.04
		c0.33,0.1,0.53,0.4,0.54,0.76c0.01,0.2,0,0.4,0,0.6c0,1.18,0,2.36,0,3.53v0.28c0.2,0.09,0.38,0.16,0.55,0.24
		c0.8,0.37,1.33,1,1.63,1.82c0.33,0.92,0.26,1.84-0.21,2.69c-0.53,0.97-1.36,1.56-2.46,1.68c-1.72,0.18-3.04-0.95-3.43-2.32
		c-0.21-0.76-0.17-1.5,0.12-2.22c0.35-0.85,0.97-1.45,1.83-1.79c0.08-0.03,0.17-0.06,0.24-0.09C41.63,45.4,41.62,42.36,41.57,42.18"
		/>
</g>
<g>
</g>
<g>
</g>
<g>
</g>
<g>
</g>
<g>
</g>
<g>
</g>
</svg>
