<?xml version="1.0" encoding="utf-8"?>
<!-- Generator: Adobe Illustrator 24.0.1, SVG Export Plug-In . SVG Version: 6.00 Build 0)  -->
<svg version="1.1" id="Layer_1" xmlns="http://www.w3.org/2000/svg" xmlns:xlink="http://www.w3.org/1999/xlink" x="0px" y="0px"
	 viewBox="0 0 58.55 51.98" style="enable-background:new 0 0 58.55 51.98;" xml:space="preserve">
<style type="text/css">
	.st0{clip-path:url(#SVGID_2_);fill:#FFFFFF;}
	.st1{fill:#FFFFFF;}
</style>
<g>
	<defs>
		<rect id="SVGID_1_" x="0" width="58.55" height="51.97"/>
	</defs>
	<clipPath id="SVGID_2_">
		<use xlink:href="#SVGID_1_"  style="overflow:visible;"/>
	</clipPath>
	<path class="st0" d="M0.4,1.45c1.16-1.8,3.37-1.95,4.73-0.31C5.35,1.4,5.53,1.7,5.8,2.09c0.53,0,1.14,0.04,1.74-0.01
		c2.11-0.18,3.56,0.89,4.72,2.48c0.77,1.06,1.22,2.28,1.57,3.53c0.07,0.25,0.14,0.5,0.25,0.87c0.43,0,0.84,0,1.25,0
		c12.52,0,25.05-0.01,37.57,0c0.79,0,1.61,0.05,2.38,0.25c1.89,0.5,3.25,2.25,3.27,4.22c0.01,1.02-0.13,2.05-0.26,3.07
		c-0.45,3.71-0.9,7.42-1.38,11.13c-0.08,0.63-0.28,1.24-0.47,2.03c-0.73-0.37-1.33-0.66-1.91-0.95c0.59-4.69,1.17-9.3,1.76-13.91
		c0.28-2.2-0.93-3.61-3.19-3.61c-7.18-0.01-14.36,0-21.53,0c-5.08,0-10.16,0-15.23,0c-0.57,0-1.14,0-1.88,0
		c1.31,7.56,2.68,14.99,4.05,22.54c6.03-0.41,11.99-0.81,18.04-1.22c0.23,0.69,0.43,1.33,0.69,2.13c-6.1,0.53-12.14,0.81-18.16,1.31
		c0.36,1.52,1.38,2.32,2.96,2.33c2.6,0.02,5.19,0.01,7.79,0c2.33,0,4.66,0,6.99,0c0.45,0,0.91,0,1.43,0
		c0.22,0.56,0.43,1.08,0.71,1.78c-0.53,0-0.93,0-1.33,0c-5.19,0-10.38,0-15.58-0.01c-3.22,0-5.23-1.91-5.6-5.14
		c-0.22-1.93-0.65-3.83-1-5.74c-0.95-5.29-1.9-10.58-2.87-15.86c-0.29-1.57-0.51-3.17-0.94-4.71c-0.3-1.08-0.8-2.14-1.36-3.12
		C9.64,4.38,8.7,3.8,7.25,3.85C6.8,3.91,6.34,3.86,5.84,3.86C5.67,4.11,5.5,4.36,5.33,4.6c-1.37,1.93-3.77,1.84-5-0.18
		C0.08,3.98-0.3,2.7,0.4,1.45"/>
	<path class="st0" d="M42.18,37.8c0.09,0,0.17,0,0.26,0.01c0.12-0.19,0.25-0.38,0.35-0.57c0.45-0.84,0.86-1.7,1.34-2.52
		c0.42-0.7,1.04-0.76,1.59-0.18c0.18,0.19,0.33,0.42,0.49,0.63c1.33,1.77,2.66,3.53,4,5.3c0.17,0.23,0.39,0.42,0.62,0.67
		c0.45-0.35,0.83-0.64,1.27-0.99c-0.27-0.38-0.48-0.69-0.71-0.99c-1.34-1.71-2.7-3.41-4.04-5.12c-0.82-1.05-0.68-1.54,0.56-2.06
		c0.76-0.32,1.52-0.62,2.55-1.03c-4.22-2.11-8.15-4.17-12.36-6.22C39.53,29.26,40.86,33.53,42.18,37.8 M49.31,33.46
		c0.93,1.19,1.77,2.26,2.62,3.34c0.73,0.93,1.48,1.85,2.19,2.79c0.44,0.59,0.46,1-0.04,1.41c-1.08,0.89-2.22,1.72-3.2,2.47
		c-0.79-0.01-1.06-0.45-1.36-0.84c-1.17-1.55-2.34-3.11-3.51-4.66c-0.25-0.33-0.51-0.66-0.83-1.06c-0.2,0.3-0.38,0.53-0.51,0.78
		c-0.58,1.07-1.14,2.16-1.71,3.23c-0.22,0.41-0.54,0.62-1.02,0.57c-0.44-0.05-0.65-0.34-0.77-0.74c-0.52-1.67-1.05-3.34-1.57-5.01
		c-1.21-3.89-2.41-7.78-3.62-11.67c-0.1-0.33-0.22-0.66-0.26-0.99c-0.1-0.85,0.44-1.3,1.27-1.04c0.29,0.09,0.55,0.25,0.82,0.39
		c4.93,2.49,9.85,4.98,14.78,7.47c0.51,0.25,1.13,0.45,1.13,1.15c0,0.78-0.68,0.93-1.24,1.15C51.47,32.62,50.44,33.01,49.31,33.46"
		/>
	<path class="st0" d="M24.75,48.06c0.01-1.17-0.81-2.05-1.94-2.08c-1.2-0.03-2.09,0.83-2.11,2.04c-0.02,1.12,0.85,2.06,1.95,2.11
		C23.78,50.18,24.74,49.24,24.75,48.06 M22.7,51.97c-2.15,0-3.92-1.79-3.92-3.96c0-2.13,1.85-3.98,3.95-3.95
		c2.13,0.03,3.93,1.85,3.93,3.99C26.67,50.18,24.86,51.98,22.7,51.97"/>
	<path class="st0" d="M47.43,48.05c0.01-1.21-0.87-2.09-2.07-2.07c-1.14,0.02-1.99,0.89-2,2.04c-0.01,1.16,0.96,2.14,2.08,2.11
		C46.54,50.1,47.43,49.17,47.43,48.05 M45.41,51.97c-2.16,0-3.94-1.78-3.94-3.93s1.79-3.96,3.92-3.97c2.11-0.01,3.94,1.82,3.95,3.96
		C49.36,50.18,47.57,51.97,45.41,51.97"/>
</g>
<rect x="34.24" y="14.91" transform="matrix(0.9401 -0.3409 0.3409 0.9401 -3.7111 12.8228)" class="st1" width="0.79" height="4.12"/>
<rect x="37.39" y="16.82" transform="matrix(0.4034 -0.915 0.915 0.4034 7.7827 46.3635)" class="st1" width="4.12" height="0.79"/>
<rect x="40.54" y="20.31" transform="matrix(0.8977 -0.4406 0.4406 0.8977 -4.7667 20.8839)" class="st1" width="4.12" height="0.79"/>
<rect x="28.5" y="24.33" transform="matrix(0.8977 -0.4406 0.4406 0.8977 -7.7662 15.9929)" class="st1" width="4.12" height="0.79"/>
<rect x="30.37" y="17.78" transform="matrix(0.3538 -0.9353 0.9353 0.3538 1.3275 41.5868)" class="st1" width="0.79" height="4.12"/>
<g>
</g>
<g>
</g>
<g>
</g>
<g>
</g>
<g>
</g>
<g>
</g>
</svg>
