<?xml version="1.0" encoding="utf-8"?>
<!-- Generator: Adobe Illustrator 24.0.1, SVG Export Plug-In . SVG Version: 6.00 Build 0)  -->
<svg version="1.1" id="Layer_1" xmlns="http://www.w3.org/2000/svg" xmlns:xlink="http://www.w3.org/1999/xlink" x="0px" y="0px"
	 viewBox="0 0 52.93 53.11" style="enable-background:new 0 0 52.93 53.11;" xml:space="preserve">
<style type="text/css">
	.st0{clip-path:url(#SVGID_2_);fill:#FFFFFF;}
</style>
<g>
	<defs>
		<rect id="SVGID_1_" x="1.01" y="0.28" width="51.2" height="52.43"/>
	</defs>
	<clipPath id="SVGID_2_">
		<use xlink:href="#SVGID_1_"  style="overflow:visible;"/>
	</clipPath>
	<path class="st0" d="M23.18,37.22c-0.63-0.01-0.95,0.28-0.95,0.84c0,0.53,0.39,0.91,0.93,0.92c0.54,0.01,0.95-0.37,0.95-0.9
		C24.12,37.59,23.76,37.1,23.18,37.22 M38.85,27.28c-0.51-0.01-0.92,0.37-0.96,0.9c-0.04,0.52,0.34,0.95,0.86,0.99
		c0.52,0.04,1.03-0.43,1.03-0.95C39.77,27.7,39.36,27.29,38.85,27.28 M29.85,43.64c0.54,0.02,0.94-0.34,0.96-0.88
		c0.03-0.58-0.39-1.02-0.95-1.01c-0.49,0.01-0.93,0.45-0.93,0.95C28.92,43.21,29.32,43.62,29.85,43.64 M13.9,27.17
		c-0.51,0-0.92,0.41-0.92,0.94c0,0.54,0.36,0.93,0.91,0.95c0.58,0.02,1.03-0.42,1-0.97C14.86,27.62,14.37,27.17,13.9,27.17
		 M2.69,36.94c0.19,0.87,0.83,1.25,1.49,1.59c1.24,0.64,2.59,0.87,3.95,0.99c2.15,0.2,4.28,0.03,6.3-0.8
		c0.54-0.22,1.07-0.53,1.52-0.91c0.65-0.54,0.65-1.15-0.01-1.69c-0.51-0.41-1.11-0.73-1.72-0.99c-1.3-0.56-2.71-0.71-4.11-0.76
		c-1.98-0.07-3.92,0.16-5.75,0.99C3.65,35.68,2.98,36.07,2.69,36.94 M50.42,36.81c-0.3-0.33-0.58-0.74-0.95-1.02
		c-0.38-0.29-0.84-0.51-1.3-0.67c-2.95-1.01-5.93-1.01-8.9-0.14c-0.72,0.21-1.43,0.6-2.04,1.05c-0.82,0.6-0.83,1.3-0.02,1.9
		c0.58,0.43,1.26,0.77,1.94,1.01c1.81,0.63,3.71,0.76,5.61,0.6c1.36-0.12,2.71-0.35,3.96-0.97C49.42,38.22,50.09,37.85,50.42,36.81
		 M36.69,45.42c0,0.93,0.03,1.81-0.01,2.68c-0.03,0.71,0.27,1.25,0.85,1.58c0.6,0.35,1.24,0.68,1.9,0.88
		c2.29,0.69,4.63,0.73,6.97,0.31c1.11-0.2,2.18-0.53,3.13-1.16c0.41-0.28,0.85-0.58,0.87-1.12c0.04-1.04,0.01-2.08,0.01-3.14
		C45.81,47.54,41.31,47.5,36.69,45.42 M2.69,45.41c0,1.04-0.07,2.06,0.03,3.05c0.04,0.39,0.37,0.87,0.7,1.1
		c0.6,0.41,1.27,0.76,1.96,0.98c2.29,0.7,4.63,0.75,6.99,0.33c1.12-0.2,2.19-0.53,3.14-1.16c0.44-0.3,0.88-0.63,0.89-1.23
		c0.02-1.01,0.01-2.01,0.01-3.04C11.79,47.54,7.28,47.51,2.69,45.41 M2.68,39.54c0,0.81,0.07,1.52-0.01,2.21
		c-0.16,1.3,0.46,2.07,1.58,2.54c0.39,0.16,0.78,0.33,1.18,0.45c2.7,0.77,5.41,0.79,8.11,0.03c0.73-0.21,1.43-0.58,2.08-0.98
		c0.33-0.2,0.7-0.61,0.73-0.96c0.12-1.05,0.14-2.12-0.02-3.22C12.57,41.64,6.82,41.71,2.68,39.54 M36.67,39.57
		c0,0.75,0.07,1.45-0.01,2.14c-0.17,1.46,0.6,2.22,1.83,2.7c0.33,0.13,0.66,0.26,0.99,0.35c2.82,0.78,5.63,0.77,8.42-0.11
		c0.66-0.21,1.28-0.57,1.86-0.96c0.29-0.19,0.59-0.59,0.62-0.92c0.08-1.04,0.03-2.09,0.03-3.2C45.8,41.7,41.29,41.69,36.67,39.57
		 M33.65,19.77c0.74-2.74-0.65-5.88-3.24-7.49c-2.67-1.66-6.28-1.39-8.64,0.65c-2.12,1.83-3.12,4.88-2.26,6.84H33.65z M17.64,19.76
		c-0.29-2.6,0.34-4.89,1.95-6.86c1.62-1.97,3.73-3.08,6.27-3.28c2.34-0.18,4.46,0.49,6.28,1.99c2.55,2.1,3.55,4.88,3.29,8.11
		c1.57,0.2,7,0.14,7.77-0.09c0.01-1.06,0.07-2.13-0.01-3.19c-1.16-0.22-2.19-0.4-3.18-0.59c-0.12-0.18-0.22-0.29-0.27-0.41
		c-0.55-1.29-1.06-2.59-1.64-3.87c-0.21-0.46-0.11-0.8,0.15-1.17c0.48-0.69,0.94-1.38,1.32-1.93c-1-1.07-1.92-2.06-2.85-3.07
		c-0.7,0.48-1.38,0.92-2.03,1.4c-0.46,0.34-0.85,0.3-1.36,0.06c-1.07-0.52-2.16-0.99-3.28-1.39c-0.62-0.22-0.91-0.55-0.99-1.19
		c-0.1-0.79-0.28-1.58-0.43-2.38h-4.14c-0.17,0.9-0.35,1.72-0.46,2.56c-0.07,0.59-0.39,0.81-0.91,0.99
		c-1.09,0.4-2.16,0.83-3.19,1.36c-0.63,0.32-1.09,0.31-1.64-0.11c-0.61-0.47-1.26-0.87-1.71-1.17c-1.06,1.01-2.04,1.95-3.05,2.9
		c0.43,0.63,0.89,1.3,1.35,1.96c0.26,0.37,0.39,0.76,0.13,1.17c-0.71,1.14-1.21,2.38-1.57,3.67c-0.1,0.38-0.34,0.6-0.72,0.68
		c-0.35,0.07-0.69,0.13-1.03,0.2c-0.61,0.12-1.22,0.23-1.81,0.35v3.29H17.64z M8.22,32.78v-2.12c0-4.68,0-9.36,0-14.04
		c0-1.42,0.03-1.45,1.38-1.77c0.78-0.19,1.56-0.39,2.33-0.58c0.48-1.14,0.94-2.24,1.42-3.39c-0.47-0.69-0.98-1.41-1.47-2.14
		c-0.47-0.7-0.48-0.88,0.09-1.46c1.13-1.16,2.28-2.3,3.43-3.44c0.56-0.55,0.8-0.56,1.47-0.12c0.73,0.49,1.44,0.99,2.14,1.48
		c1.15-0.49,2.25-0.95,3.39-1.42c0.26-1.1,0.53-2.22,0.81-3.39c0.37-0.04,0.68-0.1,0.98-0.11c1.55-0.01,3.1-0.01,4.65,0
		c1.01,0.01,1.08,0.08,1.3,1.12c0.17,0.79,0.32,1.58,0.48,2.38c1.12,0.47,2.21,0.93,3.35,1.41c1.03-0.49,1.83-1.45,3.03-1.82
		c1.46,1.44,2.86,2.82,4.25,4.2c0.39,0.39,0.36,0.8,0.06,1.23c-0.52,0.74-1.03,1.5-1.54,2.24c0.48,1.14,0.93,2.24,1.41,3.39
		c1.1,0.22,2.22,0.45,3.25,0.65c0.48,0.49,0.38,1.01,0.38,1.49c0,4.93,0,9.85,0,14.78v1.34c1,0.2,1.9,0.35,2.78,0.56
		c1.03,0.24,2.01,0.64,2.89,1.24c1.13,0.76,1.73,1.77,1.71,3.18c-0.04,3.38-0.05,6.76,0.01,10.13c0.03,1.6-0.67,2.67-1.99,3.44
		c-1.27,0.74-2.66,1.12-4.09,1.29c-2.43,0.29-4.86,0.27-7.19-0.55c-0.88-0.31-1.72-0.79-2.49-1.32c-0.82-0.57-1.2-1.44-1.19-2.46
		c0.01-3.66,0.01-7.32,0-10.98c0-1.11,0.49-1.95,1.36-2.61c0.89-0.67,1.89-1.09,2.96-1.34c0.96-0.22,1.94-0.31,2.91-0.45
		c0.27-0.04,0.54-0.06,0.87-0.09V21.48h-7.94c-0.01,0.95-0.03,1.92-0.03,2.89c-0.01,0.95,0,1.89,0,2.94
		c0.42,0.02,0.79,0.04,1.23,0.06c0.41-0.76,0.93-1.46,1.81-1.62c0.49-0.09,1.06-0.05,1.54,0.11c1.07,0.36,1.67,1.35,1.62,2.46
		c-0.05,1.09-0.8,2.06-1.82,2.34c-1.27,0.34-2.18-0.11-3.19-1.63c-0.46,0-0.99,0.01-1.51,0c-1.06-0.02-1.27-0.23-1.29-1.32
		c-0.01-0.42,0-0.84,0-1.27c0-1.62,0-3.24,0-4.94h-2.8v18.74c1.52,1.17,1.91,2.07,1.46,3.33c-0.37,1.02-1.37,1.71-2.44,1.69
		c-1.06-0.02-2.07-0.78-2.38-1.78c-0.38-1.24,0.07-2.18,1.58-3.27V21.49h-5.08c-0.06,4.7-0.04,9.42-0.02,14.09
		c1.58,1.21,2,2.15,1.55,3.41c-0.36,1.01-1.35,1.69-2.45,1.67c-1.08-0.02-2.02-0.73-2.37-1.78c-0.41-1.22,0.01-2.11,1.52-3.22V21.47
		h-3.19c0,0.45,0,0.86,0,1.27c0,1.58-0.04,3.17,0.01,4.75c0.05,1.41-0.34,1.6-1.59,1.54c-0.39-0.02-0.77,0-1.13,0
		c-1.17,1.57-2.12,2.01-3.34,1.6c-1.04-0.35-1.79-1.45-1.74-2.52c0.05-1.09,0.86-2.08,1.94-2.38c1.16-0.32,2.11,0.18,3.02,1.6h1.15
		c0.06-0.98,0.02-1.95,0.03-2.93c0.01-0.95,0-1.89,0-2.92H9.99c-0.2,0.7-0.25,9.94-0.06,11.13c1.03,0.15,2.08,0.25,3.11,0.46
		c1.32,0.26,2.57,0.73,3.64,1.58c0.82,0.65,1.25,1.46,1.25,2.54c-0.02,3.59-0.04,7.18,0.01,10.77c0.02,1.39-0.6,2.33-1.71,3.05
		c-1.05,0.68-2.22,1.05-3.43,1.29c-2.63,0.52-5.25,0.44-7.83-0.3c-1.02-0.29-1.98-0.73-2.79-1.43c-0.76-0.65-1.17-1.46-1.16-2.49
		c0.02-3.62,0.02-7.25,0-10.87c-0.01-1.21,0.57-2.07,1.52-2.73c1.45-1.03,3.12-1.41,4.84-1.64C7.61,32.82,7.85,32.81,8.22,32.78"/>
</g>
<g>
</g>
<g>
</g>
<g>
</g>
<g>
</g>
<g>
</g>
<g>
</g>
</svg>
