<?xml version="1.0" encoding="utf-8"?>
<!-- Generator: Adobe Illustrator 24.0.1, SVG Export Plug-In . SVG Version: 6.00 Build 0)  -->
<svg version="1.1" id="Layer_1" xmlns="http://www.w3.org/2000/svg" xmlns:xlink="http://www.w3.org/1999/xlink" x="0px" y="0px"
	 viewBox="0 0 52.93 53.11" style="enable-background:new 0 0 52.93 53.11;" xml:space="preserve">
<style type="text/css">
	.st0{clip-path:url(#SVGID_2_);fill:#FFFFFF;}
	.st1{fill:#FFFFFF;}
</style>
<g>
	<defs>
		<rect id="SVGID_1_" x="0" y="0" width="52.93" height="53.11"/>
	</defs>
	<clipPath id="SVGID_2_">
		<use xlink:href="#SVGID_1_"  style="overflow:visible;"/>
	</clipPath>
	<path class="st0" d="M46.9,19.63c2.09-0.12,4.13-1.48,4.21-4.12c0.06-2.23-1.44-4.19-4.12-4.27c-2.39-0.07-4.15,1.72-4.2,4.08
		C42.74,17.75,44.35,19.36,46.9,19.63 M26.43,51.33c2.4-0.16,4.1-1.65,4.18-4.14c0.07-2.45-1.68-4.25-4.13-4.24
		c-2.43,0.01-4.17,1.64-4.18,4.2C22.3,49.52,23.99,51.16,26.43,51.33 M30.65,5.95c-0.23-2.43-1.73-4.12-4.18-4.14
		c-2.51-0.02-4.22,1.87-4.17,4.21c0.06,2.58,1.81,4.1,4.14,4.14C28.82,10.2,30.52,8.44,30.65,5.95 M51.14,37.69
		c-0.16-2.38-1.73-4.15-4.15-4.17c-2.42-0.02-4.18,1.67-4.21,4.17c-0.02,2.21,1.58,4.17,4.11,4.17
		C49.39,41.88,50.96,40.13,51.14,37.69 M6.03,41.9c2.48-0.18,4.14-1.92,4.1-4.21c-0.04-2.64-1.89-4.19-4.22-4.17
		c-2.44,0.02-4.11,1.81-4.1,4.17C1.82,40.15,3.59,41.78,6.03,41.9 M5.92,19.63c2.33-0.18,4.18-1.6,4.21-4.22
		c0.02-2.29-1.63-4.14-4.11-4.16c-2.46-0.02-4.2,1.74-4.21,4.18C1.8,17.81,3.51,19.42,5.92,19.63 M11.66,13.52
		c0.5,1.85,0.35,3.5-0.61,5.05C10.07,20.14,8.6,21,6.88,21.4v10.35c1.82,0.36,3.2,1.28,4.17,2.81c1.01,1.57,1.04,3.28,0.65,5.06
		c3.17,1.59,6.27,3.14,9.42,4.72c1.28-2.05,3.01-3.21,5.4-3.19c2.38,0.01,4.06,1.26,5.31,3.19c3.19-1.6,6.29-3.16,9.43-4.74
		c-0.49-1.82-0.35-3.48,0.6-5.02c0.97-1.58,2.44-2.44,4.17-2.85V21.38c-1.8-0.41-3.2-1.3-4.17-2.84c-0.99-1.57-1.03-3.28-0.65-5.05
		c-3.17-1.59-6.27-3.14-9.37-4.69c-2.49,3.99-7.82,4.47-10.79,0.01C17.96,10.36,14.86,11.92,11.66,13.52 M41.98,41.15
		c-3.22,1.62-6.37,3.2-9.57,4.8c0,0.43,0,0.85,0,1.28c-0.03,3.25-2.69,5.88-5.96,5.88c-3.27,0-5.94-2.62-5.97-5.87
		c-0.01-0.39,0-0.78,0-1.29c-3.13-1.58-6.3-3.17-9.54-4.79c-2.19,2.47-4.82,3.4-7.87,1.76c-2.24-1.2-3.31-3.25-3.04-5.79
		c0.31-2.98,2.16-4.69,5.03-5.41v-10.3c-3.01-0.79-4.89-2.61-5.05-5.82c-0.13-2.5,1.31-4.77,3.6-5.68c2.87-1.15,5.28-0.31,7.3,2.05
		c3.18-1.59,6.34-3.18,9.57-4.8c0-0.43,0-0.85,0-1.28C20.52,2.64,23.18,0,26.44,0c3.27,0,5.94,2.61,5.98,5.86
		c0.01,0.39,0,0.78,0,1.29c3.13,1.57,6.3,3.17,9.53,4.79c0.22-0.21,0.44-0.43,0.66-0.65c1.67-1.68,3.67-2.29,5.95-1.64
		c2.28,0.65,3.68,2.22,4.23,4.52c0.69,2.9-1.1,5.99-3.99,6.94c-0.3,0.1-0.61,0.18-0.95,0.27V31.7c3.01,0.79,4.89,2.61,5.05,5.82
		c0.12,2.46-1.29,4.73-3.5,5.64C46.48,44.37,44.05,43.54,41.98,41.15"/>
	<path class="st0" d="M26.46,24.72c3.06-1.66,6.08-3.29,9.28-5.02c-3.22-1.74-6.27-3.38-9.28-5c-3.11,1.66-6.13,3.28-9.27,5.02
		C20.37,21.43,23.37,23.05,26.46,24.72 M16.33,21.32v10.67c3.06,1.65,6.09,3.27,9.14,4.92V26.26C22.44,24.62,19.45,23,16.33,21.32
		 M27.41,36.94c3.12-1.69,6.17-3.33,9.18-4.96V21.31c-3.12,1.69-6.17,3.34-9.18,4.97V36.94z M26.46,12.72
		c4.03,2.18,7.96,4.3,11.91,6.43V33.1c-3.92,2.12-7.88,4.26-11.9,6.43c-3.98-2.15-7.94-4.28-11.91-6.43V19.16
		C18.47,17.04,22.43,14.9,26.46,12.72"/>
</g>
<rect x="5.12" y="14.56" class="st1" width="1.7" height="1.69"/>
<rect x="5.12" y="36.83" class="st1" width="1.69" height="1.69"/>
<rect x="46.09" y="36.83" class="st1" width="1.7" height="1.69"/>
<rect x="25.62" y="5.13" class="st1" width="1.65" height="1.73"/>
<rect x="25.61" y="46.26" class="st1" width="1.69" height="1.69"/>
<rect x="46.11" y="14.56" class="st1" width="1.65" height="1.73"/>
<g>
</g>
<g>
</g>
<g>
</g>
<g>
</g>
<g>
</g>
<g>
</g>
</svg>
