<?xml version="1.0" encoding="utf-8"?>
<!-- Generator: Adobe Illustrator 24.0.3, SVG Export Plug-In . SVG Version: 6.00 Build 0)  -->
<svg version="1.1" id="CARD" xmlns="http://www.w3.org/2000/svg" xmlns:xlink="http://www.w3.org/1999/xlink" x="0px" y="0px"
	 viewBox="0 0 200 68.6" style="enable-background:new 0 0 200 68.6;" xml:space="preserve">
<style type="text/css">
	.st0{
		fill-opacity: 0;
	}
	.st1{fill:#6428B4;}
</style>
<path class="st0" d="M200,68.59V2c0-1.1-0.9-2-2-2H1.98c-1.1,0-2,0.9-2,2v66.59H200z"/>
<path class="st1" d="M182.02,16.99c1.1,0,2,0.9,2,2s-0.9,2-2,2s-2-0.9-2-2S180.92,16.99,182.02,16.99L182.02,16.99z M182.02,17.39
	c-0.9,0-1.6,0.7-1.6,1.6s0.7,1.6,1.6,1.6s1.6-0.7,1.6-1.6S182.92,17.39,182.02,17.39"/>
<path class="st1" d="M173,21h-8.5c-0.3,0-0.5,0.2-0.5,0.5V25h12v1c0,1.7-1.3,3-3,3h-9v3.5c0,0.3,0.2,0.5,0.5,0.5H176v1
	c0,1.7-1.3,3-3,3h-10c-1.7,0-3-1.3-3-3V20c0-1.7,1.3-3,3-3h13v1C176,19.7,174.7,21,173,21z"/>
<path class="st1" d="M152.1,30.3L156,37h-3.5c-0.7,0-1.4-0.4-1.7-1l-2.9-5H140v3c0,1.7-1.3,3-3,3h-1V20c0-1.7,1.3-3,3-3h9.8
	c3.9,0,7.1,3,7.2,6.9C156,26.7,154.4,29.1,152.1,30.3z M140,21.6V27h9c1.7,0,3.1-1.4,3-3.2c-0.1-1.6-1.4-2.8-3-2.8h-8.3
	C140.3,21,140,21.3,140,21.6z"/>
<path class="st1" d="M75.2,17.8l-6.8,6.8c-0.2,0.2-0.6,0.2-0.8,0l-6.7-6.7c-0.5-0.5-1.3-0.8-2-0.8l0,0c-1.6,0-2.8,1.3-2.8,2.8V37h1
	c1.7,0,3-1.3,3-3V23.3c0-0.2,0.3-0.4,0.5-0.2l5.4,5.4c1.2,1.2,3.1,1.2,4.2,0l5.4-5.4c0.2-0.2,0.5,0,0.5,0.2V37h1c1.7,0,3-1.3,3-3
	V19.8c0-1.5-1.3-2.8-2.8-2.8l0,0C76.4,17,75.7,17.3,75.2,17.8z"/>
<path class="st1" d="M52,34V17h-1c-1.7,0-3,1.3-3,3v17h1C50.7,37,52,35.7,52,34z"/>
<path class="st1" d="M44,24.1c-0.1,3.8-3.2,6.9-7,6.9h-9v3c0,1.7-1.3,3-3,3h-1V20c0-1.7,1.3-3,3-3h9.8C40.7,17,44.1,20.2,44,24.1z
	 M40,24.2c0.1-1.7-1.3-3.2-3-3.2h-8.4c-0.3,0-0.6,0.3-0.6,0.6V27h8.9C38.5,27,39.9,25.8,40,24.2z"/>
<path class="st1" d="M132,27c0,5.5-4.5,10-10,10c-3.5,0-6.5-1.8-8.3-4.5l-1.3-1.9l-2.7,4.1c-2.5,3.8-6.8,6.3-11.7,6.3
	c-7.7,0-14-6.3-14-14s6.3-14,14-14c4.9,0,9.1,2.5,11.6,6.2l0.4,0.5l-2.4,3.6l-1.3-2c-1.8-2.7-4.8-4.4-8.3-4.4c-5.5,0-10,4.5-10,10
	s4.5,10,10,10c3.5,0,6.5-1.8,8.3-4.5l7.3-11c1.8-2.7,4.9-4.5,8.3-4.5C127.5,17,132,21.5,132,27z M128,27c0-3.3-2.7-6-6-6
	c-2.1,0-3.9,1.1-5,2.7l-2.2,3.3l2.2,3.3c1.1,1.6,2.9,2.7,5,2.7C125.3,33,128,30.3,128,27z"/>
<path class="st1" d="M42.8,57c2.1,0,3.6-1.1,3.6-3c0-2-1.7-2.5-3.2-3c-1.5-0.4-1.9-0.8-1.9-1.4c0-0.6,0.5-1,1.3-1
	c1,0,1.5,0.5,1.9,1.3l1.6-0.9c-0.7-1.4-1.9-2.2-3.5-2.2c-1.7,0-3.2,1.1-3.2,2.9c0,1.9,1.5,2.5,3,2.9s2.1,0.7,2.1,1.4
	c0,0.5-0.4,1-1.6,1c-1.2,0-1.9-0.6-2.3-1.5l-1.7,1C39.5,56,40.8,57,42.8,57z"/>
<rect x="49.1" y="47" class="st1" width="1.9" height="9.8"/>
<polygon class="st1" points="56.2,55 56.2,47 54.3,47 54.3,56.8 60,56.8 60,55 "/>
<polygon class="st1" points="63.8,56.8 66.2,56.8 69.5,47 67.4,47 65,54.5 62.6,47 60.5,47 "/>
<polygon class="st1" points="73.7,55 73.7,52.8 77.4,52.8 77.4,51 73.7,51 73.7,48.9 77.8,48.9 77.8,47 71.8,47 71.8,56.8 
	77.9,56.8 77.9,55 "/>
<path class="st1" d="M86.2,56.8h2.1l-2.2-3.7c1.1-0.5,1.9-1.6,1.9-2.9c0-1.8-1.5-3.2-3.3-3.2h-3.9v9.8h1.9v-3.4h1.5L86.2,56.8z
	 M82.7,48.8h2c0.7,0,1.3,0.6,1.3,1.4s-0.6,1.5-1.3,1.5h-2V48.8z"/>
<path class="st1" d="M99.2,47h-3.7v9.8h1.9v-3.2h1.7c1.9,0,3.4-1.5,3.4-3.3S101.1,47,99.2,47z M99.2,51.8h-1.7v-3h1.7
	c0.8,0,1.4,0.6,1.4,1.5C100.7,51.1,100.1,51.8,99.2,51.8z"/>
<path class="st1" d="M110.8,56.8h2.1l-3.5-9.8H107l-3.4,9.8h2.1l0.6-1.8h3.9L110.8,56.8z M106.9,53.2l1.3-4l1.3,4H106.9z"/>
<path class="st1" d="M120.5,56.8h2.1l-2.2-3.7c1.1-0.5,1.9-1.6,1.9-2.9c0-1.8-1.5-3.2-3.3-3.2h-3.9v9.8h1.9v-3.4h1.5L120.5,56.8z
	 M117.1,48.8h2c0.7,0,1.3,0.6,1.3,1.4s-0.6,1.5-1.3,1.5h-2V48.8z"/>
<polygon class="st1" points="131.6,47 124.4,47 124.4,48.8 127,48.8 127,56.8 128.9,56.8 128.9,48.8 131.6,48.8 "/>
<polygon class="st1" points="139.6,47 139.6,53 135.4,47 133.9,47 133.9,56.8 135.8,56.8 135.8,50.8 140,56.8 141.5,56.8 141.5,47 
	"/>
<polygon class="st1" points="146.7,55 146.7,52.8 150.4,52.8 150.4,51 146.7,51 146.7,48.9 150.8,48.9 150.8,47 144.8,47 
	144.8,56.8 150.9,56.8 150.9,55 "/>
<path class="st1" d="M159.2,56.8h2.1l-2.2-3.7c1.1-0.5,1.9-1.6,1.9-2.9c0-1.8-1.5-3.2-3.3-3.2h-3.9v9.8h1.9v-3.4h1.5L159.2,56.8z
	 M155.7,48.8h2c0.7,0,1.3,0.6,1.3,1.4s-0.6,1.5-1.3,1.5h-2V48.8z"/>
<path class="st1" d="M182.61,19.28l0.37,0.63h-0.33c-0.07,0-0.13-0.04-0.16-0.09l-0.27-0.47h-0.74v0.28c0,0.16-0.12,0.28-0.28,0.28
	h-0.09v-1.59c0-0.16,0.12-0.28,0.28-0.28h0.92c0.37,0,0.66,0.28,0.67,0.65C182.98,18.95,182.83,19.17,182.61,19.28z M181.48,18.47
	v0.51h0.84c0.16,0,0.29-0.13,0.28-0.3c-0.01-0.15-0.13-0.26-0.28-0.26h-0.78C181.51,18.41,181.48,18.44,181.48,18.47z"/>
</svg>
