<svg version="1.1" id="Layer_1" xmlns="http://www.w3.org/2000/svg" xmlns:xlink="http://www.w3.org/1999/xlink" x="0px" y="0px"
	 viewBox="0 0 103.86 32.22" style="enable-background:new 0 0 103.86 32.22;" xml:space="preserve">
<style type="text/css">
	.st0{fill:#E72F2C;}
</style>
<polygon class="st0" points="13.18,24.03 6.56,27.07 6.56,32.22 13.18,28.66 "/>
<path class="st0" d="M44.71,21.49c-2.61,2.44-5.76,3.66-9.49,3.66c-3.73,0-6.87-1.22-9.49-3.66c-2.62-2.48-3.91-5.44-3.91-8.89
	c0-3.45,1.29-6.42,3.91-8.89C28.35,1.22,31.49,0,35.22,0c3.73,0,6.87,1.22,9.49,3.7c2.62,2.44,3.94,5.41,3.94,8.89
	C48.65,16.04,47.33,19.01,44.71,21.49 M30.52,17.3c1.29,1.29,2.86,1.92,4.71,1.92c1.81,0,3.38-0.66,4.67-1.95
	c1.32-1.33,1.99-2.9,1.99-4.67c0-1.78-0.66-3.35-1.99-4.67c-1.29-1.33-2.86-1.99-4.67-1.99c-1.81,0-3.38,0.66-4.67,1.99
	c-1.29,1.29-1.95,2.86-1.95,4.67C28.6,14.44,29.23,16.01,30.52,17.3"/>
<path class="st0" d="M52.83,24.66V0.35h11.06c2.41,0,4.46,0.8,6.17,2.44c1.71,1.64,2.55,3.59,2.55,5.93c0,3.1-1.64,5.79-4.15,6.94
	l6.07,9h-7.6l-4.95-7.57H61.9h-2.44v7.57H52.83z M59.46,11.79h3.7c1.78,0,2.86-1.05,2.86-2.86c0-1.54-1.01-2.58-2.3-2.58h-4.26
	V11.79z"/>
<path class="st0" d="M99.29,3.66c2.61,2.44,3.91,5.41,3.91,8.86c0,2.96-1.08,5.58-3.21,7.85l3.87,4.29h-7.04L95.7,23.4
	c-1.81,1.08-3.77,1.6-5.89,1.6c-3.7,0-6.84-1.22-9.45-3.63c-2.62-2.44-3.91-5.41-3.91-8.86c0-3.45,1.29-6.42,3.91-8.86
	C82.97,1.22,86.11,0,89.8,0C93.53,0,96.67,1.22,99.29,3.66 M85.13,17.2c1.29,1.26,2.86,1.88,4.67,1.88c0.45,0,0.91-0.07,1.43-0.17
	l-4.57-5.02h7.05l1.81,1.99c0.59-0.8,0.91-1.92,0.91-3.35c0-1.78-0.66-3.31-1.95-4.6c-1.29-1.33-2.86-1.99-4.67-1.99
	c-1.81,0-3.38,0.66-4.67,1.95c-1.29,1.29-1.92,2.86-1.92,4.64C83.21,14.37,83.84,15.9,85.13,17.2"/>
<polygon class="st0" points="0,0.35 0,6.35 6.56,6.35 6.56,9.43 13.18,6.37 13.18,6.35 19.6,6.35 19.6,0.35 "/>
<polygon class="st0" points="15.58,10.64 13.18,9.82 13.18,7.92 4.22,11.95 6.56,12.49 6.56,14.74 "/>
<polygon class="st0" points="15.58,16.04 13.18,15.22 13.18,13.32 4.22,17.35 6.56,17.89 6.56,20.14 "/>
<polygon class="st0" points="15.58,21.39 13.18,20.57 13.18,18.67 4.22,22.7 6.56,23.24 6.56,25.49 "/>
<g>
</g>
<g>
</g>
<g>
</g>
<g>
</g>
<g>
</g>
<g>
</g>
</svg>
