<?xml version="1.0" encoding="utf-8"?>
<!-- Generator: Adobe Illustrator 24.0.3, SVG Export Plug-In . SVG Version: 6.00 Build 0)  -->
<svg version="1.1" xmlns="http://www.w3.org/2000/svg" xmlns:xlink="http://www.w3.org/1999/xlink" x="0px" y="0px"
	 viewBox="0 0 371.14 200.57" style="enable-background:new 0 0 371.14 200.57;" xml:space="preserve">
<style type="text/css">
	.st0{fill:#939598;}
	.st1{fill:#E4E5E6;}
	.st2{fill:#D3D5D6;}
	.st3{fill:#929597;}
	.st4{fill:#F0646F;}
	.st5{fill:#5A5B5D;}
	.st6{fill:#BEC0C2;}
	.st7{fill:#DEDFE0;}
	.st8{fill:#A01D19;}
	.st9{fill:#E72F2C;}
</style>
<g id="BACKGROUND">
</g>
<g id="OBJECTS">
	<g>
		<g>
			<polygon class="st0" points="220.89,36.16 165.67,68.04 110.44,36.16 165.67,4.28 			"/>
		</g>
		<g>
			<path class="st1" d="M110.44,41.16L55.22,73.04l55.22,31.87l0.01,0.01l23.68-13.67c0,0-0.01,0-0.01-0.01v-4.96l-15.67,0.34
				c-2.16-2.53-1.45-5.67,2.17-7.77c4.54-2.64,11.94-2.64,16.51,0c1.84,1.06,2.94,2.39,3.3,3.76v0.01c0.13,0.48,0.17,0.96,0.12,1.44
				c-0.1,0.88,0.41,1.73,1.17,2.17l0.54,0.31l23.41-13.52v-4.99L110.44,41.16z"/>
			<path class="st2" d="M142.02,54.39c1.21-0.67,2.58-0.97,3.96-0.89c3.38,0.21,6.89-0.44,9.49-1.94c4.58-2.64,4.6-6.92,0.06-9.56
				c-4.54-2.64-11.94-2.64-16.51,0c-2.48,1.43-3.61,3.34-3.42,5.21c0.1,0.88-0.41,1.73-1.17,2.17l-0.55,0.32l-23.44-13.54
				L55.22,68.04l0.01,0.01l23.4,13.51h0.01l8.13,4.69l23.69,13.68l23.64-13.65c-1.21-0.67-2.58-0.97-3.96-0.89
				c-3.38,0.21-6.89-0.44-9.49-1.94c-4.58-2.64-4.6-6.93-0.06-9.56c4.54-2.64,11.94-2.64,16.51,0c2.48,1.43,3.61,3.34,3.42,5.21
				c-0.1,0.88,0.41,1.73,1.17,2.17l0.54,0.31l23.45-13.54L142.02,54.39z"/>
		</g>
		<g>
			<path class="st1" d="M276.11,73.04l-23.55,13.6c1.21,0.67,2.58,0.97,3.97,0.89c1.87-0.12,3.77,0.04,5.55,0.45l-0.01-0.03
				l7.4,0.93l-0.06,4.72c-0.17,2.19-0.78,3.95-3.34,5.43c-4.54,2.64-11.94,2.64-16.51,0c-2.48-1.43-3.61-3.34-3.42-5.21
				c0.1-0.88-0.41-1.73-1.17-2.17l-0.55-0.32l-23.54,13.58l-0.01,0.01l-23.68-13.67c0,0,0.01,0,0.01-0.01
				c1.21-0.66,2.58-0.97,3.96-0.89c1.02,0.06,2.05,0.05,3.06-0.04c2.35-0.22,4.61-0.84,6.43-1.89c4.58-2.64,4.6-6.92,0.06-9.56
				c-4.54-2.64-11.94-2.64-16.51,0c-1.84,1.06-2.94,2.39-3.3,3.76c-0.13,0.48-0.17,0.97-0.12,1.45c0.1,0.88-0.41,1.73-1.17,2.17
				l-0.54,0.31l-23.41-13.52v-4.99l55.22-26.89h0.01l55.22,26.89V73.04z"/>
			<path class="st3" d="M220.89,99.93L220.89,99.93l-0.01-58.77l-55.22,26.89v4.99l23.41,13.52l0.54-0.31
				c0.76-0.44,1.27-1.29,1.17-2.17c-0.05-0.48-0.01-0.97,0.12-1.45c0.36-1.38,1.46-2.7,3.3-3.76c4.57-2.64,11.96-2.64,16.51,0
				c3.19,1.85,4.12,4.51,2.81,6.85l-16.32,0.55v4.99l0,0c0,0,0,0,0,0l23.68,13.67v-0.01l0.01,0V99.93z"/>
			<path class="st2" d="M266.07,94.04c-4.54,2.64-11.94,2.64-16.51,0c-2.48-1.43-3.61-3.34-3.42-5.21c0.1-0.88-0.41-1.73-1.17-2.17
				l-0.55-0.32l-23.54,13.59l-23.68-13.67c1.21-0.67,2.58-0.97,3.96-0.89c3.38,0.21,6.89-0.44,9.49-1.94
				c4.58-2.64,4.6-6.92,0.06-9.56c-4.54-2.64-11.94-2.64-16.51,0c-2.48,1.43-3.61,3.34-3.42,5.21c0.1,0.88-0.41,1.73-1.17,2.17
				l-0.54,0.31l-23.41-13.52L189.3,54.4c-1.2-0.66-2.58-0.97-3.95-0.89c-3.38,0.21-6.89-0.44-9.49-1.94
				c-4.58-2.64-4.6-6.92-0.06-9.56c4.54-2.64,11.94-2.64,16.51,0c2.48,1.43,3.61,3.34,3.42,5.21c-0.1,0.88,0.41,1.73,1.17,2.17
				l0.54,0.31l23.45-13.53l55.22,31.88l-23.55,13.6c1.21,0.67,2.58,0.97,3.97,0.89c3.38-0.21,6.89,0.44,9.49,1.94
				C270.59,87.12,270.62,91.4,266.07,94.04z"/>
		</g>
		<g>
			<g>
				<g>
					<path class="st3" d="M141.97,123.12c1.21-0.67,2.58-0.97,3.96-0.89c3.38,0.21,6.89-0.44,9.49-1.94
						c2.31-1.33,3.46-3.08,3.44-4.83l0,0v-5.43l-2.19,1.53c-0.36-0.29-0.75-0.57-1.2-0.83c-4.54-2.64-11.94-2.64-16.51,0
						c-2.48,1.43-3.61,3.34-3.42,5.21c0.1,0.88-0.41,1.73-1.17,2.17l-0.54,0.32h-0.01l-23.4-13.51l-23.65,13.66l-8.13,4.69
						l-23.43,13.53l55.22,31.88l23.55-13.6H134l5.85-3.38l2.28-1.32l23.54-13.59L141.97,123.12z"/>
					<path class="st4" d="M155.43,115.3c-2.6,1.5-6.11,2.15-9.49,1.94c-1.38-0.08-2.76,0.23-3.96,0.89l-8.13-4.69l0.54-0.32
						c0.76-0.44,1.27-1.29,1.17-2.17c-0.2-1.87,0.94-3.78,3.42-5.21c4.57-2.64,11.96-2.64,16.51,0
						C160.03,108.38,160.01,112.66,155.43,115.3z"/>
					<path class="st2" d="M141.97,118.13c1.21-0.67,2.58-0.97,3.96-0.89c3.38,0.21,6.89-0.44,9.49-1.94
						c4.58-2.64,4.6-6.92,0.06-9.56c-4.54-2.64-11.94-2.64-16.51,0c-2.48,1.43-3.61,3.34-3.42,5.21c0.1,0.88-0.41,1.73-1.17,2.17
						l-0.54,0.32h-0.01l-23.4-13.51l-23.65,13.66l-8.13,4.69l-23.43,13.53l55.22,31.88L134,150.1H134l5.85-3.38l2.28-1.32
						l23.54-13.59L141.97,118.13z"/>
				</g>
			</g>
			<polygon class="st3" points="110.45,163.7 110.45,168.69 55.22,136.8 55.22,131.81 			"/>
		</g>
		<g>
			<path class="st0" d="M165.67,131.81l-23.54,13.59l-0.55-0.32c-0.76-0.44-1.27-1.29-1.17-2.17c0.2-1.87-0.94-3.78-3.42-5.21
				c-4.57-2.64-11.96-2.64-16.51,0c-4.54,2.64-4.52,6.92,0.06,9.56c2.6,1.5,6.11,2.15,9.49,1.94c1.38-0.08,2.76,0.23,3.97,0.89
				l-23.55,13.6l55.22,31.88l55.22-31.89L165.67,131.81z"/>
			<polygon class="st5" points="165.67,195.58 165.67,200.57 110.45,168.69 110.45,163.7 			"/>
			<polygon class="st6" points="165.67,195.58 165.67,200.57 220.89,168.68 220.89,163.7 			"/>
		</g>
		<g>
			<path class="st3" d="M252.62,123.24L252.62,123.24l-0.55,0.32c-0.76,0.44-1.27,1.29-1.17,2.17c0.2,1.87-0.94,3.78-3.42,5.21
				c-4.57,2.64-11.96,2.64-16.51,0c-4.54-2.64-4.52-6.92,0.06-9.56c2.6-1.5,6.11-2.15,9.49-1.94c1.38,0.08,2.76-0.23,3.96-0.89
				v-4.99l-10.38-1l-13.22-7.63l-11.99,6.92l-11.62,1.72v4.99c1.21,0.67,2.6,0.97,3.98,0.89c3.38-0.21,6.89,0.44,9.48,1.94
				c4.58,2.64,0.06,9.56,0.06,9.56l65.31,5.86L252.62,123.24z"/>
			<path class="st2" d="M252.62,118.25L252.62,118.25l-0.55,0.32c-0.76,0.44-1.27,1.29-1.17,2.17c0.2,1.87-0.94,3.78-3.42,5.21
				c-4.57,2.64-11.96,2.64-16.51,0c-4.54-2.64-4.52-6.92,0.06-9.56c2.6-1.5,6.11-2.15,9.49-1.94c1.38,0.08,2.76-0.23,3.96-0.89
				l-23.6-13.63l-23.61,13.63c1.21,0.67,2.6,0.97,3.98,0.89c3.38-0.21,6.89,0.44,9.48,1.94c4.58,2.64,4.6,6.92,0.06,9.56
				c-4.55,2.64-11.94,2.64-16.51,0c-2.49-1.43-3.62-3.34-3.42-5.21c0.1-0.88-0.4-1.73-1.17-2.17l-0.55-0.32l-23.48,13.55l23.6,13.63
				c-1.21,0.67-2.58,0.97-3.96,0.89c-3.38-0.21-6.89,0.44-9.49,1.94c-4.58,2.64-4.6,6.92-0.06,9.56c4.54,2.64,11.94,2.64,16.51,0
				c2.48-1.43,3.61-3.34,3.42-5.21c-0.1-0.88,0.41-1.73,1.17-2.17l0.55-0.32l0,0l23.48,13.55l55.23-31.87L252.62,118.25z"/>
			<polygon class="st7" points="220.89,163.69 220.89,168.68 276.11,136.8 276.11,131.81 			"/>
		</g>
		<g>
			<path class="st0" d="M100.25,116.42c-2.6-1.5-6.11-2.15-9.49-1.94c-1.38,0.08-2.76-0.23-3.97-0.89l23.65-13.66L86.75,86.25
				c1.21-0.67,2.58-0.97,3.96-0.89c3.38,0.21,6.89-0.44,9.49-1.94c4.58-2.64,4.6-6.92,0.06-9.56c-4.54-2.64-11.94-2.64-16.51,0
				c-2.48,1.43-3.61,3.34-3.42,5.21c0.1,0.88-0.41,1.73-1.17,2.17l-0.55,0.32L55.23,68.05L0,99.93l55.23,31.89l23.43-13.53
				l0.55,0.32c0.76,0.44,1.27,1.29,1.17,2.17c-0.2,1.87,0.94,3.78,3.42,5.21c4.57,2.64,11.96,2.64,16.51,0
				C104.85,123.35,104.82,119.06,100.25,116.42z"/>
			<polygon class="st5" points="55.22,131.81 55.22,136.8 0,104.92 0,99.93 			"/>
		</g>
	</g>
	<g>
		<path class="st8" d="M371.14,29.66v4.64l-51.36,29.66l-0.01-0.01l-21.84-12.61l-0.51,0.29c-0.71,0.42-1.18,1.2-1.09,2.02
			c0.18,1.74-0.87,3.52-3.18,4.85c-4.25,2.45-11.13,2.45-15.35,0c-2.21-1.28-3.25-2.98-3.14-4.66l-0.02-4.36
			c0,0,14.6-1.88,15.72-2.5l-21.63-12.5l-0.32-0.18v-4.64l4.02,2.32l17.88-10.32l0.51,0.3c0.71,0.41,1.18,1.2,1.09,2.02
			c-0.18,1.74,0.87,3.52,3.18,4.85c4.25,2.45,11.13,2.45,15.35,0c4.23-2.45,4.2-6.44-0.05-8.9c-2.41-1.39-5.68-2-8.83-1.8
			c-1.28,0.07-2.56-0.21-3.69-0.83l-0.01-4.65L319.77,0L371.14,29.66z"/>
		<polygon class="st8" points="371.14,29.66 371.14,34.3 319.77,63.96 319.77,63.95 319.77,0 		"/>
		<path class="st9" d="M371.13,29.65l-51.36,29.66L297.92,46.7l-0.51,0.29c-0.71,0.42-1.18,1.2-1.09,2.02
			c0.18,1.74-0.87,3.52-3.18,4.85c-4.25,2.45-11.13,2.45-15.35,0c-4.23-2.46-4.2-6.44,0.05-8.9c2.41-1.39,5.68-2,8.83-1.8
			c1.28,0.08,2.56-0.21,3.69-0.83L268.4,29.65l21.9-12.64l0.51,0.3c0.71,0.41,1.18,1.2,1.09,2.02c-0.18,1.74,0.87,3.52,3.18,4.85
			c4.25,2.45,11.13,2.45,15.35,0c4.23-2.45,4.2-6.44-0.05-8.9c-2.41-1.39-5.68-2-8.83-1.8c-1.28,0.07-2.56-0.21-3.69-0.83L319.77,0
			L371.13,29.65z"/>
	</g>
</g>
<g id="DESIGN_BY_FREEPIK">
	<g>
	</g>
	<g>
	</g>
	<g>
	</g>
	<g>
	</g>
	<g>
	</g>
	<g>
	</g>
	<g>
	</g>
	<g>
	</g>
	<g>
	</g>
	<g>
	</g>
	<g>
	</g>
	<g>
	</g>
	<g>
	</g>
	<g>
	</g>
	<g>
	</g>
</g>
</svg>
