<?xml version="1.0" encoding="utf-8"?>
<!-- Generator: Adobe Illustrator 24.0.3, SVG Export Plug-In . SVG Version: 6.00 Build 0)  -->
<svg version="1.1" id="Layer_1" xmlns="http://www.w3.org/2000/svg" xmlns:xlink="http://www.w3.org/1999/xlink" x="0px" y="0px"
	 viewBox="0 0 345.24 283.64" style="enable-background:new 0 0 345.24 283.64;" xml:space="preserve">
<style type="text/css">
	.st0{fill:none;stroke:#FFFFFF;stroke-width:2;stroke-miterlimit:10;}
	.st1{fill:#DADBDC;}
	.st2{fill:#656668;}
	.st3{fill:#FFFFFF;}
	.st4{fill:#DCDDDE;}
	.st5{fill:#F1F2F2;}
	.st6{fill:#58595B;}
	.st7{opacity:0.85;}
	.st8{fill:#BCBEC0;}
	.st9{fill:#231F20;}
</style>
<g id="BACKGROUND">
</g>
<g>
	<path class="st0" d="M338.8,112.88V82.44c0-2.75-2.13-5.02-4.87-5.2l-13.49-0.88c-1.82-6.72-4.49-13.09-7.88-18.99l8.92-10.17
		c1.81-2.06,1.71-5.18-0.23-7.12l-21.53-21.53c-1.94-1.94-5.06-2.04-7.12-0.23l-10.17,8.92c-5.91-3.39-12.27-6.05-18.99-7.88
		l-0.88-13.49c-0.18-2.74-2.45-4.87-5.2-4.87h-30.44c-2.75,0-5.02,2.13-5.2,4.87l-0.88,13.49c-6.72,1.82-13.09,4.49-18.99,7.88
		l-10.17-8.92c-2.06-1.81-5.18-1.71-7.12,0.23l-21.53,21.53c-1.94,1.94-2.04,5.06-0.23,7.12l8.92,10.17
		c-3.39,5.91-6.05,12.27-7.88,18.99l-13.49,0.88c-2.74,0.18-4.87,2.45-4.87,5.2v30.44c0,2.75,2.13,5.02,4.87,5.2l13.49,0.88
		c1.82,6.72,4.49,13.09,7.88,18.99l-8.92,10.17c-1.81,2.06-1.71,5.18,0.23,7.12l21.53,21.53c1.94,1.94,5.06,2.04,7.12,0.23
		l10.17-8.92c5.91,3.39,12.27,6.05,18.99,7.88l0.88,13.49c0.18,2.74,2.45,4.87,5.2,4.87h30.44c2.75,0,5.02-2.13,5.2-4.87l0.88-13.49
		c6.72-1.82,13.09-4.49,18.99-7.88L292.6,177c2.06,1.81,5.18,1.71,7.12-0.23l21.53-21.53c1.94-1.94,2.04-5.06,0.23-7.12l-8.92-10.17
		c3.39-5.91,6.05-12.27,7.88-18.99l13.49-0.88C336.67,117.9,338.8,115.62,338.8,112.88z M247.04,145.41
		c-30.36,3.01-55.66-22.3-52.65-52.65c2.23-22.46,20.39-40.63,42.86-42.86c30.36-3.01,55.66,22.3,52.65,52.65
		C287.67,125.02,269.5,143.19,247.04,145.41z"/>
	<path class="st0" d="M141.79,150.88v-20.79c0-1.87-1.46-3.43-3.33-3.55l-9.21-0.6c-1.25-4.59-3.07-8.94-5.38-12.97l6.1-6.95
		c1.24-1.41,1.17-3.54-0.16-4.86l-14.7-14.7c-1.33-1.33-3.45-1.4-4.86-0.16l-6.95,6.1c-4.03-2.31-8.38-4.13-12.97-5.38l-0.6-9.21
		c-0.12-1.87-1.68-3.33-3.55-3.33h-20.8c-1.87,0-3.43,1.46-3.55,3.33l-0.6,9.21c-4.59,1.25-8.94,3.07-12.97,5.38l-6.95-6.1
		c-1.41-1.24-3.54-1.17-4.86,0.16l-14.7,14.7c-1.33,1.33-1.4,3.45-0.16,4.86l6.1,6.95c-2.31,4.03-4.13,8.38-5.38,12.97l-9.21,0.6
		c-1.87,0.12-3.33,1.68-3.33,3.55v20.79c0,1.87,1.46,3.43,3.33,3.55l9.21,0.6c1.25,4.59,3.07,8.94,5.38,12.97l-6.1,6.95
		c-1.24,1.41-1.17,3.54,0.16,4.86l14.7,14.7c1.33,1.33,3.45,1.4,4.86,0.16l6.95-6.1c4.03,2.31,8.38,4.13,12.97,5.38l0.6,9.21
		c0.12,1.87,1.68,3.33,3.55,3.33h20.79c1.87,0,3.43-1.46,3.55-3.33l0.6-9.21c4.59-1.25,8.94-3.07,12.97-5.38l6.95,6.1
		c1.41,1.24,3.54,1.17,4.86-0.16l14.7-14.7c1.33-1.33,1.4-3.45,0.16-4.86l-6.1-6.95c2.31-4.03,4.13-8.38,5.38-12.97l9.21-0.6
		C140.34,154.31,141.79,152.76,141.79,150.88z M79.12,173.1c-20.73,2.05-38.01-15.23-35.96-35.96
		c1.52-15.34,13.93-27.75,29.27-29.27c20.73-2.05,38.01,15.23,35.96,35.96C106.87,159.17,94.46,171.58,79.12,173.1z"/>
</g>
<g>
	<rect x="67.23" y="103.03" class="st1" width="210.78" height="122.48"/>
	<g>
		<g>
			<rect x="73.44" y="106.64" class="st2" width="198.36" height="115.26"/>
			<g>
				<g>
					<path class="st3" d="M130.17,131.71H85.68c-0.91,0-1.65-0.74-1.65-1.65l0,0c0-0.91,0.74-1.65,1.65-1.65h44.49
						c0.91,0,1.65,0.74,1.65,1.65l0,0C131.82,130.96,131.08,131.71,130.17,131.71z"/>
					<path class="st3" d="M182.51,131.71h-44.49c-0.91,0-1.65-0.74-1.65-1.65l0,0c0-0.91,0.74-1.65,1.65-1.65h44.49
						c0.91,0,1.65,0.74,1.65,1.65l0,0C184.16,130.96,183.41,131.71,182.51,131.71z"/>
					<path class="st4" d="M203.56,131.71h-12.2c-0.91,0-1.65-0.74-1.65-1.65l0,0c0-0.91,0.74-1.65,1.65-1.65h12.2
						c0.91,0,1.65,0.74,1.65,1.65l0,0C205.21,130.96,204.47,131.71,203.56,131.71z"/>
				</g>
				<g>
					<path class="st3" d="M144.45,163.01H85.68c-0.91,0-1.65-0.74-1.65-1.65l0,0c0-0.91,0.74-1.65,1.65-1.65h58.77
						c0.91,0,1.65,0.74,1.65,1.65l0,0C146.11,162.27,145.36,163.01,144.45,163.01z"/>
					<path class="st4" d="M188.5,163.01h-35.05c-0.91,0-1.65-0.74-1.65-1.65l0,0c0-0.91,0.74-1.65,1.65-1.65h35.05
						c0.91,0,1.65,0.74,1.65,1.65l0,0C190.15,162.27,189.41,163.01,188.5,163.01z"/>
				</g>
				<g>
					<path class="st4" d="M107.18,142.14h-21.5c-0.91,0-1.65-0.74-1.65-1.65l0,0c0-0.91,0.74-1.65,1.65-1.65h21.5
						c0.91,0,1.65,0.74,1.65,1.65l0,0C108.83,141.4,108.09,142.14,107.18,142.14z"/>
					<path class="st3" d="M151.22,142.14h-38.01c-0.91,0-1.65-0.74-1.65-1.65l0,0c0-0.91,0.74-1.65,1.65-1.65h38.01
						c0.91,0,1.65,0.74,1.65,1.65l0,0C152.87,141.4,152.13,142.14,151.22,142.14z"/>
				</g>
				<g>
					<path class="st3" d="M124.87,121.27H85.68c-0.91,0-1.65-0.74-1.65-1.65l0,0c0-0.91,0.74-1.65,1.65-1.65h39.19
						c0.91,0,1.65,0.74,1.65,1.65l0,0C126.53,120.53,125.78,121.27,124.87,121.27z"/>
					<path class="st4" d="M224.44,121.27h-91.33c-0.91,0-1.65-0.74-1.65-1.65l0,0c0-0.91,0.74-1.65,1.65-1.65h91.33
						c0.91,0,1.65,0.74,1.65,1.65l0,0C226.09,120.53,225.35,121.27,224.44,121.27z"/>
				</g>
				<g>
					<path class="st4" d="M203.56,152.58h-19.49c-0.91,0-1.65-0.74-1.65-1.65l0,0c0-0.91,0.74-1.65,1.65-1.65h19.49
						c0.91,0,1.65,0.74,1.65,1.65l0,0C205.21,151.83,204.47,152.58,203.56,152.58z"/>
					<path class="st3" d="M177.01,152.58H85.68c-0.91,0-1.65-0.74-1.65-1.65l0,0c0-0.91,0.74-1.65,1.65-1.65h91.33
						c0.91,0,1.65,0.74,1.65,1.65l0,0C178.66,151.83,177.92,152.58,177.01,152.58z"/>
				</g>
				<g>
					<path class="st3" d="M130.17,183.88H85.68c-0.91,0-1.65-0.74-1.65-1.65l0,0c0-0.91,0.74-1.65,1.65-1.65h44.49
						c0.91,0,1.65,0.74,1.65,1.65l0,0C131.82,183.13,131.08,183.88,130.17,183.88z"/>
					<path class="st3" d="M182.51,183.88h-44.49c-0.91,0-1.65-0.74-1.65-1.65l0,0c0-0.91,0.74-1.65,1.65-1.65h44.49
						c0.91,0,1.65,0.74,1.65,1.65l0,0C184.16,183.13,183.41,183.88,182.51,183.88z"/>
					<path class="st4" d="M203.56,183.88h-12.2c-0.91,0-1.65-0.74-1.65-1.65l0,0c0-0.91,0.74-1.65,1.65-1.65h12.2
						c0.91,0,1.65,0.74,1.65,1.65l0,0C205.21,183.13,204.47,183.88,203.56,183.88z"/>
				</g>
				<g>
					<path class="st3" d="M144.45,215.18H85.68c-0.91,0-1.65-0.74-1.65-1.65l0,0c0-0.91,0.74-1.65,1.65-1.65h58.77
						c0.91,0,1.65,0.74,1.65,1.65l0,0C146.11,214.44,145.36,215.18,144.45,215.18z"/>
					<path class="st4" d="M188.5,215.18h-35.05c-0.91,0-1.65-0.74-1.65-1.65l0,0c0-0.91,0.74-1.65,1.65-1.65h35.05
						c0.91,0,1.65,0.74,1.65,1.65l0,0C190.15,214.44,189.41,215.18,188.5,215.18z"/>
				</g>
				<g>
					<path class="st4" d="M107.18,194.31h-21.5c-0.91,0-1.65-0.74-1.65-1.65l0,0c0-0.91,0.74-1.65,1.65-1.65h21.5
						c0.91,0,1.65,0.74,1.65,1.65l0,0C108.83,193.57,108.09,194.31,107.18,194.31z"/>
					<path class="st3" d="M151.22,194.31h-38.01c-0.91,0-1.65-0.74-1.65-1.65l0,0c0-0.91,0.74-1.65,1.65-1.65h38.01
						c0.91,0,1.65,0.74,1.65,1.65l0,0C152.87,193.57,152.13,194.31,151.22,194.31z"/>
				</g>
				<g>
					<path class="st3" d="M124.87,173.44H85.68c-0.91,0-1.65-0.74-1.65-1.65l0,0c0-0.91,0.74-1.65,1.65-1.65h39.19
						c0.91,0,1.65,0.74,1.65,1.65l0,0C126.53,172.7,125.78,173.44,124.87,173.44z"/>
					<path class="st4" d="M215.31,173.44h-82.28c-0.86,0-1.57-0.71-1.57-1.57v-0.16c0-0.86,0.71-1.57,1.57-1.57h82.28
						c0.86,0,1.57,0.71,1.57,1.57v0.16C216.89,172.74,216.18,173.44,215.31,173.44z"/>
				</g>
				<g>
					<path class="st4" d="M203.56,204.75h-19.49c-0.91,0-1.65-0.74-1.65-1.65l0,0c0-0.91,0.74-1.65,1.65-1.65h19.49
						c0.91,0,1.65,0.74,1.65,1.65l0,0C205.21,204,204.47,204.75,203.56,204.75z"/>
					<path class="st3" d="M177.01,204.75H85.68c-0.91,0-1.65-0.74-1.65-1.65l0,0c0-0.91,0.74-1.65,1.65-1.65h91.33
						c0.91,0,1.65,0.74,1.65,1.65l0,0C178.66,204,177.92,204.75,177.01,204.75z"/>
				</g>
			</g>
		</g>
		<polygon class="st5" points="345.24,277.87 0,277.87 67.23,225.51 278.01,225.51 		"/>
		<g>
			<polygon class="st6" points="88.74,230.41 77.27,230.41 81.45,227.13 92.43,227.13 			"/>
			<polygon class="st6" points="82.19,236.52 69.48,236.52 74.37,232.69 86.47,232.69 			"/>
			<polygon class="st6" points="101.54,236.52 88.84,236.52 92.81,232.69 104.91,232.69 			"/>
			<polygon class="st6" points="120.9,236.52 108.2,236.52 111.25,232.69 123.35,232.69 			"/>
			<polygon class="st6" points="140.26,236.52 127.56,236.52 129.69,232.69 141.79,232.69 			"/>
			<polygon class="st6" points="159.62,236.52 146.91,236.52 148.13,232.69 160.23,232.69 			"/>
			<polygon class="st6" points="178.97,236.52 166.27,236.52 166.57,232.69 178.67,232.69 			"/>
			<polygon class="st6" points="198.33,236.52 185.63,236.52 185.01,232.69 197.11,232.69 			"/>
			<polygon class="st6" points="217.69,236.52 204.98,236.52 203.45,232.69 215.55,232.69 			"/>
			<polygon class="st6" points="237.04,236.52 224.34,236.52 221.89,232.69 233.99,232.69 			"/>
			<polygon class="st6" points="256.4,236.52 243.7,236.52 240.33,232.69 252.44,232.69 			"/>
			<polygon class="st6" points="275.76,236.52 263.05,236.52 258.77,232.69 270.88,232.69 			"/>
			<polygon class="st6" points="75.03,242.93 61.32,242.93 66.99,238.48 80,238.48 			"/>
			<polygon class="st6" points="95.92,242.93 82.21,242.93 86.81,238.48 99.82,238.48 			"/>
			<polygon class="st6" points="116.81,242.93 103.1,242.93 106.64,238.48 119.65,238.48 			"/>
			<polygon class="st6" points="137.7,242.93 123.99,242.93 126.46,238.48 139.47,238.48 			"/>
			<polygon class="st6" points="158.59,242.93 144.88,242.93 146.29,238.48 159.3,238.48 			"/>
			<polygon class="st6" points="179.48,242.93 165.77,242.93 166.12,238.48 179.13,238.48 			"/>
			<polygon class="st6" points="200.36,242.93 186.66,242.93 185.94,238.48 198.95,238.48 			"/>
			<polygon class="st6" points="221.25,242.93 207.54,242.93 205.77,238.48 218.78,238.48 			"/>
			<polygon class="st6" points="242.14,242.93 228.43,242.93 225.59,238.48 238.6,238.48 			"/>
			<polygon class="st6" points="263.03,242.93 249.32,242.93 245.42,238.48 258.43,238.48 			"/>
			<polygon class="st6" points="283.92,242.93 270.21,242.93 265.25,238.48 278.26,238.48 			"/>
			<polygon class="st6" points="66.2,250.83 51.25,250.83 57.96,245.57 72.08,245.57 			"/>
			<polygon class="st6" points="88.98,250.83 74.03,250.83 79.48,245.57 93.6,245.57 			"/>
			<polygon class="st6" points="225.3,250.83 96.81,250.83 101,245.57 222.39,245.57 			"/>
			<polygon class="st6" points="248.43,250.83 233.48,250.83 230.12,245.57 244.24,245.57 			"/>
			<polygon class="st6" points="271.21,250.83 256.26,250.83 251.64,245.57 265.76,245.57 			"/>
			<polygon class="st6" points="293.99,250.83 279.04,250.83 273.16,245.57 287.28,245.57 			"/>
			<polygon class="st6" points="111.97,230.41 100.49,230.41 103.66,227.13 114.63,227.13 			"/>
			<polygon class="st6" points="128.36,230.41 116.88,230.41 119.33,227.13 130.3,227.13 			"/>
			<polygon class="st6" points="144.75,230.41 133.28,230.41 135,227.13 145.98,227.13 			"/>
			<polygon class="st6" points="161.15,230.41 149.67,230.41 150.68,227.13 161.65,227.13 			"/>
			<polygon class="st6" points="177.54,230.41 166.06,230.41 166.35,227.13 177.32,227.13 			"/>
			<polygon class="st6" points="193.93,230.41 182.46,230.41 182.03,227.13 193,227.13 			"/>
			<polygon class="st6" points="210.87,230.41 199.4,230.41 198.22,227.13 209.19,227.13 			"/>
			<polygon class="st6" points="236.83,230.41 225.35,230.41 223.04,227.13 234.01,227.13 			"/>
			<polygon class="st6" points="252.4,230.41 240.93,230.41 237.93,227.13 248.9,227.13 			"/>
			<polygon class="st6" points="267.98,230.41 256.5,230.41 252.82,227.13 263.79,227.13 			"/>
			<polygon class="st1" points="211.98,270.77 133.26,270.77 139.47,256.12 205.77,256.12 			"/>
		</g>
		<path class="st1" d="M340.13,283.64H5.12c-2.83,0-5.12-2.29-5.12-5.12v-0.65h345.24v0.65
			C345.24,281.35,342.95,283.64,340.13,283.64z"/>
	</g>
</g>
<g class="st7">
	<path class="st8" d="M217.69,191.01h-85.36c-1.49,0-2.69-1.2-2.69-2.69V39.94c0-1.49,1.2-2.69,2.69-2.69h85.36
		c1.49,0,2.69,1.2,2.69,2.69v148.38C220.38,189.8,219.17,191.01,217.69,191.01z"/>
	<rect x="133.13" y="43.16" class="st3" width="83.76" height="128.63"/>
	<path class="st9" d="M180.12,181.68c0,2.82-2.29,5.11-5.11,5.11s-5.11-2.29-5.11-5.11s2.29-5.11,5.11-5.11
		S180.12,178.86,180.12,181.68z"/>
</g>
<g id="DESIGNED_BY_FREEPIK">
</g>
</svg>
