<?xml version="1.0" encoding="utf-8"?>
<!-- Generator: Adobe Illustrator 24.0.3, SVG Export Plug-In . SVG Version: 6.00 Build 0)  -->
<svg version="1.1" id="Слой_1" xmlns="http://www.w3.org/2000/svg" xmlns:xlink="http://www.w3.org/1999/xlink" x="0px" y="0px"
	 viewBox="0 0 279.37 216.38" style="enable-background:new 0 0 279.37 216.38;" xml:space="preserve">
<style type="text/css">
	.st0{fill:#F1F2F2;}
	.st1{fill:#A3A5A8;}
	.st2{fill:#ABADB0;}
	.st3{opacity:0.78;}
	.st4{fill:#E72F2C;}
	.st5{opacity:0.74;}
</style>
<g>
	<g>
		<g>
			<path class="st0" d="M251.4,14.06v153.5c0,7.77-6.29,14.06-14.06,14.06H32.94c-7.77,0-14.06-6.29-14.06-14.06V14.06
				C18.88,6.29,25.17,0,32.94,0h204.4C245.11-0.01,251.4,6.29,251.4,14.06z"/>
		</g>
		<g>
			<path class="st1" d="M251.4,14.06v3.98H18.88v-3.98C18.88,6.29,25.17,0,32.94,0h204.4C245.11-0.01,251.4,6.29,251.4,14.06z"/>
		</g>
	</g>
	<g>
		<path class="st2" d="M110.91,108H45.29c-3.24,0-5.88-2.64-5.88-5.88v-17.2c0-3.24,2.64-5.88,5.88-5.88h65.62
			c3.24,0,5.88,2.64,5.88,5.88v17.2C116.8,105.36,114.16,108,110.91,108z M45.29,79.94c-2.75,0-4.98,2.23-4.98,4.98v17.2
			c0,2.75,2.23,4.98,4.98,4.98h65.62c2.74,0,4.98-2.23,4.98-4.98v-17.2c0-2.74-2.23-4.98-4.98-4.98H45.29z"/>
	</g>
	<g>
		<path class="st2" d="M222.88,108h-81.61c-4.51,0-8.18-3.67-8.18-8.18V49.96c0-4.51,3.67-8.18,8.18-8.18h81.61
			c4.51,0,8.18,3.67,8.18,8.18v49.86C231.06,104.33,227.39,108,222.88,108z M141.27,42.68c-4.01,0-7.28,3.27-7.28,7.28v49.86
			c0,4.01,3.26,7.28,7.28,7.28h81.61c4.01,0,7.28-3.27,7.28-7.28V49.96c0-4.01-3.27-7.28-7.28-7.28
			C222.88,42.68,141.27,42.68,141.27,42.68z"/>
	</g>
	<g>
		<g>
			<path class="st2" d="M194.43,121.28h-59.47c-0.78,0-1.41-0.63-1.41-1.41v-1.7c0-0.78,0.63-1.41,1.41-1.41h59.47
				c0.78,0,1.41,0.63,1.41,1.41v1.7C195.84,120.64,195.21,121.28,194.43,121.28z"/>
		</g>
		<g>
			<path class="st2" d="M194.43,137.72h-59.47c-0.78,0-1.41-0.63-1.41-1.41v-1.7c0-0.78,0.63-1.42,1.41-1.42h59.47
				c0.78,0,1.41,0.63,1.41,1.42v1.7C195.84,137.09,195.21,137.72,194.43,137.72z"/>
		</g>
		<g>
			<g>
				<path class="st1" d="M219.39,122.7l-5.17-4.51c-0.42-0.37-0.47-1.01-0.1-1.44c0.37-0.42,1.01-0.47,1.44-0.1l3.66,3.19l5.21-5.81
					c0.38-0.42,1.02-0.45,1.44-0.08c0.42,0.38,0.45,1.02,0.08,1.44L219.39,122.7z"/>
			</g>
		</g>
		<g>
			<g>
				<path class="st1" d="M219.39,140.17l-5.17-4.51c-0.42-0.37-0.47-1.01-0.1-1.44c0.37-0.42,1.01-0.47,1.44-0.1l3.66,3.19
					l5.21-5.81c0.38-0.42,1.02-0.45,1.44-0.08c0.42,0.38,0.45,1.02,0.08,1.44L219.39,140.17z"/>
			</g>
		</g>
		<g>
			<path class="st2" d="M194.43,155.18h-59.47c-0.78,0-1.41-0.63-1.41-1.41v-1.7c0-0.78,0.63-1.41,1.41-1.41h59.47
				c0.78,0,1.41,0.63,1.41,1.41v1.7C195.84,154.55,195.21,155.18,194.43,155.18z"/>
		</g>
		<g>
			<g>
				<path class="st1" d="M219.39,157.63l-5.17-4.51c-0.42-0.37-0.47-1.01-0.1-1.44c0.37-0.42,1.01-0.47,1.44-0.1l3.66,3.19
					l5.21-5.82c0.38-0.42,1.02-0.45,1.44-0.08c0.42,0.38,0.45,1.02,0.08,1.44L219.39,157.63z"/>
			</g>
		</g>
	</g>
	<g>
		<g>
			<path class="st2" d="M110.91,70.29H45.29c-3,0-5.43-2.43-5.43-5.43v-17.2c0-3,2.43-5.43,5.43-5.43h65.62c3,0,5.43,2.43,5.43,5.43
				v17.2C116.34,67.86,113.91,70.29,110.91,70.29z"/>
		</g>
		<path class="st0" d="M62.66,56.37c0-0.14,0-0.27-0.01-0.41c0-0.05,0-0.09,0-0.14c-0.04-0.82-0.21-1.6-0.48-2.34
			c-1.12-3.09-4.07-5.32-7.56-5.37c-1.88-0.02-3.62,0.59-5.01,1.64c-1.94,1.47-3.21,3.78-3.25,6.41c-0.05,3.62,2.28,6.72,5.54,7.83
			l0,0l0,0c0.79,0.27,1.63,0.42,2.51,0.43c1,0.01,1.95-0.15,2.84-0.47c1.48-0.53,2.76-1.47,3.71-2.69c0.92-1.19,1.53-2.65,1.67-4.24
			C62.65,56.8,62.66,56.58,62.66,56.37z M48.4,56.18c0.02-1.95,0.96-3.68,2.4-4.78c1.05-0.8,2.36-1.27,3.79-1.25
			c2.61,0.03,4.82,1.7,5.67,4.02l0,0c0.2,0.55,0.32,1.14,0.36,1.75l0,0c0.01,0.14,0.01,0.27,0.01,0.41c-0.01,0.59-0.1,1.16-0.27,1.7
			c-0.22,0.72-0.56,1.38-1.01,1.96c-0.16,0.21-0.34,0.41-0.53,0.6c-1.12,1.11-2.67,1.79-4.38,1.77c-0.45-0.01-0.89-0.06-1.31-0.16
			c-0.19-0.04-0.39-0.1-0.57-0.16C50.11,61.23,48.37,58.9,48.4,56.18z"/>
	</g>
	<g>
		<g class="st3">
			<path class="st1" d="M271.64,104.73h-81.61c-4.27,0-7.73-3.46-7.73-7.73V47.15c0-4.27,3.46-7.73,7.73-7.73h81.61
				c4.27,0,7.73,3.46,7.73,7.73V97C279.37,101.27,275.91,104.73,271.64,104.73z"/>
		</g>
		<g>
			<path class="st0" d="M221.78,74.89H195c-1.61,0-2.92-1.31-2.92-2.92V50.13c0-1.61,1.31-2.92,2.92-2.92h26.78
				c1.61,0,2.92,1.31,2.92,2.92v21.84C224.7,73.59,223.39,74.89,221.78,74.89z"/>
		</g>
		<g>
			<path class="st0" d="M270.42,54.6h-38.55c-0.94,0-1.71-0.77-1.71-1.71v-3.96c0-0.94,0.76-1.71,1.71-1.71h38.55
				c0.94,0,1.71,0.77,1.71,1.71v3.96C272.13,53.83,271.36,54.6,270.42,54.6z"/>
		</g>
		<g>
			<path class="st0" d="M270.42,66.15h-38.55c-0.94,0-1.71-0.77-1.71-1.71v-3.96c0-0.94,0.76-1.71,1.71-1.71h38.55
				c0.94,0,1.71,0.77,1.71,1.71v3.96C272.13,65.38,271.36,66.15,270.42,66.15z"/>
		</g>
		<g>
			<path class="st0" d="M270.57,95.79H255.7c-0.86,0-1.55-0.7-1.55-1.55v-0.7c0-0.86,0.7-1.55,1.55-1.55h14.87
				c0.86,0,1.55,0.7,1.55,1.55v0.7C272.13,95.1,271.43,95.79,270.57,95.79z"/>
		</g>
	</g>
	<g>
		<g>
			<g>
				<rect x="34.47" y="130.75" class="st4" width="6.96" height="25.28"/>
			</g>
		</g>
		<g>
			<g>
				<rect x="44.37" y="128.2" class="st4" width="6.96" height="27.83"/>
			</g>
		</g>
		<g>
			<g>
				<rect x="54.41" y="133.5" class="st4" width="6.96" height="22.54"/>
			</g>
		</g>
		<g>
			<g>
				<rect x="64.45" y="123.05" class="st4" width="6.96" height="32.98"/>
			</g>
		</g>
		<g>
			<g>
				<rect x="74.98" y="126.34" class="st4" width="6.96" height="29.7"/>
			</g>
		</g>
		<g>
			<g>
				<rect x="85.65" y="130.75" class="st4" width="6.96" height="25.28"/>
			</g>
		</g>
		<g>
			<g>
				<rect x="95.56" y="128.2" class="st4" width="6.96" height="27.83"/>
			</g>
		</g>
		<g>
			<g>
				<rect x="105.6" y="133.5" class="st4" width="6.96" height="22.54"/>
			</g>
		</g>
	</g>
	<g>
		<g class="st3">
			<path class="st1" d="M71.05,111.16H5.43c-3,0-5.43-2.43-5.43-5.43v-17.2c0-3,2.43-5.43,5.43-5.43h65.62c3,0,5.43,2.43,5.43,5.43
				v17.2C76.48,108.72,74.05,111.16,71.05,111.16z"/>
		</g>
		<path class="st0" d="M23.75,96.24c0-0.04,0-0.08,0-0.12c-0.04-0.82-0.21-1.6-0.48-2.34c-1.12-3.09-4.07-5.32-7.56-5.37
			c-1.88-0.02-3.62,0.59-5.01,1.64c-1.94,1.47-3.21,3.78-3.25,6.41c-0.05,3.62,2.28,6.72,5.54,7.83l0,0l0,0
			c0.79,0.27,1.63,0.42,2.51,0.43c1.03,0.01,2.02-0.17,2.93-0.51c1.44-0.53,2.69-1.46,3.62-2.65c0.92-1.18,1.52-2.63,1.67-4.2
			c0.02-0.23,0.03-0.45,0.04-0.68C23.76,96.52,23.75,96.38,23.75,96.24z M9.5,96.48c0.02-1.95,0.96-3.68,2.4-4.78
			c1.05-0.8,2.36-1.27,3.79-1.25c2.61,0.03,4.82,1.7,5.67,4.02l0,0c0.2,0.55,0.32,1.14,0.36,1.75l0,0c0.01,0.14,0.01,0.27,0.01,0.41
			c-0.01,0.59-0.1,1.16-0.27,1.7c-0.22,0.72-0.56,1.38-1.01,1.96c-0.16,0.21-0.34,0.41-0.53,0.6c-1.12,1.11-2.67,1.79-4.38,1.77
			c-0.45-0.01-0.89-0.06-1.31-0.16c-0.19-0.04-0.38-0.1-0.57-0.16C11.2,101.53,9.46,99.2,9.5,96.48z"/>
	</g>
	<g>
		<g class="st5">
			<path class="st1" d="M203.69,216.38H149.2c-3.84,0-6.95-3.11-6.95-6.95v-39.56c0-3.84,3.11-6.95,6.95-6.95h54.49
				c3.84,0,6.95,3.11,6.95,6.95v39.56C210.64,213.26,207.53,216.38,203.69,216.38z"/>
		</g>
		<g>
			<path class="st0" d="M202.31,209.92H177.9c-2.35,0-4.25-1.9-4.25-4.25v-33.04c0-2.35,1.9-4.25,4.25-4.25h24.41
				c2.35,0,4.25,1.9,4.25,4.25v33.04C206.56,208.02,204.65,209.92,202.31,209.92z"/>
		</g>
		<g>
			<path class="st0" d="M164.39,174.3h-12.5c-1.44,0-2.6-1.17-2.6-2.61v-0.71c0-1.44,1.17-2.6,2.6-2.6h12.5c1.44,0,2.6,1.17,2.6,2.6
				v0.71C167,173.13,165.83,174.3,164.39,174.3z"/>
		</g>
		<g>
			<path class="st0" d="M164.39,185.36h-12.5c-1.44,0-2.6-1.17-2.6-2.6v-0.71c0-1.44,1.17-2.6,2.6-2.6h12.5c1.44,0,2.6,1.17,2.6,2.6
				v0.71C167,184.19,165.83,185.36,164.39,185.36z"/>
		</g>
	</g>
</g>
</svg>
