<?xml version="1.0" encoding="utf-8"?>
<!-- Generator: Adobe Illustrator 24.0.3, SVG Export Plug-In . SVG Version: 6.00 Build 0)  -->
<svg version="1.1" xmlns="http://www.w3.org/2000/svg" xmlns:xlink="http://www.w3.org/1999/xlink" x="0px" y="0px"
	 viewBox="0 0 384.38 307.98" style="enable-background:new 0 0 384.38 307.98;" xml:space="preserve">
<style type="text/css">
	.st0{opacity:0.1;}
	.st1{fill:#455A64;}
	.st2{fill:#263238;}
	.st3{fill:#37474F;}
	.st4{fill:#CFD8DC;}
	.st5{clip-path:url(#SVGID_2_);}
	.st6{clip-path:url(#SVGID_4_);}
	.st7{clip-path:url(#SVGID_6_);}
	.st8{enable-background:new    ;}
	.st9{fill:#5F6061;}
	.st10{fill:#5A5B5D;}
	.st11{fill:#004C54;}
	.st12{fill:#0094A4;}
	.st13{fill:#005058;}
	.st14{clip-path:url(#SVGID_8_);enable-background:new    ;}
	.st15{fill:#5D5E60;}
	.st16{clip-path:url(#SVGID_10_);enable-background:new    ;}
	.st17{fill:#CBD4D8;}
	.st18{fill:#6D7274;}
	.st19{fill:#686D6F;}
	.st20{clip-path:url(#SVGID_12_);enable-background:new    ;}
	.st21{fill:#AFB1B4;}
	.st22{fill:#FFFFFF;}
	.st23{fill:#808285;}
	.st24{fill:#F7F9F9;}
	.st25{fill:#DCDDDE;}
	.st26{fill:#ECEFF1;}
	.st27{fill:#F4F5F7;}
	.st28{fill:#00BCD4;}
</style>
<g id="BACKGROUND_2">
</g>
<g id="OBJECTS">
	<g id="Novo_símbolo_6_2_">
	</g>
	<g id="Novo_símbolo_6_1_">
	</g>
	<g id="Novo_símbolo_6">
	</g>
	<g>
		<g class="st0">
			<path d="M363.49,104.07c10.14,5.86,10.2,15.35,0.12,21.21c-73.53,42.73-147.06,85.46-220.6,128.2c-10.08,5.86-26.48,5.86-36.62,0
				c-28.7-16.57-57.39-33.13-86.09-49.7c-10.14-5.86-10.2-15.36-0.12-21.21c73.53-42.73,147.06-85.46,220.6-128.2
				c10.08-5.86,26.48-5.86,36.63,0C306.1,70.94,334.8,87.51,363.49,104.07z"/>
			<path d="M373.62,117.22c-0.16-1.2-0.37-2.05-0.49-2.44c-0.17-0.61-0.37-1.29-0.93-2.53c-0.31-0.7-0.61-1.19-1.11-2
				c-0.32-0.51-0.81-1.16-1.2-1.61c-0.51-0.59-1.25-1.34-1.83-1.87c-0.68-0.62-1.68-1.33-2.43-1.87c-0.4-0.28-0.97-0.6-1.38-0.86
				c-0.23-0.13-0.49-0.13-0.76,0.02c10.14,5.86,10.2,15.35,0.12,21.21l-220.6,128.2c-10.08,5.86-26.48,5.86-36.62,0l0,0l-86.09-49.7
				c-10.14-5.86-10.2-15.36-0.12-21.21c-0.28-0.16-0.54-0.16-0.78-0.02c-0.78,0.48-1.8,1.16-2.54,1.7
				c-0.36,0.26-0.82,0.65-1.15,0.95c-0.5,0.47-1.17,1.1-1.62,1.62c-0.83,0.97-1.32,1.69-1.59,2.13c-1.1,1.79-1.57,3.19-1.89,4.33
				c-0.19,0.69-0.35,1.5-0.47,2.42c-0.1,0.78-0.12,1.37-0.14,2.19l0,1.2c0,0.8,0.09,1.6,0.29,2.39c-0.2-0.79-0.29-1.59-0.29-2.39
				c0,2.22,0.36,3.8,0.67,4.93c0.57,2.06,1.53,3.62,1.85,4.14c0.36,0.58,0.95,1.37,1.29,1.77c0.55,0.64,1.34,1.43,1.96,2
				c0.66,0.61,1.66,1.3,2.39,1.83c0.39,0.28,0.95,0.59,1.35,0.84h0l86.09,49.7c1.93,1.11,3.47,1.7,3.49,1.71
				c1.07,0.41,2.52,0.91,3.61,1.26c0.57,0.18,1.35,0.36,1.93,0.51c2.98,0.72,6.65,1.13,10.06,1.13c3.46,0,7.04-0.41,10.08-1.14
				c0.6-0.14,1.39-0.33,1.98-0.52c1.09-0.35,2.53-0.85,3.59-1.27c0.56-0.22,1.29-0.57,1.82-0.83c0.48-0.24,1.11-0.6,1.58-0.85
				c0.27-0.16,0.5-0.48,0.69-0.95c-0.18,0.47-0.42,0.8-0.69,0.95L232,213l132.36-76.92c0.75-0.46,1.75-1.09,2.45-1.62
				c0.69-0.53,1.55-1.31,2.18-1.91c0.43-0.41,0.95-1.02,1.31-1.49c0.39-0.51,0.87-1.23,1.21-1.78c0.61-0.99,1.29-2.59,1.59-3.72
				c0.18-0.69,0.36-1.35,0.5-2.4c0.13-0.95,0.15-1.6,0.17-2.42v0l0-1.2C373.76,118.82,373.74,118.13,373.62,117.22z"/>
			<path d="M311.5,91.17c1.04,0.6,1.04,1.57,0.01,2.17c-1.03,0.6-2.7,0.6-3.74,0l-18.75-10.83c-1.04-0.6-1.04-1.57-0.02-2.17
				c1.03-0.6,2.7-0.6,3.74,0L311.5,91.17z"/>
			<path d="M281.92,74.08c1.03,0.6,1.04,1.57,0.01,2.17c-1.03,0.6-2.7,0.6-3.73,0c-1.04-0.6-1.04-1.57-0.02-2.17
				C279.2,73.48,280.88,73.48,281.92,74.08z"/>
			<path d="M80.26,210.53c5.18,2.99,5.21,7.83,0.06,10.83c-5.14,2.99-13.51,2.99-18.69,0c-5.18-2.99-5.2-7.84-0.06-10.83
				C66.72,207.54,75.08,207.54,80.26,210.53z"/>
			<path d="M62.88,211.86c5.15-2.99,13.51-2.99,18.69,0c0.52,0.3,0.98,0.63,1.39,0.96c-0.64-0.83-1.54-1.6-2.72-2.28
				c-5.18-2.99-13.54-2.99-18.69,0c-4.63,2.69-5.05,6.87-1.33,9.87C58.04,217.58,58.91,214.17,62.88,211.86z"/>
			<path d="M340.21,127.61c1.73,1,1.74,2.62,0.02,3.62L150.2,241.67c-1.72,1-4.53,1-6.26,0L37.05,179.96
				c-1.73-1-1.74-2.63-0.02-3.63L227.06,65.89c1.72-1,4.53-1,6.26,0L340.21,127.61z"/>
			<path d="M37.03,178.16L227.06,67.73c1.72-1,4.53-1,6.26,0l106.89,61.72c0.46,0.26,0.79,0.58,1,0.91c0.61-0.92,0.27-2-1-2.74
				L233.32,65.9c-1.73-1-4.54-1-6.26,0L37.03,176.33c-1.26,0.73-1.59,1.81-0.99,2.72C36.26,178.73,36.58,178.43,37.03,178.16z"/>
		</g>
		<g>
			<g>
				<g>
					<path class="st1" d="M353.49,84.07c10.14,5.86,10.2,15.35,0.12,21.21c-73.53,42.73-147.06,85.46-220.6,128.2
						c-10.08,5.86-26.48,5.86-36.62,0c-28.7-16.57-57.39-33.13-86.09-49.7c-10.14-5.86-10.2-15.36-0.12-21.21
						c73.53-42.73,147.06-85.46,220.6-128.2c10.08-5.86,26.48-5.86,36.63,0C296.1,50.94,324.8,67.51,353.49,84.07z"/>
				</g>
				<path class="st2" d="M363.62,97.22c-0.16-1.2-0.37-2.05-0.49-2.44c-0.17-0.61-0.37-1.29-0.93-2.53c-0.31-0.7-0.61-1.19-1.11-2
					c-0.32-0.51-0.81-1.16-1.2-1.61c-0.51-0.59-1.25-1.34-1.83-1.87c-0.68-0.62-1.68-1.33-2.43-1.87c-0.4-0.28-0.97-0.6-1.38-0.86
					c-0.23-0.13-0.49-0.13-0.76,0.02c10.14,5.86,10.2,15.35,0.12,21.21l-220.6,128.2c-10.08,5.86-26.48,5.86-36.62,0l0,0
					l-86.09-49.7c-10.14-5.86-10.2-15.36-0.12-21.21c-0.28-0.16-0.54-0.16-0.78-0.02c-0.78,0.48-1.8,1.16-2.54,1.7
					c-0.36,0.26-0.82,0.65-1.15,0.95c-0.5,0.47-1.17,1.1-1.62,1.62c-0.83,0.97-1.32,1.69-1.59,2.13c-1.1,1.79-1.57,3.19-1.89,4.33
					c-0.19,0.69-0.35,1.5-0.47,2.42c-0.1,0.78-0.12,1.37-0.14,2.19l0,1.2c0,0.8,0.09,1.6,0.29,2.39c-0.2-0.79-0.29-1.59-0.29-2.39
					c0,2.22,0.36,3.8,0.67,4.93c0.57,2.06,1.53,3.62,1.85,4.14c0.36,0.58,0.95,1.37,1.29,1.77c0.55,0.64,1.34,1.43,1.96,2
					c0.66,0.61,1.66,1.3,2.39,1.83c0.39,0.28,0.95,0.59,1.35,0.84h0l86.09,49.7c1.93,1.11,3.47,1.7,3.49,1.71
					c1.07,0.41,2.52,0.91,3.61,1.26c0.57,0.18,1.35,0.36,1.93,0.51c2.98,0.72,6.65,1.13,10.06,1.13c3.46,0,7.04-0.41,10.08-1.14
					c0.6-0.14,1.39-0.33,1.98-0.52c1.09-0.35,2.53-0.85,3.59-1.27c0.56-0.22,1.29-0.57,1.82-0.83c0.48-0.24,1.11-0.6,1.58-0.85
					c0.27-0.16,0.5-0.48,0.69-0.95c-0.18,0.47-0.42,0.8-0.69,0.95L222,193l132.36-76.92c0.75-0.46,1.75-1.09,2.45-1.62
					c0.69-0.53,1.55-1.31,2.18-1.91c0.43-0.41,0.95-1.02,1.31-1.49c0.39-0.51,0.87-1.23,1.21-1.78c0.61-0.99,1.29-2.59,1.59-3.72
					c0.18-0.69,0.36-1.35,0.5-2.4c0.13-0.95,0.15-1.6,0.17-2.42v0l0-1.2C363.76,98.82,363.74,98.13,363.62,97.22z"/>
				<g>
					<g>
						<path class="st3" d="M301.5,71.17c1.04,0.6,1.04,1.57,0.01,2.17c-1.03,0.6-2.7,0.6-3.74,0l-18.75-10.83
							c-1.04-0.6-1.04-1.57-0.02-2.17c1.03-0.6,2.7-0.6,3.74,0L301.5,71.17z"/>
					</g>
					<g>
						<path class="st3" d="M271.92,54.08c1.03,0.6,1.04,1.57,0.01,2.17c-1.03,0.6-2.7,0.6-3.73,0c-1.04-0.6-1.04-1.57-0.02-2.17
							C269.2,53.48,270.88,53.48,271.92,54.08z"/>
					</g>
				</g>
				<g>
					<path class="st3" d="M70.26,190.53c5.18,2.99,5.21,7.83,0.06,10.83c-5.14,2.99-13.51,2.99-18.69,0
						c-5.18-2.99-5.2-7.84-0.06-10.83C56.72,187.54,65.08,187.54,70.26,190.53z"/>
					<path class="st2" d="M52.88,191.86c5.15-2.99,13.51-2.99,18.69,0c0.52,0.3,0.98,0.63,1.39,0.96c-0.64-0.83-1.54-1.6-2.72-2.28
						c-5.18-2.99-13.54-2.99-18.69,0c-4.63,2.69-5.05,6.87-1.33,9.87C48.04,197.58,48.91,194.17,52.88,191.86z"/>
				</g>
				<g>
					<g>
						<path class="st4" d="M330.21,107.61c1.73,1,1.74,2.62,0.02,3.62L140.2,221.67c-1.72,1-4.53,1-6.26,0L27.05,159.96
							c-1.73-1-1.74-2.63-0.02-3.63L217.06,45.89c1.72-1,4.53-1,6.26,0L330.21,107.61z"/>
					</g>
				</g>
				<path class="st4" d="M27.03,158.16L217.06,47.73c1.72-1,4.53-1,6.26,0l106.89,61.72c0.46,0.26,0.79,0.58,1,0.91
					c0.61-0.92,0.27-2-1-2.74L223.32,45.9c-1.73-1-4.54-1-6.26,0L27.03,156.33c-1.26,0.73-1.59,1.81-0.99,2.72
					C26.26,158.73,26.58,158.43,27.03,158.16z"/>
			</g>
		</g>
	</g>
	<g>
		<g class="st0">
			<polygon points="232.97,216.44 232.97,218.07 219.58,225.86 219.58,224.23 			"/>
			<polygon points="259.95,232.02 259.95,233.65 232.97,218.07 232.97,216.44 			"/>
			<polygon points="246.55,239.8 246.55,241.43 219.58,225.86 219.58,224.23 			"/>
			<polygon points="259.95,232.02 246.55,239.8 219.58,224.23 232.97,216.44 			"/>
			<polygon points="259.95,232.02 259.95,233.65 246.55,241.43 246.55,239.8 			"/>
			<g>
				<defs>
					<path id="SVGID_1_" d="M187.61,237.04l0-1.63c-0.01,1.89,1.24,3.78,3.74,5.23l0,1.63
						C188.85,240.82,187.61,238.93,187.61,237.04z"/>
				</defs>
				<clipPath id="SVGID_2_">
					<use xlink:href="#SVGID_1_"  style="overflow:visible;"/>
				</clipPath>
				<path class="st5" d="M191.36,240.64l0,1.63c-2.5-1.44-3.75-3.34-3.74-5.23l0-1.63C187.61,237.3,188.86,239.19,191.36,240.64"/>
			</g>
			<polygon points="268.94,237.21 268.93,238.84 255.54,246.62 255.54,244.99 			"/>
			<g>
				<defs>
					<path id="SVGID_3_" d="M383.37,261.43l0,1.63c-0.01,1.87-1.23,3.73-3.68,5.15l0-1.63C382.14,265.16,383.37,263.3,383.37,261.43
						z"/>
				</defs>
				<clipPath id="SVGID_4_">
					<use xlink:href="#SVGID_3_"  style="overflow:visible;"/>
				</clipPath>
				<path class="st6" d="M383.37,261.43l0,1.63c-0.01,1.87-1.23,3.73-3.68,5.15l0-1.63C382.14,265.16,383.37,263.3,383.37,261.43"/>
			</g>
			<polygon points="340.86,278.74 340.86,280.37 268.93,238.84 268.94,237.21 			"/>
			<polygon points="340.86,278.74 327.46,286.52 255.54,244.99 268.94,237.21 			"/>
			<polygon points="340.86,278.74 340.86,280.37 327.46,288.15 327.46,286.52 			"/>
			<polygon points="327.46,286.52 327.46,288.15 255.54,246.62 255.54,244.99 			"/>
			<polygon points="379.69,266.58 379.69,268.22 317.17,304.56 317.17,302.93 			"/>
			<polygon points="299.25,302.93 299.25,304.56 191.35,242.27 191.36,240.64 			"/>
			<g>
				<defs>
					<path id="SVGID_5_" d="M317.17,302.93l0,1.63c-4.94,2.87-12.96,2.86-17.92,0l0-1.63C304.21,305.79,312.24,305.79,317.17,302.93
						z"/>
				</defs>
				<clipPath id="SVGID_6_">
					<use xlink:href="#SVGID_5_"  style="overflow:visible;"/>
				</clipPath>
				<path class="st7" d="M317.17,302.93l0,1.63c-4.94,2.87-12.96,2.86-17.92,0l0-1.63C304.21,305.79,312.24,305.79,317.17,302.93"/>
			</g>
			<path d="M379.69,266.58l-62.52,36.34c-4.94,2.87-12.96,2.86-17.92,0l-107.89-62.29c-4.97-2.87-4.99-7.52-0.06-10.39l62.52-36.34
				c4.93-2.86,12.96-2.86,17.92,0l107.89,62.29C384.6,259.07,384.62,263.72,379.69,266.58z M327.46,286.52l13.4-7.79l-71.92-41.53
				l-13.4,7.79L327.46,286.52 M246.55,239.8l13.4-7.79l-26.97-15.57l-13.39,7.79L246.55,239.8"/>
		</g>
		<g>
			<g class="st8">
				<g>
					<polygon class="st9" points="222.97,196.44 222.97,198.07 209.58,205.86 209.58,204.23 					"/>
				</g>
				<g>
					<polygon class="st10" points="249.95,212.02 249.95,213.65 222.97,198.07 222.97,196.44 					"/>
				</g>
				<g>
					<polygon class="st11" points="236.55,219.8 236.55,221.43 209.58,205.86 209.58,204.23 					"/>
				</g>
				<g>
					<polygon class="st12" points="249.95,212.02 236.55,219.8 209.58,204.23 222.97,196.44 					"/>
				</g>
				<g>
					<polygon class="st13" points="249.95,212.02 249.95,213.65 236.55,221.43 236.55,219.8 					"/>
				</g>
				<g class="st8">
					<defs>
						<path id="SVGID_7_" class="st8" d="M177.61,217.04l0-1.63c-0.01,1.89,1.24,3.78,3.74,5.23l0,1.63
							C178.85,220.82,177.61,218.93,177.61,217.04z"/>
					</defs>
					<clipPath id="SVGID_8_">
						<use xlink:href="#SVGID_7_"  style="overflow:visible;"/>
					</clipPath>
					<g class="st14">
						<path class="st15" d="M181.36,220.64l0,1.63c-2.5-1.44-3.75-3.34-3.74-5.23l0-1.63C177.61,217.3,178.86,219.19,181.36,220.64"
							/>
					</g>
				</g>
				<g>
					<polygon class="st9" points="258.94,217.21 258.93,218.84 245.54,226.62 245.54,224.99 					"/>
				</g>
				<g class="st8">
					<defs>
						<path id="SVGID_9_" class="st8" d="M373.37,241.43l0,1.63c-0.01,1.87-1.23,3.73-3.68,5.15l0-1.63
							C372.14,245.16,373.37,243.3,373.37,241.43z"/>
					</defs>
					<clipPath id="SVGID_10_">
						<use xlink:href="#SVGID_9_"  style="overflow:visible;"/>
					</clipPath>
					<g class="st16">
						<path class="st15" d="M373.37,241.43l0,1.63c-0.01,1.87-1.23,3.73-3.68,5.15l0-1.63C372.14,245.16,373.37,243.3,373.37,241.43
							"/>
					</g>
				</g>
				<g>
					<polygon class="st10" points="330.86,258.74 330.86,260.37 258.93,218.84 258.94,217.21 					"/>
				</g>
				<g>
					<polygon class="st17" points="330.86,258.74 317.46,266.52 245.54,224.99 258.94,217.21 					"/>
				</g>
				<g>
					<polygon class="st18" points="330.86,258.74 330.86,260.37 317.46,268.15 317.46,266.52 					"/>
				</g>
				<g>
					<polygon class="st19" points="317.46,266.52 317.46,268.15 245.54,226.62 245.54,224.99 					"/>
				</g>
				<g>
					<polygon class="st9" points="369.69,246.58 369.69,248.22 307.17,284.56 307.17,282.93 					"/>
				</g>
				<g>
					<polygon class="st10" points="289.25,282.93 289.25,284.56 181.35,222.27 181.36,220.64 					"/>
				</g>
				<g class="st8">
					<defs>
						<path id="SVGID_11_" class="st8" d="M307.17,282.93l0,1.63c-4.94,2.87-12.96,2.86-17.92,0l0-1.63
							C294.21,285.79,302.24,285.79,307.17,282.93z"/>
					</defs>
					<clipPath id="SVGID_12_">
						<use xlink:href="#SVGID_11_"  style="overflow:visible;"/>
					</clipPath>
					<g class="st20">
						<path class="st15" d="M307.17,282.93l0,1.63c-4.94,2.87-12.96,2.86-17.92,0l0-1.63C294.21,285.79,302.24,285.79,307.17,282.93
							"/>
					</g>
				</g>
				<g>
					<path class="st21" d="M369.69,246.58l-62.52,36.34c-4.94,2.87-12.96,2.86-17.92,0l-107.89-62.29
						c-4.97-2.87-4.99-7.52-0.06-10.39l62.52-36.34c4.93-2.86,12.96-2.86,17.92,0l107.89,62.29
						C374.6,239.07,374.62,243.72,369.69,246.58z M317.46,266.52l13.4-7.79l-71.92-41.53l-13.4,7.79L317.46,266.52 M236.55,219.8
						l13.4-7.79l-26.97-15.57l-13.39,7.79L236.55,219.8"/>
				</g>
			</g>
		</g>
	</g>
	<g>
		<g class="st0">
			<path d="M351.01,132.17c0.44,0.25,0.59,0.65,0.32,0.99c-0.34,0.44-1.24,0.64-2.01,0.45c-0.17-0.05-0.33-0.11-0.45-0.18
				c-0.44-0.25-0.59-0.65-0.33-0.99c0.35-0.45,1.25-0.65,2.02-0.45C350.73,132.04,350.88,132.1,351.01,132.17z"/>
			<path d="M345.33,125.29c0.72,0.41,0.72,1.08,0,1.5l-5.8,3.37c-0.72,0.42-1.88,0.42-2.59,0l-79.91-46.14
				c-0.72-0.42-0.73-1.09-0.01-1.5l5.8-3.37c0.72-0.42,1.88-0.42,2.6,0L345.33,125.29z M290.97,102.06c0.36,0,0.65-0.17,0.66-0.38
				l-0.01-1.06c0.62-0.07,1.21-0.25,1.67-0.52c0.62-0.36,0.96-0.84,0.96-1.36c0-0.51-0.35-0.99-0.97-1.35s-1.46-0.56-2.34-0.56
				c-0.88,0-1.72,0.2-2.34,0.56c-0.62,0.36-0.96,0.84-0.96,1.36c0,0.51,0.36,0.99,0.98,1.35c0.47,0.27,1.05,0.45,1.68,0.52
				l0.01,1.06c0,0.1,0.07,0.2,0.19,0.27C290.61,102.02,290.78,102.06,290.97,102.06 M312.59,112.05c0.4,0.23,1.03,0.22,1.41,0
				c0.39-0.22,0.39-0.59,0-0.82l-14.07-8.12c-0.39-0.22-1.03-0.22-1.41,0c-0.39,0.22-0.38,0.59,0,0.82L312.59,112.05"/>
			<path d="M291.63,101.68c-0.01,0.21-0.3,0.38-0.66,0.38c-0.18,0-0.36-0.04-0.47-0.11c-0.12-0.07-0.19-0.17-0.19-0.27l-0.01-1.06
				c-0.63-0.07-1.21-0.25-1.68-0.52c-0.63-0.36-0.98-0.84-0.98-1.35c0-0.51,0.34-1,0.96-1.36c0.62-0.36,1.45-0.56,2.34-0.56
				c0.88,0,1.71,0.2,2.34,0.56s0.97,0.84,0.97,1.35c0,0.52-0.34,1-0.96,1.36c-0.46,0.27-1.05,0.45-1.67,0.52L291.63,101.68z
				 M290.95,99.89c0.53,0,1.03-0.12,1.4-0.34c0.37-0.22,0.58-0.51,0.57-0.81c0-0.3-0.21-0.59-0.58-0.81
				c-0.38-0.22-0.88-0.34-1.4-0.34c-0.53,0-1.03,0.12-1.4,0.34c-0.37,0.22-0.58,0.51-0.57,0.81c0,0.31,0.23,0.59,0.6,0.8
				C289.93,99.76,290.42,99.89,290.95,99.89"/>
			<path d="M292.35,97.93c0.37,0.21,0.58,0.51,0.58,0.81c0,0.31-0.2,0.6-0.57,0.81c-0.37,0.22-0.87,0.34-1.4,0.34
				c-0.53,0-1.02-0.13-1.39-0.34c-0.36-0.21-0.6-0.5-0.6-0.8c0-0.31,0.2-0.6,0.57-0.81c0.37-0.22,0.87-0.34,1.4-0.34
				C291.47,97.6,291.97,97.72,292.35,97.93z"/>
			<path d="M313.99,111.24c0.4,0.23,0.39,0.59,0,0.82s-1.02,0.23-1.41,0l-14.07-8.12c-0.39-0.22-0.39-0.59,0-0.82
				c0.39-0.22,1.02-0.22,1.41,0L313.99,111.24z"/>
			<polygon points="254.66,74.95 254.57,75.53 250,75.29 250.25,77.81 249.25,77.84 248.93,74.65 			"/>
			<path d="M351.86,134.6c0.08,0.17,0.14,0.27-0.07,0.31s-0.07,0.01-0.4,0.08c-0.34,0.08-0.2,0.04-0.41,0.09
				c-0.1,0.02-0.17,0.01-0.23-0.02c-0.06-0.04-0.11-0.1-0.19-0.18c-0.06-0.08-0.14-0.15-0.23-0.2c-0.11-0.06-0.23-0.1-0.4-0.1
				l-0.18-0.01c-0.31,0-0.5,0.12-0.65,0.28c-0.15,0.15-0.23,0.24-0.43,0.19c-0.2-0.05-0.07-0.02-0.39-0.1
				c-0.33-0.09-0.2-0.05-0.4-0.11c-0.04-0.01-0.07-0.02-0.09-0.03c-0.1-0.06-0.04-0.14,0.04-0.28c0.11-0.17,0.13-0.34-0.07-0.47
				l-0.13-0.08c-0.21-0.12-0.5-0.12-0.8-0.07c-0.24,0.04-0.39,0.07-0.48,0.01c-0.02-0.01-0.04-0.03-0.06-0.05
				c-0.08-0.12-0.03-0.04-0.15-0.23c-0.13-0.2-0.08-0.12-0.15-0.24c-0.08-0.12,0.07-0.16,0.35-0.24c0.29-0.08,0.51-0.18,0.52-0.36
				l0.01-0.11c0-0.1-0.07-0.19-0.19-0.26c-0.08-0.05-0.18-0.09-0.29-0.12c-0.13-0.04-0.23-0.08-0.29-0.11
				c-0.07-0.04-0.08-0.08-0.04-0.14c0.09-0.12,0.03-0.04,0.17-0.22c0.15-0.2,0.09-0.12,0.18-0.23c0.09-0.12,0.25-0.08,0.54-0.03
				c0.3,0.06,0.59,0.08,0.81-0.04l0.14-0.07c0.21-0.12,0.2-0.29,0.11-0.46c-0.08-0.17-0.14-0.27,0.07-0.31
				c0.2-0.04,0.07-0.01,0.4-0.08c0.34-0.08,0.2-0.04,0.41-0.09c0.1-0.02,0.17-0.01,0.23,0.02c0.06,0.04,0.11,0.1,0.19,0.18
				c0.06,0.08,0.14,0.15,0.23,0.2c0.11,0.06,0.23,0.1,0.4,0.1l0.18,0.01c0.31,0,0.51-0.13,0.65-0.28c0.15-0.15,0.23-0.24,0.43-0.19
				c0.2,0.05,0.07,0.02,0.39,0.1c0.34,0.09,0.2,0.06,0.4,0.11c0.04,0.01,0.07,0.02,0.09,0.03c0.1,0.06,0.04,0.14-0.04,0.28
				c-0.11,0.17-0.14,0.34,0.07,0.47l0.12,0.08c0.22,0.13,0.5,0.12,0.81,0.07c0.24-0.04,0.39-0.07,0.48-0.01
				c0.02,0.01,0.04,0.03,0.06,0.05c0.08,0.12,0.02,0.04,0.15,0.23c0.13,0.2,0.08,0.12,0.15,0.24c0.08,0.12-0.07,0.16-0.35,0.24
				c-0.29,0.08-0.51,0.18-0.52,0.36l-0.01,0.1c0,0.1,0.07,0.19,0.19,0.26c0.08,0.05,0.18,0.09,0.3,0.12
				c0.13,0.04,0.23,0.08,0.29,0.11c0.07,0.04,0.08,0.08,0.04,0.14c-0.09,0.12-0.03,0.04-0.17,0.22c-0.15,0.19-0.09,0.12-0.18,0.23
				c-0.09,0.12-0.25,0.08-0.54,0.03c-0.3-0.06-0.59-0.08-0.81,0.04l-0.13,0.07C351.77,134.26,351.77,134.42,351.86,134.6z
				 M349.32,133.62c0.77,0.2,1.67,0,2.01-0.45c0.26-0.35,0.12-0.74-0.32-0.99c-0.13-0.07-0.28-0.14-0.45-0.18
				c-0.77-0.2-1.67,0-2.02,0.45c-0.26,0.35-0.11,0.74,0.33,0.99C348.99,133.51,349.15,133.57,349.32,133.62"/>
			<path d="M364.15,130.22c1.44,0.83,1.45,2.17,0.02,3l-16.05,9.33L235.61,77.59l16.05-9.33c1.43-0.83,3.75-0.83,5.19,0
				L364.15,130.22z M339.54,130.16l5.8-3.37c0.72-0.42,0.71-1.09,0-1.5l-79.91-46.14c-0.72-0.42-1.88-0.42-2.6,0l-5.8,3.37
				c-0.72,0.42-0.71,1.09,0.01,1.5l79.91,46.14C337.66,130.57,338.82,130.57,339.54,130.16 M351.86,134.6
				c-0.09-0.18-0.1-0.34,0.12-0.47l0.11-0.07c0.24-0.13,0.53-0.11,0.83-0.04c0.29,0.06,0.45,0.09,0.54-0.03
				c0.09-0.11,0.03-0.04,0.18-0.23c0.15-0.19,0.09-0.11,0.18-0.23c0.05-0.06,0.03-0.1-0.04-0.14c-0.06-0.04-0.16-0.07-0.29-0.11
				c-0.11-0.04-0.22-0.08-0.3-0.12c-0.12-0.07-0.19-0.15-0.19-0.26l0.01-0.1c0.01-0.18,0.23-0.29,0.52-0.37
				c0.28-0.08,0.43-0.12,0.35-0.24c-0.08-0.12-0.02-0.04-0.15-0.23c-0.13-0.2-0.08-0.12-0.15-0.24c-0.02-0.02-0.04-0.04-0.06-0.05
				c-0.09-0.05-0.25-0.03-0.48,0.01c-0.31,0.05-0.59,0.06-0.81-0.07l-0.11-0.07c-0.22-0.14-0.19-0.31-0.08-0.48
				c0.08-0.14,0.14-0.23,0.04-0.28c-0.02-0.01-0.05-0.02-0.09-0.03c-0.2-0.05-0.06-0.02-0.4-0.11c-0.32-0.08-0.18-0.05-0.39-0.1
				c-0.2-0.05-0.28,0.04-0.43,0.19c-0.15,0.16-0.34,0.28-0.65,0.28l-0.17-0.01c-0.18,0-0.31-0.04-0.41-0.1
				c-0.09-0.05-0.16-0.12-0.23-0.2c-0.07-0.08-0.12-0.15-0.19-0.18c-0.06-0.03-0.13-0.04-0.23-0.02c-0.2,0.04-0.07,0.01-0.4,0.08
				c-0.34,0.08-0.2,0.04-0.41,0.09c-0.21,0.05-0.15,0.14-0.07,0.31c0.09,0.18,0.1,0.34-0.11,0.46l-0.12,0.07
				c-0.24,0.13-0.53,0.11-0.83,0.04c-0.29-0.06-0.45-0.09-0.54,0.03c-0.09,0.11-0.04,0.04-0.18,0.23c-0.15,0.19-0.09,0.11-0.18,0.23
				c-0.05,0.06-0.03,0.1,0.04,0.14c0.06,0.04,0.16,0.07,0.29,0.11c0.11,0.03,0.21,0.07,0.29,0.12c0.12,0.07,0.19,0.15,0.19,0.26
				l-0.01,0.1c-0.01,0.18-0.23,0.29-0.52,0.37c-0.28,0.08-0.43,0.12-0.35,0.24c0.08,0.12,0.02,0.04,0.15,0.23
				c0.13,0.2,0.08,0.12,0.15,0.24c0.02,0.02,0.04,0.04,0.06,0.05c0.09,0.05,0.24,0.02,0.48-0.01c0.31-0.05,0.59-0.06,0.8,0.07
				l0.12,0.07c0.21,0.14,0.19,0.31,0.08,0.48c-0.08,0.14-0.14,0.23-0.04,0.28c0.02,0.01,0.05,0.02,0.09,0.03
				c0.2,0.06,0.07,0.02,0.4,0.1c0.33,0.08,0.19,0.05,0.4,0.1c0.2,0.05,0.28-0.04,0.43-0.19c0.15-0.16,0.35-0.28,0.65-0.28l0.17,0.01
				c0.18,0,0.31,0.04,0.41,0.1c0.09,0.05,0.16,0.12,0.23,0.2c0.07,0.08,0.12,0.15,0.19,0.18c0.06,0.03,0.13,0.04,0.23,0.02
				c0.2-0.04,0.07-0.01,0.4-0.08c0.34-0.08,0.2-0.04,0.41-0.09S351.95,134.77,351.86,134.6 M250.25,77.81L250,75.29l4.56,0.24
				l0.09-0.58l-5.72-0.3l0.32,3.2L250.25,77.81"/>
		</g>
		<g>
			<g>
				<path class="st22" d="M341.01,112.17c0.44,0.25,0.59,0.65,0.32,0.99c-0.34,0.44-1.24,0.64-2.01,0.45
					c-0.17-0.05-0.33-0.11-0.45-0.18c-0.44-0.25-0.59-0.65-0.33-0.99c0.35-0.45,1.25-0.65,2.02-0.45
					C340.73,112.04,340.88,112.1,341.01,112.17z"/>
			</g>
			<g>
				<path class="st22" d="M335.33,105.29c0.72,0.41,0.72,1.08,0,1.5l-5.8,3.37c-0.72,0.42-1.88,0.42-2.59,0l-79.91-46.14
					c-0.72-0.42-0.73-1.09-0.01-1.5l5.8-3.37c0.72-0.42,1.88-0.42,2.6,0L335.33,105.29z M280.97,82.06c0.36,0,0.65-0.17,0.66-0.38
					l-0.01-1.06c0.62-0.07,1.21-0.25,1.67-0.52c0.62-0.36,0.96-0.84,0.96-1.36c0-0.51-0.35-0.99-0.97-1.35s-1.46-0.56-2.34-0.56
					c-0.88,0-1.72,0.2-2.34,0.56c-0.62,0.36-0.96,0.84-0.96,1.36c0,0.51,0.36,0.99,0.98,1.35c0.47,0.27,1.05,0.45,1.68,0.52
					l0.01,1.06c0,0.1,0.07,0.2,0.19,0.27C280.61,82.02,280.78,82.06,280.97,82.06 M302.59,92.05c0.4,0.23,1.03,0.22,1.41,0
					c0.39-0.22,0.39-0.59,0-0.82l-14.07-8.12c-0.39-0.22-1.03-0.22-1.41,0c-0.39,0.22-0.38,0.59,0,0.82L302.59,92.05"/>
			</g>
			<g>
				<path class="st4" d="M281.63,81.68c-0.01,0.21-0.3,0.38-0.66,0.38c-0.18,0-0.36-0.04-0.47-0.11c-0.12-0.07-0.19-0.17-0.19-0.27
					l-0.01-1.06c-0.63-0.07-1.21-0.25-1.68-0.52c-0.63-0.36-0.98-0.84-0.98-1.35c0-0.51,0.34-1,0.96-1.36
					c0.62-0.36,1.45-0.56,2.34-0.56c0.88,0,1.71,0.2,2.34,0.56s0.97,0.84,0.97,1.35c0,0.52-0.34,1-0.96,1.36
					c-0.46,0.27-1.05,0.45-1.67,0.52L281.63,81.68z M280.95,79.89c0.53,0,1.03-0.12,1.4-0.34c0.37-0.22,0.58-0.51,0.57-0.81
					c0-0.3-0.21-0.59-0.58-0.81c-0.38-0.22-0.88-0.34-1.4-0.34c-0.53,0-1.03,0.12-1.4,0.34c-0.37,0.22-0.58,0.51-0.57,0.81
					c0,0.31,0.23,0.59,0.6,0.8C279.93,79.76,280.42,79.89,280.95,79.89"/>
			</g>
			<g>
				<path class="st22" d="M282.35,77.93c0.37,0.21,0.58,0.51,0.58,0.81c0,0.31-0.2,0.6-0.57,0.81c-0.37,0.22-0.87,0.34-1.4,0.34
					c-0.53,0-1.02-0.13-1.39-0.34c-0.36-0.21-0.6-0.5-0.6-0.8c0-0.31,0.2-0.6,0.57-0.81c0.37-0.22,0.87-0.34,1.4-0.34
					C281.47,77.6,281.97,77.72,282.35,77.93z"/>
			</g>
			<g>
				<path class="st4" d="M303.99,91.24c0.4,0.23,0.39,0.59,0,0.82s-1.02,0.23-1.41,0l-14.07-8.12c-0.39-0.22-0.39-0.59,0-0.82
					c0.39-0.22,1.02-0.22,1.41,0L303.99,91.24z"/>
			</g>
			<g class="st8">
				<g>
					<polygon class="st22" points="244.66,54.95 244.57,55.53 240,55.29 240.25,57.81 239.25,57.84 238.93,54.65 					"/>
				</g>
				<g>
					<path class="st22" d="M341.86,114.6c0.08,0.17,0.14,0.27-0.07,0.31c-0.2,0.04-0.07,0.01-0.4,0.08
						c-0.34,0.08-0.2,0.04-0.41,0.09c-0.1,0.02-0.17,0.01-0.23-0.02c-0.06-0.04-0.11-0.1-0.19-0.18c-0.06-0.08-0.14-0.15-0.23-0.2
						c-0.11-0.06-0.23-0.1-0.4-0.1l-0.18-0.01c-0.31,0-0.5,0.12-0.65,0.28c-0.15,0.15-0.23,0.24-0.43,0.19
						c-0.2-0.05-0.07-0.02-0.39-0.1c-0.33-0.09-0.2-0.05-0.4-0.11c-0.04-0.01-0.07-0.02-0.09-0.03c-0.1-0.06-0.04-0.14,0.04-0.28
						c0.11-0.17,0.13-0.34-0.07-0.47l-0.13-0.08c-0.21-0.12-0.5-0.12-0.8-0.07c-0.24,0.04-0.39,0.07-0.48,0.01
						c-0.02-0.01-0.04-0.03-0.06-0.05c-0.08-0.12-0.03-0.04-0.15-0.23c-0.13-0.2-0.08-0.12-0.15-0.24
						c-0.08-0.12,0.07-0.16,0.35-0.24c0.29-0.08,0.51-0.18,0.52-0.36l0.01-0.11c0-0.1-0.07-0.19-0.19-0.26
						c-0.08-0.05-0.18-0.09-0.29-0.12c-0.13-0.04-0.23-0.08-0.29-0.11c-0.07-0.04-0.08-0.08-0.04-0.14
						c0.09-0.12,0.03-0.04,0.17-0.22c0.15-0.2,0.09-0.12,0.18-0.23c0.09-0.12,0.25-0.08,0.54-0.03c0.3,0.06,0.59,0.08,0.81-0.04
						l0.14-0.07c0.21-0.12,0.2-0.29,0.11-0.46c-0.08-0.17-0.14-0.27,0.07-0.31c0.2-0.04,0.07-0.01,0.4-0.08
						c0.34-0.08,0.2-0.04,0.41-0.09c0.1-0.02,0.17-0.01,0.23,0.02c0.06,0.04,0.11,0.1,0.19,0.18c0.06,0.08,0.14,0.15,0.23,0.2
						c0.11,0.06,0.23,0.1,0.4,0.1l0.18,0.01c0.31,0,0.51-0.13,0.65-0.28c0.15-0.15,0.23-0.24,0.43-0.19c0.2,0.05,0.07,0.02,0.39,0.1
						c0.34,0.09,0.2,0.06,0.4,0.11c0.04,0.01,0.07,0.02,0.09,0.03c0.1,0.06,0.04,0.14-0.04,0.28c-0.11,0.17-0.14,0.34,0.07,0.47
						l0.12,0.08c0.22,0.13,0.5,0.12,0.81,0.07c0.24-0.04,0.39-0.07,0.48-0.01c0.02,0.01,0.04,0.03,0.06,0.05
						c0.08,0.12,0.02,0.04,0.15,0.23c0.13,0.2,0.08,0.12,0.15,0.24c0.08,0.12-0.07,0.16-0.35,0.24c-0.29,0.08-0.51,0.18-0.52,0.36
						l-0.01,0.1c0,0.1,0.07,0.19,0.19,0.26c0.08,0.05,0.18,0.09,0.3,0.12c0.13,0.04,0.23,0.08,0.29,0.11
						c0.07,0.04,0.08,0.08,0.04,0.14c-0.09,0.12-0.03,0.04-0.17,0.22c-0.15,0.19-0.09,0.12-0.18,0.23
						c-0.09,0.12-0.25,0.08-0.54,0.03c-0.3-0.06-0.59-0.08-0.81,0.04l-0.13,0.07C341.77,114.26,341.77,114.42,341.86,114.6z
						 M339.32,113.62c0.77,0.2,1.67,0,2.01-0.45c0.26-0.35,0.12-0.74-0.32-0.99c-0.13-0.07-0.28-0.14-0.45-0.18
						c-0.77-0.2-1.67,0-2.02,0.45c-0.26,0.35-0.11,0.74,0.33,0.99C338.99,113.51,339.15,113.57,339.32,113.62"/>
				</g>
				<g>
					<path class="st22" d="M354.15,110.22c1.44,0.83,1.45,2.17,0.02,3l-16.05,9.33L225.61,57.59l16.05-9.33
						c1.43-0.83,3.75-0.83,5.19,0L354.15,110.22z M329.54,110.16l5.8-3.37c0.72-0.42,0.71-1.09,0-1.5l-79.91-46.14
						c-0.72-0.42-1.88-0.42-2.6,0l-5.8,3.37c-0.72,0.42-0.71,1.09,0.01,1.5l79.91,46.14C327.66,110.57,328.82,110.57,329.54,110.16
						 M341.86,114.6c-0.09-0.18-0.1-0.34,0.12-0.47l0.11-0.07c0.24-0.13,0.53-0.11,0.83-0.04c0.29,0.06,0.45,0.09,0.54-0.03
						c0.09-0.11,0.03-0.04,0.18-0.23c0.15-0.19,0.09-0.11,0.18-0.23c0.05-0.06,0.03-0.1-0.04-0.14c-0.06-0.04-0.16-0.07-0.29-0.11
						c-0.11-0.04-0.22-0.08-0.3-0.12c-0.12-0.07-0.19-0.15-0.19-0.26l0.01-0.1c0.01-0.18,0.23-0.29,0.52-0.37
						c0.28-0.08,0.43-0.12,0.35-0.24c-0.08-0.12-0.02-0.04-0.15-0.23c-0.13-0.2-0.08-0.12-0.15-0.24c-0.02-0.02-0.04-0.04-0.06-0.05
						c-0.09-0.05-0.25-0.03-0.48,0.01c-0.31,0.05-0.59,0.06-0.81-0.07l-0.11-0.07c-0.22-0.14-0.19-0.31-0.08-0.48
						c0.08-0.14,0.14-0.23,0.04-0.28c-0.02-0.01-0.05-0.02-0.09-0.03c-0.2-0.05-0.06-0.02-0.4-0.11c-0.32-0.08-0.18-0.05-0.39-0.1
						c-0.2-0.05-0.28,0.04-0.43,0.19c-0.15,0.16-0.34,0.28-0.65,0.28l-0.17-0.01c-0.18,0-0.31-0.04-0.41-0.1
						c-0.09-0.05-0.16-0.12-0.23-0.2c-0.07-0.08-0.12-0.15-0.19-0.18c-0.06-0.03-0.13-0.04-0.23-0.02c-0.2,0.04-0.07,0.01-0.4,0.08
						c-0.34,0.08-0.2,0.04-0.41,0.09c-0.21,0.05-0.15,0.14-0.07,0.31c0.09,0.18,0.1,0.34-0.11,0.46l-0.12,0.07
						c-0.24,0.13-0.53,0.11-0.83,0.04c-0.29-0.06-0.45-0.09-0.54,0.03c-0.09,0.11-0.04,0.04-0.18,0.23
						c-0.15,0.19-0.09,0.11-0.18,0.23c-0.05,0.06-0.03,0.1,0.04,0.14c0.06,0.04,0.16,0.07,0.29,0.11c0.11,0.03,0.21,0.07,0.29,0.12
						c0.12,0.07,0.19,0.15,0.19,0.26l-0.01,0.1c-0.01,0.18-0.23,0.29-0.52,0.37c-0.28,0.08-0.43,0.12-0.35,0.24
						c0.08,0.12,0.02,0.04,0.15,0.23c0.13,0.2,0.08,0.12,0.15,0.24c0.02,0.02,0.04,0.04,0.06,0.05c0.09,0.05,0.24,0.02,0.48-0.01
						c0.31-0.05,0.59-0.06,0.8,0.07l0.12,0.07c0.21,0.14,0.19,0.31,0.08,0.48c-0.08,0.14-0.14,0.23-0.04,0.28
						c0.02,0.01,0.05,0.02,0.09,0.03c0.2,0.06,0.07,0.02,0.4,0.1c0.33,0.08,0.19,0.05,0.4,0.1c0.2,0.05,0.28-0.04,0.43-0.19
						c0.15-0.16,0.35-0.28,0.65-0.28l0.17,0.01c0.18,0,0.31,0.04,0.41,0.1c0.09,0.05,0.16,0.12,0.23,0.2
						c0.07,0.08,0.12,0.15,0.19,0.18c0.06,0.03,0.13,0.04,0.23,0.02c0.2-0.04,0.07-0.01,0.4-0.08c0.34-0.08,0.2-0.04,0.41-0.09
						C342,114.87,341.95,114.77,341.86,114.6 M240.25,57.81L240,55.29l4.56,0.24l0.09-0.58l-5.72-0.3l0.32,3.2L240.25,57.81"/>
				</g>
			</g>
		</g>
	</g>
	<g>
		<g class="st0">
			<path d="M121.89,205.71c0.09,0.05,0.15,0.13,0.15,0.21c0,0.15-0.22,0.28-0.49,0.29h-2.1h-1h-2.1c-0.14,0-0.26-0.04-0.35-0.09
				c-0.09-0.05-0.15-0.12-0.15-0.2c0-0.16,0.22-0.29,0.5-0.29h2.09h1l2.09,0C121.67,205.63,121.8,205.66,121.89,205.71z"/>
			<path d="M119.45,207.42c-0.01,0.16-0.23,0.29-0.5,0.29c-0.14,0-0.26-0.04-0.35-0.09c-0.09-0.05-0.15-0.12-0.15-0.2l0-1.21h1
				L119.45,207.42z"/>
			<path d="M123.25,205.16c0.72,0.42,0.73,1.09,0.01,1.5l-3,1.74c-0.72,0.42-1.88,0.42-2.6,0l-3.02-1.74
				c-0.72-0.42-0.73-1.09-0.01-1.5l3-1.74c0.72-0.42,1.87-0.42,2.6,0L123.25,205.16z M119.45,207.42l-0.01-1.21h2.1
				c0.27,0,0.5-0.13,0.49-0.29c0-0.08-0.06-0.15-0.15-0.21c-0.09-0.05-0.22-0.08-0.36-0.08l-2.09,0l-0.01-1.21
				c0-0.08-0.06-0.15-0.15-0.21s-0.21-0.08-0.35-0.08c-0.27,0-0.5,0.13-0.49,0.29l0,1.21h-2.09c-0.28,0-0.5,0.13-0.5,0.29
				c0,0.08,0.06,0.15,0.15,0.2s0.21,0.09,0.35,0.09h2.1l0,1.21c0,0.08,0.06,0.15,0.15,0.2c0.09,0.05,0.22,0.09,0.35,0.09
				C119.23,207.71,119.45,207.58,119.45,207.42"/>
			<path d="M141.23,216.88c0.09,0.05,0.15,0.13,0.15,0.21c0.01,0.16-0.21,0.29-0.49,0.29l-2.09,0l-1,0l-2.09,0
				c-0.14,0-0.26-0.04-0.35-0.09c-0.09-0.05-0.15-0.12-0.15-0.2c0-0.16,0.22-0.29,0.5-0.29h2.09h1h2.09
				C141.02,216.8,141.14,216.83,141.23,216.88z"/>
			<path d="M142.6,216.34c0.72,0.41,0.73,1.09,0.01,1.5l-3,1.74c-0.72,0.42-1.88,0.41-2.6,0l-3.03-1.75
				c-0.72-0.41-0.73-1.09-0.01-1.5l3-1.74c0.72-0.42,1.88-0.41,2.6,0L142.6,216.34z M138.8,218.59l-0.01-1.21l2.09,0
				c0.28,0,0.5-0.13,0.49-0.29c0-0.08-0.06-0.15-0.15-0.21c-0.09-0.05-0.22-0.08-0.36-0.08l-2.09,0l-0.01-1.21
				c0-0.08-0.06-0.15-0.15-0.21c-0.09-0.05-0.22-0.08-0.36-0.08c-0.27,0-0.5,0.13-0.49,0.29l0,1.21l-2.09,0
				c-0.28,0-0.5,0.13-0.5,0.29c0,0.08,0.06,0.15,0.15,0.2c0.09,0.05,0.22,0.09,0.35,0.09l2.09,0l0,1.21c0,0.08,0.06,0.15,0.15,0.2
				c0.09,0.05,0.22,0.09,0.35,0.09C138.58,218.88,138.8,218.75,138.8,218.59"/>
			<path d="M138.78,215.59l0.01,1.21h-1l0-1.21c0-0.16,0.22-0.29,0.49-0.29c0.14,0,0.27,0.03,0.36,0.08
				C138.72,215.43,138.78,215.51,138.78,215.59z"/>
			<path d="M138.8,218.59c0,0.16-0.22,0.29-0.5,0.29c-0.14,0-0.26-0.04-0.35-0.09c-0.09-0.05-0.15-0.12-0.15-0.2l0-1.21l1,0
				L138.8,218.59z"/>
			<path d="M158.13,226.76l0.01,1.21l-1,0l-0.01-1.21c0.01-0.16,0.23-0.29,0.49-0.29c0.14,0,0.27,0.03,0.36,0.08
				C158.07,226.6,158.13,226.68,158.13,226.76z"/>
			<path d="M160.58,228.06c0.09,0.05,0.14,0.12,0.14,0.2c0.01,0.16-0.21,0.29-0.49,0.29l-2.09,0l-1,0l-2.09,0
				c-0.14,0-0.26-0.04-0.35-0.09c-0.09-0.05-0.15-0.12-0.15-0.2c0.01-0.16,0.23-0.29,0.5-0.29l2.09,0l1,0l2.09,0
				C160.37,227.97,160.49,228,160.58,228.06z"/>
			<path d="M161.94,227.51c0.72,0.42,0.73,1.09,0.01,1.5l-3,1.74c-0.72,0.42-1.88,0.42-2.6,0l-3.02-1.74
				c-0.72-0.42-0.73-1.09-0.01-1.5l3-1.74c0.72-0.42,1.88-0.42,2.6,0L161.94,227.51z M158.14,229.76l-0.01-1.21l2.09,0
				c0.28,0,0.5-0.13,0.49-0.29c0-0.08-0.05-0.15-0.14-0.2c-0.09-0.05-0.22-0.08-0.36-0.08l-2.09,0l-0.01-1.21
				c0-0.08-0.06-0.15-0.15-0.21c-0.09-0.05-0.22-0.08-0.36-0.08c-0.27,0-0.49,0.13-0.49,0.29l0.01,1.21l-2.09,0
				c-0.27,0-0.5,0.13-0.5,0.29c0,0.08,0.06,0.15,0.15,0.2c0.09,0.05,0.22,0.09,0.35,0.09l2.09,0l0.01,1.21
				c0,0.08,0.06,0.15,0.15,0.2s0.21,0.08,0.35,0.08C157.92,230.05,158.14,229.92,158.14,229.76"/>
			<path d="M157.81,233.43c0.2,0.11,0.2,0.3,0,0.41c-0.19,0.11-0.51,0.11-0.71,0l-9.1-5.26c-0.19-0.11-0.19-0.29,0-0.41
				c0.2-0.11,0.51-0.11,0.71,0L157.81,233.43z"/>
			<path d="M67.81,170.46l112.52,64.97l-10.45,6.08c-1.43,0.83-3.76,0.83-5.19,0L57.37,179.54c-1.44-0.83-1.44-2.18-0.02-3.01
				L67.81,170.46z M136.97,214.59l-3,1.74c-0.72,0.42-0.71,1.09,0.01,1.5l3.03,1.75c0.72,0.41,1.88,0.42,2.6,0l3-1.74
				c0.72-0.42,0.71-1.09-0.01-1.5l-3.03-1.75C138.86,214.18,137.69,214.17,136.97,214.59 M98.28,192.25l-3,1.74
				c-0.72,0.42-0.71,1.09,0,1.5l3.03,1.75c0.72,0.41,1.88,0.42,2.6,0l3-1.74c0.72-0.42,0.71-1.09-0.01-1.5l-3.03-1.75
				C100.16,191.83,99,191.83,98.28,192.25 M156.33,225.76l-3,1.74c-0.72,0.42-0.71,1.09,0.01,1.5l3.02,1.74
				c0.72,0.42,1.88,0.42,2.6,0l3-1.74c0.72-0.42,0.71-1.09-0.01-1.5l-3.02-1.74C158.2,225.35,157.04,225.35,156.33,225.76
				 M78.93,181.08l-3,1.74c-0.72,0.42-0.71,1.09,0.01,1.5l3.02,1.74c0.72,0.42,1.88,0.42,2.6,0l3-1.74c0.72-0.42,0.71-1.09-0.01-1.5
				l-3.02-1.74C80.81,180.66,79.65,180.66,78.93,181.08 M117.63,203.42l-3,1.74c-0.72,0.42-0.71,1.09,0.01,1.5l3.02,1.74
				c0.72,0.42,1.88,0.42,2.6,0l3-1.74c0.72-0.42,0.71-1.09-0.01-1.5l-3.02-1.74C119.5,203,118.35,203,117.63,203.42 M99.06,200.33
				c0.2,0.11,0.52,0.11,0.71,0c0.2-0.11,0.2-0.3,0-0.41l-9.1-5.26c-0.2-0.11-0.52-0.11-0.71,0c-0.19,0.11-0.19,0.29,0.01,0.41
				L99.06,200.33 M137.76,222.67c0.2,0.11,0.52,0.11,0.71,0c0.2-0.11,0.2-0.3,0-0.41l-9.1-5.26c-0.2-0.11-0.52-0.11-0.71,0
				c-0.19,0.11-0.19,0.29,0.01,0.41L137.76,222.67 M118.41,211.5c0.19,0.11,0.51,0.11,0.7,0c0.2-0.11,0.2-0.3,0-0.41l-9.11-5.26
				c-0.19-0.11-0.51-0.11-0.71,0c-0.19,0.11-0.19,0.29,0,0.41L118.41,211.5 M79.72,189.16c0.19,0.11,0.51,0.11,0.7,0
				c0.2-0.11,0.2-0.3,0-0.41l-9.1-5.26c-0.2-0.11-0.52-0.11-0.71,0c-0.19,0.11-0.19,0.29,0.01,0.41L79.72,189.16 M157.1,233.84
				c0.2,0.11,0.52,0.11,0.71,0c0.2-0.11,0.2-0.3,0-0.41l-9.1-5.26c-0.19-0.11-0.51-0.11-0.71,0c-0.19,0.11-0.19,0.29,0,0.41
				L157.1,233.84"/>
			<path d="M119.43,204.42l0.01,1.21h-1l0-1.21c0-0.16,0.22-0.29,0.49-0.29c0.14,0,0.26,0.03,0.35,0.08S119.43,204.33,119.43,204.42
				z"/>
			<path d="M119.12,211.09c0.19,0.11,0.19,0.29,0,0.41c-0.19,0.11-0.51,0.11-0.7,0l-9.11-5.26c-0.19-0.11-0.19-0.29,0-0.41
				c0.2-0.11,0.51-0.11,0.71,0L119.12,211.09z"/>
			<path d="M138.46,222.26c0.2,0.11,0.2,0.3,0,0.41c-0.19,0.11-0.51,0.11-0.71,0l-9.1-5.26c-0.2-0.11-0.2-0.3-0.01-0.41
				c0.2-0.11,0.51-0.11,0.71,0L138.46,222.26z"/>
			<path d="M80.76,185.08c-0.01,0.16-0.23,0.29-0.5,0.29c-0.14,0-0.26-0.04-0.35-0.09c-0.09-0.05-0.15-0.12-0.15-0.2l0-1.21h1
				L80.76,185.08z"/>
			<path d="M80.73,182.07l0.01,1.21h-1l0-1.21c0-0.16,0.22-0.29,0.49-0.29c0.14,0,0.26,0.03,0.35,0.08
				C80.68,181.92,80.73,181.99,80.73,182.07z"/>
			<path d="M80.42,188.75c0.19,0.11,0.19,0.29,0,0.41c-0.19,0.11-0.51,0.11-0.7,0l-9.1-5.26c-0.2-0.11-0.2-0.3-0.01-0.41
				c0.2-0.11,0.51-0.11,0.71,0L80.42,188.75z"/>
			<path d="M84.55,182.82c0.72,0.42,0.73,1.09,0.01,1.5l-3,1.74c-0.72,0.42-1.88,0.42-2.6,0l-3.02-1.74
				c-0.72-0.42-0.73-1.09-0.01-1.5l3-1.74c0.72-0.42,1.87-0.42,2.6,0L84.55,182.82z M80.76,185.08l-0.01-1.21l2.1,0
				c0.27,0,0.5-0.13,0.49-0.29c0-0.08-0.06-0.15-0.15-0.21c-0.09-0.05-0.22-0.08-0.36-0.08h-2.09l-0.01-1.21
				c0-0.08-0.06-0.15-0.15-0.21c-0.09-0.05-0.21-0.08-0.35-0.08c-0.27,0-0.5,0.13-0.49,0.29l0,1.21l-2.09,0
				c-0.28,0-0.5,0.13-0.5,0.29c0,0.08,0.06,0.15,0.15,0.2c0.09,0.05,0.21,0.09,0.35,0.09l2.1,0l0,1.21c0,0.08,0.06,0.15,0.15,0.2
				c0.09,0.05,0.22,0.09,0.35,0.09C80.53,185.36,80.75,185.23,80.76,185.08"/>
			<path d="M83.19,183.37c0.09,0.05,0.15,0.13,0.15,0.21c0,0.15-0.22,0.28-0.49,0.29l-2.1,0h-1l-2.1,0c-0.14,0-0.26-0.04-0.35-0.09
				c-0.09-0.05-0.15-0.12-0.15-0.2c0-0.16,0.22-0.29,0.5-0.29l2.09,0h1h2.09C82.97,183.28,83.1,183.32,83.19,183.37z"/>
			<path d="M102.54,194.54c0.09,0.05,0.15,0.12,0.15,0.21c0.01,0.16-0.21,0.29-0.49,0.29l-2.09,0l-1,0l-2.09,0
				c-0.14,0-0.26-0.04-0.35-0.09c-0.09-0.05-0.15-0.12-0.15-0.2c0-0.16,0.22-0.29,0.5-0.29l2.09,0l1,0l2.09,0
				C102.32,194.46,102.45,194.49,102.54,194.54z"/>
			<path d="M103.9,193.99c0.72,0.41,0.73,1.09,0.01,1.5l-3,1.74c-0.72,0.42-1.88,0.41-2.6,0l-3.03-1.75c-0.72-0.41-0.72-1.08,0-1.5
				l3-1.74c0.72-0.42,1.87-0.42,2.59,0L103.9,193.99z M100.1,196.25l-0.01-1.21l2.09,0c0.28,0,0.5-0.13,0.49-0.29
				c0-0.08-0.06-0.15-0.15-0.21c-0.09-0.05-0.21-0.08-0.35-0.08l-2.09,0l-0.01-1.21c0-0.08-0.06-0.15-0.15-0.21
				c-0.09-0.05-0.22-0.08-0.36-0.08c-0.27,0-0.5,0.13-0.49,0.29l0.01,1.21l-2.09,0c-0.28,0-0.5,0.13-0.5,0.29
				c0,0.08,0.06,0.15,0.15,0.2c0.09,0.05,0.22,0.09,0.35,0.09l2.09,0l0.01,1.21c0,0.08,0.06,0.15,0.15,0.2
				c0.09,0.05,0.21,0.09,0.35,0.09C99.88,196.54,100.1,196.41,100.1,196.25"/>
			<path d="M100.08,193.25l0.01,1.21l-1,0l-0.01-1.21c0-0.16,0.22-0.29,0.49-0.29c0.14,0,0.27,0.03,0.36,0.08
				C100.03,193.09,100.08,193.16,100.08,193.25z"/>
			<path d="M100.1,196.25c0,0.16-0.22,0.29-0.5,0.29c-0.14,0-0.26-0.04-0.35-0.09c-0.09-0.05-0.15-0.12-0.15-0.2l-0.01-1.21l1,0
				L100.1,196.25z"/>
			<path d="M99.77,199.92c0.2,0.11,0.2,0.3,0,0.41c-0.19,0.11-0.51,0.11-0.71,0l-9.1-5.26c-0.2-0.11-0.2-0.3-0.01-0.41
				c0.2-0.11,0.51-0.11,0.71,0L99.77,199.92z"/>
			<path d="M158.14,229.76c0,0.16-0.22,0.29-0.5,0.29c-0.13,0-0.26-0.03-0.35-0.08s-0.15-0.12-0.15-0.2l-0.01-1.21l1,0
				L158.14,229.76z"/>
		</g>
		<g>
			<g class="st8">
				<g>
					<path class="st22" d="M111.89,185.71c0.09,0.05,0.15,0.13,0.15,0.21c0,0.15-0.22,0.28-0.49,0.29h-2.1h-1h-2.1
						c-0.14,0-0.26-0.04-0.35-0.09c-0.09-0.05-0.15-0.12-0.15-0.2c0-0.16,0.22-0.29,0.5-0.29h2.09h1l2.09,0
						C111.67,185.63,111.8,185.66,111.89,185.71z"/>
				</g>
				<g>
					<path class="st22" d="M109.45,187.42c-0.01,0.16-0.23,0.29-0.5,0.29c-0.14,0-0.26-0.04-0.35-0.09
						c-0.09-0.05-0.15-0.12-0.15-0.2l0-1.21h1L109.45,187.42z"/>
				</g>
				<g>
					<path class="st23" d="M113.25,185.16c0.72,0.42,0.73,1.09,0.01,1.5l-3,1.74c-0.72,0.42-1.88,0.42-2.6,0l-3.02-1.74
						c-0.72-0.42-0.73-1.09-0.01-1.5l3-1.74c0.72-0.42,1.87-0.42,2.6,0L113.25,185.16z M109.45,187.42l-0.01-1.21h2.1
						c0.27,0,0.5-0.13,0.49-0.29c0-0.08-0.06-0.15-0.15-0.21c-0.09-0.05-0.22-0.08-0.36-0.08l-2.09,0l-0.01-1.21
						c0-0.08-0.06-0.15-0.15-0.21s-0.21-0.08-0.35-0.08c-0.27,0-0.5,0.13-0.49,0.29l0,1.21h-2.09c-0.28,0-0.5,0.13-0.5,0.29
						c0,0.08,0.06,0.15,0.15,0.2s0.21,0.09,0.35,0.09h2.1l0,1.21c0,0.08,0.06,0.15,0.15,0.2c0.09,0.05,0.22,0.09,0.35,0.09
						C109.23,187.71,109.45,187.58,109.45,187.42"/>
				</g>
				<g>
					<path class="st22" d="M131.23,196.88c0.09,0.05,0.15,0.13,0.15,0.21c0.01,0.16-0.21,0.29-0.49,0.29l-2.09,0l-1,0l-2.09,0
						c-0.14,0-0.26-0.04-0.35-0.09c-0.09-0.05-0.15-0.12-0.15-0.2c0-0.16,0.22-0.29,0.5-0.29h2.09h1h2.09
						C131.02,196.8,131.14,196.83,131.23,196.88z"/>
				</g>
				<g>
					<path class="st23" d="M132.6,196.34c0.72,0.41,0.73,1.09,0.01,1.5l-3,1.74c-0.72,0.42-1.88,0.41-2.6,0l-3.03-1.75
						c-0.72-0.41-0.73-1.09-0.01-1.5l3-1.74c0.72-0.42,1.88-0.41,2.6,0L132.6,196.34z M128.8,198.59l-0.01-1.21l2.09,0
						c0.28,0,0.5-0.13,0.49-0.29c0-0.08-0.06-0.15-0.15-0.21c-0.09-0.05-0.22-0.08-0.36-0.08l-2.09,0l-0.01-1.21
						c0-0.08-0.06-0.15-0.15-0.21c-0.09-0.05-0.22-0.08-0.36-0.08c-0.27,0-0.5,0.13-0.49,0.29l0,1.21l-2.09,0
						c-0.28,0-0.5,0.13-0.5,0.29c0,0.08,0.06,0.15,0.15,0.2c0.09,0.05,0.22,0.09,0.35,0.09l2.09,0l0,1.21c0,0.08,0.06,0.15,0.15,0.2
						c0.09,0.05,0.22,0.09,0.35,0.09C128.58,198.88,128.8,198.75,128.8,198.59"/>
				</g>
				<g>
					<path class="st22" d="M128.78,195.59l0.01,1.21h-1l0-1.21c0-0.16,0.22-0.29,0.49-0.29c0.14,0,0.27,0.03,0.36,0.08
						C128.72,195.43,128.78,195.51,128.78,195.59z"/>
				</g>
				<g>
					<path class="st22" d="M128.8,198.59c0,0.16-0.22,0.29-0.5,0.29c-0.14,0-0.26-0.04-0.35-0.09c-0.09-0.05-0.15-0.12-0.15-0.2
						l0-1.21l1,0L128.8,198.59z"/>
				</g>
				<g>
					<path class="st22" d="M148.13,206.76l0.01,1.21l-1,0l-0.01-1.21c0.01-0.16,0.23-0.29,0.49-0.29c0.14,0,0.27,0.03,0.36,0.08
						C148.07,206.6,148.13,206.68,148.13,206.76z"/>
				</g>
				<g>
					<path class="st22" d="M150.58,208.06c0.09,0.05,0.14,0.12,0.14,0.2c0.01,0.16-0.21,0.29-0.49,0.29l-2.09,0l-1,0l-2.09,0
						c-0.14,0-0.26-0.04-0.35-0.09c-0.09-0.05-0.15-0.12-0.15-0.2c0.01-0.16,0.23-0.29,0.5-0.29l2.09,0l1,0l2.09,0
						C150.37,207.97,150.49,208,150.58,208.06z"/>
				</g>
				<g>
					<path class="st23" d="M151.94,207.51c0.72,0.42,0.73,1.09,0.01,1.5l-3,1.74c-0.72,0.42-1.88,0.42-2.6,0l-3.02-1.74
						c-0.72-0.42-0.73-1.09-0.01-1.5l3-1.74c0.72-0.42,1.88-0.42,2.6,0L151.94,207.51z M148.14,209.76l-0.01-1.21l2.09,0
						c0.28,0,0.5-0.13,0.49-0.29c0-0.08-0.05-0.15-0.14-0.2c-0.09-0.05-0.22-0.08-0.36-0.08l-2.09,0l-0.01-1.21
						c0-0.08-0.06-0.15-0.15-0.21c-0.09-0.05-0.22-0.08-0.36-0.08c-0.27,0-0.49,0.13-0.49,0.29l0.01,1.21l-2.09,0
						c-0.27,0-0.5,0.13-0.5,0.29c0,0.08,0.06,0.15,0.15,0.2c0.09,0.05,0.22,0.09,0.35,0.09l2.09,0l0.01,1.21
						c0,0.08,0.06,0.15,0.15,0.2s0.21,0.08,0.35,0.08C147.92,210.05,148.14,209.92,148.14,209.76"/>
				</g>
				<g>
					<path class="st22" d="M147.81,213.43c0.2,0.11,0.2,0.3,0,0.41c-0.19,0.11-0.51,0.11-0.71,0l-9.1-5.26
						c-0.19-0.11-0.19-0.29,0-0.41c0.2-0.11,0.51-0.11,0.71,0L147.81,213.43z"/>
				</g>
				<g>
					<path class="st22" d="M57.81,150.46l112.52,64.97l-10.45,6.08c-1.43,0.83-3.76,0.83-5.19,0L47.37,159.54
						c-1.44-0.83-1.44-2.18-0.02-3.01L57.81,150.46z M126.97,194.59l-3,1.74c-0.72,0.42-0.71,1.09,0.01,1.5l3.03,1.75
						c0.72,0.41,1.88,0.42,2.6,0l3-1.74c0.72-0.42,0.71-1.09-0.01-1.5l-3.03-1.75C128.86,194.18,127.69,194.17,126.97,194.59
						 M88.28,172.25l-3,1.74c-0.72,0.42-0.71,1.09,0,1.5l3.03,1.75c0.72,0.41,1.88,0.42,2.6,0l3-1.74c0.72-0.42,0.71-1.09-0.01-1.5
						l-3.03-1.75C90.16,171.83,89,171.83,88.28,172.25 M146.33,205.76l-3,1.74c-0.72,0.42-0.71,1.09,0.01,1.5l3.02,1.74
						c0.72,0.42,1.88,0.42,2.6,0l3-1.74c0.72-0.42,0.71-1.09-0.01-1.5l-3.02-1.74C148.2,205.35,147.04,205.35,146.33,205.76
						 M68.93,161.08l-3,1.74c-0.72,0.42-0.71,1.09,0.01,1.5l3.02,1.74c0.72,0.42,1.88,0.42,2.6,0l3-1.74
						c0.72-0.42,0.71-1.09-0.01-1.5l-3.02-1.74C70.81,160.66,69.65,160.66,68.93,161.08 M107.63,183.42l-3,1.74
						c-0.72,0.42-0.71,1.09,0.01,1.5l3.02,1.74c0.72,0.42,1.88,0.42,2.6,0l3-1.74c0.72-0.42,0.71-1.09-0.01-1.5l-3.02-1.74
						C109.5,183,108.35,183,107.63,183.42 M89.06,180.33c0.2,0.11,0.52,0.11,0.71,0c0.2-0.11,0.2-0.3,0-0.41l-9.1-5.26
						c-0.2-0.11-0.52-0.11-0.71,0c-0.19,0.11-0.19,0.29,0.01,0.41L89.06,180.33 M127.76,202.67c0.2,0.11,0.52,0.11,0.71,0
						c0.2-0.11,0.2-0.3,0-0.41l-9.1-5.26c-0.2-0.11-0.52-0.11-0.71,0c-0.19,0.11-0.19,0.29,0.01,0.41L127.76,202.67 M108.41,191.5
						c0.19,0.11,0.51,0.11,0.7,0c0.2-0.11,0.2-0.3,0-0.41l-9.11-5.26c-0.19-0.11-0.51-0.11-0.71,0c-0.19,0.11-0.19,0.29,0,0.41
						L108.41,191.5 M69.72,169.16c0.19,0.11,0.51,0.11,0.7,0c0.2-0.11,0.2-0.3,0-0.41l-9.1-5.26c-0.2-0.11-0.52-0.11-0.71,0
						c-0.19,0.11-0.19,0.29,0.01,0.41L69.72,169.16 M147.1,213.84c0.2,0.11,0.52,0.11,0.71,0c0.2-0.11,0.2-0.3,0-0.41l-9.1-5.26
						c-0.19-0.11-0.51-0.11-0.71,0c-0.19,0.11-0.19,0.29,0,0.41L147.1,213.84"/>
				</g>
				<g>
					<path class="st22" d="M109.43,184.42l0.01,1.21h-1l0-1.21c0-0.16,0.22-0.29,0.49-0.29c0.14,0,0.26,0.03,0.35,0.08
						S109.43,184.33,109.43,184.42z"/>
				</g>
				<g>
					<path class="st22" d="M109.12,191.09c0.19,0.11,0.19,0.29,0,0.41c-0.19,0.11-0.51,0.11-0.7,0l-9.11-5.26
						c-0.19-0.11-0.19-0.29,0-0.41c0.2-0.11,0.51-0.11,0.71,0L109.12,191.09z"/>
				</g>
				<g>
					<path class="st22" d="M128.46,202.26c0.2,0.11,0.2,0.3,0,0.41c-0.19,0.11-0.51,0.11-0.71,0l-9.1-5.26
						c-0.2-0.11-0.2-0.3-0.01-0.41c0.2-0.11,0.51-0.11,0.71,0L128.46,202.26z"/>
				</g>
			</g>
			<g>
				<path class="st22" d="M70.76,165.08c-0.01,0.16-0.23,0.29-0.5,0.29c-0.14,0-0.26-0.04-0.35-0.09c-0.09-0.05-0.15-0.12-0.15-0.2
					l0-1.21h1L70.76,165.08z"/>
			</g>
			<g>
				<path class="st22" d="M70.73,162.07l0.01,1.21h-1l0-1.21c0-0.16,0.22-0.29,0.49-0.29c0.14,0,0.26,0.03,0.35,0.08
					C70.68,161.92,70.73,161.99,70.73,162.07z"/>
			</g>
			<g>
				<path class="st22" d="M70.42,168.75c0.19,0.11,0.19,0.29,0,0.41c-0.19,0.11-0.51,0.11-0.7,0l-9.1-5.26
					c-0.2-0.11-0.2-0.3-0.01-0.41c0.2-0.11,0.51-0.11,0.71,0L70.42,168.75z"/>
			</g>
			<g>
				<path class="st23" d="M74.55,162.82c0.72,0.42,0.73,1.09,0.01,1.5l-3,1.74c-0.72,0.42-1.88,0.42-2.6,0l-3.02-1.74
					c-0.72-0.42-0.73-1.09-0.01-1.5l3-1.74c0.72-0.42,1.87-0.42,2.6,0L74.55,162.82z M70.76,165.08l-0.01-1.21l2.1,0
					c0.27,0,0.5-0.13,0.49-0.29c0-0.08-0.06-0.15-0.15-0.21c-0.09-0.05-0.22-0.08-0.36-0.08h-2.09l-0.01-1.21
					c0-0.08-0.06-0.15-0.15-0.21c-0.09-0.05-0.21-0.08-0.35-0.08c-0.27,0-0.5,0.13-0.49,0.29l0,1.21l-2.09,0
					c-0.28,0-0.5,0.13-0.5,0.29c0,0.08,0.06,0.15,0.15,0.2c0.09,0.05,0.21,0.09,0.35,0.09l2.1,0l0,1.21c0,0.08,0.06,0.15,0.15,0.2
					c0.09,0.05,0.22,0.09,0.35,0.09C70.53,165.36,70.75,165.23,70.76,165.08"/>
			</g>
			<g>
				<path class="st22" d="M73.19,163.37c0.09,0.05,0.15,0.13,0.15,0.21c0,0.15-0.22,0.28-0.49,0.29l-2.1,0h-1l-2.1,0
					c-0.14,0-0.26-0.04-0.35-0.09c-0.09-0.05-0.15-0.12-0.15-0.2c0-0.16,0.22-0.29,0.5-0.29l2.09,0h1h2.09
					C72.97,163.28,73.1,163.32,73.19,163.37z"/>
			</g>
			<g>
				<path class="st22" d="M92.54,174.54c0.09,0.05,0.15,0.12,0.15,0.21c0.01,0.16-0.21,0.29-0.49,0.29l-2.09,0l-1,0l-2.09,0
					c-0.14,0-0.26-0.04-0.35-0.09c-0.09-0.05-0.15-0.12-0.15-0.2c0-0.16,0.22-0.29,0.5-0.29l2.09,0l1,0l2.09,0
					C92.32,174.46,92.45,174.49,92.54,174.54z"/>
			</g>
			<g class="st8">
				<g>
					<path class="st23" d="M93.9,173.99c0.72,0.41,0.73,1.09,0.01,1.5l-3,1.74c-0.72,0.42-1.88,0.41-2.6,0l-3.03-1.75
						c-0.72-0.41-0.72-1.08,0-1.5l3-1.74c0.72-0.42,1.87-0.42,2.59,0L93.9,173.99z M90.1,176.25l-0.01-1.21l2.09,0
						c0.28,0,0.5-0.13,0.49-0.29c0-0.08-0.06-0.15-0.15-0.21c-0.09-0.05-0.21-0.08-0.35-0.08l-2.09,0l-0.01-1.21
						c0-0.08-0.06-0.15-0.15-0.21c-0.09-0.05-0.22-0.08-0.36-0.08c-0.27,0-0.5,0.13-0.49,0.29l0.01,1.21l-2.09,0
						c-0.28,0-0.5,0.13-0.5,0.29c0,0.08,0.06,0.15,0.15,0.2c0.09,0.05,0.22,0.09,0.35,0.09l2.09,0l0.01,1.21
						c0,0.08,0.06,0.15,0.15,0.2c0.09,0.05,0.21,0.09,0.35,0.09C89.88,176.54,90.1,176.41,90.1,176.25"/>
				</g>
				<g>
					<path class="st22" d="M90.08,173.25l0.01,1.21l-1,0l-0.01-1.21c0-0.16,0.22-0.29,0.49-0.29c0.14,0,0.27,0.03,0.36,0.08
						C90.03,173.09,90.08,173.16,90.08,173.25z"/>
				</g>
				<g>
					<path class="st22" d="M90.1,176.25c0,0.16-0.22,0.29-0.5,0.29c-0.14,0-0.26-0.04-0.35-0.09c-0.09-0.05-0.15-0.12-0.15-0.2
						l-0.01-1.21l1,0L90.1,176.25z"/>
				</g>
				<g>
					<path class="st22" d="M89.77,179.92c0.2,0.11,0.2,0.3,0,0.41c-0.19,0.11-0.51,0.11-0.71,0l-9.1-5.26
						c-0.2-0.11-0.2-0.3-0.01-0.41c0.2-0.11,0.51-0.11,0.71,0L89.77,179.92z"/>
				</g>
			</g>
			<g>
				<path class="st22" d="M148.14,209.76c0,0.16-0.22,0.29-0.5,0.29c-0.13,0-0.26-0.03-0.35-0.08s-0.15-0.12-0.15-0.2l-0.01-1.21
					l1,0L148.14,209.76z"/>
			</g>
		</g>
	</g>
	<g>
		<g class="st0">
			<path d="M235.28,198.64c0.39,0.22,0.39,0.59,0,0.82c-0.39,0.22-1.02,0.22-1.41,0l-78.04-45.06c-0.4-0.23-0.39-0.59,0-0.82
				c0.39-0.23,1.02-0.23,1.42,0L235.28,198.64z"/>
			<path d="M167.09,127.88l112.52,64.97l-63.83,37.1l-112.52-64.97L167.09,127.88z M173.03,144.41c-0.79-0.45-2.05-0.45-2.83,0
				s-0.78,1.18,0.01,1.64l65.03,37.55c0.78,0.45,2.05,0.45,2.83,0s0.77-1.19-0.01-1.64L173.03,144.41 M165.03,147.41
				c-0.78,0.45-0.78,1.18,0.01,1.64l48.77,28.16c0.79,0.45,2.05,0.45,2.83,0c0.78-0.45,0.78-1.18-0.01-1.64l-48.77-28.16
				C167.07,146.96,165.81,146.96,165.03,147.41 M233.87,199.46c0.39,0.22,1.03,0.22,1.41,0c0.39-0.23,0.39-0.6,0-0.82l-78.04-45.06
				c-0.4-0.23-1.03-0.22-1.42,0c-0.39,0.22-0.39,0.59,0,0.82L233.87,199.46 M210.91,190.2c0.39,0.22,1.03,0.22,1.41,0
				c0.39-0.23,0.39-0.6,0-0.82l-58.53-33.79c-0.4-0.23-1.03-0.22-1.42,0c-0.39,0.22-0.39,0.59,0,0.82L210.91,190.2 M219.22,186.19
				c0.39-0.23,0.38-0.59,0-0.82l-58.53-33.79c-0.4-0.23-1.02-0.23-1.41,0c-0.39,0.22-0.39,0.59,0,0.82l58.53,33.79
				C218.2,186.41,218.83,186.41,219.22,186.19"/>
			<path d="M216.63,175.57c0.79,0.45,0.79,1.18,0.01,1.64c-0.78,0.45-2.04,0.45-2.83,0l-48.77-28.16c-0.79-0.45-0.79-1.18-0.01-1.64
				c0.78-0.45,2.04-0.45,2.83,0L216.63,175.57z"/>
			<path d="M238.06,181.96c0.78,0.45,0.79,1.18,0.01,1.64c-0.78,0.45-2.05,0.45-2.83,0l-65.03-37.55c-0.79-0.45-0.79-1.18-0.01-1.64
				c0.78-0.45,2.04-0.45,2.83,0L238.06,181.96z"/>
			<path d="M219.22,185.37c0.39,0.22,0.4,0.59,0,0.82c-0.39,0.22-1.02,0.22-1.41,0l-58.53-33.79c-0.4-0.23-0.39-0.59,0-0.82
				c0.39-0.23,1.02-0.23,1.41,0L219.22,185.37z"/>
			<path d="M212.32,189.38c0.39,0.22,0.39,0.59,0,0.82c-0.39,0.22-1.02,0.22-1.41,0l-58.53-33.79c-0.4-0.23-0.39-0.59,0-0.82
				c0.39-0.23,1.02-0.23,1.42,0L212.32,189.38z"/>
		</g>
		<g>
			<g class="st8">
				<g>
					<path class="st4" d="M225.28,178.64c0.39,0.22,0.39,0.59,0,0.82c-0.39,0.22-1.02,0.22-1.41,0l-78.04-45.06
						c-0.4-0.23-0.39-0.59,0-0.82c0.39-0.23,1.02-0.23,1.42,0L225.28,178.64z"/>
				</g>
				<g>
					<path class="st24" d="M157.09,107.88l112.52,64.97l-63.83,37.1L93.26,144.98L157.09,107.88z M163.03,124.41
						c-0.79-0.45-2.05-0.45-2.83,0s-0.78,1.18,0.01,1.64l65.03,37.55c0.78,0.45,2.05,0.45,2.83,0s0.77-1.19-0.01-1.64L163.03,124.41
						 M155.03,127.41c-0.78,0.45-0.78,1.18,0.01,1.64l48.77,28.16c0.79,0.45,2.05,0.45,2.83,0c0.78-0.45,0.78-1.18-0.01-1.64
						l-48.77-28.16C157.07,126.96,155.81,126.96,155.03,127.41 M223.87,179.46c0.39,0.22,1.03,0.22,1.41,0
						c0.39-0.23,0.39-0.6,0-0.82l-78.04-45.06c-0.4-0.23-1.03-0.22-1.42,0c-0.39,0.22-0.39,0.59,0,0.82L223.87,179.46 M200.91,170.2
						c0.39,0.22,1.03,0.22,1.41,0c0.39-0.23,0.39-0.6,0-0.82l-58.53-33.79c-0.4-0.23-1.03-0.22-1.42,0c-0.39,0.22-0.39,0.59,0,0.82
						L200.91,170.2 M209.22,166.19c0.39-0.23,0.38-0.59,0-0.82l-58.53-33.79c-0.4-0.23-1.02-0.23-1.41,0
						c-0.39,0.22-0.39,0.59,0,0.82l58.53,33.79C208.2,166.41,208.83,166.41,209.22,166.19"/>
				</g>
				<g>
					<path class="st25" d="M206.63,155.57c0.79,0.45,0.79,1.18,0.01,1.64c-0.78,0.45-2.04,0.45-2.83,0l-48.77-28.16
						c-0.79-0.45-0.79-1.18-0.01-1.64c0.78-0.45,2.04-0.45,2.83,0L206.63,155.57z"/>
				</g>
				<g>
					<path class="st25" d="M228.06,161.96c0.78,0.45,0.79,1.18,0.01,1.64c-0.78,0.45-2.05,0.45-2.83,0l-65.03-37.55
						c-0.79-0.45-0.79-1.18-0.01-1.64c0.78-0.45,2.04-0.45,2.83,0L228.06,161.96z"/>
				</g>
				<g>
					<path class="st4" d="M209.22,165.37c0.39,0.22,0.4,0.59,0,0.82c-0.39,0.22-1.02,0.22-1.41,0l-58.53-33.79
						c-0.4-0.23-0.39-0.59,0-0.82c0.39-0.23,1.02-0.23,1.41,0L209.22,165.37z"/>
				</g>
				<g>
					<path class="st4" d="M202.32,169.38c0.39,0.22,0.39,0.59,0,0.82c-0.39,0.22-1.02,0.22-1.41,0l-58.53-33.79
						c-0.4-0.23-0.39-0.59,0-0.82c0.39-0.23,1.02-0.23,1.42,0L202.32,169.38z"/>
				</g>
			</g>
		</g>
	</g>
	<g>
		<g class="st0">
			<path d="M158.25,173.63c1.58,0.91,1.58,2.38,0.02,3.29l-7.26,4.22c-1.56,0.91-4.1,0.91-5.68,0l-72.34-41.77
				c-1.58-0.91-1.59-2.39-0.02-3.29l7.26-4.22c1.56-0.91,4.11-0.91,5.68,0L158.25,173.63z M113.69,159.46l0.8,0.46l3.81-4.52
				l-0.91-0.53l-7.79,2.23l0.79,0.45l2.43-0.71l2.07,1.19L113.69,159.46 M123.54,162.29l5.3-0.81l-0.86-0.5l-2.44,0.45
				c-0.67,0.12-1.25,0.23-1.79,0.35c0.2-0.35,0.38-0.65,0.6-1.04l0.78-1.41l-0.86-0.5l-1.5,3.01l-2.46,1.43l0.77,0.44L123.54,162.29
				 M107.89,152.74c0.59,0,1.16-0.15,1.69-0.46c0.52-0.3,0.75-0.66,0.71-1c-0.04-0.38-0.41-0.8-1.16-1.23
				c-0.61-0.35-1.14-0.6-1.56-0.77l-5.73,3.33l0.75,0.44l2.32-1.35c0.14,0.13,0.33,0.25,0.56,0.38
				C106.2,152.5,107.07,152.75,107.89,152.74"/>
			<path d="M108.55,150.41c0.83,0.48,1.01,1.01,0.24,1.46c-0.8,0.46-1.8,0.4-2.71-0.13c-0.25-0.14-0.44-0.28-0.56-0.4l2.26-1.31
				C107.94,150.09,108.22,150.21,108.55,150.41z"/>
			<path d="M110.29,151.28c0.04,0.35-0.19,0.7-0.71,1c-0.53,0.31-1.1,0.45-1.69,0.46c-0.82,0.02-1.69-0.23-2.43-0.66
				c-0.22-0.13-0.42-0.25-0.56-0.38l-2.32,1.35l-0.75-0.44l5.73-3.33c0.43,0.17,0.96,0.42,1.56,0.77
				C109.87,150.48,110.25,150.89,110.29,151.28z M106.08,151.74c0.91,0.53,1.91,0.59,2.71,0.13c0.77-0.45,0.59-0.98-0.24-1.46
				c-0.33-0.19-0.61-0.32-0.77-0.38l-2.26,1.31C105.64,151.46,105.83,151.59,106.08,151.74"/>
			<path d="M128.84,161.48l-5.3,0.81l-2.47,1.43l-0.77-0.44l2.46-1.43l1.5-3.01l0.86,0.5l-0.78,1.41c-0.21,0.38-0.4,0.69-0.61,1.03
				c0.55-0.11,1.13-0.22,1.8-0.34l2.44-0.45L128.84,161.48z"/>
			<path d="M118.31,155.4l-3.81,4.52l-0.8-0.46l1.2-1.42l-2.07-1.19l-2.43,0.71l-0.79-0.45l7.79-2.23L118.31,155.4z M113.56,156.59
				l1.76,1.02l1.09-1.3c0.25-0.29,0.51-0.55,0.76-0.79l-0.02-0.01c-0.43,0.15-0.88,0.3-1.34,0.44L113.56,156.59"/>
			<path d="M117.18,155.52c-0.25,0.24-0.51,0.49-0.76,0.79l-1.09,1.3l-1.76-1.02l2.26-0.65c0.46-0.14,0.91-0.29,1.34-0.44
				L117.18,155.52z"/>
		</g>
		<g>
			<g>
				<path class="st23" d="M148.25,153.63c1.58,0.91,1.58,2.38,0.02,3.29l-7.26,4.22c-1.56,0.91-4.1,0.91-5.68,0l-72.34-41.77
					c-1.58-0.91-1.59-2.39-0.02-3.29l7.26-4.22c1.56-0.91,4.11-0.91,5.68,0L148.25,153.63z M103.69,139.46l0.8,0.46l3.81-4.52
					l-0.91-0.53l-7.79,2.23l0.79,0.45l2.43-0.71l2.07,1.19L103.69,139.46 M113.54,142.29l5.3-0.81l-0.86-0.5l-2.44,0.45
					c-0.67,0.12-1.25,0.23-1.79,0.35c0.2-0.35,0.38-0.65,0.6-1.04l0.78-1.41l-0.86-0.5l-1.5,3.01l-2.46,1.43l0.77,0.44
					L113.54,142.29 M97.89,132.74c0.59,0,1.16-0.15,1.69-0.46c0.52-0.3,0.75-0.66,0.71-1c-0.04-0.38-0.41-0.8-1.16-1.23
					c-0.61-0.35-1.14-0.6-1.56-0.77l-5.73,3.33l0.75,0.44l2.32-1.35c0.14,0.13,0.33,0.25,0.56,0.38
					C96.2,132.5,97.07,132.75,97.89,132.74"/>
			</g>
			<g>
				<path class="st23" d="M98.55,130.41c0.83,0.48,1.01,1.01,0.24,1.46c-0.8,0.46-1.8,0.4-2.71-0.13c-0.25-0.14-0.44-0.28-0.56-0.4
					l2.26-1.31C97.94,130.09,98.22,130.21,98.55,130.41z"/>
			</g>
			<g>
				<path class="st22" d="M100.29,131.28c0.04,0.35-0.19,0.7-0.71,1c-0.53,0.31-1.1,0.45-1.69,0.46c-0.82,0.02-1.69-0.23-2.43-0.66
					c-0.22-0.13-0.42-0.25-0.56-0.38l-2.32,1.35l-0.75-0.44l5.73-3.33c0.43,0.17,0.96,0.42,1.56,0.77
					C99.87,130.48,100.25,130.89,100.29,131.28z M96.08,131.74c0.91,0.53,1.91,0.59,2.71,0.13c0.77-0.45,0.59-0.98-0.24-1.46
					c-0.33-0.19-0.61-0.32-0.77-0.38l-2.26,1.31C95.64,131.46,95.83,131.59,96.08,131.74"/>
			</g>
			<g>
				<path class="st22" d="M118.84,141.48l-5.3,0.81l-2.47,1.43l-0.77-0.44l2.46-1.43l1.5-3.01l0.86,0.5l-0.78,1.41
					c-0.21,0.38-0.4,0.69-0.61,1.03c0.55-0.11,1.13-0.22,1.8-0.34l2.44-0.45L118.84,141.48z"/>
			</g>
			<g>
				<path class="st22" d="M108.31,135.4l-3.81,4.52l-0.8-0.46l1.2-1.42l-2.07-1.19l-2.43,0.71l-0.79-0.45l7.79-2.23L108.31,135.4z
					 M103.56,136.59l1.76,1.02l1.09-1.3c0.25-0.29,0.51-0.55,0.76-0.79l-0.02-0.01c-0.43,0.15-0.88,0.3-1.34,0.44L103.56,136.59"/>
			</g>
			<g>
				<path class="st23" d="M107.18,135.52c-0.25,0.24-0.51,0.49-0.76,0.79l-1.09,1.3l-1.76-1.02l2.26-0.65
					c0.46-0.14,0.91-0.29,1.34-0.44L107.18,135.52z"/>
			</g>
		</g>
	</g>
	<g>
		<g class="st0">
			<path d="M247.43,83.14c1.44,0.83,1.44,2.17,0.01,3l-0.64,0.37l-58.15,33.8l-0.65,0.38c-1.43,0.83-3.74,0.83-5.18,0l-46.82-27.04
				c-1.44-0.83-1.45-2.17-0.02-3l0.65-0.38l58.15-33.8l0.64-0.37c1.43-0.83,3.76-0.83,5.19,0L247.43,83.14z M201.01,105.78
				c0.47,0.17,1.08,0.09,1.37-0.18l19.75-18.47c1.14-1.07,0.86-2.45-0.69-3.34l-4.44-2.56c-0.39-0.22-1.03-0.22-1.41,0
				c-0.39,0.22-0.38,0.59,0,0.82l4.44,2.56c0.88,0.51,1.04,1.3,0.39,1.91l-15.47,14.47c0.27-1.95-0.89-3.96-3.48-5.46
				c-4.43-2.56-11.45-2.69-16.12-0.39l-5.23-3.02c3.92-2.73,3.68-6.79-0.76-9.35c-2.59-1.49-6.06-2.16-9.44-2l24.94-9.01
				c1.05-0.38,2.41-0.29,3.29,0.22l4.44,2.56c0.4,0.23,1.03,0.22,1.41,0c0.39-0.22,0.39-0.59,0-0.82l-4.44-2.56
				c-1.54-0.89-3.93-1.05-5.77-0.38l-31.82,11.5c-0.47,0.17-0.61,0.52-0.31,0.8c0.04,0.04,0.09,0.07,0.14,0.1
				c-3.92,2.73-3.67,6.79,0.76,9.35c4.43,2.56,11.45,2.69,16.12,0.39l5.23,3.02c-3.92,2.73-3.67,6.8,0.76,9.35
				c4.44,2.56,11.46,2.69,16.13,0.39C200.88,105.73,200.94,105.76,201.01,105.78"/>
			<path d="M179.18,51.22L127.5,81.26l-5.08-2.93c-1.15-0.66-1.16-1.74-0.01-2.4l47.55-27.63c1.14-0.66,3-0.66,4.15,0L179.18,51.22z
				"/>
			<path d="M204,73.72c0.4,0.23,0.39,0.59,0,0.82c-0.39,0.22-1.02,0.23-1.41,0l-4.44-2.56c-0.88-0.51-2.24-0.6-3.29-0.22
				l-24.94,9.01c-2.71,0.13-5.35,0.8-7.41,2c-0.24,0.14-0.46,0.28-0.67,0.43c-0.08-0.05-0.13-0.08-0.17-0.12
				c-0.29-0.27-0.16-0.63,0.31-0.8l31.82-11.5c1.84-0.66,4.23-0.51,5.77,0.38L204,73.72z"/>
			<path d="M194.77,56.48l-58.15,33.8l-10.01-5.78c-1.3-0.75-1.3-1.96-0.02-2.71l0.91-0.53l51.68-30.04l0.91-0.53
				c1.28-0.74,3.38-0.75,4.67,0L194.77,56.48z"/>
			<path d="M178.13,83.48c3.98,2.3,4,6.03,0.05,8.33c-0.39,0.22-1.02,0.22-1.41,0c-0.4-0.23-0.39-0.59,0-0.82
				c1.59-0.93,2.37-2.13,2.37-3.35c-0.01-1.21-0.82-2.42-2.41-3.35c-0.39-0.22-0.4-0.59,0-0.82
				C177.1,83.25,177.74,83.25,178.13,83.48z"/>
			<path d="M178.71,92.12c-0.38,0.22-0.38,0.57-0.02,0.8c-4.67,2.3-11.68,2.17-16.12-0.39c-4.43-2.56-4.68-6.62-0.73-9.34
				c0.21-0.15,0.44-0.29,0.67-0.43c2.06-1.2,4.71-1.87,7.41-2c3.37-0.16,6.85,0.5,9.44,2c4.43,2.56,4.68,6.62,0.73,9.34
				C179.7,91.89,179.08,91.9,178.71,92.12z M176.76,91.81c0.39,0.22,1.03,0.22,1.41,0c3.96-2.3,3.94-6.03-0.05-8.33
				c-0.39-0.22-1.03-0.22-1.41,0c-0.39,0.23-0.38,0.59,0,0.82c1.6,0.93,2.4,2.13,2.41,3.35c0,1.21-0.78,2.42-2.37,3.35
				C176.37,91.22,176.37,91.58,176.76,91.81"/>
			<path d="M221.44,83.79c1.55,0.89,1.83,2.27,0.69,3.34l-19.75,18.47c-0.29,0.27-0.9,0.35-1.37,0.18
				c-0.07-0.02-0.13-0.05-0.18-0.08c0.23-0.14,0.47-0.27,0.71-0.41c2.07-1.2,3.21-2.74,3.42-4.31l15.47-14.47
				c0.65-0.61,0.49-1.4-0.39-1.91l-4.44-2.56c-0.39-0.22-0.39-0.59,0-0.82c0.39-0.22,1.02-0.22,1.41,0L221.44,83.79z"/>
			<path d="M204.95,100.99c-0.21,1.57-1.35,3.11-3.42,4.31c-0.24,0.14-0.48,0.27-0.73,0.39c-4.67,2.3-11.69,2.17-16.13-0.39
				c-4.43-2.56-4.68-6.62-0.73-9.34c0.4,0.21,1.01,0.2,1.38-0.02c0.38-0.22,0.39-0.57,0.02-0.8c4.67-2.3,11.69-2.17,16.12,0.39
				C204.06,97.02,205.22,99.03,204.95,100.99z M198.87,104.58c0.39,0.22,1.03,0.22,1.41,0c3.96-2.3,3.94-6.03-0.05-8.33
				c-0.39-0.22-1.03-0.22-1.41,0c-0.39,0.23-0.38,0.59,0,0.82c1.6,0.93,2.4,2.14,2.41,3.35c0.01,1.22-0.78,2.42-2.37,3.35
				C198.48,103.98,198.48,104.35,198.87,104.58"/>
			<path d="M145.11,106.4c0.72,0.42,0.73,1.09,0.01,1.5c-0.72,0.42-1.88,0.42-2.6,0c-0.72-0.41-0.72-1.08,0-1.5
				C143.24,105.99,144.39,105.99,145.11,106.4z"/>
			<path d="M149.01,108.66c0.72,0.42,0.73,1.09,0.01,1.5c-0.72,0.42-1.88,0.42-2.6,0c-0.72-0.41-0.72-1.08,0-1.5
				C147.14,108.24,148.29,108.24,149.01,108.66z"/>
			<path d="M152.97,110.94c0.72,0.42,0.73,1.09,0.01,1.5c-0.72,0.42-1.88,0.42-2.6,0c-0.72-0.41-0.73-1.09-0.01-1.5
				C151.09,110.53,152.25,110.53,152.97,110.94z"/>
			<path d="M156.87,113.19c0.72,0.42,0.73,1.09,0.01,1.5c-0.72,0.42-1.88,0.42-2.6,0c-0.72-0.41-0.72-1.08,0-1.5
				C155,112.78,156.15,112.78,156.87,113.19z"/>
			<path d="M160.77,115.45c0.72,0.42,0.73,1.09,0.01,1.5c-0.72,0.42-1.88,0.42-2.6,0c-0.72-0.41-0.72-1.08,0-1.5
				C158.9,115.03,160.05,115.03,160.77,115.45z"/>
			<path d="M257.79,92.86c1.29,0.74,1.29,1.96,0.01,2.7l-0.91,0.53l-51.68,30.04l-0.91,0.53c-1.28,0.74-3.38,0.75-4.66,0
				l-10.99-6.35l58.15-33.8L257.79,92.86z"/>
			<path d="M261.97,99.02c1.15,0.66,1.16,1.74,0.01,2.4l-47.55,27.63c-1.15,0.67-3,0.66-4.15,0l-5.08-2.93l51.68-30.04L261.97,99.02
				z"/>
			<path d="M181,29.45L293.5,94.41L193.38,152.6L80.87,87.64L181,29.45z M214.44,129.06l47.55-27.63c1.14-0.66,1.14-1.74-0.01-2.4
				l-5.08-2.93l0.91-0.53c1.28-0.74,1.28-1.96-0.01-2.7l-10.99-6.35l0.64-0.37c1.43-0.83,1.43-2.17-0.01-3L200.61,56.1
				c-1.44-0.83-3.76-0.83-5.19,0l-0.64,0.37l-10.01-5.78c-1.3-0.75-3.39-0.74-4.67,0l-0.91,0.53l-5.08-2.93
				c-1.15-0.66-3.01-0.66-4.15,0l-47.55,27.63c-1.15,0.67-1.14,1.74,0.01,2.4l5.08,2.93l-0.91,0.53c-1.28,0.74-1.28,1.96,0.02,2.71
				l10.01,5.78l-0.65,0.38c-1.43,0.83-1.41,2.17,0.02,3l46.82,27.04c1.44,0.83,3.75,0.83,5.18,0l0.65-0.38l10.99,6.35
				c1.29,0.74,3.38,0.74,4.66,0l0.91-0.53l5.08,2.93C211.44,129.72,213.29,129.73,214.44,129.06 M150.39,112.44
				c0.72,0.42,1.88,0.42,2.6,0c0.71-0.41,0.71-1.08-0.01-1.5c-0.72-0.41-1.88-0.42-2.59,0
				C149.66,111.35,149.67,112.03,150.39,112.44 M154.29,114.69c0.72,0.42,1.88,0.42,2.6,0c0.71-0.41,0.71-1.08-0.01-1.5
				c-0.72-0.41-1.87-0.41-2.58,0C153.57,113.61,153.57,114.28,154.29,114.69 M158.19,116.95c0.72,0.42,1.88,0.42,2.6,0
				c0.71-0.41,0.71-1.08-0.01-1.5c-0.72-0.41-1.87-0.41-2.58,0C157.47,115.86,157.47,116.53,158.19,116.95 M142.53,107.9
				c0.72,0.42,1.88,0.42,2.6,0c0.71-0.41,0.71-1.08-0.01-1.5c-0.72-0.41-1.87-0.41-2.58,0C141.81,106.82,141.81,107.49,142.53,107.9
				 M146.43,110.16c0.72,0.42,1.88,0.42,2.6,0c0.71-0.41,0.71-1.08-0.01-1.5c-0.72-0.41-1.87-0.41-2.58,0
				C145.71,109.07,145.71,109.74,146.43,110.16"/>
			<path d="M183.94,95.96c0.05,0.03,0.1,0.05,0.16,0.07c0.06,0.02,0.11,0.04,0.17,0.05c0.36,0.08,0.77,0.03,1.05-0.13
				c0.19-0.11,0.29-0.25,0.29-0.4c0-0.14-0.08-0.29-0.27-0.4c-0.01-0.01-0.02-0.01-0.03-0.02l-5.2-3c-0.01-0.01-0.02-0.01-0.03-0.02
				c-0.39-0.21-1.01-0.2-1.38,0.02c-0.38,0.22-0.38,0.57-0.02,0.8c0.01,0.01,0.02,0.01,0.03,0.02l5.2,3
				C183.92,95.94,183.93,95.95,183.94,95.96z"/>
			<path d="M200.24,96.24c3.98,2.3,4,6.03,0.05,8.33c-0.39,0.22-1.02,0.22-1.41,0c-0.39-0.22-0.39-0.59,0-0.82
				c1.59-0.93,2.38-2.13,2.37-3.35c-0.01-1.21-0.82-2.42-2.41-3.35c-0.39-0.22-0.4-0.59,0-0.82
				C199.21,96.02,199.85,96.02,200.24,96.24z"/>
		</g>
		<g>
			<g>
				<path class="st26" d="M237.43,63.14c1.44,0.83,1.44,2.17,0.01,3l-0.64,0.37l-58.15,33.8l-0.65,0.38c-1.43,0.83-3.74,0.83-5.18,0
					l-46.82-27.04c-1.44-0.83-1.45-2.17-0.02-3l0.65-0.38l58.15-33.8l0.64-0.37c1.43-0.83,3.76-0.83,5.19,0L237.43,63.14z
					 M191.01,85.78c0.47,0.17,1.08,0.09,1.37-0.18l19.75-18.47c1.14-1.07,0.86-2.45-0.69-3.34l-4.44-2.56
					c-0.39-0.22-1.03-0.22-1.41,0c-0.39,0.22-0.38,0.59,0,0.82l4.44,2.56c0.88,0.51,1.04,1.3,0.39,1.91l-15.47,14.47
					c0.27-1.95-0.89-3.96-3.48-5.46c-4.43-2.56-11.45-2.69-16.12-0.39l-5.23-3.02c3.92-2.73,3.68-6.79-0.76-9.35
					c-2.59-1.49-6.06-2.16-9.44-2l24.94-9.01c1.05-0.38,2.41-0.29,3.29,0.22l4.44,2.56c0.4,0.23,1.03,0.22,1.41,0
					c0.39-0.22,0.39-0.59,0-0.82l-4.44-2.56c-1.54-0.89-3.93-1.05-5.77-0.38l-31.82,11.5c-0.47,0.17-0.61,0.52-0.31,0.8
					c0.04,0.04,0.09,0.07,0.14,0.1c-3.92,2.73-3.67,6.79,0.76,9.35c4.43,2.56,11.45,2.69,16.12,0.39l5.23,3.02
					c-3.92,2.73-3.67,6.8,0.76,9.35c4.44,2.56,11.46,2.69,16.13,0.39C190.88,85.73,190.94,85.76,191.01,85.78"/>
			</g>
			<g class="st8">
				<g>
					<path class="st24" d="M169.18,31.22L117.5,61.26l-5.08-2.93c-1.15-0.66-1.16-1.74-0.01-2.4l47.55-27.63
						c1.14-0.66,3-0.66,4.15,0L169.18,31.22z"/>
				</g>
				<g>
					<path class="st1" d="M194,53.72c0.4,0.23,0.39,0.59,0,0.82c-0.39,0.22-1.02,0.23-1.41,0l-4.44-2.56
						c-0.88-0.51-2.24-0.6-3.29-0.22l-24.94,9.01c-2.71,0.13-5.35,0.8-7.41,2c-0.24,0.14-0.46,0.28-0.67,0.43
						c-0.08-0.05-0.13-0.08-0.17-0.12c-0.29-0.27-0.16-0.63,0.31-0.8l31.82-11.5c1.84-0.66,4.23-0.51,5.77,0.38L194,53.72z"/>
				</g>
				<g>
					<path class="st27" d="M184.77,36.48l-58.15,33.8l-10.01-5.78c-1.3-0.75-1.3-1.96-0.02-2.71l0.91-0.53l51.68-30.04l0.91-0.53
						c1.28-0.74,3.38-0.75,4.67,0L184.77,36.48z"/>
				</g>
				<g>
					<path class="st22" d="M168.13,63.48c3.98,2.3,4,6.03,0.05,8.33c-0.39,0.22-1.02,0.22-1.41,0c-0.4-0.23-0.39-0.59,0-0.82
						c1.59-0.93,2.37-2.13,2.37-3.35c-0.01-1.21-0.82-2.42-2.41-3.35c-0.39-0.22-0.4-0.59,0-0.82
						C167.1,63.25,167.74,63.25,168.13,63.48z"/>
				</g>
				<g>
					<path class="st28" d="M168.71,72.12c-0.38,0.22-0.38,0.57-0.02,0.8c-4.67,2.3-11.68,2.17-16.12-0.39
						c-4.43-2.56-4.68-6.62-0.73-9.34c0.21-0.15,0.44-0.29,0.67-0.43c2.06-1.2,4.71-1.87,7.41-2c3.37-0.16,6.85,0.5,9.44,2
						c4.43,2.56,4.68,6.62,0.73,9.34C169.7,71.89,169.08,71.9,168.71,72.12z M166.76,71.81c0.39,0.22,1.03,0.22,1.41,0
						c3.96-2.3,3.94-6.03-0.05-8.33c-0.39-0.22-1.03-0.22-1.41,0c-0.39,0.23-0.38,0.59,0,0.82c1.6,0.93,2.4,2.13,2.41,3.35
						c0,1.21-0.78,2.42-2.37,3.35C166.37,71.22,166.37,71.58,166.76,71.81"/>
				</g>
				<g>
					<path class="st1" d="M211.44,63.79c1.55,0.89,1.83,2.27,0.69,3.34L192.38,85.6c-0.29,0.27-0.9,0.35-1.37,0.18
						c-0.07-0.02-0.13-0.05-0.18-0.08c0.23-0.14,0.47-0.27,0.71-0.41c2.07-1.2,3.21-2.74,3.42-4.31l15.47-14.47
						c0.65-0.61,0.49-1.4-0.39-1.91l-4.44-2.56c-0.39-0.22-0.39-0.59,0-0.82c0.39-0.22,1.02-0.22,1.41,0L211.44,63.79z"/>
				</g>
				<g>
					<path class="st28" d="M194.95,80.99c-0.21,1.57-1.35,3.11-3.42,4.31c-0.24,0.14-0.48,0.27-0.73,0.39
						c-4.67,2.3-11.69,2.17-16.13-0.39c-4.43-2.56-4.68-6.62-0.73-9.34c0.4,0.21,1.01,0.2,1.38-0.02c0.38-0.22,0.39-0.57,0.02-0.8
						c4.67-2.3,11.69-2.17,16.12,0.39C194.06,77.02,195.22,79.03,194.95,80.99z M188.87,84.58c0.39,0.22,1.03,0.22,1.41,0
						c3.96-2.3,3.94-6.03-0.05-8.33c-0.39-0.22-1.03-0.22-1.41,0c-0.39,0.23-0.38,0.59,0,0.82c1.6,0.93,2.4,2.14,2.41,3.35
						c0.01,1.22-0.78,2.42-2.37,3.35C188.48,83.98,188.48,84.35,188.87,84.58"/>
				</g>
				<g>
					<path class="st22" d="M135.11,86.4c0.72,0.42,0.73,1.09,0.01,1.5c-0.72,0.42-1.88,0.42-2.6,0c-0.72-0.41-0.72-1.08,0-1.5
						C133.24,85.99,134.39,85.99,135.11,86.4z"/>
				</g>
				<g>
					<path class="st26" d="M139.01,88.66c0.72,0.42,0.73,1.09,0.01,1.5c-0.72,0.42-1.88,0.42-2.6,0c-0.72-0.41-0.72-1.08,0-1.5
						C137.14,88.24,138.29,88.24,139.01,88.66z"/>
				</g>
				<g>
					<path class="st26" d="M142.97,90.94c0.72,0.42,0.73,1.09,0.01,1.5c-0.72,0.42-1.88,0.42-2.6,0c-0.72-0.41-0.73-1.09-0.01-1.5
						C141.09,90.53,142.25,90.53,142.97,90.94z"/>
				</g>
				<g>
					<path class="st26" d="M146.87,93.19c0.72,0.42,0.73,1.09,0.01,1.5c-0.72,0.42-1.88,0.42-2.6,0c-0.72-0.41-0.72-1.08,0-1.5
						C145,92.78,146.15,92.78,146.87,93.19z"/>
				</g>
				<g>
					<path class="st26" d="M150.77,95.45c0.72,0.42,0.73,1.09,0.01,1.5c-0.72,0.42-1.88,0.42-2.6,0c-0.72-0.41-0.72-1.08,0-1.5
						C148.9,95.03,150.05,95.03,150.77,95.45z"/>
				</g>
				<g>
					<path class="st27" d="M247.79,72.86c1.29,0.74,1.29,1.96,0.01,2.7l-0.91,0.53l-51.68,30.04l-0.91,0.53
						c-1.28,0.74-3.38,0.75-4.66,0l-10.99-6.35l58.15-33.8L247.79,72.86z"/>
				</g>
				<g>
					<path class="st24" d="M251.97,79.02c1.15,0.66,1.16,1.74,0.01,2.4l-47.55,27.63c-1.15,0.67-3,0.66-4.15,0l-5.08-2.93
						l51.68-30.04L251.97,79.02z"/>
				</g>
				<g>
					<path class="st22" d="M171,9.45L283.5,74.41L183.38,132.6L70.87,67.64L171,9.45z M204.44,109.06l47.55-27.63
						c1.14-0.66,1.14-1.74-0.01-2.4l-5.08-2.93l0.91-0.53c1.28-0.74,1.28-1.96-0.01-2.7l-10.99-6.35l0.64-0.37
						c1.43-0.83,1.43-2.17-0.01-3L190.61,36.1c-1.44-0.83-3.76-0.83-5.19,0l-0.64,0.37l-10.01-5.78c-1.3-0.75-3.39-0.74-4.67,0
						l-0.91,0.53l-5.08-2.93c-1.15-0.66-3.01-0.66-4.15,0l-47.55,27.63c-1.15,0.67-1.14,1.74,0.01,2.4l5.08,2.93l-0.91,0.53
						c-1.28,0.74-1.28,1.96,0.02,2.71l10.01,5.78l-0.65,0.38c-1.43,0.83-1.41,2.17,0.02,3l46.82,27.04c1.44,0.83,3.75,0.83,5.18,0
						l0.65-0.38l10.99,6.35c1.29,0.74,3.38,0.74,4.66,0l0.91-0.53l5.08,2.93C201.44,109.72,203.29,109.73,204.44,109.06
						 M140.39,92.44c0.72,0.42,1.88,0.42,2.6,0c0.71-0.41,0.71-1.08-0.01-1.5c-0.72-0.41-1.88-0.42-2.59,0
						C139.66,91.35,139.67,92.03,140.39,92.44 M144.29,94.69c0.72,0.42,1.88,0.42,2.6,0c0.71-0.41,0.71-1.08-0.01-1.5
						c-0.72-0.41-1.87-0.41-2.58,0C143.57,93.61,143.57,94.28,144.29,94.69 M148.19,96.95c0.72,0.42,1.88,0.42,2.6,0
						c0.71-0.41,0.71-1.08-0.01-1.5c-0.72-0.41-1.87-0.41-2.58,0C147.47,95.86,147.47,96.53,148.19,96.95 M132.53,87.9
						c0.72,0.42,1.88,0.42,2.6,0c0.71-0.41,0.71-1.08-0.01-1.5c-0.72-0.41-1.87-0.41-2.58,0C131.81,86.82,131.81,87.49,132.53,87.9
						 M136.43,90.16c0.72,0.42,1.88,0.42,2.6,0c0.71-0.41,0.71-1.08-0.01-1.5c-0.72-0.41-1.87-0.41-2.58,0
						C135.71,89.07,135.71,89.74,136.43,90.16"/>
				</g>
				<g>
					<path class="st1" d="M173.94,75.96c0.05,0.03,0.1,0.05,0.16,0.07c0.06,0.02,0.11,0.04,0.17,0.05c0.36,0.08,0.77,0.03,1.05-0.13
						c0.19-0.11,0.29-0.25,0.29-0.4c0-0.14-0.08-0.29-0.27-0.4c-0.01-0.01-0.02-0.01-0.03-0.02l-5.2-3
						c-0.01-0.01-0.02-0.01-0.03-0.02c-0.39-0.21-1.01-0.2-1.38,0.02c-0.38,0.22-0.38,0.57-0.02,0.8c0.01,0.01,0.02,0.01,0.03,0.02
						l5.2,3C173.92,75.94,173.93,75.95,173.94,75.96z"/>
				</g>
				<g>
					<path class="st22" d="M190.24,76.24c3.98,2.3,4,6.03,0.05,8.33c-0.39,0.22-1.02,0.22-1.41,0c-0.39-0.22-0.39-0.59,0-0.82
						c1.59-0.93,2.38-2.13,2.37-3.35c-0.01-1.21-0.82-2.42-2.41-3.35c-0.39-0.22-0.4-0.59,0-0.82
						C189.21,76.02,189.85,76.02,190.24,76.24z"/>
				</g>
			</g>
		</g>
	</g>
</g>
<g id="DESIGNED_BY_FREEPIK">
</g>
</svg>
