<?xml version="1.0" encoding="utf-8"?>
<!-- Generator: Adobe Illustrator 24.0.3, SVG Export Plug-In . SVG Version: 6.00 Build 0)  -->
<svg version="1.1" xmlns="http://www.w3.org/2000/svg" xmlns:xlink="http://www.w3.org/1999/xlink" x="0px" y="0px"
	 viewBox="0 0 238.73 198.41" style="enable-background:new 0 0 238.73 198.41;" xml:space="preserve">
<style type="text/css">
	.st0{fill:#272525;}
	.st1{fill:#AA3634;}
	.st2{enable-background:new    ;}
	.st3{fill:#CECFD1;}
	.st4{opacity:0.3098;fill:#E6E6E7;}
	.st5{fill:#B25F6C;}
	.st6{fill:#47A85A;}
	.st7{fill:#AD3D4D;}
	.st8{fill:#E4E4E5;}
	.st9{fill:#696A6C;}
	.st10{fill:#929496;}
	.st11{fill:#AAACAE;}
	.st12{fill:#E1E2E3;}
</style>
<g id="BACKGROUND">
</g>
<g id="OBJECTS">
	<g id="Capa_4">
	</g>
	<g>
		<g>
			<g>
				<path class="st0" d="M99.59,91.36c0.07-0.04,0.13-0.08,0.2-0.11C99.72,91.29,99.65,91.33,99.59,91.36
					C99.59,91.36,99.59,91.36,99.59,91.36z"/>
			</g>
			<g>
				<path class="st0" d="M99.19,91.58c0.04-0.02,0.08-0.04,0.12-0.06c0.02-0.01,0.04-0.02,0.05-0.03c-0.07,0.04-0.14,0.08-0.21,0.11
					C99.16,91.6,99.18,91.59,99.19,91.58z"/>
			</g>
			<g>
				<path class="st0" d="M158.57,46.41c0.54-0.31,0.99-0.06,0.99,0.57c0,0.62-0.44,1.39-0.99,1.7l-37.37,21.58
					c-0.54,0.31-0.99,0.07-0.99-0.56c0,0.62,0.45,0.87,0.99,0.56l6.98-4.03c0.54-0.31,0.99-1.08,0.99-1.7
					c0-0.62-0.45-0.88-0.99-0.57L158.57,46.41z"/>
			</g>
			<g>
				<path class="st1" d="M139.04,52.19c0.55-0.32,0.99-0.07,0.99,0.56c0,0.62-0.44,1.39-0.99,1.71l-17.85,10.3
					c-0.54,0.31-0.99,0.06-0.99-0.57c0-0.62,0.44-1.39,0.99-1.7L139.04,52.19z"/>
			</g>
			<g class="st2">
				<g>
					<path class="st1" d="M128.19,63.95c0.54-0.31,0.99-0.06,0.99,0.57c0,0.62-0.44,1.39-0.99,1.7l-6.98,4.03
						c-0.54,0.31-0.99,0.07-0.99-0.56c0-0.62,0.44-1.4,0.99-1.71L128.19,63.95z"/>
				</g>
				<g>
					<path class="st3" d="M153.44,11.57c0.9-0.52,1.64-0.11,1.64,0.93c0,1.03-0.73,2.29-1.63,2.81s-1.64,0.11-1.64-0.93
						C151.81,13.35,152.54,12.09,153.44,11.57z"/>
				</g>
				<g>
					<path class="st0" d="M158.54,35.41c0.54-0.31,0.99-0.06,0.99,0.57c0,0.62-0.44,1.4-0.99,1.71l-37.37,21.58
						c-0.54,0.31-0.99,0.06-0.99-0.57c0,0.62,0.45,0.88,0.99,0.57L156.8,38.7c0.54-0.31,0.99-1.08,0.99-1.71s-0.45-0.88-0.99-0.57
						L158.54,35.41z"/>
				</g>
				<g>
					<path class="st1" d="M156.79,36.42c0.54-0.31,0.99-0.06,0.99,0.57s-0.44,1.4-0.99,1.71l-35.62,20.57
						c-0.54,0.31-0.99,0.06-0.99-0.57c0-0.62,0.44-1.4,0.99-1.71L156.79,36.42z"/>
				</g>
				<g>
					<path class="st0" d="M99.38,91.48c0,0,0.01,0,0.01-0.01c0.03-0.02,0.06-0.03,0.09-0.05C99.44,91.44,99.41,91.46,99.38,91.48z"
						/>
				</g>
				<g>
					<path class="st0" d="M158.53,29.92c0.54-0.31,0.99-0.07,0.99,0.56s-0.44,1.4-0.99,1.71l-37.37,21.58
						c-0.54,0.31-0.99,0.06-0.99-0.57c0,0.62,0.45,0.88,0.99,0.57l29.7-17.14c0.54-0.31,0.99-1.08,0.99-1.71
						c0-0.62-0.45-0.87-0.99-0.56L158.53,29.92z"/>
				</g>
				<g>
					<path class="st1" d="M150.85,34.35c0.54-0.31,0.99-0.07,0.99,0.56c0,0.62-0.44,1.4-0.99,1.71l-29.7,17.14
						c-0.54,0.31-0.99,0.06-0.99-0.57c0-0.62,0.44-1.39,0.99-1.7L150.85,34.35z"/>
				</g>
				<g>
					<path class="st0" d="M98.95,91.71c0.03-0.01,0.05-0.03,0.08-0.04c-0.01,0-0.02,0.01-0.03,0.01
						C98.98,91.69,98.96,91.7,98.95,91.71z"/>
				</g>
				<g>
					<path class="st3" d="M114.73,65.37c0.03,9.45-6.72,21.13-14.94,25.87c-0.07,0.04-0.13,0.08-0.2,0.11
						c-0.12,0.06-0.16,0.09-0.2,0.11c-0.12,0.07-0.16,0.09-0.2,0.11c-0.03,0.02-0.06,0.03-0.1,0.05c-0.03,0.02-0.06,0.03-0.1,0.05
						c-0.04,0.02-0.07,0.04-0.11,0.06c-0.03,0.01-0.05,0.03-0.08,0.04c-0.04,0.02-0.09,0.04-0.13,0.06
						c-0.11,0.05-0.16,0.08-0.21,0.1c-2.45,1.16-4.78,1.58-6.81,1.25c-0.08-0.01-0.1-0.02-0.13-0.02c-1.21-0.22-2.32-0.7-3.27-1.46
						l11.49-17.68L114.73,65.37z"/>
				</g>
				<g>
					<path class="st0" d="M99.52,91.4c0.01-0.01,0.03-0.01,0.04-0.02c-0.03,0.01-0.05,0.03-0.08,0.04
						C99.49,91.42,99.5,91.41,99.52,91.4z"/>
				</g>
				<g>
					<path class="st0" d="M99.15,91.6c-0.04,0.02-0.08,0.04-0.12,0.06c0.02-0.01,0.05-0.02,0.07-0.04
						C99.11,91.62,99.13,91.61,99.15,91.6z"/>
				</g>
				<g>
					<path class="st0" d="M99.69,56.8c8.27-4.78,15.01-0.94,15.04,8.57l-14.99,8.66L94.6,60.77c-5.53,5.49-9.34,13.53-9.8,20.47
						C85.4,72.02,91.83,61.34,99.69,56.8z"/>
				</g>
				<g>
					<path class="st1" d="M94.6,60.77l5.14,13.26L88.28,91.67c-2.19-1.73-3.52-4.82-3.53-8.99c0-0.1,0-0.21,0-0.31
						C84.86,75.15,88.78,66.55,94.6,60.77z"/>
				</g>
				<g>
					<path class="st4" d="M166.36,10.75L78.45,61.5l0.14,49.26l87.9-50.75L166.36,10.75z M99.79,91.25
						c-0.05,0.03-0.11,0.06-0.18,0.1c-0.01,0-0.01,0.01-0.02,0.01c-0.01,0-0.02,0.01-0.02,0.01c0,0-0.01,0-0.01,0.01
						c-0.04,0.02-0.08,0.04-0.13,0.07c-0.01,0.01-0.03,0.01-0.04,0.02c0,0-0.01,0-0.01,0.01c-0.01,0-0.01,0.01-0.02,0.01
						c-0.01,0-0.02,0.01-0.02,0.01c-0.08,0.04-0.11,0.06-0.15,0.08c-0.02,0.01-0.03,0.02-0.05,0.03c-0.04,0.02-0.08,0.04-0.12,0.06
						c-0.01,0.01-0.02,0.01-0.03,0.02c-0.02,0.01-0.03,0.02-0.05,0.03c-1.87,0.96-3.66,1.48-5.3,1.58c0,0,0,0,0,0
						c-0.12,0.01-0.23,0.01-0.35,0.01c-0.04,0-0.07,0-0.11,0c-0.09,0-0.19,0-0.28,0c-0.06,0-0.11,0-0.17,0c-0.06,0-0.12,0-0.17-0.01
						c-0.08,0-0.17-0.01-0.25-0.02c-0.05,0-0.1-0.01-0.15-0.01c-0.07-0.01-0.14-0.02-0.22-0.02c-0.08-0.01-0.16-0.02-0.24-0.03
						c-0.02,0-0.04,0-0.05-0.01c-0.02,0-0.03,0-0.04-0.01c0,0,0,0-0.01,0c-0.01,0-0.02,0-0.03-0.01c-0.01,0-0.03,0-0.04-0.01
						c-0.01,0-0.01,0-0.02,0c-0.23-0.04-0.45-0.09-0.67-0.15c-0.95-0.26-1.82-0.7-2.6-1.31l0,0c-2.18-1.73-3.49-4.82-3.51-9.02
						c0-0.1,0-0.21,0-0.37c0.14-9.44,6.77-20.79,14.94-25.51c8.27-4.78,15.01-0.94,15.04,8.57
						C114.76,74.88,108.06,86.47,99.79,91.25 M121.16,51.49l29.7-17.14l7.67-4.43c0.54-0.31,0.99-0.07,0.99,0.56
						c0,0.62-0.44,1.4-0.99,1.71l-37.37,21.58c-0.54,0.31-0.99,0.06-0.99-0.57C120.17,52.57,120.62,51.81,121.16,51.49
						 M121.17,56.99l35.62-20.57l1.75-1.01c0.54-0.31,0.99-0.06,0.99,0.57c0,0.62-0.44,1.4-0.99,1.71l-37.37,21.58
						c-0.54,0.31-0.99,0.06-0.99-0.57C120.19,58.07,120.63,57.3,121.17,56.99 M121.19,62.49l17.85-10.3l19.52-11.27
						c0.54-0.31,0.99-0.07,0.99,0.56s-0.44,1.4-0.99,1.71L121.2,64.76c-0.54,0.31-0.99,0.06-0.99-0.57
						C120.2,63.57,120.65,62.8,121.19,62.49 M158.58,48.68l-37.37,21.58c-0.54,0.31-0.99,0.07-0.99-0.56c0-0.62,0.44-1.4,0.99-1.71
						l6.98-4.03l30.38-17.54c0.54-0.31,0.99-0.06,0.99,0.57C159.57,47.6,159.12,48.36,158.58,48.68"/>
				</g>
				<g>
					<path class="st0" d="M158.56,40.92c0.54-0.31,0.99-0.07,0.99,0.56c0,0.62-0.44,1.4-0.99,1.71L121.2,64.76
						c-0.54,0.31-0.99,0.06-0.99-0.57c0,0.62,0.45,0.88,0.99,0.57l17.85-10.3c0.55-0.32,0.99-1.08,0.99-1.71
						c0-0.62-0.44-0.88-0.99-0.56L158.56,40.92z"/>
				</g>
				<g>
					<path class="st0" d="M98.81,91.78c0.03-0.01,0.05-0.03,0.08-0.04c0.02-0.01,0.04-0.02,0.06-0.03
						c-2.68,1.37-5.17,1.84-7.29,1.49c2.03,0.33,4.36-0.09,6.79-1.24c0.01,0,0.02-0.01,0.02-0.01c0.05-0.02,0.1-0.05,0.15-0.07
						c0.02-0.01,0.04-0.02,0.06-0.03C98.72,91.82,98.76,91.8,98.81,91.78z"/>
				</g>
				<g>
					<path class="st0" d="M88.26,91.7c-2.18-1.73-3.49-4.82-3.51-9.02c0.01,4.17,1.34,7.25,3.53,8.99L88.26,91.7z"/>
				</g>
				<g>
					<path class="st0" d="M84.76,81.93c0,0.13-0.01,0.26-0.01,0.39C84.75,82.19,84.76,82.06,84.76,81.93z"/>
				</g>
				<g>
					<path class="st0" d="M84.77,81.76c0,0.06,0,0.11-0.01,0.17C84.76,81.87,84.77,81.81,84.77,81.76z"/>
				</g>
				<g>
					<path class="st0" d="M84.78,81.55c0,0.07-0.01,0.14-0.01,0.2C84.77,81.69,84.78,81.62,84.78,81.55z"/>
				</g>
				<g>
					<path class="st0" d="M84.79,81.32c0,0.08-0.01,0.15-0.01,0.23C84.78,81.48,84.79,81.4,84.79,81.32z"/>
				</g>
				<g>
					<polygon class="st0" points="166.36,10.04 166.36,10.75 78.46,61.5 78.45,60.79 					"/>
				</g>
			</g>
			<g>
				<path class="st5" d="M157.89,9c0.9-0.52,1.64-0.11,1.64,0.93c0,1.03-0.73,2.29-1.63,2.81c-0.91,0.52-1.64,0.11-1.64-0.93
					C156.25,10.78,156.98,9.52,157.89,9z"/>
			</g>
			<g>
				<path class="st6" d="M162.33,6.43c0.9-0.52,1.64-0.11,1.64,0.93c0,1.03-0.73,2.29-1.63,2.81c-0.91,0.52-1.64,0.11-1.64-0.93
					C160.7,8.21,161.42,6.96,162.33,6.43z"/>
			</g>
			<g>
				<path class="st1" d="M78.43,52.53l87.9-50.75l0.02,8.26l-87.9,50.75L78.43,52.53z M153.45,15.31c0.9-0.52,1.63-1.78,1.63-2.81
					c0-1.04-0.74-1.45-1.64-0.93c-0.9,0.52-1.63,1.78-1.63,2.82C151.82,15.42,152.55,15.83,153.45,15.31 M157.9,12.75
					c0.9-0.52,1.63-1.78,1.63-2.81c0-1.04-0.74-1.45-1.64-0.93c-0.91,0.52-1.63,1.78-1.63,2.82
					C156.26,12.86,156.99,13.27,157.9,12.75 M162.34,10.18c0.9-0.52,1.63-1.78,1.63-2.81c0-1.04-0.74-1.45-1.64-0.93
					c-0.91,0.52-1.63,1.78-1.63,2.82C160.7,10.29,161.43,10.71,162.34,10.18"/>
			</g>
		</g>
	</g>
	<g>
		<g>
			<g>
				<path class="st0" d="M20.13,154.39c0.12-0.07,0.23-0.11,0.33-0.14c0.24-0.06,0.44-0.01,0.59,0.12c0.16,0.14,0.26,0.38,0.26,0.7
					c0,0.75-0.53,1.66-1.18,2.04c-0.66,0.38-1.19,0.08-1.19-0.67c0-0.17,0.03-0.34,0.07-0.52c0.08-0.31,0.24-0.62,0.43-0.89
					C19.64,154.76,19.87,154.54,20.13,154.39z"/>
			</g>
			<g class="st2">
				<g>
					<path class="st7" d="M62.37,104.85c0.11,0.18,0.29,0.28,0.5,0.28L46.04,134.3c-0.09-0.22-0.24-0.35-0.44-0.4L62.37,104.85z"/>
				</g>
				<g>
					<path class="st0" d="M44.93,134.05c0.25-0.14,0.48-0.19,0.67-0.15c0.2,0.04,0.35,0.18,0.44,0.4c0.05,0.12,0.07,0.26,0.07,0.43
						c0,0.75-0.53,1.66-1.18,2.04c-0.66,0.38-1.19,0.08-1.19-0.67c0-0.15,0.02-0.31,0.06-0.47c0.08-0.31,0.23-0.63,0.42-0.91
						C44.42,134.44,44.66,134.21,44.93,134.05z"/>
				</g>
				<g>
					<path class="st0" d="M63.41,102.25c0.66-0.38,1.19-0.08,1.19,0.68c0,0.75-0.53,1.66-1.18,2.04c-0.2,0.11-0.38,0.16-0.54,0.16
						c-0.21,0-0.39-0.1-0.5-0.28c-0.09-0.14-0.14-0.32-0.14-0.55C62.23,103.54,62.76,102.63,63.41,102.25z"/>
				</g>
				<g>
					<path class="st1" d="M1.03,123.29l69.38-40.05l0.02,8.05L1.05,131.34L1.03,123.29z M57.85,96.44c0.88-0.51,1.59-1.74,1.58-2.75
						c0-1.01-0.71-1.42-1.59-0.91c-0.88,0.51-1.59,1.74-1.58,2.74C56.26,96.54,56.97,96.95,57.85,96.44 M62.18,93.94
						c0.88-0.51,1.59-1.74,1.58-2.75c0-1.01-0.71-1.42-1.59-0.91c-0.88,0.51-1.59,1.74-1.58,2.74
						C60.59,94.04,61.3,94.45,62.18,93.94 M66.51,91.44c0.88-0.51,1.59-1.74,1.58-2.75c0-1.01-0.71-1.42-1.59-0.91
						c-0.87,0.51-1.59,1.74-1.58,2.74C64.92,91.54,65.63,91.95,66.51,91.44"/>
				</g>
				<g>
					<path class="st6" d="M66.5,87.78c0.88-0.51,1.59-0.1,1.59,0.91c0,1.01-0.7,2.24-1.58,2.75c-0.87,0.51-1.59,0.1-1.59-0.92
						C64.91,89.52,65.62,88.29,66.5,87.78z"/>
				</g>
				<g>
					<path class="st5" d="M62.17,90.28c0.88-0.51,1.59-0.1,1.59,0.91c0,1.01-0.7,2.24-1.58,2.75c-0.88,0.51-1.59,0.1-1.59-0.92
						C60.58,92.02,61.29,90.79,62.17,90.28z"/>
				</g>
				<g>
					<path class="st3" d="M57.84,92.78c0.88-0.51,1.59-0.1,1.59,0.91c0,1.01-0.7,2.24-1.58,2.75c-0.88,0.51-1.59,0.1-1.59-0.92
						C56.25,94.52,56.96,93.29,57.84,92.78z"/>
				</g>
				<g>
					<path class="st3" d="M51.72,135.49l13.96,7.96L6.33,177.72l10.6-22.67l2.08,0.87c-0.05,0.18-0.07,0.35-0.07,0.52
						c0,0.75,0.53,1.05,1.19,0.67c0.65-0.38,1.18-1.29,1.18-2.04c0-0.32-0.1-0.56-0.26-0.7l5.52-11.97l3.69,1.91l2.36-4.08
						l12.32,7.02L51.72,135.49z"/>
				</g>
				<g>
					<path class="st0" d="M32.7,127.31c0.65-0.38,1.19-0.08,1.19,0.68c0,0.24-0.06,0.5-0.15,0.76c-0.12,0.31-0.3,0.61-0.52,0.86
						c-0.16,0.18-0.33,0.33-0.51,0.43c-0.18,0.11-0.36,0.16-0.52,0.16c-0.22,0-0.4-0.09-0.52-0.26c-0.1-0.14-0.15-0.33-0.15-0.57
						C31.52,128.6,32.05,127.69,32.7,127.31z"/>
				</g>
				<g>
					<path class="st7" d="M8.97,150.65l8.38,3.51l2.09,0.88c-0.2,0.27-0.35,0.58-0.43,0.89l-2.08-0.87l-8.45-3.53
						C8.69,151.26,8.86,150.96,8.97,150.65z"/>
				</g>
				<g>
					<path class="st4" d="M1.06,132.04l69.38-40.05l0.15,54.66L1.21,186.69L1.06,132.04z M6.33,177.72l59.36-34.27l-13.96-7.96
						l-6.78,11.76l-12.32-7.02l-2.36,4.08l-3.69-1.91l5.62-12.2c0.16,0,0.33-0.05,0.52-0.16c0.18-0.11,0.36-0.26,0.51-0.43
						l10.58,6.03c-0.04,0.16-0.06,0.32-0.06,0.47c0,0.75,0.53,1.05,1.19,0.67c0.65-0.38,1.18-1.29,1.18-2.04
						c0-0.17-0.03-0.31-0.07-0.43l16.84-29.17c0.16,0,0.35-0.05,0.54-0.16c0.66-0.38,1.19-1.29,1.18-2.04
						c0-0.76-0.53-1.06-1.19-0.68c-0.65,0.38-1.18,1.29-1.18,2.05c0,0.23,0.05,0.41,0.14,0.55L45.6,133.91
						c-0.19-0.04-0.42,0-0.67,0.15c-0.26,0.15-0.51,0.39-0.7,0.67l-10.49-5.98c0.1-0.25,0.15-0.51,0.15-0.76
						c0-0.76-0.54-1.05-1.19-0.68c-0.65,0.38-1.18,1.29-1.18,2.05c0,0.24,0.06,0.43,0.15,0.57l-5.62,12.2l-2.47-1.28l-6.22,13.31
						l-8.38-3.51c0.08-0.23,0.12-0.46,0.12-0.67c0-0.75-0.53-1.06-1.19-0.68s-1.18,1.3-1.18,2.05c0,0.75,0.53,1.05,1.19,0.68
						c0.21-0.12,0.4-0.29,0.57-0.5l8.45,3.53L6.33,177.72"/>
				</g>
				<g>
					<path class="st7" d="M33.22,129.6c0.22-0.25,0.4-0.55,0.52-0.86l10.49,5.98c-0.19,0.28-0.34,0.6-0.42,0.91L33.22,129.6z"/>
				</g>
				<g>
					<path class="st7" d="M31.67,129.93c0.12,0.17,0.3,0.27,0.52,0.26l-5.62,12.2l-5.52,11.97c-0.15-0.13-0.36-0.17-0.59-0.12
						l5.59-12.12L31.67,129.93z"/>
				</g>
				<g>
					<path class="st3" d="M20.13,154.39c-0.25,0.15-0.49,0.37-0.68,0.64l-2.09-0.88l6.22-13.31l2.47,1.28l-5.59,12.12
						C20.35,154.28,20.24,154.32,20.13,154.39z"/>
				</g>
				<g>
					<path class="st0" d="M7.9,149.29c0.65-0.38,1.18-0.07,1.19,0.68c0,0.22-0.04,0.45-0.12,0.67c-0.11,0.31-0.28,0.61-0.49,0.87
						c-0.17,0.2-0.36,0.38-0.57,0.5c-0.65,0.38-1.18,0.07-1.19-0.68C6.72,150.59,7.25,149.67,7.9,149.29z"/>
				</g>
				<g>
					<polygon class="st0" points="70.43,91.29 70.43,91.98 1.06,132.04 1.05,131.34 					"/>
				</g>
			</g>
		</g>
	</g>
	<g>
		<g>
			<g>
				<path class="st3" d="M200.41,66.25c0.47-0.27,0.85-0.05,0.85,0.49c0,0.54-0.38,1.2-0.85,1.47l-26.07,15.05
					c-0.47,0.27-0.85,0.05-0.85-0.49c0-0.54,0.38-1.2,0.85-1.47L200.41,66.25z"/>
			</g>
			<g>
				<path class="st3" d="M200.44,76.66c0.47-0.27,0.85-0.05,0.85,0.49c0,0.54-0.38,1.2-0.85,1.47l-26.07,15.05
					c-0.47,0.27-0.85,0.05-0.85-0.49c0-0.54,0.38-1.2,0.85-1.47L200.44,76.66z"/>
			</g>
			<g>
				<path class="st3" d="M200.43,71.45c0.47-0.27,0.85-0.05,0.85,0.49c0,0.54-0.38,1.2-0.85,1.47l-26.07,15.05
					c-0.47,0.27-0.85,0.05-0.85-0.49c0-0.54,0.38-1.2,0.85-1.47L200.43,71.45z"/>
			</g>
			<g>
				<polygon class="st0" points="232.78,47.21 232.81,59.98 206.68,75.07 206.64,62.3 				"/>
			</g>
			<g>
				<polygon class="st0" points="238.86,36.88 238.86,37.5 163.24,81.16 163.23,80.55 				"/>
			</g>
			<g>
				<path class="st3" d="M227.75,38.2c0.77-0.45,1.41-0.08,1.41,0.8c0,0.9-0.63,1.98-1.4,2.42c-0.78,0.45-1.41,0.1-1.42-0.8
					C226.34,39.74,226.97,38.65,227.75,38.2z"/>
			</g>
			<g>
				
					<ellipse transform="matrix(0.5025 -0.8646 0.8646 0.5025 82.703 218.9302)" class="st5" cx="231.57" cy="37.61" rx="1.98" ry="1.15"/>
			</g>
			<g>
				
					<ellipse transform="matrix(0.5024 -0.8646 0.8646 0.5024 86.5158 221.139)" class="st6" cx="235.4" cy="35.4" rx="1.98" ry="1.15"/>
			</g>
			<g>
				<path class="st1" d="M163.21,73.44l75.63-43.66l0.02,7.11l-75.63,43.66L163.21,73.44z M227.76,41.43
					c0.77-0.45,1.4-1.53,1.4-2.42c0-0.89-0.64-1.25-1.41-0.8c-0.78,0.45-1.41,1.54-1.41,2.43
					C226.35,41.52,226.98,41.88,227.76,41.43 M231.58,39.22c0.78-0.45,1.4-1.53,1.4-2.42c0-0.89-0.63-1.25-1.41-0.8
					c-0.77,0.45-1.4,1.54-1.4,2.42C230.17,39.31,230.8,39.67,231.58,39.22 M235.4,37.01c0.77-0.45,1.4-1.53,1.4-2.42
					c0-0.89-0.64-1.25-1.41-0.8c-0.78,0.45-1.4,1.54-1.4,2.42C234,37.11,234.62,37.46,235.4,37.01"/>
			</g>
			<g>
				
					<ellipse transform="matrix(0.5025 -0.8646 0.8646 0.5025 10.8287 188.838)" class="st0" cx="169.49" cy="85.01" rx="1.72" ry="1"/>
			</g>
			<g>
				
					<ellipse transform="matrix(0.5025 -0.8646 0.8646 0.5025 6.3384 191.4382)" class="st0" cx="169.5" cy="90.21" rx="1.72" ry="1"/>
			</g>
			<g>
				
					<ellipse transform="matrix(0.5025 -0.8646 0.8646 0.5025 1.8421 194.0426)" class="st0" cx="169.52" cy="95.42" rx="1.72" ry="1"/>
			</g>
			<g>
				<path class="st4" d="M163.24,81.16l75.63-43.66l0.07,24.21l-75.63,43.66L163.24,81.16z M232.81,59.98l-0.04-12.77L206.64,62.3
					l0.04,12.77L232.81,59.98 M200.43,73.41c0.47-0.27,0.85-0.93,0.85-1.47c0-0.54-0.39-0.76-0.85-0.49L174.36,86.5
					c-0.47,0.27-0.85,0.93-0.85,1.47c0,0.54,0.39,0.75,0.85,0.49L200.43,73.41 M200.42,68.2c0.47-0.27,0.85-0.93,0.85-1.47
					c0-0.54-0.39-0.75-0.85-0.49L174.35,81.3c-0.47,0.27-0.85,0.93-0.85,1.47c0,0.54,0.39,0.75,0.85,0.49L200.42,68.2 M200.45,78.61
					c0.47-0.27,0.85-0.93,0.85-1.47c0-0.54-0.39-0.75-0.85-0.49l-26.07,15.05c-0.47,0.27-0.85,0.93-0.85,1.47
					c0,0.54,0.39,0.75,0.85,0.49L200.45,78.61 M169.49,86.41c0.68-0.39,1.22-1.34,1.22-2.11c0-0.78-0.55-1.09-1.22-0.7
					c-0.67,0.39-1.22,1.33-1.22,2.11C168.27,86.48,168.82,86.8,169.49,86.41 M169.52,96.82c0.68-0.39,1.22-1.33,1.22-2.11
					c0-0.78-0.55-1.09-1.22-0.7c-0.67,0.39-1.22,1.33-1.22,2.11C168.3,96.9,168.85,97.21,169.52,96.82 M169.51,91.61
					c0.68-0.39,1.22-1.33,1.22-2.11c0-0.77-0.55-1.09-1.22-0.7c-0.67,0.39-1.22,1.33-1.22,2.11C168.29,91.69,168.84,92,169.51,91.61
					"/>
			</g>
		</g>
	</g>
	<g>
		<g>
			<g>
				<polygon class="st8" points="115.83,150.14 115.86,160.74 108.16,165.18 108.18,173.66 115.88,169.21 108.18,173.66 
					108.13,154.59 				"/>
			</g>
			<g>
				<polygon class="st9" points="115.86,160.74 115.88,169.21 108.18,173.66 108.16,165.18 				"/>
			</g>
			<g class="st2">
				<g>
					<polygon class="st9" points="149.32,127.22 149.38,149.87 141.68,154.32 141.62,131.66 					"/>
				</g>
				<g>
					<polygon class="st9" points="138.16,136.69 138.22,156.32 130.52,160.76 130.46,141.13 					"/>
				</g>
				<g>
					<polygon class="st9" points="127,146.74 127.05,162.76 119.35,167.21 119.3,151.19 					"/>
				</g>
				<g>
					<polygon class="st8" points="126.95,126.71 127,146.74 119.3,151.19 119.35,167.21 127.05,162.76 119.35,167.21 119.25,131.15 
											"/>
				</g>
				<g>
					<polygon class="st8" points="104.64,148.85 104.68,163.74 96.98,168.19 97.02,180.1 104.72,175.66 97.02,180.1 96.94,153.3 
											"/>
				</g>
				<g>
					<path class="st4" d="M78.72,131.67l77.01-44.46l0.19,66.07l-77.01,44.46L78.72,131.67z M138.16,136.69l-0.07-24.55l-7.7,4.45
						l0.13,44.18l7.7-4.45L138.16,136.69 M127,146.74l-0.06-20.04l-7.7,4.45l0.1,36.06l7.7-4.45L127,146.74 M149.32,127.11
						l-0.08-28.22l-7.7,4.45l0.08,28.22L149.32,127.11 M104.68,163.74l-0.04-14.89l-7.7,4.45l0.08,26.81l7.7-4.45L104.68,163.74
						 M149.38,149.87l-0.06-22.65l-7.7,4.45l0.06,22.65L149.38,149.87 M115.86,160.74l-0.03-10.59l-7.7,4.45l0.05,19.07l7.7-4.45
						L115.86,160.74 M93.53,175.14l-0.02-8.71l-7.7,4.45l0.04,15.67l7.7-4.45L93.53,175.14"/>
				</g>
				<g>
					<polygon class="st8" points="149.24,98.89 149.32,127.11 141.62,131.55 141.54,103.33 					"/>
				</g>
				<g>
					<path class="st1" d="M78.7,122.51l77.14-44.54l0.02,8.06l-77.14,44.54L78.7,122.51z M151.94,86.17
						c0.88-0.51,1.59-1.74,1.59-2.75c0-1.01-0.72-1.42-1.6-0.91c-0.87,0.51-1.59,1.74-1.58,2.75
						C150.35,86.27,151.06,86.68,151.94,86.17 M147.61,88.67c0.88-0.51,1.59-1.74,1.58-2.74c0-1.01-0.71-1.42-1.59-0.92
						c-0.87,0.51-1.59,1.74-1.58,2.75C146.02,88.77,146.74,89.18,147.61,88.67 M143.28,91.17c0.88-0.51,1.59-1.74,1.58-2.74
						c0-1.01-0.71-1.42-1.59-0.92c-0.88,0.51-1.59,1.74-1.58,2.75C141.69,91.27,142.4,91.68,143.28,91.17"/>
				</g>
				<g>
					<path class="st6" d="M151.93,82.51c0.88-0.51,1.6-0.1,1.6,0.91c0,1.01-0.71,2.24-1.59,2.75c-0.87,0.51-1.59,0.1-1.59-0.91
						C150.34,84.25,151.05,83.02,151.93,82.51z"/>
				</g>
				<g>
					<polygon class="st8" points="138.09,112.14 138.16,136.69 130.46,141.13 130.52,160.76 138.22,156.32 130.52,160.76 
						130.39,116.58 					"/>
				</g>
				<g>
					<path class="st5" d="M147.6,85.01c0.88-0.51,1.59-0.1,1.59,0.92c0,1.01-0.7,2.24-1.58,2.74c-0.87,0.51-1.59,0.1-1.59-0.91
						C146.01,86.75,146.73,85.52,147.6,85.01z"/>
				</g>
				<g>
					<path class="st3" d="M143.27,87.51c0.88-0.51,1.59-0.1,1.59,0.92c0,1.01-0.7,2.24-1.58,2.74c-0.88,0.51-1.59,0.1-1.59-0.91
						C141.68,89.25,142.39,88.02,143.27,87.51z"/>
				</g>
				<g>
					<polygon class="st0" points="155.86,86.03 155.86,86.72 78.72,131.25 78.72,130.56 					"/>
				</g>
			</g>
			<g>
				<polygon class="st8" points="93.5,166.44 93.53,175.14 85.83,179.59 85.85,186.55 93.55,182.11 85.85,186.55 85.8,170.88 				
					"/>
			</g>
			<g>
				<polygon class="st9" points="93.53,175.14 93.55,182.11 85.85,186.55 85.83,179.59 				"/>
			</g>
			<g>
				<polygon class="st9" points="104.68,163.74 104.72,175.66 97.02,180.1 96.98,168.19 				"/>
			</g>
		</g>
	</g>
	<g>
		<g>
			<g>
				<polygon class="st4" points="183.35,143.7 183.34,140.37 188.97,137.13 188.98,140.45 				"/>
			</g>
			<g>
				<polygon class="st10" points="194.84,130.21 194.84,130.02 200.46,126.77 200.46,126.96 				"/>
			</g>
			<g>
				<polygon class="st10" points="194.86,137.25 194.86,137.06 200.48,133.81 200.48,134.01 				"/>
			</g>
			<g>
				<polygon class="st10" points="183.35,143.9 183.35,143.7 188.98,140.45 188.98,140.65 				"/>
			</g>
			<g>
				<polygon class="st10" points="183.36,147.41 183.36,147.21 188.99,143.96 188.99,144.16 				"/>
			</g>
			<g>
				<polygon class="st10" points="183.37,150.93 183.37,150.73 189,147.49 189,147.68 				"/>
			</g>
			<g>
				<polygon class="st10" points="171.87,157.57 171.87,157.38 177.49,154.13 177.49,154.33 				"/>
			</g>
			<g class="st2">
				<g>
					<polygon class="st10" points="229.42,131.2 235.34,127.77 235.34,127.97 229.42,131.39 					"/>
				</g>
				<g>
					<polygon class="st4" points="229.42,131.2 229.41,127.87 235.33,124.45 235.34,127.77 					"/>
				</g>
				<g>
					<polygon class="st4" points="223.67,138.04 223.67,134.71 229.29,131.47 229.3,134.79 					"/>
				</g>
				<g>
					<polygon class="st4" points="229.41,127.68 229.4,124.36 235.32,120.94 235.33,124.26 					"/>
				</g>
				<g>
					<polygon class="st10" points="229.4,124.16 235.32,120.74 235.32,120.94 229.4,124.36 					"/>
				</g>
				<g>
					<polygon class="st4" points="223.66,134.52 223.66,131.19 229.28,127.95 229.29,131.27 					"/>
				</g>
				<g>
					<polygon class="st10" points="223.66,131.19 223.65,131 229.28,127.75 229.28,127.95 					"/>
				</g>
				<g>
					<polygon class="st4" points="229.4,124.16 229.39,120.84 235.31,117.42 235.32,120.74 					"/>
				</g>
				<g>
					<polygon class="st4" points="217.92,141.36 217.91,138.04 223.54,134.79 223.55,138.11 					"/>
				</g>
				<g>
					<polygon class="st10" points="217.91,138.04 217.91,137.84 223.54,134.59 223.54,134.79 					"/>
				</g>
				<g>
					<polygon class="st4" points="223.65,131 223.65,127.68 229.27,124.43 229.28,127.75 					"/>
				</g>
				<g>
					<polygon class="st10" points="223.65,127.68 223.64,127.48 229.27,124.23 229.27,124.43 					"/>
				</g>
				<g>
					<polygon class="st4" points="229.39,120.64 229.38,117.32 235.3,113.9 235.31,117.22 					"/>
				</g>
				<g>
					<polygon class="st4" points="217.91,137.84 217.9,134.51 223.53,131.27 223.54,134.59 					"/>
				</g>
				<g>
					<polygon class="st4" points="223.64,127.48 223.64,124.16 229.26,120.91 229.27,124.23 					"/>
				</g>
				<g>
					<polygon class="st4" points="229.38,117.12 229.37,113.8 235.29,110.38 235.3,113.7 					"/>
				</g>
				<g>
					<polygon class="st4" points="212.16,144.68 212.15,141.36 217.78,138.11 217.79,141.44 					"/>
				</g>
				<g>
					<polygon class="st4" points="217.9,134.32 217.89,131 223.52,127.75 223.53,131.08 					"/>
				</g>
				<g>
					<polygon class="st10" points="217.89,131 217.89,130.8 223.52,127.55 223.52,127.75 					"/>
				</g>
				<g>
					<polygon class="st4" points="223.63,123.96 223.63,120.64 229.25,117.4 229.26,120.71 					"/>
				</g>
				<g>
					<polygon class="st10" points="223.63,120.64 223.62,120.45 229.25,117.2 229.25,117.4 					"/>
				</g>
				<g>
					<polygon class="st4" points="229.37,113.6 229.36,110.28 235.28,106.86 235.29,110.18 					"/>
				</g>
				<g>
					<polygon class="st10" points="229.36,110.09 235.28,106.67 235.28,106.86 229.36,110.28 					"/>
				</g>
				<g>
					<polygon class="st4" points="212.15,141.16 212.14,137.84 217.77,134.59 217.78,137.92 					"/>
				</g>
				<g>
					<polygon class="st4" points="217.89,130.8 217.88,127.48 223.51,124.23 223.52,127.55 					"/>
				</g>
				<g>
					<polygon class="st10" points="217.88,127.48 217.88,127.38 223.51,124.14 223.51,124.23 					"/>
				</g>
				<g>
					<polygon class="st4" points="223.62,120.45 223.62,117.12 229.24,113.87 229.25,117.2 					"/>
				</g>
				<g>
					<polygon class="st4" points="229.36,110.09 229.35,106.76 235.27,103.34 235.28,106.67 					"/>
				</g>
				<g>
					<polygon class="st10" points="229.35,106.57 235.27,103.15 235.27,103.34 229.35,106.76 					"/>
				</g>
				<g>
					<polygon class="st4" points="206.41,148.01 206.4,144.68 212.03,141.43 212.04,144.76 					"/>
				</g>
				<g>
					<polygon class="st10" points="206.4,144.68 206.4,144.48 212.03,141.24 212.03,141.43 					"/>
				</g>
				<g>
					<polygon class="st4" points="212.14,137.65 212.13,134.33 217.76,131.08 217.77,134.4 					"/>
				</g>
				<g>
					<polygon class="st4" points="223.61,116.92 223.61,113.6 229.23,110.35 229.24,113.68 					"/>
				</g>
				<g>
					<polygon class="st10" points="223.61,113.6 223.6,113.41 229.23,110.16 229.23,110.35 					"/>
				</g>
				<g>
					<polygon class="st4" points="229.35,106.57 229.34,103.24 235.26,99.82 235.27,103.15 					"/>
				</g>
				<g>
					<polygon class="st10" points="229.34,103.05 235.26,99.63 235.26,99.82 229.34,103.24 					"/>
				</g>
				<g>
					<polygon class="st4" points="206.4,144.48 206.39,141.16 212.02,137.91 212.03,141.24 					"/>
				</g>
				<g>
					<polygon class="st10" points="206.39,141.16 206.39,140.97 212.02,137.72 212.02,137.91 					"/>
				</g>
				<g>
					<polygon class="st4" points="212.13,134.13 212.12,130.8 217.75,127.56 217.76,130.88 					"/>
				</g>
				<g>
					<polygon class="st10" points="212.12,130.8 212.12,130.61 217.75,127.36 217.75,127.56 					"/>
				</g>
				<g>
					<polygon class="st4" points="217.87,123.77 217.86,120.44 223.49,117.2 223.5,120.52 					"/>
				</g>
				<g>
					<polygon class="st4" points="223.6,113.41 223.6,110.09 229.22,106.84 229.23,110.16 					"/>
				</g>
				<g>
					<polygon class="st10" points="223.6,110.09 223.59,109.89 229.22,106.64 229.22,106.84 					"/>
				</g>
				<g>
					<polygon class="st4" points="229.34,103.05 229.33,99.73 235.25,96.31 235.26,99.63 					"/>
				</g>
				<g>
					<polygon class="st10" points="229.33,99.53 235.25,96.11 235.25,96.31 229.33,99.73 					"/>
				</g>
				<g>
					<polygon class="st4" points="206.39,140.97 206.38,137.65 212.01,134.4 212.02,137.72 					"/>
				</g>
				<g>
					<polygon class="st10" points="212.11,127.29 212.11,127.09 217.74,123.84 217.74,124.04 					"/>
				</g>
				<g>
					<polygon class="st4" points="217.86,120.24 217.85,116.92 223.48,113.67 223.49,117 					"/>
				</g>
				<g>
					<polygon class="st10" points="217.85,116.92 217.85,116.73 223.48,113.48 223.48,113.67 					"/>
				</g>
				<g>
					<polygon class="st4" points="223.59,109.89 223.59,106.56 229.21,103.32 229.22,106.64 					"/>
				</g>
				<g>
					<polygon class="st4" points="229.33,99.53 229.32,96.21 235.24,92.79 235.25,96.11 					"/>
				</g>
				<g>
					<polygon class="st10" points="235.29,85.61 235.49,131.31 235.34,127.97 235.34,127.77 235.33,124.45 235.33,124.26 
						235.32,120.94 235.32,120.74 235.31,117.42 235.31,117.22 235.3,113.9 235.3,113.7 235.29,110.38 235.29,110.18 235.28,106.86 
						235.28,106.67 235.27,103.34 235.27,103.15 235.26,99.82 235.26,99.63 235.25,96.31 235.25,96.11 235.24,92.79 235.24,92.59 
						235.23,89.27 					"/>
				</g>
				<g>
					<polygon class="st4" points="200.65,147.81 200.64,144.48 206.26,141.23 206.27,144.56 					"/>
				</g>
				<g>
					<polygon class="st4" points="206.38,137.45 206.37,134.12 212,130.88 212.01,134.2 					"/>
				</g>
				<g>
					<polygon class="st4" points="212.11,127.09 212.1,123.77 217.73,120.52 217.74,123.84 					"/>
				</g>
				<g>
					<polygon class="st10" points="212.1,123.77 212.1,123.57 217.73,120.32 217.73,120.52 					"/>
				</g>
				<g>
					<polygon class="st4" points="217.85,116.73 217.84,113.41 223.47,110.16 223.48,113.48 					"/>
				</g>
				<g>
					<polygon class="st4" points="223.59,106.37 223.58,103.05 229.2,99.8 229.21,103.13 					"/>
				</g>
				<g>
					<polygon class="st4" points="229.32,96.01 229.31,92.69 235.23,89.27 235.24,92.59 					"/>
				</g>
				<g>
					<polygon class="st10" points="229.31,92.59 235.23,89.17 235.23,89.27 229.31,92.69 					"/>
				</g>
				<g>
					<polygon class="st4" points="194.91,154.65 194.9,151.32 200.52,148.08 200.53,151.4 					"/>
				</g>
				<g>
					<polygon class="st10" points="200.63,140.97 200.63,140.77 206.25,137.52 206.25,137.72 					"/>
				</g>
				<g>
					<polygon class="st4" points="206.37,133.93 206.36,130.61 211.99,127.36 212,130.68 					"/>
				</g>
				<g>
					<polygon class="st4" points="212.1,123.57 212.09,120.25 217.72,117 217.73,120.32 					"/>
				</g>
				<g>
					<polygon class="st4" points="217.84,113.21 217.83,109.89 223.46,106.64 223.47,109.96 					"/>
				</g>
				<g>
					<polygon class="st10" points="217.83,109.89 217.83,109.7 223.46,106.45 223.46,106.64 					"/>
				</g>
				<g>
					<polygon class="st4" points="223.58,102.85 223.57,99.53 229.19,96.28 229.2,99.6 					"/>
				</g>
				<g>
					<polygon class="st10" points="223.57,99.53 223.57,99.33 229.19,96.08 229.19,96.28 					"/>
				</g>
				<g>
					<polygon class="st4" points="194.9,151.13 194.89,147.8 200.51,144.56 200.52,147.88 					"/>
				</g>
				<g>
					<polygon class="st10" points="194.89,147.8 194.89,147.61 200.51,144.36 200.51,144.56 					"/>
				</g>
				<g>
					<polygon class="st4" points="200.63,140.77 200.62,137.45 206.24,134.2 206.25,137.52 					"/>
				</g>
				<g>
					<polygon class="st4" points="206.36,130.41 206.35,127.09 211.98,123.84 211.99,127.17 					"/>
				</g>
				<g>
					<polygon class="st10" points="206.35,127.09 206.35,126.89 211.98,123.64 211.98,123.84 					"/>
				</g>
				<g>
					<polygon class="st4" points="212.09,120.06 212.08,116.73 217.71,113.48 217.72,116.81 					"/>
				</g>
				<g>
					<polygon class="st4" points="217.83,109.7 217.82,106.37 223.45,103.12 223.46,106.45 					"/>
				</g>
				<g>
					<polygon class="st4" points="223.57,99.33 223.56,96.01 229.18,92.76 229.19,96.08 					"/>
				</g>
				<g>
					<polygon class="st10" points="189.14,154.65 189.14,154.45 194.77,151.2 194.77,151.4 					"/>
				</g>
				<g>
					<polygon class="st4" points="194.89,147.61 194.88,144.29 200.5,141.04 200.51,144.36 					"/>
				</g>
				<g>
					<polygon class="st4" points="200.62,137.25 200.61,133.93 206.23,130.68 206.24,134 					"/>
				</g>
				<g>
					<polygon class="st4" points="206.35,126.89 206.34,123.57 211.97,120.32 211.98,123.64 					"/>
				</g>
				<g>
					<polygon class="st10" points="206.34,123.57 206.34,123.38 211.97,120.13 211.97,120.32 					"/>
				</g>
				<g>
					<polygon class="st4" points="212.08,116.53 212.07,113.21 217.7,109.96 217.71,113.29 					"/>
				</g>
				<g>
					<polygon class="st10" points="212.07,113.21 212.07,113.02 217.7,109.77 217.7,109.96 					"/>
				</g>
				<g>
					<polygon class="st4" points="217.82,106.17 217.81,102.85 223.44,99.6 223.45,102.93 					"/>
				</g>
				<g>
					<polygon class="st10" points="217.81,102.85 217.81,102.65 223.44,99.4 223.44,99.6 					"/>
				</g>
				<g>
					<polygon class="st4" points="189.14,154.45 189.13,151.12 194.76,147.88 194.77,151.2 					"/>
				</g>
				<g>
					<polygon class="st4" points="194.88,144.09 194.87,140.77 200.49,137.52 200.5,140.84 					"/>
				</g>
				<g>
					<polygon class="st4" points="200.61,133.73 200.6,130.41 206.22,127.16 206.23,130.49 					"/>
				</g>
				<g>
					<polygon class="st10" points="200.6,130.41 200.6,130.21 206.22,126.96 206.22,127.16 					"/>
				</g>
				<g>
					<polygon class="st4" points="206.34,123.38 206.33,120.05 211.96,116.81 211.97,120.13 					"/>
				</g>
				<g>
					<polygon class="st10" points="206.33,120.05 206.33,119.86 211.96,116.61 211.96,116.81 					"/>
				</g>
				<g>
					<polygon class="st4" points="212.07,113.02 212.06,109.7 217.69,106.45 217.7,109.77 					"/>
				</g>
				<g>
					<polygon class="st10" points="212.06,109.7 212.06,109.5 217.69,106.25 217.69,106.45 					"/>
				</g>
				<g>
					<polygon class="st4" points="217.81,102.65 217.8,99.33 223.43,96.08 223.44,99.4 					"/>
				</g>
				<g>
					<polygon class="st10" points="217.8,99.23 217.8,99.33 217.81,102.65 217.81,102.85 217.82,106.17 217.82,106.37 217.83,109.7 
						217.83,109.89 217.84,113.21 217.84,113.41 217.85,116.73 217.85,116.92 217.86,120.24 217.86,120.44 217.87,123.77 
						217.87,123.86 217.81,127.42 217.88,127.48 217.89,130.8 217.89,131 217.9,134.32 217.9,134.51 217.91,137.84 217.91,138.04 
						217.92,141.36 217.92,141.45 217.79,141.53 217.79,141.44 217.78,138.11 217.78,137.92 217.77,134.59 217.77,134.4 
						217.76,131.08 217.76,130.88 217.75,127.56 217.75,127.36 217.74,124.04 217.74,123.84 217.73,120.52 217.73,120.32 
						217.72,117 217.72,116.81 217.71,113.48 217.71,113.29 217.7,109.96 217.7,109.77 217.69,106.45 217.69,106.25 217.68,102.93 
						217.68,102.73 217.67,99.41 217.67,99.31 					"/>
				</g>
				<g>
					<polygon class="st4" points="183.4,161.29 183.39,157.97 189.02,154.72 189.03,158.04 					"/>
				</g>
				<g>
					<polygon class="st10" points="183.39,157.97 183.39,157.77 189.02,154.52 189.02,154.72 					"/>
				</g>
				<g>
					<polygon class="st4" points="189.13,150.93 189.12,147.61 194.75,144.36 194.76,147.69 					"/>
				</g>
				<g>
					<polygon class="st4" points="194.87,140.57 194.86,137.25 200.48,134.01 200.49,137.32 					"/>
				</g>
				<g>
					<polygon class="st4" points="200.6,130.21 200.59,126.89 206.21,123.64 206.22,126.96 					"/>
				</g>
				<g>
					<polygon class="st10" points="200.59,126.89 200.59,126.7 206.21,123.45 206.21,123.64 					"/>
				</g>
				<g>
					<polygon class="st4" points="206.33,119.86 206.32,116.53 211.95,113.28 211.96,116.61 					"/>
				</g>
				<g>
					<polygon class="st10" points="206.32,116.53 206.32,116.34 211.95,113.09 211.95,113.28 					"/>
				</g>
				<g>
					<polygon class="st4" points="212.06,109.5 212.05,106.18 217.68,102.93 217.69,106.25 					"/>
				</g>
				<g>
					<polygon class="st4" points="183.39,157.77 183.38,154.45 189.01,151.2 189.02,154.52 					"/>
				</g>
				<g>
					<polygon class="st4" points="189.12,147.41 189.11,144.09 194.74,140.84 194.75,144.16 					"/>
				</g>
				<g>
					<polygon class="st10" points="189.11,144.09 189.11,143.89 194.74,140.64 194.74,140.84 					"/>
				</g>
				<g>
					<polygon class="st4" points="194.86,137.06 194.85,133.73 200.47,130.48 200.48,133.81 					"/>
				</g>
				<g>
					<polygon class="st10" points="194.85,133.73 194.85,133.53 200.47,130.29 200.47,130.48 					"/>
				</g>
				<g>
					<polygon class="st4" points="200.59,126.7 200.58,123.37 206.2,120.13 206.21,123.45 					"/>
				</g>
				<g>
					<polygon class="st4" points="212.05,105.98 212.04,102.65 217.67,99.41 217.68,102.73 					"/>
				</g>
				<g>
					<polygon class="st10" points="212.04,102.65 212.04,102.56 217.67,99.31 217.67,99.41 					"/>
				</g>
				<g>
					<polygon class="st4" points="177.65,164.61 177.64,161.29 183.26,158.04 183.27,161.36 					"/>
				</g>
				<g>
					<polygon class="st10" points="177.64,161.29 177.64,161.09 183.26,157.84 183.26,158.04 					"/>
				</g>
				<g>
					<polygon class="st4" points="183.38,154.25 183.37,150.93 189,147.68 189.01,151.01 					"/>
				</g>
				<g>
					<polygon class="st4" points="189.11,143.89 189.1,140.57 194.73,137.33 194.74,140.64 					"/>
				</g>
				<g>
					<polygon class="st4" points="194.85,133.53 194.84,130.21 200.46,126.96 200.47,130.29 					"/>
				</g>
				<g>
					<polygon class="st4" points="200.58,123.18 200.57,119.85 206.19,116.61 206.2,119.93 					"/>
				</g>
				<g>
					<polygon class="st10" points="200.57,119.85 200.57,119.66 206.19,116.41 206.19,116.61 					"/>
				</g>
				<g>
					<polygon class="st4" points="206.31,112.82 206.3,109.5 211.93,106.25 211.94,109.57 					"/>
				</g>
				<g>
					<polygon class="st10" points="206.3,109.5 206.3,109.3 211.93,106.05 211.93,106.25 					"/>
				</g>
				<g>
					<polygon class="st10" points="177.63,157.77 177.63,157.58 183.25,154.33 183.25,154.52 					"/>
				</g>
				<g>
					<polygon class="st4" points="183.37,150.73 183.36,147.41 188.99,144.16 189,147.49 					"/>
				</g>
				<g>
					<polygon class="st4" points="189.1,140.38 189.09,137.05 194.72,133.81 194.73,137.13 					"/>
				</g>
				<g>
					<polygon class="st4" points="194.84,130.02 194.83,126.7 200.45,123.45 200.46,126.77 					"/>
				</g>
				<g>
					<polygon class="st10" points="194.83,126.7 194.83,126.5 200.45,123.25 200.45,123.45 					"/>
				</g>
				<g>
					<polygon class="st4" points="200.57,119.66 200.56,116.34 206.18,113.09 206.19,116.41 					"/>
				</g>
				<g>
					<polygon class="st10" points="200.56,116.34 200.56,116.14 206.18,112.89 206.18,113.09 					"/>
				</g>
				<g>
					<polygon class="st4" points="206.3,109.3 206.29,105.97 211.92,102.73 211.93,106.05 					"/>
				</g>
				<g>
					<polygon class="st10" points="206.29,105.97 206.29,105.88 211.92,102.63 211.92,102.73 					"/>
				</g>
				<g>
					<polygon class="st10" points="206.29,105.88 206.29,105.97 206.3,109.3 206.3,109.5 206.31,112.82 206.31,113.02 
						206.32,116.34 206.32,116.53 206.33,119.86 206.33,120.05 206.34,123.38 206.34,123.57 206.35,126.89 206.35,127.09 
						206.36,130.41 206.36,130.61 206.37,133.93 206.37,134.12 206.38,137.45 206.38,137.65 206.39,140.97 206.39,141.16 
						206.4,144.48 206.4,144.68 206.41,148.01 206.41,148.1 206.28,148.17 206.28,148.08 206.27,144.76 206.27,144.56 
						206.26,141.23 206.26,141.04 206.25,137.72 206.25,137.52 206.24,134.2 206.24,134 206.23,130.68 206.23,130.49 206.22,127.16 
						206.22,126.96 206.21,123.64 206.21,123.45 206.2,120.13 206.2,119.93 206.19,116.61 206.19,116.41 206.18,113.09 
						206.18,112.89 206.17,109.57 206.17,109.37 206.16,106.05 206.16,105.95 					"/>
				</g>
				<g>
					<polygon class="st4" points="171.9,167.93 171.89,164.61 177.51,161.36 177.52,164.69 					"/>
				</g>
				<g>
					<polygon class="st4" points="177.63,157.58 177.62,154.25 183.24,151.01 183.25,154.33 					"/>
				</g>
				<g>
					<polygon class="st10" points="177.62,154.25 177.62,154.05 183.24,150.81 183.24,151.01 					"/>
				</g>
				<g>
					<polygon class="st4" points="183.36,147.21 183.35,143.9 188.98,140.65 188.99,143.96 					"/>
				</g>
				<g>
					<polygon class="st4" points="189.09,136.85 189.08,133.53 194.71,130.28 194.72,133.61 					"/>
				</g>
				<g>
					<polygon class="st10" points="189.08,133.53 189.08,133.34 194.71,130.09 194.71,130.28 					"/>
				</g>
				<g>
					<polygon class="st4" points="194.83,126.5 194.82,123.17 200.44,119.93 200.45,123.25 					"/>
				</g>
				<g>
					<polygon class="st4" points="200.56,116.14 200.55,112.82 206.17,109.57 206.18,112.89 					"/>
				</g>
				<g>
					<polygon class="st4" points="171.89,164.41 171.88,161.09 177.5,157.84 177.51,161.16 					"/>
				</g>
				<g>
					<polygon class="st10" points="171.88,161.09 171.88,160.9 177.5,157.65 177.5,157.84 					"/>
				</g>
				<g>
					<polygon class="st4" points="177.62,154.05 177.61,150.73 183.23,147.48 183.24,150.81 					"/>
				</g>
				<g>
					<polygon class="st10" points="183.34,140.37 183.34,140.18 188.97,136.93 188.97,137.13 					"/>
				</g>
				<g>
					<polygon class="st4" points="189.08,133.34 189.07,130.02 194.7,126.77 194.71,130.09 					"/>
				</g>
				<g>
					<polygon class="st10" points="189.07,130.02 189.07,129.82 194.7,126.57 194.7,126.77 					"/>
				</g>
				<g>
					<polygon class="st10" points="194.81,119.66 194.81,119.46 200.43,116.21 200.43,116.41 					"/>
				</g>
				<g>
					<polygon class="st4" points="200.55,112.62 200.54,109.3 206.16,106.05 206.17,109.37 					"/>
				</g>
				<g>
					<polygon class="st10" points="200.54,109.3 200.54,109.2 206.16,105.95 206.16,106.05 					"/>
				</g>
				<g>
					<polygon class="st10" points="200.54,109.2 200.54,109.3 200.55,112.62 200.55,112.82 200.56,116.14 200.56,116.34 
						200.57,119.66 200.57,119.85 200.58,123.18 200.58,123.37 200.59,126.7 200.59,126.89 200.6,130.21 200.6,130.41 
						200.61,133.73 200.61,133.93 200.62,137.25 200.62,137.45 200.63,140.77 200.63,140.97 200.64,144.29 200.64,144.48 
						200.65,147.81 200.65,148 200.66,151.33 200.66,151.42 200.53,151.5 200.53,151.4 200.52,148.08 200.52,147.88 200.51,144.56 
						200.51,144.36 200.5,141.04 200.5,140.84 200.49,137.52 200.49,137.32 200.48,134.01 200.48,133.81 200.47,130.48 
						200.47,130.29 200.46,126.96 200.46,126.77 200.45,123.45 200.45,123.25 200.44,119.93 200.44,119.74 200.43,116.41 
						200.43,116.21 200.42,112.89 200.42,112.69 200.41,109.37 200.41,109.27 					"/>
				</g>
				<g>
					<polygon class="st4" points="166.14,171.26 166.13,167.93 171.75,164.69 171.76,168.01 					"/>
				</g>
				<g>
					<polygon class="st10" points="166.13,167.93 166.13,167.74 171.75,164.49 171.75,164.69 					"/>
				</g>
				<g>
					<polygon class="st4" points="171.88,160.9 171.87,157.57 177.49,154.33 177.5,157.65 					"/>
				</g>
				<g>
					<polygon class="st4" points="177.61,150.53 177.6,147.22 183.22,143.97 183.23,147.29 					"/>
				</g>
				<g>
					<polygon class="st4" points="183.34,140.18 183.33,136.85 188.96,133.61 188.97,136.93 					"/>
				</g>
				<g>
					<polygon class="st10" points="183.33,136.85 183.33,136.66 188.96,133.41 188.96,133.61 					"/>
				</g>
				<g>
					<polygon class="st4" points="189.07,129.82 189.06,126.5 194.69,123.25 194.7,126.57 					"/>
				</g>
				<g>
					<polygon class="st10" points="189.06,126.5 189.06,126.4 194.69,123.15 194.69,123.25 					"/>
				</g>
				<g>
					<polygon class="st4" points="194.81,119.46 194.8,116.14 200.42,112.89 200.43,116.21 					"/>
				</g>
				<g>
					<polygon class="st10" points="194.8,116.14 194.8,115.94 200.42,112.69 200.42,112.89 					"/>
				</g>
				<g>
					<polygon class="st4" points="166.13,167.74 166.12,164.41 171.74,161.17 171.75,164.49 					"/>
				</g>
				<g>
					<polygon class="st10" points="223.56,95.91 223.56,96.01 223.57,99.33 223.57,99.53 223.58,102.85 223.58,103.05 
						223.59,106.37 223.59,106.56 223.59,109.89 223.6,110.09 223.6,113.41 223.61,113.6 223.61,116.92 223.62,117.12 
						223.62,120.45 223.63,120.64 223.63,123.96 223.64,124.16 223.64,127.48 223.65,127.68 223.65,131 223.66,131.19 
						223.66,134.52 223.67,134.71 223.67,138.04 223.68,138.13 223.55,138.21 223.55,138.11 223.54,134.79 223.54,134.59 
						223.53,131.27 223.53,131.08 223.52,127.75 223.52,127.55 223.51,124.23 223.51,124.14 223.56,120.58 223.5,120.52 
						223.49,117.2 223.49,117 223.48,113.67 223.48,113.48 223.47,110.16 223.47,109.96 223.46,106.64 223.46,106.45 223.45,103.12 
						223.45,102.93 223.44,99.6 223.44,99.4 223.43,96.08 223.43,95.99 					"/>
				</g>
				<g>
					<polygon class="st10" points="212.04,102.56 212.04,102.65 212.05,105.98 212.05,106.18 212.06,109.5 212.06,109.7 
						212.07,113.02 212.07,113.21 212.08,116.53 212.08,116.73 212.09,120.06 212.09,120.25 212.1,123.57 212.1,123.77 
						212.11,127.09 212.11,127.29 212.12,130.61 212.12,130.8 212.13,134.13 212.13,134.33 212.14,137.65 212.14,137.84 
						212.15,141.16 212.15,141.36 212.16,144.68 212.16,144.78 212.04,144.85 212.04,144.76 212.03,141.43 212.03,141.24 
						212.02,137.91 212.02,137.72 212.01,134.4 212.01,134.2 212,130.88 212,130.68 211.99,127.36 211.99,127.17 211.98,123.84 
						211.98,123.64 211.97,120.32 211.97,120.13 211.96,116.81 211.96,116.61 211.95,113.28 211.95,113.09 211.94,109.77 
						211.94,109.57 211.93,106.25 211.93,106.05 211.92,102.73 211.92,102.63 					"/>
				</g>
				<g>
					<polygon class="st10" points="194.79,112.52 194.79,112.62 194.8,115.94 194.8,116.14 194.81,119.46 194.81,119.66 
						194.82,122.98 194.82,123.17 194.83,126.5 194.83,126.7 194.84,130.02 194.84,130.21 194.85,133.53 194.85,133.73 
						194.86,137.06 194.86,137.25 194.87,140.57 194.87,140.77 194.88,144.09 194.88,144.29 194.89,147.61 194.89,147.8 
						194.9,151.13 194.9,151.32 194.91,154.65 194.91,154.74 194.78,154.82 194.78,154.72 194.77,151.4 194.77,151.2 194.76,147.88 
						194.76,147.69 194.75,144.36 194.75,144.16 194.74,140.84 194.74,140.64 194.73,137.33 194.73,137.13 194.72,133.81 
						194.72,133.61 194.71,130.28 194.71,130.09 194.7,126.77 194.7,126.57 194.69,123.25 194.69,123.15 194.74,119.59 
						194.68,119.54 194.67,116.21 194.67,116.01 194.66,112.69 194.66,112.6 					"/>
				</g>
				<g>
					<polygon class="st10" points="189.05,122.88 189.05,122.78 194.68,119.54 194.68,119.63 					"/>
				</g>
				<g>
					<polygon class="st10" points="189.03,115.84 189.03,115.94 189.04,119.26 189.04,119.46 189.05,122.78 189.05,122.88 
						189,126.44 189.06,126.5 189.07,129.82 189.07,130.02 189.08,133.34 189.08,133.53 189.09,136.85 189.09,137.05 189.1,140.38 
						189.1,140.57 189.11,143.89 189.11,144.09 189.12,147.41 189.12,147.61 189.13,150.93 189.13,151.12 189.14,154.45 
						189.14,154.65 189.15,157.97 189.15,158.06 189.03,158.14 189.03,158.04 189.02,154.72 189.02,154.52 189.01,151.2 
						189.01,151.01 189,147.68 189,147.49 188.99,144.16 188.99,143.96 188.98,140.65 188.98,140.45 188.97,137.13 188.97,136.93 
						188.96,133.61 188.96,133.41 188.95,130.09 188.95,129.89 188.94,126.57 188.94,126.38 188.93,123.06 188.93,122.86 
						188.92,119.53 188.92,119.34 188.91,116.01 188.91,115.92 					"/>
				</g>
				<g>
					<polygon class="st10" points="183.28,119.16 183.28,119.26 183.29,122.58 183.29,122.78 183.3,126.1 183.3,126.3 
						183.31,129.63 183.31,129.82 183.32,133.14 183.32,133.34 183.33,136.66 183.33,136.85 183.34,140.18 183.34,140.37 
						183.35,143.7 183.35,143.9 183.36,147.21 183.36,147.41 183.37,150.73 183.37,150.93 183.38,154.25 183.38,154.45 
						183.39,157.77 183.39,157.97 183.4,161.29 183.4,161.39 183.27,161.46 183.27,161.36 183.26,158.04 183.26,157.84 
						183.25,154.52 183.25,154.33 183.24,151.01 183.24,150.81 183.23,147.48 183.23,147.29 183.22,143.97 183.22,143.77 
						183.21,140.45 183.21,140.25 183.2,136.93 183.2,136.74 183.19,133.41 183.19,133.31 183.25,129.76 183.18,129.7 
						183.17,126.38 183.17,126.18 183.16,122.86 183.16,122.66 183.15,119.33 183.15,119.24 					"/>
				</g>
				<g>
					<polygon class="st10" points="177.56,133.04 177.56,132.95 183.18,129.7 183.18,129.8 					"/>
				</g>
				<g>
					<polygon class="st10" points="177.53,122.49 177.53,122.58 177.54,125.9 177.54,126.1 177.55,129.43 177.55,129.62 
						177.56,132.95 177.56,133.04 177.5,136.59 177.57,136.66 177.58,139.98 177.58,140.17 177.59,143.5 177.59,143.7 177.6,147.02 
						177.6,147.22 177.61,150.53 177.61,150.73 177.62,154.05 177.62,154.25 177.63,157.58 177.63,157.77 177.64,161.09 
						177.64,161.29 177.65,164.61 177.65,164.71 177.52,164.78 177.52,164.69 177.51,161.36 177.51,161.16 177.5,157.84 
						177.5,157.65 177.49,154.33 177.49,154.13 177.48,150.8 177.48,150.61 177.47,147.29 177.47,147.09 177.46,143.77 
						177.46,143.57 177.45,140.25 177.45,140.06 177.44,136.73 177.44,136.54 177.43,133.21 177.43,133.02 177.42,129.7 
						177.42,129.5 177.41,126.18 177.41,125.98 177.4,122.65 177.4,122.56 					"/>
				</g>
				<g>
					<polygon class="st10" points="171.78,125.81 171.78,125.9 171.79,129.23 171.79,129.42 171.8,132.75 171.8,132.95 
						171.81,136.27 171.81,136.46 171.82,139.78 171.82,139.98 171.83,143.3 171.83,143.5 171.84,146.82 171.84,147.02 
						171.85,150.34 171.85,150.54 171.86,153.85 171.86,154.05 171.87,157.38 171.87,157.57 171.88,160.9 171.88,161.09 
						171.89,164.41 171.89,164.61 171.9,167.93 171.9,168.03 171.76,168.11 171.76,168.01 171.75,164.69 171.75,164.49 
						171.74,161.17 171.74,160.97 171.73,157.65 171.73,157.45 171.72,154.13 171.72,153.93 171.71,150.62 171.71,150.42 
						171.7,147.09 171.7,146.9 171.69,143.57 171.69,143.38 171.68,140.06 171.68,139.86 171.67,136.54 171.67,136.35 
						171.66,133.02 171.66,132.82 171.65,129.5 171.65,129.3 171.64,125.98 171.64,125.88 					"/>
				</g>
				<g>
					<polygon class="st10" points="229.3,134.79 223.55,138.11 217.79,141.44 212.04,144.76 206.28,148.08 200.53,151.4 
						194.78,154.72 189.03,158.04 183.27,161.36 177.52,164.69 171.76,168.01 166.09,171.48 235.35,131.3 					"/>
				</g>
				<g>
					<polygon class="st10" points="166.12,164.41 166.12,164.22 171.74,160.97 171.74,161.17 					"/>
				</g>
				<g>
					<polygon class="st4" points="171.87,157.38 171.86,154.05 177.48,150.8 177.49,154.13 					"/>
				</g>
				<g>
					<polygon class="st4" points="177.6,147.02 177.59,143.7 183.21,140.45 183.22,143.77 					"/>
				</g>
				<g>
					<polygon class="st4" points="183.33,136.66 183.32,133.34 188.95,130.09 188.96,133.41 					"/>
				</g>
				<g>
					<polygon class="st11" points="194.74,119.59 194.75,123.12 194.69,123.15 189.06,126.4 189,126.44 188.99,122.92 
						189.05,122.88 194.68,119.63 					"/>
				</g>
				<g>
					<polygon class="st4" points="194.8,115.94 194.79,112.62 200.41,109.37 200.42,112.69 					"/>
				</g>
				<g>
					<polygon class="st10" points="194.79,112.62 194.79,112.52 200.41,109.27 200.41,109.37 					"/>
				</g>
				<g>
					<polygon class="st10" points="166.11,160.9 166.11,160.7 171.73,157.45 171.73,157.65 					"/>
				</g>
				<g>
					<polygon class="st4" points="171.86,153.85 171.85,150.54 177.47,147.29 177.48,150.61 					"/>
				</g>
				<g>
					<polygon class="st4" points="177.59,143.5 177.58,140.17 183.2,136.93 183.21,140.25 					"/>
				</g>
				<g>
					<polygon class="st4" points="183.32,133.14 183.31,129.82 188.94,126.57 188.95,129.89 					"/>
				</g>
				<g>
					<polygon class="st4" points="189.05,122.78 189.04,119.46 194.67,116.21 194.68,119.54 					"/>
				</g>
				<g>
					<polygon class="st4" points="166.11,160.7 166.1,157.38 171.72,154.13 171.73,157.45 					"/>
				</g>
				<g>
					<polygon class="st4" points="171.85,150.34 171.84,147.02 177.46,143.77 177.47,147.09 					"/>
				</g>
				<g>
					<polygon class="st10" points="171.84,147.02 171.84,146.82 177.46,143.57 177.46,143.77 					"/>
				</g>
				<g>
					<polygon class="st4" points="177.58,139.98 177.57,136.66 183.19,133.41 183.2,136.74 					"/>
				</g>
				<g>
					<polygon class="st10" points="177.57,136.66 177.57,136.56 183.19,133.31 183.19,133.41 					"/>
				</g>
				<g>
					<polygon class="st4" points="183.31,129.63 183.3,126.3 188.93,123.06 188.94,126.38 					"/>
				</g>
				<g>
					<polygon class="st10" points="183.3,126.3 183.3,126.1 188.93,122.86 188.93,123.06 					"/>
				</g>
				<g>
					<polygon class="st4" points="189.04,119.26 189.03,115.94 194.66,112.69 194.67,116.01 					"/>
				</g>
				<g>
					<polygon class="st10" points="189.03,115.94 189.03,115.84 194.66,112.6 194.66,112.69 					"/>
				</g>
				<g>
					<polygon class="st4" points="166.1,157.18 166.09,153.86 171.71,150.62 171.72,153.93 					"/>
				</g>
				<g>
					<polygon class="st4" points="171.84,146.82 171.83,143.5 177.45,140.25 177.46,143.57 					"/>
				</g>
				<g>
					<polygon class="st10" points="171.83,143.5 171.83,143.3 177.45,140.06 177.45,140.25 					"/>
				</g>
				<g>
					<polygon class="st11" points="183.25,129.76 183.26,133.27 183.19,133.31 177.57,136.56 177.5,136.59 177.49,133.08 
						177.56,133.04 183.18,129.8 					"/>
				</g>
				<g>
					<polygon class="st4" points="183.3,126.1 183.29,122.78 188.92,119.53 188.93,122.86 					"/>
				</g>
				<g>
					<polygon class="st4" points="166.09,153.67 166.08,150.34 171.7,147.09 171.71,150.42 					"/>
				</g>
				<g>
					<polygon class="st10" points="166.08,150.34 166.08,150.14 171.7,146.9 171.7,147.09 					"/>
				</g>
				<g>
					<polygon class="st10" points="171.82,139.98 171.82,139.78 177.44,136.54 177.44,136.73 					"/>
				</g>
				<g>
					<polygon class="st4" points="177.56,132.95 177.55,129.62 183.17,126.38 183.18,129.7 					"/>
				</g>
				<g>
					<polygon class="st4" points="183.29,122.58 183.28,119.26 188.91,116.01 188.92,119.34 					"/>
				</g>
				<g>
					<polygon class="st10" points="183.28,119.26 183.28,119.16 188.91,115.92 188.91,116.01 					"/>
				</g>
				<g>
					<polygon class="st4" points="166.08,150.14 166.07,146.82 171.69,143.57 171.7,146.9 					"/>
				</g>
				<g>
					<polygon class="st10" points="166.07,146.82 166.07,146.63 171.69,143.38 171.69,143.57 					"/>
				</g>
				<g>
					<polygon class="st4" points="171.82,139.78 171.81,136.46 177.43,133.21 177.44,136.54 					"/>
				</g>
				<g>
					<polygon class="st4" points="177.55,129.43 177.54,126.1 183.16,122.86 183.17,126.18 					"/>
				</g>
				<g>
					<polygon class="st4" points="166.07,146.63 166.06,143.31 171.68,140.06 171.69,143.38 					"/>
				</g>
				<g>
					<polygon class="st10" points="166.06,143.31 166.06,143.11 171.68,139.86 171.68,140.06 					"/>
				</g>
				<g>
					<polygon class="st4" points="171.81,136.27 171.8,132.95 177.42,129.7 177.43,133.02 					"/>
				</g>
				<g>
					<polygon class="st10" points="171.8,132.95 171.8,132.75 177.42,129.5 177.42,129.7 					"/>
				</g>
				<g>
					<polygon class="st4" points="177.54,125.9 177.53,122.58 183.15,119.33 183.16,122.66 					"/>
				</g>
				<g>
					<polygon class="st10" points="177.53,122.58 177.53,122.49 183.15,119.24 183.15,119.33 					"/>
				</g>
				<g>
					<polygon class="st4" points="166.06,143.11 166.05,139.78 171.67,136.54 171.68,139.86 					"/>
				</g>
				<g>
					<polygon class="st4" points="171.8,132.75 171.79,129.42 177.41,126.18 177.42,129.5 					"/>
				</g>
				<g>
					<polygon class="st4" points="166.05,139.59 166.04,136.27 171.66,133.02 171.67,136.35 					"/>
				</g>
				<g>
					<polygon class="st4" points="166.04,136.07 166.03,132.75 171.65,129.5 171.66,132.82 					"/>
				</g>
				<g>
					<polygon class="st10" points="166.03,132.75 166.03,132.55 171.65,129.3 171.65,129.5 					"/>
				</g>
				<g>
					<polygon class="st4" points="166.03,132.55 166.02,129.23 171.64,125.98 171.65,129.3 					"/>
				</g>
				<g>
					<polygon class="st10" points="166.02,129.23 166.02,129.13 171.64,125.88 171.64,125.98 					"/>
				</g>
				<g>
					<polygon class="st10" points="165.88,125.68 165.95,129.17 166.03,132.55 166.03,132.75 166.04,136.07 166.04,136.27 
						166.05,139.59 166.05,139.78 166.06,143.11 166.06,143.31 166.07,146.63 166.07,146.82 166.08,150.14 166.08,150.34 
						166.09,153.66 166.09,153.86 166.1,157.18 166.1,157.38 166.11,160.7 166.11,160.9 166.12,164.22 166.12,164.41 166.13,167.74 
						166.13,167.93 166.14,171.26 					"/>
				</g>
				<g>
					<path class="st4" d="M238.43,79.91l-75.63,43.66l0.15,53.54l75.63-43.66L238.43,79.91z M166.09,171.48l2.82-1.72l-2.9,1.67
						l-0.05-45.89l69.4-39.97l0.06,45.89l-45.69,26.31L166.09,171.48"/>
				</g>
				<g>
					<path class="st4" d="M235.34,131.3l0.01-0.01v0L235.34,131.3z M235.35,131.3l-0.01-3.32l-5.92,3.42l0.01,3.32L235.35,131.3z"/>
				</g>
				<g>
					<polygon class="st10" points="229.41,127.68 235.33,124.26 235.33,124.45 229.41,127.87 					"/>
				</g>
				<g>
					<polygon class="st10" points="223.67,134.71 223.66,134.52 229.29,131.27 229.29,131.47 					"/>
				</g>
				<g>
					<polygon class="st10" points="229.39,120.64 235.31,117.22 235.31,117.42 229.39,120.84 					"/>
				</g>
				<g>
					<polygon class="st10" points="229.38,117.12 235.3,113.7 235.3,113.9 229.38,117.32 					"/>
				</g>
				<g>
					<polygon class="st10" points="217.9,134.51 217.9,134.32 223.53,131.08 223.53,131.27 					"/>
				</g>
				<g>
					<polygon class="st10" points="223.64,124.16 223.63,123.96 229.26,120.71 229.26,120.91 					"/>
				</g>
				<g>
					<polygon class="st10" points="229.37,113.6 235.29,110.18 235.29,110.38 229.37,113.8 					"/>
				</g>
				<g>
					<polygon class="st10" points="212.15,141.36 212.15,141.16 217.78,137.92 217.78,138.11 					"/>
				</g>
				<g>
					<polygon class="st10" points="212.14,137.84 212.14,137.65 217.77,134.4 217.77,134.59 					"/>
				</g>
				<g>
					<polygon class="st10" points="223.62,117.12 223.61,116.92 229.24,113.68 229.24,113.87 					"/>
				</g>
				<g>
					<polygon class="st10" points="212.13,134.33 212.13,134.13 217.76,130.88 217.76,131.08 					"/>
				</g>
				<g>
					<polygon class="st11" points="223.56,120.58 223.57,124.1 223.51,124.14 217.88,127.38 217.81,127.42 217.8,123.9 
						217.87,123.86 223.5,120.61 					"/>
				</g>
				<g>
					<polygon class="st10" points="217.87,123.86 217.87,123.77 223.5,120.52 223.5,120.61 					"/>
				</g>
				<g>
					<polygon class="st10" points="217.86,120.44 217.86,120.24 223.49,117 223.49,117.2 					"/>
				</g>
				<g>
					<polygon class="st4" points="200.66,151.33 200.65,148 206.27,144.76 206.28,148.08 					"/>
				</g>
				<g>
					<polygon class="st10" points="200.65,148 200.65,147.81 206.27,144.56 206.27,144.76 					"/>
				</g>
				<g>
					<polygon class="st10" points="206.38,137.65 206.38,137.45 212.01,134.2 212.01,134.4 					"/>
				</g>
				<g>
					<polygon class="st4" points="212.12,130.61 212.11,127.29 217.74,124.04 217.75,127.36 					"/>
				</g>
				<g>
					<polygon class="st10" points="223.59,106.56 223.59,106.37 229.21,103.13 229.21,103.32 					"/>
				</g>
				<g>
					<polygon class="st10" points="229.32,96.01 235.24,92.59 235.24,92.79 229.32,96.21 					"/>
				</g>
				<g>
					<polygon class="st10" points="200.64,144.48 200.64,144.29 206.26,141.04 206.26,141.23 					"/>
				</g>
				<g>
					<polygon class="st10" points="206.37,134.12 206.37,133.93 212,130.68 212,130.88 					"/>
				</g>
				<g>
					<polygon class="st10" points="217.84,113.41 217.84,113.21 223.47,109.96 223.47,110.16 					"/>
				</g>
				<g>
					<polygon class="st10" points="223.58,103.05 223.58,102.85 229.2,99.6 229.2,99.8 					"/>
				</g>
				<g>
					<polygon class="st10" points="229.31,92.59 229.31,92.69 229.32,96.01 229.32,96.21 229.33,99.53 229.33,99.73 229.34,103.05 
						229.34,103.24 229.35,106.57 229.35,106.76 229.36,110.09 229.36,110.28 229.37,113.6 229.37,113.8 229.38,117.12 
						229.38,117.32 229.39,120.64 229.39,120.84 229.4,124.16 229.4,124.36 229.41,127.68 229.41,127.87 229.42,131.2 
						229.42,131.39 229.43,134.72 229.43,134.81 229.3,134.89 229.3,134.79 229.29,131.47 229.29,131.27 229.28,127.95 
						229.28,127.75 229.27,124.43 229.27,124.23 229.26,120.91 229.26,120.71 229.25,117.4 229.25,117.2 229.24,113.87 
						229.24,113.68 229.23,110.35 229.23,110.16 229.22,106.84 229.22,106.64 229.21,103.32 229.21,103.13 229.2,99.8 229.2,99.6 
						229.19,96.28 229.19,96.08 229.18,92.76 229.18,92.66 					"/>
				</g>
				<g>
					<polygon class="st10" points="194.9,151.32 194.9,151.13 200.52,147.88 200.52,148.08 					"/>
				</g>
				<g>
					<polygon class="st4" points="200.64,144.29 200.63,140.97 206.25,137.72 206.26,141.04 					"/>
				</g>
				<g>
					<polygon class="st10" points="206.36,130.61 206.36,130.41 211.99,127.17 211.99,127.36 					"/>
				</g>
				<g>
					<polygon class="st10" points="212.09,120.25 212.09,120.06 217.72,116.81 217.72,117 					"/>
				</g>
				<g>
					<polygon class="st10" points="200.62,137.45 200.62,137.25 206.24,134 206.24,134.2 					"/>
				</g>
				<g>
					<polygon class="st10" points="212.08,116.73 212.08,116.53 217.71,113.29 217.71,113.48 					"/>
				</g>
				<g>
					<polygon class="st10" points="217.82,106.37 217.82,106.17 223.45,102.93 223.45,103.12 					"/>
				</g>
				<g>
					<polygon class="st10" points="223.56,96.01 223.56,95.91 229.18,92.66 229.18,92.76 					"/>
				</g>
				<g>
					<polygon class="st4" points="189.15,157.97 189.14,154.65 194.77,151.4 194.78,154.72 					"/>
				</g>
				<g>
					<path class="st6" d="M234.96,76.2c0.77-0.45,1.41-0.08,1.41,0.81c0,0.89-0.63,1.98-1.4,2.42c-0.78,0.45-1.41,0.08-1.41-0.8
						C233.56,77.73,234.18,76.65,234.96,76.2z"/>
				</g>
				<g>
					<polygon class="st10" points="194.88,144.29 194.88,144.09 200.5,140.84 200.5,141.04 					"/>
				</g>
				<g>
					<polygon class="st10" points="200.61,133.93 200.61,133.73 206.23,130.49 206.23,130.68 					"/>
				</g>
				<g>
					<polygon class="st10" points="189.13,151.12 189.13,150.93 194.76,147.69 194.76,147.88 					"/>
				</g>
				<g>
					<polygon class="st10" points="194.87,140.77 194.87,140.57 200.49,137.32 200.49,137.52 					"/>
				</g>
				<g>
					<path class="st5" d="M231.14,78.4c0.78-0.45,1.41-0.08,1.41,0.81c0,0.89-0.62,1.98-1.4,2.42c-0.77,0.45-1.41,0.08-1.41-0.8
						C229.73,79.94,230.36,78.85,231.14,78.4z"/>
				</g>
				<g>
					<polygon class="st10" points="217.8,99.33 217.8,99.23 223.43,95.99 223.43,96.08 					"/>
				</g>
				<g>
					<polygon class="st10" points="189.12,147.61 189.12,147.41 194.75,144.16 194.75,144.36 					"/>
				</g>
				<g>
					<path class="st3" d="M227.31,80.61c0.78-0.45,1.41-0.09,1.42,0.81c0,0.89-0.63,1.98-1.41,2.43c-0.77,0.45-1.4,0.08-1.4-0.81
						C225.91,82.15,226.54,81.06,227.31,80.61z"/>
				</g>
				<g>
					<polygon class="st10" points="212.05,106.18 212.05,105.98 217.68,102.73 217.68,102.93 					"/>
				</g>
				<g>
					<polygon class="st10" points="183.38,154.45 183.38,154.25 189.01,151.01 189.01,151.2 					"/>
				</g>
				<g>
					<polygon class="st10" points="200.58,123.37 200.58,123.18 206.2,119.93 206.2,120.13 					"/>
				</g>
				<g>
					<polygon class="st4" points="206.32,116.34 206.31,113.02 211.94,109.77 211.95,113.09 					"/>
				</g>
				<g>
					<polygon class="st10" points="206.31,113.02 206.31,112.82 211.94,109.57 211.94,109.77 					"/>
				</g>
				<g>
					<polygon class="st10" points="189.1,140.57 189.1,140.38 194.73,137.13 194.73,137.33 					"/>
				</g>
				<g>
					<polygon class="st4" points="177.64,161.09 177.63,157.77 183.25,154.52 183.26,157.84 					"/>
				</g>
				<g>
					<polygon class="st10" points="189.09,137.05 189.09,136.85 194.72,133.61 194.72,133.81 					"/>
				</g>
				<g>
					<polygon class="st10" points="171.89,164.61 171.89,164.41 177.51,161.16 177.51,161.36 					"/>
				</g>
				<g>
					<polygon class="st10" points="194.82,123.17 194.82,122.98 200.44,119.74 200.44,119.93 					"/>
				</g>
				<g>
					<polygon class="st10" points="200.55,112.82 200.55,112.62 206.17,109.37 206.17,109.57 					"/>
				</g>
				<g>
					<polygon class="st10" points="177.61,150.73 177.61,150.53 183.23,147.29 183.23,147.48 					"/>
				</g>
				<g>
					<polygon class="st4" points="194.82,122.98 194.81,119.66 200.43,116.41 200.44,119.74 					"/>
				</g>
				<g>
					<polygon class="st10" points="177.6,147.22 177.6,147.02 183.22,143.77 183.22,143.97 					"/>
				</g>
				<g>
					<polygon class="st10" points="171.86,154.05 171.86,153.85 177.48,150.61 177.48,150.8 					"/>
				</g>
				<g>
					<polygon class="st10" points="177.59,143.7 177.59,143.5 183.21,140.25 183.21,140.45 					"/>
				</g>
				<g>
					<polygon class="st10" points="183.32,133.34 183.32,133.14 188.95,129.89 188.95,130.09 					"/>
				</g>
				<g>
					<polygon class="st4" points="166.12,164.22 166.11,160.9 171.73,157.65 171.74,160.97 					"/>
				</g>
				<g>
					<polygon class="st10" points="171.85,150.54 171.85,150.34 177.47,147.09 177.47,147.29 					"/>
				</g>
				<g>
					<polygon class="st10" points="177.58,140.17 177.58,139.98 183.2,136.74 183.2,136.93 					"/>
				</g>
				<g>
					<polygon class="st10" points="183.31,129.82 183.31,129.63 188.94,126.38 188.94,126.57 					"/>
				</g>
				<g>
					<polygon class="st10" points="189.04,119.46 189.04,119.26 194.67,116.01 194.67,116.21 					"/>
				</g>
				<g>
					<polygon class="st10" points="166.1,157.38 166.1,157.18 171.72,153.93 171.72,154.13 					"/>
				</g>
				<g>
					<polygon class="st10" points="166.09,153.86 166.09,153.67 171.71,150.42 171.71,150.62 					"/>
				</g>
				<g>
					<polygon class="st10" points="183.29,122.78 183.29,122.58 188.92,119.34 188.92,119.53 					"/>
				</g>
				<g>
					<polygon class="st4" points="171.83,143.3 171.82,139.98 177.44,136.73 177.45,140.06 					"/>
				</g>
				<g>
					<polygon class="st10" points="177.55,129.62 177.55,129.43 183.17,126.18 183.17,126.38 					"/>
				</g>
				<g>
					<polygon class="st10" points="171.81,136.46 171.81,136.27 177.43,133.02 177.43,133.21 					"/>
				</g>
				<g>
					<polygon class="st10" points="177.54,126.1 177.54,125.9 183.16,122.66 183.16,122.86 					"/>
				</g>
				<g>
					<polygon class="st10" points="166.05,139.78 166.05,139.59 171.67,136.35 171.67,136.54 					"/>
				</g>
				<g>
					<polygon class="st10" points="171.79,129.42 171.79,129.23 177.41,125.98 177.41,126.18 					"/>
				</g>
				<g>
					<polygon class="st10" points="166.04,136.27 166.04,136.07 171.66,132.82 171.66,133.02 					"/>
				</g>
				<g>
					<polygon class="st4" points="171.79,129.23 171.78,125.9 177.4,122.65 177.41,125.98 					"/>
				</g>
				<g>
					<polygon class="st10" points="171.78,125.9 171.78,125.81 177.4,122.56 177.4,122.65 					"/>
				</g>
				<g>
					<polygon class="st12" points="235.29,85.61 235.3,89.13 229.31,92.59 223.56,95.91 217.8,99.23 212.04,102.56 206.29,105.88 
						200.54,109.2 194.79,112.52 189.03,115.84 183.28,119.16 177.53,122.49 171.78,125.81 166.02,129.13 165.94,125.65 					"/>
				</g>
				<g>
					<polygon class="st0" points="238.43,79.3 238.43,79.91 162.8,123.57 162.8,122.96 					"/>
				</g>
				<g>
					<path class="st1" d="M162.78,115.85l75.63-43.66l0.02,7.11l-75.63,43.66L162.78,115.85z M234.97,79.43
						c0.77-0.45,1.4-1.54,1.4-2.43c0-0.9-0.64-1.26-1.41-0.81c-0.78,0.45-1.4,1.54-1.4,2.43C233.56,79.52,234.19,79.88,234.97,79.43
						 M231.14,81.64c0.78-0.45,1.4-1.54,1.4-2.43c0-0.9-0.63-1.26-1.41-0.81c-0.77,0.45-1.4,1.54-1.4,2.43
						C229.74,81.72,230.37,82.09,231.14,81.64 M227.32,83.85c0.78-0.45,1.41-1.54,1.41-2.43c0-0.9-0.64-1.26-1.42-0.81
						c-0.77,0.45-1.4,1.53-1.39,2.43C225.92,83.93,226.55,84.29,227.32,83.85"/>
				</g>
			</g>
		</g>
	</g>
</g>
<g id="DESIGNED_BY_FREEPIK">
</g>
</svg>
