<?xml version="1.0" encoding="utf-8"?>
<!-- Generator: Adobe Illustrator 24.0.3, SVG Export Plug-In . SVG Version: 6.00 Build 0)  -->
<svg version="1.1" xmlns="http://www.w3.org/2000/svg" xmlns:xlink="http://www.w3.org/1999/xlink" x="0px" y="0px"
	 viewBox="0 0 238.73 198.41" style="enable-background:new 0 0 238.73 198.41;" xml:space="preserve">
<style type="text/css">
	.st0{fill:#272525;}
	.st1{enable-background:new    ;}
	.st2{fill:#C53431;}
	.st3{fill:#47A85A;}
	.st4{fill:#CECFD1;}
	.st5{opacity:0.3098;fill:#E6E6E7;}
	.st6{fill:#AD3D4D;}
	.st7{fill:#E4E4E5;}
	.st8{fill:#696A6C;}
	.st9{fill:#929496;}
	.st10{fill:#AAACAE;}
	.st11{fill:#E1E2E3;}
</style>
<g id="BACKGROUND">
</g>
<g id="OBJECTS">
	<g id="Capa_4">
	</g>
	<g>
		<g>
			<g>
				<path class="st0" d="M98.45,91.95C98.45,91.95,98.45,91.96,98.45,91.95c0,0,0.01,0,0.02-0.01c0,0,0,0-0.01,0
					C98.46,91.95,98.45,91.95,98.45,91.95z"/>
			</g>
			<g class="st1">
				<g>
					<path class="st0" d="M158.58,46.41c0.54-0.31,0.98-0.06,0.99,0.56s-0.44,1.39-0.98,1.7l-37.38,21.58
						c-0.54,0.31-0.98,0.05-0.99-0.57c0,0.62,0.44,0.88,0.99,0.57l6.99-4.04c0.54-0.31,0.99-1.08,0.99-1.71
						c0-0.62-0.45-0.87-0.99-0.56L158.58,46.41z"/>
				</g>
				<g>
					<path class="st2" d="M128.19,63.95c0.54-0.31,0.99-0.07,0.99,0.56c0,0.62-0.44,1.4-0.99,1.71l-6.99,4.04
						c-0.54,0.31-0.98,0.05-0.99-0.57c0-0.62,0.44-1.38,0.98-1.7L128.19,63.95z"/>
				</g>
				<g>
					<path class="st0" d="M158.56,40.91c0.54-0.31,0.98-0.05,0.99,0.57s-0.44,1.39-0.98,1.7l-37.38,21.58
						c-0.54,0.31-0.98,0.05-0.99-0.57c0,0.62,0.44,0.88,0.99,0.57l17.85-10.31c0.54-0.31,0.99-1.08,0.99-1.71s-0.45-0.88-0.99-0.57
						L158.56,40.91z"/>
				</g>
				<g>
					<path class="st2" d="M139.04,52.18c0.54-0.31,0.99-0.06,0.99,0.57s-0.44,1.4-0.99,1.71l-17.85,10.31
						c-0.54,0.31-0.98,0.05-0.99-0.57c0-0.62,0.44-1.39,0.98-1.7L139.04,52.18z"/>
				</g>
				<g>
					<path class="st0" d="M158.55,35.41c0.54-0.31,0.98-0.06,0.99,0.56c0,0.62-0.44,1.39-0.98,1.7l-37.38,21.58
						c-0.54,0.31-0.98,0.05-0.99-0.57c0,0.62,0.44,0.88,0.99,0.57l35.63-20.57c0.54-0.31,0.99-1.08,0.99-1.71
						c0-0.62-0.45-0.87-0.99-0.56L158.55,35.41z"/>
				</g>
				<g>
					<path class="st2" d="M156.8,36.42c0.54-0.31,0.99-0.07,0.99,0.56c0,0.62-0.44,1.4-0.99,1.71l-35.63,20.57
						c-0.54,0.31-0.98,0.05-0.99-0.57c0-0.62,0.44-1.38,0.98-1.7L156.8,36.42z"/>
				</g>
				<g>
					<path class="st2" d="M150.86,34.34c0.54-0.31,0.99-0.06,0.99,0.57c0,0.62-0.44,1.4-0.99,1.71l-29.7,17.15
						c-0.54,0.31-0.98,0.05-0.99-0.57c0-0.62,0.44-1.39,0.98-1.7L150.86,34.34z"/>
				</g>
				<g>
					<path class="st0" d="M158.53,29.91c0.54-0.31,0.98-0.05,0.99,0.57c0,0.62-0.44,1.39-0.98,1.7l-37.38,21.58
						c-0.54,0.31-0.98,0.05-0.99-0.57c0,0.62,0.44,0.88,0.99,0.57l29.7-17.15c0.54-0.31,0.99-1.08,0.99-1.71
						c0-0.62-0.45-0.88-0.99-0.57L158.53,29.91z"/>
				</g>
			</g>
			<g class="st1">
				<g>
					<path class="st3" d="M162.33,6.43c0.91-0.52,1.64-0.1,1.64,0.93s-0.72,2.3-1.63,2.82c-0.9,0.52-1.63,0.1-1.63-0.94
						S161.43,6.95,162.33,6.43z"/>
				</g>
				<g>
					<path class="st0" d="M157.88,9c0.91-0.52,1.64-0.1,1.64,0.93s-0.72,2.3-1.63,2.82c-0.9,0.52-1.63,0.1-1.63-0.94
						C156.26,10.78,156.98,9.52,157.88,9z"/>
				</g>
				<g>
					<path class="st4" d="M153.44,11.56c0.91-0.52,1.64-0.1,1.64,0.93s-0.72,2.3-1.63,2.82c-0.9,0.52-1.63,0.1-1.63-0.94
						S152.54,12.08,153.44,11.56z"/>
				</g>
				<g>
					<path class="st0" d="M99.59,91.37C99.59,91.36,99.59,91.36,99.59,91.37c0.07-0.04,0.14-0.08,0.2-0.12
						C99.72,91.29,99.66,91.33,99.59,91.37z"/>
				</g>
				<g>
					<path class="st0" d="M99.39,91.47c0.04-0.02,0.08-0.05,0.13-0.07c0.01-0.01,0.03-0.01,0.04-0.02c-0.06,0.03-0.12,0.07-0.18,0.1
						C99.38,91.48,99.39,91.48,99.39,91.47z"/>
				</g>
				<g>
					<path class="st0" d="M98.92,91.72c0.04-0.02,0.07-0.04,0.11-0.06c-0.01,0.01-0.02,0.01-0.03,0.02
						C98.97,91.7,98.95,91.71,98.92,91.72z"/>
				</g>
				<g>
					<path class="st0" d="M98.71,91.83c0.07-0.03,0.14-0.07,0.21-0.1c-0.01,0.01-0.03,0.02-0.04,0.02
						c-0.02,0.01-0.04,0.02-0.07,0.03C98.78,91.79,98.75,91.81,98.71,91.83z"/>
				</g>
				<g>
					<path class="st0" d="M98.47,91.95c0.05-0.03,0.11-0.05,0.16-0.08c0.01-0.01,0.03-0.01,0.04-0.02c0.02-0.01,0.03-0.02,0.05-0.02
						C98.63,91.87,98.55,91.91,98.47,91.95z"/>
				</g>
				<g>
					<path class="st0" d="M88.51,91.89c2.55,1.86,6.12,1.88,9.94,0.07C94.5,93.83,90.98,93.7,88.51,91.89z"/>
				</g>
				<g>
					<polygon class="st0" points="88.26,91.7 88.26,91.7 88.26,91.7 					"/>
				</g>
				<g>
					<path class="st0" d="M99.69,56.8c8.27-4.78,15.01-0.94,15.03,8.57l-14.98,8.65L94.6,60.77C96.19,59.19,97.91,57.84,99.69,56.8z
						"/>
				</g>
				<g>
					<path class="st0" d="M90.78,65.34c-3.65,5.24-5.94,11.52-6.02,16.97C84.84,76.74,87.18,70.49,90.78,65.34z"/>
				</g>
				<g>
					<path class="st5" d="M78.45,61.51l87.91-50.76l0.14,49.26l-87.91,50.76L78.45,61.51z M99.79,91.25
						c8.27-4.78,14.96-16.36,14.94-25.88c-0.03-9.51-6.76-13.34-15.03-8.57c-1.79,1.03-3.5,2.38-5.09,3.96
						c-0.1,0.1-0.18,0.18-0.25,0.25c-0.13,0.13-0.18,0.19-0.24,0.24c-0.04,0.04-0.07,0.07-0.11,0.11c-0.06,0.06-0.11,0.12-0.17,0.18
						c-0.04,0.04-0.08,0.08-0.11,0.12c-0.04,0.04-0.07,0.08-0.11,0.12c-0.07,0.07-0.13,0.15-0.2,0.22c-0.23,0.26-0.38,0.42-0.52,0.6
						c-0.3,0.35-0.55,0.65-0.8,0.97c-0.16,0.2-0.3,0.39-0.45,0.57c-0.12,0.16-0.19,0.25-0.25,0.34c-0.03,0.04-0.06,0.08-0.09,0.12
						c-0.03,0.05-0.07,0.09-0.1,0.14c-0.05,0.06-0.09,0.13-0.14,0.19c-0.03,0.04-0.05,0.07-0.08,0.11
						c-0.06,0.08-0.12,0.16-0.17,0.25c-3.63,5.2-5.97,11.44-6.06,17.02c0,0.16,0,0.26,0,0.37c0.03,9.35,6.53,13.22,14.61,8.81
						c0.07-0.04,0.13-0.07,0.19-0.11C99.66,91.33,99.72,91.29,99.79,91.25 M158.57,43.18c0.54-0.31,0.98-1.08,0.98-1.7
						s-0.44-0.88-0.99-0.57l-19.52,11.27l-17.85,10.31c-0.54,0.31-0.98,1.08-0.98,1.7c0,0.62,0.44,0.88,0.99,0.57L158.57,43.18
						 M158.54,32.19c0.54-0.31,0.98-1.08,0.98-1.7c0-0.62-0.44-0.88-0.99-0.57l-7.67,4.43l-29.7,17.15
						c-0.54,0.31-0.98,1.08-0.98,1.7c0,0.62,0.44,0.88,0.99,0.57L158.54,32.19 M158.58,48.68c0.54-0.31,0.98-1.08,0.98-1.7
						s-0.44-0.88-0.99-0.56l-30.38,17.54l-6.99,4.04c-0.54,0.31-0.98,1.07-0.98,1.7c0,0.62,0.44,0.88,0.99,0.57L158.58,48.68
						 M158.55,37.68c0.54-0.31,0.98-1.08,0.98-1.7c0-0.62-0.44-0.88-0.99-0.56l-1.75,1.01l-35.63,20.57
						c-0.54,0.31-0.98,1.07-0.98,1.7c0,0.62,0.44,0.88,0.99,0.57L158.55,37.68"/>
				</g>
				<g>
					<path class="st4" d="M99.74,74.02L88.26,91.7c2.57,2.05,6.25,2.13,10.21,0.25c0.05-0.03,0.11-0.05,0.21-0.1
						c0.05-0.02,0.1-0.05,0.21-0.1c0.04-0.02,0.08-0.04,0.12-0.06c0.03-0.02,0.06-0.03,0.09-0.05c0.04-0.02,0.07-0.04,0.11-0.06
						c0.04-0.02,0.07-0.04,0.2-0.11c0.04-0.02,0.08-0.05,0.2-0.11c0.07-0.04,0.13-0.08,0.2-0.11c8.22-4.74,14.96-16.43,14.94-25.88
						L99.74,74.02z"/>
				</g>
				<g>
					<path class="st0" d="M99.09,91.64c0.04-0.02,0.07-0.04,0.11-0.06c0.04-0.02,0.07-0.04,0.11-0.06c0.02-0.01,0.04-0.02,0.06-0.03
						c-0.11,0.06-0.22,0.12-0.33,0.18C99.05,91.66,99.07,91.65,99.09,91.64z"/>
				</g>
				<g>
					<path class="st0" d="M84.76,83.08c0-0.13-0.01-0.27-0.01-0.41C84.75,82.81,84.75,82.95,84.76,83.08z"/>
				</g>
				<g>
					<path class="st2" d="M94.57,60.79l5.17,13.23L88.28,91.67c-2.19-1.74-3.52-4.82-3.53-8.99c0-0.1,0-0.21,0-0.31
						c0.09-5.51,2.37-11.79,6.02-17.03c0.09-0.14,0.15-0.22,0.21-0.3c0.03-0.04,0.05-0.07,0.08-0.11c0.05-0.06,0.09-0.13,0.14-0.19
						c0.03-0.05,0.07-0.09,0.1-0.14c0.03-0.04,0.06-0.08,0.09-0.12c0.07-0.09,0.13-0.18,0.2-0.27c0.02-0.02,0.04-0.05,0.05-0.07
						c0.14-0.19,0.29-0.37,0.43-0.56c0.26-0.33,0.52-0.64,0.78-0.94c0.18-0.21,0.33-0.38,0.48-0.55c0.03-0.03,0.05-0.06,0.08-0.09
						c0.07-0.07,0.13-0.15,0.2-0.22c0.04-0.04,0.07-0.08,0.11-0.12c0.04-0.04,0.08-0.08,0.11-0.12c0.06-0.06,0.11-0.12,0.17-0.18
						c0.04-0.04,0.07-0.07,0.11-0.11c0.05-0.05,0.11-0.11,0.16-0.16c0.03-0.03,0.05-0.05,0.08-0.08
						C94.43,60.94,94.5,60.87,94.57,60.79z"/>
				</g>
				<g>
					<path class="st0" d="M84.79,83.84c0.23,3.58,1.51,6.25,3.49,7.82l-0.02,0.03C86.29,90.13,85.02,87.45,84.79,83.84z"/>
				</g>
				<g>
					<path class="st0" d="M84.79,83.84c0-0.03,0-0.05,0-0.08C84.79,83.79,84.79,83.81,84.79,83.84z"/>
				</g>
				<g>
					<path class="st0" d="M84.79,83.76c-0.01-0.09-0.01-0.19-0.02-0.29C84.78,83.57,84.78,83.67,84.79,83.76z"/>
				</g>
				<g>
					<path class="st0" d="M84.77,83.48c0-0.06,0-0.13-0.01-0.19C84.77,83.35,84.77,83.41,84.77,83.48z"/>
				</g>
				<g>
					<polygon class="st0" points="166.36,10.03 166.36,10.75 78.45,61.51 78.45,60.79 					"/>
				</g>
				<g>
					<path class="st2" d="M78.42,52.53l87.91-50.76l0.02,8.26L78.45,60.79L78.42,52.53z M153.45,15.32
						c0.91-0.52,1.63-1.79,1.63-2.82c0-1.03-0.73-1.46-1.64-0.93c-0.9,0.52-1.63,1.78-1.62,2.82
						C151.82,15.42,152.55,15.84,153.45,15.32 M162.34,10.19c0.91-0.52,1.63-1.79,1.63-2.82c0-1.03-0.73-1.46-1.64-0.93
						c-0.9,0.52-1.63,1.78-1.62,2.82C160.71,10.28,161.44,10.71,162.34,10.19 M157.89,12.75c0.91-0.52,1.63-1.79,1.63-2.82
						c0-1.03-0.73-1.46-1.64-0.93c-0.9,0.52-1.63,1.78-1.62,2.82C156.26,12.85,156.99,13.27,157.89,12.75"/>
				</g>
			</g>
		</g>
	</g>
	<g>
		<g>
			<g>
				<path class="st4" d="M57.84,92.78c0.88-0.51,1.59-0.1,1.59,0.92c0,1.01-0.7,2.24-1.58,2.74c-0.87,0.51-1.59,0.1-1.59-0.91
					C56.25,94.52,56.97,93.28,57.84,92.78z"/>
			</g>
			<g class="st1">
				<g>
					<path class="st6" d="M62.37,104.85c0.11,0.18,0.29,0.28,0.5,0.29L46.04,134.3c-0.09-0.21-0.24-0.35-0.44-0.39L62.37,104.85z"/>
				</g>
				<g>
					<path class="st0" d="M63.42,102.26c0.65-0.38,1.18-0.07,1.19,0.68c0,0.75-0.53,1.67-1.18,2.05c-0.2,0.12-0.39,0.17-0.55,0.16
						c-0.21-0.01-0.39-0.11-0.5-0.29c-0.09-0.14-0.14-0.33-0.14-0.55C62.23,103.55,62.76,102.64,63.42,102.26z"/>
				</g>
				<g>
					<path class="st6" d="M31.67,129.93c0.12,0.18,0.3,0.27,0.53,0.26l-5.63,12.21l-5.52,11.97c-0.15-0.13-0.36-0.17-0.59-0.12
						l5.59-12.12L31.67,129.93z"/>
				</g>
				<g>
					<path class="st4" d="M20.12,154.39c-0.25,0.15-0.49,0.37-0.68,0.64l-2.1-0.88l6.22-13.31l2.47,1.28l-5.59,12.12
						C20.35,154.28,20.24,154.32,20.12,154.39z"/>
				</g>
				<g>
					<path class="st6" d="M8.97,150.65l8.38,3.5l2.1,0.88c-0.19,0.27-0.35,0.58-0.43,0.9l-2.09-0.87l-8.45-3.53
						C8.69,151.27,8.86,150.96,8.97,150.65z"/>
				</g>
				<g>
					<path class="st5" d="M1.06,132.03l69.37-40.05l0.15,54.66L1.22,186.69L1.06,132.03z M6.33,177.72l59.36-34.27l-13.96-7.95
						l-6.79,11.75l-12.32-7.02l-2.36,4.09l-3.69-1.91l5.63-12.21c0.15,0,0.33-0.06,0.51-0.16c0.18-0.11,0.36-0.26,0.52-0.43
						l10.59,6.03c-0.04,0.16-0.06,0.31-0.06,0.46c0,0.75,0.53,1.05,1.19,0.68c0.65-0.38,1.19-1.29,1.18-2.04
						c0-0.17-0.03-0.31-0.08-0.43l16.83-29.16c0.17,0,0.35-0.05,0.55-0.16c0.65-0.38,1.18-1.3,1.18-2.05s-0.53-1.05-1.18-0.68
						c-0.66,0.38-1.19,1.29-1.18,2.04c0,0.23,0.05,0.41,0.14,0.55L45.6,133.91c-0.19-0.04-0.42,0-0.67,0.15
						c-0.26,0.15-0.5,0.39-0.7,0.67l-10.49-5.98c0.1-0.25,0.15-0.51,0.15-0.76c0-0.76-0.53-1.06-1.19-0.68
						c-0.65,0.38-1.18,1.29-1.18,2.05c0,0.24,0.06,0.43,0.15,0.57l-5.63,12.2l-2.47-1.28l-6.22,13.31l-8.38-3.5
						c0.08-0.23,0.12-0.46,0.12-0.68c0-0.75-0.53-1.05-1.19-0.67c-0.65,0.38-1.18,1.29-1.18,2.04c0,0.76,0.53,1.06,1.19,0.68
						c0.21-0.12,0.4-0.29,0.57-0.5l8.45,3.53L6.33,177.72"/>
				</g>
				<g>
					<path class="st0" d="M44.92,134.05c0.25-0.14,0.48-0.19,0.67-0.15c0.2,0.04,0.36,0.18,0.44,0.39c0.05,0.12,0.08,0.27,0.08,0.43
						c0,0.75-0.53,1.67-1.18,2.04c-0.65,0.38-1.18,0.07-1.19-0.68c0-0.15,0.02-0.31,0.06-0.46c0.08-0.32,0.22-0.63,0.42-0.91
						C44.42,134.44,44.66,134.2,44.92,134.05z"/>
				</g>
				<g>
					<path class="st3" d="M66.5,87.78c0.88-0.51,1.6-0.1,1.6,0.91c0,1.01-0.71,2.24-1.59,2.75c-0.87,0.51-1.59,0.1-1.59-0.91
						C64.91,89.52,65.62,88.29,66.5,87.78z"/>
				</g>
				<g>
					<path class="st0" d="M62.17,90.28c0.88-0.51,1.6-0.1,1.6,0.91c0,1.01-0.71,2.24-1.59,2.75c-0.87,0.51-1.59,0.1-1.59-0.91
						C60.58,92.02,61.29,90.78,62.17,90.28z"/>
				</g>
				<g>
					<path class="st0" d="M20.12,154.39c0.12-0.07,0.23-0.11,0.33-0.14c0.24-0.06,0.44-0.01,0.59,0.12c0.16,0.14,0.26,0.38,0.26,0.7
						c0,0.75-0.53,1.66-1.18,2.04c-0.65,0.38-1.18,0.07-1.19-0.68c0-0.16,0.02-0.34,0.07-0.51c0.08-0.31,0.23-0.62,0.43-0.9
						C19.64,154.76,19.87,154.54,20.12,154.39z"/>
				</g>
				<g>
					<path class="st6" d="M33.22,129.6c0.22-0.25,0.4-0.55,0.52-0.86l10.49,5.98c-0.19,0.28-0.34,0.6-0.42,0.91L33.22,129.6z"/>
				</g>
				<g>
					<path class="st4" d="M51.73,135.5l13.96,7.95L6.33,177.72l10.6-22.67l2.09,0.87c-0.05,0.17-0.07,0.35-0.07,0.51
						c0,0.75,0.53,1.05,1.19,0.68c0.65-0.38,1.18-1.29,1.18-2.04c0-0.32-0.1-0.56-0.26-0.7l5.52-11.97l3.69,1.91l2.36-4.09
						l12.32,7.02L51.73,135.5z"/>
				</g>
				<g>
					<path class="st0" d="M32.7,127.31c0.66-0.38,1.19-0.08,1.19,0.68c0,0.24-0.05,0.5-0.15,0.76c-0.12,0.31-0.3,0.61-0.52,0.86
						c-0.16,0.18-0.33,0.32-0.52,0.43c-0.18,0.1-0.35,0.16-0.51,0.16c-0.22,0.01-0.41-0.09-0.53-0.26c-0.1-0.14-0.15-0.33-0.15-0.57
						C31.52,128.6,32.05,127.69,32.7,127.31z"/>
				</g>
				<g>
					<path class="st0" d="M7.9,149.3c0.66-0.38,1.19-0.08,1.19,0.67c0,0.22-0.04,0.45-0.12,0.68c-0.11,0.31-0.28,0.62-0.49,0.87
						c-0.17,0.2-0.36,0.38-0.57,0.5c-0.65,0.38-1.18,0.07-1.19-0.68C6.72,150.59,7.25,149.68,7.9,149.3z"/>
				</g>
				<g>
					<polygon class="st0" points="70.43,91.29 70.43,91.98 1.06,132.03 1.06,131.34 					"/>
				</g>
				<g>
					<path class="st2" d="M1.04,123.29l69.37-40.05l0.02,8.06L1.06,131.34L1.04,123.29z M62.18,93.94c0.88-0.51,1.59-1.74,1.59-2.75
						c0-1.01-0.72-1.42-1.6-0.91c-0.87,0.5-1.59,1.74-1.58,2.75C60.59,94.04,61.3,94.45,62.18,93.94 M66.51,91.44
						c0.88-0.51,1.59-1.74,1.59-2.75c0-1.01-0.72-1.42-1.6-0.91c-0.87,0.5-1.59,1.74-1.58,2.75C64.92,91.54,65.63,91.95,66.51,91.44
						 M57.85,96.44c0.88-0.51,1.59-1.74,1.58-2.74c0-1.01-0.71-1.42-1.59-0.92c-0.87,0.51-1.59,1.74-1.58,2.75
						C56.26,96.54,56.98,96.94,57.85,96.44"/>
				</g>
			</g>
		</g>
	</g>
	<g>
		<g>
			<g>
				
					<ellipse transform="matrix(0.5025 -0.8646 0.8646 0.5025 6.387 190.5194)" class="st0" cx="168.73" cy="89.71" rx="1.72" ry="1"/>
			</g>
			<g>
				
					<ellipse transform="matrix(0.5025 -0.8646 0.8646 0.5025 1.8968 193.1198)" class="st0" cx="168.74" cy="94.91" rx="1.72" ry="1"/>
			</g>
			<g class="st1">
				<g>
					
						<ellipse transform="matrix(0.5024 -0.8646 0.8646 0.5024 77.3942 214.9084)" class="st3" cx="225.42" cy="40.21" rx="1.98" ry="1.15"/>
				</g>
				<g>
					
						<ellipse transform="matrix(0.5024 -0.8646 0.8646 0.5024 73.5823 212.7004)" class="st0" cx="221.6" cy="42.42" rx="1.98" ry="1.15"/>
				</g>
				<g>
					
						<ellipse transform="matrix(0.5025 -0.8646 0.8646 0.5025 69.7701 210.4922)" class="st4" cx="217.77" cy="44.63" rx="1.98" ry="1.15"/>
				</g>
				<g>
					<path class="st4" d="M192.81,80.12c0.47-0.27,0.85-0.06,0.85,0.49c0,0.54-0.38,1.2-0.85,1.47L173.6,93.17
						c-0.47,0.27-0.85,0.05-0.85-0.49c0-0.54,0.38-1.2,0.85-1.47L192.81,80.12z"/>
				</g>
				<g>
					<path class="st4" d="M192.79,74.91c0.47-0.27,0.85-0.05,0.85,0.49c0,0.54-0.38,1.2-0.85,1.47l-19.21,11.09
						c-0.47,0.27-0.85,0.05-0.85-0.49c0-0.54,0.38-1.2,0.85-1.47L192.79,74.91z"/>
				</g>
				<g>
					<path class="st4" d="M192.78,69.71c0.47-0.27,0.85-0.05,0.85,0.49c0,0.54-0.38,1.2-0.85,1.47l-19.21,11.09
						c-0.47,0.27-0.85,0.06-0.85-0.49c0-0.54,0.38-1.2,0.85-1.47L192.78,69.71z"/>
				</g>
				<g>
					<path class="st5" d="M229.33,34.32l0.15,31.9l-66.94,38.65l-0.07-24.22l66.89-38.62l0-0.61L229.33,34.32z M223.25,64.54
						l-0.04-12.76l-26.13,15.09l0.04,12.76L223.25,64.54 M192.8,76.87c0.47-0.27,0.85-0.93,0.85-1.47c0-0.54-0.39-0.75-0.85-0.49
						l-19.21,11.09c-0.47,0.27-0.85,0.93-0.85,1.47c0,0.54,0.39,0.75,0.85,0.49L192.8,76.87 M192.81,82.08
						c0.47-0.27,0.85-0.93,0.85-1.47c0-0.54-0.39-0.75-0.85-0.49l-19.21,11.09c-0.47,0.27-0.85,0.92-0.85,1.47
						c0,0.54,0.39,0.75,0.85,0.49L192.81,82.08 M192.78,71.66c0.47-0.27,0.85-0.92,0.85-1.47c0-0.54-0.39-0.75-0.85-0.49
						L173.56,80.8c-0.47,0.27-0.85,0.93-0.85,1.47c0,0.54,0.39,0.75,0.85,0.49L192.78,71.66 M168.73,91.11
						c0.67-0.39,1.22-1.34,1.22-2.11c0-0.78-0.55-1.08-1.22-0.7c-0.68,0.39-1.22,1.33-1.22,2.11
						C167.51,91.18,168.06,91.5,168.73,91.11 M168.72,85.9c0.67-0.39,1.22-1.33,1.22-2.11c0-0.77-0.55-1.08-1.22-0.7
						c-0.68,0.39-1.22,1.33-1.22,2.11C167.5,85.98,168.04,86.29,168.72,85.9 M168.75,96.31c0.67-0.39,1.22-1.33,1.22-2.11
						c0-0.77-0.55-1.08-1.22-0.7c-0.68,0.39-1.22,1.33-1.22,2.11C167.53,96.39,168.07,96.7,168.75,96.31"/>
				</g>
				<g>
					<polygon class="st0" points="229.35,41.43 229.35,42.04 162.46,80.65 162.46,80.04 					"/>
				</g>
				<g>
					<path class="st2" d="M162.44,72.93l66.89-38.62l0.02,7.11l-66.89,38.62L162.44,72.93z M217.78,46.24
						c0.78-0.45,1.4-1.54,1.4-2.42c0-0.9-0.63-1.25-1.41-0.8c-0.77,0.45-1.4,1.53-1.4,2.43C216.37,46.32,217.01,46.69,217.78,46.24
						 M221.6,44.03c0.78-0.45,1.4-1.54,1.4-2.42c0-0.9-0.63-1.25-1.41-0.8c-0.77,0.45-1.4,1.53-1.4,2.42
						C220.2,44.12,220.83,44.48,221.6,44.03 M225.43,41.82c0.77-0.45,1.4-1.54,1.4-2.42c0-0.9-0.64-1.25-1.41-0.8
						c-0.78,0.45-1.4,1.53-1.4,2.42C224.02,41.91,224.65,42.27,225.43,41.82"/>
				</g>
			</g>
			<g>
				
					<ellipse transform="matrix(0.5025 -0.8646 0.8646 0.5025 10.8832 187.915)" class="st0" cx="168.72" cy="84.5" rx="1.72" ry="1"/>
			</g>
			<g>
				<polygon class="st0" points="223.22,51.79 223.25,64.54 197.12,79.63 197.09,66.87 				"/>
			</g>
		</g>
	</g>
	<g>
		<g>
			<g>
				<polygon class="st7" points="115.83,150.14 115.86,160.74 108.16,165.18 108.18,173.66 115.88,169.21 108.18,173.66 
					108.13,154.59 				"/>
			</g>
			<g>
				<polygon class="st8" points="115.86,160.74 115.88,169.21 108.18,173.66 108.16,165.18 				"/>
			</g>
			<g class="st1">
				<g>
					<polygon class="st8" points="149.32,127.22 149.38,149.87 141.68,154.32 141.62,131.66 					"/>
				</g>
				<g>
					<polygon class="st8" points="138.16,136.69 138.22,156.32 130.52,160.76 130.46,141.13 					"/>
				</g>
				<g>
					<polygon class="st8" points="127,146.74 127.05,162.76 119.35,167.21 119.3,151.19 					"/>
				</g>
				<g>
					<polygon class="st7" points="126.95,126.71 127,146.74 119.3,151.19 119.35,167.21 127.05,162.76 119.35,167.21 119.25,131.15 
											"/>
				</g>
				<g>
					<polygon class="st7" points="104.64,148.85 104.68,163.74 96.98,168.19 97.02,180.1 104.72,175.66 97.02,180.1 96.94,153.3 
											"/>
				</g>
				<g>
					<path class="st5" d="M78.72,131.67l77.01-44.46l0.19,66.07l-77.01,44.46L78.72,131.67z M138.16,136.69l-0.07-24.55l-7.7,4.45
						l0.13,44.18l7.7-4.45L138.16,136.69 M127,146.74l-0.06-20.04l-7.7,4.45l0.1,36.06l7.7-4.45L127,146.74 M149.32,127.11
						l-0.08-28.22l-7.7,4.45l0.08,28.22L149.32,127.11 M104.68,163.74l-0.04-14.89l-7.7,4.45l0.08,26.81l7.7-4.45L104.68,163.74
						 M149.38,149.87l-0.06-22.65l-7.7,4.45l0.06,22.65L149.38,149.87 M115.86,160.74l-0.03-10.59l-7.7,4.45l0.05,19.07l7.7-4.45
						L115.86,160.74 M93.53,175.14l-0.02-8.71l-7.7,4.45l0.04,15.67l7.7-4.45L93.53,175.14"/>
				</g>
				<g>
					<polygon class="st7" points="149.24,98.89 149.32,127.11 141.62,131.55 141.54,103.33 					"/>
				</g>
				<g>
					<path class="st2" d="M78.7,122.51l77.14-44.54l0.02,8.06l-77.14,44.54L78.7,122.51z M151.94,86.17
						c0.88-0.51,1.59-1.74,1.59-2.75c0-1.01-0.72-1.42-1.6-0.91c-0.87,0.51-1.59,1.74-1.58,2.75
						C150.35,86.27,151.06,86.68,151.94,86.17 M147.61,88.67c0.88-0.51,1.59-1.74,1.58-2.74c0-1.01-0.71-1.42-1.59-0.92
						c-0.87,0.51-1.59,1.74-1.58,2.75C146.02,88.77,146.74,89.18,147.61,88.67 M143.28,91.17c0.88-0.51,1.59-1.74,1.58-2.74
						c0-1.01-0.71-1.42-1.59-0.92c-0.88,0.51-1.59,1.74-1.58,2.75C141.69,91.27,142.4,91.68,143.28,91.17"/>
				</g>
				<g>
					<path class="st3" d="M151.93,82.51c0.88-0.51,1.6-0.1,1.6,0.91c0,1.01-0.71,2.24-1.59,2.75c-0.87,0.51-1.59,0.1-1.59-0.91
						C150.34,84.25,151.05,83.02,151.93,82.51z"/>
				</g>
				<g>
					<polygon class="st7" points="138.09,112.14 138.16,136.69 130.46,141.13 130.52,160.76 138.22,156.32 130.52,160.76 
						130.39,116.58 					"/>
				</g>
				<g>
					<path class="st0" d="M147.6,85.01c0.88-0.51,1.59-0.1,1.59,0.92c0,1.01-0.7,2.24-1.58,2.74c-0.87,0.51-1.59,0.1-1.59-0.91
						C146.01,86.75,146.73,85.52,147.6,85.01z"/>
				</g>
				<g>
					<path class="st4" d="M143.27,87.51c0.88-0.51,1.59-0.1,1.59,0.92c0,1.01-0.7,2.24-1.58,2.74c-0.88,0.51-1.59,0.1-1.59-0.91
						C141.68,89.25,142.39,88.02,143.27,87.51z"/>
				</g>
				<g>
					<polygon class="st0" points="155.86,86.03 155.86,86.72 78.72,131.25 78.72,130.56 					"/>
				</g>
			</g>
			<g>
				<polygon class="st7" points="93.5,166.44 93.53,175.14 85.83,179.59 85.85,186.55 93.55,182.11 85.85,186.55 85.8,170.88 				
					"/>
			</g>
			<g>
				<polygon class="st8" points="93.53,175.14 93.55,182.11 85.85,186.55 85.83,179.59 				"/>
			</g>
			<g>
				<polygon class="st8" points="104.68,163.74 104.72,175.66 97.02,180.1 96.98,168.19 				"/>
			</g>
		</g>
	</g>
	<g>
		<g>
			<g>
				<polygon class="st9" points="171.78,125.91 171.78,125.81 177.4,122.56 177.4,122.66 				"/>
			</g>
			<g>
				<polygon class="st9" points="223.62,117.12 223.61,116.93 229.24,113.68 229.24,113.87 				"/>
			</g>
			<g>
				<polygon class="st9" points="223.64,124.16 223.63,123.96 229.26,120.72 229.26,120.91 				"/>
			</g>
			<g>
				<polygon class="st9" points="223.67,134.71 223.66,134.51 229.29,131.27 229.29,131.47 				"/>
			</g>
			<g class="st1">
				<g>
					<polygon class="st9" points="229.31,92.59 229.31,92.69 229.32,96.02 229.32,96.21 229.33,99.53 229.33,99.73 229.34,103.05 
						229.34,103.24 229.35,106.56 229.35,106.76 229.36,110.09 229.36,110.28 229.37,113.61 229.37,113.8 229.38,117.12 
						229.38,117.32 229.39,120.64 229.39,120.83 229.4,124.16 229.4,124.36 229.41,127.68 229.41,127.87 229.42,131.19 
						229.42,131.39 229.43,134.71 229.43,134.81 229.3,134.88 229.3,134.79 229.29,131.47 229.29,131.27 229.28,127.94 
						229.28,127.75 229.27,124.43 229.27,124.23 229.26,120.91 229.26,120.72 229.25,117.39 229.25,117.2 229.24,113.87 
						229.24,113.68 229.23,110.35 229.23,110.16 229.22,106.84 229.22,106.64 229.21,103.32 229.21,103.12 229.2,99.8 229.2,99.6 
						229.19,96.28 229.19,96.09 229.18,92.77 229.18,92.66 					"/>
				</g>
				<g>
					<polygon class="st9" points="212.04,102.56 212.04,102.66 212.05,105.98 212.05,106.17 212.06,109.5 212.06,109.69 
						212.07,113.02 212.07,113.21 212.08,116.53 212.08,116.73 212.09,120.05 212.09,120.24 212.1,123.58 212.1,123.77 
						212.11,127.09 212.11,127.29 212.12,130.61 212.12,130.8 212.13,134.13 212.13,134.32 212.14,137.65 212.14,137.84 
						212.15,141.16 212.15,141.36 212.16,144.68 212.16,144.78 212.04,144.85 212.04,144.76 212.03,141.43 212.03,141.23 
						212.02,137.91 212.02,137.72 212.01,134.4 212.01,134.2 212,130.88 212,130.68 211.99,127.36 211.99,127.16 211.98,123.84 
						211.98,123.65 211.97,120.32 211.97,120.13 211.96,116.8 211.96,116.61 211.95,113.28 211.95,113.09 211.94,109.77 
						211.94,109.57 211.93,106.25 211.93,106.06 211.92,102.73 211.92,102.63 					"/>
				</g>
				<g>
					<polygon class="st9" points="177.53,122.48 177.53,122.59 177.54,125.91 177.54,126.1 177.55,129.42 177.55,129.62 
						177.56,132.95 177.56,133.04 177.5,136.6 177.57,136.66 177.58,139.98 177.58,140.17 177.59,143.5 177.59,143.69 177.6,147.02 
						177.6,147.22 177.61,150.54 177.61,150.73 177.62,154.05 177.62,154.25 177.63,157.57 177.63,157.77 177.64,161.09 
						177.64,161.29 177.65,164.61 177.65,164.71 177.52,164.78 177.52,164.68 177.51,161.36 177.51,161.16 177.5,157.84 
						177.5,157.65 177.49,154.32 177.49,154.13 177.48,150.8 177.48,150.61 177.47,147.29 177.47,147.09 177.46,143.77 
						177.46,143.58 177.45,140.25 177.45,140.06 177.44,136.73 177.44,136.53 177.43,133.21 177.43,133.02 177.42,129.7 
						177.42,129.5 177.41,126.17 177.41,125.98 177.4,122.66 177.4,122.56 					"/>
				</g>
				<g>
					<polygon class="st9" points="171.78,125.81 171.78,125.91 171.79,129.23 171.79,129.42 171.8,132.75 171.8,132.94 
						171.81,136.27 171.81,136.46 171.82,139.78 171.82,139.98 171.83,143.3 171.83,143.49 171.84,146.82 171.84,147.01 
						171.85,150.34 171.85,150.54 171.86,153.86 171.86,154.05 171.87,157.37 171.87,157.57 171.88,160.9 171.88,161.09 
						171.89,164.41 171.89,164.61 171.9,167.93 171.9,168.03 171.76,168.1 171.76,168.01 171.75,164.69 171.75,164.49 
						171.74,161.16 171.74,160.97 171.73,157.65 171.73,157.45 171.72,154.13 171.72,153.94 171.71,150.61 171.71,150.42 
						171.7,147.09 171.7,146.9 171.69,143.57 171.69,143.38 171.68,140.06 171.68,139.86 171.67,136.54 171.67,136.34 
						171.66,133.02 171.66,132.82 171.65,129.5 171.65,129.31 171.64,125.99 171.64,125.88 					"/>
				</g>
				<g>
					<polygon class="st9" points="235.35,131.29 166.09,171.48 171.76,168.01 177.52,164.68 183.27,161.36 189.03,158.04 
						194.78,154.72 200.53,151.4 206.28,148.08 212.04,144.76 217.79,141.43 223.55,138.11 229.3,134.79 					"/>
				</g>
				<g>
					<polygon class="st5" points="229.43,134.72 229.42,131.39 235.34,127.97 235.35,131.29 					"/>
				</g>
				<g>
					<polygon class="st5" points="229.42,131.19 229.41,127.87 235.33,124.45 235.34,127.77 					"/>
				</g>
				<g>
					<polygon class="st5" points="223.67,138.04 223.67,134.71 229.29,131.47 229.3,134.79 					"/>
				</g>
				<g>
					<polygon class="st5" points="223.66,134.51 223.66,131.19 229.28,127.94 229.29,131.27 					"/>
				</g>
				<g>
					<polygon class="st9" points="223.66,131.19 223.65,131 229.28,127.75 229.28,127.94 					"/>
				</g>
				<g>
					<polygon class="st5" points="229.4,124.16 229.39,120.83 235.31,117.41 235.32,120.74 					"/>
				</g>
				<g>
					<polygon class="st5" points="217.92,141.36 217.91,138.03 223.54,134.79 223.55,138.11 					"/>
				</g>
				<g>
					<polygon class="st9" points="223.65,127.68 223.64,127.48 229.27,124.23 229.27,124.43 					"/>
				</g>
				<g>
					<polygon class="st9" points="217.9,134.51 217.9,134.32 223.53,131.07 223.53,131.27 					"/>
				</g>
				<g>
					<polygon class="st5" points="223.64,127.48 223.64,124.16 229.26,120.91 229.27,124.23 					"/>
				</g>
				<g>
					<polygon class="st5" points="229.38,117.12 229.37,113.8 235.29,110.38 235.3,113.7 					"/>
				</g>
				<g>
					<polygon class="st9" points="212.15,141.36 212.15,141.16 217.78,137.91 217.78,138.11 					"/>
				</g>
				<g>
					<polygon class="st5" points="217.9,134.32 217.89,131 223.52,127.75 223.53,131.07 					"/>
				</g>
				<g>
					<polygon class="st9" points="217.89,131 217.89,130.8 223.52,127.55 223.52,127.75 					"/>
				</g>
				<g>
					<polygon class="st9" points="223.63,120.64 223.62,120.44 229.25,117.2 229.25,117.39 					"/>
				</g>
				<g>
					<polygon class="st5" points="229.37,113.61 229.36,110.28 235.28,106.86 235.29,110.19 					"/>
				</g>
				<g>
					<polygon class="st9" points="229.36,110.09 235.28,106.67 235.28,106.86 229.36,110.28 					"/>
				</g>
				<g>
					<polygon class="st9" points="212.14,137.84 212.14,137.65 217.77,134.4 217.77,134.59 					"/>
				</g>
				<g>
					<polygon class="st9" points="217.88,127.48 217.88,127.38 223.51,124.13 223.51,124.23 					"/>
				</g>
				<g>
					<polygon class="st9" points="229.35,106.57 235.27,103.14 235.27,103.34 229.35,106.76 					"/>
				</g>
				<g>
					<polygon class="st5" points="206.41,148 206.4,144.68 212.03,141.43 212.04,144.76 					"/>
				</g>
				<g>
					<polygon class="st9" points="212.13,134.32 212.13,134.13 217.76,130.88 217.76,131.08 					"/>
				</g>
				<g>
					<polygon class="st10" points="223.56,120.58 223.57,124.1 223.51,124.13 217.88,127.38 217.81,127.42 217.8,123.9 
						217.87,123.86 223.5,120.61 					"/>
				</g>
				<g>
					<polygon class="st9" points="217.87,123.86 217.87,123.76 223.5,120.52 223.5,120.61 					"/>
				</g>
				<g>
					<polygon class="st5" points="223.61,116.93 223.61,113.6 229.23,110.35 229.24,113.68 					"/>
				</g>
				<g>
					<polygon class="st9" points="223.61,113.6 223.6,113.41 229.23,110.16 229.23,110.35 					"/>
				</g>
				<g>
					<polygon class="st5" points="229.35,106.57 229.34,103.24 235.26,99.82 235.27,103.14 					"/>
				</g>
				<g>
					<polygon class="st9" points="229.34,103.05 235.26,99.63 235.26,99.82 229.34,103.24 					"/>
				</g>
				<g>
					<polygon class="st5" points="206.4,144.48 206.39,141.16 212.02,137.91 212.03,141.23 					"/>
				</g>
				<g>
					<polygon class="st5" points="212.13,134.13 212.12,130.8 217.75,127.55 217.76,130.88 					"/>
				</g>
				<g>
					<polygon class="st9" points="212.12,130.8 212.12,130.61 217.75,127.36 217.75,127.55 					"/>
				</g>
				<g>
					<polygon class="st5" points="217.87,123.76 217.86,120.44 223.49,117.19 223.5,120.52 					"/>
				</g>
				<g>
					<polygon class="st9" points="217.86,120.44 217.86,120.25 223.49,117 223.49,117.19 					"/>
				</g>
				<g>
					<polygon class="st5" points="223.6,113.41 223.6,110.08 229.22,106.84 229.23,110.16 					"/>
				</g>
				<g>
					<polygon class="st9" points="223.6,110.08 223.59,109.89 229.22,106.64 229.22,106.84 					"/>
				</g>
				<g>
					<polygon class="st5" points="229.34,103.05 229.33,99.73 235.25,96.31 235.26,99.63 					"/>
				</g>
				<g>
					<polygon class="st9" points="229.33,99.53 235.25,96.11 235.25,96.31 229.33,99.73 					"/>
				</g>
				<g>
					<polygon class="st9" points="200.65,148 200.65,147.8 206.27,144.56 206.27,144.75 					"/>
				</g>
				<g>
					<polygon class="st5" points="206.39,140.97 206.38,137.64 212.01,134.4 212.02,137.72 					"/>
				</g>
				<g>
					<polygon class="st9" points="206.38,137.64 206.38,137.45 212.01,134.2 212.01,134.4 					"/>
				</g>
				<g>
					<polygon class="st5" points="212.12,130.61 212.11,127.29 217.74,124.04 217.75,127.36 					"/>
				</g>
				<g>
					<polygon class="st9" points="212.11,127.29 212.11,127.09 217.74,123.84 217.74,124.04 					"/>
				</g>
				<g>
					<polygon class="st9" points="217.85,116.92 217.85,116.73 223.48,113.48 223.48,113.67 					"/>
				</g>
				<g>
					<polygon class="st9" points="229.32,96.02 235.24,92.59 235.24,92.79 229.32,96.21 					"/>
				</g>
				<g>
					<polygon class="st5" points="217.85,116.73 217.84,113.41 223.47,110.16 223.48,113.48 					"/>
				</g>
				<g>
					<polygon class="st9" points="217.84,113.41 217.84,113.21 223.47,109.96 223.47,110.16 					"/>
				</g>
				<g>
					<polygon class="st5" points="229.32,96.02 229.31,92.69 235.23,89.27 235.24,92.59 					"/>
				</g>
				<g>
					<polygon class="st9" points="229.31,92.59 235.23,89.17 235.23,89.27 229.31,92.69 					"/>
				</g>
				<g>
					<polygon class="st5" points="194.91,154.65 194.9,151.32 200.52,148.08 200.53,151.4 					"/>
				</g>
				<g>
					<polygon class="st9" points="194.9,151.32 194.9,151.12 200.52,147.88 200.52,148.08 					"/>
				</g>
				<g>
					<polygon class="st5" points="200.64,144.29 200.63,140.97 206.25,137.72 206.26,141.04 					"/>
				</g>
				<g>
					<polygon class="st9" points="200.63,140.97 200.63,140.77 206.25,137.52 206.25,137.72 					"/>
				</g>
				<g>
					<polygon class="st9" points="206.36,130.61 206.36,130.41 211.99,127.16 211.99,127.36 					"/>
				</g>
				<g>
					<polygon class="st5" points="212.1,123.58 212.09,120.24 217.72,117 217.73,120.33 					"/>
				</g>
				<g>
					<polygon class="st9" points="212.09,120.24 212.09,120.05 217.72,116.81 217.72,117 					"/>
				</g>
				<g>
					<polygon class="st9" points="217.83,109.88 217.83,109.69 223.46,106.45 223.46,106.64 					"/>
				</g>
				<g>
					<polygon class="st5" points="223.58,102.85 223.57,99.53 229.19,96.28 229.2,99.6 					"/>
				</g>
				<g>
					<polygon class="st5" points="194.9,151.12 194.89,147.8 200.51,144.55 200.52,147.88 					"/>
				</g>
				<g>
					<polygon class="st9" points="200.62,137.44 200.62,137.25 206.24,134.01 206.24,134.2 					"/>
				</g>
				<g>
					<polygon class="st5" points="206.36,130.41 206.35,127.09 211.98,123.84 211.99,127.16 					"/>
				</g>
				<g>
					<polygon class="st9" points="206.35,127.09 206.35,126.9 211.98,123.65 211.98,123.84 					"/>
				</g>
				<g>
					<polygon class="st5" points="212.09,120.05 212.08,116.73 217.71,113.48 217.72,116.81 					"/>
				</g>
				<g>
					<polygon class="st9" points="217.82,106.37 217.82,106.17 223.45,102.92 223.45,103.12 					"/>
				</g>
				<g>
					<polygon class="st5" points="223.57,99.34 223.56,96.01 229.18,92.77 229.19,96.09 					"/>
				</g>
				<g>
					<polygon class="st9" points="223.56,96.01 223.56,95.91 229.18,92.66 229.18,92.77 					"/>
				</g>
				<g>
					<polygon class="st5" points="189.15,157.97 189.14,154.64 194.77,151.4 194.78,154.72 					"/>
				</g>
				<g>
					<polygon class="st9" points="189.14,154.64 189.14,154.45 194.77,151.2 194.77,151.4 					"/>
				</g>
				<g>
					<polygon class="st5" points="194.89,147.61 194.88,144.29 200.5,141.04 200.51,144.36 					"/>
				</g>
				<g>
					<polygon class="st5" points="200.62,137.25 200.61,133.93 206.23,130.68 206.24,134.01 					"/>
				</g>
				<g>
					<polygon class="st9" points="200.61,133.93 200.61,133.73 206.23,130.48 206.23,130.68 					"/>
				</g>
				<g>
					<polygon class="st5" points="206.35,126.9 206.34,123.57 211.97,120.32 211.98,123.65 					"/>
				</g>
				<g>
					<polygon class="st9" points="212.07,113.21 212.07,113.02 217.7,109.77 217.7,109.96 					"/>
				</g>
				<g>
					<polygon class="st9" points="217.81,102.85 217.81,102.66 223.44,99.41 223.44,99.6 					"/>
				</g>
				<g>
					<polygon class="st5" points="189.14,154.45 189.13,151.12 194.76,147.88 194.77,151.2 					"/>
				</g>
				<g>
					<polygon class="st9" points="189.13,151.12 189.13,150.93 194.76,147.68 194.76,147.88 					"/>
				</g>
				<g>
					<polygon class="st5" points="194.88,144.09 194.87,140.77 200.49,137.52 200.5,140.84 					"/>
				</g>
				<g>
					<polygon class="st9" points="194.87,140.77 194.87,140.57 200.49,137.33 200.49,137.52 					"/>
				</g>
				<g>
					<polygon class="st9" points="200.6,130.41 200.6,130.22 206.22,126.97 206.22,127.16 					"/>
				</g>
				<g>
					<polygon class="st9" points="206.33,120.05 206.33,119.85 211.96,116.61 211.96,116.8 					"/>
				</g>
				<g>
					<polygon class="st5" points="212.07,113.02 212.06,109.69 217.69,106.45 217.7,109.77 					"/>
				</g>
				<g>
					<polygon class="st9" points="212.06,109.69 212.06,109.5 217.69,106.25 217.69,106.45 					"/>
				</g>
				<g>
					<polygon class="st5" points="217.81,102.66 217.8,99.33 223.43,96.09 223.44,99.41 					"/>
				</g>
				<g>
					<polygon class="st9" points="217.8,99.33 217.8,99.23 223.43,95.98 223.43,96.09 					"/>
				</g>
				<g>
					<polygon class="st5" points="183.4,161.29 183.39,157.97 189.02,154.72 189.03,158.04 					"/>
				</g>
				<g>
					<polygon class="st9" points="183.39,157.97 183.39,157.77 189.02,154.52 189.02,154.72 					"/>
				</g>
				<g>
					<polygon class="st9" points="189.12,147.61 189.12,147.41 194.75,144.16 194.75,144.36 					"/>
				</g>
				<g>
					<polygon class="st9" points="194.86,137.25 194.86,137.05 200.48,133.81 200.48,134 					"/>
				</g>
				<g>
					<polygon class="st5" points="200.6,130.22 200.59,126.89 206.21,123.64 206.22,126.97 					"/>
				</g>
				<g>
					<polygon class="st9" points="200.59,126.89 200.59,126.7 206.21,123.45 206.21,123.64 					"/>
				</g>
				<g>
					<polygon class="st5" points="206.33,119.85 206.32,116.53 211.95,113.28 211.96,116.61 					"/>
				</g>
				<g>
					<polygon class="st9" points="206.32,116.53 206.32,116.34 211.95,113.09 211.95,113.28 					"/>
				</g>
				<g>
					<polygon class="st5" points="212.06,109.5 212.05,106.17 217.68,102.93 217.69,106.25 					"/>
				</g>
				<g>
					<polygon class="st9" points="212.05,106.17 212.05,105.98 217.68,102.74 217.68,102.93 					"/>
				</g>
				<g>
					<polygon class="st5" points="183.39,157.77 183.38,154.44 189.01,151.2 189.02,154.52 					"/>
				</g>
				<g>
					<polygon class="st5" points="189.12,147.41 189.11,144.09 194.74,140.84 194.75,144.16 					"/>
				</g>
				<g>
					<polygon class="st9" points="189.11,144.09 189.11,143.9 194.74,140.65 194.74,140.84 					"/>
				</g>
				<g>
					<polygon class="st9" points="194.85,133.73 194.85,133.54 200.47,130.29 200.47,130.48 					"/>
				</g>
				<g>
					<polygon class="st5" points="200.59,126.7 200.58,123.37 206.2,120.13 206.21,123.45 					"/>
				</g>
				<g>
					<polygon class="st5" points="206.32,116.34 206.31,113.02 211.94,109.77 211.95,113.09 					"/>
				</g>
				<g>
					<polygon class="st9" points="206.31,113.02 206.31,112.82 211.94,109.57 211.94,109.77 					"/>
				</g>
				<g>
					<polygon class="st9" points="212.04,102.66 212.04,102.56 217.67,99.31 217.67,99.41 					"/>
				</g>
				<g>
					<polygon class="st5" points="177.65,164.61 177.64,161.29 183.26,158.04 183.27,161.36 					"/>
				</g>
				<g>
					<polygon class="st9" points="177.64,161.29 177.64,161.09 183.26,157.84 183.26,158.04 					"/>
				</g>
				<g>
					<polygon class="st9" points="183.37,150.93 183.37,150.73 189,147.48 189,147.68 					"/>
				</g>
				<g>
					<polygon class="st5" points="189.11,143.9 189.1,140.57 194.73,137.33 194.74,140.65 					"/>
				</g>
				<g>
					<polygon class="st9" points="189.1,140.57 189.1,140.37 194.73,137.13 194.73,137.33 					"/>
				</g>
				<g>
					<polygon class="st9" points="194.84,130.21 194.84,130.02 200.46,126.77 200.46,126.96 					"/>
				</g>
				<g>
					<polygon class="st5" points="200.58,123.17 200.57,119.85 206.19,116.6 206.2,119.93 					"/>
				</g>
				<g>
					<polygon class="st9" points="200.57,119.85 200.57,119.66 206.19,116.41 206.19,116.6 					"/>
				</g>
				<g>
					<polygon class="st5" points="206.31,112.82 206.3,109.49 211.93,106.25 211.94,109.57 					"/>
				</g>
				<g>
					<polygon class="st9" points="206.3,109.49 206.3,109.3 211.93,106.06 211.93,106.25 					"/>
				</g>
				<g>
					<polygon class="st9" points="177.63,157.77 177.63,157.57 183.25,154.33 183.25,154.52 					"/>
				</g>
				<g>
					<polygon class="st5" points="183.37,150.73 183.36,147.41 188.99,144.16 189,147.48 					"/>
				</g>
				<g>
					<polygon class="st9" points="183.36,147.41 183.36,147.22 188.99,143.97 188.99,144.16 					"/>
				</g>
				<g>
					<polygon class="st9" points="189.09,137.05 189.09,136.86 194.72,133.61 194.72,133.8 					"/>
				</g>
				<g>
					<polygon class="st5" points="194.84,130.02 194.83,126.69 200.45,123.45 200.46,126.77 					"/>
				</g>
				<g>
					<polygon class="st5" points="200.57,119.66 200.56,116.34 206.18,113.09 206.19,116.41 					"/>
				</g>
				<g>
					<polygon class="st9" points="200.56,116.34 200.56,116.14 206.18,112.89 206.18,113.09 					"/>
				</g>
				<g>
					<polygon class="st5" points="206.3,109.3 206.29,105.98 211.92,102.73 211.93,106.06 					"/>
				</g>
				<g>
					<polygon class="st9" points="206.29,105.98 206.29,105.88 211.92,102.63 211.92,102.73 					"/>
				</g>
				<g>
					<polygon class="st5" points="177.63,157.57 177.62,154.25 183.24,151 183.25,154.33 					"/>
				</g>
				<g>
					<polygon class="st9" points="177.62,154.25 177.62,154.05 183.24,150.81 183.24,151 					"/>
				</g>
				<g>
					<polygon class="st5" points="189.09,136.86 189.08,133.53 194.71,130.28 194.72,133.61 					"/>
				</g>
				<g>
					<polygon class="st9" points="189.08,133.53 189.08,133.34 194.71,130.09 194.71,130.28 					"/>
				</g>
				<g>
					<polygon class="st5" points="194.83,126.5 194.82,123.17 200.44,119.93 200.45,123.25 					"/>
				</g>
				<g>
					<polygon class="st9" points="200.55,112.82 200.55,112.63 206.17,109.38 206.17,109.57 					"/>
				</g>
				<g>
					<polygon class="st5" points="171.89,164.41 171.88,161.09 177.5,157.84 177.51,161.16 					"/>
				</g>
				<g>
					<polygon class="st9" points="177.61,150.73 177.61,150.54 183.23,147.29 183.23,147.48 					"/>
				</g>
				<g>
					<polygon class="st5" points="183.35,143.7 183.34,140.37 188.97,137.12 188.98,140.45 					"/>
				</g>
				<g>
					<polygon class="st9" points="183.34,140.37 183.34,140.18 188.97,136.93 188.97,137.12 					"/>
				</g>
				<g>
					<polygon class="st5" points="189.08,133.34 189.07,130.02 194.7,126.77 194.71,130.09 					"/>
				</g>
				<g>
					<polygon class="st5" points="194.82,122.98 194.81,119.66 200.43,116.41 200.44,119.73 					"/>
				</g>
				<g>
					<polygon class="st9" points="194.81,119.66 194.81,119.46 200.43,116.21 200.43,116.41 					"/>
				</g>
				<g>
					<polygon class="st9" points="200.54,109.3 200.54,109.2 206.16,105.95 206.16,106.05 					"/>
				</g>
				<g>
					<polygon class="st5" points="166.14,171.26 166.13,167.93 171.75,164.69 171.76,168.01 					"/>
				</g>
				<g>
					<polygon class="st9" points="166.13,167.93 166.13,167.73 171.75,164.49 171.75,164.69 					"/>
				</g>
				<g>
					<polygon class="st5" points="171.88,160.9 171.87,157.57 177.49,154.32 177.5,157.65 					"/>
				</g>
				<g>
					<polygon class="st9" points="171.87,157.57 171.87,157.37 177.49,154.13 177.49,154.32 					"/>
				</g>
				<g>
					<polygon class="st5" points="177.61,150.54 177.6,147.22 183.22,143.97 183.23,147.29 					"/>
				</g>
				<g>
					<polygon class="st9" points="183.33,136.85 183.33,136.66 188.96,133.41 188.96,133.6 					"/>
				</g>
				<g>
					<polygon class="st5" points="189.07,129.82 189.06,126.49 194.69,123.25 194.7,126.57 					"/>
				</g>
				<g>
					<polygon class="st5" points="194.81,119.46 194.8,116.14 200.42,112.89 200.43,116.21 					"/>
				</g>
				<g>
					<polygon class="st5" points="166.13,167.73 166.12,164.41 171.74,161.16 171.75,164.49 					"/>
				</g>
				<g>
					<polygon class="st5" points="171.87,157.37 171.86,154.05 177.48,150.8 177.49,154.13 					"/>
				</g>
				<g>
					<polygon class="st9" points="171.86,154.05 171.86,153.86 177.48,150.61 177.48,150.8 					"/>
				</g>
				<g>
					<polygon class="st5" points="177.6,147.02 177.59,143.69 183.21,140.45 183.22,143.77 					"/>
				</g>
				<g>
					<polygon class="st5" points="183.33,136.66 183.32,133.34 188.95,130.09 188.96,133.41 					"/>
				</g>
				<g>
					<polygon class="st9" points="189.05,122.88 189.05,122.78 194.68,119.53 194.68,119.63 					"/>
				</g>
				<g>
					<polygon class="st5" points="194.8,115.95 194.79,112.62 200.41,109.38 200.42,112.7 					"/>
				</g>
				<g>
					<polygon class="st9" points="194.79,112.62 194.79,112.52 200.41,109.27 200.41,109.38 					"/>
				</g>
				<g>
					<polygon class="st5" points="166.12,164.22 166.11,160.9 171.73,157.65 171.74,160.97 					"/>
				</g>
				<g>
					<polygon class="st5" points="171.86,153.86 171.85,150.54 177.47,147.29 177.48,150.61 					"/>
				</g>
				<g>
					<polygon class="st9" points="177.58,140.17 177.58,139.98 183.2,136.73 183.2,136.92 					"/>
				</g>
				<g>
					<polygon class="st5" points="183.32,133.14 183.31,129.82 188.94,126.57 188.95,129.89 					"/>
				</g>
				<g>
					<polygon class="st5" points="189.05,122.78 189.04,119.46 194.67,116.21 194.68,119.53 					"/>
				</g>
				<g>
					<polygon class="st5" points="166.11,160.7 166.1,157.38 171.72,154.13 171.73,157.45 					"/>
				</g>
				<g>
					<polygon class="st9" points="166.1,157.38 166.1,157.18 171.72,153.94 171.72,154.13 					"/>
				</g>
				<g>
					<polygon class="st9" points="171.84,147.01 171.84,146.82 177.46,143.58 177.46,143.77 					"/>
				</g>
				<g>
					<polygon class="st5" points="177.58,139.98 177.57,136.66 183.19,133.41 183.2,136.73 					"/>
				</g>
				<g>
					<polygon class="st9" points="177.57,136.66 177.57,136.56 183.19,133.32 183.19,133.41 					"/>
				</g>
				<g>
					<polygon class="st5" points="183.31,129.62 183.3,126.3 188.93,123.05 188.94,126.38 					"/>
				</g>
				<g>
					<polygon class="st5" points="189.04,119.27 189.03,115.94 194.66,112.7 194.67,116.02 					"/>
				</g>
				<g>
					<polygon class="st9" points="189.03,115.94 189.03,115.84 194.66,112.59 194.66,112.7 					"/>
				</g>
				<g>
					<polygon class="st9" points="166.09,153.86 166.09,153.66 171.71,150.42 171.71,150.61 					"/>
				</g>
				<g>
					<polygon class="st9" points="171.83,143.49 171.83,143.3 177.45,140.06 177.45,140.25 					"/>
				</g>
				<g>
					<polygon class="st5" points="183.3,126.1 183.29,122.78 188.92,119.53 188.93,122.86 					"/>
				</g>
				<g>
					<polygon class="st9" points="183.29,122.78 183.29,122.59 188.92,119.34 188.92,119.53 					"/>
				</g>
				<g>
					<polygon class="st5" points="166.09,153.66 166.08,150.34 171.7,147.09 171.71,150.42 					"/>
				</g>
				<g>
					<polygon class="st5" points="171.83,143.3 171.82,139.98 177.44,136.73 177.45,140.06 					"/>
				</g>
				<g>
					<polygon class="st9" points="171.82,139.98 171.82,139.78 177.44,136.53 177.44,136.73 					"/>
				</g>
				<g>
					<polygon class="st5" points="177.56,132.95 177.55,129.62 183.17,126.37 183.18,129.7 					"/>
				</g>
				<g>
					<polygon class="st5" points="183.29,122.59 183.28,119.27 188.91,116.02 188.92,119.34 					"/>
				</g>
				<g>
					<polygon class="st5" points="166.08,150.15 166.07,146.82 171.69,143.57 171.7,146.9 					"/>
				</g>
				<g>
					<polygon class="st9" points="166.07,146.82 166.07,146.63 171.69,143.38 171.69,143.57 					"/>
				</g>
				<g>
					<polygon class="st5" points="171.82,139.78 171.81,136.46 177.43,133.21 177.44,136.53 					"/>
				</g>
				<g>
					<polygon class="st5" points="177.55,129.42 177.54,126.1 183.16,122.85 183.17,126.18 					"/>
				</g>
				<g>
					<polygon class="st9" points="177.54,126.1 177.54,125.91 183.16,122.66 183.16,122.85 					"/>
				</g>
				<g>
					<polygon class="st5" points="166.07,146.63 166.06,143.3 171.68,140.06 171.69,143.38 					"/>
				</g>
				<g>
					<polygon class="st9" points="171.8,132.94 171.8,132.75 177.42,129.5 177.42,129.7 					"/>
				</g>
				<g>
					<polygon class="st5" points="177.54,125.91 177.53,122.59 183.15,119.34 183.16,122.66 					"/>
				</g>
				<g>
					<polygon class="st5" points="166.06,143.11 166.05,139.78 171.67,136.54 171.68,139.86 					"/>
				</g>
				<g>
					<polygon class="st5" points="171.8,132.75 171.79,129.42 177.41,126.17 177.42,129.5 					"/>
				</g>
				<g>
					<polygon class="st9" points="171.79,129.42 171.79,129.23 177.41,125.98 177.41,126.17 					"/>
				</g>
				<g>
					<polygon class="st5" points="166.05,139.59 166.04,136.27 171.66,133.02 171.67,136.34 					"/>
				</g>
				<g>
					<polygon class="st9" points="166.04,136.27 166.04,136.07 171.66,132.82 171.66,133.02 					"/>
				</g>
				<g>
					<polygon class="st5" points="166.04,136.07 166.03,132.75 171.65,129.5 171.66,132.82 					"/>
				</g>
				<g>
					<polygon class="st9" points="166.03,132.75 166.03,132.56 171.65,129.31 171.65,129.5 					"/>
				</g>
				<g>
					<polygon class="st5" points="166.03,132.56 166.02,129.23 171.64,125.99 171.65,129.31 					"/>
				</g>
				<g>
					<polygon class="st9" points="166.02,129.23 166.02,129.13 171.64,125.88 171.64,125.99 					"/>
				</g>
				<g>
					<polygon class="st9" points="229.41,127.68 235.33,124.26 235.33,124.45 229.41,127.87 					"/>
				</g>
				<g>
					<polygon class="st5" points="229.41,127.68 229.4,124.36 235.32,120.94 235.33,124.26 					"/>
				</g>
				<g>
					<polygon class="st9" points="229.4,124.16 235.32,120.74 235.32,120.94 229.4,124.36 					"/>
				</g>
				<g>
					<polygon class="st9" points="229.39,120.64 235.31,117.22 235.31,117.41 229.39,120.83 					"/>
				</g>
				<g>
					<polygon class="st5" points="223.65,131 223.65,127.68 229.27,124.43 229.28,127.75 					"/>
				</g>
				<g>
					<polygon class="st5" points="229.39,120.64 229.38,117.32 235.3,113.9 235.31,117.22 					"/>
				</g>
				<g>
					<polygon class="st9" points="229.38,117.12 235.3,113.7 235.3,113.9 229.38,117.32 					"/>
				</g>
				<g>
					<polygon class="st9" points="229.37,113.61 235.29,110.19 235.29,110.38 229.37,113.8 					"/>
				</g>
				<g>
					<polygon class="st5" points="223.63,123.96 223.63,120.64 229.25,117.39 229.26,120.72 					"/>
				</g>
				<g>
					<polygon class="st5" points="217.89,130.8 217.88,127.48 223.51,124.23 223.52,127.55 					"/>
				</g>
				<g>
					<polygon class="st5" points="223.62,120.44 223.62,117.12 229.24,113.87 229.25,117.2 					"/>
				</g>
				<g>
					<polygon class="st5" points="229.36,110.09 229.35,106.76 235.27,103.34 235.28,106.67 					"/>
				</g>
				<g>
					<polygon class="st11" points="235.29,85.62 235.3,89.13 229.31,92.59 223.56,95.91 217.8,99.23 212.04,102.56 206.29,105.88 
						200.54,109.2 194.79,112.52 189.03,115.84 183.28,119.16 177.53,122.48 171.78,125.81 166.02,129.13 165.94,125.65 					"/>
				</g>
				<g>
					<path class="st5" d="M238.43,79.91l-75.63,43.66l0.15,53.54l75.63-43.66L238.43,79.91z M166.01,171.43l-0.05-45.89l69.4-39.96
						l0.06,45.88L166.01,171.43"/>
				</g>
				<g>
					<polygon class="st9" points="235.34,127.77 229.42,131.19 229.42,131.39 235.34,127.97 					"/>
				</g>
				<g>
					<polygon class="st9" points="217.91,138.03 217.91,137.84 223.54,134.59 223.54,134.79 					"/>
				</g>
				<g>
					<polygon class="st5" points="217.91,137.84 217.9,134.51 223.53,131.27 223.54,134.59 					"/>
				</g>
				<g>
					<polygon class="st5" points="212.16,144.68 212.15,141.36 217.78,138.11 217.79,141.43 					"/>
				</g>
				<g>
					<polygon class="st5" points="212.15,141.16 212.14,137.84 217.77,134.59 217.78,137.91 					"/>
				</g>
				<g>
					<polygon class="st9" points="206.4,144.68 206.4,144.48 212.03,141.23 212.03,141.43 					"/>
				</g>
				<g>
					<polygon class="st5" points="212.14,137.65 212.13,134.32 217.76,131.08 217.77,134.4 					"/>
				</g>
				<g>
					<polygon class="st9" points="206.39,141.16 206.39,140.97 212.02,137.72 212.02,137.91 					"/>
				</g>
				<g>
					<polygon class="st5" points="200.66,151.32 200.65,148 206.27,144.75 206.28,148.08 					"/>
				</g>
				<g>
					<polygon class="st5" points="217.86,120.25 217.85,116.92 223.48,113.67 223.49,117 					"/>
				</g>
				<g>
					<polygon class="st5" points="223.59,109.89 223.59,106.56 229.21,103.32 229.22,106.64 					"/>
				</g>
				<g>
					<polygon class="st9" points="223.59,106.56 223.59,106.37 229.21,103.12 229.21,103.32 					"/>
				</g>
				<g>
					<polygon class="st5" points="229.33,99.53 229.32,96.21 235.24,92.79 235.25,96.11 					"/>
				</g>
				<g>
					<polygon class="st9" points="235.29,85.62 235.49,131.31 235.34,127.97 235.34,127.77 235.33,124.45 235.33,124.26 
						235.32,120.94 235.32,120.74 235.31,117.41 235.31,117.22 235.3,113.9 235.3,113.7 235.29,110.38 235.29,110.19 235.28,106.86 
						235.28,106.67 235.27,103.34 235.27,103.14 235.26,99.82 235.26,99.63 235.25,96.31 235.25,96.11 235.24,92.79 235.24,92.59 
						235.23,89.27 235.23,89.17 					"/>
				</g>
				<g>
					<polygon class="st9" points="200.64,144.48 200.64,144.29 206.26,141.04 206.26,141.23 					"/>
				</g>
				<g>
					<polygon class="st5" points="206.38,137.45 206.37,134.12 212,130.88 212.01,134.2 					"/>
				</g>
				<g>
					<polygon class="st9" points="206.37,134.12 206.37,133.93 212,130.68 212,130.88 					"/>
				</g>
				<g>
					<polygon class="st5" points="212.11,127.09 212.1,123.77 217.73,120.52 217.74,123.84 					"/>
				</g>
				<g>
					<polygon class="st9" points="212.1,123.77 212.1,123.58 217.73,120.33 217.73,120.52 					"/>
				</g>
				<g>
					<polygon class="st5" points="223.59,106.37 223.58,103.05 229.2,99.8 229.21,103.12 					"/>
				</g>
				<g>
					<polygon class="st9" points="223.58,103.05 223.58,102.85 229.2,99.6 229.2,99.8 					"/>
				</g>
				<g>
					<polygon class="st5" points="206.37,133.93 206.36,130.61 211.99,127.36 212,130.68 					"/>
				</g>
				<g>
					<polygon class="st5" points="217.84,113.21 217.83,109.88 223.46,106.64 223.47,109.96 					"/>
				</g>
				<g>
					<polygon class="st9" points="223.57,99.53 223.57,99.34 229.19,96.09 229.19,96.28 					"/>
				</g>
				<g>
					<polygon class="st9" points="194.89,147.8 194.89,147.61 200.51,144.36 200.51,144.55 					"/>
				</g>
				<g>
					<polygon class="st5" points="200.63,140.77 200.62,137.44 206.24,134.2 206.25,137.52 					"/>
				</g>
				<g>
					<polygon class="st9" points="212.08,116.73 212.08,116.53 217.71,113.28 217.71,113.48 					"/>
				</g>
				<g>
					<polygon class="st5" points="217.83,109.69 217.82,106.37 223.45,103.12 223.46,106.45 					"/>
				</g>
				<g>
					<polygon class="st9" points="223.56,95.91 223.56,96.01 223.57,99.34 223.57,99.53 223.58,102.85 223.58,103.05 223.59,106.37 
						223.59,106.56 223.59,109.89 223.6,110.08 223.6,113.41 223.61,113.6 223.61,116.93 223.62,117.12 223.62,120.44 
						223.63,120.64 223.63,123.96 223.64,124.16 223.64,127.48 223.65,127.68 223.65,131 223.66,131.19 223.66,134.51 
						223.67,134.71 223.67,138.04 223.68,138.13 223.55,138.21 223.55,138.11 223.54,134.79 223.54,134.59 223.53,131.27 
						223.53,131.07 223.52,127.75 223.52,127.55 223.51,124.23 223.51,124.13 223.56,120.58 223.5,120.52 223.49,117.19 223.49,117 
						223.48,113.67 223.48,113.48 223.47,110.16 223.47,109.96 223.46,106.64 223.46,106.45 223.45,103.12 223.45,102.92 
						223.44,99.6 223.44,99.41 223.43,96.09 223.43,95.98 					"/>
				</g>
				<g>
					
						<ellipse transform="matrix(0.5025 -0.8646 0.8646 0.5025 49.6258 241.868)" class="st3" cx="234.96" cy="77.82" rx="1.98" ry="1.15"/>
				</g>
				<g>
					<polygon class="st9" points="194.88,144.29 194.88,144.09 200.5,140.84 200.5,141.04 					"/>
				</g>
				<g>
					<polygon class="st9" points="206.34,123.57 206.34,123.38 211.97,120.13 211.97,120.32 					"/>
				</g>
				<g>
					<polygon class="st5" points="212.08,116.53 212.07,113.21 217.7,109.96 217.71,113.28 					"/>
				</g>
				<g>
					<polygon class="st5" points="217.82,106.17 217.81,102.85 223.44,99.6 223.45,102.92 					"/>
				</g>
				<g>
					<polygon class="st5" points="200.61,133.73 200.6,130.41 206.22,127.16 206.23,130.48 					"/>
				</g>
				<g>
					
						<ellipse transform="matrix(0.5025 -0.8646 0.8646 0.5025 45.8131 239.659)" class="st0" cx="231.14" cy="80.02" rx="1.98" ry="1.15"/>
				</g>
				<g>
					<polygon class="st5" points="206.34,123.38 206.33,120.05 211.96,116.8 211.97,120.13 					"/>
				</g>
				<g>
					<polygon class="st9" points="217.8,99.23 217.8,99.33 217.81,102.66 217.81,102.85 217.82,106.17 217.82,106.37 217.83,109.69 
						217.83,109.88 217.84,113.21 217.84,113.41 217.85,116.73 217.85,116.92 217.86,120.25 217.86,120.44 217.87,123.76 
						217.87,123.86 217.81,127.42 217.88,127.48 217.89,130.8 217.89,131 217.9,134.32 217.9,134.51 217.91,137.84 217.91,138.03 
						217.92,141.36 217.92,141.45 217.79,141.53 217.79,141.43 217.78,138.11 217.78,137.91 217.77,134.59 217.77,134.4 
						217.76,131.08 217.76,130.88 217.75,127.55 217.75,127.36 217.74,124.04 217.74,123.84 217.73,120.52 217.73,120.33 
						217.72,117 217.72,116.81 217.71,113.48 217.71,113.28 217.7,109.96 217.7,109.77 217.69,106.45 217.69,106.25 217.68,102.93 
						217.68,102.74 217.67,99.41 217.67,99.31 					"/>
				</g>
				<g>
					<polygon class="st5" points="189.13,150.93 189.12,147.61 194.75,144.36 194.76,147.68 					"/>
				</g>
				<g>
					<polygon class="st5" points="194.87,140.57 194.86,137.25 200.48,134 200.49,137.33 					"/>
				</g>
				<g>
					<path class="st4" d="M227.31,80.62c0.78-0.45,1.41-0.1,1.42,0.8c0,0.89-0.63,1.98-1.41,2.43c-0.77,0.45-1.4,0.08-1.4-0.81
						C225.91,82.14,226.54,81.06,227.31,80.62z"/>
				</g>
				<g>
					<polygon class="st9" points="183.38,154.44 183.38,154.25 189.01,151.01 189.01,151.2 					"/>
				</g>
				<g>
					<polygon class="st5" points="194.86,137.05 194.85,133.73 200.47,130.48 200.48,133.81 					"/>
				</g>
				<g>
					<polygon class="st9" points="200.58,123.37 200.58,123.17 206.2,119.93 206.2,120.13 					"/>
				</g>
				<g>
					<polygon class="st5" points="212.05,105.98 212.04,102.66 217.67,99.41 217.68,102.74 					"/>
				</g>
				<g>
					<polygon class="st5" points="183.38,154.25 183.37,150.93 189,147.68 189.01,151.01 					"/>
				</g>
				<g>
					<polygon class="st5" points="194.85,133.54 194.84,130.21 200.46,126.96 200.47,130.29 					"/>
				</g>
				<g>
					<polygon class="st5" points="177.64,161.09 177.63,157.77 183.25,154.52 183.26,157.84 					"/>
				</g>
				<g>
					<polygon class="st5" points="189.1,140.37 189.09,137.05 194.72,133.8 194.73,137.13 					"/>
				</g>
				<g>
					<polygon class="st9" points="194.83,126.69 194.83,126.5 200.45,123.25 200.45,123.45 					"/>
				</g>
				<g>
					<polygon class="st9" points="206.29,105.88 206.29,105.98 206.3,109.3 206.3,109.49 206.31,112.82 206.31,113.02 
						206.32,116.34 206.32,116.53 206.33,119.85 206.33,120.05 206.34,123.38 206.34,123.57 206.35,126.9 206.35,127.09 
						206.36,130.41 206.36,130.61 206.37,133.93 206.37,134.12 206.38,137.45 206.38,137.64 206.39,140.97 206.39,141.16 
						206.4,144.48 206.4,144.68 206.41,148 206.41,148.1 206.28,148.17 206.28,148.08 206.27,144.75 206.27,144.56 206.26,141.23 
						206.26,141.04 206.25,137.72 206.25,137.52 206.24,134.2 206.24,134.01 206.23,130.68 206.23,130.48 206.22,127.16 
						206.22,126.97 206.21,123.64 206.21,123.45 206.2,120.13 206.2,119.93 206.19,116.6 206.19,116.41 206.18,113.09 
						206.18,112.89 206.17,109.57 206.17,109.38 206.16,106.05 206.16,105.95 					"/>
				</g>
				<g>
					<polygon class="st5" points="171.9,167.93 171.89,164.61 177.51,161.36 177.52,164.68 					"/>
				</g>
				<g>
					<polygon class="st9" points="171.89,164.61 171.89,164.41 177.51,161.16 177.51,161.36 					"/>
				</g>
				<g>
					<polygon class="st5" points="183.36,147.22 183.35,143.89 188.98,140.65 188.99,143.97 					"/>
				</g>
				<g>
					<polygon class="st9" points="183.35,143.89 183.35,143.7 188.98,140.45 188.98,140.65 					"/>
				</g>
				<g>
					<polygon class="st9" points="194.82,123.17 194.82,122.98 200.44,119.73 200.44,119.93 					"/>
				</g>
				<g>
					<polygon class="st5" points="200.56,116.14 200.55,112.82 206.17,109.57 206.18,112.89 					"/>
				</g>
				<g>
					<polygon class="st9" points="171.88,161.09 171.88,160.9 177.5,157.65 177.5,157.84 					"/>
				</g>
				<g>
					<polygon class="st5" points="177.62,154.05 177.61,150.73 183.23,147.48 183.24,150.81 					"/>
				</g>
				<g>
					<polygon class="st9" points="189.07,130.02 189.07,129.82 194.7,126.57 194.7,126.77 					"/>
				</g>
				<g>
					<polygon class="st5" points="200.55,112.63 200.54,109.3 206.16,106.05 206.17,109.38 					"/>
				</g>
				<g>
					<polygon class="st9" points="200.54,109.2 200.54,109.3 200.55,112.63 200.55,112.82 200.56,116.14 200.56,116.34 
						200.57,119.66 200.57,119.85 200.58,123.17 200.58,123.37 200.59,126.7 200.59,126.89 200.6,130.22 200.6,130.41 
						200.61,133.73 200.61,133.93 200.62,137.25 200.62,137.44 200.63,140.77 200.63,140.97 200.64,144.29 200.64,144.48 
						200.65,147.8 200.65,148 200.66,151.32 200.66,151.42 200.53,151.49 200.53,151.4 200.52,148.08 200.52,147.88 200.51,144.55 
						200.51,144.36 200.5,141.04 200.5,140.84 200.49,137.52 200.49,137.33 200.48,134 200.48,133.81 200.47,130.48 200.47,130.29 
						200.46,126.96 200.46,126.77 200.45,123.45 200.45,123.25 200.44,119.93 200.44,119.73 200.43,116.41 200.43,116.21 
						200.42,112.89 200.42,112.7 200.41,109.38 200.41,109.27 					"/>
				</g>
				<g>
					<polygon class="st9" points="177.6,147.22 177.6,147.02 183.22,143.77 183.22,143.97 					"/>
				</g>
				<g>
					<polygon class="st5" points="183.34,140.18 183.33,136.85 188.96,133.6 188.97,136.93 					"/>
				</g>
				<g>
					<polygon class="st9" points="189.06,126.49 189.06,126.4 194.69,123.15 194.69,123.25 					"/>
				</g>
				<g>
					<polygon class="st9" points="194.8,116.14 194.8,115.95 200.42,112.7 200.42,112.89 					"/>
				</g>
				<g>
					<polygon class="st9" points="166.12,164.41 166.12,164.22 171.74,160.97 171.74,161.16 					"/>
				</g>
				<g>
					<polygon class="st9" points="177.59,143.69 177.59,143.5 183.21,140.26 183.21,140.45 					"/>
				</g>
				<g>
					<polygon class="st9" points="183.32,133.34 183.32,133.14 188.95,129.89 188.95,130.09 					"/>
				</g>
				<g>
					<polygon class="st10" points="194.74,119.59 194.75,123.11 194.69,123.15 189.06,126.4 189,126.44 188.99,122.91 
						189.05,122.88 194.68,119.63 					"/>
				</g>
				<g>
					<polygon class="st9" points="194.79,112.52 194.79,112.62 194.8,115.95 194.8,116.14 194.81,119.46 194.81,119.66 
						194.82,122.98 194.82,123.17 194.83,126.5 194.83,126.69 194.84,130.02 194.84,130.21 194.85,133.54 194.85,133.73 
						194.86,137.05 194.86,137.25 194.87,140.57 194.87,140.77 194.88,144.09 194.88,144.29 194.89,147.61 194.89,147.8 
						194.9,151.12 194.9,151.32 194.91,154.65 194.91,154.74 194.78,154.82 194.78,154.72 194.77,151.4 194.77,151.2 194.76,147.87 
						194.76,147.68 194.75,144.36 194.75,144.16 194.74,140.84 194.74,140.65 194.73,137.33 194.73,137.13 194.72,133.8 
						194.72,133.61 194.71,130.28 194.71,130.09 194.7,126.77 194.7,126.57 194.69,123.25 194.69,123.15 194.74,119.59 
						194.68,119.53 194.67,116.21 194.67,116.02 194.66,112.7 194.66,112.59 					"/>
				</g>
				<g>
					<polygon class="st9" points="166.11,160.9 166.11,160.7 171.73,157.45 171.73,157.65 					"/>
				</g>
				<g>
					<polygon class="st9" points="171.85,150.54 171.85,150.34 177.47,147.09 177.47,147.29 					"/>
				</g>
				<g>
					<polygon class="st5" points="177.59,143.5 177.58,140.17 183.2,136.92 183.21,140.26 					"/>
				</g>
				<g>
					<polygon class="st9" points="183.31,129.82 183.31,129.62 188.94,126.38 188.94,126.57 					"/>
				</g>
				<g>
					<polygon class="st9" points="189.04,119.46 189.04,119.27 194.67,116.02 194.67,116.21 					"/>
				</g>
				<g>
					<polygon class="st5" points="171.85,150.34 171.84,147.01 177.46,143.77 177.47,147.09 					"/>
				</g>
				<g>
					<polygon class="st9" points="183.3,126.3 183.3,126.1 188.93,122.86 188.93,123.05 					"/>
				</g>
				<g>
					<polygon class="st9" points="189.03,115.84 189.03,115.94 189.04,119.27 189.04,119.46 189.05,122.78 189.05,122.88 
						189,126.44 189.06,126.49 189.07,129.82 189.07,130.02 189.08,133.34 189.08,133.53 189.09,136.86 189.09,137.05 189.1,140.37 
						189.1,140.57 189.11,143.9 189.11,144.09 189.12,147.41 189.12,147.61 189.13,150.93 189.13,151.12 189.14,154.45 
						189.14,154.64 189.15,157.97 189.15,158.06 189.03,158.14 189.03,158.04 189.02,154.72 189.02,154.52 189.01,151.2 
						189.01,151.01 189,147.68 189,147.48 188.99,144.16 188.99,143.97 188.98,140.65 188.98,140.45 188.97,137.12 188.97,136.93 
						188.96,133.6 188.96,133.41 188.95,130.09 188.95,129.89 188.94,126.57 188.94,126.38 188.93,123.05 188.93,122.86 
						188.92,119.53 188.92,119.34 188.91,116.02 188.91,115.92 					"/>
				</g>
				<g>
					<polygon class="st5" points="166.1,157.18 166.09,153.86 171.71,150.61 171.72,153.94 					"/>
				</g>
				<g>
					<polygon class="st5" points="171.84,146.82 171.83,143.49 177.45,140.25 177.46,143.58 					"/>
				</g>
				<g>
					<polygon class="st10" points="183.25,129.76 183.26,133.28 183.19,133.32 177.57,136.56 177.5,136.6 177.49,133.08 
						177.56,133.04 183.18,129.79 					"/>
				</g>
				<g>
					<polygon class="st9" points="177.56,133.04 177.56,132.95 183.18,129.7 183.18,129.79 					"/>
				</g>
				<g>
					<polygon class="st9" points="166.08,150.34 166.08,150.15 171.7,146.9 171.7,147.09 					"/>
				</g>
				<g>
					<polygon class="st9" points="177.55,129.62 177.55,129.42 183.17,126.18 183.17,126.37 					"/>
				</g>
				<g>
					<polygon class="st9" points="183.28,119.27 183.28,119.16 188.91,115.92 188.91,116.02 					"/>
				</g>
				<g>
					<polygon class="st9" points="183.28,119.16 183.28,119.27 183.29,122.59 183.29,122.78 183.3,126.1 183.3,126.3 183.31,129.62 
						183.31,129.82 183.32,133.14 183.32,133.34 183.33,136.66 183.33,136.85 183.34,140.18 183.34,140.37 183.35,143.7 
						183.35,143.89 183.36,147.22 183.36,147.41 183.37,150.73 183.37,150.93 183.38,154.25 183.38,154.44 183.39,157.77 
						183.39,157.97 183.4,161.29 183.4,161.38 183.27,161.46 183.27,161.36 183.26,158.04 183.26,157.84 183.25,154.52 
						183.25,154.33 183.24,151 183.24,150.81 183.23,147.48 183.23,147.29 183.22,143.97 183.22,143.77 183.21,140.45 
						183.21,140.26 183.2,136.92 183.2,136.73 183.19,133.41 183.19,133.32 183.25,129.76 183.18,129.7 183.17,126.37 
						183.17,126.18 183.16,122.85 183.16,122.66 183.15,119.34 183.15,119.24 					"/>
				</g>
				<g>
					<polygon class="st9" points="171.81,136.46 171.81,136.27 177.43,133.02 177.43,133.21 					"/>
				</g>
				<g>
					<polygon class="st9" points="166.06,143.3 166.06,143.11 171.68,139.86 171.68,140.06 					"/>
				</g>
				<g>
					<polygon class="st5" points="171.81,136.27 171.8,132.94 177.42,129.7 177.43,133.02 					"/>
				</g>
				<g>
					<polygon class="st9" points="177.53,122.59 177.53,122.48 183.15,119.24 183.15,119.34 					"/>
				</g>
				<g>
					<polygon class="st9" points="166.05,139.78 166.05,139.59 171.67,136.34 171.67,136.54 					"/>
				</g>
				<g>
					<polygon class="st5" points="171.79,129.23 171.78,125.91 177.4,122.66 177.41,125.98 					"/>
				</g>
				<g>
					<polygon class="st9" points="165.88,125.69 165.95,129.17 166.02,129.23 166.03,132.56 166.03,132.75 166.04,136.07 
						166.04,136.27 166.05,139.59 166.05,139.78 166.06,143.11 166.06,143.3 166.07,146.63 166.07,146.82 166.08,150.15 
						166.08,150.34 166.09,153.66 166.09,153.86 166.1,157.18 166.1,157.38 166.11,160.7 166.11,160.9 166.12,164.22 166.12,164.41 
						166.13,167.73 166.13,167.93 166.14,171.26 					"/>
				</g>
				<g>
					<polygon class="st0" points="238.43,79.3 238.43,79.91 162.8,123.57 162.8,122.96 					"/>
				</g>
				<g>
					<path class="st2" d="M162.78,115.85l75.63-43.66l0.02,7.11l-75.63,43.66L162.78,115.85z M227.32,83.85
						c0.78-0.45,1.41-1.54,1.41-2.43c0-0.9-0.64-1.25-1.42-0.8c-0.77,0.45-1.4,1.53-1.39,2.42
						C225.92,83.93,226.55,84.29,227.32,83.85 M231.14,81.64c0.78-0.45,1.4-1.54,1.4-2.43c0-0.9-0.63-1.25-1.41-0.8
						c-0.77,0.45-1.4,1.53-1.4,2.42C229.74,81.72,230.37,82.08,231.14,81.64 M234.97,79.43c0.77-0.45,1.4-1.54,1.4-2.42
						c0-0.9-0.64-1.25-1.41-0.8c-0.78,0.45-1.4,1.53-1.4,2.42C233.56,79.51,234.19,79.88,234.97,79.43"/>
				</g>
			</g>
			<g>
				<polygon class="st5" points="200.65,147.8 200.64,144.48 206.26,141.23 206.27,144.56 				"/>
			</g>
		</g>
	</g>
</g>
<g id="DESIGNED_BY_FREEPIK">
</g>
</svg>
