<?xml version="1.0" encoding="utf-8"?>
<!-- Generator: Adobe Illustrator 24.0.3, SVG Export Plug-In . SVG Version: 6.00 Build 0)  -->
<svg version="1.1" xmlns="http://www.w3.org/2000/svg" xmlns:xlink="http://www.w3.org/1999/xlink" x="0px" y="0px"
	 viewBox="0 0 200.26 169.01" style="enable-background:new 0 0 200.26 169.01;" xml:space="preserve">
<style type="text/css">
	.st0{fill:#E72F2C;}
	.st1{opacity:0.5;fill:#BABCBE;}
	.st2{display:none;fill:#047CFF;}
	.st3{fill:#BEC0C2;}
	.st4{fill:#A6A8AB;}
	.st5{fill:#9D9FA2;}
	.st6{fill:#231F20;}
	.st7{fill:#3E3E3F;}
	.st8{fill:#EDEDEE;}
	.st9{enable-background:new    ;}
	.st10{opacity:0.4;}
	.st11{fill:#D8D9DA;}
	.st12{fill:#D5D7D8;}
	.st13{opacity:0.6;}
	.st14{display:none;}
	.st15{display:inline;enable-background:new    ;}
	.st16{fill:#C82926;}
	.st17{fill:#E84E38;}
	.st18{fill:#828487;}
	.st19{fill:#E4E5E6;}
	.st20{fill:#C7C8CA;}
	.st21{fill:#BCBEC0;}
	.st22{fill:#EFEFF0;}
	.st23{opacity:0.43;fill:#FFFFFF;}
	.st24{display:inline;}
	.st25{fill:#CDCFD0;}
	.st26{display:inline;opacity:0.53;}
	.st27{opacity:0.3;fill:#CDCFD0;}
	.st28{opacity:0.32;fill:#B1B3B6;}
	.st29{fill:#FFFFFF;}
	.st30{opacity:0.53;}
	.st31{opacity:0.3;fill:#FFFFFF;}
	.st32{fill:#BABCBE;}
</style>
<g id="BACKGROUND">
</g>
<g id="OBJECTS">
	<g>
		<g>
			<g>
				<path class="st0" d="M11.87,122.76l-0.1-0.17c2.24-1.26,4.22-4.03,4.91-6.9l8.86-36.59c0.59-2.43,1.89-4.47,3.38-5.83
					l-1.36-4.17c-0.43-1.33-1.32-2.01-2.57-1.97c-2.48,0.1-5.96,3.22-7.01,7.56l-8.86,36.59c-0.71,2.92-2.72,5.74-5.01,7.02
					l-0.1-0.17c2.24-1.26,4.22-4.03,4.91-6.9l8.86-36.59c1.09-4.49,4.6-7.61,7.2-7.71c1.33-0.05,2.31,0.7,2.77,2.1l1.33,4.09
					c1.21-1.06,2.52-1.69,3.66-1.73c1.33-0.05,2.31,0.7,2.77,2.1l1.31,4.04l0.19-0.11c2.09-1.21,4-3.83,4.75-6.52
					c1.19-4.28,4.53-7.15,6.93-7.35c1.23-0.11,2.22,0.47,2.77,1.63l1.97,4.18c1.03-0.8,2.09-1.27,3.02-1.35
					c1.23-0.1,2.22,0.47,2.77,1.63l0.9,1.9l0.96-0.55c2.23-1.29,4.24-4.17,4.87-7.02l8.85-39.53c0.99-4.43,4.56-7.71,7.15-7.88
					c1.32-0.08,2.32,0.61,2.81,1.96l1.52,4.14c1.15-0.98,2.37-1.57,3.43-1.64c1.33-0.08,2.32,0.61,2.81,1.96l12.83,35.06l5.8-3.35
					l7.96,4.58l-7.42,4.28c-1.2,0.7-2.38,0.89-3.33,0.55c-0.77-0.28-1.34-0.89-1.66-1.78l-1.46-3.99l-1.31,0.76
					c-1.2,0.69-2.38,0.89-3.33,0.55c-0.77-0.28-1.34-0.89-1.66-1.78L86.19,23.01c-1.53,1.39-2.88,3.48-3.43,5.94l-8.85,39.53
					c-0.66,2.94-2.65,5.81-4.97,7.15l-2.11,1.22c-1.15,0.67-2.29,0.87-3.21,0.59c-0.72-0.23-1.29-0.74-1.65-1.5l-1.94-4.1
					l-0.96,0.56c-1.15,0.67-2.3,0.87-3.21,0.59c-0.72-0.22-1.29-0.74-1.65-1.5l-0.85-1.8c-1.53,1.26-2.95,3.26-3.64,5.74
					c-0.76,2.74-2.71,5.4-4.84,6.63l-1.85,1.07c-1.22,0.71-2.42,0.9-3.37,0.53c-0.79-0.3-1.36-0.96-1.67-1.9l-1.28-3.92l-1.44,0.83
					c-1.22,0.71-2.42,0.9-3.37,0.53c-0.79-0.3-1.36-0.96-1.67-1.9l-1.24-3.8c-1.43,1.35-2.69,3.33-3.26,5.65l-8.86,36.59
					C16.17,118.65,14.16,121.47,11.87,122.76z M36.89,77.72l1.29,3.96c0.29,0.88,0.82,1.5,1.55,1.78c0.89,0.34,2.03,0.16,3.2-0.52
					l1.85-1.07c2.09-1.21,4-3.83,4.75-6.52c0.71-2.54,2.17-4.59,3.75-5.87l-1.99-4.22c-0.52-1.09-1.4-1.62-2.57-1.52
					c-2.34,0.2-5.59,3.01-6.76,7.21c-0.76,2.74-2.71,5.4-4.84,6.63L36.89,77.72z M29.16,73.34l1.26,3.88
					c0.29,0.88,0.82,1.5,1.55,1.78c0.89,0.34,2.03,0.16,3.2-0.52l1.48-0.86l-1.33-4.08c-0.43-1.33-1.33-2.02-2.57-1.97
					C31.65,71.62,30.35,72.26,29.16,73.34z M60.21,71.73l1.94,4.12c0.33,0.7,0.86,1.19,1.52,1.39c0.87,0.27,1.95,0.07,3.06-0.57
					l2.11-1.22c2.23-1.29,4.24-4.18,4.87-7.02l8.85-39.53c0.57-2.53,1.97-4.68,3.55-6.1l-1.54-4.21c-0.47-1.28-1.36-1.91-2.61-1.83
					c-2.51,0.16-5.99,3.38-6.96,7.72l-8.85,39.53c-0.66,2.94-2.65,5.81-4.97,7.15L60.21,71.73z M53.52,69.54l0.87,1.84
					c0.33,0.7,0.86,1.19,1.52,1.39c0.87,0.27,1.95,0.07,3.05-0.57l0.98-0.57l-0.91-1.92c-0.52-1.09-1.4-1.61-2.57-1.52
					C55.57,68.29,54.53,68.75,53.52,69.54z M105.43,58.24l1.47,4.02c0.3,0.83,0.84,1.4,1.55,1.66c0.88,0.32,2.01,0.13,3.16-0.53
					l7.12-4.11l-7.56-4.35L105.43,58.24z M86.35,22.86L99.14,57.8c0.3,0.83,0.84,1.4,1.55,1.66c0.89,0.32,2.01,0.13,3.16-0.53
					l1.34-0.77l-12.84-35.1c-0.47-1.28-1.38-1.91-2.61-1.83C88.69,21.3,87.48,21.89,86.35,22.86z"/>
				
					<rect x="87.23" y="14.71" transform="matrix(0.4984 -0.8669 0.8669 0.4984 27.1456 85.3541)" class="st0" width="0.2" height="9.02"/>
				<polygon class="st0" points="58.19,68.65 50.27,64.08 50.37,63.91 58.29,68.47 				"/>
				
					<rect x="30.15" y="64.83" transform="matrix(0.4977 -0.8673 0.8673 0.4977 -45.158 61.1832)" class="st0" width="0.2" height="9.51"/>
				<path class="st0" d="M11.87,122.76l-0.1-0.17c2.24-1.26,4.22-4.03,4.91-6.9l8.86-36.59c0.59-2.43,1.89-4.47,3.38-5.83
					l-1.36-4.17c-0.43-1.33-1.32-2.01-2.57-1.97c-2.48,0.1-5.96,3.22-7.01,7.56l-8.86,36.59c-0.71,2.92-2.72,5.74-5.01,7.02
					l-0.1-0.17c2.24-1.26,4.22-4.03,4.91-6.9l8.86-36.59c1.09-4.49,4.6-7.61,7.2-7.71c1.33-0.05,2.31,0.7,2.77,2.1l1.33,4.09
					c1.21-1.06,2.52-1.69,3.66-1.73c1.33-0.05,2.31,0.7,2.77,2.1l1.31,4.04l0.19-0.11c2.09-1.21,4-3.83,4.75-6.52
					c1.19-4.28,4.53-7.15,6.93-7.35c1.23-0.11,2.22,0.47,2.77,1.63l1.97,4.18c1.03-0.8,2.09-1.27,3.02-1.35
					c1.23-0.1,2.22,0.47,2.77,1.63l0.9,1.9l0.96-0.55c2.23-1.29,4.24-4.17,4.87-7.02l8.85-39.53c0.99-4.43,4.56-7.71,7.15-7.88
					c1.32-0.08,2.32,0.61,2.81,1.96l1.52,4.14c1.15-0.98,2.37-1.57,3.43-1.64c1.33-0.08,2.32,0.61,2.81,1.96l12.83,35.06l5.8-3.35
					l7.96,4.58l-7.42,4.28c-1.2,0.7-2.38,0.89-3.33,0.55c-0.77-0.28-1.34-0.89-1.66-1.78l-1.46-3.99l-1.31,0.76
					c-1.2,0.69-2.38,0.89-3.33,0.55c-0.77-0.28-1.34-0.89-1.66-1.78L86.19,23.01c-1.53,1.39-2.88,3.48-3.43,5.94l-8.85,39.53
					c-0.66,2.94-2.65,5.81-4.97,7.15l-2.11,1.22c-1.15,0.67-2.29,0.87-3.21,0.59c-0.72-0.23-1.29-0.74-1.65-1.5l-1.94-4.1
					l-0.96,0.56c-1.15,0.67-2.3,0.87-3.21,0.59c-0.72-0.22-1.29-0.74-1.65-1.5l-0.85-1.8c-1.53,1.26-2.95,3.26-3.64,5.74
					c-0.76,2.74-2.71,5.4-4.84,6.63l-1.85,1.07c-1.22,0.71-2.42,0.9-3.37,0.53c-0.79-0.3-1.36-0.96-1.67-1.9l-1.28-3.92l-1.44,0.83
					c-1.22,0.71-2.42,0.9-3.37,0.53c-0.79-0.3-1.36-0.96-1.67-1.9l-1.24-3.8c-1.43,1.35-2.69,3.33-3.26,5.65l-8.86,36.59
					C16.17,118.65,14.16,121.47,11.87,122.76z M36.89,77.72l1.29,3.96c0.29,0.88,0.82,1.5,1.55,1.78c0.89,0.34,2.03,0.16,3.2-0.52
					l1.85-1.07c2.09-1.21,4-3.83,4.75-6.52c0.71-2.54,2.17-4.59,3.75-5.87l-1.99-4.22c-0.52-1.09-1.4-1.62-2.57-1.52
					c-2.34,0.2-5.59,3.01-6.76,7.21c-0.76,2.74-2.71,5.4-4.84,6.63L36.89,77.72z M29.16,73.34l1.26,3.88
					c0.29,0.88,0.82,1.5,1.55,1.78c0.89,0.34,2.03,0.16,3.2-0.52l1.48-0.86l-1.33-4.08c-0.43-1.33-1.33-2.02-2.57-1.97
					C31.65,71.62,30.35,72.26,29.16,73.34z M60.21,71.73l1.94,4.12c0.33,0.7,0.86,1.19,1.52,1.39c0.87,0.27,1.95,0.07,3.06-0.57
					l2.11-1.22c2.23-1.29,4.24-4.18,4.87-7.02l8.85-39.53c0.57-2.53,1.97-4.68,3.55-6.1l-1.54-4.21c-0.47-1.28-1.36-1.91-2.61-1.83
					c-2.51,0.16-5.99,3.38-6.96,7.72l-8.85,39.53c-0.66,2.94-2.65,5.81-4.97,7.15L60.21,71.73z M53.52,69.54l0.87,1.84
					c0.33,0.7,0.86,1.19,1.52,1.39c0.87,0.27,1.95,0.07,3.05-0.57l0.98-0.57l-0.91-1.92c-0.52-1.09-1.4-1.61-2.57-1.52
					C55.57,68.29,54.53,68.75,53.52,69.54z M105.43,58.24l1.47,4.02c0.3,0.83,0.84,1.4,1.55,1.66c0.88,0.32,2.01,0.13,3.16-0.53
					l7.12-4.11l-7.56-4.35L105.43,58.24z M86.35,22.86L99.14,57.8c0.3,0.83,0.84,1.4,1.55,1.66c0.89,0.32,2.01,0.13,3.16-0.53
					l1.34-0.77l-12.84-35.1c-0.47-1.28-1.38-1.91-2.61-1.83C88.69,21.3,87.48,21.89,86.35,22.86z"/>
			</g>
			<path class="st1" d="M111.16,54.82l-7.27,4.2c-2.18,1.26-4.13,0.79-4.85-1.18L84.67,18.56c-1.64-4.49-8.35-0.43-9.77,5.91
				L66.05,64c-0.65,2.89-2.65,5.77-4.92,7.08l-2.11,1.22c-2.05,1.19-3.91,0.84-4.72-0.87l-2.93-6.2c-1.82-3.85-7.86-0.22-9.51,5.71
				l0,0c-0.76,2.73-2.67,5.35-4.79,6.58l-1.85,1.07c-2.24,1.29-4.22,0.76-4.89-1.31l-2.67-8.2c-1.51-4.63-8.23-0.77-9.78,5.6
				l-8.86,36.59c-0.7,2.88-2.71,5.7-4.96,6.96L111.16,54.82z"/>
			<path class="st1" d="M118.92,59.17l-7.27,4.2c-2.18,1.26-4.13,0.79-4.85-1.18L92.43,22.91c-1.64-4.49-8.35-0.43-9.77,5.91
				l-8.85,39.53c-0.65,2.89-2.65,5.77-4.92,7.08l-2.11,1.22c-2.05,1.19-3.91,0.84-4.72-0.87l-2.93-6.2
				c-1.82-3.85-7.86-0.22-9.51,5.71l0,0c-0.76,2.73-2.67,5.35-4.79,6.58l-1.85,1.07c-2.24,1.29-4.22,0.76-4.89-1.31l-2.67-8.2
				c-1.51-4.63-8.23-0.77-9.78,5.6l-8.86,36.59c-0.7,2.88-2.71,5.7-4.96,6.96L118.92,59.17z"/>
		</g>
	</g>
	<rect x="-88.3" y="-79.05" class="st2" width="377.05" height="324.92"/>
	<g>
		<path class="st3" d="M191.92,121.36l0.47-69.35c0.03-3.97-1.32-5.8-4.02-7.11L97.57,1.46c-0.87-0.41-1.65-0.5-2.25-0.17l0,0
			c0,0,1.4-1.03,1.53-1.1l0,0v0c0.6-0.31,1.38-0.22,2.23,0.19l91.07,43.44c2.7,1.31,4.06,3.14,4.03,7.12l-0.5,69.48
			c-0.01,1.84-0.56,2.87-1.42,3.24l-1.46,0.77C191.49,123.97,191.91,122.97,191.92,121.36z"/>
		<polygon class="st4" points="190.45,124.62 190.45,124.62 190.45,124.62 		"/>
	</g>
	<path class="st3" d="M189.86,130.23c0.01-0.12,0-0.23-0.01-0.34l-0.08-3.41h0c-0.07,0.85-0.7,1.73-1.88,2.45l-57.59,35.07
		c-2.33,1.42-5.9,1.65-7.97,0.52l-90.34-49.37c-0.89-0.48-1.35-1.14-1.42-1.84l-0.01,0l0.09,3.65l0,0c0.02,0.74,0.49,1.44,1.42,1.95
		l90.34,49.37c2.07,1.13,5.64,0.9,7.97-0.52l57.59-35.07c1.18-0.72,1.81-1.6,1.88-2.44h0L189.86,130.23z"/>
	<path class="st5" d="M153.5,149.54L153.5,149.54L55.94,96.23l-23.49,14.31c-0.28,0.17-0.53,0.35-0.75,0.54c0,0,0,0,0,0
		c-1.59,1.36-1.53,3.08,0.29,4.08l90.34,49.37c2.07,1.13,5.64,0.9,7.97-0.52l23.5-14.31L153.5,149.54z"/>
	<path class="st5" d="M153.79,149.7l34.09-20.76c2.33-1.42,2.54-3.49,0.46-4.62L98.01,74.94c-2.07-1.13-5.64-0.9-7.97,0.52
		l-34.1,20.77L153.79,149.7z"/>
	<path d="M70.48,135.39l14.74,8.05c0.39,0.22,0.41,0.58,0.02,0.81l-16.17-8.84C69.45,135.19,70.08,135.17,70.48,135.39z"/>
	<polygon points="103.96,79.37 180.35,121.12 181.37,120.5 104.98,78.76 	"/>
	<path class="st6" d="M98.77,76.39l89.15,47.83c2.19,1.18,3.98,0.48,4.01-2.86l0.47-69.35c0.03-3.97-1.32-5.8-4.02-7.11L97.57,1.46
		c-1.94-0.93-3.49-0.22-3.43,3.18l1.09,65.2C95.31,74.03,96.68,75.28,98.77,76.39z"/>
	<path class="st6" d="M97.35,1.87l91.29,43.72c1.8,0.86,3.27,3.19,3.25,5.17l-0.47,71.32c-0.01,1.92-1.47,2.7-3.24,1.75L98.53,75.76
		c-1.54-0.83-2.82-2.96-2.85-4.77l-1.12-67.1C94.53,2.03,95.78,1.12,97.35,1.87z"/>
	<path id="XMLID_1_" class="st7" d="M187.91,118.88l0.35-68.95c0-0.23-0.12-0.44-0.33-0.54L98.44,6.12
		c-0.41-0.21-0.9,0.14-0.89,0.63l1.1,65.16c0,0.22,0.12,0.41,0.31,0.51l87.99,47.02C187.37,119.67,187.91,119.36,187.91,118.88z"/>
	<g>
		<g>
			<g>
				<path class="st8" d="M137.35,70.29c0.15,0.08,0.27,0.31,0.27,0.47c0,0.18-0.13,0.24-0.28,0.16l-31.66-18.28
					c-0.15-0.09-0.27-0.3-0.27-0.47c0-0.17,0.12-0.25,0.28-0.16L137.35,70.29z"/>
			</g>
			<g>
				<path class="st8" d="M133.64,66.34c0.15,0.09,0.27,0.3,0.27,0.47c0,0.17-0.12,0.25-0.28,0.16L105.7,50.83
					c-0.15-0.09-0.27-0.31-0.27-0.47c0-0.18,0.12-0.25,0.28-0.16L133.64,66.34z"/>
			</g>
		</g>
	</g>
	<g>
		<g>
			<g>
				<path class="st8" d="M120.47,65.62c0.15,0.09,0.27,0.31,0.27,0.47c0,0.18-0.12,0.25-0.28,0.16l-15.03-8.68
					c-0.15-0.09-0.27-0.3-0.27-0.47c0-0.17,0.12-0.25,0.28-0.16L120.47,65.62z"/>
			</g>
			<g>
				<path class="st8" d="M124.17,69.58c0.15,0.09,0.27,0.31,0.27,0.47c0,0.18-0.12,0.25-0.28,0.16l-18.74-10.82
					c-0.15-0.09-0.27-0.3-0.27-0.47c0-0.17,0.12-0.25,0.28-0.16L124.17,69.58z"/>
			</g>
			<g class="st9">
				<g>
					<path class="st8" d="M118.07,73.35c0.15,0.08,0.27,0.31,0.27,0.47c0,0.18-0.13,0.24-0.28,0.16l-12.66-7.31
						c-0.15-0.09-0.27-0.3-0.27-0.47c0-0.17,0.12-0.25,0.28-0.16L118.07,73.35z"/>
				</g>
				<g>
					<path class="st8" d="M119.25,68.56c0.15,0.08,0.27,0.31,0.27,0.47c0,0.18-0.13,0.24-0.28,0.16l-13.82-7.98
						c-0.15-0.09-0.27-0.3-0.27-0.47c0-0.17,0.12-0.25,0.28-0.16L119.25,68.56z"/>
				</g>
				<g>
					<path class="st8" d="M122.46,74.06c0.15,0.09,0.27,0.31,0.27,0.47c0,0.18-0.12,0.25-0.28,0.16l-17.04-9.84
						c-0.15-0.09-0.27-0.3-0.27-0.47c0-0.17,0.12-0.25,0.28-0.16L122.46,74.06z"/>
				</g>
				<g>
					<path class="st8" d="M121.03,71.41c0.15,0.09,0.27,0.31,0.27,0.47c0,0.18-0.12,0.25-0.28,0.16l-15.61-9.01
						c-0.15-0.09-0.27-0.3-0.27-0.47c0-0.17,0.12-0.25,0.28-0.16L121.03,71.41z"/>
				</g>
			</g>
			<g class="st9">
				<g>
					<path class="st8" d="M140.88,86.51c0.15,0.09,0.27,0.31,0.27,0.47c0,0.18-0.12,0.25-0.28,0.16l-12.65-7.31
						c-0.15-0.09-0.27-0.3-0.27-0.47c0-0.17,0.12-0.25,0.28-0.16L140.88,86.51z"/>
				</g>
				<g>
					<path class="st8" d="M142.06,81.73c0.15,0.09,0.27,0.31,0.27,0.47c0,0.18-0.12,0.25-0.28,0.16l-13.82-7.98
						c-0.15-0.09-0.27-0.3-0.27-0.47c0-0.17,0.12-0.25,0.28-0.16L142.06,81.73z"/>
				</g>
				<g>
					<path class="st8" d="M145.27,87.23c0.15,0.09,0.27,0.31,0.27,0.47c0,0.18-0.12,0.25-0.28,0.16l-17.04-9.84
						c-0.15-0.09-0.27-0.3-0.27-0.47c0-0.17,0.12-0.25,0.28-0.16L145.27,87.23z"/>
				</g>
				<g>
					<path class="st8" d="M143.85,84.58c0.15,0.08,0.27,0.31,0.27,0.47c0,0.18-0.13,0.24-0.28,0.16l-15.61-9.01
						c-0.15-0.09-0.27-0.3-0.27-0.47c0-0.17,0.12-0.25,0.28-0.16L143.85,84.58z"/>
				</g>
				<g>
					<path class="st8" d="M143.27,78.78c0.15,0.09,0.27,0.31,0.27,0.47c0,0.18-0.12,0.25-0.28,0.16l-15.02-8.67
						c-0.15-0.09-0.27-0.3-0.27-0.47c0-0.17,0.12-0.25,0.28-0.16L143.27,78.78z"/>
				</g>
				<g>
					<path class="st8" d="M146.99,82.75c0.15,0.09,0.27,0.31,0.27,0.47c0,0.18-0.12,0.25-0.28,0.16l-18.74-10.82
						c-0.15-0.09-0.27-0.3-0.27-0.47c0-0.17,0.12-0.25,0.28-0.16L146.99,82.75z"/>
				</g>
			</g>
		</g>
	</g>
	<g class="st10">
		<path class="st11" d="M72.34,123.75l12.14-7.4c0.72-0.44,1.92-0.47,2.66-0.06l30.22,16.51c0.75,0.41,0.77,1.1,0.04,1.54
			l-12.14,7.4L72.34,123.75z"/>
		<g>
			<path class="st12" d="M88.56,133.19l16.2,8.85l-6.57,4c-0.72,0.44-1.92,0.47-2.67,0.06L80.67,138L88.56,133.19z"/>
			<path class="st12" d="M88.04,132.91l-7.88,4.8l-14.85-8.11c-0.75-0.41-0.77-1.1-0.04-1.54l6.57-4L88.04,132.91z"/>
		</g>
	</g>
	<g>
		<path class="st13" d="M117.38,133.48l-30.22-16.51c-0.75-0.41-1.94-0.38-2.67,0.06l-11.57,7.05l-0.59-0.32l12.14-7.4
			c0.72-0.44,1.92-0.47,2.67-0.06l30.22,16.51c0.53,0.29,0.68,0.71,0.48,1.1C117.75,133.75,117.6,133.6,117.38,133.48z"/>
		<g>
			<polygon class="st13" points="88.57,133.86 81.26,138.32 80.67,138 88.56,133.19 104.76,142.05 104.19,142.4 			"/>
			<path class="st13" d="M71.85,124.72l-6.57,4c-0.21,0.13-0.35,0.28-0.44,0.44c-0.22-0.37-0.08-0.8,0.42-1.11l6.57-4l16.2,8.85
				l-0.57,0.35L71.85,124.72z"/>
		</g>
	</g>
	<g>
		<g>
			<path d="M168.12,129.39l4.52,2.47c0.28,0.15,0.75,0.12,1.06-0.07l4.22-2.57c0.31-0.19,0.34-0.47,0.06-0.62l-4.52-2.47
				c-0.28-0.15-0.75-0.12-1.06,0.07l-4.22,2.57C167.87,128.96,167.84,129.24,168.12,129.39z"/>
			<path d="M162,126.05l4.52,2.47c0.28,0.15,0.75,0.12,1.06-0.07l4.22-2.57c0.31-0.19,0.34-0.46,0.06-0.62l-4.52-2.47
				c-0.28-0.15-0.75-0.12-1.06,0.07l-4.22,2.57C161.75,125.62,161.72,125.9,162,126.05z"/>
			<path d="M155.88,122.7l4.52,2.47c0.28,0.15,0.75,0.12,1.06-0.07l4.22-2.57c0.31-0.19,0.34-0.46,0.06-0.62l-4.52-2.47
				c-0.28-0.15-0.75-0.12-1.06,0.07l-4.22,2.57C155.63,122.28,155.61,122.55,155.88,122.7z"/>
			<path d="M149.77,119.36l4.52,2.47c0.28,0.15,0.75,0.12,1.06-0.07l4.22-2.57c0.31-0.19,0.34-0.47,0.06-0.62l-4.52-2.47
				c-0.28-0.15-0.75-0.12-1.06,0.07l-4.22,2.57C149.52,118.93,149.49,119.21,149.77,119.36z"/>
			<path d="M143.65,116.02l4.52,2.47c0.28,0.15,0.75,0.12,1.06-0.07l4.22-2.57c0.31-0.19,0.34-0.47,0.06-0.62l-4.52-2.47
				c-0.28-0.15-0.75-0.12-1.06,0.07l-4.22,2.57C143.4,115.59,143.37,115.87,143.65,116.02z"/>
			<path d="M137.53,112.67l4.52,2.47c0.28,0.15,0.75,0.12,1.06-0.07l4.22-2.57c0.31-0.19,0.34-0.46,0.06-0.62l-4.52-2.47
				c-0.28-0.15-0.75-0.12-1.06,0.07l-4.22,2.57C137.28,112.25,137.26,112.52,137.53,112.67z"/>
			<path d="M131.42,109.33l4.52,2.47c0.28,0.15,0.75,0.12,1.06-0.07l4.22-2.57c0.31-0.19,0.34-0.46,0.06-0.62l-4.52-2.47
				c-0.28-0.15-0.75-0.12-1.06,0.07l-4.22,2.57C131.17,108.91,131.14,109.18,131.42,109.33z"/>
			<path d="M125.3,105.99l4.52,2.47c0.28,0.15,0.75,0.12,1.06-0.07l4.22-2.57c0.31-0.19,0.34-0.46,0.06-0.62l-4.52-2.47
				c-0.28-0.15-0.75-0.12-1.06,0.07l-4.22,2.57C125.05,105.56,125.02,105.84,125.3,105.99z"/>
			<path d="M119.18,102.65l4.52,2.47c0.28,0.15,0.75,0.12,1.06-0.07l4.22-2.57c0.31-0.19,0.34-0.46,0.06-0.62l-4.52-2.47
				c-0.28-0.15-0.75-0.12-1.06,0.07l-4.22,2.57C118.93,102.22,118.91,102.5,119.18,102.65z"/>
			<path d="M113.07,99.3l4.52,2.47c0.28,0.15,0.75,0.12,1.06-0.07l4.22-2.57c0.31-0.19,0.34-0.46,0.06-0.62l-4.52-2.47
				c-0.28-0.15-0.75-0.12-1.06,0.07l-4.22,2.57C112.82,98.88,112.79,99.15,113.07,99.3z"/>
			<path d="M106.95,95.96l4.52,2.47c0.28,0.15,0.75,0.12,1.06-0.07l4.22-2.57c0.31-0.19,0.34-0.47,0.06-0.62l-4.52-2.47
				c-0.28-0.15-0.75-0.12-1.06,0.07l-4.22,2.57C106.7,95.53,106.67,95.81,106.95,95.96z"/>
			<path d="M100.83,92.62l4.52,2.47c0.28,0.15,0.75,0.12,1.06-0.07l4.22-2.57c0.31-0.19,0.34-0.47,0.06-0.62l-4.52-2.47
				c-0.28-0.15-0.75-0.12-1.06,0.07L100.89,92C100.58,92.19,100.56,92.47,100.83,92.62z"/>
			<path d="M94.72,89.27l4.52,2.47c0.28,0.15,0.75,0.12,1.06-0.07l4.22-2.57c0.31-0.19,0.34-0.46,0.06-0.62l-4.52-2.47
				c-0.28-0.15-0.75-0.12-1.06,0.07l-4.22,2.57C94.47,88.85,94.44,89.12,94.72,89.27z"/>
			<path d="M85.83,84.42l7.28,3.98c0.28,0.15,0.75,0.12,1.06-0.07l4.22-2.57c0.31-0.19,0.34-0.47,0.06-0.62l-7.28-3.98
				c-0.28-0.15-0.75-0.12-1.06,0.07l-4.22,2.57C85.59,83.99,85.56,84.27,85.83,84.42z"/>
		</g>
		<g>
			<path d="M89.78,87.24l-4.52-2.47c-0.28-0.15-0.75-0.12-1.06,0.07l-4.22,2.57c-0.31,0.19-0.34,0.46-0.06,0.62l4.52,2.47
				c0.28,0.15,0.75,0.12,1.06-0.07l4.22-2.57C90.03,87.67,90.06,87.39,89.78,87.24z"/>
			<path d="M95.9,90.59l-4.52-2.47c-0.28-0.15-0.75-0.12-1.06,0.07l-4.22,2.57c-0.31,0.19-0.34,0.46-0.06,0.62l4.52,2.47
				c0.28,0.15,0.75,0.12,1.06-0.07l4.22-2.57C96.15,91.01,96.17,90.74,95.9,90.59z"/>
			<path d="M102.01,93.93l-4.52-2.47c-0.28-0.15-0.75-0.12-1.06,0.07l-4.22,2.57c-0.31,0.19-0.34,0.46-0.06,0.62l4.52,2.47
				c0.28,0.15,0.75,0.12,1.06-0.07l4.22-2.57C102.26,94.35,102.29,94.08,102.01,93.93z"/>
			<path d="M108.13,97.27l-4.52-2.47c-0.28-0.15-0.75-0.12-1.06,0.07l-4.22,2.57c-0.31,0.19-0.34,0.47-0.06,0.62l4.52,2.47
				c0.28,0.15,0.75,0.12,1.06-0.07l4.22-2.57C108.38,97.7,108.41,97.42,108.13,97.27z"/>
			<path d="M114.25,100.61l-4.52-2.47c-0.28-0.15-0.75-0.12-1.06,0.07l-4.22,2.57c-0.31,0.19-0.34,0.46-0.06,0.62l4.52,2.47
				c0.28,0.15,0.75,0.12,1.06-0.07l4.22-2.57C114.5,101.04,114.52,100.77,114.25,100.61z"/>
			<path d="M120.36,103.96l-4.52-2.47c-0.28-0.15-0.75-0.12-1.06,0.07l-4.22,2.57c-0.31,0.19-0.34,0.46-0.06,0.62l4.52,2.47
				c0.28,0.15,0.75,0.12,1.06-0.07l4.22-2.57C120.61,104.38,120.64,104.11,120.36,103.96z"/>
			<path d="M126.48,107.3l-4.52-2.47c-0.28-0.15-0.75-0.12-1.06,0.07l-4.22,2.57c-0.31,0.19-0.34,0.46-0.06,0.62l4.52,2.47
				c0.28,0.15,0.75,0.12,1.06-0.07l4.22-2.57C126.73,107.73,126.76,107.45,126.48,107.3z"/>
			<path d="M132.6,110.64l-4.52-2.47c-0.28-0.15-0.75-0.12-1.06,0.07l-4.22,2.57c-0.31,0.19-0.34,0.46-0.06,0.62l4.52,2.47
				c0.28,0.15,0.75,0.12,1.06-0.07l4.22-2.57C132.85,111.07,132.87,110.79,132.6,110.64z"/>
			<path d="M138.71,113.99l-4.52-2.47c-0.28-0.15-0.75-0.12-1.06,0.07l-4.22,2.57c-0.31,0.19-0.34,0.46-0.06,0.62l4.52,2.47
				c0.28,0.15,0.75,0.12,1.06-0.07l4.22-2.57C138.96,114.41,138.99,114.14,138.71,113.99z"/>
			<path d="M144.83,117.33l-4.52-2.47c-0.28-0.15-0.75-0.12-1.06,0.07l-4.22,2.57c-0.31,0.19-0.34,0.46-0.06,0.62l4.52,2.47
				c0.28,0.15,0.75,0.12,1.06-0.07l4.22-2.57C145.08,117.76,145.11,117.48,144.83,117.33z"/>
			<path d="M150.95,120.67l-4.52-2.47c-0.28-0.15-0.75-0.12-1.06,0.07l-4.22,2.57c-0.31,0.19-0.34,0.46-0.06,0.62l4.52,2.47
				c0.28,0.15,0.75,0.12,1.06-0.07l4.22-2.57C151.2,121.1,151.22,120.82,150.95,120.67z"/>
			<path d="M157.06,124.01l-4.52-2.47c-0.28-0.15-0.75-0.12-1.06,0.07l-4.22,2.57c-0.31,0.19-0.34,0.46-0.06,0.62l4.52,2.47
				c0.28,0.15,0.75,0.12,1.06-0.07l4.22-2.57C157.31,124.44,157.34,124.17,157.06,124.01z"/>
			<path d="M163.18,127.36l-4.52-2.47c-0.28-0.15-0.75-0.12-1.06,0.07l-4.22,2.57c-0.31,0.19-0.34,0.46-0.06,0.62l4.52,2.47
				c0.28,0.15,0.75,0.12,1.06-0.07l4.22-2.57C163.43,127.78,163.46,127.51,163.18,127.36z"/>
			<path d="M172.06,132.21l-7.28-3.98c-0.28-0.15-0.75-0.12-1.06,0.07l-4.22,2.57c-0.31,0.19-0.34,0.47-0.06,0.62l7.28,3.98
				c0.28,0.15,0.75,0.12,1.06-0.07l4.22-2.57C172.31,132.64,172.34,132.36,172.06,132.21z"/>
		</g>
		<g>
			<path d="M88.28,93.26l-8.94-4.88c-0.28-0.15-0.75-0.12-1.06,0.07l-4.22,2.57c-0.31,0.19-0.34,0.46-0.06,0.62l8.94,4.88
				c0.28,0.15,0.75,0.12,1.06-0.07l4.22-2.57C88.53,93.69,88.56,93.41,88.28,93.26z"/>
			<path d="M166.09,135.79l-8.94-4.88c-0.28-0.15-0.75-0.12-1.06,0.07l-4.22,2.57c-0.31,0.19-0.34,0.46-0.06,0.62l8.94,4.88
				c0.28,0.15,0.75,0.12,1.06-0.07l4.22-2.57C166.34,136.21,166.37,135.94,166.09,135.79z"/>
			<path d="M94.4,96.6l-4.52-2.47c-0.28-0.15-0.75-0.12-1.06,0.07l-4.22,2.57c-0.31,0.19-0.34,0.46-0.06,0.62l4.52,2.47
				c0.28,0.15,0.75,0.12,1.06-0.07l4.22-2.57C94.64,97.03,94.67,96.75,94.4,96.6z"/>
			<path d="M100.51,99.94l-4.52-2.47c-0.28-0.15-0.75-0.12-1.06,0.07l-4.22,2.57c-0.31,0.19-0.34,0.47-0.06,0.62l4.52,2.47
				c0.28,0.15,0.75,0.12,1.06-0.07l4.22-2.57C100.76,100.37,100.79,100.1,100.51,99.94z"/>
			<path d="M106.63,103.29l-4.52-2.47c-0.28-0.15-0.75-0.12-1.06,0.07l-4.22,2.57c-0.31,0.19-0.34,0.46-0.06,0.62l4.52,2.47
				c0.28,0.15,0.75,0.12,1.06-0.07l4.22-2.57C106.88,103.71,106.91,103.44,106.63,103.29z"/>
			<path d="M112.75,106.63l-4.52-2.47c-0.28-0.15-0.75-0.12-1.06,0.07l-4.22,2.57c-0.31,0.19-0.34,0.47-0.06,0.62l4.52,2.47
				c0.28,0.15,0.75,0.12,1.06-0.07l4.22-2.57C112.99,107.06,113.02,106.78,112.75,106.63z"/>
			<path d="M118.86,109.97l-4.52-2.47c-0.28-0.15-0.75-0.12-1.06,0.07l-4.22,2.57c-0.31,0.19-0.34,0.46-0.06,0.62l4.52,2.47
				c0.28,0.15,0.75,0.12,1.06-0.07l4.22-2.57C119.11,110.4,119.14,110.12,118.86,109.97z"/>
			<path d="M124.98,113.32l-4.52-2.47c-0.28-0.15-0.75-0.12-1.06,0.07l-4.22,2.57c-0.31,0.19-0.34,0.47-0.06,0.62l4.52,2.47
				c0.28,0.15,0.75,0.12,1.06-0.07l4.22-2.57C125.23,113.74,125.26,113.47,124.98,113.32z"/>
			<path d="M131.1,116.66l-4.52-2.47c-0.28-0.15-0.75-0.12-1.06,0.07l-4.22,2.57c-0.31,0.19-0.34,0.46-0.06,0.62l4.52,2.47
				c0.28,0.15,0.75,0.12,1.06-0.07l4.22-2.57C131.34,117.09,131.37,116.81,131.1,116.66z"/>
			<path d="M137.21,120l-4.52-2.47c-0.28-0.15-0.75-0.12-1.06,0.07l-4.22,2.57c-0.31,0.19-0.34,0.47-0.06,0.62l4.52,2.47
				c0.28,0.15,0.75,0.12,1.06-0.07l4.22-2.57C137.46,120.43,137.49,120.15,137.21,120z"/>
			<path d="M143.33,123.34l-4.52-2.47c-0.28-0.15-0.75-0.12-1.06,0.07l-4.22,2.57c-0.31,0.19-0.34,0.46-0.06,0.62l4.52,2.47
				c0.28,0.15,0.75,0.12,1.06-0.07l4.22-2.57C143.58,123.77,143.61,123.5,143.33,123.34z"/>
			<path d="M149.45,126.69l-4.52-2.47c-0.28-0.15-0.75-0.12-1.06,0.07l-4.22,2.57c-0.31,0.19-0.34,0.47-0.06,0.62l4.52,2.47
				c0.28,0.15,0.75,0.12,1.06-0.07l4.22-2.57C149.69,127.11,149.72,126.84,149.45,126.69z"/>
			<path d="M155.56,130.03l-4.52-2.47c-0.28-0.15-0.75-0.12-1.06,0.07l-4.22,2.57c-0.31,0.19-0.34,0.46-0.06,0.62l4.52,2.47
				c0.28,0.15,0.75,0.12,1.06-0.07l4.22-2.57C155.81,130.46,155.84,130.18,155.56,130.03z"/>
		</g>
		<g>
			<path d="M85.4,98.52l-11.97-6.54c-0.28-0.15-0.75-0.12-1.06,0.07l-4.22,2.57c-0.31,0.19-0.34,0.47-0.06,0.62l11.97,6.54
				c0.28,0.15,0.75,0.12,1.06-0.07l4.22-2.57C85.65,98.95,85.68,98.67,85.4,98.52z"/>
			<path d="M91.52,101.86L87,99.39c-0.28-0.15-0.75-0.12-1.06,0.07l-4.22,2.57c-0.31,0.19-0.34,0.46-0.06,0.62l4.52,2.47
				c0.28,0.15,0.75,0.12,1.06-0.07l4.22-2.57C91.76,102.29,91.79,102.01,91.52,101.86z"/>
			<path d="M97.63,105.21l-4.52-2.47c-0.28-0.15-0.75-0.12-1.06,0.07l-4.22,2.57c-0.31,0.19-0.34,0.46-0.06,0.62l4.52,2.47
				c0.28,0.15,0.75,0.12,1.06-0.07l4.22-2.57C97.88,105.63,97.91,105.36,97.63,105.21z"/>
			<path d="M103.75,108.55l-4.52-2.47c-0.28-0.15-0.75-0.12-1.06,0.07l-4.22,2.57c-0.31,0.19-0.34,0.47-0.06,0.62l4.52,2.47
				c0.28,0.15,0.75,0.12,1.06-0.07l4.22-2.57C104,108.98,104.03,108.7,103.75,108.55z"/>
			<path d="M109.87,111.89l-4.52-2.47c-0.28-0.15-0.75-0.12-1.06,0.07l-4.22,2.57c-0.31,0.19-0.34,0.46-0.06,0.62l4.52,2.47
				c0.28,0.15,0.75,0.12,1.06-0.07l4.22-2.57C110.11,112.32,110.14,112.04,109.87,111.89z"/>
			<path d="M115.98,115.24l-4.52-2.47c-0.28-0.15-0.75-0.12-1.06,0.07l-4.22,2.57c-0.31,0.19-0.34,0.46-0.06,0.62l4.52,2.47
				c0.28,0.15,0.75,0.12,1.06-0.07l4.22-2.57C116.23,115.66,116.26,115.39,115.98,115.24z"/>
			<path d="M122.1,118.58l-4.52-2.47c-0.28-0.15-0.75-0.12-1.06,0.07l-4.22,2.57c-0.31,0.19-0.34,0.46-0.06,0.62l4.52,2.47
				c0.28,0.15,0.75,0.12,1.06-0.07l4.22-2.57C122.35,119.01,122.38,118.73,122.1,118.58z"/>
			<path d="M128.22,121.92l-4.52-2.47c-0.28-0.15-0.75-0.12-1.06,0.07l-4.22,2.57c-0.31,0.19-0.34,0.46-0.06,0.62l4.52,2.47
				c0.28,0.15,0.75,0.12,1.06-0.07l4.22-2.57C128.46,122.35,128.49,122.07,128.22,121.92z"/>
			<path d="M134.33,125.26l-4.52-2.47c-0.28-0.15-0.75-0.12-1.06,0.07l-4.22,2.57c-0.31,0.19-0.34,0.46-0.06,0.62l4.52,2.47
				c0.28,0.15,0.75,0.12,1.06-0.07l4.22-2.57C134.58,125.69,134.61,125.42,134.33,125.26z"/>
			<path d="M140.45,128.61l-4.52-2.47c-0.28-0.15-0.75-0.12-1.06,0.07l-4.22,2.57c-0.31,0.19-0.34,0.46-0.06,0.62l4.52,2.47
				c0.28,0.15,0.75,0.12,1.06-0.07l4.22-2.57C140.7,129.03,140.73,128.76,140.45,128.61z"/>
			<path d="M146.57,131.95l-4.52-2.47c-0.28-0.15-0.75-0.12-1.06,0.07l-4.22,2.57c-0.31,0.19-0.34,0.46-0.06,0.62l4.52,2.47
				c0.28,0.15,0.75,0.12,1.06-0.07l4.22-2.57C146.82,132.38,146.84,132.1,146.57,131.95z"/>
			<path d="M160.18,139.39l-12.02-6.57c-0.28-0.15-0.75-0.12-1.06,0.07l-4.22,2.57c-0.31,0.19-0.34,0.46-0.06,0.62l12.02,6.57
				c0.28,0.15,0.75,0.12,1.06-0.07l4.22-2.57C160.43,139.82,160.45,139.54,160.18,139.39z"/>
		</g>
		<g>
			<path d="M128.42,128.87l-28.99-15.84c-0.28-0.15-0.75-0.12-1.06,0.07l-4.22,2.57c-0.31,0.19-0.34,0.47-0.06,0.62l28.99,15.84
				c0.28,0.15,0.75,0.12,1.06-0.07l4.22-2.57C128.67,129.29,128.69,129.02,128.42,128.87z"/>
			<path d="M90.38,108.08l-4.52-2.47c-0.28-0.15-0.75-0.12-1.06,0.07l-4.22,2.57c-0.31,0.19-0.34,0.46-0.06,0.62l4.52,2.47
				c0.28,0.15,0.75,0.12,1.06-0.07l4.22-2.57C90.63,108.51,90.66,108.23,90.38,108.08z"/>
			<path d="M97.83,112.15l-5.86-3.2c-0.28-0.15-0.75-0.12-1.06,0.07l-4.22,2.57c-0.31,0.19-0.34,0.47-0.06,0.62l5.86,3.2
				c0.28,0.15,0.75,0.12,1.06-0.07l4.22-2.57C98.08,112.58,98.11,112.3,97.83,112.15z"/>
			<path d="M137.46,133.81l4.52,2.47c0.28,0.15,0.25,0.43-0.06,0.62l-4.22,2.57c-0.31,0.19-0.79,0.22-1.06,0.07l-4.52-2.47
				c-0.28-0.15-0.25-0.43,0.06-0.62l4.22-2.57C136.71,133.69,137.19,133.66,137.46,133.81z"/>
			<path d="M130.01,129.74l5.86,3.2c0.28,0.15,0.25,0.43-0.06,0.62l-4.22,2.57c-0.31,0.19-0.79,0.22-1.06,0.07l-5.86-3.2
				c-0.28-0.15-0.25-0.43,0.06-0.62l4.22-2.57C129.26,129.62,129.74,129.59,130.01,129.74z"/>
			<path d="M72.03,98.05l-4.52-2.47c-0.28-0.15-0.75-0.12-1.06,0.07l-4.22,2.57c-0.31,0.19-0.34,0.47-0.06,0.62l4.52,2.47
				c0.28,0.15,0.75,0.12,1.06-0.07l4.22-2.57C72.28,98.48,72.31,98.2,72.03,98.05z"/>
			<path d="M78.15,101.39l-4.52-2.47c-0.28-0.15-0.75-0.12-1.06,0.07l-4.22,2.57c-0.31,0.19-0.34,0.46-0.06,0.62l4.52,2.47
				c0.28,0.15,0.75,0.12,1.06-0.07l4.22-2.57C78.4,101.82,78.42,101.55,78.15,101.39z"/>
			<path d="M84.26,104.74l-4.52-2.47c-0.28-0.15-0.75-0.12-1.06,0.07l-4.22,2.57c-0.31,0.19-0.34,0.46-0.06,0.62l4.52,2.47
				c0.28,0.15,0.75,0.12,1.06-0.07l4.22-2.57C84.51,105.16,84.54,104.89,84.26,104.74z"/>
			<path d="M154.26,142.99l-10.68-5.84c-0.28-0.15-0.75-0.12-1.06,0.07l-4.22,2.57c-0.31,0.19-0.34,0.47-0.06,0.62l10.68,5.84
				c0.28,0.15,0.75,0.12,1.06-0.07l4.22-2.57C154.51,143.42,154.54,143.14,154.26,142.99z"/>
		</g>
		<g>
			<path d="M174.03,125.79l4.52,2.47c0.28,0.15,0.75,0.12,1.06-0.07l2.1-1.28c0.31-0.19,0.34-0.47,0.06-0.62l-4.52-2.47
				c-0.28-0.15-0.75-0.12-1.06,0.07l-2.1,1.28C173.78,125.36,173.76,125.64,174.03,125.79z"/>
			<path d="M167.92,122.44l4.52,2.47c0.28,0.15,0.75,0.12,1.06-0.07l2.1-1.28c0.31-0.19,0.34-0.46,0.06-0.62l-4.52-2.47
				c-0.28-0.15-0.75-0.12-1.06,0.07l-2.1,1.28C167.67,122.02,167.64,122.29,167.92,122.44z"/>
			<path d="M161.8,119.1l4.52,2.47c0.28,0.15,0.75,0.12,1.06-0.07l2.1-1.28c0.31-0.19,0.34-0.46,0.06-0.62l-4.52-2.47
				c-0.28-0.15-0.75-0.12-1.06,0.07l-2.1,1.28C161.55,118.67,161.52,118.95,161.8,119.1z"/>
			<path d="M155.68,115.76l4.52,2.47c0.28,0.15,0.75,0.12,1.06-0.07l2.1-1.28c0.31-0.19,0.34-0.46,0.06-0.62l-4.52-2.47
				c-0.28-0.15-0.75-0.12-1.06,0.07l-2.1,1.28C155.43,115.33,155.41,115.61,155.68,115.76z"/>
			<path d="M149.57,112.41l4.52,2.47c0.28,0.15,0.75,0.12,1.06-0.07l2.1-1.28c0.31-0.19,0.34-0.47,0.06-0.62l-4.52-2.47
				c-0.28-0.15-0.75-0.12-1.06,0.07l-2.1,1.28C149.32,111.99,149.29,112.26,149.57,112.41z"/>
			<path d="M143.45,109.07l4.52,2.47c0.28,0.15,0.75,0.12,1.06-0.07l2.1-1.28c0.31-0.19,0.34-0.46,0.06-0.62l-4.52-2.47
				c-0.28-0.15-0.75-0.12-1.06,0.07l-2.1,1.28C143.2,108.64,143.17,108.92,143.45,109.07z"/>
			<path d="M137.33,105.73l4.52,2.47c0.28,0.15,0.75,0.12,1.06-0.07l2.1-1.28c0.31-0.19,0.34-0.46,0.06-0.62l-4.52-2.47
				c-0.28-0.15-0.75-0.12-1.06,0.07l-2.1,1.28C137.08,105.3,137.06,105.58,137.33,105.73z"/>
			<path d="M131.22,102.39l4.52,2.47c0.28,0.15,0.75,0.12,1.06-0.07l2.1-1.28c0.31-0.19,0.34-0.47,0.06-0.62l-4.52-2.47
				c-0.28-0.15-0.75-0.12-1.06,0.07l-2.1,1.28C130.97,101.96,130.94,102.23,131.22,102.39z"/>
			<path d="M125.1,99.04l4.52,2.47c0.28,0.15,0.75,0.12,1.06-0.07l2.1-1.28c0.31-0.19,0.34-0.46,0.06-0.62l-4.52-2.47
				c-0.28-0.15-0.75-0.12-1.06,0.07l-2.1,1.28C124.85,98.62,124.82,98.89,125.1,99.04z"/>
			<path d="M118.98,95.7l4.52,2.47c0.28,0.15,0.75,0.12,1.06-0.07l2.1-1.28c0.31-0.19,0.34-0.46,0.06-0.62l-4.52-2.47
				c-0.28-0.15-0.75-0.12-1.06,0.07l-2.1,1.28C118.73,95.27,118.71,95.55,118.98,95.7z"/>
			<path d="M112.87,92.36l4.52,2.47c0.28,0.15,0.75,0.12,1.06-0.07l2.1-1.28c0.31-0.19,0.34-0.47,0.06-0.62l-4.52-2.47
				c-0.28-0.15-0.75-0.12-1.06,0.07l-2.1,1.28C112.62,91.93,112.59,92.21,112.87,92.36z"/>
			<path d="M106.75,89.01l4.52,2.47c0.28,0.15,0.75,0.12,1.06-0.07l2.1-1.28c0.31-0.19,0.34-0.46,0.06-0.62l-4.52-2.47
				c-0.28-0.15-0.75-0.12-1.06,0.07l-2.1,1.28C106.5,88.59,106.47,88.86,106.75,89.01z"/>
			<path d="M100.63,85.67l4.52,2.47c0.28,0.15,0.75,0.12,1.06-0.07l2.1-1.28c0.31-0.19,0.34-0.46,0.06-0.62l-4.52-2.47
				c-0.28-0.15-0.75-0.12-1.06,0.07l-2.1,1.28C100.38,85.24,100.36,85.52,100.63,85.67z"/>
			<path d="M91.75,80.82l7.28,3.98c0.28,0.15,0.75,0.12,1.06-0.07l2.1-1.28c0.31-0.19,0.34-0.47,0.06-0.62l-7.28-3.98
				c-0.28-0.15-0.75-0.12-1.06,0.07l-2.1,1.28C91.5,80.39,91.47,80.67,91.75,80.82z"/>
		</g>
	</g>
	<g class="st14">
		<g class="st15">
			<g>
				<polygon class="st16" points="58.13,77.6 50.5,73.16 50.35,22.23 57.99,26.66 				"/>
			</g>
			<g>
				<polygon class="st17" points="57.99,26.66 50.35,22.23 57.01,18.38 64.65,22.82 				"/>
			</g>
			<g>
				<polygon class="st0" points="64.65,22.82 64.79,73.75 58.13,77.6 57.99,26.66 				"/>
			</g>
		</g>
		<g class="st15">
			<g>
				<polygon class="st18" points="45.51,84.88 37.88,80.44 37.76,39.23 45.39,43.67 				"/>
			</g>
			<g>
				<polygon class="st19" points="45.39,43.67 37.76,39.23 44.42,35.38 52.06,39.82 				"/>
			</g>
			<g>
				<polygon class="st20" points="52.06,39.82 52.17,81.04 45.51,84.88 45.39,43.67 				"/>
			</g>
		</g>
		<g class="st15">
			<g>
				<polygon class="st16" points="32.89,92.17 25.26,87.73 25.21,70.36 32.84,74.8 				"/>
			</g>
			<g>
				<polygon class="st17" points="32.84,74.8 25.21,70.36 31.87,66.51 39.51,70.95 				"/>
			</g>
			<g>
				<polygon class="st0" points="39.51,70.95 39.56,88.32 32.89,92.17 32.84,74.8 				"/>
			</g>
		</g>
		<g class="st15">
			<g>
				<polygon class="st21" points="20.28,99.45 12.64,95.02 12.55,63.22 20.19,67.66 				"/>
			</g>
			<g>
				<polygon class="st19" points="20.19,67.66 12.55,63.22 19.21,59.37 26.85,63.81 				"/>
			</g>
			<g>
				<polygon class="st22" points="26.85,63.81 26.94,95.61 20.28,99.45 20.19,67.66 				"/>
			</g>
		</g>
		<g class="st15">
			<g>
				<polygon class="st16" points="7.66,106.74 0.02,102.3 0,94.94 7.64,99.38 				"/>
			</g>
			<g>
				<polygon class="st17" points="7.64,99.38 0,94.94 6.66,91.09 14.3,95.53 				"/>
			</g>
			<g>
				<polygon class="st0" points="14.3,95.53 14.32,102.89 7.66,106.74 7.64,99.38 				"/>
			</g>
		</g>
	</g>
	<path class="st23" d="M72.36,11.67v59.87c0,0.77,0.4,1.46,1.04,1.81l80.79,43.55c1.48,0.8,3.33-0.26,3.37-1.93l1.36-62.58
		c0.02-0.83-0.42-1.57-1.15-1.93L75.37,9.51C74.01,8.84,72.36,10.02,72.36,11.67z"/>
	<g class="st14">
		<g class="st24">
			<path class="st25" d="M142.2,53.93l0,1.86c0,1.1-1.19,1.78-2.14,1.24l-8.8-5.07c-0.44-0.25-0.71-0.73-0.71-1.24l0-1.86
				c0-1.1,1.19-1.79,2.14-1.24l8.8,5.07C141.93,52.95,142.2,53.42,142.2,53.93z"/>
		</g>
		<g class="st24">
			<path class="st25" d="M170.08,79.15l0,1.87c0,1.1-1.19,1.78-2.14,1.24l-36.68-21.03c-0.44-0.25-0.72-0.73-0.72-1.24l0-1.87
				c0-1.1,1.19-1.78,2.14-1.24l36.68,21.03C169.8,78.17,170.08,78.64,170.08,79.15z"/>
		</g>
		<g class="st26">
			<path class="st25" d="M154.96,89.04l0,1.87c0,1.1-1.19,1.78-2.14,1.24l-21.56-12.36c-0.44-0.25-0.72-0.73-0.72-1.24l0-1.87
				c0-1.1,1.19-1.78,2.14-1.24l21.56,12.36C154.68,88.05,154.96,88.53,154.96,89.04z"/>
		</g>
		<g class="st24">
			<path class="st27" d="M164.39,85.17l0,1.87c0,1.1-1.19,1.78-2.14,1.24l-30.99-17.77c-0.44-0.25-0.72-0.73-0.72-1.24l0-1.87
				c0-1.1,1.19-1.78,2.14-1.24l30.99,17.77C164.12,84.19,164.39,84.66,164.39,85.17z"/>
		</g>
	</g>
	<path class="st28" d="M147.83,160.25v-21.53c0-0.28,0.15-0.54,0.4-0.67l29.43-16.08c0.51-0.28,1.14,0.09,1.14,0.67v21.53
		c0,0.28-0.15,0.54-0.4,0.67l-29.43,16.08C148.46,161.21,147.83,160.84,147.83,160.25z"/>
	<path class="st28" d="M167.89,138.41V115.9c0-0.29,0.16-0.56,0.42-0.7l30.77-16.81c0.53-0.29,1.19,0.09,1.19,0.7v22.51
		c0,0.29-0.16,0.56-0.42,0.7l-30.77,16.81C168.54,139.41,167.89,139.02,167.89,138.41z"/>
	<g>
		<g>
			<path class="st29" d="M157.5,150.5l0-0.64c0-0.38-0.41-0.61-0.73-0.42l-3.02,1.74c-0.15,0.09-0.25,0.25-0.25,0.42l0,0.64
				c0,0.38,0.41,0.61,0.73,0.42l3.02-1.74C157.41,150.84,157.5,150.68,157.5,150.5z"/>
		</g>
		<g>
			<path class="st29" d="M167.07,141.85l0-0.64c0-0.38-0.41-0.61-0.73-0.42L153.75,148c-0.15,0.09-0.25,0.25-0.25,0.42l0,0.64
				c0,0.38,0.41,0.61,0.73,0.43l12.59-7.21C166.97,142.19,167.07,142.03,167.07,141.85z"/>
		</g>
		<g class="st30">
			<path class="st29" d="M161.88,138.46l0-0.64c0-0.38-0.41-0.61-0.73-0.42l-7.4,4.24c-0.15,0.09-0.25,0.25-0.25,0.42l0,0.64
				c0,0.38,0.41,0.61,0.73,0.43l7.4-4.24C161.78,138.8,161.88,138.63,161.88,138.46z"/>
		</g>
		<g>
			<path class="st31" d="M165.11,139.79l0-0.64c0-0.38-0.41-0.61-0.73-0.42l-10.63,6.1c-0.15,0.09-0.25,0.25-0.25,0.42l0,0.64
				c0,0.38,0.41,0.61,0.73,0.42l10.63-6.1C165.02,140.12,165.11,139.96,165.11,139.79z"/>
		</g>
	</g>
	<g>
		<g>
			<path class="st0" d="M117.81,86.19c0.14,0.09,0.23,0.28,0.22,0.42c-0.01,0.15-0.12,0.19-0.24,0.12l-0.02-0.01
				c-0.14-0.09-0.24-0.28-0.22-0.42c0.01-0.14,0.11-0.19,0.24-0.12C117.8,86.18,117.81,86.18,117.81,86.19z"/>
		</g>
		<g>
			<path class="st0" d="M117.66,87.76c0.13,0.1,0.22,0.29,0.2,0.43c-0.02,0.13-0.13,0.16-0.24,0.09l-0.04-0.02
				c-0.13-0.11-0.21-0.29-0.2-0.44c0.02-0.13,0.12-0.16,0.24-0.09C117.63,87.74,117.64,87.75,117.66,87.76z"/>
		</g>
		<g>
			<path class="st0" d="M117.39,89.25c0.13,0.1,0.21,0.3,0.17,0.43c-0.02,0.12-0.12,0.14-0.23,0.08l-0.06-0.04
				c-0.13-0.11-0.21-0.31-0.18-0.44v-0.01c0.03-0.11,0.13-0.14,0.24-0.07C117.35,89.22,117.37,89.23,117.39,89.25z"/>
		</g>
		<g>
			<path class="st0" d="M117.01,90.64c0.12,0.12,0.19,0.32,0.15,0.44c-0.04,0.1-0.13,0.12-0.23,0.06l-0.07-0.06
				c-0.13-0.12-0.2-0.31-0.15-0.44c0.03-0.1,0.13-0.12,0.23-0.06C116.96,90.6,116.99,90.62,117.01,90.64z"/>
		</g>
		<g>
			<path class="st0" d="M115.92,93.12c0.12,0.13,0.17,0.33,0.1,0.43c-0.04,0.07-0.13,0.08-0.21,0.03l-0.11-0.09
				c-0.12-0.14-0.17-0.33-0.11-0.43c0.05-0.07,0.13-0.08,0.22-0.03C115.84,93.04,115.88,93.07,115.92,93.12z"/>
		</g>
		<g>
			<path class="st0" d="M115.22,94.18c0.11,0.15,0.15,0.34,0.08,0.43c-0.05,0.06-0.13,0.06-0.21,0.01l-0.13-0.12
				c-0.12-0.14-0.15-0.34-0.08-0.43c0.05-0.06,0.12-0.06,0.21-0.01C115.13,94.09,115.18,94.13,115.22,94.18z"/>
		</g>
		<g>
			<path class="st0" d="M112.37,96.41c0.06,0.04,0.12,0.1,0.17,0.18c0.09,0.16,0.09,0.34,0,0.4c-0.05,0.03-0.11,0.01-0.17-0.02
				c-0.06-0.04-0.12-0.1-0.17-0.18c-0.1-0.17-0.09-0.34,0-0.4C112.25,96.37,112.31,96.38,112.37,96.41z"/>
		</g>
		<g>
			<path class="st0" d="M108.94,97.51c0.08,0.05,0.16,0.14,0.21,0.25c0.07,0.17,0.03,0.32-0.08,0.33l-0.13-0.03
				c-0.08-0.05-0.16-0.14-0.2-0.25c-0.07-0.17-0.03-0.32,0.08-0.34C108.85,97.47,108.89,97.49,108.94,97.51z"/>
		</g>
		<g>
			<path class="st0" d="M107.66,97.58c0.09,0.05,0.18,0.16,0.22,0.28c0.06,0.17,0.01,0.31-0.11,0.32l-0.11-0.04
				c-0.09-0.05-0.17-0.16-0.21-0.28c-0.06-0.17-0.01-0.31,0.11-0.31C107.59,97.55,107.63,97.56,107.66,97.58z"/>
		</g>
		<g>
			<path class="st0" d="M106.35,97.52c0.09,0.05,0.18,0.17,0.22,0.3c0.05,0.17-0.01,0.3-0.14,0.28l-0.09-0.03
				c-0.1-0.06-0.19-0.18-0.23-0.31c-0.05-0.18,0.01-0.3,0.14-0.28C106.29,97.49,106.32,97.5,106.35,97.52z"/>
		</g>
		<g>
			<path class="st0" d="M104.98,97.29c0.1,0.06,0.2,0.19,0.23,0.33c0.04,0.17-0.03,0.28-0.16,0.26l-0.07-0.03
				c-0.1-0.06-0.2-0.19-0.23-0.33c-0.04-0.17,0.03-0.28,0.16-0.26C104.93,97.27,104.95,97.28,104.98,97.29z"/>
		</g>
		<g>
			<path class="st0" d="M104.29,56.24c0.13,0.12,0.21,0.31,0.17,0.44c-0.03,0.11-0.13,0.13-0.23,0.07l-0.07-0.05
				c-0.13-0.12-0.21-0.31-0.17-0.44c0.03-0.11,0.13-0.13,0.24-0.07C104.25,56.21,104.27,56.22,104.29,56.24z"/>
		</g>
		<g>
			<path class="st0" d="M103.58,96.93c0.11,0.06,0.21,0.21,0.23,0.35c0.03,0.17-0.05,0.27-0.18,0.23l-0.06-0.03
				c-0.11-0.06-0.21-0.21-0.23-0.35c-0.03-0.17,0.05-0.27,0.18-0.23C103.54,96.91,103.56,96.92,103.58,96.93z"/>
		</g>
		<g>
			<path class="st0" d="M102.15,96.42c0.12,0.07,0.22,0.23,0.24,0.38c0.03,0.17-0.07,0.25-0.21,0.2l-0.03-0.01
				c-0.12-0.07-0.23-0.23-0.24-0.38c-0.02-0.16,0.07-0.26,0.21-0.2C102.13,96.41,102.14,96.41,102.15,96.42z"/>
		</g>
		<g>
			<path class="st0" d="M100.71,95.77c0.12,0.07,0.23,0.25,0.23,0.39c0.01,0.16-0.09,0.23-0.22,0.17l-0.02-0.01
				c-0.12-0.07-0.23-0.25-0.24-0.4c-0.01-0.16,0.09-0.23,0.23-0.16C100.7,95.77,100.71,95.77,100.71,95.77z"/>
		</g>
		<g>
			<path class="st0" d="M97.82,94.08c0.14,0.09,0.23,0.29,0.22,0.43c-0.01,0.14-0.11,0.19-0.24,0.12l-0.02-0.01
				c-0.14-0.09-0.23-0.28-0.22-0.43c0.01-0.14,0.12-0.19,0.25-0.11C97.81,94.07,97.82,94.07,97.82,94.08z"/>
		</g>
		<g>
			<path class="st0" d="M96.41,93.05c0.13,0.11,0.22,0.3,0.2,0.43c-0.02,0.13-0.13,0.16-0.24,0.1l-0.04-0.03
				c-0.13-0.1-0.22-0.29-0.2-0.44c0.02-0.12,0.12-0.16,0.24-0.09C96.38,93.03,96.39,93.04,96.41,93.05z"/>
		</g>
		<g>
			<path class="st0" d="M95.6,50.99c0.11,0.06,0.21,0.21,0.23,0.35c0.03,0.17-0.05,0.27-0.18,0.23l-0.05-0.03
				c-0.11-0.07-0.21-0.21-0.24-0.36c-0.03-0.17,0.06-0.27,0.19-0.22C95.57,50.97,95.59,50.98,95.6,50.99z"/>
		</g>
		<g>
			<path class="st0" d="M95,91.91c0.13,0.11,0.2,0.3,0.17,0.44c-0.03,0.12-0.13,0.14-0.24,0.07l-0.06-0.04
				c-0.13-0.12-0.21-0.31-0.18-0.44c0.03-0.11,0.13-0.13,0.24-0.07C94.96,91.88,94.98,91.9,95,91.91z"/>
		</g>
		<g>
			<path class="st0" d="M94.19,50.59c0.11,0.06,0.2,0.2,0.23,0.34c0.04,0.17-0.04,0.28-0.17,0.25l-0.07-0.03
				c-0.1-0.06-0.2-0.19-0.23-0.33c-0.04-0.17,0.04-0.28,0.16-0.25C94.15,50.57,94.17,50.58,94.19,50.59z"/>
		</g>
		<g>
			<path class="st0" d="M93.63,90.66c0.13,0.12,0.19,0.32,0.15,0.44c-0.03,0.1-0.12,0.12-0.23,0.06l-0.07-0.05
				c-0.13-0.12-0.2-0.32-0.15-0.44c0.03-0.1,0.13-0.12,0.23-0.06C93.58,90.61,93.6,90.63,93.63,90.66z"/>
		</g>
		<g>
			<path class="st0" d="M90.99,87.84c0.12,0.15,0.16,0.34,0.1,0.44c-0.04,0.07-0.13,0.07-0.21,0.02l-0.11-0.1
				c-0.12-0.14-0.16-0.33-0.1-0.43c0.04-0.07,0.13-0.08,0.22-0.03C90.92,87.77,90.96,87.8,90.99,87.84z"/>
		</g>
		<g>
			<path class="st0" d="M88.98,50.49c0.08,0.04,0.16,0.13,0.2,0.23c0.07,0.17,0.05,0.33-0.07,0.35c-0.04,0.01-0.09,0-0.14-0.03
				c-0.07-0.04-0.15-0.13-0.2-0.23c-0.07-0.17-0.05-0.33,0.07-0.35C88.88,50.45,88.93,50.46,88.98,50.49z"/>
		</g>
		<g>
			<path class="st0" d="M88.57,84.69c0.1,0.16,0.13,0.35,0.05,0.42c-0.05,0.05-0.12,0.04-0.2-0.01c-0.05-0.03-0.1-0.07-0.14-0.13v0
				c-0.1-0.15-0.13-0.34-0.05-0.41c0.05-0.05,0.12-0.05,0.2,0C88.48,84.58,88.53,84.63,88.57,84.69z"/>
		</g>
		<g>
			<path class="st0" d="M84.95,52.84c0.1,0.15,0.13,0.34,0.05,0.42c-0.05,0.04-0.12,0.04-0.2,0c-0.05-0.03-0.1-0.08-0.14-0.14
				c-0.1-0.16-0.13-0.34-0.05-0.42c0.05-0.05,0.12-0.04,0.19,0C84.85,52.72,84.9,52.77,84.95,52.84z"/>
		</g>
		<g>
			<path class="st0" d="M83.61,75.61c0.08,0.05,0.16,0.14,0.21,0.25c0.07,0.18,0.03,0.32-0.09,0.34c-0.04,0-0.07,0-0.12-0.03
				c-0.08-0.05-0.17-0.15-0.21-0.26c-0.07-0.18-0.03-0.33,0.08-0.34C83.52,75.57,83.56,75.58,83.61,75.61z"/>
		</g>
		<g>
			<path class="st0" d="M83.34,54.7c0.12,0.14,0.17,0.34,0.1,0.43c-0.04,0.07-0.13,0.08-0.21,0.03l-0.11-0.09
				c-0.12-0.15-0.16-0.34-0.1-0.44c0.04-0.07,0.12-0.07,0.21-0.03C83.26,54.62,83.3,54.66,83.34,54.7z"/>
		</g>
		<g>
			<path class="st0" d="M81.86,70.03c0.1,0.06,0.19,0.19,0.22,0.32c0.04,0.17-0.03,0.29-0.16,0.26l-0.07-0.03
				c-0.1-0.06-0.2-0.2-0.23-0.33c-0.04-0.17,0.03-0.29,0.16-0.25C81.81,70.01,81.83,70.02,81.86,70.03z"/>
		</g>
		<g>
			<path class="st0" d="M81.72,68.56c0.03,0.17-0.05,0.26-0.18,0.22l-0.06-0.02c-0.11-0.06-0.2-0.2-0.23-0.35
				c-0.03-0.17,0.05-0.27,0.18-0.23c0.02,0.01,0.03,0.01,0.05,0.02C81.59,68.26,81.69,68.41,81.72,68.56z"/>
		</g>
		<g>
			<path class="st0" d="M81.47,66.79c0.01,0.16-0.07,0.25-0.21,0.19l-0.03-0.01c-0.11-0.07-0.22-0.23-0.23-0.38
				c-0.02-0.17,0.07-0.25,0.21-0.2c0.01,0,0.02,0.01,0.03,0.02C81.34,66.47,81.45,66.63,81.47,66.79z"/>
		</g>
		<g>
			<path class="st0" d="M81.05,63.53c-0.14-0.08-0.24-0.26-0.24-0.42c0-0.15,0.11-0.21,0.24-0.13c0,0,0.01,0,0.01,0
				c0.14,0.08,0.24,0.27,0.24,0.42C81.29,63.55,81.18,63.61,81.05,63.53z"/>
		</g>
		<g>
			<path class="st0" d="M81.11,61.89c-0.14-0.09-0.23-0.28-0.22-0.43c0.01-0.14,0.11-0.19,0.23-0.12c0.01,0.01,0.02,0.01,0.03,0.02
				c0.14,0.09,0.24,0.29,0.22,0.43c-0.01,0.14-0.11,0.18-0.24,0.11L81.11,61.89z"/>
		</g>
		<g>
			<path class="st0" d="M81.29,60.33c-0.13-0.1-0.22-0.3-0.19-0.43c0.02-0.13,0.12-0.16,0.23-0.1c0.02,0.01,0.03,0.02,0.05,0.03
				c0.13,0.1,0.22,0.29,0.2,0.43c-0.02,0.12-0.12,0.16-0.24,0.09L81.29,60.33z"/>
		</g>
		<g>
			<path class="st0" d="M81.58,58.86c-0.13-0.11-0.2-0.31-0.17-0.44c0.03-0.11,0.13-0.13,0.24-0.07c0.02,0.01,0.04,0.03,0.06,0.04
				c0.13,0.11,0.2,0.31,0.17,0.44c-0.03,0.11-0.13,0.13-0.24,0.07L81.58,58.86z"/>
		</g>
		<g>
			<path class="st0" d="M81.98,57.49c-0.13-0.12-0.19-0.32-0.15-0.44c0.03-0.1,0.12-0.12,0.22-0.06c0.03,0.02,0.06,0.04,0.09,0.07
				c0.13,0.12,0.19,0.32,0.15,0.44c-0.04,0.1-0.13,0.11-0.23,0.05L81.98,57.49z"/>
		</g>
		<g>
			<path class="st0" d="M82.5,56.22c-0.13-0.13-0.18-0.33-0.13-0.44c0.04-0.08,0.13-0.09,0.22-0.04c0.03,0.02,0.06,0.05,0.1,0.08
				c0.13,0.13,0.18,0.33,0.13,0.44c-0.04,0.08-0.13,0.09-0.22,0.04L82.5,56.22z"/>
		</g>
		<g>
			<path class="st0" d="M116.67,76.86c-0.1-0.06-0.19-0.18-0.23-0.31c-0.05-0.17,0.01-0.3,0.14-0.28c0.03,0,0.05,0.01,0.08,0.03
				c0.1,0.06,0.19,0.18,0.23,0.31c0.05,0.17-0.01,0.3-0.14,0.29L116.67,76.86z"/>
		</g>
		<g>
			<path class="st0" d="M116.9,78.37c-0.04-0.16,0.04-0.28,0.17-0.24c0.02,0.01,0.04,0.02,0.07,0.03c0.1,0.06,0.2,0.19,0.23,0.33
				c0.04,0.17-0.04,0.29-0.17,0.25l-0.07-0.02C117.02,78.65,116.93,78.52,116.9,78.37z"/>
		</g>
		<g>
			<path class="st0" d="M117.24,80.17c-0.03-0.17,0.06-0.26,0.19-0.21c0.02,0.01,0.04,0.01,0.05,0.02c0.11,0.06,0.2,0.21,0.23,0.36
				c0.03,0.17-0.06,0.26-0.19,0.22l-0.05-0.02C117.37,80.47,117.27,80.32,117.24,80.17z"/>
		</g>
		<g>
			<path class="st0" d="M117.68,81.74c0.01,0,0.02,0.01,0.03,0.02c0.12,0.07,0.23,0.23,0.24,0.38c0.02,0.16-0.08,0.25-0.21,0.19
				l-0.03-0.02c-0.12-0.07-0.23-0.24-0.24-0.38C117.46,81.77,117.55,81.69,117.68,81.74z"/>
		</g>
		<g>
			<path class="st0" d="M117.86,84.54c0.14,0.08,0.24,0.27,0.24,0.42c0,0.16-0.11,0.22-0.24,0.14c-0.14-0.08-0.24-0.27-0.24-0.42
				C117.61,84.53,117.72,84.46,117.86,84.54z"/>
		</g>
		<g>
			<path class="st0" d="M117.83,83.49c0.01,0,0.01,0.01,0.02,0.01c0.13,0.07,0.23,0.25,0.24,0.4l0,0c0.01,0.16-0.1,0.23-0.23,0.16
				h-0.01c-0.13-0.08-0.24-0.25-0.24-0.4C117.59,83.48,117.69,83.42,117.83,83.49z"/>
		</g>
		<g>
			<path class="st0" d="M88.84,63.48c0.03,0.02,0.05,0.04,0.08,0.06l1.82,1.79c0.1,0.1,0.16,0.24,0.16,0.36l-0.01,0.08
				c-0.04,0.1-0.13,0.11-0.23,0.05l-0.08-0.06l-1.82-1.8c-0.1-0.1-0.16-0.24-0.16-0.35l0.01-0.09
				C88.65,63.44,88.75,63.42,88.84,63.48z"/>
		</g>
		<g>
			<path class="st0" d="M89.25,62.58c0.03,0.02,0.07,0.05,0.1,0.08l1.75,1.96c0.09,0.1,0.14,0.23,0.14,0.33l-0.02,0.11
				c-0.04,0.08-0.13,0.08-0.22,0.03l-0.1-0.08l-1.75-1.96c-0.09-0.1-0.14-0.23-0.14-0.34l0.03-0.1
				C89.07,62.54,89.16,62.53,89.25,62.58z"/>
		</g>
		<g>
			<path class="st0" d="M105.61,85.5c0.07,0.04,0.13,0.11,0.18,0.2l1.28,2.41c0.04,0.07,0.06,0.15,0.06,0.22
				c0,0.08-0.03,0.14-0.08,0.16c-0.04,0.02-0.1,0.01-0.16-0.02c-0.07-0.04-0.13-0.11-0.18-0.2l-1.28-2.41
				c-0.04-0.08-0.06-0.15-0.06-0.22c0-0.08,0.03-0.14,0.08-0.16C105.49,85.46,105.55,85.47,105.61,85.5z"/>
		</g>
		<g class="st9">
			<g>
				<path class="st0" d="M86.25,81.1c0.06,0.04,0.12,0.1,0.17,0.18c0.09,0.16,0.09,0.34-0.01,0.39c-0.04,0.02-0.1,0.02-0.17-0.02
					c-0.06-0.04-0.12-0.1-0.17-0.18c-0.1-0.17-0.09-0.34,0-0.4C86.13,81.05,86.19,81.06,86.25,81.1z"/>
			</g>
			<g>
				<path class="st0" d="M87.46,83.01c0.1,0.17,0.11,0.34,0.03,0.41c-0.05,0.03-0.12,0.02-0.18-0.02c-0.06-0.04-0.11-0.09-0.16-0.16
					c-0.1-0.16-0.11-0.34-0.03-0.41c0.05-0.03,0.12-0.03,0.19,0.01C87.36,82.88,87.41,82.94,87.46,83.01z"/>
			</g>
			<g>
				<path class="st0" d="M85.28,79.29c0.07,0.04,0.14,0.11,0.19,0.21c0.08,0.16,0.07,0.33-0.03,0.37c-0.04,0.01-0.1,0.01-0.16-0.03
					c-0.07-0.04-0.14-0.12-0.18-0.21c-0.09-0.18-0.07-0.34,0.03-0.38C85.17,79.25,85.22,79.26,85.28,79.29z"/>
			</g>
			<g>
				<path class="st0" d="M84.39,77.46c0.08,0.04,0.15,0.13,0.2,0.23c0.08,0.17,0.06,0.33-0.06,0.35c-0.04,0.01-0.09,0-0.14-0.03
					c-0.07-0.04-0.15-0.12-0.2-0.23c-0.08-0.17-0.05-0.33,0.05-0.36C84.3,77.42,84.35,77.43,84.39,77.46z"/>
			</g>
			<g>
				<path class="st0" d="M89.76,86.31c0.11,0.15,0.14,0.33,0.07,0.42c-0.04,0.06-0.12,0.06-0.21,0.01
					c-0.04-0.03-0.09-0.07-0.13-0.12c-0.11-0.14-0.15-0.34-0.08-0.43c0.05-0.06,0.12-0.06,0.2-0.01
					C89.67,86.21,89.71,86.25,89.76,86.31z"/>
			</g>
			<g>
				<path class="st0" d="M82.92,73.75c0.09,0.05,0.18,0.16,0.22,0.27c0.06,0.17,0.01,0.31-0.11,0.31l-0.11-0.03
					c-0.09-0.05-0.17-0.16-0.21-0.28c-0.07-0.17-0.01-0.31,0.11-0.31C82.85,73.71,82.88,73.72,82.92,73.75z"/>
			</g>
			<g>
				<path class="st0" d="M92.29,89.3c0.12,0.13,0.18,0.32,0.13,0.43c-0.04,0.08-0.13,0.1-0.22,0.04L92.1,89.7
					c-0.13-0.14-0.18-0.33-0.13-0.45c0.04-0.08,0.13-0.09,0.22-0.04C92.22,89.24,92.26,89.27,92.29,89.3z"/>
			</g>
			<g>
				<path class="st0" d="M99.26,94.99c0.13,0.08,0.24,0.26,0.24,0.41c0,0.16-0.11,0.22-0.24,0.14c-0.14-0.08-0.24-0.27-0.24-0.42
					C99.02,94.97,99.12,94.91,99.26,94.99z"/>
			</g>
			<g>
				<path class="st0" d="M93.52,78.78c0.05,0.03,0.11,0.08,0.15,0.15c0.06,0.09,0.09,0.19,0.09,0.27c0,0.07-0.02,0.12-0.05,0.15
					l-1.24,1.01c-0.05,0.04-0.11,0.03-0.19-0.01c-0.05-0.03-0.1-0.08-0.15-0.15c-0.06-0.09-0.09-0.18-0.09-0.27
					c0-0.06,0.02-0.11,0.06-0.14l1.23-1.01C93.38,78.74,93.45,78.74,93.52,78.78z"/>
			</g>
			<g>
				<path class="st0" d="M92.28,76.64c0.07,0.04,0.14,0.11,0.19,0.21c0.03,0.08,0.06,0.15,0.06,0.21c0,0.08-0.03,0.14-0.09,0.16
					l-1.49,0.57c-0.05,0.02-0.1,0.01-0.16-0.03c-0.07-0.04-0.14-0.12-0.19-0.21c-0.03-0.07-0.06-0.15-0.06-0.21
					c0-0.08,0.03-0.14,0.09-0.17l1.49-0.57C92.16,76.6,92.22,76.61,92.28,76.64z"/>
			</g>
			<g>
				<path class="st0" d="M94.22,79.79c0.05,0.03,0.09,0.07,0.13,0.12c0.07,0.1,0.1,0.21,0.1,0.29c0,0.06-0.01,0.1-0.04,0.14
					l-1.09,1.21c-0.05,0.05-0.12,0.05-0.2,0.01c-0.05-0.03-0.1-0.07-0.13-0.13c-0.07-0.1-0.11-0.2-0.11-0.29
					c0-0.06,0.01-0.1,0.04-0.13l1.09-1.22C94.06,79.75,94.14,79.75,94.22,79.79z"/>
			</g>
			<g>
				<path class="st0" d="M94.97,80.75c0.04,0.02,0.08,0.06,0.12,0.1c0.08,0.1,0.13,0.22,0.13,0.32l-0.03,0.11l-0.94,1.41
					c-0.04,0.07-0.13,0.07-0.21,0.02l-0.12-0.1c-0.08-0.1-0.13-0.22-0.13-0.32l0.03-0.12l0.93-1.42
					C94.8,80.7,94.88,80.7,94.97,80.75z"/>
			</g>
			<g>
				<path class="st0" d="M91.29,74.41c0.09,0.05,0.17,0.15,0.21,0.27l0.03,0.15c0,0.1-0.04,0.17-0.13,0.17l-1.69,0.11l-0.12-0.03
					c-0.09-0.05-0.17-0.15-0.21-0.27l-0.03-0.15c0-0.1,0.04-0.17,0.12-0.17l1.7-0.11C91.21,74.38,91.25,74.39,91.29,74.41z"/>
			</g>
			<g>
				<path class="st0" d="M95.75,81.65c0.03,0.02,0.07,0.05,0.1,0.08c0.09,0.1,0.15,0.23,0.15,0.34l-0.02,0.09l-0.77,1.61
					c-0.04,0.08-0.13,0.09-0.22,0.04l-0.1-0.08c-0.09-0.1-0.15-0.24-0.15-0.35l0.02-0.09l0.77-1.61
					C95.57,81.61,95.66,81.59,95.75,81.65z"/>
			</g>
			<g>
				<path class="st0" d="M90.9,73.28c0.12,0.07,0.22,0.22,0.24,0.36c0.02,0.14-0.04,0.24-0.14,0.24l-1.78-0.13l-0.1-0.04
					c-0.1-0.06-0.18-0.17-0.22-0.29c-0.06-0.17,0-0.31,0.12-0.3l1.78,0.13L90.9,73.28z"/>
			</g>
			<g>
				<path class="st0" d="M97.42,83.22c0.02,0.01,0.04,0.02,0.05,0.04c0.11,0.09,0.19,0.25,0.19,0.38l0,0.06l-0.42,1.93
					c-0.03,0.12-0.13,0.15-0.24,0.08l-0.05-0.04c-0.11-0.1-0.19-0.26-0.19-0.39l0.01-0.06l0.42-1.93
					C97.21,83.19,97.31,83.16,97.42,83.22z"/>
			</g>
			<g>
				<path class="st0" d="M98.28,83.89c0.01,0.01,0.02,0.01,0.03,0.02c0.12,0.09,0.21,0.26,0.21,0.4l0,0.03l-0.24,2.08
					c-0.01,0.13-0.12,0.18-0.24,0.11l-0.03-0.02c-0.12-0.09-0.21-0.26-0.21-0.4l0-0.03L98.04,84
					C98.06,83.86,98.16,83.82,98.28,83.89z"/>
			</g>
			<g>
				<path class="st0" d="M90.21,69.98c0.12,0.07,0.22,0.23,0.23,0.38l0,0.04c0,0.14-0.09,0.2-0.21,0.15l-1.92-0.82l-0.03-0.02
					c-0.12-0.07-0.22-0.23-0.24-0.38l0-0.03c0-0.14,0.09-0.21,0.21-0.15l1.92,0.82C90.19,69.97,90.2,69.98,90.21,69.98z"/>
			</g>
			<g>
				<path class="st0" d="M99.16,84.47c0.13,0.08,0.24,0.27,0.23,0.42l-0.06,2.2c0,0.15-0.11,0.21-0.24,0.13
					c-0.14-0.09-0.24-0.27-0.24-0.42l0.06-2.2C98.92,84.45,99.05,84.41,99.16,84.47z"/>
			</g>
			<g>
				<path class="st0" d="M90.14,68.93c0.12,0.07,0.23,0.25,0.23,0.41l0,0.01c0,0.15-0.1,0.21-0.23,0.14l-1.94-1.03l-0.01-0.01
					c-0.13-0.08-0.24-0.25-0.24-0.4l0-0.01c0-0.15,0.1-0.21,0.23-0.14l1.94,1.03C90.13,68.93,90.14,68.93,90.14,68.93z"/>
			</g>
			<g>
				<path class="st0" d="M100.03,84.96c0.13,0.08,0.24,0.25,0.25,0.4l0.12,2.29l0,0.02c0,0.15-0.1,0.21-0.23,0.14l-0.02-0.01
					c-0.13-0.07-0.23-0.24-0.24-0.4l-0.12-2.29v-0.02C99.79,84.95,99.89,84.88,100.03,84.96C100.02,84.95,100.02,84.95,100.03,84.96
					z"/>
			</g>
			<g>
				<path class="st0" d="M100.91,85.35c0.12,0.07,0.22,0.22,0.24,0.37l0.3,2.37l0,0.05c0,0.14-0.09,0.21-0.21,0.16l-0.04-0.02
					c-0.12-0.07-0.22-0.23-0.23-0.37l-0.3-2.37l0-0.05c0-0.14,0.08-0.2,0.21-0.16C100.88,85.34,100.89,85.34,100.91,85.35z"/>
			</g>
			<g>
				<path class="st0" d="M101.76,85.64c0.11,0.06,0.2,0.2,0.23,0.34l0.48,2.43l0.01,0.08c0,0.13-0.07,0.19-0.18,0.16l-0.06-0.03
					c-0.11-0.06-0.2-0.2-0.23-0.35l-0.48-2.43l-0.01-0.08c0-0.13,0.07-0.19,0.18-0.16C101.72,85.62,101.74,85.63,101.76,85.64z"/>
			</g>
			<g>
				<path class="st0" d="M102.6,85.82c0.1,0.06,0.19,0.18,0.23,0.32l0.65,2.47l0.01,0.1c0,0.12-0.06,0.19-0.16,0.17l-0.08-0.03
					c-0.1-0.06-0.19-0.18-0.23-0.31l-0.65-2.47l-0.01-0.1c0-0.12,0.06-0.19,0.16-0.17C102.55,85.8,102.57,85.81,102.6,85.82z"/>
			</g>
			<g>
				<path class="st0" d="M103.41,85.9c0.09,0.05,0.18,0.16,0.22,0.29l0.82,2.49l0.02,0.13c0,0.1-0.05,0.17-0.14,0.17l-0.1-0.04
					c-0.09-0.05-0.18-0.16-0.22-0.29l-0.82-2.49l-0.03-0.14c0-0.1,0.05-0.17,0.14-0.17C103.34,85.87,103.38,85.88,103.41,85.9z"/>
			</g>
			<g>
				<path class="st0" d="M104.19,85.88c0.08,0.05,0.16,0.14,0.21,0.26l0.98,2.48l0.03,0.16c0,0.1-0.04,0.16-0.12,0.17l-0.13-0.03
					c-0.08-0.05-0.16-0.14-0.21-0.26l-0.98-2.48l-0.03-0.16c0-0.1,0.04-0.16,0.12-0.17C104.1,85.84,104.15,85.85,104.19,85.88z"/>
			</g>
			<g>
				<path class="st0" d="M88.53,64.46c0.02,0.01,0.04,0.03,0.06,0.04l1.88,1.63c0.11,0.09,0.18,0.25,0.18,0.38l0,0.06
					c-0.03,0.11-0.13,0.14-0.24,0.07l-0.06-0.04l-1.88-1.63c-0.11-0.09-0.18-0.25-0.18-0.38l0.01-0.06
					C88.33,64.43,88.43,64.4,88.53,64.46z"/>
			</g>
			<g>
				<path class="st0" d="M89.74,61.78c0.04,0.02,0.08,0.06,0.12,0.11l1.67,2.09c0.07,0.1,0.12,0.21,0.12,0.31l-0.04,0.12
					c-0.04,0.06-0.12,0.07-0.21,0.02l-0.12-0.11l-1.67-2.09c-0.08-0.1-0.12-0.21-0.12-0.31l0.03-0.12
					C89.58,61.74,89.66,61.73,89.74,61.78z"/>
			</g>
			<g>
				<path class="st0" d="M104.92,85.75c0.07,0.04,0.15,0.12,0.19,0.23l1.14,2.46c0.03,0.07,0.05,0.13,0.05,0.19
					c0,0.09-0.04,0.15-0.1,0.17c-0.04,0.01-0.09,0-0.14-0.03c-0.08-0.05-0.15-0.13-0.2-0.23l-1.14-2.45
					c-0.03-0.07-0.05-0.14-0.05-0.19c0-0.09,0.04-0.15,0.1-0.17C104.82,85.71,104.87,85.72,104.92,85.75z"/>
			</g>
			<g>
				<path class="st0" d="M90.32,61.1c0.05,0.03,0.1,0.07,0.14,0.13l1.57,2.21c0.07,0.09,0.1,0.2,0.1,0.29c0,0.06-0.01,0.1-0.04,0.14
					c-0.05,0.05-0.12,0.04-0.2,0c-0.05-0.03-0.1-0.07-0.14-0.13l-1.57-2.21c-0.07-0.09-0.1-0.2-0.1-0.29c0-0.06,0.01-0.1,0.04-0.14
					C90.17,61.05,90.25,61.05,90.32,61.1z"/>
			</g>
			<g>
				<path class="st0" d="M90.98,60.52c0.06,0.03,0.11,0.09,0.16,0.16l1.45,2.3c0.06,0.09,0.08,0.18,0.08,0.26
					c0,0.07-0.02,0.12-0.06,0.15c-0.05,0.04-0.12,0.03-0.18-0.01c-0.06-0.03-0.11-0.09-0.16-0.16l-1.45-2.3
					c-0.06-0.09-0.08-0.18-0.08-0.26c0-0.07,0.02-0.12,0.06-0.15C90.85,60.48,90.92,60.48,90.98,60.52z"/>
			</g>
			<g>
				<path class="st0" d="M91.71,60.06c0.07,0.04,0.14,0.11,0.18,0.19l1.33,2.39c0.09,0.16,0.09,0.34-0.01,0.39
					c-0.04,0.03-0.1,0.02-0.17-0.02c-0.07-0.04-0.13-0.1-0.17-0.19l-1.34-2.39c-0.07-0.12-0.09-0.25-0.05-0.33
					C91.53,60.02,91.62,60,91.71,60.06z"/>
			</g>
			<g>
				<path class="st0" d="M106.24,85.17c0.06,0.03,0.12,0.09,0.17,0.17l1.41,2.34c0.05,0.08,0.07,0.17,0.07,0.24
					c0,0.12-0.06,0.18-0.14,0.18l-0.1-0.03c-0.06-0.03-0.12-0.09-0.16-0.17l-1.41-2.34c-0.1-0.16-0.1-0.34-0.01-0.4
					C106.11,85.12,106.17,85.13,106.24,85.17z"/>
			</g>
			<g>
				<path class="st0" d="M106.81,84.73c0.05,0.03,0.1,0.08,0.15,0.14l1.53,2.25c0.06,0.09,0.09,0.19,0.09,0.27
					c0,0.06-0.02,0.11-0.05,0.14c-0.05,0.04-0.12,0.04-0.19,0c-0.05-0.03-0.1-0.08-0.15-0.15l-1.53-2.25
					c-0.07-0.09-0.1-0.2-0.1-0.28c0-0.06,0.02-0.11,0.05-0.14C106.67,84.69,106.74,84.69,106.81,84.73z"/>
			</g>
			<g>
				<path class="st0" d="M92.51,59.73c0.07,0.04,0.15,0.12,0.19,0.22l1.19,2.43c0.03,0.08,0.05,0.15,0.05,0.21
					c0,0.08-0.04,0.15-0.1,0.16c-0.04,0.01-0.1,0-0.15-0.03c-0.07-0.04-0.14-0.12-0.19-0.22l-1.19-2.44
					c-0.03-0.07-0.05-0.14-0.05-0.2c0-0.08,0.03-0.15,0.09-0.17C92.41,59.68,92.46,59.7,92.51,59.73z"/>
			</g>
			<g>
				<path class="st0" d="M107.32,84.2c0.04,0.02,0.09,0.06,0.13,0.11l1.63,2.13c0.07,0.1,0.11,0.21,0.11,0.3
					c0,0.05-0.01,0.1-0.04,0.13c-0.04,0.06-0.12,0.06-0.2,0.01c-0.05-0.03-0.09-0.07-0.13-0.12l-1.63-2.14
					c-0.07-0.09-0.11-0.2-0.11-0.3c0-0.05,0.01-0.1,0.04-0.13C107.16,84.15,107.24,84.15,107.32,84.2z"/>
			</g>
			<g>
				<path class="st0" d="M93.38,59.52c0.08,0.05,0.16,0.14,0.2,0.25l1.05,2.47c0.03,0.06,0.04,0.12,0.04,0.17
					c0,0.09-0.04,0.16-0.11,0.17c-0.04,0-0.09-0.01-0.13-0.03c-0.08-0.05-0.16-0.14-0.2-0.25l-0.52-1.24l-0.52-1.24
					c-0.03-0.06-0.04-0.12-0.04-0.17c0-0.09,0.04-0.16,0.11-0.17C93.29,59.48,93.34,59.49,93.38,59.52z"/>
			</g>
			<g>
				<path class="st0" d="M94.3,59.43c0.09,0.05,0.17,0.16,0.22,0.28l0.88,2.49l0.03,0.15c0,0.1-0.05,0.17-0.13,0.17l-0.11-0.03
					c-0.09-0.05-0.17-0.16-0.21-0.27l-0.89-2.49l-0.03-0.14c0-0.1,0.05-0.17,0.13-0.17C94.22,59.4,94.26,59.41,94.3,59.43z"/>
			</g>
			<g>
				<path class="st0" d="M95.26,59.48c0.1,0.06,0.18,0.17,0.22,0.3l0.73,2.49l0.02,0.12c0,0.11-0.06,0.18-0.15,0.17l-0.09-0.03
					c-0.1-0.06-0.19-0.17-0.22-0.3l-0.73-2.49l-0.02-0.12c0-0.11,0.06-0.18,0.15-0.17C95.2,59.45,95.23,59.46,95.26,59.48z"/>
			</g>
			<g>
				<path class="st0" d="M107.76,83.57c0.04,0.02,0.07,0.05,0.11,0.09l1.72,2.01c0.08,0.09,0.13,0.22,0.13,0.32l-0.03,0.11
					c-0.04,0.07-0.13,0.08-0.21,0.03l-0.11-0.1l-1.72-2.01c-0.08-0.1-0.13-0.22-0.13-0.32l0.03-0.11
					C107.58,83.53,107.67,83.52,107.76,83.57z"/>
			</g>
			<g>
				<path class="st0" d="M108.4,82.07c0.02,0.01,0.04,0.03,0.07,0.05l1.86,1.7c0.1,0.1,0.17,0.25,0.17,0.37l-0.01,0.07
					c-0.03,0.11-0.13,0.13-0.23,0.07l-0.07-0.05l-1.86-1.7c-0.1-0.1-0.17-0.25-0.17-0.37l0.01-0.07
					C108.2,82.03,108.29,82.01,108.4,82.07z"/>
			</g>
			<g>
				<path class="st0" d="M96.27,59.66c0.1,0.06,0.2,0.19,0.23,0.34l0.54,2.45l0.01,0.09c0,0.12-0.07,0.19-0.18,0.16l-0.07-0.03
					c-0.1-0.06-0.2-0.19-0.23-0.33l-0.55-2.45l-0.01-0.09c0-0.12,0.07-0.19,0.18-0.16C96.22,59.63,96.24,59.64,96.27,59.66z"/>
			</g>
			<g>
				<path class="st0" d="M108.12,82.86c0.03,0.02,0.06,0.04,0.09,0.07l1.8,1.86c0.1,0.1,0.15,0.24,0.15,0.35l-0.02,0.09
					c-0.04,0.09-0.13,0.1-0.22,0.05l-0.09-0.07l-1.8-1.86c-0.1-0.1-0.15-0.23-0.15-0.34l0.02-0.1
					C107.93,82.82,108.02,82.81,108.12,82.86z"/>
			</g>
			<g>
				<path class="st0" d="M108.61,81.21c0.01,0.01,0.03,0.02,0.04,0.03l1.9,1.52c0.11,0.09,0.2,0.25,0.2,0.38l0,0.05
					c-0.02,0.12-0.13,0.15-0.24,0.09l-0.04-0.03l-1.9-1.52c-0.12-0.09-0.2-0.25-0.2-0.38l0-0.05
					C108.39,81.17,108.49,81.14,108.61,81.21z"/>
			</g>
			<g>
				<path class="st0" d="M97.29,59.95c0.11,0.07,0.21,0.22,0.24,0.36l0.37,2.4l0,0.06c0,0.13-0.08,0.2-0.2,0.16l-0.04-0.02
					c-0.11-0.07-0.22-0.22-0.24-0.36l-0.37-2.41l0-0.06c0-0.13,0.08-0.2,0.2-0.16C97.26,59.94,97.27,59.94,97.29,59.95z"/>
			</g>
			<g>
				<path class="st0" d="M108.73,80.28c0.01,0.01,0.02,0.01,0.03,0.02l1.93,1.32c0.13,0.09,0.22,0.26,0.22,0.4l0,0.03
					c-0.01,0.14-0.12,0.19-0.24,0.12l-0.03-0.02l-1.93-1.32c-0.13-0.08-0.22-0.26-0.22-0.4V80.4
					C108.5,80.26,108.6,80.21,108.73,80.28z"/>
			</g>
			<g>
				<path class="st0" d="M98.34,60.38c0.12,0.07,0.23,0.24,0.24,0.39l0.19,2.33l0,0.03c0,0.14-0.09,0.21-0.22,0.15l-0.03-0.01
					c-0.12-0.07-0.23-0.24-0.24-0.39l-0.19-2.33l0-0.03c0-0.14,0.1-0.21,0.22-0.15C98.32,60.37,98.33,60.38,98.34,60.38z"/>
			</g>
			<g>
				<path class="st0" d="M98.83,65.34l0,1.43c-3.1-1.42-5.53,0.19-5.54,3.86c-0.01,3.91,2.74,8.67,6.14,10.63
					c3.4,1.97,6.17,0.39,6.18-3.52c0.01-3.61-2.32-7.93-5.35-10.12l0-1.44c3.72,2.6,6.6,7.88,6.59,12.28
					c-0.01,4.69-3.34,6.59-7.43,4.23c-4.08-2.36-7.39-8.08-7.37-12.77C92.07,65.46,95.05,63.52,98.83,65.34z"/>
			</g>
			<g>
				<path class="st0" d="M110.71,80.42c0.13,0.08,0.24,0.26,0.24,0.42c0,0.16-0.11,0.22-0.24,0.14l-1.94-1.12
					c-0.13-0.08-0.24-0.26-0.24-0.42c0-0.16,0.11-0.22,0.24-0.14L110.71,80.42z"/>
			</g>
			<g>
				<path class="st0" d="M99.4,60.92c0.14,0.08,0.24,0.27,0.24,0.42l0.01,2.24c0,0.15-0.11,0.22-0.24,0.14
					c-0.14-0.08-0.24-0.27-0.24-0.42l-0.01-2.23C99.16,60.91,99.26,60.85,99.4,60.92z"/>
			</g>
			<g>
				<path class="st0" d="M100.45,61.57c0.01,0,0.02,0.01,0.02,0.02c0.13,0.09,0.22,0.26,0.22,0.4v0.02l-0.17,2.13
					c-0.01,0.14-0.12,0.18-0.24,0.11l-0.02-0.01c-0.13-0.08-0.22-0.26-0.22-0.4l0-0.02l0.17-2.12
					C100.22,61.56,100.32,61.5,100.45,61.57z"/>
			</g>
			<g>
				<path class="st0" d="M110.56,78.16c0.12,0.07,0.22,0.22,0.24,0.37l0,0.05c0,0.13-0.08,0.2-0.21,0.16l-1.91-0.73l-0.04-0.02
					c-0.11-0.07-0.22-0.22-0.24-0.37l0-0.05c0-0.13,0.08-0.2,0.2-0.16l1.91,0.73C110.54,78.15,110.55,78.16,110.56,78.16z"/>
			</g>
			<g>
				<path class="st0" d="M110.34,76.84c0.11,0.06,0.21,0.2,0.23,0.35l0,0.07c0,0.13-0.07,0.2-0.18,0.17l-1.87-0.51l-0.06-0.03
					c-0.11-0.06-0.2-0.2-0.23-0.34l-0.01-0.08c0-0.12,0.07-0.19,0.18-0.16l1.87,0.5C110.3,76.82,110.32,76.83,110.34,76.84z"/>
			</g>
			<g>
				<path class="st0" d="M102.54,63.22c0.02,0.01,0.04,0.03,0.06,0.05c0.11,0.1,0.18,0.25,0.18,0.37l-0.01,0.07l-0.53,1.84
					c-0.03,0.1-0.13,0.13-0.24,0.06l-0.07-0.05c-0.1-0.09-0.17-0.25-0.17-0.37l0.01-0.07l0.53-1.84
					C102.33,63.18,102.43,63.16,102.54,63.22z"/>
			</g>
			<g>
				<path class="st0" d="M114.72,85.03l1.16,0.67c-0.9,9.01-7.94,12.38-16.45,7.47c-9.11-5.26-16.47-18.01-16.44-28.48
					c0.02-8.42,4.82-12.8,11.43-11.45l0,1.35c-5.99-1.04-10.32,3.04-10.34,10.74c-0.03,9.74,6.85,21.65,15.32,26.54
					C107.29,96.42,113.82,93.32,114.72,85.03z"/>
			</g>
			<g>
				<path class="st0" d="M110.02,75.5c0.1,0.06,0.19,0.18,0.23,0.31l0.01,0.11c0,0.11-0.06,0.18-0.16,0.17l-1.82-0.27l-0.08-0.03
					c-0.1-0.06-0.19-0.18-0.23-0.31l-0.02-0.11c0-0.11,0.06-0.18,0.16-0.17l1.82,0.27C109.97,75.47,110,75.48,110.02,75.5z"/>
			</g>
			<g>
				<path class="st0" d="M103.54,64.18c0.03,0.02,0.06,0.04,0.09,0.07c0.1,0.1,0.16,0.24,0.16,0.35l-0.02,0.09l-0.7,1.67
					c-0.04,0.09-0.13,0.11-0.23,0.05l-0.08-0.07c-0.1-0.1-0.16-0.24-0.16-0.35l0.01-0.09l0.35-0.83l0.35-0.84
					C103.35,64.13,103.44,64.12,103.54,64.18z"/>
			</g>
			<g>
				<path class="st0" d="M109.61,74.14c0.09,0.05,0.18,0.16,0.22,0.28l0.03,0.14c0,0.11-0.05,0.18-0.14,0.17l-1.75-0.04l-0.1-0.04
					c-0.09-0.05-0.17-0.16-0.22-0.28l-0.03-0.14c0-0.11,0.05-0.18,0.14-0.17l1.75,0.03C109.54,74.11,109.57,74.12,109.61,74.14z"/>
			</g>
			<g>
				<path class="st0" d="M109.11,72.78c0.08,0.05,0.16,0.14,0.2,0.25l0.03,0.17c0,0.1-0.04,0.16-0.12,0.17l-1.66,0.2l-0.13-0.03
					c-0.08-0.05-0.16-0.14-0.2-0.25l-0.03-0.17c0-0.1,0.04-0.16,0.12-0.17l1.66-0.2C109.02,72.74,109.06,72.75,109.11,72.78z"/>
			</g>
			<g>
				<path class="st0" d="M105.43,66.36c0.04,0.02,0.09,0.06,0.13,0.11c0.07,0.1,0.11,0.21,0.11,0.31c0,0.05-0.01,0.1-0.04,0.13
					l-1.03,1.3c-0.04,0.06-0.12,0.06-0.21,0.01c-0.04-0.03-0.09-0.07-0.13-0.12c-0.07-0.09-0.11-0.21-0.11-0.3
					c0-0.05,0.01-0.1,0.04-0.13l1.03-1.3C105.27,66.31,105.35,66.31,105.43,66.36z"/>
			</g>
			<g>
				<path class="st0" d="M108.52,71.42c0.04,0.02,0.07,0.05,0.11,0.09c0.08,0.1,0.13,0.22,0.13,0.33c0,0.1-0.04,0.16-0.1,0.17
					l-1.55,0.42l0,0l0,0c-0.05,0.01-0.1,0-0.15-0.03c-0.07-0.04-0.15-0.13-0.19-0.22c-0.03-0.07-0.05-0.14-0.05-0.2
					c0-0.09,0.03-0.15,0.1-0.17l0,0h0.01l0.03-0.01l0,0l0.01,0l0.37-0.1c0.28-0.07,0.34-0.09,0.35-0.09l0.21-0.06
					c0.13-0.04,0.31-0.09,0.57-0.16C108.42,71.38,108.47,71.39,108.52,71.42z"/>
			</g>
			<g>
				<path class="st0" d="M106.3,67.55c0.05,0.03,0.1,0.08,0.14,0.14c0.07,0.09,0.1,0.2,0.1,0.28c0,0.06-0.01,0.11-0.05,0.14
					l-1.18,1.09c-0.05,0.05-0.12,0.04-0.19,0c-0.05-0.03-0.1-0.08-0.15-0.14c-0.06-0.09-0.1-0.2-0.1-0.28
					c0-0.06,0.02-0.11,0.05-0.14l1.18-1.09C106.16,67.51,106.23,67.51,106.3,67.55z"/>
			</g>
			<g>
				<path class="st0" d="M107.85,70.1c0.07,0.04,0.13,0.11,0.18,0.2c0.04,0.08,0.06,0.16,0.06,0.22c0,0.08-0.03,0.14-0.08,0.16
					l-1.45,0.66c-0.05,0.02-0.1,0.01-0.17-0.03c-0.07-0.04-0.13-0.11-0.18-0.19c-0.04-0.08-0.06-0.16-0.06-0.22
					c0-0.08,0.03-0.14,0.08-0.16l1.45-0.66C107.73,70.05,107.79,70.06,107.85,70.1z"/>
			</g>
			<g>
				<path class="st0" d="M110.68,79.44c0.13,0.08,0.24,0.25,0.25,0.4l0,0.02c0,0.15-0.1,0.21-0.23,0.14l-1.93-0.94l-0.02-0.01
					c-0.13-0.07-0.24-0.25-0.24-0.4v-0.02c0-0.15,0.1-0.21,0.23-0.14L110.68,79.44C110.67,79.43,110.68,79.43,110.68,79.44z"/>
			</g>
			<g>
				<path class="st0" d="M85.76,66.29c-0.02,8.71,6.1,19.32,13.68,23.7c6.99,4.03,12.77,1.36,13.66-5.9l1.14,0.66
					c-0.9,7.98-7.22,10.95-14.83,6.56c-8.21-4.74-14.87-16.27-14.84-25.71c0.02-7.39,4.13-11.33,9.85-10.42l0,1.45
					C89.36,56.03,85.78,59.65,85.76,66.29z"/>
			</g>
			<g>
				<path class="st0" d="M103.62,60.12c5.76,5.24,10.09,13.57,10.66,20.98l-1.13-0.65c-0.56-6.68-4.39-14.12-9.53-18.94
					L103.62,60.12z"/>
			</g>
			<g>
				<path class="st0" d="M92.87,77.74c-0.06-0.04-0.13-0.05-0.17-0.02l-1.37,0.79c-0.05,0.03-0.07,0.08-0.07,0.16
					c0,0.08,0.02,0.16,0.07,0.24c0.05,0.08,0.11,0.14,0.17,0.18c0.07,0.04,0.13,0.04,0.17,0.02l1.37-0.8
					c0.05-0.03,0.07-0.08,0.07-0.15s-0.02-0.16-0.07-0.24C92.99,77.83,92.93,77.77,92.87,77.74z"/>
			</g>
			<g>
				<path class="st0" d="M91.75,75.54c0.08,0.04,0.15,0.13,0.2,0.23c0.03,0.07,0.04,0.13,0.04,0.18c0,0.09-0.04,0.16-0.11,0.17
					l-1.59,0.34c-0.04,0-0.09,0-0.14-0.03c-0.07-0.04-0.15-0.13-0.2-0.23c-0.03-0.07-0.04-0.13-0.04-0.19
					c0-0.09,0.04-0.16,0.11-0.17l1.59-0.34C91.65,75.5,91.7,75.51,91.75,75.54z"/>
			</g>
			<g>
				<path class="st0" d="M96.57,82.47c0.03,0.01,0.05,0.03,0.08,0.06c0.1,0.09,0.17,0.24,0.16,0.36l-0.01,0.08l-0.6,1.78
					c-0.03,0.1-0.13,0.12-0.23,0.06l-0.07-0.05c-0.1-0.1-0.17-0.25-0.16-0.36l0.01-0.08l0.6-1.78
					C96.37,82.43,96.47,82.41,96.57,82.47z"/>
			</g>
			<g>
				<path class="st0" d="M90.59,72.16c0.1,0.06,0.2,0.19,0.23,0.33l0.01,0.09c0,0.12-0.07,0.19-0.17,0.17l-1.84-0.36l-0.08-0.03
					c-0.1-0.06-0.2-0.19-0.23-0.32l-0.01-0.1c0-0.12,0.07-0.19,0.17-0.17l1.84,0.36C90.54,72.14,90.57,72.15,90.59,72.16z"/>
			</g>
			<g>
				<path class="st0" d="M90.36,71.06c0.11,0.06,0.21,0.21,0.23,0.35l0,0.07c0,0.13-0.07,0.2-0.19,0.16l-1.89-0.59l-0.06-0.03
					c-0.11-0.06-0.21-0.21-0.23-0.35l0-0.06c0-0.13,0.07-0.2,0.19-0.17l1.89,0.6C90.32,71.04,90.34,71.05,90.36,71.06z"/>
			</g>
			<g>
				<path class="st0" d="M88.22,66.69C88.22,66.69,88.23,66.7,88.22,66.69l1.94,1.25c0.13,0.09,0.23,0.26,0.23,0.41v0.02
					c0,0.14-0.11,0.19-0.24,0.12l-0.01-0.01l-1.93-1.24c-0.13-0.08-0.23-0.27-0.23-0.41l0-0.01C87.98,66.66,88.09,66.62,88.22,66.69
					z"/>
			</g>
			<g>
				<path class="st0" d="M88.32,65.54c0.01,0.01,0.03,0.02,0.04,0.03l1.92,1.44c0.12,0.09,0.2,0.26,0.2,0.39l0,0.04
					c-0.02,0.13-0.12,0.16-0.24,0.1l-0.03-0.02l-1.92-1.44c-0.12-0.09-0.21-0.26-0.21-0.4l0-0.04
					C88.11,65.51,88.21,65.47,88.32,65.54z"/>
			</g>
			<g>
				<path class="st0" d="M84.09,53.7c0.12,0.15,0.15,0.34,0.08,0.43c-0.05,0.06-0.13,0.05-0.21,0l-0.13-0.11
					c-0.11-0.15-0.15-0.35-0.07-0.43c0.04-0.06,0.12-0.06,0.2-0.01C84.01,53.61,84.05,53.65,84.09,53.7z"/>
			</g>
			<g>
				<path class="st0" d="M110.15,97.28c0.08,0.04,0.15,0.13,0.2,0.24c0.08,0.17,0.06,0.32-0.06,0.35c-0.04,0.02-0.09,0-0.14-0.03
					c-0.07-0.04-0.15-0.13-0.19-0.23c-0.08-0.17-0.06-0.33,0.05-0.36C110.05,97.24,110.1,97.26,110.15,97.28z"/>
			</g>
			<g>
				<path class="st0" d="M111.3,96.92c0.07,0.04,0.14,0.11,0.19,0.21c0.08,0.16,0.07,0.33-0.03,0.37c-0.05,0.02-0.1,0.01-0.16-0.02
					c-0.07-0.04-0.14-0.11-0.18-0.2c-0.09-0.17-0.07-0.34,0.03-0.38C111.19,96.88,111.24,96.89,111.3,96.92z"/>
			</g>
			<g>
				<path class="st0" d="M85.72,51.94c0.06,0.03,0.11,0.09,0.16,0.16c0.1,0.16,0.11,0.34,0.02,0.4c-0.05,0.03-0.11,0.03-0.18-0.01
					c-0.06-0.03-0.11-0.09-0.16-0.16c-0.1-0.16-0.11-0.35-0.03-0.41C85.59,51.89,85.66,51.9,85.72,51.94z"/>
			</g>
			<g>
				<path class="st0" d="M86.73,51.31c0.06,0.04,0.13,0.1,0.17,0.19c0.1,0.17,0.09,0.34-0.01,0.39c-0.05,0.03-0.1,0.01-0.16-0.02
					c-0.07-0.04-0.13-0.1-0.18-0.19c-0.09-0.17-0.09-0.34,0.01-0.39v0C86.61,51.27,86.67,51.28,86.73,51.31z"/>
			</g>
			<g>
				<path class="st0" d="M113.37,95.76c0.06,0.03,0.11,0.09,0.16,0.16c0.1,0.16,0.11,0.35,0.03,0.41c-0.05,0.03-0.12,0.03-0.18-0.01
					c-0.06-0.04-0.11-0.09-0.16-0.16c-0.1-0.16-0.11-0.34-0.03-0.4C113.23,95.72,113.3,95.72,113.37,95.76z"/>
			</g>
			<g>
				<path class="st0" d="M87.82,50.83c0.07,0.04,0.14,0.12,0.19,0.21c0.09,0.17,0.07,0.34-0.04,0.38c-0.04,0.01-0.1,0-0.16-0.03
					c-0.07-0.04-0.14-0.11-0.18-0.21c-0.09-0.17-0.07-0.34,0.04-0.37C87.71,50.79,87.77,50.8,87.82,50.83z"/>
			</g>
			<g>
				<path class="st0" d="M114.41,95.11c0.11,0.15,0.13,0.34,0.06,0.42c-0.05,0.05-0.12,0.04-0.2,0c-0.05-0.03-0.1-0.08-0.14-0.13
					c-0.11-0.16-0.13-0.35-0.05-0.42c0.04-0.05,0.12-0.05,0.19,0C114.32,95.01,114.37,95.05,114.41,95.11z"/>
			</g>
			<g>
				<path class="st0" d="M90.2,50.29c0.08,0.05,0.16,0.15,0.21,0.26c0.07,0.17,0.03,0.32-0.09,0.33l-0.12-0.03
					c-0.08-0.05-0.17-0.15-0.21-0.26c-0.07-0.16-0.03-0.32,0.08-0.33C90.12,50.26,90.16,50.27,90.2,50.29z"/>
			</g>
			<g>
				<path class="st0" d="M91.49,50.25c0.09,0.05,0.17,0.16,0.21,0.28c0.06,0.18,0.01,0.31-0.11,0.31l-0.11-0.04
					c-0.09-0.05-0.17-0.16-0.22-0.28c-0.06-0.17-0.01-0.31,0.11-0.31C91.42,50.22,91.45,50.23,91.49,50.25z"/>
			</g>
			<g>
				<path class="st0" d="M92.82,50.34c0.1,0.06,0.19,0.18,0.23,0.31c0.05,0.17-0.01,0.29-0.14,0.29l-0.09-0.04
					c-0.1-0.06-0.19-0.17-0.23-0.31c-0.05-0.17,0.01-0.3,0.14-0.29C92.76,50.32,92.79,50.33,92.82,50.34z"/>
			</g>
			<g>
				<path class="st0" d="M101.51,62.35c0.01,0.01,0.03,0.02,0.04,0.03c0.11,0.09,0.2,0.25,0.2,0.39l0,0.05l-0.35,1.99
					c-0.02,0.12-0.12,0.16-0.24,0.09l-0.04-0.03c-0.12-0.09-0.2-0.26-0.2-0.39l0-0.05l0.35-1.99
					C101.29,62.32,101.39,62.28,101.51,62.35z"/>
			</g>
			<g>
				<path class="st0" d="M104.51,65.23c0.04,0.02,0.07,0.05,0.11,0.09c0.09,0.1,0.13,0.22,0.13,0.33l-0.03,0.11l-0.87,1.49
					c-0.04,0.08-0.13,0.08-0.21,0.03l-0.11-0.09c-0.09-0.1-0.13-0.22-0.13-0.33l0.03-0.11l0.87-1.49
					C104.34,65.19,104.42,65.18,104.51,65.23z"/>
			</g>
			<g>
				<path class="st0" d="M97.03,51.53c0.12,0.07,0.22,0.23,0.24,0.38c0.02,0.16-0.07,0.25-0.21,0.19l-0.03-0.02
					c-0.12-0.07-0.23-0.23-0.24-0.38c-0.02-0.17,0.08-0.25,0.21-0.19C97.01,51.52,97.02,51.52,97.03,51.53z"/>
			</g>
			<g>
				<path class="st0" d="M107.11,68.8c0.06,0.03,0.12,0.09,0.16,0.17c0.05,0.09,0.08,0.18,0.08,0.25c0,0.07-0.02,0.12-0.07,0.15
					l-1.32,0.88c-0.05,0.03-0.11,0.02-0.18-0.01c-0.06-0.03-0.12-0.09-0.16-0.17c-0.05-0.09-0.08-0.17-0.08-0.25
					c0-0.07,0.02-0.12,0.06-0.16l1.32-0.88C106.98,68.76,107.04,68.77,107.11,68.8z"/>
			</g>
			<g>
				<path class="st0" d="M98.48,52.2c0.13,0.07,0.23,0.25,0.24,0.4c0,0.16-0.1,0.23-0.23,0.16l-0.01-0.01
					c-0.13-0.07-0.24-0.25-0.24-0.4c-0.01-0.16,0.1-0.23,0.23-0.16C98.47,52.2,98.47,52.2,98.48,52.2z"/>
			</g>
			<g>
				<path class="st0" d="M99.93,53.02c0.14,0.08,0.24,0.27,0.23,0.42c0,0.15-0.11,0.21-0.24,0.13l0,0
					c-0.14-0.08-0.24-0.27-0.24-0.42C99.69,53,99.8,52.94,99.93,53.02C99.93,53.01,99.93,53.02,99.93,53.02z"/>
			</g>
			<g>
				<path class="st0" d="M101.4,53.96c0.14,0.1,0.23,0.29,0.22,0.43c-0.02,0.14-0.12,0.18-0.24,0.11l-0.02-0.01
					c-0.13-0.09-0.23-0.28-0.22-0.43c0.01-0.14,0.12-0.18,0.25-0.11C101.39,53.96,101.4,53.96,101.4,53.96z"/>
			</g>
			<g>
				<path class="st0" d="M102.86,55.05c0.13,0.11,0.22,0.3,0.2,0.43c-0.02,0.12-0.12,0.16-0.24,0.09l-0.04-0.03
					c-0.13-0.11-0.22-0.3-0.19-0.43c0.02-0.13,0.12-0.16,0.23-0.1C102.83,55.02,102.84,55.03,102.86,55.05z"/>
			</g>
			<g>
				<path class="st0" d="M105.7,57.55c0.13,0.12,0.19,0.32,0.15,0.44c-0.04,0.1-0.13,0.11-0.23,0.05l-0.07-0.06
					c-0.13-0.12-0.2-0.32-0.15-0.44c0.04-0.1,0.13-0.11,0.23-0.06C105.65,57.5,105.67,57.52,105.7,57.55z"/>
			</g>
			<g>
				<path class="st0" d="M107.06,58.96c0.12,0.13,0.18,0.33,0.13,0.44c-0.04,0.08-0.13,0.09-0.23,0.03l-0.1-0.08
					c-0.12-0.14-0.18-0.33-0.13-0.44c0.05-0.08,0.13-0.09,0.23-0.04C107,58.9,107.03,58.93,107.06,58.96z"/>
			</g>
			<g>
				<path class="st0" d="M116.33,74.73c0.06,0.17,0,0.31-0.12,0.31l-0.1-0.03c-0.09-0.05-0.18-0.16-0.22-0.29
					c-0.05-0.17,0-0.3,0.11-0.3c0.03,0,0.07,0.01,0.11,0.03C116.2,74.5,116.29,74.61,116.33,74.73z"/>
			</g>
			<g>
				<path class="st0" d="M103.62,58.2c6.68,5.82,11.71,15.39,12.3,23.85l-1.16-0.67c-0.58-7.71-5.11-16.42-11.15-21.83L103.62,58.2z
					"/>
			</g>
			<g>
				<path class="st0" d="M108.38,60.48c0.12,0.14,0.16,0.33,0.09,0.43c-0.04,0.07-0.13,0.08-0.21,0.03l-0.11-0.1
					c-0.12-0.15-0.16-0.34-0.1-0.44c0.04-0.07,0.13-0.08,0.21-0.03C108.3,60.39,108.34,60.43,108.38,60.48z"/>
			</g>
			<g>
				<path class="st0" d="M115.64,72.84c0.07,0.17,0.03,0.32-0.09,0.33l-0.12-0.04c-0.08-0.05-0.16-0.14-0.2-0.26
					c-0.07-0.18-0.03-0.32,0.09-0.33c0.04,0,0.08,0.01,0.12,0.03C115.52,72.62,115.6,72.72,115.64,72.84z"/>
			</g>
			<g>
				<path class="st0" d="M109.64,62.07c0.11,0.15,0.14,0.34,0.07,0.43c-0.05,0.05-0.13,0.05-0.21,0.01
					c-0.04-0.03-0.09-0.07-0.13-0.12c-0.11-0.15-0.14-0.34-0.07-0.42c0.05-0.06,0.12-0.06,0.2-0.01
					C109.56,61.97,109.6,62.01,109.64,62.07z"/>
			</g>
			<g>
				<path class="st0" d="M114.86,70.96L114.86,70.96c0.08,0.17,0.05,0.32-0.06,0.35c-0.04,0-0.09,0-0.14-0.03
					c-0.08-0.05-0.15-0.13-0.2-0.24c-0.07-0.17-0.05-0.33,0.07-0.34c0.04-0.01,0.09,0,0.14,0.03
					C114.74,70.77,114.82,70.85,114.86,70.96z"/>
			</g>
			<g>
				<path class="st0" d="M110.84,63.74c0.1,0.16,0.12,0.35,0.05,0.42c-0.05,0.04-0.12,0.03-0.2-0.01c-0.05-0.03-0.1-0.07-0.14-0.14
					c-0.11-0.16-0.13-0.34-0.05-0.41c0.05-0.05,0.12-0.04,0.2,0C110.75,63.63,110.8,63.68,110.84,63.74z"/>
			</g>
			<g>
				<path class="st0" d="M113.8,68.88c0.07,0.04,0.14,0.12,0.19,0.21c0.08,0.17,0.07,0.34-0.04,0.37c-0.05,0.02-0.1,0.01-0.15-0.02
					c-0.07-0.04-0.14-0.12-0.19-0.22c-0.08-0.16-0.06-0.33,0.04-0.37C113.69,68.84,113.75,68.85,113.8,68.88z"/>
			</g>
			<g>
				<path class="st0" d="M111.81,65.31c0.06,0.03,0.12,0.09,0.16,0.17c0.1,0.16,0.1,0.34,0.02,0.4c-0.05,0.03-0.12,0.03-0.18-0.01
					c-0.05-0.03-0.11-0.09-0.16-0.17c-0.1-0.16-0.1-0.34-0.02-0.41C111.68,65.26,111.74,65.27,111.81,65.31z"/>
			</g>
			<g>
				<path class="st0" d="M112.85,67.07c0.07,0.04,0.13,0.11,0.18,0.19c0.09,0.16,0.09,0.33-0.01,0.38
					c-0.05,0.03-0.11,0.02-0.17-0.02c-0.07-0.04-0.13-0.1-0.17-0.19c-0.09-0.16-0.09-0.34,0.01-0.39
					C112.73,67.03,112.79,67.04,112.85,67.07z"/>
			</g>
			<g>
				<path class="st0" d="M99.58,45.47c13.08,7.55,23.78,25.29,24.85,40.64l-4.21-2.43c-1.06-12.67-9.89-27.17-20.65-33.38
					c-11.5-6.64-20.86-1.31-20.89,11.91c-0.04,13.22,9.26,29.31,20.76,35.95c10.6,6.12,19.36,2.07,20.71-8.95l4.23,2.44
					c-1.37,13.67-12.03,18.79-24.95,11.33C85.6,95,74.44,75.65,74.48,59.78C74.53,43.9,85.76,37.49,99.58,45.47z"/>
			</g>
		</g>
		<g>
			<path class="st0" d="M116.51,91.93c0.13,0.13,0.19,0.33,0.13,0.44c-0.04,0.09-0.13,0.1-0.22,0.05l-0.09-0.08
				c-0.13-0.13-0.18-0.33-0.13-0.44c0.04-0.09,0.13-0.1,0.22-0.04C116.46,91.87,116.49,91.9,116.51,91.93z"/>
		</g>
		<g>
			<path class="st0" d="M82.33,71.88c0.1,0.06,0.19,0.18,0.22,0.3c0.05,0.17-0.01,0.3-0.14,0.29l-0.09-0.03
				c-0.09-0.05-0.18-0.17-0.22-0.3c-0.05-0.17,0.01-0.31,0.14-0.29C82.27,71.85,82.3,71.86,82.33,71.88z"/>
		</g>
		<g>
			<path class="st0" d="M81.1,65.22l-0.01,0c-0.13-0.08-0.24-0.25-0.24-0.4c-0.01-0.16,0.1-0.24,0.23-0.16
				c0.01,0,0.01,0.01,0.02,0.01c0.13,0.07,0.23,0.25,0.24,0.4C81.33,65.22,81.23,65.29,81.1,65.22z"/>
		</g>
	</g>
	<g>
		<g>
			<g>
				<path class="st29" d="M136.71,34.68c0.91,0.53,1.83,1.23,2.74,2.11c0.18,0.17,0.35,0.35,0.52,0.53l-0.85,1.74
					c-0.13-0.14-0.26-0.28-0.4-0.4c-0.68-0.66-1.37-1.18-2.05-1.58c-0.67-0.39-1.33-0.65-1.96-0.78l-0.63-2.66
					C134.94,33.82,135.82,34.16,136.71,34.68z"/>
			</g>
			<g>
				<path class="st19" d="M139.98,37.32c0.78,0.82,1.48,1.73,2.09,2.68l-1.37,1.07c-0.46-0.71-0.99-1.39-1.57-2.01L139.98,37.32z"/>
			</g>
			<g>
				<path class="st32" d="M142.07,40c2.59,3.99,3.67,8.8,2.45,12c-1.26,3.29-4.57,3.91-8.07,1.89c-0.91-0.52-1.83-1.22-2.73-2.1
					c-3.53-3.44-5.69-8.53-5.57-12.54l2.11,1.26c-0.09,3.01,1.53,6.83,4.17,9.4c0.68,0.66,1.37,1.18,2.05,1.58
					c2.63,1.52,5.11,1.05,6.05-1.41c0.92-2.4,0.11-6.01-1.84-9L142.07,40z"/>
			</g>
			<g>
				<path class="st25" d="M134.1,33.65l0.63,2.66c-1.83-0.38-3.38,0.35-4.09,2.18c-0.23,0.61-0.36,1.29-0.38,2.02l-2.11-1.26
					c0.03-0.97,0.19-1.88,0.5-2.69C129.58,34.11,131.66,33.14,134.1,33.65z"/>
			</g>
			<g>
				<polygon class="st19" points="173.34,87.35 173.29,102.76 169.37,100.57 169.42,85.15 				"/>
			</g>
			<g>
				<polygon class="st19" points="167.5,88.4 167.46,99.5 163.54,97.3 163.58,86.2 				"/>
			</g>
			<g>
				<polygon class="st19" points="179.01,83.38 178.95,105.93 175.03,103.74 175.1,81.18 				"/>
			</g>
			<g>
				<path class="st29" d="M178.8,60.17c0.71,0.41,1.27,1.38,1.27,2.18c0,0.81-0.57,1.15-1.27,0.75l-11.15-6.27
					c-0.71-0.41-1.28-1.38-1.27-2.18c0-0.81,0.58-1.14,1.28-0.74L178.8,60.17z"/>
			</g>
			<g>
				<path class="st19" d="M178.79,65.27c0.71,0.41,1.27,1.38,1.27,2.18c0,0.81-0.57,1.14-1.27,0.75l-11.15-6.27
					c-0.71-0.41-1.28-1.38-1.27-2.18c0-0.81,0.58-1.14,1.28-0.74L178.79,65.27z"/>
			</g>
			<g>
				<path class="st19" d="M178.77,70.37c0.71,0.41,1.27,1.38,1.27,2.18c0,0.81-0.57,1.15-1.27,0.75l-11.15-6.27
					c-0.71-0.41-1.28-1.38-1.27-2.18c0-0.81,0.58-1.14,1.28-0.74L178.77,70.37z"/>
			</g>
			<g>
				<polygon class="st29" points="159.82,51.4 159.82,52.28 153.49,48.73 153.5,47.83 				"/>
			</g>
			<g>
				<polygon class="st19" points="156.11,47.91 156.11,48.12 153.12,46.45 150.61,47.9 145.86,45.23 145.86,45.01 150.54,47.65 
					153.05,46.19 				"/>
			</g>
			<g>
				<polygon class="st19" points="147.13,53.05 149.05,56.34 155.09,59.74 155.09,59.95 148.97,56.51 147,53.12 				"/>
			</g>
			<g>
				<polygon class="st29" points="156.64,58.7 156.64,59.59 151.53,56.73 151.54,55.83 				"/>
			</g>
		</g>
	</g>
	<g>
		<g>
			<g>
				<path class="st29" d="M108.85,19.31c3.11,1.8,5.63,6.16,5.62,9.73c-0.01,2.54-1.31,4.1-3.32,3.99c-0.74-0.04-1.51-0.3-2.33-0.77
					c-0.81-0.47-1.59-1.11-2.32-1.91c-2-2.21-3.3-5.27-3.29-7.81C103.21,18.96,105.74,17.52,108.85,19.31z M111.09,32.64
					c1.87,0.07,3.07-1.41,3.08-3.78c0.01-3.37-2.38-7.51-5.32-9.21c-2.94-1.7-5.34-0.33-5.35,3.05c-0.01,2.37,1.19,5.24,3.06,7.33
					c0.02,0.02,0.04,0.04,0.06,0.06c0.69,0.77,1.43,1.38,2.2,1.82c0.77,0.45,1.51,0.69,2.21,0.73
					C111.04,32.64,111.06,32.64,111.09,32.64"/>
			</g>
			<g>
				<path class="st8" d="M108.83,26.18c1.26,0.73,2.27,2.48,2.27,3.92l-0.01,2.54c-0.02,0-0.04,0-0.06,0
					c-0.7-0.03-1.44-0.28-2.21-0.73c-0.77-0.44-1.51-1.05-2.2-1.82c-0.02-0.02-0.04-0.04-0.06-0.06l0.01-2.54
					C106.56,26.05,107.58,25.46,108.83,26.18z"/>
			</g>
			<g>
				<polygon class="st29" points="112.41,35.59 112.41,36.28 105.21,32.13 105.21,31.44 				"/>
			</g>
			<g>
				<polygon class="st29" points="111.23,36.14 111.23,36.82 106.38,34.02 106.38,33.34 				"/>
			</g>
			<g>
				
					<ellipse transform="matrix(0.8646 -0.5025 0.5025 0.8646 2.6204 57.9556)" class="st8" cx="108.85" cy="24.12" rx="1.02" ry="1.76"/>
			</g>
		</g>
	</g>
	<g>
	</g>
	<g>
	</g>
	<g>
	</g>
	<g>
	</g>
	<g>
	</g>
	<g>
	</g>
</g>
</svg>
