<?xml version="1.0" encoding="utf-8"?>
<!-- Generator: Adobe Illustrator 24.0.3, SVG Export Plug-In . SVG Version: 6.00 Build 0)  -->
<svg version="1.1" xmlns="http://www.w3.org/2000/svg" xmlns:xlink="http://www.w3.org/1999/xlink" x="0px" y="0px"
	 viewBox="0 0 190.95 210.99" style="enable-background:new 0 0 190.95 210.99;" xml:space="preserve">
<style type="text/css">
	.st0{fill:#F9A427;}
	.st1{fill:#53589C;}
	.st2{enable-background:new    ;}
	.st3{fill:#47A85A;}
	.st4{opacity:0.3098;fill:#E6E6E7;}
	.st5{fill:#AD3D4D;}
	.st6{fill:#6B81C9;}
	.st7{opacity:0.3098;fill:#DBDCDD;}
</style>
<g id="BACKGROUND">
</g>
<g id="OBJECTS">
	<g id="Capa_4">
	</g>
	<g>
		<g>
			<g>
				<path class="st0" d="M30.5,188.39c0.01,2.79,0.01,4.18,0.02,6.96c-3.08,1.78-4.62,2.67-7.7,4.45c-0.01-2.78-0.01-4.17-0.02-6.96
					C25.88,191.06,27.42,190.17,30.5,188.39z"/>
			</g>
			<g>
				<path class="st1" d="M30.48,179.68c0.01,3.52,0.02,6.06,0.02,8.71c-3.08,1.78-4.62,2.67-7.7,4.45c0.01,2.79,0.01,4.18,0.02,6.96
					c3.08-1.78,4.62-2.67,7.7-4.45c-3.08,1.78-4.62,2.67-7.7,4.45c-0.02-6.27-0.03-9.4-0.04-15.67
					C25.85,182.35,27.39,181.46,30.48,179.68z"/>
			</g>
			<g>
				<path class="st0" d="M41.65,176.99c0.01,4.77,0.02,7.15,0.03,11.91c-3.08,1.78-4.62,2.67-7.7,4.45
					c-0.01-4.76-0.02-7.15-0.03-11.91C37.03,179.66,38.57,178.77,41.65,176.99z"/>
			</g>
			<g>
				<path class="st1" d="M41.61,162.09c0.02,6.02,0.03,10.35,0.04,14.89c-3.08,1.78-4.62,2.67-7.7,4.45
					c0.01,4.77,0.02,7.15,0.03,11.91c3.08-1.78,4.62-2.67,7.7-4.45c-3.08,1.78-4.62,2.67-7.7,4.45
					c-0.03-10.73-0.05-16.08-0.08-26.81C36.99,164.76,38.53,163.88,41.61,162.09z"/>
			</g>
			<g>
				<path class="st0" d="M52.83,173.98c0.01,3.39,0.01,5.08,0.02,8.47c-3.08,1.78-4.62,2.67-7.7,4.45
					c-0.01-3.39-0.01-5.08-0.02-8.47C48.21,176.65,49.75,175.76,52.83,173.98z"/>
			</g>
			<g>
				<path class="st1" d="M52.8,163.39c0.01,4.28,0.02,7.37,0.03,10.59c-3.08,1.78-4.62,2.67-7.7,4.45c0.01,3.39,0.01,5.08,0.02,8.47
					c3.08-1.78,4.62-2.67,7.7-4.45c-3.08,1.78-4.62,2.67-7.7,4.45c-0.02-7.62-0.03-11.44-0.05-19.07
					C48.18,166.06,49.72,165.17,52.8,163.39z"/>
			</g>
			<g>
				
					<ellipse transform="matrix(0.0945 -0.9955 0.9955 0.0945 -96.6684 217.6594)" class="st0" cx="71.31" cy="161.97" rx="14.29" ry="5.3"/>
			</g>
			<g>
				
					<ellipse transform="matrix(0.0686 -0.9976 0.9976 0.0686 -76.8335 225.7158)" class="st0" cx="82.47" cy="154.01" rx="16.36" ry="5.34"/>
			</g>
			<g class="st2">
				<g>
					<path class="st0" d="M63.98,159.99c0.02,6.41,0.03,9.61,0.05,16.02c-3.08,1.78-4.62,2.67-7.7,4.45
						c-0.02-6.41-0.03-9.61-0.05-16.02C59.35,162.65,60.89,161.77,63.98,159.99z"/>
				</g>
				<g>
					<path class="st1" d="M86.21,112.13c0.03,11.29,0.05,16.93,0.08,28.22c-3.08,1.78-4.62,2.67-7.7,4.45
						c-0.03-11.28-0.05-16.93-0.08-28.22C81.59,114.8,83.13,113.91,86.21,112.13z"/>
				</g>
				<g>
					<path class="st1" d="M75.06,125.38c0.02,8.18,0.05,16.36,0.07,24.55c-3.08,1.78-4.62,2.67-7.7,4.45
						c0.02,7.85,0.03,11.78,0.06,19.63c3.08-1.78,4.62-2.67,7.7-4.45c-3.08,1.78-4.62,2.67-7.7,4.45
						c-0.04-14.72-0.08-29.46-0.13-44.18C70.44,128.05,71.99,127.16,75.06,125.38z"/>
				</g>
				<g>
					
						<ellipse transform="matrix(0.5025 -0.8646 0.8646 0.5025 -39.0941 124.1765)" class="st3" cx="88.35" cy="96.06" rx="2.49" ry="1.44"/>
				</g>
				<g>
					<path class="st4" d="M15.69,143.15c25.67-14.82,51.34-29.64,77.01-44.46c0.06,22.61,0.13,45.22,0.19,67.83
						c-25.67,14.82-51.34,29.64-77.01,44.46C15.82,188.38,15.75,165.77,15.69,143.15z M75.13,149.93
						c-0.02-8.18-0.05-16.37-0.07-24.55c-3.08,1.78-4.62,2.67-7.7,4.45c0.04,14.72,0.08,29.46,0.13,44.18
						c3.08-1.78,4.62-2.67,7.7-4.45C75.17,161.71,75.16,157.78,75.13,149.93 M63.98,159.99c-0.02-6.68-0.04-13.36-0.06-20.04
						c-3.08,1.78-4.62,2.67-7.7,4.45c0.03,12.02,0.07,24.04,0.1,36.06c3.08-1.78,4.62-2.67,7.7-4.45
						C64,169.6,63.99,166.4,63.98,159.99 M86.29,140.35c-0.03-11.28-0.05-16.93-0.08-28.22c-3.08,1.78-4.62,2.67-7.7,4.45
						c0.03,11.29,0.05,16.93,0.08,28.22C81.67,143.02,83.21,142.13,86.29,140.35 M41.65,176.99c-0.01-4.54-0.03-8.87-0.04-14.89
						c-3.08,1.78-4.62,2.67-7.7,4.45c0.03,10.73,0.05,16.08,0.08,26.81c3.08-1.78,4.62-2.67,7.7-4.45
						C41.67,184.14,41.67,181.76,41.65,176.99 M86.36,163.11c-0.03-9.06-0.04-13.59-0.06-22.66c-3.08,1.78-4.62,2.67-7.7,4.45
						c0.03,9.06,0.04,13.59,0.06,22.66C81.73,165.78,83.28,164.89,86.36,163.11 M52.83,173.98c-0.01-3.23-0.02-6.31-0.03-10.59
						c-3.08,1.78-4.62,2.67-7.7,4.45c0.02,7.63,0.03,11.44,0.05,19.07c3.08-1.78,4.62-2.67,7.7-4.45
						C52.85,179.07,52.84,177.37,52.83,173.98 M30.5,188.39c-0.01-2.65-0.01-5.19-0.02-8.71c-3.08,1.78-4.62,2.67-7.7,4.45
						c0.02,6.27,0.03,9.41,0.04,15.67c3.08-1.78,4.62-2.67,7.7-4.45C30.51,192.57,30.51,191.17,30.5,188.39"/>
				</g>
				<g>
					<path class="st1" d="M63.92,139.95c0.02,6.68,0.04,13.36,0.06,20.04c-3.08,1.78-4.62,2.67-7.7,4.45
						c0.02,6.41,0.03,9.61,0.05,16.02c3.08-1.78,4.62-2.67,7.7-4.45c-3.08,1.78-4.62,2.67-7.7,4.45
						c-0.03-12.02-0.07-24.04-0.1-36.06C59.3,142.62,60.84,141.73,63.92,139.95z"/>
				</g>
				<g>
					<path class="st5" d="M83.53,96.8c0.98-0.56,1.77-0.11,1.77,1.01c0,1.12-0.79,2.49-1.76,3.05s-1.76,0.11-1.77-1.01
						C81.77,98.73,82.56,97.36,83.53,96.8z"/>
				</g>
				<g>
					<path class="st0" d="M78.73,99.58c0.98-0.56,1.77-0.11,1.77,1.01c0,1.12-0.79,2.49-1.76,3.05c-0.97,0.56-1.76,0.11-1.77-1.01
						C76.97,101.5,77.75,100.14,78.73,99.58z"/>
				</g>
				<g>
					<ellipse transform="matrix(0.866 -0.5 0.5 0.866 -53.0114 43.2509)" class="st1" cx="54.2" cy="120.54" rx="60.2" ry="0.5"/>
				</g>
				<g>
					<path class="st6" d="M15.66,133.45C41.34,118.63,67,103.81,92.67,88.99c0.01,3.57,0.02,5.36,0.03,8.94
						c-25.67,14.82-51.34,29.64-77.01,44.46C15.68,138.81,15.67,137.02,15.66,133.45z M88.35,98.09c0.98-0.56,1.77-1.93,1.76-3.05
						c0-1.12-0.8-1.58-1.77-1.01c-0.98,0.56-1.77,1.93-1.76,3.05C86.58,98.2,87.38,98.65,88.35,98.09 M78.74,103.64
						c0.98-0.56,1.77-1.93,1.76-3.05c0-1.12-0.8-1.58-1.77-1.01c-0.97,0.56-1.76,1.93-1.76,3.05
						C76.97,103.75,77.77,104.2,78.74,103.64 M83.54,100.86c0.98-0.56,1.77-1.93,1.76-3.05c0-1.12-0.8-1.58-1.77-1.01
						c-0.98,0.56-1.76,1.93-1.76,3.05C81.78,100.97,82.57,101.43,83.54,100.86"/>
				</g>
			</g>
		</g>
	</g>
	<g>
		<g>
			<g class="st2">
				<g>
					
						<ellipse transform="matrix(0.5025 -0.8646 0.8646 0.5025 56.5524 111.3472)" class="st3" cx="125.02" cy="6.54" rx="2.3" ry="1.33"/>
				</g>
				<g>
					
						<ellipse transform="matrix(0.5025 -0.8646 0.8646 0.5025 52.1233 108.7816)" class="st5" cx="120.58" cy="9.1" rx="2.3" ry="1.33"/>
				</g>
				<g>
					<path class="st1" d="M121.26,44.64c0.54-0.31,0.99-0.07,0.99,0.56c0,0.63-0.44,1.4-0.99,1.71
						C108.81,54.1,96.35,61.29,83.9,68.48c-0.54,0.31-0.99,0.07-0.99-0.57c0,0.63,0.45,0.88,0.99,0.57c2.8-1.61,4.19-2.42,6.99-4.04
						c0.54-0.31,0.98-1.07,0.98-1.7c0-0.62-0.44-0.88-0.99-0.56C101.01,56.33,111.13,50.49,121.26,44.64z"/>
				</g>
				<g>
					<path class="st1" d="M121.25,39.14c0.54-0.31,0.99-0.06,0.99,0.57c0,0.62-0.44,1.4-0.99,1.71
						C108.8,48.61,96.34,55.8,83.88,62.99c-0.54,0.31-0.99,0.06-0.99-0.57c0,0.62,0.45,0.88,0.99,0.57
						c7.14-4.12,10.71-6.18,17.85-10.31c0.54-0.31,0.98-1.08,0.98-1.7s-0.44-0.88-0.99-0.57C108.23,46.65,114.74,42.9,121.25,39.14z
						"/>
				</g>
				<g>
					<path class="st6" d="M101.73,50.41c0.54-0.31,0.98-0.05,0.99,0.57s-0.44,1.39-0.98,1.7c-7.14,4.12-10.71,6.19-17.85,10.31
						c-0.54,0.31-0.99,0.06-0.99-0.57s0.44-1.4,0.99-1.71C91.01,56.59,94.58,54.53,101.73,50.41z"/>
				</g>
				<g>
					<path class="st6" d="M119.49,34.65c0.54-0.31,0.98-0.06,0.99,0.57c0,0.62-0.44,1.38-0.98,1.7
						c-11.88,6.86-23.75,13.71-35.63,20.57c-0.54,0.31-0.99,0.07-0.99-0.56c0-0.63,0.44-1.4,0.99-1.71
						C95.74,48.36,107.61,41.51,119.49,34.65z"/>
				</g>
				<g>
					<path class="st1" d="M121.21,28.14c0.54-0.31,0.99-0.06,0.99,0.57c0,0.62-0.44,1.4-0.99,1.71
						c-12.46,7.19-24.91,14.38-37.37,21.58c-0.54,0.31-0.99,0.06-0.99-0.57c0,0.62,0.45,0.88,0.99,0.57
						c9.9-5.72,19.8-11.43,29.7-17.15c0.54-0.31,0.98-1.08,0.98-1.7c0-0.62-0.44-0.88-0.99-0.57
						C116.1,31.09,118.66,29.62,121.21,28.14z"/>
				</g>
				<g>
					<path class="st1" d="M61.79,89.86c0.03-0.02,0.06-0.03,0.09-0.05c0.04-0.02,0.08-0.04,0.12-0.06c0.02-0.01,0.04-0.02,0.05-0.03
						c-0.11,0.06-0.22,0.12-0.33,0.18C61.74,89.88,61.76,89.87,61.79,89.86z"/>
				</g>
				<g>
					<path class="st1" d="M61.49,90.01c0.03-0.02,0.06-0.03,0.09-0.05c0.01-0.01,0.03-0.01,0.04-0.02
						c-0.08,0.04-0.16,0.08-0.23,0.12C61.42,90.05,61.45,90.03,61.49,90.01z"/>
				</g>
				<g>
					<path class="st0" d="M77.42,63.6c0.03,9.45-6.72,21.13-14.94,25.88c-0.07,0.04-0.13,0.08-0.2,0.11
						c-0.11,0.06-0.16,0.09-0.2,0.11c-0.12,0.06-0.16,0.09-0.2,0.11c-0.03,0.02-0.06,0.03-0.09,0.05c-0.04,0.02-0.07,0.04-0.11,0.06
						c-0.03,0.02-0.07,0.03-0.1,0.05c-0.03,0.02-0.06,0.03-0.09,0.05c-0.04,0.02-0.08,0.04-0.12,0.06
						c-0.03,0.01-0.05,0.03-0.08,0.04c-0.04,0.02-0.08,0.04-0.12,0.06c-0.11,0.05-0.16,0.07-0.21,0.1
						c-3.89,1.78-7.49,1.68-10.01-0.34c4.6-7.08,6.9-10.62,11.48-17.67C68.42,68.79,71.42,67.06,77.42,63.6z"/>
				</g>
				<g>
					<path class="st1" d="M47.49,79.48c0.36-5.55,2.83-11.64,6.46-16.59C50.26,67.93,47.84,74.05,47.49,79.48z"/>
				</g>
				<g>
					<path class="st7" d="M129.05,8.98C99.75,25.9,70.44,42.82,41.14,59.73c0.05,16.42,0.09,32.84,0.14,49.26
						c29.3-16.92,58.6-33.84,87.91-50.76C129.14,41.82,129.1,25.4,129.05,8.98z M62.48,89.48c-0.06,0.03-0.11,0.06-0.18,0.1
						c-0.01,0-0.01,0.01-0.02,0.01c-0.01,0.01-0.02,0.01-0.03,0.02c0,0,0,0,0,0c-0.05,0.03-0.09,0.05-0.14,0.08
						c-0.01,0-0.02,0.01-0.03,0.01c0,0,0,0,0,0c-0.01,0-0.01,0.01-0.02,0.01c-0.01,0-0.02,0.01-0.02,0.01
						c-0.08,0.04-0.12,0.06-0.15,0.08c-0.03,0.02-0.06,0.03-0.09,0.05c-0.02,0.01-0.04,0.02-0.06,0.03
						c-0.04,0.02-0.07,0.04-0.11,0.06c-0.01,0.01-0.02,0.01-0.03,0.02c-0.03,0.02-0.06,0.03-0.09,0.05
						c-0.03,0.02-0.07,0.03-0.1,0.05c-7.77,3.84-13.92-0.06-13.95-9.16c0-0.1,0-0.21,0-0.37c0.14-9.44,6.76-20.79,14.93-25.5
						c8.28-4.78,15.01-0.94,15.04,8.56C77.45,73.11,70.76,84.7,62.48,89.48 M83.84,49.72c9.9-5.72,19.8-11.43,29.7-17.15
						c2.56-1.48,5.11-2.95,7.67-4.43c0.54-0.31,0.99-0.06,0.99,0.57c0,0.62-0.44,1.4-0.99,1.71c-12.46,7.19-24.91,14.38-37.37,21.58
						c-0.54,0.31-0.99,0.06-0.99-0.57C82.86,50.8,83.3,50.03,83.84,49.72 M83.86,55.22c11.88-6.86,23.75-13.71,35.63-20.57
						c0.58-0.34,1.16-0.67,1.74-1.01c0.54-0.31,0.99-0.07,0.99,0.57c0,0.62-0.44,1.39-0.99,1.7C108.78,43.1,96.32,50.3,83.87,57.49
						c-0.54,0.31-0.99,0.07-0.99-0.56C82.87,56.3,83.32,55.53,83.86,55.22 M83.88,60.72c7.14-4.12,10.71-6.18,17.85-10.31
						c6.51-3.76,13.01-7.51,19.52-11.27c0.54-0.31,0.99-0.06,0.99,0.57c0,0.62-0.44,1.4-0.99,1.71
						C108.8,48.61,96.34,55.8,83.88,62.99c-0.54,0.31-0.99,0.06-0.99-0.57C82.89,61.8,83.33,61.03,83.88,60.72 M121.27,46.91
						C108.81,54.1,96.35,61.29,83.9,68.48c-0.54,0.31-0.99,0.07-0.99-0.57c0-0.62,0.44-1.39,0.99-1.7c2.8-1.61,4.19-2.42,6.99-4.04
						c10.13-5.85,20.25-11.69,30.38-17.54c0.54-0.31,0.99-0.07,0.99,0.56C122.26,45.83,121.81,46.6,121.27,46.91"/>
				</g>
				<g>
					<path class="st6" d="M90.88,62.18c0.54-0.31,0.98-0.06,0.99,0.56c0,0.63-0.44,1.39-0.98,1.7c-2.8,1.61-4.19,2.42-6.99,4.04
						c-0.54,0.31-0.99,0.07-0.99-0.57c0-0.62,0.44-1.39,0.99-1.7C86.69,64.6,88.09,63.8,90.88,62.18z"/>
				</g>
				<g>
					
						<ellipse transform="matrix(0.5025 -0.8646 0.8646 0.5025 47.6941 106.2161)" class="st0" cx="116.13" cy="11.67" rx="2.3" ry="1.33"/>
				</g>
				<g>
					<path class="st1" d="M121.23,33.65c0.54-0.31,0.99-0.07,0.99,0.57c0,0.62-0.44,1.39-0.99,1.7
						C108.78,43.1,96.32,50.3,83.87,57.49c-0.54,0.31-0.99,0.07-0.99-0.56c0,0.62,0.45,0.87,0.99,0.56
						c11.88-6.86,23.75-13.71,35.63-20.57c0.54-0.31,0.98-1.07,0.98-1.7c0-0.63-0.44-0.88-0.99-0.57
						C120.07,34.32,120.65,33.98,121.23,33.65z"/>
				</g>
				<g>
					<path class="st1" d="M62.08,89.71c0.04-0.02,0.09-0.05,0.13-0.07c0.01-0.01,0.02-0.01,0.04-0.02c-0.06,0.03-0.12,0.07-0.18,0.1
						C62.07,89.71,62.07,89.71,62.08,89.71z"/>
				</g>
				<g>
					<path class="st1" d="M61.62,89.95c0.03-0.02,0.07-0.03,0.1-0.05c-0.01,0.01-0.03,0.01-0.04,0.02
						C61.66,89.93,61.64,89.94,61.62,89.95z"/>
				</g>
				<g>
					<path class="st6" d="M113.55,32.57c0.54-0.31,0.98-0.05,0.99,0.57c0,0.62-0.44,1.39-0.98,1.7c-9.9,5.72-19.8,11.43-29.7,17.15
						c-0.54,0.31-0.99,0.06-0.99-0.57c0-0.62,0.44-1.4,0.99-1.71C93.75,44,103.64,38.29,113.55,32.57z"/>
				</g>
				<g>
					<path class="st5" d="M57.29,58.99c2.06,5.31,3.08,7.96,5.13,13.26c-4.58,7.06-6.88,10.6-11.46,17.64
						c-2.19-1.74-3.51-4.82-3.53-8.99c0-0.1,0-0.21,0-0.31C47.56,73.38,51.47,64.77,57.29,58.99z"/>
				</g>
				<g>
					<path class="st1" d="M61.29,90.11c0.03-0.01,0.05-0.03,0.08-0.04c-7.41,3.67-13.36,0.26-13.89-8c0.23,3.58,1.51,6.25,3.49,7.82
						c2.51,2.05,6.1,2.16,9.97,0.38c0.08-0.03,0.12-0.06,0.17-0.08c0.02-0.01,0.04-0.02,0.06-0.03
						C61.21,90.15,61.25,90.13,61.29,90.11z"/>
				</g>
				<g>
					<path class="st1" d="M47.48,82.07c0-0.03,0-0.06-0.01-0.09C47.48,82.01,47.48,82.04,47.48,82.07z"/>
				</g>
				<g>
					<path class="st1" d="M47.45,81.31c0-0.13-0.01-0.27-0.01-0.41C47.44,81.04,47.45,81.18,47.45,81.31z"/>
				</g>
				<g>
					<path class="st1" d="M47.46,79.97c0,0.06-0.01,0.12-0.01,0.18C47.46,80.09,47.46,80.03,47.46,79.97z"/>
				</g>
				<g>
					<path class="st1" d="M47.47,79.78c0,0.06-0.01,0.12-0.01,0.19C47.47,79.91,47.47,79.85,47.47,79.78z"/>
				</g>
				<g>
					<path class="st1" d="M47.49,79.54c-0.01,0.08-0.01,0.17-0.01,0.25C47.48,79.7,47.48,79.62,47.49,79.54z"/>
				</g>
				<g>
					<path class="st1" d="M62.38,55.03c8.28-4.78,15.01-0.94,15.04,8.56c-6,3.46-9,5.19-14.99,8.66c-2.06-5.3-3.08-7.95-5.13-13.26
						c-0.18,0.17-0.35,0.35-0.52,0.53C58.5,57.72,60.39,56.18,62.38,55.03z"/>
				</g>
				<g>
					<path class="st1" d="M129.05,8.26c0,0.29,0,0.43,0,0.72C99.75,25.9,70.44,42.82,41.14,59.73c0-0.29,0-0.43,0-0.72
						C70.44,42.1,99.74,25.18,129.05,8.26z"/>
				</g>
				<g>
					<path class="st6" d="M41.12,50.76C70.41,33.84,99.72,16.92,129.03,0c0.01,3.31,0.01,4.96,0.02,8.26
						C99.74,25.18,70.44,42.1,41.14,59.02C41.13,55.71,41.13,54.06,41.12,50.76z M125.03,8.42c0.9-0.52,1.63-1.78,1.63-2.82
						c0-1.03-0.74-1.45-1.64-0.93c-0.9,0.52-1.63,1.79-1.63,2.82C123.39,8.52,124.13,8.93,125.03,8.42 M116.14,13.55
						c0.9-0.52,1.63-1.78,1.63-2.82c0-1.03-0.74-1.45-1.64-0.93c-0.9,0.52-1.63,1.79-1.63,2.82
						C114.5,13.65,115.24,14.07,116.14,13.55 M120.58,10.98c0.9-0.52,1.63-1.78,1.63-2.82c0-1.03-0.74-1.45-1.64-0.93
						c-0.9,0.52-1.63,1.79-1.63,2.82C118.95,11.09,119.68,11.5,120.58,10.98"/>
				</g>
			</g>
			<g>
				<path class="st1" d="M55.41,61.04c-0.06,0.07-0.11,0.13-0.17,0.2C55.3,61.17,55.36,61.1,55.41,61.04z"/>
			</g>
			<g>
				<path class="st1" d="M56.46,59.85c-0.24,0.26-0.48,0.52-0.71,0.79C55.98,60.38,56.22,60.11,56.46,59.85z"/>
			</g>
		</g>
	</g>
	<g>
		<g>
			<g>
				
					<ellipse transform="matrix(0.5025 -0.8646 0.8646 0.5025 28.7203 161.7243)" class="st0" cx="154.88" cy="55.91" rx="2.24" ry="1.3"/>
			</g>
			<g>
				<path class="st1" d="M141.96,95.36c0.25-0.14,0.48-0.19,0.67-0.15c0.2,0.04,0.36,0.18,0.44,0.39c0.05,0.12,0.07,0.26,0.08,0.43
					c0,0.75-0.53,1.66-1.18,2.04c-0.66,0.38-1.19,0.08-1.19-0.67c0-0.15,0.02-0.31,0.06-0.47c0.08-0.31,0.23-0.63,0.42-0.91
					C141.45,95.74,141.69,95.51,141.96,95.36z"/>
			</g>
			<g class="st2">
				<g>
					<path class="st1" d="M160.44,63.56c0.66-0.38,1.19-0.08,1.19,0.67c0,0.76-0.53,1.67-1.18,2.05c-0.2,0.11-0.38,0.16-0.54,0.16
						c-0.22,0-0.39-0.11-0.51-0.29c-0.09-0.14-0.13-0.33-0.14-0.55C159.26,64.85,159.79,63.93,160.44,63.56z"/>
				</g>
				<g>
					<path class="st0" d="M148.75,96.8c5.59,3.18,8.38,4.77,13.96,7.95c-19.78,11.42-39.57,22.84-59.35,34.27
						c3.53-7.55,7.06-15.11,10.6-22.66l2.09,0.87c-0.05,0.17-0.07,0.34-0.07,0.5c0,0.76,0.53,1.06,1.19,0.68
						c0.65-0.38,1.18-1.29,1.18-2.05c0-0.32-0.1-0.56-0.27-0.7l5.52-11.97c1.12,0.58,2.2,1.14,3.69,1.91
						c0.94-1.63,1.41-2.45,2.36-4.09c4.93,2.81,7.39,4.22,12.32,7.02C144.68,103.85,146.04,101.49,148.75,96.8z"/>
				</g>
				<g>
					<path class="st1" d="M104.93,110.6c0.65-0.38,1.18-0.07,1.19,0.68c0,0.22-0.04,0.45-0.12,0.68c-0.11,0.31-0.28,0.62-0.49,0.87
						c-0.17,0.2-0.36,0.37-0.56,0.49c-0.65,0.38-1.19,0.08-1.19-0.68C103.75,111.89,104.28,110.97,104.93,110.6z"/>
				</g>
				<g>
					<path class="st4" d="M167.46,53.29c-23.13,13.35-46.25,26.7-69.38,40.05c0.05,18.22,0.1,36.44,0.15,54.65
						c23.13-13.35,46.25-26.7,69.38-40.05C167.56,89.72,167.51,71.5,167.46,53.29z M103.36,139.02c3.53-7.55,7.06-15.11,10.6-22.66
						l-8.45-3.53c-0.17,0.2-0.36,0.37-0.56,0.49c-0.65,0.38-1.19,0.08-1.19-0.68c0-0.75,0.53-1.67,1.18-2.04
						c0.65-0.38,1.18-0.07,1.18,0.68c0,0.22-0.04,0.45-0.12,0.68l8.38,3.5c2.07-4.44,4.15-8.87,6.22-13.31
						c0.95,0.5,1.74,0.9,2.47,1.29l5.63-12.2c-0.09-0.14-0.15-0.34-0.15-0.58c0-0.75,0.53-1.66,1.18-2.04
						c0.65-0.38,1.18-0.07,1.19,0.68c0,0.24-0.05,0.5-0.15,0.75l10.49,5.98c0.2-0.28,0.44-0.51,0.7-0.66
						c0.25-0.14,0.48-0.19,0.67-0.15l16.78-29.06c-0.09-0.14-0.13-0.33-0.14-0.55c0-0.75,0.53-1.66,1.18-2.04
						c0.66-0.38,1.19-0.08,1.19,0.67c0,0.76-0.53,1.67-1.18,2.05c-0.2,0.11-0.38,0.16-0.54,0.16L143.07,95.6
						c0.05,0.12,0.07,0.26,0.08,0.43c0,0.75-0.53,1.66-1.18,2.04c-0.66,0.38-1.19,0.08-1.19-0.67c0-0.15,0.02-0.31,0.06-0.47
						l-10.58-6.02c-0.16,0.18-0.33,0.33-0.51,0.43c-0.18,0.11-0.36,0.16-0.52,0.16l-5.63,12.2c1.12,0.58,2.2,1.14,3.69,1.91
						c0.94-1.63,1.41-2.45,2.36-4.09c4.93,2.81,7.39,4.22,12.32,7.02c2.71-4.7,4.07-7.05,6.78-11.75c5.59,3.18,8.38,4.77,13.96,7.95
						C142.93,116.17,123.14,127.59,103.36,139.02"/>
				</g>
				<g>
					<path class="st5" d="M159.4,66.15c0.11,0.18,0.29,0.28,0.51,0.29L143.07,95.6c-0.09-0.21-0.24-0.35-0.44-0.39L159.4,66.15z"/>
				</g>
				<g>
					<path class="st6" d="M98.06,84.6c23.13-13.35,46.25-26.7,69.38-40.05c0.01,3.22,0.01,4.83,0.02,8.05
						c-23.13,13.35-46.25,26.7-69.38,40.05C98.07,89.42,98.07,87.82,98.06,84.6z M159.21,55.24c0.88-0.51,1.59-1.73,1.58-2.74
						c0-1.01-0.71-1.42-1.59-0.91c-0.88,0.51-1.59,1.73-1.58,2.74C157.62,55.34,158.33,55.74,159.21,55.24 M163.54,52.74
						c0.88-0.51,1.59-1.73,1.58-2.74c0-1.01-0.71-1.42-1.59-0.91c-0.88,0.51-1.59,1.73-1.58,2.74
						C161.95,52.84,162.66,53.25,163.54,52.74 M154.88,57.73c0.88-0.51,1.59-1.73,1.58-2.74c0-1.01-0.71-1.42-1.59-0.91
						c-0.88,0.51-1.59,1.73-1.58,2.74C153.29,57.84,154,58.24,154.88,57.73"/>
				</g>
				<g>
					
						<ellipse transform="matrix(0.5025 -0.8646 0.8646 0.5025 37.3496 166.7228)" class="st3" cx="163.53" cy="50.91" rx="2.24" ry="1.3"/>
				</g>
				<g>
					
						<ellipse transform="matrix(0.5025 -0.8646 0.8646 0.5025 33.0348 164.2234)" class="st5" cx="159.21" cy="53.41" rx="2.24" ry="1.3"/>
				</g>
				<g>
					<path class="st1" d="M117.16,115.69c0.11-0.07,0.22-0.11,0.33-0.14c0.24-0.06,0.44-0.02,0.59,0.11
						c0.16,0.14,0.26,0.38,0.27,0.7c0,0.76-0.53,1.67-1.18,2.05c-0.66,0.38-1.19,0.08-1.19-0.68c0-0.16,0.02-0.33,0.07-0.5
						c0.08-0.31,0.24-0.63,0.44-0.9C116.67,116.06,116.9,115.84,117.16,115.69z"/>
				</g>
				<g>
					<path class="st5" d="M130.25,90.9c0.22-0.25,0.4-0.55,0.52-0.86l10.49,5.98c-0.2,0.28-0.35,0.59-0.42,0.91L130.25,90.9z"/>
				</g>
				<g>
					<path class="st5" d="M128.7,91.23c0.12,0.18,0.3,0.27,0.52,0.27l-5.63,12.2l-5.52,11.97c-0.15-0.13-0.36-0.17-0.59-0.11
						l5.59-12.13L128.7,91.23z"/>
				</g>
				<g>
					<path class="st1" d="M129.73,88.62c0.65-0.38,1.18-0.07,1.18,0.68c0,0.24-0.05,0.5-0.15,0.75c-0.12,0.31-0.3,0.61-0.52,0.86
						c-0.16,0.18-0.33,0.33-0.51,0.43c-0.18,0.11-0.36,0.16-0.52,0.16c-0.22,0-0.4-0.09-0.52-0.27c-0.09-0.14-0.15-0.34-0.15-0.58
						C128.55,89.91,129.08,88.99,129.73,88.62z"/>
				</g>
				<g>
					<path class="st0" d="M117.16,115.69c-0.25,0.15-0.49,0.37-0.68,0.63l-2.1-0.88c2.07-4.44,4.15-8.87,6.22-13.31
						c0.95,0.5,1.74,0.9,2.47,1.29l-5.59,12.13C117.38,115.58,117.27,115.63,117.16,115.69z"/>
				</g>
				<g>
					<path class="st5" d="M106,111.95l8.38,3.5l2.1,0.88c-0.2,0.27-0.35,0.59-0.44,0.9l-2.09-0.87l-8.45-3.53
						C105.72,112.57,105.89,112.26,106,111.95z"/>
				</g>
				<g>
					
						<ellipse transform="matrix(0.866 -0.5 0.5 0.866 -18.6942 76.1679)" class="st1" cx="132.77" cy="72.97" rx="54.23" ry="0.45"/>
				</g>
			</g>
		</g>
	</g>
	<g>
		<g>
			<g>
				
					<ellipse transform="matrix(0.5025 -0.8646 0.8646 0.5025 -21.3763 201.429)" class="st0" cx="164.33" cy="119.29" rx="1.98" ry="1.15"/>
			</g>
			<g class="st2">
				<g>
					<path class="st6" d="M99.79,152.92c25.21-14.55,50.41-29.11,75.62-43.66c0.01,2.84,0.01,4.26,0.02,7.1
						c-25.21,14.55-50.41,29.11-75.62,43.66C99.81,157.18,99.8,155.76,99.79,152.92z M164.33,120.9c0.78-0.45,1.4-1.53,1.4-2.42
						c0-0.89-0.63-1.25-1.41-0.8c-0.77,0.45-1.4,1.54-1.4,2.42C162.92,120.99,163.56,121.35,164.33,120.9 M171.98,116.49
						c0.77-0.45,1.4-1.53,1.4-2.42c0-0.89-0.64-1.25-1.41-0.8c-0.78,0.45-1.4,1.54-1.4,2.42
						C170.57,116.58,171.2,116.94,171.98,116.49 M168.16,118.69c0.77-0.45,1.4-1.53,1.4-2.42c0-0.89-0.64-1.25-1.41-0.8
						c-0.78,0.45-1.4,1.54-1.4,2.42C166.75,118.79,167.38,119.14,168.16,118.69"/>
				</g>
				<g>
					
						<ellipse transform="matrix(0.5025 -0.8646 0.8646 0.5025 -13.7524 205.8453)" class="st3" cx="171.98" cy="114.87" rx="1.98" ry="1.15"/>
				</g>
				<g>
					
						<ellipse transform="matrix(0.5025 -0.8646 0.8646 0.5025 -17.5647 203.6364)" class="st5" cx="168.15" cy="117.08" rx="1.98" ry="1.15"/>
				</g>
				<g>
					<path class="st1" d="M175.43,116.36c0,0.25,0,0.37,0,0.62c-25.21,14.55-50.41,29.11-75.62,43.66c0-0.24,0-0.37,0-0.62
						C125.02,145.46,150.23,130.91,175.43,116.36z"/>
				</g>
			</g>
			<g>
				<path class="st0" d="M137.02,156.13c0.47-0.27,0.85-0.05,0.85,0.49c0,0.54-0.38,1.2-0.85,1.47
					c-10.43,6.02-15.64,9.03-26.07,15.05c-0.47,0.27-0.85,0.05-0.85-0.49c0-0.54,0.38-1.2,0.85-1.47
					C121.38,165.17,126.59,162.16,137.02,156.13z"/>
			</g>
			<g>
				<path class="st0" d="M137.01,150.93c0.47-0.27,0.85-0.05,0.85,0.49c0,0.54-0.38,1.2-0.85,1.47
					c-10.43,6.02-15.64,9.03-26.07,15.05c-0.47,0.27-0.85,0.05-0.85-0.49c0-0.54,0.38-1.2,0.85-1.47
					C121.36,159.96,126.57,156.96,137.01,150.93z"/>
			</g>
			<g>
				<path class="st0" d="M136.99,145.72c0.47-0.27,0.85-0.05,0.85,0.49c0,0.54-0.38,1.2-0.85,1.47
					c-10.43,6.02-15.64,9.03-26.07,15.05c-0.47,0.27-0.85,0.05-0.85-0.49c0-0.54,0.38-1.2,0.85-1.47
					C121.35,154.76,126.56,151.75,136.99,145.72z"/>
			</g>
			<g>
				
					<ellipse transform="matrix(0.5025 -0.8646 0.8646 0.5025 -89.439 173.5441)" class="st1" cx="106.07" cy="164.48" rx="1.72" ry="1"/>
			</g>
			<g>
				<path class="st1" d="M106.08,168.28c0.67-0.39,1.22-0.07,1.22,0.7c0,0.77-0.55,1.71-1.22,2.1c-0.68,0.39-1.22,0.08-1.22-0.69
					C104.86,169.62,105.4,168.67,106.08,168.28z"/>
			</g>
			<g>
				
					<ellipse transform="matrix(0.5025 -0.8646 0.8646 0.5025 -98.4252 178.7498)" class="st1" cx="106.1" cy="174.89" rx="1.72" ry="1"/>
			</g>
			<g>
				<path class="st3" d="M169.36,126.69c0.01,5.11,0.02,7.66,0.04,12.77c-10.45,6.03-15.68,9.05-26.14,15.09
					c-0.01-5.11-0.02-7.66-0.04-12.77C153.67,135.74,158.9,132.72,169.36,126.69z"/>
			</g>
			<g>
				<path class="st7" d="M99.81,160.63c25.21-14.55,50.41-29.11,75.62-43.66c0.02,8.07,0.05,16.14,0.07,24.21
					c-25.21,14.55-50.41,29.11-75.62,43.66C99.86,176.78,99.84,168.71,99.81,160.63z M169.39,139.45
					c-0.01-5.11-0.02-7.66-0.04-12.77c-10.45,6.03-15.68,9.05-26.14,15.09c0.01,5.11,0.02,7.66,0.04,12.77
					C153.71,148.51,158.94,145.49,169.39,139.45 M137.03,158.09c0.47-0.27,0.85-0.93,0.85-1.47c0-0.54-0.39-0.75-0.85-0.49
					c-10.43,6.02-15.64,9.03-26.07,15.05c-0.47,0.27-0.85,0.93-0.85,1.47c0,0.54,0.39,0.75,0.85,0.49
					C121.38,167.12,126.59,164.11,137.03,158.09 M137.01,152.88c0.47-0.27,0.85-0.93,0.85-1.47c0-0.54-0.39-0.75-0.85-0.49
					c-10.43,6.02-15.64,9.03-26.07,15.05c-0.47,0.27-0.85,0.93-0.85,1.47c0,0.54,0.39,0.75,0.85,0.49
					C121.37,161.92,126.58,158.91,137.01,152.88 M137,147.68c0.47-0.27,0.85-0.93,0.85-1.47c0-0.54-0.39-0.75-0.85-0.49
					c-10.43,6.02-15.64,9.03-26.07,15.05c-0.47,0.27-0.85,0.93-0.85,1.47s0.39,0.75,0.85,0.49
					C121.36,156.71,126.57,153.7,137,147.68 M106.1,176.29c0.67-0.39,1.22-1.33,1.22-2.11c0-0.77-0.55-1.08-1.22-0.7
					c-0.68,0.39-1.22,1.33-1.22,2.11C104.88,176.37,105.42,176.69,106.1,176.29 M106.09,171.09c0.67-0.39,1.22-1.33,1.22-2.1
					c0-0.78-0.55-1.09-1.22-0.7c-0.68,0.39-1.22,1.33-1.22,2.11C104.87,171.17,105.41,171.48,106.09,171.09 M106.07,165.88
					c0.67-0.39,1.22-1.33,1.22-2.11c0-0.78-0.55-1.08-1.22-0.7c-0.68,0.39-1.22,1.33-1.22,2.11
					C104.85,165.96,105.39,166.27,106.07,165.88"/>
			</g>
		</g>
	</g>
</g>
<g id="DESIGNED_BY_FREEPIK">
</g>
</svg>
