<?xml version="1.0" encoding="utf-8"?>
<!-- Generator: Adobe Illustrator 24.0.3, SVG Export Plug-In . SVG Version: 6.00 Build 0)  -->
<svg version="1.1" xmlns="http://www.w3.org/2000/svg" xmlns:xlink="http://www.w3.org/1999/xlink" x="0px" y="0px"
	 viewBox="0 0 187.67 256.02" style="enable-background:new 0 0 187.67 256.02;" xml:space="preserve">
<style type="text/css">
	.st0{opacity:0.31;}
	.st1{fill:#DBDCDD;}
	.st2{fill:#6B81C9;}
	.st3{fill:#A6A8AA;}
	.st4{fill:#808183;}
	.st5{fill:#AD3D4D;}
	.st6{fill:#47A85A;}
	.st7{fill:#E6E6E7;}
	.st8{fill:#53589C;}
	.st9{fill:#F9A427;}
	.st10{fill:none;stroke:#AD3D4D;stroke-miterlimit:10;}
	.st11{fill:#FFFFFF;}
	.st12{fill:none;stroke:#53589C;stroke-miterlimit:10;}
</style>
<g id="BACKGROUND">
</g>
<g id="OBJECTS">
	<g id="Capa_4">
	</g>
	<g>
		<g>
			<g>
				<g>
					<g class="st0">
						<path class="st1" d="M100.41,87.39C66.95,106.63,33.5,125.89,0,145.07c0,31.71,0,63.42,0,95.12
							c33.49-19.2,66.98-38.38,100.41-57.68C100.41,150.81,100.41,119.1,100.41,87.39z"/>
					</g>
					<path class="st2" d="M100.41,87.39C66.95,106.63,33.5,125.89,0,145.07c0,4.39,0,6.58,0,10.96
						c33.5-19.18,66.95-38.43,100.41-57.68C100.41,93.97,100.41,91.78,100.41,87.39z"/>
					<path class="st3" d="M100.41,99.3C66.95,118.55,33.5,137.8,0,156.98c0-0.38,0-0.57,0-0.95c33.5-19.18,66.95-38.43,100.41-57.68
						C100.41,98.74,100.41,98.92,100.41,99.3z"/>
					<path class="st4" d="M85.21,101.73c0.02,1.36-0.97,3.05-2.24,3.78s-2.32,0.22-2.35-1.14c-0.03-1.36,0.98-3.06,2.25-3.79
						C84.15,99.85,85.19,100.37,85.21,101.73z"/>
					<path class="st5" d="M91.33,98.21c0.02,1.37-0.96,3.04-2.2,3.75c-1.24,0.71-2.27,0.19-2.29-1.17
						c-0.02-1.36,0.98-3.05,2.22-3.77C90.31,96.31,91.32,96.84,91.33,98.21z"/>
					<path class="st6" d="M97.29,94.78c0.01,1.37-0.95,3.04-2.15,3.73c-1.2,0.69-2.2,0.15-2.21-1.22c-0.01-1.37,0.97-3.05,2.18-3.74
						C96.32,92.85,97.29,93.41,97.29,94.78z"/>
				</g>
			</g>
			<path class="st3" d="M20.08,219.88c-4.26,2.45-6.39,3.67-10.62,6.09c-0.1-7.63-0.15-11.45-0.25-19.08
				c4.12-2.36,6.21-3.56,10.4-5.96C19.8,208.51,19.89,212.3,20.08,219.88z"/>
			<path class="st3" d="M35.56,211c-4.26,2.45-6.4,3.67-10.67,6.12c-0.37-12.94-0.55-19.42-0.92-32.36
				c4.17-2.39,6.27-3.6,10.48-6.01C34.89,191.65,35.11,198.1,35.56,211z"/>
			<path class="st3" d="M50.89,202.21c-4.18,2.4-6.3,3.62-10.54,6.05c-0.33-9.17-0.5-13.75-0.83-22.92
				c4.22-2.42,6.33-3.63,10.52-6.04C50.37,188.46,50.54,193.04,50.89,202.21z"/>
			<path class="st3" d="M65.79,193.64c-4.03,2.32-6.08,3.49-10.22,5.87c-0.54-14.44-1.07-28.88-1.61-43.32
				c4.17-2.4,6.25-3.59,10.36-5.95C64.81,164.71,65.3,179.18,65.79,193.64z"/>
			<path class="st3" d="M80,185.47c-3.8,2.19-5.75,3.31-9.71,5.59c-0.56-17.75-1.12-35.5-1.69-53.25c4.09-2.35,6.11-3.51,10.08-5.8
				C79.13,149.83,79.57,167.65,80,185.47z"/>
			<path class="st3" d="M93.24,177.85c-3.49,2.01-5.3,3.05-9.01,5.19c-0.43-20.61-0.85-41.22-1.28-61.82
				c3.94-2.27,5.88-3.38,9.65-5.55C92.82,136.39,93.03,157.12,93.24,177.85z"/>
			<path class="st4" d="M20.08,219.88c-4.26,2.45-6.39,3.67-10.62,6.09c-0.05-3.39-0.07-5.09-0.11-8.48
				c4.18-2.39,6.29-3.6,10.52-6.03C19.95,214.83,20,216.51,20.08,219.88z"/>
			<path class="st4" d="M35.56,211c-4.26,2.45-6.4,3.67-10.67,6.12c-0.16-5.75-0.25-8.63-0.41-14.38c4.23-2.42,6.35-3.64,10.59-6.07
				C35.26,202.4,35.36,205.27,35.56,211z"/>
			<path class="st4" d="M50.89,202.21c-4.18,2.4-6.3,3.62-10.54,6.05c-0.15-4.07-0.22-6.11-0.37-10.19
				c4.23-2.43,6.35-3.64,10.53-6.05C50.66,196.1,50.73,198.13,50.89,202.21z"/>
			<path class="st4" d="M65.79,193.64c-4.03,2.32-6.08,3.49-10.22,5.87c-0.29-7.7-0.43-11.55-0.71-19.26
				c4.16-2.39,6.22-3.57,10.28-5.91C65.4,182.07,65.53,185.93,65.79,193.64z"/>
			<path class="st4" d="M80,185.47c-3.8,2.19-5.75,3.31-9.71,5.59c-0.3-9.47-0.45-14.2-0.75-23.67c4.02-2.31,6-3.45,9.88-5.68
				C79.65,171.22,79.77,175.97,80,185.47z"/>
			<path class="st4" d="M93.24,177.85c-3.49,2.01-5.3,3.05-9.01,5.19c-0.23-10.99-0.34-16.49-0.57-27.48
				c3.81-2.19,5.68-3.27,9.3-5.35C93.07,161.27,93.13,166.79,93.24,177.85z"/>
		</g>
	</g>
	<g>
		<g>
			<g>
				<g class="st0">
					<path class="st7" d="M158.05,0C122,20.76,85.99,41.59,49.93,62.34c0,23.81,0,47.63,0,71.44
						c36.03-20.8,72.04-41.63,108.12-62.34C158.05,47.63,158.05,23.81,158.05,0z"/>
				</g>
				<path class="st2" d="M158.05,0C122,20.76,85.99,41.59,49.93,62.34c0,4.05,0,6.08,0,10.14C85.99,51.72,122,30.89,158.05,10.14
					C158.05,6.08,158.05,4.05,158.05,0z"/>
				<path class="st8" d="M158.05,11.01C122,31.77,85.99,52.59,49.93,73.35c0-0.35,0-0.52,0-0.87C85.99,51.72,122,30.89,158.05,10.14
					C158.05,10.49,158.05,10.66,158.05,11.01z"/>
				<path class="st9" d="M146.02,12.1c0.02,1.26-0.78,2.75-1.8,3.34c-1.01,0.58-1.86,0.04-1.88-1.22c-0.02-1.26,0.8-2.76,1.82-3.35
					C145.18,10.29,146.01,10.84,146.02,12.1z"/>
				<path class="st5" d="M150.9,9.3c0.01,1.27-0.77,2.74-1.75,3.31c-0.98,0.57-1.8,0.01-1.82-1.25c-0.01-1.26,0.78-2.75,1.77-3.32
					C150.09,7.46,150.89,8.03,150.9,9.3z"/>
				<path class="st6" d="M155.61,6.58c0,1.27-0.75,2.73-1.7,3.28c-0.95,0.55-1.74-0.03-1.75-1.3c-0.01-1.27,0.77-2.74,1.72-3.29
					C154.84,4.73,155.6,5.32,155.61,6.58z"/>
			</g>
			<g>
				<path class="st8" d="M96.82,76.69c-0.16,12.91-8.62,25.86-19.66,32.46c-10.67,6.38-19.69,1.53-19.45-9.9
					c0.27-12.79,8.33-25.69,19.3-32.25C87.54,60.72,96.96,65.37,96.82,76.69z"/>
				<path class="st5" d="M77.09,88.08c7.87-4.54,11.86-6.84,19.73-11.39c-0.5,13.19-8.65,25.87-19.66,32.46
					c-10.59,6.34-19.45,1.69-19.45-9.9c0-8.88,5.02-19.74,12.69-27.18C73.05,78.49,74.39,81.69,77.09,88.08z"/>
				<path class="st9" d="M77.09,88.08c7.87-4.54,11.86-6.84,19.73-11.39c-0.5,13.19-8.65,25.87-19.66,32.46
					c-5.72,3.43-11.38,3.78-15.03,1.07C68.04,101.41,71.06,96.96,77.09,88.08z"/>
			</g>
			<path class="st8" d="M150.21,56.48c-14.94,8.59-29.87,17.2-44.8,25.82c-0.71,0.41-1.3,0.12-1.31-0.64l0,0
				c-0.01-0.76,0.56-1.72,1.27-2.12c14.93-8.62,29.87-17.23,44.81-25.83c0.57-0.33,1.03,0.03,1.04,0.79l0,0
				C151.22,55.26,150.77,56.15,150.21,56.48z"/>
			<path class="st2" d="M114.43,77.09c-3.57,2.06-5.38,3.11-9.03,5.21c-0.71,0.41-1.3,0.12-1.31-0.64l0,0
				c-0.01-0.76,0.56-1.72,1.27-2.12c3.64-2.1,5.45-3.15,9.02-5.21c0.69-0.4,1.27-0.11,1.28,0.65l0,0
				C115.68,75.74,115.13,76.69,114.43,77.09z"/>
			<path class="st8" d="M150.14,49.77c-14.95,8.6-29.89,17.22-44.83,25.84c-0.71,0.41-1.29,0.12-1.3-0.64l0,0
				c-0.01-0.76,0.56-1.71,1.27-2.12c14.94-8.62,29.89-17.24,44.84-25.85c0.57-0.33,1.04,0.03,1.05,0.79l0,0
				C151.17,48.55,150.71,49.44,150.14,49.77z"/>
			<path class="st2" d="M127.89,62.59c-8.69,5.01-13.29,7.66-22.58,13.02c-0.71,0.41-1.29,0.12-1.3-0.64l0,0
				c-0.01-0.76,0.56-1.71,1.27-2.12c9.28-5.36,13.87-8,22.56-13.02c0.66-0.38,1.21-0.07,1.22,0.69l0,0
				C129.08,61.28,128.55,62.2,127.89,62.59z"/>
			<path class="st8" d="M150.08,43.06c-14.96,8.61-29.91,17.23-44.86,25.86c-0.71,0.41-1.29,0.12-1.3-0.64l0,0
				c-0.01-0.76,0.56-1.71,1.26-2.12c14.95-8.63,29.91-17.26,44.87-25.87c0.57-0.33,1.05,0.02,1.05,0.79l0,0
				C151.11,41.84,150.65,42.73,150.08,43.06z"/>
			<path class="st2" d="M148.22,44.13c-14.34,8.25-28.67,16.52-43,24.79c-0.71,0.41-1.29,0.12-1.3-0.64l0,0
				c-0.01-0.76,0.56-1.71,1.26-2.12c14.33-8.27,28.66-16.54,43-24.79c0.58-0.34,1.06,0.01,1.07,0.78l0,0
				C149.26,42.9,148.8,43.8,148.22,44.13z"/>
			<path class="st8" d="M150.01,36.35c-14.97,8.62-29.93,17.25-44.88,25.88c-0.7,0.41-1.29,0.12-1.3-0.64l0,0
				c-0.01-0.76,0.56-1.71,1.26-2.12c14.96-8.64,29.92-17.27,44.9-25.89c0.58-0.33,1.05,0.02,1.06,0.78l0,0
				C151.05,35.13,150.59,36.02,150.01,36.35z"/>
			<path class="st2" d="M141.59,41.2c-12.16,7-24.31,14.02-36.46,21.03c-0.7,0.41-1.29,0.12-1.3-0.64l0,0
				c-0.01-0.76,0.56-1.71,1.26-2.12c12.15-7.01,24.3-14.02,36.46-21.03c0.62-0.35,1.12-0.02,1.14,0.74l0,0
				C142.69,39.94,142.2,40.85,141.59,41.2z"/>
		</g>
	</g>
	<g>
		<g>
			<g>
				<g>
					<g class="st0">
						<path class="st7" d="M185.67,58.67c-30.11,17.37-60.25,34.72-90.38,52.06c0,25.92,0,51.85,0,77.77
							c30.15-17.31,60.28-34.65,90.38-52.06C185.67,110.52,185.67,84.6,185.67,58.67z"/>
					</g>
					<path class="st2" d="M185.67,58.67c-30.11,17.37-60.25,34.72-90.38,52.06c0,3.95,0,5.93,0,9.88
						c30.13-17.34,60.27-34.68,90.38-52.06C185.67,64.6,185.67,62.62,185.67,58.67z"/>
					<path class="st8" d="M185.67,69.4c-30.11,17.38-60.24,34.72-90.38,52.06c0-0.34,0-0.51,0-0.85
						c30.13-17.34,60.27-34.68,90.38-52.06C185.67,68.89,185.67,69.06,185.67,69.4z"/>
					<path class="st9" d="M173.93,70.49c0,1.24-0.82,2.72-1.86,3.31c-1.04,0.6-1.89,0.09-1.89-1.15c0-1.24,0.85-2.74,1.89-3.33
						C173.1,68.72,173.92,69.25,173.93,70.49z"/>
					<path class="st5" d="M178.79,67.68c0,1.24-0.77,2.69-1.75,3.25c-0.98,0.57-1.8,0.03-1.8-1.21s0.81-2.71,1.79-3.28
						C178.02,65.89,178.79,66.45,178.79,67.68z"/>
					<path class="st6" d="M183.36,65.05c0,1.24-0.72,2.66-1.64,3.19c-0.92,0.53-1.69-0.03-1.69-1.27c0-1.24,0.77-2.68,1.68-3.21
						C182.64,63.22,183.36,63.81,183.36,65.05z"/>
				</g>
			</g>
			<path class="st9" d="M102.1,177.22c26.22-15.07,52.43-30.16,78.62-45.29c-5.89-4.44-9.21-6.45-16.21-10.26
				c-3.42,5.81-5.18,8.75-8.79,14.67c-6.51-3.17-9.92-4.67-16.8-7.65c-1.32,2.1-1.99,3.15-3.32,5.25c-3.74-1.43-5.63-2.14-9.4-3.57
				C118.1,145.96,110.01,161.54,102.1,177.22z"/>
			<path class="st10" d="M104.12,143.93c6.68,2.17,10.14,3.18,17.07,5.21c5.92-11.54,11.85-23.07,17.74-34.63
				c6.87,2.97,10.28,4.48,16.79,7.65c7.79-12.99,15.34-26,22.67-39.26"/>
			<path class="st8" d="M179.67,82.15c0,0.92-0.57,2-1.29,2.41c-0.72,0.41-1.31,0.01-1.31-0.91c0-0.92,0.59-2.01,1.31-2.42
				C179.1,80.81,179.67,81.23,179.67,82.15z"/>
			<path class="st8" d="M157.31,120.92c0,0.92-0.69,2.07-1.56,2.57c-0.87,0.5-1.57,0.16-1.57-0.76c0-0.92,0.71-2.08,1.57-2.58
				C156.61,119.66,157.31,120,157.31,120.92z"/>
			<path class="st8" d="M140.75,113.56c0,0.92-0.74,2.09-1.65,2.62c-0.91,0.53-1.66,0.21-1.66-0.72c0-0.92,0.74-2.1,1.66-2.62
				C140.01,112.31,140.75,112.64,140.75,113.56z"/>
			<path class="st8" d="M122.97,148.08c0,0.92-0.75,2.1-1.67,2.63c-0.92,0.53-1.67,0.21-1.67-0.71c0-0.92,0.75-2.1,1.67-2.63
				C122.22,146.84,122.97,147.16,122.97,148.08z"/>
			<path class="st8" d="M105.97,142.97c0,0.92-0.73,2.09-1.62,2.6c-0.89,0.51-1.61,0.18-1.61-0.75s0.72-2.08,1.61-2.59
				C105.24,141.72,105.97,142.05,105.97,142.97z"/>
		</g>
	</g>
	<g>
		<g>
			<g>
				<g class="st0">
					<path class="st11" d="M142.33,164.08c-31.05,17.78-62.07,35.59-93.09,53.42c0,13.06,0,26.12,0,39.18
						c30.95-17.94,62.02-35.68,93.09-53.42C142.33,190.19,142.33,177.14,142.33,164.08z"/>
				</g>
				<path class="st2" d="M142.33,164.08c-31.05,17.78-62.07,35.59-93.09,53.42c0,3.49,0,5.23,0,8.72
					c31-17.85,62.04-35.65,93.09-53.42C142.33,169.31,142.33,167.56,142.33,164.08z"/>
				<path class="st8" d="M142.33,173.55c-31.05,17.77-62.09,35.57-93.09,53.42c0-0.3,0-0.45,0-0.75
					c31-17.85,62.04-35.65,93.09-53.42C142.33,173.1,142.33,173.25,142.33,173.55z"/>
				<path class="st9" d="M131.62,174.66c0,1.09-0.72,2.39-1.62,2.91c-0.9,0.52-1.64,0.05-1.64-1.04s0.73-2.4,1.64-2.92
					S131.61,173.57,131.62,174.66z"/>
				<path class="st5" d="M135.95,172.18c0,1.09-0.7,2.38-1.58,2.88c-0.88,0.5-1.59,0.03-1.6-1.07c0-1.09,0.72-2.39,1.59-2.89
					C135.25,170.6,135.95,171.09,135.95,172.18z"/>
				<path class="st6" d="M140.14,169.78c0,1.09-0.68,2.37-1.53,2.85c-0.85,0.49-1.54,0-1.54-1.1c0-1.09,0.7-2.38,1.55-2.86
					C139.47,168.19,140.14,168.68,140.14,169.78z"/>
			</g>
			<g>
				<g>
					<path class="st9" d="M96.35,210.28c-11.14,6.39-22.28,12.78-33.41,19.2c-0.59,0.34-1.08,0.08-1.09-0.57l0,0
						c-0.01-0.65,0.46-1.46,1.04-1.8c11.13-6.41,22.26-12.81,33.4-19.19c0.6-0.34,1.1-0.09,1.11,0.56l0,0
						C97.42,209.13,96.95,209.94,96.35,210.28z"/>
					<path class="st8" d="M58.37,230.83c0.01,0.94-0.66,2.1-1.49,2.58c-0.84,0.48-1.52,0.11-1.53-0.84
						c-0.01-0.94,0.65-2.09,1.48-2.57C57.66,229.52,58.35,229.89,58.37,230.83z"/>
				</g>
				<g>
					<path class="st9" d="M96.48,216.58c-11.15,6.39-22.29,12.79-33.42,19.21c-0.59,0.34-1.08,0.09-1.1-0.56l0,0
						c-0.01-0.65,0.46-1.46,1.05-1.8c11.13-6.42,22.27-12.82,33.42-19.21c0.6-0.34,1.1-0.09,1.11,0.56l0,0
						C97.56,215.43,97.08,216.24,96.48,216.58z"/>
					<path class="st8" d="M58.46,237.16c0.01,0.94-0.66,2.1-1.5,2.59c-0.84,0.49-1.53,0.12-1.54-0.83c-0.01-0.94,0.66-2.1,1.5-2.58
						C57.75,235.85,58.44,236.22,58.46,237.16z"/>
				</g>
				<g>
					<path class="st9" d="M96.62,222.87c-11.16,6.39-22.3,12.79-33.44,19.22c-0.59,0.34-1.09,0.09-1.1-0.56l0,0
						c-0.01-0.65,0.46-1.46,1.06-1.81c11.13-6.43,22.28-12.83,33.43-19.22c0.6-0.34,1.09-0.09,1.11,0.56l0,0
						C97.69,221.72,97.21,222.53,96.62,222.87z"/>
					<path class="st8" d="M58.55,243.48c0.01,0.94-0.67,2.1-1.52,2.59c-0.85,0.49-1.54,0.13-1.55-0.82
						c-0.01-0.94,0.67-2.1,1.51-2.59C57.84,242.18,58.54,242.54,58.55,243.48z"/>
				</g>
			</g>
			<path class="st6" d="M135.69,200.6c-11.63,6.64-18.07,10.32-31.2,17.83c-0.11-6.19-0.16-9.29-0.26-15.48
				c13.25-7.59,19.79-11.34,31.46-18.01C135.69,191.2,135.69,194.33,135.69,200.6z"/>
		</g>
	</g>
	<g>
		<g>
			<g>
				<g>
					<g>
						<g class="st0">
							<path class="st7" d="M292.91,73.19c-18.82,10.87-37.66,21.7-56.47,32.58c0,40.55,0,81.09,0,121.64
								c18.84-10.82,37.73-21.58,56.47-32.58C292.91,154.28,292.91,113.74,292.91,73.19z"/>
						</g>
						<path class="st2" d="M292.91,73.19c-18.82,10.87-37.66,21.7-56.47,32.58c0,3.7,0,5.55,0,9.26
							c18.82-10.87,37.66-21.69,56.47-32.58C292.91,78.74,292.91,76.89,292.91,73.19z"/>
						<path class="st8" d="M292.91,83.24c-18.81,10.88-37.66,21.7-56.47,32.58c0-0.32,0-0.48,0-0.8
							c18.82-10.87,37.66-21.69,56.47-32.58C292.91,82.77,292.91,82.93,292.91,83.24z"/>
						<path class="st9" d="M282.31,84.04c-0.01,1.17-0.7,2.51-1.55,2.99c-0.85,0.49-1.53-0.06-1.52-1.23c0.01-1.17,0.7-2.51,1.55-3
							C281.64,82.32,282.31,82.87,282.31,84.04z"/>
						<path class="st5" d="M286.46,81.64c-0.01,1.16-0.7,2.51-1.54,2.99c-0.85,0.49-1.52-0.06-1.52-1.23
							c0.01-1.17,0.7-2.51,1.54-2.99C285.79,79.92,286.47,80.47,286.46,81.64z"/>
						<path class="st6" d="M290.65,79.22c0,1.16-0.7,2.51-1.55,3c-0.85,0.49-1.53-0.06-1.53-1.22c0-1.16,0.69-2.5,1.54-2.99
							C289.96,77.52,290.65,78.06,290.65,79.22z"/>
					</g>
				</g>
			</g>
			<g>
				<g>
					<path class="st5" d="M254.27,155.59c-1.82,1.05-2.75,1.58-4.64,2.67c0.11-14.98,0.16-22.47,0.26-37.45
						c1.92-1.11,2.86-1.65,4.7-2.71C254.47,133.1,254.41,140.6,254.27,155.59z"/>
					<path class="st5" d="M261.88,151.22c-1.72,0.99-2.59,1.49-4.37,2.51c0.09-9.56,0.14-14.34,0.23-23.9
						c1.79-1.03,2.66-1.53,4.39-2.53C262.03,136.87,261.98,141.65,261.88,151.22z"/>
					<path class="st5" d="M269.14,147.04c-1.66,0.95-2.49,1.44-4.18,2.41c0.04-3.39,0.05-5.09,0.09-8.48
						c1.69-0.97,2.53-1.45,4.18-2.41C269.19,141.96,269.17,143.65,269.14,147.04z"/>
					<path class="st5" d="M276.19,142.98c-1.63,0.94-2.44,1.41-4.08,2.35c0.06-6.18,0.1-9.26,0.16-15.44
						c1.64-0.94,2.45-1.41,4.07-2.34C276.28,133.72,276.25,136.81,276.19,142.98z"/>
					<path class="st5" d="M283.18,138.94c-1.63,0.94-2.44,1.41-4.07,2.35c0.02-2.1,0.03-3.14,0.04-5.24
						c1.62-0.94,2.43-1.4,4.06-2.34C283.2,135.8,283.19,136.85,283.18,138.94z"/>
				</g>
				<path class="st12" d="M245.75,120.47c-0.07,14.43-0.15,28.86-0.22,43.3c13.74-7.91,27.5-15.8,41.22-23.75"/>
			</g>
			<g>
				<path class="st8" d="M284.54,152.76c-11.81,6.85-17.13,9.89-30.09,17.34c-0.58,0.33-1.05,0.03-1.05-0.67l0,0
					c0.01-0.7,0.49-1.55,1.07-1.89c12.97-7.46,18.29-10.5,30.08-17.34c0.53-0.31,0.96,0.02,0.96,0.72l0,0
					C285.5,151.63,285.07,152.46,284.54,152.76z"/>
				<path class="st9" d="M249.85,171.38c-0.01,1.01-0.72,2.24-1.6,2.74c-0.88,0.51-1.6,0.1-1.59-0.91c0.01-1.01,0.74-2.25,1.62-2.76
					C249.16,169.95,249.86,170.36,249.85,171.38z"/>
			</g>
			<g>
				<path class="st8" d="M284.5,159.57c-11.86,6.88-17.18,9.93-30.11,17.36c-0.58,0.33-1.05,0.03-1.05-0.67l0,0
					c0.01-0.7,0.49-1.55,1.07-1.89c12.94-7.44,18.26-10.48,30.1-17.35c0.53-0.31,0.96,0.01,0.96,0.71l0,0
					C285.47,158.43,285.03,159.26,284.5,159.57z"/>
				<path class="st5" d="M249.8,178.19c-0.01,1.01-0.71,2.24-1.59,2.74c-0.88,0.5-1.6,0.1-1.59-0.91c0.01-1.01,0.73-2.25,1.61-2.75
					C249.12,176.76,249.81,177.17,249.8,178.19z"/>
			</g>
			<g>
				<path class="st8" d="M284.46,166.37c-11.9,6.91-17.23,9.96-30.13,17.37c-0.58,0.33-1.05,0.03-1.04-0.67l0,0
					c0.01-0.7,0.49-1.55,1.07-1.88c12.91-7.42,18.24-10.46,30.13-17.36c0.53-0.31,0.97,0.01,0.96,0.71l0,0
					C285.43,165.23,284.99,166.06,284.46,166.37z"/>
				<path class="st6" d="M249.76,185c-0.01,1.01-0.71,2.24-1.59,2.74c-0.88,0.5-1.59,0.1-1.58-0.91c0.01-1.01,0.73-2.25,1.61-2.75
					C249.07,183.57,249.76,183.98,249.76,185z"/>
			</g>
			<g>
				<path class="st8" d="M284.42,173.18c-11.95,6.94-17.28,9.99-30.16,17.38c-0.58,0.33-1.05,0.03-1.04-0.67l0,0
					c0.01-0.7,0.49-1.55,1.06-1.88c12.88-7.4,18.22-10.45,30.15-17.38c0.53-0.31,0.97,0.01,0.97,0.71l0,0
					C285.4,172.04,284.96,172.87,284.42,173.18z"/>
				<path class="st9" d="M249.71,191.81c-0.01,1.01-0.71,2.23-1.58,2.74c-0.87,0.5-1.59,0.09-1.58-0.92
					c0.01-1.01,0.73-2.25,1.6-2.75C249.02,190.38,249.71,190.8,249.71,191.81z"/>
			</g>
			<g>
				<path class="st8" d="M284.38,179.98c-11.99,6.97-17.33,10.02-30.18,17.39c-0.58,0.33-1.05,0.03-1.04-0.67l0,0
					c0.01-0.7,0.49-1.55,1.06-1.88c12.86-7.38,18.19-10.43,30.17-17.39c0.54-0.31,0.97,0.01,0.97,0.71l0,0
					C285.36,178.84,284.92,179.67,284.38,179.98z"/>
				<path class="st5" d="M249.66,198.62c-0.01,1.01-0.71,2.23-1.58,2.73c-0.87,0.5-1.58,0.09-1.57-0.92
					c0.01-1.01,0.73-2.24,1.6-2.74C248.98,197.18,249.67,197.61,249.66,198.62z"/>
			</g>
			<g>
				<path class="st8" d="M284.34,186.79c-12.04,7-17.38,10.05-30.2,17.41c-0.57,0.33-1.04,0.03-1.04-0.68l0,0
					c0.01-0.7,0.48-1.55,1.06-1.88c12.83-7.36,18.17-10.42,30.19-17.4c0.54-0.31,0.98,0,0.97,0.71l0,0
					C285.33,185.64,284.88,186.47,284.34,186.79z"/>
				<path class="st6" d="M249.61,205.43c-0.01,1.01-0.71,2.23-1.57,2.73c-0.87,0.5-1.58,0.09-1.57-0.92
					c0.01-1.01,0.72-2.24,1.59-2.74C248.93,203.99,249.62,204.42,249.61,205.43z"/>
			</g>
			<g>
				<path class="st8" d="M284.3,193.59c-12.08,7.03-17.43,10.08-30.22,17.42c-0.57,0.33-1.04,0.02-1.03-0.68l0,0
					c0.01-0.7,0.48-1.55,1.06-1.88c12.8-7.35,18.15-10.4,30.21-17.42c0.54-0.31,0.98,0,0.98,0.7l0,0
					C285.29,192.44,284.85,193.28,284.3,193.59z"/>
				<path class="st9" d="M249.56,212.24c-0.01,1.01-0.7,2.23-1.57,2.73c-0.86,0.5-1.57,0.08-1.56-0.93
					c0.01-1.01,0.72-2.24,1.59-2.74C248.88,210.8,249.57,211.23,249.56,212.24z"/>
			</g>
		</g>
	</g>
</g>
<g id="DESIGNED_BY_FREEPIK">
</g>
</svg>
