<?xml version="1.0" encoding="utf-8"?>
<!-- Generator: Adobe Illustrator 24.0.3, SVG Export Plug-In . SVG Version: 6.00 Build 0)  -->
<svg version="1.1" id="Слой_1" xmlns="http://www.w3.org/2000/svg" xmlns:xlink="http://www.w3.org/1999/xlink" x="0px" y="0px"
	 viewBox="0 0 406.13 312.84" style="enable-background:new 0 0 406.13 312.84;" xml:space="preserve">
<style type="text/css">
	.st0{fill:#F1F2F2;}
	.st1{fill:#E0E0E0;}
	.st2{fill:#D9D9D9;}
	.st3{fill:#B8B8B8;}
	.st4{fill:#ABADB0;}
	.st5{fill:#FFFFFF;}
	.st6{fill:#231F20;}
	.st7{fill:#C4C4C4;}
	.st8{enable-background:new    ;}
	.st9{fill:#E72F2C;}
	.st10{fill:#939598;}
	.st11{fill:#97999C;}
	.st12{opacity:0.302;fill:#231F20;}
	.st13{opacity:0.3216;fill:#231F20;}
</style>
<g>
	<g>
		<g>
			<path class="st0" d="M135.33,188.27c2.18-0.9,4.35-1.65,6.5-2.27c3.39-0.99,6.75-1.66,10.07-2.08l7.19,18.31
				c-2.61,2.32-5.29,3.78-8.03,4.58c-8.45,2.46-17.53-1.38-27.46-5.57c-1.55-0.65-3.1-1.31-4.67-1.95
				C122.94,195.19,128,191.27,135.33,188.27z"/>
		</g>
		<g>
			<path class="st0" d="M171.56,92.21c-3.89-1.38-7.14-3.89-9.44-6.97c-1.04-1.39-1.88-2.91-2.51-4.49
				c-1.37-3.49-1.69-7.32-0.64-10.98c0.5-1.75,1.27-3.34,2.26-4.73c2.04-2.85,5.01-4.89,8.41-5.88c3.45-1,7.35-0.94,11.21,0.44
				c9.52,3.38,15.16,13.43,12.59,22.44c-1.53,5.36-5.61,9.14-10.67,10.61c-1.53,0.45-3.15,0.68-4.82,0.68
				c-1.71,0.01-3.47-0.24-5.22-0.74C172.34,92.48,171.95,92.36,171.56,92.21z"/>
		</g>
		<g>
			<path class="st1" d="M102.77,176.41l0.58-0.17l7.93,20.21c-0.25-0.08-0.49-0.16-0.74-0.23L102.77,176.41z"/>
		</g>
		<g>
			<polygon class="st2" points="149.04,154.48 149.68,156.1 142.45,158.2 141.82,156.59 			"/>
		</g>
		<g>
			<polygon class="st2" points="230.62,134.07 231.25,135.68 226.22,137.14 225.59,135.53 			"/>
		</g>
		<g>
			<polygon class="st2" points="230.71,130.73 231.34,132.34 225.06,134.17 224.43,132.56 			"/>
		</g>
		<g>
			<polygon class="st3" points="135.3,239.74 136.14,241.88 129.55,243.8 128.71,241.65 			"/>
		</g>
		<g>
			<polygon class="st3" points="218.49,215.54 219.33,217.68 212.74,219.6 211.9,217.46 			"/>
		</g>
		<g>
			<polygon class="st3" points="259.94,203.48 260.78,205.63 254.18,207.54 253.34,205.4 			"/>
		</g>
		<g>
			<path class="st4" d="M162.12,85.25c2.3,3.08,5.55,5.58,9.44,6.97c0.39,0.14,0.78,0.26,1.17,0.38l-1.16,5.57
				c-0.52-0.15-1.04-0.31-1.56-0.5c-5.2-1.85-9.53-5.18-12.6-9.3L162.12,85.25z"/>
		</g>
		<g>
			<path class="st5" d="M167.46,53.58c4.6-1.34,9.8-1.25,14.94,0.58c12.7,4.51,20.22,17.9,16.8,29.92
				c-2.04,7.16-7.49,12.2-14.25,14.17c-2.04,0.59-4.2,0.91-6.41,0.91c-2.28,0-4.63-0.32-6.97-1c-0.52-0.15-1.04-0.31-1.56-0.5
				c-5.2-1.85-9.53-5.18-12.6-9.3c-1.38-1.86-2.51-3.88-3.34-5.99c0.83,2.11,1.96,4.13,3.34,5.99c3.07,4.12,7.4,7.45,12.6,9.3
				c0.51,0.19,1.04,0.35,1.56,0.5c2.35,0.68,4.69,0.99,6.97,1l-0.58-5.82c1.67,0,3.29-0.24,4.82-0.68
				c5.06-1.47,9.14-5.26,10.67-10.61c2.57-9.01-3.07-19.06-12.59-22.44c-3.86-1.37-7.76-1.44-11.21-0.44
				c-3.41,0.99-6.37,3.03-8.41,5.88c-0.99,1.4-1.76,2.98-2.26,4.73c-1.04,3.66-0.73,7.49,0.64,10.98
				c-1.37-3.49-1.68-7.32-0.64-10.98c0.5-1.75,1.27-3.34,2.26-4.73l-5-3.62C158.97,57.61,162.92,54.9,167.46,53.58z"/>
		</g>
		<g>
			<path class="st6" d="M172.74,92.59c1.76,0.51,3.52,0.75,5.22,0.74l0.58,5.82c-2.28,0-4.63-0.32-6.97-1L172.74,92.59z"/>
		</g>
		<g>
			<polygon class="st7" points="144.96,129.86 146.31,133.3 110.05,143.85 108.7,140.4 			"/>
		</g>
		<g>
			<polygon class="st7" points="130.25,125.98 131.6,129.42 107.17,136.53 105.82,133.09 			"/>
		</g>
		<g>
			<polygon class="st7" points="205.33,112.3 206.68,115.74 175.24,124.89 173.89,121.44 			"/>
		</g>
		<g>
			<polygon class="st7" points="198.16,106.23 199.51,109.67 172.37,117.56 171.02,114.12 			"/>
		</g>
		<g>
			<polygon class="st5" points="198.83,263.14 200.13,266.47 101.32,295.22 100.01,291.88 101.32,295.22 152.77,280.25 
				151.46,276.92 			"/>
		</g>
		<g>
			<polygon class="st4" points="151.46,276.92 152.77,280.25 101.32,295.22 100.01,291.88 			"/>
		</g>
		<g>
			<polygon class="st4" points="176.25,261.05 177.56,264.38 98.27,287.44 96.96,284.11 			"/>
		</g>
		<g class="st8">
			<g>
				<polygon class="st6" points="254.4,40.08 255.68,43.34 223.46,52.71 222.18,49.45 				"/>
			</g>
			<g>
				<polygon class="st6" points="263.16,48.77 264.44,52.03 227.42,62.8 226.14,59.54 				"/>
			</g>
			<g>
				<polygon class="st6" points="249.18,64.01 250.46,67.27 231.3,72.84 230.02,69.58 				"/>
			</g>
			<g>
				<polygon class="st6" points="263.48,71.04 264.76,74.29 235.24,82.88 233.96,79.62 				"/>
			</g>
			<g>
				<path class="st9" d="M156.24,61.42l5,3.62c-0.99,1.4-1.76,2.98-2.26,4.73c-1.04,3.66-0.73,7.49,0.64,10.98
					c0.62,1.58,1.47,3.1,2.51,4.49l-4.7,3.11c-1.38-1.86-2.51-3.88-3.34-5.99c-1.83-4.65-2.25-9.75-0.86-14.63
					C153.89,65.39,154.92,63.28,156.24,61.42z"/>
			</g>
			<g>
				<path class="st5" d="M97.41,76.5c2.39-2.33,5.36-4.08,8.7-5.09C102.77,72.42,99.8,74.17,97.41,76.5z"/>
			</g>
			<g>
				<path class="st5" d="M101.35,81.29c0.17-0.18,0.34-0.35,0.52-0.52C101.7,80.94,101.52,81.11,101.35,81.29z"/>
			</g>
			<g>
				<path class="st5" d="M122.97,72.63c9.47,4.13,16.15,13.64,15.88,23.89c-0.25,9.54-6.44,17.01-15.04,19.52
					c-2.89,0.84-6.06,1.12-9.37,0.73c-10.19-1.2-18.71-8.44-21.88-17.55l5.62-1.38c2.38,6.83,8.77,12.25,16.41,13.16
					c2.48,0.29,4.85,0.08,7.02-0.55c6.46-1.88,11.1-7.48,11.28-14.63c0.21-7.69-4.8-14.82-11.9-17.92L122.97,72.63z"/>
			</g>
			<g>
				<path class="st0" d="M114.59,110.99c-7.64-0.9-14.03-6.32-16.41-13.16c-0.57-1.63-0.91-3.34-0.97-5.09
					c-0.02-0.39-0.02-0.77-0.01-1.16c0.1-3.91,1.54-7.36,3.88-9.99c0.09-0.11,0.19-0.21,0.28-0.31c1.8-1.92,4.1-3.38,6.72-4.21
					c0.14-0.04,0.27-0.09,0.41-0.13c0.14-0.04,0.27-0.08,0.41-0.11c0.62-0.16,1.25-0.29,1.89-0.38c1.08-0.16,2.19-0.21,3.33-0.16
					c0.09,0,0.19,0.01,0.28,0.02c0.26,0.02,0.52,0.04,0.78,0.06c0.11,0.01,0.22,0.02,0.33,0.04c1.93,0.23,3.76,0.74,5.49,1.49
					c7.1,3.1,12.11,10.23,11.9,17.92c-0.19,7.15-4.83,12.76-11.28,14.63C119.44,111.08,117.07,111.29,114.59,110.99z"/>
			</g>
			<g>
				<path class="st9" d="M106.29,71.36c0.05-0.01,0.09-0.03,0.14-0.04c2.6-0.74,5.43-1.03,8.37-0.78c0.28,0.02,0.57,0.05,0.86,0.09
					c2.57,0.31,5.02,0.99,7.32,1.99l-1.98,5.27c-1.73-0.75-3.56-1.26-5.49-1.49c-0.11-0.01-0.22-0.02-0.33-0.04
					c-0.26-0.03-0.52-0.05-0.77-0.06c-0.09-0.01-0.19-0.01-0.28-0.02c-1.14-0.05-2.25,0.01-3.33,0.16
					c-0.65,0.09-1.28,0.22-1.89,0.38c-0.14,0.04-0.27,0.07-0.41,0.11c-0.14,0.04-0.27,0.08-0.41,0.13
					c-2.62,0.84-4.92,2.29-6.72,4.21c-0.1,0.1-0.19,0.21-0.28,0.31l-4.67-4.04c0.24-0.26,0.48-0.52,0.73-0.77
					c0.09-0.09,0.19-0.19,0.28-0.28c2.39-2.33,5.36-4.08,8.7-5.09C106.17,71.4,106.23,71.38,106.29,71.36z"/>
			</g>
			<g>
				<path class="st5" d="M101.87,80.77c1.6-1.55,3.54-2.76,5.72-3.53C105.41,78.01,103.47,79.22,101.87,80.77z"/>
			</g>
			<g>
				<polygon class="st2" points="193.79,141.47 194.42,143.08 183.9,146.14 183.27,144.53 				"/>
			</g>
			<g>
				<polygon class="st2" points="192.85,145.05 193.48,146.66 185.07,149.11 184.44,147.5 				"/>
			</g>
			<g>
				<path class="st1" d="M185.67,152.3l0.58-0.17l4.19,10.68c-0.16,0.13-0.33,0.27-0.49,0.41L185.67,152.3z"/>
			</g>
			<g>
				<path class="st10" d="M96.4,77.56l4.67,4.04c-2.34,2.62-3.77,6.07-3.88,9.99c-0.01,0.38,0,0.77,0.01,1.16l-5.96-0.32
					c-0.02-0.51-0.03-1.03-0.01-1.55C91.38,85.66,93.29,81.07,96.4,77.56z"/>
			</g>
			<g>
				<path class="st6" d="M91.25,92.43l5.96,0.32c0.07,1.75,0.4,3.46,0.97,5.09l-5.62,1.38C91.8,97.04,91.35,94.76,91.25,92.43z"/>
			</g>
			<g>
				<path class="st0" d="M236.36,163.78l5.74,14.63c-4.25,3.03-8.58,5.07-13.01,6.35c-9.56,2.78-19.53,2.1-29.81,0.54l-7.55-19.22
					c4.09-3.46,8.46-6.04,13.31-7.45C213.6,156.15,223.67,157.31,236.36,163.78z"/>
			</g>
			<g>
				<path class="st1" d="M198.59,185.21l-7.34-18.7c0.16-0.14,0.32-0.28,0.49-0.42l7.55,19.22
					C199.05,185.28,198.82,185.24,198.59,185.21z"/>
			</g>
			<g>
				<path class="st0" d="M189.91,183.75c-3.97-0.7-7.98-1.4-12.02-1.98c4.3-5.93,8.65-11.17,13.36-15.26l7.34,18.7
					C195.72,184.76,192.83,184.26,189.91,183.75z"/>
			</g>
			<g>
				<polygon class="st2" points="151.41,157.11 152.04,158.72 143.62,161.16 142.99,159.56 				"/>
			</g>
			<g>
				<path class="st1" d="M209.88,213.98l-10.07-25.66c0.23,0.03,0.46,0.07,0.69,0.1l9.97,25.39L209.88,213.98z"/>
			</g>
			<g>
				<path class="st1" d="M144.22,164.36l0.58-0.17l6.59,16.8c-0.21,0.03-0.41,0.05-0.62,0.08L144.22,164.36z"/>
			</g>
			<g>
				<path class="st0" d="M159.56,201.78l-7.04-17.95c6.79-0.8,13.44-0.56,19.98,0.15c-2.4,3.51-4.79,7.16-7.22,10.86
					C163.4,197.69,161.5,199.98,159.56,201.78z"/>
			</g>
			<g>
				<path class="st1" d="M159.09,202.22l-7.19-18.31c0.21-0.03,0.41-0.05,0.62-0.08l7.04,17.95
					C159.4,201.93,159.25,202.08,159.09,202.22z"/>
			</g>
			<g>
				<path class="st4" d="M45.82,126.22c3.34,1.95,7.25,2.96,11.22,2.64c0.39-0.03,0.79-0.08,1.17-0.14l1.45,5.75
					c-0.52,0.08-1.04,0.14-1.56,0.18c-5.3,0.43-10.51-0.91-14.96-3.52L45.82,126.22z"/>
			</g>
			<g>
				<path class="st0" d="M57.04,128.86c-3.97,0.32-7.88-0.69-11.22-2.64c-3.85-2.25-6.95-5.76-8.58-9.96
					c-0.41-1.07-0.73-2.19-0.94-3.34c-0.35-1.87-0.37-3.7-0.13-5.43c0.86-6.06,5.09-10.99,11.11-12.74
					c1.08-0.32,2.23-0.53,3.42-0.62c9.71-0.78,18.99,6.35,20.74,15.94c1.35,7.43-2.21,14.15-8.4,17.18
					c-0.81,0.4-1.66,0.73-2.56,0.99c-0.09,0.03-0.18,0.05-0.28,0.08c-0.37,0.1-0.75,0.19-1.13,0.27c-0.29,0.06-0.58,0.11-0.87,0.15
					C57.82,128.77,57.43,128.83,57.04,128.86z"/>
			</g>
			<g>
				<path class="st5" d="M77.31,109.59C74.98,96.8,62.6,87.28,49.66,88.33c-1.59,0.13-3.12,0.41-4.57,0.83
					c-8.03,2.34-13.66,8.91-14.81,16.99l5.9,1.33c0.86-6.06,5.09-10.99,11.11-12.74c1.08-0.32,2.23-0.53,3.42-0.62
					c9.71-0.78,18.99,6.35,20.74,15.94c1.35,7.43-2.21,14.15-8.4,17.18l3.06,5.26C74.36,128.46,79.12,119.5,77.31,109.59z"/>
			</g>
			<g>
				<path class="st5" d="M59.66,134.47c0.67-0.1,1.32-0.22,1.96-0.38l0,0C60.98,134.25,60.32,134.37,59.66,134.47z"/>
			</g>
			<g>
				<path class="st5" d="M62.3,133.92c-0.21,0.06-0.42,0.11-0.63,0.16l0,0C61.89,134.03,62.1,133.97,62.3,133.92z"/>
			</g>
			<g>
				<path class="st6" d="M63.05,127.24l3.06,5.25c-0.33,0.16-0.67,0.31-1.01,0.46c-0.08,0.03-0.16,0.07-0.24,0.1
					c-0.64,0.26-1.29,0.49-1.97,0.7c-0.07,0.02-0.15,0.04-0.22,0.07c-0.97,0.28-1.98,0.5-3.01,0.65l-1.45-5.75
					c0.29-0.04,0.59-0.09,0.87-0.15c0.38-0.08,0.76-0.16,1.13-0.27c0.09-0.03,0.18-0.05,0.28-0.08
					C61.38,127.97,62.24,127.63,63.05,127.24z"/>
			</g>
			<g>
				<polygon class="st2" points="111.29,165.47 111.92,167.08 100.26,170.47 99.63,168.86 				"/>
			</g>
			<g>
				<polygon class="st2" points="108.25,169.66 108.88,171.27 101.43,173.44 100.8,171.83 				"/>
			</g>
			<g>
				<path class="st1" d="M168.43,226.03l-8.16-20.8c0.16-0.13,0.33-0.27,0.49-0.41l8.26,21.03L168.43,226.03z"/>
			</g>
			<g>
				<polygon class="st3" points="177.04,227.59 177.88,229.74 171.29,231.66 170.45,229.51 				"/>
			</g>
			<g>
				<path class="st9" d="M30.28,106.16l5.9,1.33c-0.24,1.73-0.21,3.56,0.13,5.43c0.21,1.15,0.53,2.27,0.94,3.34
					c1.62,4.2,4.73,7.71,8.58,9.96l-2.69,4.91c-5.13-3-9.27-7.68-11.44-13.29c-0.55-1.43-0.98-2.92-1.26-4.45
					C29.99,110.9,29.94,108.47,30.28,106.16z"/>
			</g>
			<g>
				<path class="st11" d="M150.78,181.07c0.21-0.03,0.41-0.05,0.62-0.08c7.85-0.98,15.48-0.61,22.96,0.3
					c-0.62,0.89-1.25,1.79-1.87,2.69c-6.54-0.71-13.19-0.94-19.98-0.15c-0.21,0.02-0.41,0.05-0.62,0.08
					c-3.32,0.42-6.68,1.09-10.07,2.08c-2.15,0.63-4.32,1.38-6.5,2.27c-7.32,3.01-12.39,6.92-16.4,11.01
					c-1.03-0.42-2.07-0.83-3.11-1.23c4.32-4.6,9.83-9.08,18.13-12.49c2.3-0.94,4.58-1.74,6.84-2.39
					C144.16,182.19,147.49,181.51,150.78,181.07z"/>
			</g>
			<g>
				<path class="st0" d="M113.11,201.1l-0.46-1.18c0.37,0.13,0.75,0.26,1.12,0.4C113.55,200.58,113.33,200.84,113.11,201.1z"/>
			</g>
			<g>
				<path class="st4" d="M203.72,155.56c8.88-2.58,19.27-1.57,31.15,4.41c0.18,0.09,0.35,0.18,0.53,0.27l1.37,3.75
					c-0.14-0.07-0.27-0.14-0.41-0.21c-12.69-6.47-22.76-7.64-31.32-5.15c-4.85,1.41-9.22,3.99-13.31,7.45
					c-0.16,0.14-0.32,0.28-0.49,0.42c-4.71,4.08-9.06,9.32-13.36,15.26c-0.63,0.87-1.26,1.75-1.89,2.65
					c-2.7,3.85-5.39,7.94-8.17,12.17c-2.29,3.49-4.65,6.2-7.08,8.25c-0.16,0.14-0.33,0.27-0.49,0.41c-2.64,2.14-5.34,3.53-8.09,4.33
					c-9.54,2.78-19.64-1.49-29.54-5.68c-1.91-0.81-3.84-1.62-5.78-2.39c-1.03-0.41-2.05-0.8-3.08-1.17
					c-0.37-0.14-0.75-0.27-1.12-0.4c-0.25-0.09-0.5-0.17-0.75-0.26c-4.06-1.37-8.14-2.39-12.21-2.64c-5.03-0.3-9.22,0.22-12.7,1.23
					c-11.23,3.27-15.06,11.62-15.83,13.62c-0.1,0.27-0.15,0.42-0.15,0.43l-1.61-4.11c0.01-0.03,0.05-0.18,0.16-0.43
					c0.4-0.98,1.71-3.53,5.31-6.66c2.29-1.99,5.68-4.16,10.5-5.56c3.8-1.1,8.48-1.74,14.21-1.43c3.7,0.19,7.36,0.98,10.98,2.1
					c0.25,0.08,0.49,0.15,0.74,0.23c1.52,0.49,3.03,1.02,4.53,1.59c1.04,0.4,2.08,0.81,3.11,1.23c1.57,0.64,3.12,1.3,4.67,1.95
					c9.93,4.19,19.01,8.03,27.46,5.57c2.74-0.8,5.41-2.26,8.03-4.58c0.16-0.14,0.32-0.29,0.48-0.43c1.93-1.8,3.84-4.09,5.71-6.94
					c2.43-3.7,4.82-7.35,7.22-10.86c0.62-0.91,1.25-1.81,1.87-2.69c4.96-7.04,10.01-13.35,15.59-18.07
					c0.16-0.14,0.33-0.27,0.49-0.41c1.28-1.06,2.6-2.03,3.94-2.92C197.29,158,200.4,156.53,203.72,155.56z"/>
			</g>
			<g>
				<path class="st1" d="M112.67,201.63l-0.77-1.96c0.25,0.08,0.5,0.17,0.75,0.26l0.46,1.18
					C112.97,201.28,112.82,201.45,112.67,201.63z"/>
			</g>
			<g>
				<polygon class="st7" points="88.95,137.99 90.3,141.43 46.01,154.32 44.66,150.88 				"/>
			</g>
			<g>
				<polygon class="st7" points="80.68,148.55 82.03,152 48.89,161.64 47.53,158.19 				"/>
			</g>
			<g>
				<polygon class="st2" points="68.56,177.89 69.2,179.51 59.27,182.39 58.63,180.78 				"/>
			</g>
			<g>
				<polygon class="st2" points="73.88,179.66 74.51,181.26 60.43,185.36 59.8,183.76 				"/>
			</g>
			<g>
				<path class="st1" d="M61.91,188.3l7.65,19.48c-0.1,0.25-0.15,0.39-0.16,0.43l1.61,4.11c0-0.01,0.05-0.17,0.15-0.43l2.43,6.2
					c-0.32-0.24-0.48-0.41-0.49-0.42l1.43,3.64c0.03,0.04,0.18,0.16,0.45,0.33l11.13,28.34l-0.58,0.17l-24.21-61.68L61.91,188.3z"/>
			</g>
			<g>
				<path class="st11" d="M113.11,201.1c0.22-0.26,0.44-0.52,0.66-0.78c1.03,0.37,2.06,0.77,3.08,1.17
					c-0.86,0.97-1.67,1.93-2.45,2.89c-0.15,0.18-0.29,0.36-0.44,0.54c-0.69,0.86-1.36,1.71-2.02,2.55
					c-4.74,6.04-9.34,11.46-17.38,14.15c-0.55,0.18-1.1,0.35-1.63,0.51c-10.25,2.98-16.3,0.46-17.95-0.51
					c-0.27-0.16-0.42-0.28-0.45-0.33l-1.43-3.64c0.01,0.01,0.16,0.17,0.49,0.42c1.61,1.21,7.35,4.39,19.6,0.83
					c0.08-0.02,0.17-0.05,0.26-0.07c7.34-2.18,11.38-7.31,16.06-13.26c1.01-1.29,2.05-2.61,3.16-3.95
					C112.82,201.45,112.97,201.28,113.11,201.1z"/>
			</g>
			<g>
				<path class="st0" d="M87,198.26c3.48-1.01,7.67-1.54,12.7-1.23c4.07,0.25,8.15,1.26,12.21,2.64l0.77,1.96
					c-1.1,1.33-2.14,2.66-3.16,3.95c-4.68,5.95-8.71,11.08-16.06,13.26c-0.09,0.03-0.17,0.05-0.25,0.08
					c-12.25,3.56-18,0.38-19.6-0.83l-2.43-6.2C71.93,209.89,75.76,201.53,87,198.26z"/>
			</g>
			<g>
				<polygon class="st3" points="93.85,251.79 94.69,253.93 88.1,255.85 87.26,253.71 				"/>
			</g>
			<g>
				<polygon class="st4" points="167.29,254.98 168.6,258.32 95.22,279.66 93.91,276.33 				"/>
			</g>
			<g>
				<path class="st0" d="M251.99,0.25c5.86-1.7,12.49,1.7,14.81,7.61l85.66,218.23c1.99,5.06,0.16,10.32-4.09,12.79
					c-0.71,0.41-1.49,0.75-2.32,0.99L103.7,310.36c-5.86,1.7-12.49-1.71-14.81-7.61L3.23,84.52c-1.54-3.94-0.79-7.99,1.62-10.76
					c1.21-1.39,2.83-2.46,4.78-3.02L251.99,0.25z M230.06,187.69c4.68-1.36,8.7-3.05,13.21-6.29l8.05,20.52l0.58-0.17l-24.21-61.68
					l-0.58,0.17l7.74,19.73c-11.88-5.98-22.26-6.99-31.15-4.41c-3.32,0.97-6.43,2.43-9.33,4.33c-1.35,0.88-2.66,1.86-3.94,2.92
					l-4.19-10.68l-0.58,0.17l4.29,10.92c-5.59,4.73-10.64,11.03-15.59,18.07c-7.48-0.92-15.12-1.28-22.96-0.3l-6.59-16.8l-0.58,0.17
					l6.56,16.71c-3.29,0.44-6.62,1.12-10,2.1c-2.26,0.66-4.54,1.45-6.84,2.39c-8.3,3.41-13.81,7.88-18.13,12.49
					c-1.5-0.57-3.01-1.11-4.53-1.6l-7.93-20.21l-0.58,0.17l7.78,19.81c-3.61-1.11-7.27-1.9-10.98-2.1
					c-5.73-0.3-10.41,0.33-14.21,1.43c-4.81,1.4-8.21,3.56-10.5,5.56c-3.6,3.14-4.9,5.68-5.31,6.66l-7.65-19.48l-0.58,0.17
					l24.21,61.68l0.58-0.17l-11.13-28.34c1.64,0.98,7.7,3.49,17.95,0.51c0.53-0.15,1.07-0.32,1.63-0.51
					c8.04-2.69,12.64-8.12,17.38-14.15c0.66-0.84,1.33-1.69,2.02-2.55l13.01,33.15l0.58-0.17l-13.16-33.52
					c0.78-0.96,1.59-1.93,2.45-2.89c1.94,0.77,3.87,1.58,5.78,2.39c9.9,4.18,20,8.45,29.54,5.68c2.75-0.8,5.45-2.19,8.09-4.33
					l8.16,20.8l0.58-0.17l-8.26-21.03c2.42-2.06,4.79-4.77,7.08-8.25c2.78-4.23,5.47-8.32,8.17-12.17c4.6,0.61,9.15,1.41,13.66,2.2
					c3.42,0.6,6.8,1.2,10.15,1.7l10.07,25.66l0.58-0.17l-9.97-25.39C210.65,189.9,220.5,190.47,230.06,187.69 M153.22,67.74
					c-1.39,4.88-0.98,9.98,0.86,14.63c0.83,2.11,1.96,4.13,3.34,5.99c3.07,4.12,7.4,7.45,12.6,9.3c0.51,0.19,1.04,0.35,1.56,0.5
					c2.35,0.68,4.69,1,6.97,1c2.22-0.01,4.37-0.32,6.41-0.91c6.76-1.97,12.21-7.01,14.25-14.17c3.41-12.01-4.1-25.4-16.8-29.92
					c-5.14-1.83-10.35-1.92-14.94-0.58c-4.54,1.32-8.5,4.04-11.22,7.85C154.92,63.28,153.89,65.39,153.22,67.74 M92.56,99.22
					c3.16,9.11,11.69,16.34,21.88,17.55c3.31,0.39,6.48,0.11,9.37-0.73c8.61-2.5,14.79-9.98,15.05-19.52
					c0.27-10.25-6.41-19.77-15.88-23.89c-2.29-1-4.75-1.69-7.32-1.99c-0.29-0.03-0.57-0.06-0.86-0.09
					c-2.94-0.25-5.76,0.04-8.37,0.78c-0.2,0.06-0.26,0.07-0.32,0.09c-3.34,1-6.31,2.75-8.7,5.09c-0.09,0.09-0.19,0.18-0.28,0.28
					c-0.25,0.25-0.49,0.51-0.73,0.78c-3.11,3.51-5.03,8.11-5.17,13.32c-0.01,0.52-0.01,1.04,0.01,1.55
					C91.35,94.76,91.8,97.04,92.56,99.22 M30.43,113.39c0.28,1.54,0.71,3.02,1.26,4.45c2.17,5.6,6.31,10.29,11.44,13.29
					c4.45,2.61,9.66,3.95,14.96,3.52c0.52-0.04,1.04-0.1,1.56-0.18c1.04-0.15,2.04-0.37,3.01-0.65c0.08-0.02,0.15-0.04,0.23-0.07
					c0.67-0.2,1.33-0.44,1.97-0.7c0.08-0.03,0.16-0.07,0.24-0.1c0.34-0.15,0.68-0.3,1.01-0.46c8.25-4.03,13.01-13,11.2-22.9
					C74.98,96.8,62.6,87.28,49.66,88.33c-1.59,0.13-3.12,0.41-4.57,0.83c-8.03,2.34-13.66,8.91-14.81,16.99
					C29.94,108.47,29.99,110.9,30.43,113.39 M250.56,243.15l-1.31-3.33l-73,21.23l-79.29,23.06l1.31,3.33L250.56,243.15
					 M167.29,254.98l-73.39,21.35l1.31,3.33l140.94-40.99l-1.31-3.33L167.29,254.98 M200.13,266.47l-1.31-3.33l-47.36,13.78
					l-51.45,14.97l1.31,3.33L200.13,266.47 M90.3,141.43l-1.35-3.44l-44.29,12.88l1.35,3.44L90.3,141.43 M108.7,140.4l1.35,3.45
					l36.26-10.55l-1.35-3.45L108.7,140.4 M264.44,52.03l-1.28-3.26l-37.02,10.77l1.28,3.26L264.44,52.03 M48.89,161.64L82.03,152
					l-1.35-3.45l-33.14,9.64L48.89,161.64 M175.24,124.89l31.44-9.14l-1.35-3.45l-31.44,9.14L175.24,124.89 M222.18,49.45l1.28,3.26
					l32.21-9.37l-1.28-3.26L222.18,49.45 M264.76,74.29l-1.28-3.26l-29.51,8.58l1.28,3.26L264.76,74.29 M172.37,117.56l27.15-7.9
					l-1.35-3.44l-27.15,7.9L172.37,117.56 M105.82,133.09l1.35,3.44l24.42-7.1l-1.35-3.44L105.82,133.09 M230.02,69.58l1.28,3.26
					l19.16-5.57l-1.28-3.26L230.02,69.58 M73.88,179.66l-14.08,4.1l0.63,1.61l14.08-4.1L73.88,179.66 M100.26,170.47l11.66-3.39
					l-0.63-1.61l-11.66,3.39L100.26,170.47 M183.9,146.14l10.52-3.06l-0.63-1.61l-10.52,3.06L183.9,146.14 M59.27,182.39l9.93-2.89
					l-0.63-1.61l-9.93,2.89L59.27,182.39 M88.1,255.85l6.59-1.92l-0.84-2.14l-6.59,1.92L88.1,255.85 M260.78,205.63l-0.84-2.14
					l-6.59,1.92l0.84,2.14L260.78,205.63 M129.55,243.8l6.59-1.92l-0.84-2.14l-6.59,1.92L129.55,243.8 M171.29,231.65l6.59-1.92
					l-0.84-2.14l-6.59,1.92L171.29,231.65 M212.74,219.6l6.59-1.92l-0.84-2.14l-6.59,1.92L212.74,219.6 M151.41,157.11l-8.42,2.45
					l0.63,1.61l8.42-2.45L151.41,157.11 M192.85,145.05l-8.42,2.45l0.63,1.61l8.42-2.45L192.85,145.05 M108.25,169.66l-7.46,2.17
					l0.63,1.61l7.46-2.17L108.25,169.66 M142.45,158.2l7.22-2.1l-0.63-1.61l-7.22,2.1L142.45,158.2 M224.43,132.56l0.63,1.61
					l6.29-1.83l-0.63-1.61L224.43,132.56 M225.59,135.53l0.63,1.61l5.03-1.46l-0.63-1.61L225.59,135.53"/>
			</g>
			<g>
				<path class="st1" d="M227.7,140.07l24.21,61.68l-0.58,0.17l-8.05-20.52c0.08-0.06,0.17-0.12,0.25-0.18l-1.17-2.99
					c-0.08,0.06-0.17,0.12-0.25,0.18l-5.74-14.63c0.13,0.07,0.27,0.14,0.41,0.21l-1.37-3.75c-0.18-0.09-0.35-0.18-0.53-0.27
					l-7.74-19.73L227.7,140.07z"/>
			</g>
			<g>
				<path class="st11" d="M242.1,178.41c0.08-0.06,0.17-0.12,0.25-0.18l1.17,2.99c-0.08,0.06-0.17,0.12-0.25,0.18
					c-4.52,3.24-8.53,4.93-13.21,6.29c-9.56,2.78-19.41,2.21-29.57,0.72c-0.23-0.03-0.46-0.07-0.69-0.1
					c-3.35-0.5-6.73-1.1-10.15-1.7c-4.51-0.79-9.06-1.59-13.66-2.2c0.63-0.9,1.26-1.78,1.89-2.65c4.04,0.58,8.05,1.29,12.02,1.98
					c2.91,0.51,5.81,1.02,8.68,1.46c0.23,0.04,0.46,0.07,0.69,0.11c10.28,1.55,20.25,2.24,29.81-0.54
					C233.52,183.48,237.86,181.45,242.1,178.41z"/>
			</g>
			<g>
				<path class="st5" d="M61.68,134.08c-0.02,0-0.04,0.01-0.06,0.01l0,0C61.64,134.09,61.66,134.08,61.68,134.08L61.68,134.08z"/>
			</g>
			<g>
				<path class="st1" d="M126.98,238.09l-13.01-33.15c0.14-0.18,0.29-0.36,0.44-0.54l13.16,33.52L126.98,238.09z"/>
			</g>
			<g>
				<polygon class="st5" points="234.85,235.34 236.15,238.67 95.22,279.66 93.91,276.33 95.22,279.66 168.6,258.32 167.29,254.98 
									"/>
			</g>
			<g>
				<polygon class="st5" points="249.25,239.81 250.56,243.15 98.27,287.44 96.96,284.11 98.27,287.44 177.56,264.38 176.25,261.05 
									"/>
			</g>
			<g>
				<path class="st12" d="M4.86,73.77c-2.41,2.77-3.17,6.82-1.62,10.76L88.9,302.75c2.32,5.91,8.95,9.32,14.81,7.61l242.34-70.49
					c0.84-0.24,1.61-0.58,2.32-0.99c-1.21,1.39-2.83,2.46-4.78,3.02L101.24,312.4c-5.86,1.7-12.49-1.7-14.81-7.61L0.77,86.56
					C-1.22,81.49,0.61,76.24,4.86,73.77z"/>
			</g>
		</g>
	</g>
</g>
<g>
	<g>
		<g>
			<path class="st6" d="M300.11,172.24l9.77,24.89c-0.1,0.17-0.2,0.34-0.29,0.52l-9.92-25.28L300.11,172.24z"/>
		</g>
		<g>
			<path class="st6" d="M278.68,178.47l13.35,34.01c-0.17-0.03-0.26-0.06-0.27-0.06l9.07,23.11l0.22-0.06l-0.44,0.13l-22.37-56.99
				L278.68,178.47z"/>
		</g>
		<g>
			<polygon class="st6" points="285.09,171.32 285.91,173.39 277.41,175.86 276.6,173.79 			"/>
		</g>
		<g>
			<polygon class="st6" points="303.34,166.01 304.16,168.08 298.84,169.63 298.03,167.56 			"/>
		</g>
		<g>
			<polygon class="st6" points="350.98,152.16 351.79,154.23 341.69,157.17 340.87,155.1 			"/>
		</g>
		<g>
			<polygon class="st6" points="365.82,147.84 366.64,149.91 363.11,150.94 362.29,148.87 			"/>
		</g>
		<g class="st8">
			<g>
				<polygon class="st5" points="340.95,121.86 342.38,125.51 319.63,132.13 318.2,128.48 				"/>
			</g>
			<g>
				<path class="st4" d="M285.28,131.85c5.02-1.46,10.68,1.46,12.67,6.52l3.51,8.95c-0.07,0.06-0.13,0.12-0.2,0.18
					c-2.28,2.08-5,3.59-8.08,4.48c-3.09,0.9-6.31,1.12-9.59,0.66c-0.1-0.01-0.19-0.03-0.29-0.04l-3.51-8.95
					C277.81,138.59,280.26,133.31,285.28,131.85z"/>
			</g>
			<g>
				<path class="st0" d="M334.43,71.88c6.04-1.76,12.86,1.75,15.25,7.84l55.04,140.21c2.39,6.08-0.57,12.43-6.6,14.18l-89.92,26.16
					c-1.31,0.38-2.65,0.51-3.98,0.43c-4.8-0.31-9.39-3.5-11.26-8.26l-55.04-140.21c-2.01-5.12-0.24-10.43,3.97-13.03
					c0.79-0.49,1.67-0.88,2.63-1.16L334.43,71.88z M386.75,210.53l-22.37-56.99l-0.44,0.13l1.6,4.08
					c-12.46,3.75-7.89,13.68-13.2,24.44c-0.11,0.22-0.22,0.44-0.33,0.65l-9.05-23.06l-0.44,0.13l9.21,23.47
					c-2.26,4.18-4.67,6.45-7.58,7.3c-3.63,1.06-8.05-0.1-13.94-2.55l-8.68-22.11l-0.44,0.13l8.53,21.74
					c-3.56-1.51-6.52-1.69-9.13-0.94c-4.38,1.27-7.77,5.2-10.62,10.19l-9.77-24.89l-0.44,0.13l9.92,25.28
					c-1.06,1.91-2.05,3.96-2.99,6.08c-2.37,5.34-5.84,7.57-8.83,8.44c-2.69,0.78-4.98,0.46-5.74,0.32l-13.35-34.01l-0.44,0.13
					l22.37,56.99l0.44-0.13l20.98-6.1l0.44-0.13l20.98-6.1l0.44-0.13l20.98-6.1l0.44-0.13l20.98-6.1L386.75,210.53 M275.79,107.68
					c-12.44,3.62-18.56,16.77-13.63,29.32c3.5,8.91,11.88,15.53,21.37,16.88c3.47,0.49,6.87,0.26,10.13-0.69
					c3.25-0.94,6.12-2.54,8.53-4.74c6.59-6.03,8.6-15.67,5.11-24.58C302.37,111.32,288.23,104.06,275.79,107.68 M315.19,120.82
					l1.43,3.65l28.65-8.33l-1.43-3.65L315.19,120.82 M321.21,136.13l1.43,3.65l26.3-7.65l-1.43-3.65L321.21,136.13 M318.2,128.48
					l1.43,3.65l22.75-6.62l-1.43-3.65L318.2,128.48 M350.98,152.16l-10.11,2.94l0.81,2.07l10.11-2.94L350.98,152.16 M276.6,173.79
					l0.81,2.07l8.49-2.47l-0.81-2.07L276.6,173.79 M326.01,159.42l-6.56,1.91l0.81,2.07l6.56-1.91L326.01,159.42 M303.34,166.01
					l-5.32,1.55l0.81,2.07l5.32-1.55L303.34,166.01 M366.64,149.91l-0.81-2.07l-3.53,1.03l0.81,2.07L366.64,149.91"/>
			</g>
			<g>
				<polygon class="st5" points="343.84,112.48 345.28,116.13 316.63,124.47 315.19,120.82 				"/>
			</g>
			<g>
				<polygon class="st5" points="347.51,128.48 348.94,132.13 322.64,139.78 321.21,136.13 				"/>
			</g>
			<g>
				<path class="st9" d="M365.54,157.75l20.99,52.85l-21.2,6.17l-0.44,0.13L343.9,223l-0.44,0.13l-20.98,6.1l-0.44,0.13l-20.98,6.1
					l-9.29-23.04c0,0,0.09,0.02,0.27,0.06c0.76,0.14,3.06,0.46,5.74-0.32c2.99-0.87,6.45-3.1,8.83-8.44
					c0.94-2.11,1.93-4.17,2.99-6.08c0.1-0.17,0.19-0.35,0.29-0.52c2.85-4.99,6.23-8.92,10.62-10.19c2.61-0.76,5.57-0.58,8.98,0.87
					c0.35,0.15,0.54,0.23,0.73,0.31c5.88,2.45,10.3,3.61,13.94,2.55c2.91-0.85,5.32-3.12,7.58-7.3c0.09-0.18,0.19-0.35,0.28-0.54
					c0.11-0.21,0.22-0.43,0.33-0.65C357.64,171.42,353.07,161.5,365.54,157.75z"/>
			</g>
			<g>
				<path class="st6" d="M364.38,153.54l22.37,56.99l-0.44,0.13l0.22-0.06l-20.77-52.92c-0.07,0.02-0.15,0.04-0.22,0.06l-1.6-4.08
					L364.38,153.54z"/>
			</g>
			<g>
				<path class="st0" d="M283.31,152.6c-8.86-1.37-16.68-7.6-19.96-15.94c-4.67-11.89,1.13-24.34,12.92-27.77
					c11.78-3.43,25.16,3.45,29.83,15.33c3.27,8.34,1.45,17.38-4.63,23.1l-3.51-8.95c-1.99-5.06-7.65-7.98-12.67-6.52
					s-7.47,6.74-5.49,11.8L283.31,152.6z M280.47,119.48c-2.76,0.8-4.12,3.71-3.03,6.51c1.09,2.79,4.23,4.4,6.99,3.59
					c2.77-0.81,4.12-3.72,3.03-6.51C286.37,120.28,283.24,118.67,280.47,119.48"/>
			</g>
			<g>
				<path class="st4" d="M280.47,119.48c2.77-0.81,5.9,0.8,6.99,3.59c1.09,2.79-0.26,5.7-3.03,6.51c-2.76,0.8-5.9-0.81-6.99-3.59
					C276.35,123.19,277.71,120.28,280.47,119.48z"/>
			</g>
			<g>
				<path class="st4" d="M275.79,107.68c12.44-3.62,26.57,3.64,31.5,16.19c3.5,8.91,1.48,18.55-5.11,24.58
					c-2.41,2.2-5.28,3.8-8.53,4.74c-3.26,0.95-6.66,1.17-10.13,0.69c-9.49-1.35-17.87-7.97-21.37-16.88
					C257.23,124.45,263.35,111.3,275.79,107.68z M301.46,147.32c6.09-5.72,7.91-14.76,4.63-23.1
					c-4.67-11.89-18.05-18.76-29.83-15.33c-11.79,3.43-17.59,15.88-12.92,27.77c3.27,8.34,11.1,14.57,19.96,15.94
					c0.1,0.01,0.19,0.03,0.29,0.04c3.28,0.46,6.5,0.24,9.59-0.66c3.08-0.9,5.8-2.4,8.08-4.48
					C301.33,147.44,301.4,147.38,301.46,147.32"/>
			</g>
		</g>
		<g>
			<path class="st13" d="M241.88,99.19c-4.21,2.6-5.98,7.91-3.97,13.03l55.04,140.21c1.87,4.76,6.46,7.94,11.26,8.26
				c-5.67,0.93-11.69-2.5-13.9-8.13l-54.68-139.29C233.28,107.31,236.08,101.08,241.88,99.19z"/>
		</g>
		<g>
			<path class="st6" d="M321.53,166.01l8.68,22.11c-0.19-0.08-0.39-0.16-0.58-0.24l-8.53-21.74L321.53,166.01z"/>
		</g>
		<g>
			<path class="st6" d="M342.95,159.77l9.05,23.06c-0.09,0.18-0.19,0.36-0.28,0.54l-9.21-23.47L342.95,159.77z"/>
		</g>
		<g>
			<polygon class="st6" points="326.01,159.42 326.82,161.49 320.26,163.4 319.45,161.33 			"/>
		</g>
	</g>
</g>
<g>
</g>
<g>
</g>
<g>
</g>
<g>
</g>
<g>
</g>
<g>
</g>
<g>
</g>
<g>
</g>
<g>
</g>
<g>
</g>
<g>
</g>
<g>
</g>
<g>
</g>
<g>
</g>
<g>
</g>
</svg>
