<?xml version="1.0" encoding="utf-8"?>
<!-- Generator: Adobe Illustrator 24.0.3, SVG Export Plug-In . SVG Version: 6.00 Build 0)  -->
<svg version="1.1" id="Слой_1" xmlns="http://www.w3.org/2000/svg" xmlns:xlink="http://www.w3.org/1999/xlink" x="0px" y="0px"
	 viewBox="0 0 353.32 284.85" style="enable-background:new 0 0 353.32 284.85;" xml:space="preserve">
<style type="text/css">
	.st0{fill:#E6E7E8;}
	.st1{fill:#BABCBE;}
	.st2{fill:#CDCFD0;}
	.st3{fill:#231F20;}
	.st4{fill:#6F7173;}
	.st5{fill:#8A8C8E;}
	.st6{fill:#3788CC;}
	.st7{fill:#E2F3FE;}
	.st8{fill:#9D9FA2;}
	.st9{fill:#FFFFFF;}
	.st10{fill:#E5312D;}
	.st11{fill:#D6D6D6;}
	.st12{fill:url(#SVGID_1_);}
	.st13{fill:#C5CCD1;}
</style>
<g>
	<path class="st0" d="M177.14,284.85H11.49C5.14,284.85,0,279.7,0,273.35V128.98c0-6.35,5.14-11.49,11.49-11.49h165.65
		c6.35,0,11.49,5.14,11.49,11.49v144.38C188.63,279.7,183.49,284.85,177.14,284.85z"/>
	<g>
		<g>
			<path class="st1" d="M69.91,169.81c3.82-10.69,0.37-22.21-7.79-29.15c-1.94-1.66-4.16-3.05-6.6-4.12
				c-0.54-0.23-1.09-0.45-1.65-0.65c-5.65-2.02-11.53-2.01-16.84-0.34c-7.67,2.4-14.16,8.24-17.08,16.39
				c-0.96,2.69-1.46,5.43-1.54,8.14c-0.34,11.19,6.49,21.8,17.59,25.78C49.79,190.79,64.97,183.61,69.91,169.81z M38.22,179.61
				c-8.33-2.98-13.44-10.94-13.19-19.33c0.06-2.03,0.44-4.09,1.16-6.1c2.18-6.11,7.05-10.49,12.8-12.29
				c3.98-1.25,8.39-1.26,12.63,0.26c0.42,0.15,0.84,0.32,1.24,0.49c1.84,0.79,3.5,1.84,4.95,3.08c6.12,5.21,8.71,13.84,5.84,21.86
				C59.96,177.92,48.57,183.3,38.22,179.61z"/>
		</g>
		<g>
			<path class="st2" d="M38.99,141.88l-1.98-6.34c-7.67,2.4-14.16,8.24-17.08,16.39c-0.96,2.69-1.46,5.43-1.54,8.14l6.64,0.2
				c0.06-2.03,0.44-4.09,1.16-6.1C28.38,148.06,33.24,143.68,38.99,141.88z"/>
		</g>
		<g>
			<path class="st3" d="M52.86,142.63l2.65-6.09c-0.54-0.23-1.09-0.45-1.65-0.65c-5.65-2.02-11.53-2.01-16.84-0.34l1.98,6.34
				c3.98-1.25,8.39-1.26,12.63,0.26C52.04,142.29,52.46,142.46,52.86,142.63z"/>
		</g>
		<g>
			<path class="st4" d="M62.12,140.66c-1.94-1.66-4.16-3.05-6.6-4.12l-2.65,6.09c1.84,0.79,3.5,1.84,4.95,3.08L62.12,140.66z"/>
		</g>
	</g>
	<g>
		<rect x="140.81" y="199.78" class="st4" width="9.21" height="31.54"/>
	</g>
	<g>
		<rect x="127.12" y="208.63" class="st4" width="9.21" height="22.7"/>
	</g>
	<g>
		<rect x="154.09" y="185.17" class="st4" width="9.21" height="46.16"/>
	</g>
	<g>
		<polygon class="st4" points="107.52,199.03 107.35,198.03 83.05,202.01 75.17,218.81 48.97,220.58 40.48,233.1 20.45,232.6 
			20.43,233.61 41.01,234.12 49.53,221.56 75.83,219.77 83.74,202.92 		"/>
	</g>
	<path class="st3" d="M136.46,143.97h26.19c1.65,0,2.99-1.34,2.99-2.99l0,0c0-1.66-1.34-2.99-2.99-2.99h-26.19
		c-1.65,0-2.99,1.34-2.99,2.99l0,0C133.47,142.63,134.81,143.97,136.46,143.97z"/>
	<path class="st4" d="M136.46,154.41h26.19c1.65,0,2.99-1.34,2.99-2.99l0,0c0-1.65-1.34-2.99-2.99-2.99h-26.19
		c-1.65,0-2.99,1.34-2.99,2.99l0,0C133.47,153.07,134.81,154.41,136.46,154.41z"/>
	<path class="st4" d="M136.46,164.86h26.19c1.65,0,2.99-1.34,2.99-2.99l0,0c0-1.65-1.34-2.99-2.99-2.99h-26.19
		c-1.65,0-2.99,1.34-2.99,2.99l0,0C133.47,163.51,134.81,164.86,136.46,164.86z"/>
	<g>
		<polygon class="st4" points="89.06,149.14 74.08,149.14 74.08,148.57 88.82,148.57 96.71,140.68 106.36,140.68 106.36,141.26 
			96.94,141.26 		"/>
	</g>
	<g>
		<polygon class="st4" points="103.25,175.31 83.98,175.31 77.73,169.06 78.14,168.66 84.22,174.73 103.25,174.73 		"/>
	</g>
	<rect x="98.13" y="144.49" class="st3" width="19.98" height="2.45"/>
	<rect x="92.04" y="169.49" class="st3" width="16.08" height="2.45"/>
</g>
<g>
	<path class="st0" d="M304.42,253.39h-100.3c-4.62,0-8.36-3.74-8.36-8.36V125.85c0-4.62,3.74-8.36,8.36-8.36h100.3
		c4.62,0,8.36,3.74,8.36,8.36v119.18C312.78,249.65,309.04,253.39,304.42,253.39z"/>
</g>
<g>
	<g>
		<g>
			<path class="st1" d="M266.8,173.86c-4.48-12.52-16.44-20.21-29.05-19.83c-3.05,0.09-6.14,0.66-9.18,1.74
				c-9.18,3.29-15.77,10.6-18.48,19.25c-1.88,5.99-1.89,12.62,0.39,18.98c0.23,0.63,0.47,1.26,0.74,1.86
				c1.2,2.76,2.77,5.25,4.64,7.44c7.83,9.2,20.81,13.09,32.86,8.78C264.27,206.53,272.37,189.41,266.8,173.86z M246.2,205.04
				c-9.03,3.23-18.77,0.32-24.63-6.58c-1.4-1.64-2.58-3.52-3.47-5.58c-0.2-0.46-0.38-0.92-0.55-1.4c-1.71-4.77-1.7-9.74-0.29-14.23
				c2.03-6.48,6.97-11.97,13.85-14.43c2.27-0.81,4.59-1.24,6.88-1.3c9.45-0.29,18.42,5.48,21.78,14.87
				C263.93,188.04,257.86,200.87,246.2,205.04z"/>
		</g>
	</g>
	<g>
		<g>
			<path class="st3" d="M217.24,177.25l-7.14-2.23c2.71-8.64,9.29-15.96,18.48-19.25c3.03-1.08,6.12-1.65,9.18-1.74l0.22,7.48
				c-2.29,0.07-4.61,0.49-6.88,1.3C224.21,165.28,219.27,170.77,217.24,177.25z"/>
		</g>
	</g>
	<g>
		<g>
			<path class="st2" d="M218.09,192.88l-6.86,2.99c-0.26-0.61-0.51-1.23-0.74-1.86c-2.28-6.37-2.26-12.99-0.39-18.98l7.14,2.23
				c-1.41,4.49-1.42,9.46,0.29,14.23C217.71,191.95,217.89,192.42,218.09,192.88z"/>
		</g>
	</g>
</g>
<g>
	<g>
		<g>
			<path class="st1" d="M292.73,192.13c-4.97-2.35-10.72-1.1-14.3,2.7c-0.87,0.92-1.6,1.99-2.17,3.19
				c-1.73,3.65-1.51,7.71,0.22,11.04c1.2,2.3,3.14,4.24,5.67,5.44c0.25,0.12,0.51,0.23,0.76,0.33c1.16,0.46,2.35,0.73,3.53,0.82
				c4.98,0.4,9.92-2.26,12.18-7.04C301.55,202.42,298.91,195.05,292.73,192.13z M295.82,207.27c-1.7,3.59-5.4,5.58-9.13,5.28
				c-0.89-0.07-1.78-0.27-2.65-0.62c-0.19-0.07-0.38-0.16-0.57-0.25c-1.9-0.9-3.35-2.35-4.25-4.08c-1.3-2.49-1.46-5.54-0.17-8.27
				c0.43-0.9,0.98-1.7,1.63-2.39c2.68-2.85,6.99-3.79,10.72-2.02C296.04,197.12,298.02,202.64,295.82,207.27z"/>
		</g>
	</g>
	<g>
		<g>
			<path class="st3" d="M279.23,207.61l-2.74,1.44c-1.74-3.32-1.95-7.39-0.22-11.04c0.57-1.2,1.31-2.27,2.17-3.19l2.25,2.12
				c-0.65,0.69-1.2,1.49-1.63,2.39C277.76,202.08,277.92,205.12,279.23,207.61z"/>
		</g>
	</g>
	<g>
		<g>
			<path class="st5" d="M284.05,211.94l-1.13,2.88c-0.25-0.1-0.51-0.21-0.76-0.33c-2.53-1.2-4.46-3.14-5.67-5.44l2.74-1.44
				c0.9,1.72,2.35,3.18,4.25,4.08C283.66,211.78,283.85,211.86,284.05,211.94z"/>
		</g>
	</g>
</g>
<g>
	<g>
		<g>
			<path class="st1" d="M298.62,170.93c2.35-4.97,1.1-10.72-2.7-14.3c-0.92-0.87-1.99-1.6-3.19-2.17
				c-3.65-1.72-7.71-1.51-11.03,0.22c-2.3,1.2-4.24,3.14-5.44,5.67c-0.12,0.25-0.23,0.51-0.33,0.76c-0.46,1.16-0.73,2.35-0.82,3.53
				c-0.4,4.98,2.26,9.91,7.04,12.18C288.33,179.74,295.7,177.11,298.62,170.93z M283.48,174.02c-3.59-1.7-5.58-5.4-5.28-9.13
				c0.07-0.89,0.27-1.78,0.62-2.65c0.08-0.19,0.16-0.38,0.25-0.57c0.9-1.89,2.35-3.35,4.08-4.25c2.49-1.3,5.54-1.46,8.27-0.17
				c0.9,0.43,1.71,0.98,2.39,1.63c2.85,2.68,3.79,6.99,2.02,10.72C293.63,174.23,288.1,176.21,283.48,174.02z"/>
		</g>
	</g>
	<g>
		<g>
			<path class="st4" d="M283.14,157.42l-1.44-2.74c3.32-1.74,7.39-1.95,11.03-0.22c1.2,0.57,2.27,1.31,3.19,2.17l-2.12,2.25
				c-0.69-0.65-1.49-1.2-2.39-1.63C288.67,155.96,285.63,156.12,283.14,157.42z"/>
		</g>
	</g>
	<g>
		<g>
			<path class="st5" d="M278.81,162.24l-2.88-1.13c0.1-0.25,0.21-0.51,0.33-0.76c1.2-2.53,3.14-4.46,5.44-5.67l1.44,2.74
				c-1.72,0.9-3.18,2.35-4.08,4.25C278.97,161.86,278.89,162.05,278.81,162.24z"/>
		</g>
	</g>
	<g>
		<g>
			<path class="st6" d="M275.11,164.64c0.1-1.19,0.37-2.38,0.82-3.53l2.88,1.13c-0.34,0.87-0.54,1.76-0.62,2.65L275.11,164.64z"/>
		</g>
	</g>
</g>
<g>
	<polygon class="st7" points="283.64,223.79 260.54,223.79 260.54,223.33 283.18,223.33 283.18,214.61 283.64,214.61 	"/>
</g>
<g>
	<polygon class="st7" points="240.14,223.79 210.1,223.79 210.1,223.33 239.68,223.33 239.68,209.05 240.14,209.05 	"/>
</g>
<g>
	<rect x="210.1" y="218.56" class="st4" width="20.67" height="2.75"/>
</g>
<g>
	<rect x="260.54" y="218.56" class="st4" width="12.16" height="2.75"/>
</g>
<g>
	<rect x="205.42" y="129.15" class="st4" width="9.89" height="2.11"/>
</g>
<g>
	<rect x="246.66" y="137.11" class="st4" width="15.35" height="2.12"/>
</g>
<g>
	<rect x="226.81" y="137.11" class="st4" width="9.37" height="2.12"/>
</g>
<g>
	<rect x="205.42" y="137.11" class="st4" width="18.57" height="2.12"/>
</g>
<g>
	<rect x="218.32" y="129.15" class="st4" width="14.66" height="2.11"/>
</g>
<g>
	<rect x="239.12" y="137.11" class="st4" width="4.03" height="2.12"/>
</g>
<g>
	<rect x="251.06" y="129.27" class="st4" width="10.95" height="2.12"/>
</g>
<g>
	<rect x="265.92" y="137.11" class="st4" width="9.34" height="2.12"/>
</g>
<g>
	<rect x="236.59" y="129.27" class="st4" width="11.61" height="2.12"/>
</g>
<path class="st0" d="M337.83,111.45H68.63c-8.55,0-15.49-6.93-15.49-15.49V15.49C53.14,6.93,60.08,0,68.63,0h269.2
	c8.55,0,15.49,6.93,15.49,15.49v80.47C353.32,104.51,346.38,111.45,337.83,111.45z"/>
<rect x="291.03" y="31.99" class="st8" width="36.69" height="3.68"/>
<rect x="291.03" y="43.39" class="st8" width="42.16" height="3.68"/>
<rect x="290.97" y="54.72" class="st8" width="21.81" height="3.68"/>
<rect x="290.97" y="66.05" class="st8" width="33.61" height="3.68"/>
<rect x="20.64" y="263.88" class="st9" width="112.54" height="3.76"/>
<rect x="20.64" y="246.31" class="st10" width="83.58" height="3.76"/>
<rect x="20.64" y="255.1" class="st10" width="90.31" height="3.76"/>
<rect x="20.64" y="263.88" class="st10" width="58.6" height="3.76"/>
<rect x="92.31" y="101.21" class="st11" width="32.7" height="4.03"/>
<rect x="84.38" y="94.04" class="st11" width="48.56" height="4.03"/>
<path class="st10" d="M117.18,38.74c0,4.66-3.78,8.44-8.44,8.44c-4.66,0-8.44-3.78-8.44-8.44c0-4.66,3.78-8.44,8.44-8.44
	C113.4,30.3,117.18,34.08,117.18,38.74z"/>
<path class="st10" d="M123.96,66.26v16.05c-4.66,2.12-9.85,3.3-15.3,3.3c-5.46,0-10.64-1.18-15.3-3.3V66.26
	c0-8.45,6.85-15.3,15.3-15.3C117.11,50.96,123.96,57.81,123.96,66.26z"/>
<rect x="161.49" y="26.25" class="st9" width="78.64" height="5.07"/>
<rect x="248.58" y="26.25" class="st9" width="30.56" height="5.07"/>
<rect x="161.49" y="14.71" class="st9" width="36.93" height="5.07"/>
<g>
	<linearGradient id="SVGID_1_" gradientUnits="userSpaceOnUse" x1="108.6606" y1="22.356" x2="108.6606" y2="101.4942">
		<stop  offset="0" style="stop-color:#D3DAE0"/>
		<stop  offset="1" style="stop-color:#FFFFFF"/>
	</linearGradient>
	<path class="st12" d="M108.66,86.62c-5.49,0-10.77-1.14-15.72-3.39c-13.55-6.16-22.31-19.76-22.31-34.64
		c0-20.97,17.06-38.03,38.03-38.03c20.97,0,38.03,17.06,38.03,38.03c0,14.88-8.76,28.48-22.31,34.64
		C119.43,85.48,114.14,86.62,108.66,86.62z M108.66,12.56c-19.86,0-36.03,16.16-36.03,36.03c0,14.1,8.3,26.98,21.14,32.81
		c4.68,2.13,9.69,3.21,14.89,3.21c5.2,0,10.21-1.08,14.89-3.21c12.84-5.83,21.14-18.72,21.14-32.81
		C144.69,28.73,128.52,12.56,108.66,12.56z"/>
</g>
<g>
	<path class="st9" d="M263.48,266.16h-18.41c-3.08,0-5.58-2.5-5.58-5.58v-18.41c0-3.08,2.5-5.58,5.58-5.58h18.41
		c3.08,0,5.58,2.5,5.58,5.58v18.41C269.06,263.66,266.56,266.16,263.48,266.16z"/>
	<rect x="252.88" y="245.49" class="st13" width="2.8" height="11.76"/>
	
		<rect x="252.88" y="245.49" transform="matrix(-1.836970e-16 1 -1 -1.836970e-16 505.6494 -2.8994)" class="st13" width="2.8" height="11.76"/>
</g>
<g>
	<g>
		<rect x="167.08" y="40.93" class="st3" width="2.01" height="48.69"/>
	</g>
	<g>
		<rect x="176.31" y="40.93" class="st3" width="2.01" height="48.69"/>
	</g>
	<g>
		<rect x="185.54" y="40.93" class="st3" width="2.01" height="48.69"/>
	</g>
	<g>
		<rect x="194.76" y="40.93" class="st3" width="2.01" height="48.69"/>
	</g>
	<g>
		<rect x="203.99" y="40.93" class="st3" width="2.01" height="48.69"/>
	</g>
	<g>
		<rect x="213.21" y="40.93" class="st3" width="2.01" height="48.69"/>
	</g>
	<g>
		<rect x="222.44" y="40.93" class="st3" width="2.01" height="48.69"/>
	</g>
	<g>
		<rect x="231.67" y="40.93" class="st3" width="2.01" height="48.69"/>
	</g>
	<g>
		<rect x="240.89" y="40.93" class="st3" width="2.01" height="48.69"/>
	</g>
	<g>
		<rect x="250.12" y="40.93" class="st3" width="2.01" height="48.69"/>
	</g>
	<g>
		<rect x="259.35" y="40.93" class="st3" width="2.01" height="48.69"/>
	</g>
	<g>
		<rect x="268.57" y="40.93" class="st3" width="2.01" height="48.69"/>
	</g>
</g>
<g>
	<g>
		<rect x="167.08" y="55.49" class="st10" width="2.01" height="34.13"/>
	</g>
	<g>
		<rect x="176.31" y="67.28" class="st10" width="2.01" height="22.34"/>
	</g>
	<g>
		<rect x="185.54" y="47.96" class="st10" width="2.01" height="41.66"/>
	</g>
	<g>
		<rect x="194.76" y="77.49" class="st10" width="2.01" height="12.13"/>
	</g>
	<g>
		<rect x="203.99" y="65.27" class="st10" width="2.01" height="24.35"/>
	</g>
	<g>
		<rect x="213.21" y="56.16" class="st10" width="2.01" height="33.46"/>
	</g>
	<g>
		<rect x="222.44" y="68.03" class="st10" width="2.01" height="21.58"/>
	</g>
	<g>
		<rect x="231.67" y="53.06" class="st10" width="2.01" height="36.56"/>
	</g>
	<g>
		<rect x="240.89" y="69.54" class="st10" width="2.01" height="20.08"/>
	</g>
	<g>
		<rect x="250.12" y="57.49" class="st10" width="2.01" height="32.13"/>
	</g>
	<g>
		<rect x="259.35" y="73.56" class="st10" width="2.01" height="16.06"/>
	</g>
	<g>
		<rect x="268.57" y="57.49" class="st10" width="2.01" height="32.13"/>
	</g>
</g>
</svg>
