<?xml version="1.0" encoding="utf-8"?>
<!-- Generator: Adobe Illustrator 24.0.3, SVG Export Plug-In . SVG Version: 6.00 Build 0)  -->
<svg version="1.1" id="Слой_1" xmlns="http://www.w3.org/2000/svg" xmlns:xlink="http://www.w3.org/1999/xlink" x="0px" y="0px"
	 viewBox="0 0 204.78 330.99" style="enable-background:new 0 0 204.78 330.99;" xml:space="preserve">
<style type="text/css">
	.st0{fill:#E6E6E6;}
	.st1{fill:#B5B5B5;}
	.st2{fill:#9E1D18;}
	.st3{fill:none;}
	.st4{fill:#D1D3D4;}
	.st5{fill:#FFFFFF;}
	.st6{fill:#CCCCCC;}
	.st7{fill:#9FA1A4;}
	.st8{fill:#E6E7E8;}
	.st9{fill:#787878;}
	.st10{fill:#C9BAB3;}
	.st11{fill:#231F20;}
	.st12{fill:#C2C4C6;}
	.st13{fill:#D8D9DA;}
</style>
<path class="st0" d="M76.52,288.94c0-9.67-0.06-19.33,0.03-29c0.04-4.39-1.6-7.79-4.83-10.72c-20.66-18.72-41.25-37.51-61.88-56.27
	c-4.3-3.91-7.5-8.5-8.73-14.25c-0.43-2.02-0.72-4.1-0.74-6.16c-0.08-8.95,0-17.89-0.06-26.84c-0.02-3.07,1.07-5.59,3.16-7.76
	c2.36-2.45,5.24-4.17,8.27-5.63c6.73-3.23,13.87-5.21,21.14-6.75c11.89-2.51,23.92-3.96,36.03-4.89c12.75-0.98,25.52-1.44,38.3-1.26
	c15.98,0.22,31.92,1.15,47.76,3.37c10.59,1.49,21.14,3.29,31.2,7.1c3.34,1.27,6.58,2.86,9.71,4.59c1.78,0.99,3.35,2.44,4.82,3.89
	c1.88,1.86,2.81,4.21,2.81,6.91c-0.02,9.27,0.09,18.53-0.03,27.8c-0.1,7.37-2.84,13.69-8.27,18.74c-10.75,10.02-21.54,20-32.32,30
	c-10.25,9.51-20.49,19.03-30.74,28.53c-2.15,1.99-3.93,4.22-4.52,7.17c-0.22,1.09-0.31,2.21-0.31,3.32
	c-0.02,11.58-0.07,23.17,0.02,34.75c0.03,3.88-0.89,7.43-2.83,10.73c-1.09,1.85-2.26,3.69-3.62,5.35
	c-6.28,7.67-13.91,13.58-23.15,17.32c-2.68,1.08-5.45,1.78-8.35,1.97c-7.34,0.49-12.29-3.77-12.85-11.1
	c-0.07-0.87-0.05-1.76-0.05-2.63C76.52,307.79,76.52,298.37,76.52,288.94C76.52,288.94,76.52,288.94,76.52,288.94z"/>
<path class="st1" d="M0.31,144.37c0-14.89,45.46-24.89,101.54-24.89s101.54,10.01,101.54,24.89S158.14,169,102.06,169
	S0.31,159.26,0.31,144.37z"/>
<path class="st2" d="M138.34,129.43c-9.09-0.82-18.21-1.3-27.34-1.45c-16.53-0.27-33.04,0.15-49.51,1.84
	c-11.12,1.14-22.16,2.75-33.02,5.44c-4.8,1.19-9.58,2.47-14.06,4.62c-1.43,0.69-2.85,1.48-4.08,2.46c-1.96,1.56-2.01,3.23-0.14,4.81
	c1.14,0.96,2.46,1.82,3.83,2.39c3.02,1.24,6.07,2.44,9.2,3.36c15.24,4.46,30.89,6.52,46.67,7.61c10.67,0.74,21.36,1,32.05,1.48
	c15.27-0.27,30.49-1,45.66-2.77c0.61-0.07,1.23-0.15,1.84-0.22l-19.7-7.78L138.34,129.43z"/>
<path class="st2" d="M177.21,153.82c4.37-1.21,8.63-2.81,12.87-4.41c1.38-0.52,2.66-1.48,3.77-2.48c1.58-1.4,1.55-2.88-0.04-4.31
	c-0.99-0.9-2.14-1.71-3.36-2.24c-2.36-1.02-4.74-2.01-7.17-2.83l-6.46,16.37C176.95,153.88,177.08,153.85,177.21,153.82z"/>
<path class="st3" d="M194.97,157.94c0-0.62-0.08-1.23-0.12-1.89c-2.67,1.18-5.18,2.41-7.78,3.4c-2.6,0.99-5.27,1.84-7.96,2.58
	c-10.8,2.98-21.83,4.63-32.95,5.86c-11.84,1.31-23.7,2.03-35.6,2.23c-19.26,0.34-38.48-0.38-57.61-2.78
	c-7.92-0.99-15.8-2.24-23.57-4.08c-7-1.65-13.83-3.8-20.44-7.39c0,6.61,0,12.83,0.01,19.05c0,0.39,0.11,0.79,0.18,1.18
	c0.84,4.44,3.33,7.85,6.61,10.82c20.51,18.64,40.95,37.35,61.51,55.93c5.35,4.83,7.84,10.63,7.81,17.77
	c-0.07,18.69-0.03,37.38-0.02,56.07c0,0.96-0.02,1.92,0.08,2.87c0.22,2.19,1.26,3.22,3.47,2.99c1.88-0.19,3.78-0.63,5.56-1.27
	c5.86-2.12,10.91-5.6,15.56-9.68c2.53-2.22,4.8-4.68,6.65-7.51c1.66-2.54,2.51-5.24,2.48-8.33c-0.09-11.42,0.01-22.84-0.06-34.26
	c-0.04-6.69,2.28-12.31,7.16-16.87c0.64-0.6,1.28-1.21,1.92-1.8c20.37-18.9,40.74-37.82,61.14-56.69c3.98-3.68,6.04-8.12,5.99-13.56
	C194.94,167.68,194.98,162.81,194.97,157.94z"/>
<path class="st3" d="M194.97,157.94c0-0.62-0.08-1.23-0.12-1.89c-2.67,1.18-5.18,2.41-7.78,3.4c-2.6,0.99-5.27,1.84-7.96,2.58
	c-10.8,2.98-21.83,4.63-32.95,5.86c-11.84,1.31-23.7,2.03-35.6,2.23c-19.26,0.34-38.48-0.38-57.61-2.78
	c-7.92-0.99-15.8-2.24-23.57-4.08c-7-1.65-13.83-3.8-20.44-7.39c0,6.61,0,12.83,0.01,19.05c0,0.39,0.11,0.79,0.18,1.18
	c0.84,4.44,3.33,7.85,6.61,10.82c20.51,18.64,40.95,37.35,61.51,55.93c5.35,4.83,7.84,10.63,7.81,17.77
	c-0.07,18.69-0.03,37.38-0.02,56.07c0,0.96-0.02,1.92,0.08,2.87c0.22,2.19,1.26,3.22,3.47,2.99c1.88-0.19,3.78-0.63,5.56-1.27
	c5.86-2.12,10.91-5.6,15.56-9.68c2.53-2.22,4.8-4.68,6.65-7.51c1.66-2.54,2.51-5.24,2.48-8.33c-0.09-11.42,0.01-22.84-0.06-34.26
	c-0.04-6.69,2.28-12.31,7.16-16.87c0.64-0.6,1.28-1.21,1.92-1.8c20.37-18.9,40.74-37.82,61.14-56.69c3.98-3.68,6.04-8.12,5.99-13.56
	C194.94,167.68,194.98,162.81,194.97,157.94z"/>
<path class="st3" d="M14.41,139.88c-1.43,0.69-2.85,1.48-4.08,2.46c-1.96,1.56-2.01,3.23-0.14,4.81c1.14,0.96,2.46,1.82,3.83,2.39
	c3.02,1.24,6.07,2.44,9.2,3.36c7.53,2.2,15.16,3.82,22.86,5.02l-22.2-21.46C20.65,137.35,17.46,138.41,14.41,139.88z"/>
<path class="st4" d="M23.58,128.24c-1.23,1.27-1.19,3.29,0.08,4.51l3.05,2.95c-0.94,0.24-1.88,0.49-2.81,0.75l22.2,21.46
	c5.4,0.85,10.84,1.48,16.3,1.98l11.14-11.52c1.31-1.36,1.28-3.52-0.08-4.83l-33.78-32.67c-1.36-1.31-3.52-1.28-4.83,0.08
	l-15.65,16.19c-0.67,0.69-0.98,1.59-0.95,2.48c1.92-0.69,3.87-1.32,5.83-1.88L23.58,128.24z"/>
<path class="st4" d="M23.89,136.45c0.93-0.26,1.87-0.51,2.81-0.75l-3.05-2.95c-1.27-1.23-1.3-3.25-0.08-4.51l0.48-0.49
	c-1.96,0.56-3.91,1.19-5.83,1.88c0.03,0.86,0.37,1.71,1.04,2.35L23.89,136.45z"/>
<path class="st5" d="M66.12,139.93l-9.86-9.54l-7.79-7.53l-7.88-7.62c-1.27-1.23-3.29-1.19-4.51,0.08l-12.02,12.43l-0.48,0.49
	c-1.23,1.27-1.19,3.29,0.08,4.51l3.05,2.95l22.49,21.74c1.27,1.23,3.29,1.19,4.51-0.08l12.49-12.92
	C67.42,143.18,67.39,141.16,66.12,139.93z"/>
<path class="st6" d="M166.16,64.94c-0.31-0.69-0.13-1.36-0.09-2.03c0.07-1.14,0.17-2.29,0.25-3.43c0.03-0.41,0.11-0.8,0.34-1.14
	c0.46-0.67,1.1-0.99,1.91-0.93c2.47,0.18,4.93,0.37,7.4,0.55c3.09,0.23,6.17,0.47,9.26,0.7c4.15,0.31,8.29,0.63,12.44,0.94
	c1.65,0.12,3.31,0.26,4.96,0.37c0.64,0.04,1.19,0.23,1.62,0.72c0.39,0.43,0.57,0.94,0.53,1.52c-0.11,1.54-0.22,3.09-0.35,4.63
	c-0.12,1.44-1.3,2.05-2.31,1.97c-4.59-0.36-9.17-0.7-13.76-1.04c-4.45-0.33-8.9-0.67-13.35-1c-0.1-0.01-0.21,0.01-0.32,0.05
	c4.25,1.25,8.49,2.51,12.74,3.76c4.37,1.29,8.73,2.58,13.09,3.87c0.29,0.09,0.59,0.19,0.83,0.36c0.69,0.47,0.98,1.14,0.87,1.97
	c-0.03,0.25-0.1,0.49-0.17,0.73c-2.17,7.34-4.33,14.67-6.5,22.01c-0.14,0.47-0.34,0.9-0.74,1.22c-0.54,0.43-1.16,0.56-1.83,0.41
	c-0.12-0.03-0.24-0.07-0.36-0.1c-10.8-3.19-21.6-6.38-32.4-9.57c-0.19-0.05-0.38-0.1-0.55-0.18c-1-0.46-1.45-1.47-1.13-2.56
	c0.41-1.41,0.83-2.81,1.24-4.22c1.78-6.02,3.56-12.05,5.33-18.07C165.29,65.81,165.58,65.3,166.16,64.94z M191.84,60.59
	c-0.67,0.96-1.33,1.9-1.98,2.84c-0.65,0.94-1.34,1.87-1.99,2.88c2.3,0.17,4.52,0.34,6.75,0.51c1.32-1.91,2.65-3.78,3.97-5.71
	C196.31,60.92,194.09,60.76,191.84,60.59z M183.69,59.97c-1.33,1.91-2.63,3.77-3.98,5.72c2.24,0.17,4.38,0.33,6.5,0.49
	c1.33-1.91,2.63-3.77,3.99-5.71C187.98,60.28,185.84,60.13,183.69,59.97z M178.06,65.56c1.32-1.91,2.65-3.78,3.98-5.72
	c-2.04-0.16-4.01-0.3-5.96-0.45c-0.41,0.45-3.86,5.43-3.95,5.72C174.09,65.26,176.06,65.41,178.06,65.56z M196.29,66.9
	c0.14,0.03,0.23,0.05,0.33,0.06c1.18,0.09,2.36,0.18,3.55,0.27c0.69,0.05,1.37,0.11,2.06,0.15c0.49,0.03,0.71-0.16,0.78-0.65
	c0.01-0.05,0.01-0.11,0.02-0.16c0.07-0.89,0.14-1.79,0.2-2.68c0.04-0.59,0.09-1.18,0.12-1.77c0.02-0.44-0.19-0.65-0.63-0.69
	c-0.18-0.02-0.36-0.03-0.54-0.05c-0.64-0.05-1.29-0.09-1.93-0.14C198.93,63.12,197.62,64.99,196.29,66.9z M174.36,59.29
	c-0.14-0.03-0.2-0.04-0.27-0.05c-1.31-0.1-2.61-0.2-3.92-0.3c-0.56-0.04-1.13-0.09-1.69-0.12c-0.43-0.02-0.64,0.16-0.72,0.58
	c-0.02,0.09-0.03,0.19-0.03,0.29c-0.07,0.87-0.13,1.73-0.19,2.6c-0.04,0.59-0.1,1.18-0.13,1.77c-0.02,0.46,0.19,0.68,0.65,0.74
	c0.18,0.02,0.36,0.03,0.54,0.05c0.62,0.05,1.23,0.09,1.81,0.13C171.72,63.08,173.02,61.21,174.36,59.29z M187.47,72.08
	c-2.31-0.68-4.54-1.34-6.81-2.01c-1.13,1.02-2.3,2.02-3.47,3.09c2.31,0.68,4.54,1.34,6.8,2.01
	C185.14,74.15,186.28,73.13,187.47,72.08z M169.42,70.85c2.09,0.62,4.13,1.22,6.17,1.82c1.16-1.02,2.3-2.04,3.47-3.08
	c-2.09-0.62-4.12-1.22-6.16-1.82C171.74,68.8,170.59,69.81,169.42,70.85z M189.08,72.55c-1.15,1.02-2.29,2.03-3.48,3.09
	c2.1,0.62,4.12,1.22,6.14,1.81c0.65-0.48,3.26-2.84,3.43-3.1C193.15,73.75,191.14,73.15,189.08,72.55z M199.84,79.84
	c0.05-0.12,0.08-0.19,0.1-0.27c0.27-0.93,0.53-1.86,0.83-2.78c0.15-0.48-0.04-0.83-0.53-0.97c-1.01-0.27-2.02-0.59-3.02-0.89
	c-0.12-0.03-0.24-0.06-0.37-0.09c-1.15,1.02-2.29,2.03-3.48,3.08C195.55,78.57,197.68,79.2,199.84,79.84z M167.81,70.39
	c1.15-1.02,2.3-2.03,3.49-3.1c-1.39-0.41-2.69-0.8-4.01-1.18c-0.27-0.08-0.49,0.04-0.63,0.28c-0.06,0.1-0.11,0.22-0.14,0.34
	c-0.27,0.9-0.54,1.8-0.8,2.7c-0.03,0.1-0.04,0.21-0.06,0.32C166.38,69.97,167.08,70.17,167.81,70.39z"/>
<path class="st5" d="M174.69,84.08c0.5-1.68,0.99-3.37,1.49-5.05c0.03-0.11,0.06-0.21,0.1-0.32c0.2-0.51,0.79-0.64,1.18-0.26
	c0.09,0.09,0.16,0.19,0.24,0.29c1.88,2.39,3.77,4.78,5.65,7.16c0.07,0.09,0.14,0.17,0.2,0.27c0.19,0.34,0.08,0.74-0.25,0.94
	c-0.11,0.06-0.23,0.1-0.34,0.14c-2.9,0.99-5.81,1.98-8.71,2.97c-0.33,0.11-0.64,0.2-0.93-0.08c-0.29-0.29-0.24-0.61-0.13-0.96
	C173.69,87.47,174.19,85.78,174.69,84.08C174.69,84.08,174.69,84.08,174.69,84.08z M174.88,88.5c2.32-0.79,4.57-1.56,6.87-2.34
	c-1.51-1.92-2.99-3.79-4.5-5.7C176.46,83.15,175.68,85.78,174.88,88.5z"/>
<g>
	<path class="st7" d="M42.63,90.34c-9.25,5.27-18.6,11.28-27.92,16.04c-1.71,0.88-3.82,0-4.71-1.89c-3.21-6.76-6.41-13.37-9.6-19.51
		c-0.89-1.7-0.23-3.8,1.47-4.77c9.25-5.27,18.6-11.28,27.92-16.04c1.71-0.88,3.82,0,4.71,1.89c3.21,6.76,6.41,13.37,9.6,19.51
		C44.98,87.27,44.32,89.36,42.63,90.34z"/>
</g>
<g>
	<g>
		<g>
			<g>
				<polygon class="st5" points="90.29,161.05 89.11,160.63 99.31,131.8 121.56,125.86 129.48,94.23 146.65,86.61 150.43,62.02 
					151.67,62.21 147.78,87.47 130.55,95.13 122.59,126.88 100.27,132.84 				"/>
			</g>
		</g>
	</g>
	<g>
		<g>
			<path class="st5" d="M124.66,124.25c1.17,1.43,0.96,3.53-0.46,4.7c-1.43,1.17-3.53,0.96-4.7-0.46c-1.17-1.43-0.96-3.53,0.46-4.7
				C121.38,122.62,123.48,122.82,124.66,124.25z"/>
		</g>
	</g>
	<g>
		<g>
			<path class="st5" d="M124.59,129.44c-1.69,1.39-4.2,1.14-5.58-0.55c-1.39-1.69-1.14-4.2,0.55-5.58c1.69-1.39,4.2-1.14,5.58,0.55
				C126.53,125.54,126.28,128.05,124.59,129.44z M120.35,124.27c-1.16,0.95-1.33,2.66-0.38,3.82c0.95,1.16,2.66,1.33,3.82,0.38
				c1.16-0.95,1.33-2.66,0.38-3.82C123.22,123.49,121.51,123.32,120.35,124.27z"/>
		</g>
	</g>
	<g>
		<g>
			<path class="st5" d="M132.69,92.75c1.17,1.43,0.96,3.53-0.46,4.7c-1.43,1.17-3.53,0.96-4.7-0.46c-1.17-1.43-0.96-3.53,0.46-4.7
				S131.52,91.32,132.69,92.75z"/>
		</g>
	</g>
	<g>
		<g>
			<path class="st5" d="M132.62,97.94c-1.69,1.39-4.2,1.14-5.58-0.55c-1.39-1.69-1.14-4.2,0.55-5.58c1.69-1.39,4.2-1.14,5.58,0.55
				C134.56,94.04,134.32,96.55,132.62,97.94z M128.38,92.77c-1.16,0.95-1.33,2.66-0.38,3.82c0.95,1.16,2.66,1.33,3.82,0.38
				c1.16-0.95,1.33-2.66,0.38-3.82C131.25,91.99,129.54,91.82,128.38,92.77z"/>
		</g>
	</g>
	<g>
		<g>
			<path class="st5" d="M149.59,84.91c1.17,1.43,0.96,3.53-0.46,4.7c-1.43,1.17-3.53,0.96-4.7-0.46c-1.17-1.43-0.96-3.53,0.46-4.7
				C146.31,83.28,148.41,83.48,149.59,84.91z"/>
		</g>
	</g>
	<g>
		<g>
			<path class="st5" d="M149.52,90.1c-1.69,1.39-4.2,1.14-5.58-0.55c-1.39-1.69-1.14-4.2,0.55-5.58c1.69-1.39,4.2-1.14,5.58,0.55
				C151.46,86.2,151.21,88.71,149.52,90.1z M145.28,84.93c-1.16,0.95-1.33,2.66-0.38,3.82c0.95,1.16,2.66,1.33,3.82,0.38
				c1.16-0.95,1.32-2.66,0.37-3.82C148.15,84.15,146.44,83.98,145.28,84.93z"/>
		</g>
	</g>
	<g>
		<g>
			<path class="st5" d="M102.49,130.49c1.17,1.43,0.96,3.53-0.46,4.7c-1.43,1.17-3.53,0.96-4.7-0.46s-0.96-3.53,0.46-4.7
				C99.22,128.85,101.32,129.06,102.49,130.49z"/>
		</g>
	</g>
	<g>
		<g>
			<path class="st5" d="M102.43,135.67c-1.69,1.39-4.2,1.14-5.58-0.55c-1.39-1.69-1.14-4.2,0.55-5.58c1.69-1.39,4.2-1.14,5.58,0.55
				C104.37,131.78,104.12,134.28,102.43,135.67z M98.19,130.51c-1.16,0.95-1.32,2.66-0.38,3.82c0.95,1.16,2.66,1.32,3.82,0.38
				c1.16-0.95,1.32-2.66,0.37-3.82C101.06,129.73,99.35,129.56,98.19,130.51z"/>
		</g>
	</g>
</g>
<g>
	<g>
		<g>
			<g>
				<g>
					
						<rect x="185.88" y="5.64" transform="matrix(0.9348 -0.3551 0.3551 0.9348 4.2933 68.2411)" class="st8" width="4.41" height="33.55"/>
				</g>
			</g>
		</g>
	</g>
	<g>
		<g>
			<g>
				<g>
					
						<rect x="178.41" y="12.38" transform="matrix(0.9349 -0.355 0.355 0.9349 2.0803 65.886)" class="st8" width="4.41" height="29.79"/>
				</g>
			</g>
		</g>
	</g>
	<g>
		<g>
			<g>
				<g>
					
						<rect x="170.43" y="20.47" transform="matrix(0.9349 -0.355 0.355 0.9349 -0.4437 63.4215)" class="st8" width="4.41" height="24.9"/>
				</g>
			</g>
		</g>
	</g>
	<g>
		<g>
			<g>
				<g>
					
						<rect x="162.44" y="29.89" transform="matrix(0.9349 -0.355 0.355 0.9349 -3.2124 60.9976)" class="st8" width="4.41" height="18.74"/>
				</g>
			</g>
		</g>
	</g>
</g>
<g>
	<path class="st9" d="M30.43,118.04l-4.32,4.47c-0.18,0.18-0.17,0.47,0.01,0.65l0,0c0.18,0.18,0.47,0.17,0.65-0.01l4.32-4.47
		c0.18-0.18,0.17-0.47-0.01-0.65l0,0C30.89,117.85,30.6,117.85,30.43,118.04z"/>
	<path class="st9" d="M63.96,152.02c0.79,0.76,0.81,2.02,0.05,2.81c-0.76,0.79-2.02,0.81-2.81,0.05c-0.79-0.76-0.81-2.02-0.05-2.81
		C61.91,151.28,63.17,151.26,63.96,152.02z"/>
</g>
<g>
	<path class="st5" d="M34.71,20.52c0,0-6.43,4.58,1.2,12.92c7.63,8.34,18.96,26.65,19.22,38.2l23.04-21.26
		c-0.25-11.54-11.6-28.49-19.14-36.91c-6.93-7.74-1.2-12.92-1.2-12.92L34.71,20.52z"/>
	<path class="st8" d="M34.71,20.52c0,0,7.22-5.96,15,4.65L70.38,6.71c0,0-3.55-8.98-12.56-6.16L34.71,20.52z"/>
	
		<rect x="45.92" y="11.51" transform="matrix(0.7456 -0.6664 0.6664 0.7456 6.3903 40.8866)" class="st10" width="21.65" height="1.13"/>
	
		<rect x="41.08" y="9.28" transform="matrix(0.7456 -0.6664 0.6664 0.7456 6.6463 37.0893)" class="st10" width="21.65" height="1.13"/>
	<g>
		
			<rect x="40.7" y="25.33" transform="matrix(0.7456 -0.6664 0.6664 0.7456 -4.1469 40.9183)" class="st11" width="21.65" height="1.13"/>
		
			<rect x="44.11" y="32.6" transform="matrix(0.7456 -0.6664 0.6664 0.7456 -8.125 45.0494)" class="st11" width="21.65" height="1.13"/>
		
			<rect x="47.53" y="39.88" transform="matrix(0.7456 -0.6664 0.6664 0.7456 -12.1036 49.1784)" class="st11" width="21.65" height="1.13"/>
		
			<rect x="50.95" y="47.15" transform="matrix(0.7456 -0.6664 0.6664 0.7456 -16.0824 53.3052)" class="st11" width="21.65" height="1.13"/>
		
			<rect x="54.37" y="54.43" transform="matrix(0.7456 -0.6664 0.6664 0.7456 -20.0609 57.4344)" class="st11" width="21.65" height="1.13"/>
	</g>
</g>
<g>
	<polygon class="st9" points="53.82,114.65 89.14,95.2 77.68,114.75 	"/>
	<polygon class="st12" points="77.68,114.75 54.73,116.83 53.82,114.65 77.38,112.11 	"/>
	<polygon class="st12" points="77.68,114.75 72.98,73.16 112.33,52.03 115.34,90.86 	"/>
	<path class="st9" d="M99.29,81.31c0.08,2.45-0.96,4.48-2.34,4.53c-1.38,0.05-2.57-1.9-2.65-4.36c-0.08-2.45,0.97-4.48,2.35-4.53
		C98.02,76.91,99.2,78.86,99.29,81.31z"/>
</g>
<path class="st5" d="M102.2,140.07c0.33-1.37,0.47-2.76,0.41-4.13l2.58-1.38l-0.92-3.04l-0.92-3.04l-2.91,0.28
	c-0.71-1.17-1.59-2.26-2.63-3.21l0.85-2.8l-2.8-1.5l-2.8-1.5l-1.86,2.25c-1.37-0.33-2.76-0.47-4.13-0.41L85.69,119l-3.04,0.92
	l-3.04,0.92l0.28,2.91c-1.17,0.71-2.26,1.59-3.21,2.63l-2.8-0.85l-1.5,2.8l-1.5,2.8l2.25,1.86c-0.33,1.37-0.47,2.76-0.41,4.13
	l-2.58,1.38l0.92,3.04l0.92,3.04l2.91-0.28c0.71,1.17,1.59,2.26,2.63,3.21l-0.85,2.8l2.8,1.5l2.8,1.5l1.86-2.25
	c1.37,0.33,2.76,0.47,4.13,0.41l1.38,2.58l3.04-0.92l3.04-0.92l-0.28-2.91c1.17-0.71,2.26-1.59,3.21-2.63l2.8,0.85l1.5-2.8l1.5-2.8
	L102.2,140.07z M83.98,143.39c-3.79-2.04-5.21-6.76-3.18-10.55c2.03-3.79,6.76-5.21,10.55-3.18c3.79,2.03,5.22,6.76,3.18,10.55
	C92.49,144,87.77,145.43,83.98,143.39z"/>
<polygon class="st5" points="13.2,80.48 20.91,95.21 30.03,81.35 "/>
<g id="ksmf3X_1_">
	<g>
		<path class="st5" d="M116.3,7.49c5.24,0.78,10.49,1.57,15.73,2.35c0.31,0.05,0.63,0.1,0.94,0.16c1.65,0.34,2.63,2.15,2.4,3.46
			c-0.28,1.59-0.48,3.19-0.72,4.78c-1,6.67-2,13.34-2.98,20.01c-0.15,1.03-0.58,1.84-1.45,2.43c-0.7,0.48-1.48,0.59-2.31,0.52
			c-0.17-0.02-0.34-0.05-0.51-0.07c-10.56-1.58-21.12-3.15-31.68-4.73c-0.41-0.06-0.82-0.16-1.2-0.3c-1.4-0.5-2.22-1.86-2.05-3.35
			c0.03-0.22,0.06-0.44,0.09-0.65c1.19-7.95,2.37-15.9,3.56-23.86c0.06-0.43,0.12-0.88,0.27-1.29c0.47-1.22,1.75-2.02,3.07-1.96
			c0.34,0.02,0.68,0.07,1.02,0.12C105.77,5.92,111.04,6.71,116.3,7.49z M111.92,36.25c5.31,0.79,10.63,1.59,15.94,2.38
			c1.05,0.16,1.26,0.01,1.42-1.02c0.02-0.14,0.04-0.29,0.07-0.43c1.02-6.84,2.04-13.67,3.06-20.51c0.16-1.04,0.32-2.08,0.46-3.12
			c0.11-0.79-0.11-1.07-0.89-1.2c-0.17-0.03-0.34-0.05-0.51-0.08c-6.33-0.94-12.66-1.89-18.99-2.83c-4.2-0.63-8.41-1.26-12.61-1.88
			c-0.89-0.13-1.14,0.05-1.28,0.94c-0.01,0.07-0.02,0.14-0.03,0.22c-1.18,7.9-2.36,15.8-3.54,23.7c-0.03,0.17-0.06,0.34-0.07,0.51
			c-0.03,0.51,0.18,0.78,0.67,0.89c0.19,0.04,0.39,0.06,0.58,0.09C101.44,34.69,106.68,35.47,111.92,36.25z"/>
		<path class="st5" d="M135.67,17.04c0.12-0.79,0.23-1.54,0.34-2.28c1.45,0.15,2.64,1.58,2.57,3.05c-0.02,0.29-0.06,0.58-0.11,0.87
			c-1.18,7.88-2.35,15.76-3.53,23.63c-0.06,0.43-0.13,0.88-0.3,1.27c-0.55,1.27-1.84,1.97-3.28,1.84c-0.22-0.02-0.44-0.06-0.65-0.09
			c-10.34-1.54-20.69-3.09-31.03-4.64c-0.48-0.07-0.96-0.19-1.41-0.36c-0.99-0.36-2.08-1.8-1.78-3.1c0.73,0.11,1.48,0.22,2.29,0.34
			c0.25,0.5,0.77,0.61,1.35,0.7c10.3,1.53,20.59,3.07,30.88,4.6c1.25,0.19,1.38,0.09,1.57-1.16c1.16-7.76,2.31-15.52,3.48-23.27
			C136.13,17.91,136.18,17.39,135.67,17.04z"/>
		<path class="st5" d="M98.09,31.36c0.19-1.29,0.38-2.54,0.56-3.73c2.48-1.84,4.93-3.65,7.45-5.53c0.87,1.17,1.78,2.39,2.74,3.69
			c4.04-2.98,8.02-5.92,11.96-8.83c2.39,3.25,4.75,6.45,7.21,9.8c-0.42,2.79-0.87,5.8-1.32,8.86
			C117.14,34.21,107.63,32.79,98.09,31.36z"/>
		<path class="st5" d="M108.25,15.55c-0.13,1.81-1.99,3.66-4.4,3.3c-2.47-0.37-3.53-2.71-3.31-4.36c0.25-1.86,2.07-3.67,4.4-3.34
			C107.41,11.5,108.62,13.83,108.25,15.55z"/>
	</g>
</g>
<path class="st3" d="M194.97,157.94c0-0.62-0.08-1.23-0.12-1.89c-2.67,1.18-5.18,2.41-7.78,3.4c-2.6,0.99-5.27,1.84-7.96,2.58
	c-10.8,2.98-21.83,4.63-32.95,5.86c-11.84,1.31-23.7,2.03-35.6,2.23c-19.26,0.34-38.48-0.38-57.61-2.78
	c-7.92-0.99-15.8-2.24-23.57-4.08c-7-1.65-13.83-3.8-20.44-7.39c0,6.61,0,12.83,0.01,19.05c0,0.39,0.11,0.79,0.18,1.18
	c0.84,4.44,3.33,7.85,6.61,10.82c20.51,18.64,40.95,37.35,61.51,55.93c5.35,4.83,7.84,10.63,7.81,17.77
	c-0.07,18.69-0.03,37.38-0.02,56.07c0,0.96-0.02,1.92,0.08,2.87c0.22,2.19,1.26,3.22,3.47,2.99c1.88-0.19,3.78-0.63,5.56-1.27
	c5.86-2.12,10.91-5.6,15.56-9.68c2.53-2.22,4.8-4.68,6.65-7.51c1.66-2.54,2.51-5.24,2.48-8.33c-0.09-11.42,0.01-22.84-0.06-34.26
	c-0.04-6.69,2.28-12.31,7.16-16.87c0.64-0.6,1.28-1.21,1.92-1.8c20.37-18.9,40.74-37.82,61.14-56.69c3.98-3.68,6.04-8.12,5.99-13.56
	C194.94,167.68,194.98,162.81,194.97,157.94z"/>
<path class="st5" d="M179.32,110.23l-28.9-11.41l-8.84,22.4l-3.24,8.22l-8.6,21.78l19.7,7.78c9.24-1.13,18.4-2.62,27.39-5.07
	l6.46-16.37l3.01-7.62l0.75-1.9L179.32,110.23z"/>
<g>
	<polygon class="st13" points="187.04,128.03 179.32,110.23 174.28,122.99 	"/>
	
		<rect x="148.3" y="127.75" transform="matrix(0.9302 0.3671 -0.3671 0.9302 58.8164 -50.6195)" class="st11" width="28.32" height="3.09"/>
	
		<rect x="144.72" y="136.84" transform="matrix(0.9302 0.3671 -0.3671 0.9302 61.9038 -48.6669)" class="st11" width="28.32" height="3.09"/>
	
		<rect x="141.13" y="145.93" transform="matrix(0.9302 0.3672 -0.3672 0.9302 64.9974 -46.7173)" class="st11" width="28.32" height="3.09"/>
</g>
</svg>
