<?xml version="1.0" encoding="utf-8"?>
<!-- Generator: Adobe Illustrator 24.0.3, SVG Export Plug-In . SVG Version: 6.00 Build 0)  -->
<svg version="1.1" id="Layer_1" xmlns="http://www.w3.org/2000/svg" xmlns:xlink="http://www.w3.org/1999/xlink" x="0px" y="0px"
	 viewBox="0 0 252.15 282.34" style="enable-background:new 0 0 252.15 282.34;" xml:space="preserve">
<style type="text/css">
	.st0{fill:url(#SVGID_1_);}
	.st1{fill:url(#SVGID_2_);}
	.st2{fill:#FFFFFF;}
	.st3{fill:#1A5A8D;}
	.st4{fill:#2274B5;}
	.st5{fill:#4994D0;}
	.st6{fill:#515EAA;}
	.st7{fill:#231F20;}
	.st8{fill:#9F88C0;}
	.st9{fill:#3A88C8;}
	.st10{fill:#C4C4C4;}
	.st11{fill:#8D9092;}
	.st12{fill:#E7322D;}
	.st13{fill:#D7D6D6;}
	.st14{fill:#C0DFF5;}
	.st15{opacity:0.73;fill:#FFFFFF;}
	.st16{fill:url(#SVGID_3_);}
	.st17{fill:url(#SVGID_4_);}
	.st18{fill:url(#SVGID_5_);}
	.st19{fill:url(#SVGID_6_);}
	.st20{fill:url(#SVGID_7_);}
</style>
<linearGradient id="SVGID_1_" gradientUnits="userSpaceOnUse" x1="88.8841" y1="324.7814" x2="88.8841" y2="152.6031">
	<stop  offset="0" style="stop-color:#E0E1E2"/>
	<stop  offset="1" style="stop-color:#EFF8F9"/>
</linearGradient>
<path class="st0" d="M141.84,260.58L33.68,211.26c-1.7-0.77-3.06-3.2-3.06-5.42v-12.5c0-2.22,1.37-3.48,3.06-2.8l108.16,43.01
	c2.92,1.16,5.32,4.51,5.32,7.47v16.63C147.16,260.61,144.76,261.92,141.84,260.58z"/>
<linearGradient id="SVGID_2_" gradientUnits="userSpaceOnUse" x1="220.4785" y1="311.6055" x2="58.0901" y2="1.3583">
	<stop  offset="0" style="stop-color:#E0E1E2"/>
	<stop  offset="1" style="stop-color:#EFF8F9"/>
</linearGradient>
<path class="st1" d="M201.05,274.01L5.27,189.82C2.34,188.56,0,184.18,0,180.02V26.46c0-4.16,2.34-7.75,5.27-8.02L201.05,0.07
	c7.67-0.72,14.06,4.3,14.06,11.24V267.5C215.11,274.43,208.72,277.31,201.05,274.01z"/>
<g>
	<g>
		<g>
			<path class="st2" d="M30.39,137.3c1.98-6.73,0.09-14.96-4.18-20.25c-1.02-1.26-2.17-2.35-3.43-3.2
				c-3.77-2.56-7.68-2.48-10.67-0.34c-2.04,1.46-3.66,3.89-4.54,7.13c-0.09,0.32-0.17,0.65-0.24,0.97
				c-0.32,1.48-0.46,3.02-0.44,4.57c0.06,6.5,2.93,13.33,7.63,17C20.78,148.07,27.97,145.56,30.39,137.3z M15.54,139.58
				c-3.55-2.73-5.74-7.88-5.79-12.79c-0.01-1.17,0.1-2.33,0.34-3.45c0.05-0.25,0.11-0.49,0.18-0.74c0.67-2.44,1.9-4.26,3.45-5.35
				c2.26-1.58,5.2-1.61,8.01,0.34c0.94,0.65,1.79,1.47,2.55,2.42c3.16,3.96,4.54,10.07,3.09,15.08
				C25.58,141.25,20.24,143.2,15.54,139.58z"/>
		</g>
	</g>
	<g>
		<g>
			<path class="st3" d="M13.72,117.26l-1.6-3.74c2.99-2.14,6.9-2.22,10.67,0.34c1.26,0.86,2.41,1.94,3.43,3.2l-1.94,2.96
				c-0.76-0.95-1.61-1.77-2.55-2.42C18.91,115.65,15.97,115.67,13.72,117.26z"/>
		</g>
	</g>
	<g>
		<g>
			<path class="st4" d="M10.09,123.34l-2.75-1.73c0.07-0.33,0.15-0.65,0.24-0.97c0.88-3.24,2.5-5.67,4.54-7.13l1.6,3.74
				c-1.55,1.08-2.78,2.91-3.45,5.35C10.2,122.85,10.14,123.09,10.09,123.34z"/>
		</g>
	</g>
	<g>
		<g>
			<path class="st5" d="M6.9,126.18c-0.02-1.55,0.13-3.09,0.44-4.57l2.75,1.73c-0.24,1.12-0.35,2.28-0.34,3.45L6.9,126.18z"/>
		</g>
	</g>
</g>
<g>
	<g>
		<g>
			<path class="st2" d="M70.98,144.48c1.33-8.08-2.14-16.94-7.96-21.9c-1.38-1.18-2.9-2.13-4.5-2.8c-4.79-2-9.36-1.02-12.56,2.04
				c-2.18,2.09-3.75,5.16-4.33,8.98c-0.06,0.38-0.1,0.76-0.14,1.14c-0.17,1.73-0.12,3.49,0.11,5.23
				c0.97,7.31,5.32,14.42,11.39,17.55C61.15,158.92,69.34,154.45,70.98,144.48z M53.68,150.39c-4.59-2.31-7.9-7.66-8.64-13.18
				c-0.18-1.31-0.21-2.65-0.08-3.96c0.03-0.29,0.06-0.58,0.11-0.87c0.44-2.89,1.63-5.2,3.3-6.76c2.42-2.28,5.87-2.97,9.46-1.43
				c1.2,0.51,2.33,1.24,3.35,2.13c4.31,3.73,6.86,10.32,5.88,16.32C65.85,150.06,59.78,153.47,53.68,150.39z"/>
		</g>
	</g>
	<g>
		<g>
			<path class="st6" d="M48.36,125.63l-2.4-3.82c3.2-3.06,7.77-4.03,12.56-2.04c1.61,0.67,3.12,1.62,4.5,2.8l-1.85,3.75
				c-1.03-0.89-2.15-1.62-3.35-2.13C54.23,122.66,50.79,123.35,48.36,125.63z"/>
		</g>
	</g>
	<g>
		<g>
			<path class="st7" d="M44.96,133.25l-3.46-1.32c0.04-0.38,0.08-0.76,0.14-1.14c0.58-3.82,2.14-6.89,4.33-8.98l2.4,3.82
				c-1.66,1.56-2.85,3.88-3.3,6.76C45.02,132.68,44.99,132.96,44.96,133.25z"/>
		</g>
	</g>
	<g>
		<g>
			<path class="st8" d="M41.61,137.16c-0.23-1.74-0.28-3.49-0.11-5.23l3.46,1.32c-0.13,1.31-0.09,2.64,0.08,3.96L41.61,137.16z"/>
		</g>
	</g>
</g>
<g>
	<g>
		<g>
			<path class="st2" d="M110.98,131.62c-7.55-5.77-16.24-5.73-21.67-0.85c-1.29,1.16-2.41,2.6-3.29,4.32
				c-2.65,5.14-2.62,11.66-0.41,17.65c1.54,4.19,4.16,8.18,7.73,11.3c0.36,0.31,0.72,0.61,1.09,0.9c1.67,1.31,3.41,2.33,5.18,3.08
				c7.57,3.21,15.59,1.31,19.64-5.71C124.57,153.06,120.75,139.09,110.98,131.62z M114.78,158.67c-2.98,5.25-8.92,6.74-14.59,4.41
				c-1.33-0.55-2.64-1.31-3.9-2.28c-0.28-0.21-0.55-0.44-0.82-0.67c-2.71-2.33-4.7-5.33-5.88-8.5c-1.69-4.54-1.71-9.48,0.32-13.36
				c0.67-1.29,1.52-2.37,2.51-3.24c4.12-3.64,10.66-3.58,16.29,0.8C115.89,141.44,118.69,151.79,114.78,158.67z"/>
		</g>
	</g>
	<g>
		<g>
			<path class="st3" d="M89.58,151.63l-3.98,1.11c-2.2-5.99-2.23-12.51,0.41-17.65c0.88-1.71,2-3.15,3.29-4.32l3.1,4.25
				c-0.99,0.87-1.84,1.95-2.51,3.24C87.87,142.15,87.89,147.09,89.58,151.63z"/>
		</g>
	</g>
	<g>
		<g>
			<path class="st4" d="M96.28,160.8l-1.87,4.14c-0.37-0.29-0.73-0.59-1.09-0.9c-3.57-3.12-6.19-7.11-7.73-11.3l3.98-1.11
				c1.18,3.17,3.17,6.17,5.88,8.5C95.73,160.37,96,160.59,96.28,160.8z"/>
		</g>
	</g>
	<g>
		<g>
			<path class="st9" d="M99.59,168.03c-1.77-0.75-3.51-1.78-5.18-3.08l1.87-4.14c1.26,0.97,2.57,1.73,3.9,2.28L99.59,168.03z"/>
		</g>
	</g>
</g>
<polygon class="st10" points="31.17,159.71 6.9,152.11 6.9,149.63 31.17,157.05 "/>
<polygon class="st10" points="24.73,163.24 6.9,157.37 6.9,154.9 24.73,160.63 "/>
<polygon class="st10" points="57.28,167.89 41.4,162.91 41.4,160.18 57.28,165.03 "/>
<polygon class="st10" points="65.49,176.66 41.4,168.73 41.4,165.99 65.49,173.74 "/>
<polygon class="st10" points="109.76,184.33 87.13,177.24 87.13,174.16 109.76,181.08 "/>
<polygon class="st10" points="113.58,192.49 87.13,183.79 87.13,180.7 113.58,189.21 "/>
<polygon class="st11" points="186.16,45.48 149.72,45.75 149.72,42.39 186.16,41.86 "/>
<polygon class="st11" points="192.09,56.78 149.72,56.15 149.72,52.79 192.09,53.11 "/>
<polygon class="st11" points="170.66,67.26 149.66,66.49 149.66,63.13 170.66,63.75 "/>
<polygon class="st11" points="182.82,78.78 149.66,76.83 149.66,73.47 182.82,75.18 "/>
<polygon class="st2" points="98.99,202.73 6.9,169.12 6.9,166.72 98.99,199.66 "/>
<polygon class="st2" points="108.7,213.59 6.9,174.71 6.9,172.31 108.7,210.45 "/>
<polygon class="st2" points="66.47,204.07 6.9,180.3 6.9,177.9 66.47,201.24 "/>
<polygon class="st12" points="49.17,184.55 6.9,169.12 6.9,166.72 49.17,181.84 "/>
<polygon class="st12" points="53.05,192.34 6.9,174.71 6.9,172.31 53.05,189.61 "/>
<polygon class="st12" points="35.44,191.69 6.9,180.3 6.9,177.9 35.44,189.08 "/>
<polygon class="st13" points="34.15,94.52 17.75,92.43 17.75,89.78 34.15,91.74 "/>
<polygon class="st13" points="38.36,90.05 14,87.28 14,84.67 38.36,87.24 "/>
<path class="st12" d="M30.08,48.69c0,3.18-1.93,5.72-4.28,5.69c-2.32-0.04-4.18-2.58-4.18-5.68c0-3.1,1.86-5.65,4.18-5.69
	C28.15,42.98,30.08,45.52,30.08,48.69z"/>
<path class="st12" d="M33.6,67.63v11.05c-2.43,1.25-5.08,1.82-7.84,1.57c-2.71-0.24-5.25-1.25-7.5-2.84V66.83
	c0-5.56,3.32-10,7.5-9.91C30.04,57.02,33.6,61.81,33.6,67.63z"/>
<polygon class="st2" points="107.03,42.44 54.41,43.26 54.41,39.57 107.03,38.23 "/>
<polygon class="st2" points="139.01,41.94 113.58,42.34 113.58,38.07 139.01,37.42 "/>
<polygon class="st2" points="77.41,33.98 54.41,34.85 54.41,31.16 77.41,30.06 "/>
<g>
	<g>
		<polygon class="st14" points="55.09,97.8 54.7,97.75 54.7,53.96 55.09,53.97 		"/>
	</g>
	<g>
		<polygon class="st14" points="65.21,99.11 64.8,99.06 64.8,54.09 65.21,54.1 		"/>
	</g>
	<g>
		<polygon class="st14" points="75.9,100.49 75.46,100.43 75.46,54.23 75.9,54.23 		"/>
	</g>
	<g>
		<polygon class="st14" points="87.19,101.95 86.73,101.89 86.73,54.37 87.19,54.38 		"/>
	</g>
	<g>
		<polygon class="st14" points="99.14,103.49 98.66,103.43 98.66,54.53 99.14,54.53 		"/>
	</g>
	<g>
		<polygon class="st14" points="111.81,105.13 111.3,105.06 111.3,54.69 111.81,54.69 		"/>
	</g>
	<g>
		<polygon class="st14" points="125.27,106.86 124.72,106.79 124.72,54.86 125.27,54.87 		"/>
	</g>
	<g>
		<polygon class="st14" points="139.59,108.71 139.01,108.64 139.01,55.04 139.59,55.05 		"/>
	</g>
</g>
<polygon class="st11" points="54.89,83.27 61.72,75.42 65.14,79.82 72.82,71.16 79.12,78.97 87.49,69.85 93.43,76.92 109.37,60.08 
	122.13,74.22 130.24,66.16 139.3,75.85 139.3,108.67 54.89,97.78 "/>
<polygon class="st7" points="54.89,88.78 60.33,82.61 63.85,87.21 68.01,82.59 76.09,92.96 86.68,81.71 90.61,86.52 102.37,74.28 
	113.71,87.43 139.27,62.27 139.27,108.67 54.89,97.78 "/>
<polygon class="st14" points="58.87,50.29 54.7,50.27 54.7,51.36 58.87,51.38 "/>
<polygon class="st14" points="67.8,50.31 64.8,50.3 64.8,51.42 67.8,51.43 "/>
<polygon class="st14" points="79.38,50.35 75.46,50.34 75.46,51.48 79.38,51.5 "/>
<polygon class="st14" points="89.81,50.38 86.73,50.37 86.73,51.54 89.81,51.56 "/>
<polygon class="st14" points="101.38,50.41 98.66,50.41 98.66,51.61 101.38,51.63 "/>
<polygon class="st14" points="116.95,50.46 111.3,50.44 111.3,51.69 116.95,51.72 "/>
<polygon class="st14" points="128.89,50.5 124.72,50.48 124.72,51.77 128.89,51.79 "/>
<polygon class="st14" points="141.8,50.54 139.01,50.53 139.01,51.85 141.8,51.87 "/>
<path class="st15" d="M240.27,281.2l-84.58-34.92c-4.59-1.9-8.25-7.02-8.25-11.47v-99.08c0-4.45,3.66-7.45,8.25-6.69l84.58,14.15
	c6.5,1.09,11.88,6.4,11.88,11.85v121.19C252.15,281.69,246.77,283.89,240.27,281.2z"/>
<g>
	<polygon class="st13" points="171.35,232.94 168.58,231.91 168.58,150.9 171.35,151.47 	"/>
	<polygon class="st13" points="187.56,238.98 184.61,237.88 184.61,154.22 187.56,154.84 	"/>
	<polygon class="st13" points="204.87,245.44 201.72,244.26 201.72,157.77 204.87,158.43 	"/>
	<polygon class="st13" points="223.4,252.34 220.02,251.08 220.02,161.57 223.4,162.27 	"/>
</g>
<linearGradient id="SVGID_3_" gradientUnits="userSpaceOnUse" x1="169.9749" y1="181.5116" x2="169.9749" y2="260.0805">
	<stop  offset="0" style="stop-color:#A41E22"/>
	<stop  offset="1" style="stop-color:#E7322D"/>
</linearGradient>
<polygon class="st16" points="172.58,225.71 167.37,223.86 167.37,191.06 172.58,192.56 "/>
<linearGradient id="SVGID_4_" gradientUnits="userSpaceOnUse" x1="186.0949" y1="187.2975" x2="186.0949" y2="267.8622">
	<stop  offset="0" style="stop-color:#A41E22"/>
	<stop  offset="1" style="stop-color:#E7322D"/>
</linearGradient>
<polygon class="st17" points="188.87,202.75 183.32,201.08 183.32,167.21 188.87,168.51 "/>
<linearGradient id="SVGID_5_" gradientUnits="userSpaceOnUse" x1="203.3069" y1="190.9841" x2="203.3069" y2="274.9028">
	<stop  offset="0" style="stop-color:#A41E22"/>
	<stop  offset="1" style="stop-color:#E7322D"/>
</linearGradient>
<polygon class="st18" points="206.27,227.87 200.34,225.86 200.34,190.85 206.27,192.46 "/>
<linearGradient id="SVGID_6_" gradientUnits="userSpaceOnUse" x1="221.7263" y1="196.1733" x2="221.7263" y2="283.0741">
	<stop  offset="0" style="stop-color:#A41E22"/>
	<stop  offset="1" style="stop-color:#E7322D"/>
</linearGradient>
<polygon class="st19" points="224.9,229.92 218.55,227.82 218.55,191.59 224.9,193.27 "/>
<g>
	<linearGradient id="SVGID_7_" gradientUnits="userSpaceOnUse" x1="26.804" y1="38.5765" x2="26.804" y2="98.798">
		<stop  offset="0" style="stop-color:#D3DAE0"/>
		<stop  offset="1" style="stop-color:#FFFFFF"/>
	</linearGradient>
	<path class="st20" d="M25.76,80.92c-2.73-0.25-5.32-1.24-7.7-2.93C11.68,73.47,7.69,64.5,7.69,55.01c0-13.38,7.87-24.7,18.07-25.27
		c10.84-0.6,20.16,11.02,20.16,25.95c0,10.6-4.85,19.92-12.1,23.64C31.24,80.64,28.53,81.17,25.76,80.92z M25.76,31.09
		C16.08,31.59,8.6,42.32,8.6,55.02c0,9.02,3.8,17.52,9.86,21.79c2.26,1.6,4.72,2.53,7.3,2.75c2.62,0.23,5.19-0.28,7.62-1.54
		C40.23,74.5,44.8,65.67,44.8,55.67C44.8,41.57,36,30.55,25.76,31.09z"/>
</g>
</svg>
