<?xml version="1.0" encoding="utf-8"?>
<!-- Generator: Adobe Illustrator 24.0.3, SVG Export Plug-In . SVG Version: 6.00 Build 0)  -->
<svg version="1.1" id="Layer_1" xmlns="http://www.w3.org/2000/svg" xmlns:xlink="http://www.w3.org/1999/xlink" x="0px" y="0px"
	 viewBox="0 0 144.53 123.96" style="enable-background:new 0 0 144.53 123.96;" xml:space="preserve">
<style type="text/css">
	.st0{fill:#FFFFFF;}
	.st1{fill:#62429A;}
	.st2{fill:#E7322D;}
	.st3{fill:none;stroke:#000000;stroke-width:0.25;stroke-miterlimit:10;}
	.st4{fill:none;stroke:#D3D5D6;stroke-linecap:round;stroke-linejoin:round;}
	.st5{fill:#D3D5D6;}
</style>
<path class="st0" d="M131.63,73.77H12.78c-6.55,0-11.87-5.31-11.87-11.87s5.31-11.87,11.87-11.87h118.85
	c6.55,0,11.87,5.31,11.87,11.87S138.19,73.77,131.63,73.77z"/>
<g>
	<path d="M11.76,17.72c0-0.71,0.56-1.29,1.28-1.29c0.66,0,1.19,0.58,1.19,1.27c0,0.1-0.02,0.22-0.02,0.22h-1.88
		c0.08,0.4,0.4,0.6,0.77,0.6c0.25,0,0.51-0.08,0.71-0.22l0.22,0.41c-0.28,0.19-0.61,0.29-0.94,0.29
		C12.39,19.01,11.76,18.54,11.76,17.72z M13.69,17.5c-0.06-0.36-0.34-0.59-0.68-0.59c-0.32,0-0.6,0.24-0.68,0.59H13.69z"/>
	<path d="M14.58,17.5h2.02v0.46h-2.02V17.5z"/>
	<path d="M16.98,17.33c0-0.92,0.73-1.67,1.71-1.67c0.42,0,0.81,0.14,1.09,0.38l-0.34,0.39c-0.22-0.17-0.46-0.25-0.72-0.25
		c-0.67,0-1.14,0.52-1.14,1.14c0,0.63,0.47,1.15,1.11,1.15c0.31,0,0.61-0.12,0.82-0.32l0.36,0.4c-0.3,0.28-0.71,0.45-1.18,0.45
		C17.71,19.01,16.98,18.26,16.98,17.33z"/>
	<path d="M20.13,17.72c0-0.72,0.59-1.29,1.32-1.29c0.73,0,1.32,0.57,1.32,1.29c0,0.72-0.59,1.29-1.32,1.29
		C20.71,19.01,20.13,18.44,20.13,17.72z M22.19,17.72c0-0.44-0.33-0.76-0.75-0.76c-0.43,0-0.75,0.32-0.75,0.76
		c0,0.43,0.33,0.75,0.75,0.75C21.87,18.47,22.19,18.15,22.19,17.72z"/>
	<path d="M23.23,16.48h0.56v0.37c0.13-0.23,0.42-0.42,0.73-0.42c0.39,0,0.65,0.17,0.78,0.47c0.17-0.29,0.52-0.47,0.81-0.47
		c0.65,0,0.94,0.4,0.94,1.1v1.43h-0.56V17.6c0-0.35-0.08-0.64-0.51-0.64c-0.35,0-0.56,0.28-0.56,0.62v1.38h-0.56V17.6
		c0-0.35-0.08-0.64-0.51-0.64c-0.37,0-0.57,0.32-0.57,0.65v1.34h-0.56V16.48z"/>
	<path d="M27.57,16.48h0.56v0.37c0.13-0.23,0.42-0.42,0.73-0.42c0.39,0,0.65,0.17,0.78,0.47c0.17-0.29,0.52-0.47,0.81-0.47
		c0.65,0,0.94,0.4,0.94,1.1v1.43h-0.56V17.6c0-0.35-0.08-0.64-0.51-0.64c-0.35,0-0.56,0.28-0.56,0.62v1.38H29.2V17.6
		c0-0.35-0.08-0.64-0.51-0.64c-0.37,0-0.57,0.32-0.57,0.65v1.34h-0.56V16.48z"/>
</g>
<g>
	<g>
		<path d="M111.88,17.33c0-0.92,0.73-1.67,1.71-1.67c0.42,0,0.81,0.14,1.09,0.38l-0.34,0.39c-0.22-0.17-0.46-0.25-0.72-0.25
			c-0.67,0-1.14,0.52-1.14,1.14c0,0.63,0.47,1.15,1.11,1.15c0.32,0,0.61-0.11,0.82-0.32l0.36,0.4c-0.3,0.28-0.71,0.45-1.18,0.45
			C112.61,19.01,111.88,18.26,111.88,17.33z"/>
		<path d="M115.03,17.72c0-0.72,0.47-1.29,1.15-1.29c0.34,0,0.63,0.14,0.83,0.37v-0.32h0.56v2.48H117v-0.31
			c-0.2,0.23-0.49,0.36-0.83,0.36C115.49,19.01,115.03,18.43,115.03,17.72z M117,17.72c0-0.44-0.29-0.76-0.69-0.76
			c-0.42,0-0.72,0.32-0.72,0.76c0,0.44,0.3,0.75,0.72,0.75C116.7,18.47,117,18.16,117,17.72z"/>
		<path d="M118.27,18.16v-1.23h-0.37v-0.46h0.37v-0.49l0.56-0.12v0.6h0.75v0.46h-0.75v1.24c0,0.27,0.12,0.35,0.27,0.35
			c0.19,0,0.36-0.12,0.36-0.12l0.17,0.42c-0.12,0.08-0.32,0.19-0.6,0.19C118.51,19.01,118.27,18.73,118.27,18.16z"/>
		<path d="M119.87,17.72c0-0.72,0.47-1.29,1.15-1.29c0.34,0,0.63,0.14,0.83,0.37v-0.32h0.56v2.48h-0.56v-0.31
			c-0.2,0.23-0.49,0.36-0.83,0.36C120.33,19.01,119.87,18.43,119.87,17.72z M121.84,17.72c0-0.44-0.29-0.76-0.69-0.76
			c-0.42,0-0.72,0.32-0.72,0.76c0,0.44,0.3,0.75,0.72,0.75C121.54,18.47,121.84,18.16,121.84,17.72z"/>
		<path d="M122.95,15.66h0.56v3.29h-0.56V15.66z"/>
		<path d="M123.98,17.72c0-0.72,0.59-1.29,1.32-1.29c0.73,0,1.32,0.57,1.32,1.29c0,0.72-0.59,1.29-1.32,1.29
			C124.57,19.01,123.98,18.44,123.98,17.72z M126.05,17.72c0-0.44-0.33-0.76-0.75-0.76c-0.43,0-0.75,0.32-0.75,0.76
			c0,0.43,0.33,0.75,0.75,0.75C125.72,18.47,126.05,18.15,126.05,17.72z"/>
		<path d="M127.21,19.36l0.22-0.35c0.2,0.17,0.49,0.25,0.74,0.25c0.53,0,0.79-0.34,0.79-0.85V18.4c-0.1,0.2-0.37,0.43-0.82,0.43
			c-0.69,0-1.14-0.53-1.14-1.2s0.45-1.2,1.14-1.2c0.38,0,0.71,0.18,0.84,0.42v-0.37h0.53v1.91c0,0.87-0.58,1.3-1.29,1.3
			C127.79,19.69,127.44,19.57,127.21,19.36z M128.95,17.61c0-0.4-0.31-0.7-0.7-0.7c-0.39,0-0.69,0.31-0.69,0.72
			c0,0.41,0.3,0.71,0.69,0.71C128.66,18.34,128.95,18.04,128.95,17.61z"/>
		<path d="M130.03,17.99v-1.51h0.56v1.43c0,0.4,0.18,0.57,0.52,0.57c0.39,0,0.59-0.32,0.59-0.68v-1.32h0.56v2.48h-0.53v-0.38
			c-0.15,0.27-0.5,0.43-0.8,0.43C130.28,19.01,130.03,18.64,130.03,17.99z"/>
		<path d="M132.73,17.72c0-0.71,0.56-1.29,1.28-1.29c0.66,0,1.19,0.58,1.19,1.27c0,0.11-0.02,0.22-0.02,0.22h-1.88
			c0.08,0.4,0.4,0.6,0.77,0.6c0.25,0,0.51-0.08,0.71-0.22l0.22,0.41c-0.28,0.19-0.61,0.3-0.94,0.3
			C133.36,19.01,132.73,18.54,132.73,17.72z M134.65,17.5c-0.06-0.35-0.34-0.59-0.68-0.59c-0.32,0-0.6,0.24-0.68,0.59H134.65z"/>
		<path d="M135.54,18.65l0.21-0.46c0.16,0.13,0.42,0.3,0.79,0.3c0.23,0,0.49-0.09,0.49-0.26c0-0.18-0.25-0.23-0.5-0.29
			c-0.47-0.13-0.87-0.27-0.87-0.76s0.5-0.75,0.93-0.75c0.37,0,0.62,0.1,0.89,0.26l-0.21,0.45c-0.22-0.12-0.43-0.19-0.68-0.19
			c-0.19,0-0.37,0.08-0.37,0.22c0,0.17,0.21,0.21,0.43,0.25c0.46,0.1,0.94,0.29,0.94,0.8c0,0.58-0.6,0.79-1.06,0.79
			C136.02,19.01,135.67,18.78,135.54,18.65z"/>
	</g>
</g>
<g>
	<g>
		<path d="M17.08,105.55h2.52v0.5h-1.94v0.79h1.83v0.5h-1.83v0.96h2.01v0.5h-2.59V105.55z"/>
		<path d="M20.13,105.55h1.37c0.93,0,1.43,0.56,1.43,1.24c0,0.44-0.24,0.85-0.67,1.05l0.72,0.95H22.3L21.74,108
			c-0.09,0.02-0.19,0.03-0.29,0.03h-0.74v0.77h-0.58V105.55z M21.53,107.53c0.47,0,0.79-0.33,0.79-0.74c0-0.42-0.33-0.75-0.79-0.75
			h-0.82v1.48H21.53z"/>
		<path d="M23.47,105.55h1.37c0.93,0,1.43,0.56,1.43,1.24c0,0.69-0.5,1.24-1.43,1.24h-0.78v0.77h-0.58V105.55z M24.87,107.52
			c0.49,0,0.79-0.33,0.79-0.74s-0.3-0.74-0.78-0.74h-0.83v1.47H24.87z"/>
	</g>
</g>
<g>
	<g>
		<path d="M113.9,105.55h0.58v3.24h-0.58V105.55z"/>
		<path d="M115.11,106.31h0.56v0.36c0.19-0.28,0.47-0.41,0.8-0.41c0.67,0,0.89,0.45,0.89,1.11v1.42h-0.56v-1.35
			c0-0.41-0.09-0.64-0.51-0.64c-0.37,0-0.63,0.29-0.63,0.7v1.3h-0.56V106.31z"/>
		<path d="M117.59,106.31h0.56l0.51,1.25c0.13,0.32,0.23,0.67,0.23,0.67s0.1-0.35,0.23-0.66l0.5-1.26h0.56l-1.02,2.48h-0.54
			L117.59,106.31z"/>
		<path d="M120.31,107.56c0-0.71,0.56-1.29,1.28-1.29c0.66,0,1.19,0.58,1.19,1.27c0,0.1-0.02,0.21-0.02,0.21h-1.88
			c0.08,0.4,0.4,0.6,0.77,0.6c0.25,0,0.51-0.08,0.71-0.21l0.22,0.41c-0.28,0.19-0.61,0.29-0.94,0.29
			C120.94,108.84,120.31,108.37,120.31,107.56z M122.23,107.34c-0.06-0.36-0.34-0.59-0.68-0.59c-0.32,0-0.6,0.24-0.68,0.59H122.23z"
			/>
		<path d="M123.25,106.31h0.56v0.36c0.19-0.28,0.47-0.41,0.8-0.41c0.67,0,0.89,0.45,0.89,1.11v1.42h-0.56v-1.35
			c0-0.41-0.09-0.64-0.51-0.64c-0.37,0-0.63,0.29-0.63,0.7v1.3h-0.56V106.31z"/>
		<path d="M126.17,108v-1.23h-0.37v-0.46h0.37v-0.49l0.56-0.12v0.6h0.75v0.46h-0.75v1.24c0,0.26,0.12,0.35,0.27,0.35
			c0.19,0,0.36-0.12,0.36-0.12l0.17,0.42c-0.12,0.08-0.32,0.18-0.6,0.18C126.42,108.84,126.17,108.57,126.17,108z"/>
		<path d="M127.77,107.56c0-0.72,0.59-1.29,1.32-1.29c0.73,0,1.32,0.57,1.32,1.29c0,0.72-0.59,1.29-1.32,1.29
			C128.36,108.84,127.77,108.27,127.77,107.56z M129.84,107.56c0-0.44-0.33-0.76-0.75-0.76c-0.43,0-0.75,0.32-0.75,0.76
			c0,0.43,0.33,0.75,0.75,0.75C129.51,108.31,129.84,107.99,129.84,107.56z"/>
		<path d="M130.88,106.31h0.56v0.49c0.09-0.25,0.37-0.54,0.9-0.54v0.61c-0.55,0-0.9,0.26-0.9,0.91v1.01h-0.56V106.31z"/>
		<path d="M132.96,109.01c0.29,0,0.42-0.1,0.55-0.35l0.05-0.1l-1.07-2.24h0.57l0.6,1.32c0.08,0.17,0.16,0.39,0.16,0.39
			s0.11-0.29,0.16-0.42l0.54-1.3h0.56l-1.13,2.59c-0.25,0.58-0.69,0.62-0.98,0.62V109.01z"/>
	</g>
</g>
<g>
	<g>
		<path class="st1" d="M128.95,57.8c0.41,0,0.75,0.34,0.75,0.75s-0.34,0.75-0.75,0.75c-0.41,0-0.75-0.34-0.75-0.75
			S128.54,57.8,128.95,57.8L128.95,57.8z M128.95,57.95c-0.34,0-0.6,0.26-0.6,0.6c0,0.34,0.26,0.6,0.6,0.6c0.34,0,0.6-0.26,0.6-0.6
			C129.55,58.21,129.29,57.95,128.95,57.95"/>
		<path class="st1" d="M125.56,59.31h-3.19c-0.11,0-0.19,0.08-0.19,0.19v1.31h4.51v0.38c0,0.64-0.49,1.13-1.13,1.13h-3.38v1.31
			c0,0.11,0.08,0.19,0.19,0.19h4.32v0.38c0,0.64-0.49,1.13-1.13,1.13h-3.75c-0.64,0-1.13-0.49-1.13-1.13v-5.26
			c0-0.64,0.49-1.13,1.13-1.13h4.88v0.38C126.69,58.82,126.2,59.31,125.56,59.31z"/>
		<path class="st1" d="M117.71,62.8l1.46,2.52h-1.31c-0.26,0-0.53-0.15-0.64-0.38l-1.09-1.88h-2.97v1.13c0,0.64-0.49,1.13-1.13,1.13
			h-0.38v-6.38c0-0.64,0.49-1.13,1.13-1.13h3.68c1.46,0,2.67,1.13,2.7,2.59C119.18,61.45,118.58,62.35,117.71,62.8z M113.17,59.53
			v2.03h3.38c0.64,0,1.16-0.53,1.13-1.2c-0.04-0.6-0.53-1.05-1.13-1.05h-3.12C113.28,59.31,113.17,59.42,113.17,59.53z"/>
		<path class="st1" d="M88.84,58.11l-2.55,2.55c-0.08,0.08-0.23,0.08-0.3,0l-2.52-2.52c-0.19-0.19-0.49-0.3-0.75-0.3l0,0
			c-0.6,0-1.05,0.49-1.05,1.05v6.42h0.38c0.64,0,1.13-0.49,1.13-1.13v-4.02c0-0.08,0.11-0.15,0.19-0.08l2.03,2.03
			c0.45,0.45,1.16,0.45,1.58,0l2.03-2.03c0.08-0.08,0.19,0,0.19,0.08v5.14h0.38c0.64,0,1.13-0.49,1.13-1.13v-5.33
			c0-0.56-0.49-1.05-1.05-1.05l0,0C89.29,57.8,89.03,57.92,88.84,58.11z"/>
		<path class="st1" d="M80.13,64.19V57.8h-0.38c-0.64,0-1.13,0.49-1.13,1.13v6.38h0.38C79.64,65.31,80.13,64.83,80.13,64.19z"/>
		<path class="st1" d="M77.13,60.47c-0.04,1.43-1.2,2.59-2.63,2.59h-3.38v1.13c0,0.64-0.49,1.13-1.13,1.13h-0.38v-6.38
			c0-0.64,0.49-1.13,1.13-1.13h3.68C75.89,57.8,77.17,59.01,77.13,60.47z M75.63,60.51c0.04-0.64-0.49-1.2-1.13-1.2h-3.15
			c-0.11,0-0.23,0.11-0.23,0.23v2.03h3.34C75.06,61.56,75.59,61.11,75.63,60.51z"/>
		<path class="st1" d="M110.17,61.56c0,2.06-1.69,3.75-3.75,3.75c-1.31,0-2.44-0.68-3.12-1.69l-0.49-0.71l-1.01,1.54
			c-0.94,1.43-2.55,2.37-4.39,2.37c-2.89,0-5.26-2.37-5.26-5.26c0-2.89,2.37-5.26,5.26-5.26c1.84,0,3.42,0.94,4.36,2.33l0.15,0.19
			l-0.9,1.35l-0.49-0.75c-0.68-1.01-1.8-1.65-3.12-1.65c-2.06,0-3.75,1.69-3.75,3.75c0,2.06,1.69,3.75,3.75,3.75
			c1.31,0,2.44-0.68,3.12-1.69l2.74-4.13c0.68-1.01,1.84-1.69,3.12-1.69C108.48,57.8,110.17,59.49,110.17,61.56z M108.67,61.56
			c0-1.24-1.01-2.25-2.25-2.25c-0.79,0-1.46,0.41-1.88,1.01l-0.83,1.24l0.83,1.24c0.41,0.6,1.09,1.01,1.88,1.01
			C107.65,63.81,108.67,62.8,108.67,61.56z"/>
		<path class="st1" d="M129.17,58.66l0.14,0.24h-0.12c-0.03,0-0.05-0.02-0.06-0.03l-0.1-0.18h-0.28v0.11c0,0.06-0.05,0.11-0.11,0.11
			h-0.03v-0.6c0-0.06,0.05-0.11,0.11-0.11h0.35c0.14,0,0.25,0.11,0.25,0.24C129.31,58.54,129.25,58.62,129.17,58.66z M128.75,58.36
			v0.19h0.32c0.06,0,0.11-0.05,0.11-0.11c0-0.06-0.05-0.1-0.11-0.1h-0.29C128.76,58.33,128.75,58.35,128.75,58.36z"/>
	</g>
	<g>
		<polygon class="st2" points="19.56,65.56 17.18,66.65 17.18,68.5 19.56,67.22 		"/>
		<path class="st2" d="M30.86,64.65c-0.94,0.88-2.07,1.31-3.4,1.31s-2.46-0.44-3.4-1.31c-0.94-0.89-1.4-1.95-1.4-3.19
			c0-1.24,0.46-2.3,1.4-3.19c0.94-0.89,2.07-1.33,3.4-1.33c1.34,0,2.46,0.44,3.4,1.33c0.94,0.88,1.41,1.94,1.41,3.19
			C32.28,62.7,31.8,63.76,30.86,64.65 M25.78,63.15c0.46,0.46,1.03,0.69,1.69,0.69c0.65,0,1.21-0.24,1.67-0.7
			c0.47-0.48,0.71-1.04,0.71-1.67c0-0.64-0.24-1.2-0.71-1.67c-0.46-0.48-1.03-0.71-1.67-0.71c-0.65,0-1.21,0.24-1.67,0.71
			c-0.46,0.46-0.7,1.03-0.7,1.67C25.09,62.13,25.31,62.69,25.78,63.15"/>
		<path class="st2" d="M33.78,65.79v-8.72h3.97c0.86,0,1.6,0.29,2.21,0.88c0.61,0.59,0.91,1.29,0.91,2.13
			c0,1.11-0.59,2.08-1.49,2.49l2.18,3.23h-2.73l-1.78-2.71h-0.03h-0.88v2.71H33.78z M36.15,61.17h1.33c0.64,0,1.03-0.38,1.03-1.03
			c0-0.55-0.36-0.93-0.82-0.93h-1.53V61.17z"/>
		<path class="st2" d="M50.44,58.26c0.94,0.88,1.4,1.94,1.4,3.18c0,1.06-0.39,2-1.15,2.82l1.39,1.54h-2.52l-0.4-0.45
			c-0.65,0.39-1.35,0.57-2.11,0.57c-1.33,0-2.45-0.44-3.39-1.3c-0.94-0.88-1.4-1.94-1.4-3.18s0.46-2.3,1.4-3.18
			c0.94-0.87,2.06-1.31,3.39-1.31C48.37,56.95,49.5,57.38,50.44,58.26 M45.36,63.11c0.46,0.45,1.03,0.67,1.67,0.67
			c0.16,0,0.33-0.03,0.51-0.06l-1.64-1.8h2.53l0.65,0.71c0.21-0.29,0.33-0.69,0.33-1.2c0-0.64-0.24-1.19-0.7-1.65
			c-0.46-0.48-1.03-0.71-1.67-0.71s-1.21,0.24-1.67,0.7c-0.46,0.46-0.69,1.03-0.69,1.66C44.67,62.1,44.9,62.65,45.36,63.11"/>
		<polygon class="st2" points="14.83,57.07 14.83,59.22 17.18,59.22 17.18,60.33 19.56,59.23 19.56,59.22 21.86,59.22 21.86,57.07 
					"/>
		<polygon class="st2" points="20.42,60.76 19.56,60.47 19.56,59.79 16.34,61.23 17.18,61.43 17.18,62.23 		"/>
		<polygon class="st2" points="20.42,62.7 19.56,62.4 19.56,61.72 16.34,63.17 17.18,63.36 17.18,64.17 		"/>
		<polygon class="st2" points="20.42,64.62 19.56,64.32 19.56,63.64 16.34,65.09 17.18,65.28 17.18,66.09 		"/>
	</g>
	<line class="st3" x1="60.41" y1="56.95" x2="60.41" y2="65.79"/>
</g>
<g>
	<g>
		<path class="st4" d="M37.48,11.54L31.11,0.5H12.08L2.56,16.98l9.51,16.48h19.03l9.51-16.48v0h12.97l13.04,32.61l0,0H12.89
			c-6.84,0-12.39,5.54-12.39,12.39s5.54,12.39,12.39,12.39h53.74l-13.04,32.62H40.62v0l-9.51,16.48H12.08l-9.51-16.48l9.51-16.48
			h19.03l6.35,11"/>
		<g>
			<g>
				<path class="st0" d="M39.81,10.01c0.77,1.33,0.31,3.03-1.02,3.8c-1.33,0.77-3.03,0.31-3.8-1.02c-0.77-1.33-0.31-3.03,1.02-3.8
					C37.34,8.22,39.04,8.68,39.81,10.01z"/>
				<path class="st5" d="M40.13,9.82c-0.87-1.51-2.8-2.02-4.31-1.15c-1.51,0.87-2.02,2.8-1.15,4.31c0.87,1.51,2.8,2.02,4.31,1.15
					C40.48,13.26,41,11.33,40.13,9.82C39.26,8.32,41,11.33,40.13,9.82z M35.31,12.61c-0.67-1.15-0.27-2.63,0.88-3.3
					c1.15-0.67,2.63-0.27,3.3,0.88c0.67,1.15,0.27,2.63-0.88,3.3S35.98,13.76,35.31,12.61C34.65,11.45,35.98,13.76,35.31,12.61z"/>
			</g>
		</g>
		<g>
			<g>
				<path class="st0" d="M34.94,102.77c0.78,1.35,2.5,1.81,3.85,1.03c1.35-0.78,1.81-2.5,1.03-3.85c-0.78-1.35-2.5-1.81-3.85-1.03
					C34.62,99.7,34.16,101.43,34.94,102.77z"/>
				<path class="st5" d="M34.61,102.96c-0.88-1.53-0.36-3.48,1.17-4.36c1.53-0.88,3.48-0.36,4.36,1.17
					c0.88,1.53,0.36,3.48-1.17,4.36C37.45,105.01,35.49,104.49,34.61,102.96C33.73,101.44,35.49,104.49,34.61,102.96z M39.5,100.14
					c-0.67-1.17-2.17-1.57-3.34-0.89s-1.57,2.17-0.89,3.34c0.67,1.17,2.17,1.57,3.34,0.89C39.77,102.81,40.17,101.31,39.5,100.14
					C38.82,98.97,40.17,101.31,39.5,100.14z"/>
			</g>
		</g>
	</g>
</g>
<g>
	<g>
		<path class="st4" d="M107.78,11.57l6.39-11.07h19.03l9.51,16.48l-9.51,16.48h-19.03l-9.51-16.48v0h-12.7L78.91,49.59v0h52.73
			c6.84,0,12.39,5.54,12.39,12.39s-5.54,12.39-12.39,12.39H78.63v0l13.04,32.61h12.97l0.02,0l9.51,16.48h19.03l9.51-16.48
			L133.2,90.5h-19.03l-6.35,11"/>
		<g>
			<g>
				<path class="st0" d="M110.23,12.81c-0.76,1.31-2.44,1.76-3.75,1c-1.31-0.76-1.76-2.44-1-3.75c0.76-1.31,2.44-1.76,3.75-1
					C110.54,9.82,110.99,11.5,110.23,12.81z"/>
				<path class="st5" d="M110.55,12.99c0.86-1.48,0.35-3.39-1.14-4.25c-1.48-0.86-3.39-0.35-4.25,1.14
					c-0.86,1.48-0.35,3.39,1.14,4.25C107.79,14.99,109.69,14.48,110.55,12.99C111.41,11.51,109.69,14.48,110.55,12.99z
					 M105.79,10.25c0.66-1.14,2.11-1.53,3.25-0.87c1.14,0.66,1.53,2.11,0.87,3.25c-0.66,1.14-2.11,1.53-3.25,0.87
					C105.53,12.84,105.14,11.38,105.79,10.25C106.45,9.11,105.14,11.38,105.79,10.25z"/>
			</g>
		</g>
		<g>
			<g>
				<path class="st0" d="M105.46,99.95c-0.78,1.35-0.32,3.07,1.03,3.85c1.35,0.78,3.07,0.32,3.85-1.03
					c0.78-1.35,0.32-3.07-1.03-3.85S106.23,98.61,105.46,99.95z"/>
				<path class="st5" d="M105.13,99.77c0.88-1.53,2.84-2.05,4.36-1.17s2.05,2.84,1.17,4.36c-0.88,1.53-2.84,2.05-4.36,1.17
					S104.25,101.29,105.13,99.77C106.01,98.24,104.25,101.29,105.13,99.77z M110.02,102.59c0.67-1.17,0.27-2.67-0.89-3.34
					s-2.67-0.27-3.34,0.89c-0.67,1.17-0.27,2.67,0.89,3.34S109.34,103.75,110.02,102.59C110.69,101.42,109.34,103.75,110.02,102.59z
					"/>
			</g>
		</g>
	</g>
</g>
<g>
</g>
<g>
</g>
<g>
</g>
<g>
</g>
<g>
</g>
<g>
</g>
<g>
</g>
</svg>
