<?xml version="1.0" encoding="utf-8"?>
<!-- Generator: Adobe Illustrator 24.0.3, SVG Export Plug-In . SVG Version: 6.00 Build 0)  -->
<svg version="1.1" id="_x2014_ÎÓÈ_x5F_1" xmlns="http://www.w3.org/2000/svg" xmlns:xlink="http://www.w3.org/1999/xlink"
	 x="0px" y="0px" viewBox="0 0 281.97 313.45" style="enable-background:new 0 0 281.97 313.45;" xml:space="preserve">
<style type="text/css">
	.st0{fill:#E6E7E8;}
	.st1{fill:#3E3E3F;}
	.st2{fill:#396CAA;}
	.st3{fill:#95D359;}
	.st4{fill:#C13D1A;}
	.st5{fill:#DB5126;}
	.st6{fill:#EF602E;}
	.st7{fill:#5793CE;}
	.st8{fill:#274F89;}
	.st9{fill:#FFFFFF;}
	.st10{fill:#E72F2C;}
	.st11{fill:#BD2623;}
	.st12{fill:#B70083;}
</style>
<g>
	<g>
		<polygon class="st0" points="109.58,139.28 124.19,130.85 109.58,122.42 94.98,130.85 94.98,130.85 80.37,139.28 94.98,147.72 
			94.98,147.72 109.58,156.15 124.19,147.72 109.58,139.28 		"/>
		<polygon class="st1" points="109.58,118.28 109.58,56.44 124.19,48 124.19,109.85 		"/>
		<polygon class="st2" points="109.58,56.44 94.98,48 94.98,109.85 109.58,118.28 		"/>
		<polygon class="st0" points="124.19,48 109.58,39.57 94.98,48 109.58,56.44 		"/>
	</g>
	<g>
		<polygon class="st3" points="124.19,121.09 109.58,112.66 109.58,118.28 124.19,126.71 		"/>
	</g>
	<g>
		<polygon class="st4" points="94.98,126.71 94.98,81.74 109.58,73.3 109.58,118.28 		"/>
		<polygon class="st5" points="94.98,81.74 80.37,73.3 80.37,118.28 94.98,126.71 		"/>
		<polygon class="st6" points="109.58,73.3 94.98,64.87 80.37,73.3 94.98,81.74 		"/>
		<polygon class="st2" points="94.98,126.71 94.98,81.74 109.58,73.3 109.58,118.28 		"/>
		<polygon class="st7" points="94.98,81.74 80.37,73.3 80.37,118.28 94.98,126.71 		"/>
		<polygon class="st0" points="109.58,73.3 94.98,64.87 80.37,73.3 94.98,81.74 		"/>
	</g>
	<g>
		<polygon class="st1" points="109.58,135.14 109.58,109.85 124.19,101.41 124.19,126.71 		"/>
		<polygon class="st2" points="109.58,109.85 94.98,101.41 94.98,126.71 109.58,135.14 		"/>
		<polygon class="st0" points="124.19,101.41 109.58,92.98 94.98,101.41 109.58,109.85 		"/>
	</g>
</g>
<g>
	<g>
		<path class="st0" d="M170.94,292.59L60.63,228.9c-3.12-1.8-2.73-4.95,0.87-7.03l75.11-43.35c3.6-2.08,9.05-2.31,12.17-0.5
			L259.1,241.7c3.12,1.8,2.73,4.95-0.87,7.03l-75.11,43.35C179.51,294.16,174.06,294.39,170.94,292.59z"/>
		<g>
			<path class="st1" d="M263.18,116.42L151.05,51.74c-1.44-0.83-2.77-0.96-3.84-0.52l0-0.01l-0.18,0.09
				c-0.01,0.01-0.03,0.01-0.04,0.02l-3.65,1.72L147.3,55c0,0.07-0.01,0.14-0.01,0.22l0.03,92.1c0,4.61,2.85,9.99,6.37,12.02
				l109.14,62.96l0.62,5.14l3.99-1.9c1.31-0.77,2.14-2.51,2.14-5l-0.03-92.1C269.55,123.83,266.7,118.45,263.18,116.42z"/>
			<path class="st2" d="M263.18,116.42L151.05,51.74c-1.44-0.83-2.77-0.96-3.84-0.52l0-0.01l-0.18,0.09
				c-0.01,0.01-0.03,0.01-0.04,0.02l-3.65,1.72L147.3,55c0,0.07-0.01,0.14-0.01,0.22l0.02,60.7l51.03,40.32l69.29-34.87
				C266.48,119.24,264.91,117.42,263.18,116.42z"/>
			<path class="st8" d="M265.05,117.87l-10.99,4.62l8.3,6.39l6.93-2.95C268.69,122.91,267.09,119.86,265.05,117.87z"/>
			<path class="st0" d="M259.53,226.95L147.4,162.26c-3.52-2.03-6.37-7.41-6.37-12.02l-0.03-92.1c0-4.61,2.85-6.7,6.37-4.67
				l112.13,64.68c3.52,2.03,6.37,7.41,6.37,12.02l0.03,92.1C265.9,226.88,263.05,228.98,259.53,226.95z"/>
			<path class="st9" d="M255.8,220.1l-104.72-60.38c-3.22-1.86-5.83-6.78-5.83-11l-0.03-84.28c0-4.22,2.61-6.13,5.82-4.28
				l104.72,60.38c3.22,1.86,5.83,6.78,5.83,11l0.03,84.28C261.62,220.04,259.02,221.95,255.8,220.1z"/>
			<path class="st9" d="M255.8,220.1l-104.72-60.38c-3.22-1.86-5.83-6.78-5.83-11l-0.03-84.28c0-4.22,2.61-6.13,5.82-4.28
				l104.72,60.38c3.22,1.86,5.83,6.78,5.83,11l0.03,84.28C261.62,220.04,259.02,221.95,255.8,220.1z"/>
		</g>
		<path class="st1" d="M261.2,229.81l-15.08-1.99l-97.34-56.2c-3.12-1.8-8.57-1.58-12.17,0.5l-68.97,39.81l-9.12-1.2v5.17l0.01,0
			c-0.06,1.2,0.62,2.35,2.09,3.2l110.31,63.69c3.12,1.8,8.57,1.58,12.17-0.5l75.11-43.35c2.03-1.17,3.04-2.68,2.98-4.09l0,0V229.81z
			"/>
		<path class="st2" d="M188.07,194.3l-6.92-3.99h-76.03l-37.48,21.63l-9.12-1.2v5.17l0.01,0c-0.06,1.2,0.62,2.35,2.09,3.2
			l110.31,63.69c1.65,0.95,3.95,1.33,6.28,1.18L188.07,194.3z"/>
		<path class="st7" d="M62.57,211.26l-4.05-0.53v5.17l0.01,0c-0.06,1.2,0.62,2.35,2.09,3.2l1.94,1.12V211.26z"/>
		<path class="st8" d="M172.05,283.3c2.96,1.12,7.19,0.88,10.34-0.64v-11.54h-10.34V283.3z"/>
		<path class="st0" d="M170.94,277.62L60.63,213.93c-3.12-1.8-2.73-4.95,0.87-7.03l75.11-43.35c3.6-2.08,9.05-2.31,12.17-0.5
			l110.31,63.69c3.12,1.8,2.73,4.95-0.87,7.03l-75.11,43.35C179.51,279.19,174.06,279.42,170.94,277.62z"/>
		<path class="st9" d="M258.22,231.87l-75.11,43.35c-3.6,2.08-9.05,2.31-12.17,0.51L60.63,212.04c-1.02-0.59-1.66-1.33-1.94-2.12
			c-0.49,1.48,0.13,2.97,1.94,4.01l110.31,63.69c3.12,1.8,8.57,1.58,12.17-0.5l75.11-43.35c2.42-1.4,3.39-3.28,2.81-4.91
			C260.68,229.93,259.74,230.99,258.22,231.87z"/>
		<g>
			<path class="st1" d="M107.54,192.85l-4.99-2.88c-0.4-0.23-0.35-0.64,0.11-0.9l5.89-3.4c0.46-0.27,1.16-0.3,1.56-0.06l4.99,2.88
				c0.4,0.23,0.35,0.64-0.11,0.9l-5.89,3.4C108.64,193.05,107.94,193.08,107.54,192.85z"/>
			<path class="st1" d="M115.25,197.3l-4.99-2.88c-0.4-0.23-0.35-0.64,0.11-0.9l5.89-3.4c0.46-0.27,1.16-0.3,1.56-0.06l4.99,2.88
				c0.4,0.23,0.35,0.64-0.11,0.9l-5.89,3.4C116.35,197.5,115.65,197.53,115.25,197.3z"/>
			<path class="st1" d="M122.96,201.75l-4.99-2.88c-0.4-0.23-0.35-0.64,0.11-0.9l5.89-3.4c0.46-0.27,1.16-0.3,1.56-0.06l4.99,2.88
				c0.4,0.23,0.35,0.64-0.11,0.9l-5.89,3.4C124.06,201.95,123.36,201.98,122.96,201.75z"/>
			<path class="st1" d="M133.62,198.07l-4.99-2.88c-0.4-0.23-0.35-0.64,0.11-0.9l4.95-2.86c0.46-0.27,1.16-0.3,1.56-0.06l4.99,2.88
				c0.4,0.23,0.35,0.64-0.11,0.9l-4.95,2.86C134.72,198.27,134.02,198.3,133.62,198.07z"/>
			<path class="st1" d="M141.33,202.52l-4.99-2.88c-0.4-0.23-0.35-0.64,0.11-0.9l4.95-2.86c0.46-0.27,1.16-0.3,1.56-0.06l4.99,2.88
				c0.4,0.23,0.35,0.64-0.11,0.9l-4.95,2.86C142.43,202.72,141.73,202.75,141.33,202.52z"/>
			<path class="st1" d="M149.03,206.97l-4.99-2.88c-0.4-0.23-0.35-0.64,0.11-0.9l4.95-2.86c0.46-0.27,1.16-0.3,1.56-0.06l4.99,2.88
				c0.4,0.23,0.35,0.64-0.11,0.9l-4.95,2.86C150.14,207.17,149.44,207.2,149.03,206.97z"/>
			<path class="st1" d="M156.74,211.42l-4.99-2.88c-0.4-0.23-0.35-0.64,0.11-0.9l4.95-2.86c0.46-0.27,1.16-0.3,1.56-0.06l4.99,2.88
				c0.4,0.23,0.35,0.64-0.11,0.9l-4.95,2.86C157.84,211.62,157.14,211.65,156.74,211.42z"/>
			<path class="st1" d="M164.45,215.87l-4.99-2.88c-0.4-0.23-0.35-0.64,0.11-0.9l4.95-2.86c0.46-0.27,1.16-0.3,1.56-0.06l4.99,2.88
				c0.4,0.23,0.35,0.64-0.11,0.9l-4.95,2.86C165.55,216.07,164.85,216.1,164.45,215.87z"/>
			<path class="st1" d="M172.16,220.32l-4.99-2.88c-0.4-0.23-0.35-0.64,0.11-0.9l4.95-2.86c0.46-0.27,1.16-0.3,1.56-0.06l4.99,2.88
				c0.4,0.23,0.35,0.64-0.11,0.9l-4.95,2.86C173.26,220.52,172.56,220.55,172.16,220.32z"/>
			<path class="st1" d="M179.87,224.77l-4.99-2.88c-0.4-0.23-0.35-0.64,0.11-0.9l4.95-2.86c0.46-0.27,1.16-0.3,1.56-0.06l4.99,2.88
				c0.4,0.23,0.35,0.64-0.11,0.9l-4.95,2.86C180.97,224.97,180.27,225,179.87,224.77z"/>
			<path class="st1" d="M187.57,229.22l-4.99-2.88c-0.4-0.23-0.35-0.64,0.11-0.9l4.95-2.86c0.46-0.27,1.16-0.3,1.56-0.06l4.99,2.88
				c0.4,0.23,0.35,0.64-0.11,0.9l-4.95,2.86C188.67,229.42,187.97,229.45,187.57,229.22z"/>
			<path class="st1" d="M195.28,233.67l-4.99-2.88c-0.4-0.23-0.35-0.64,0.11-0.9l4.95-2.86c0.46-0.27,1.16-0.3,1.56-0.06l4.99,2.88
				c0.4,0.23,0.35,0.64-0.11,0.9l-4.95,2.86C196.38,233.87,195.68,233.9,195.28,233.67z"/>
			<path class="st1" d="M202.99,238.12l-4.99-2.88c-0.4-0.23-0.35-0.64,0.11-0.9l4.95-2.86c0.46-0.27,1.16-0.3,1.56-0.06l4.99,2.88
				c0.4,0.23,0.35,0.64-0.11,0.9l-4.95,2.86C204.09,238.32,203.39,238.35,202.99,238.12z"/>
			<path class="st2" d="M144.98,195.96l-4.99-2.88c-0.4-0.23-0.35-0.64,0.11-0.9l4.95-2.86c0.46-0.27,1.16-0.3,1.56-0.06l4.99,2.88
				c0.4,0.23,0.35,0.64-0.11,0.9l-4.95,2.86C146.08,196.17,145.38,196.19,144.98,195.96z"/>
			<path class="st2" d="M137.15,191.45l-4.99-2.88c-0.4-0.23-0.35-0.64,0.11-0.9l4.95-2.86c0.46-0.27,1.16-0.3,1.56-0.06l4.99,2.88
				c0.4,0.23,0.35,0.64-0.11,0.9l-4.95,2.86C138.25,191.65,137.55,191.68,137.15,191.45z"/>
			<path class="st1" d="M129.32,186.92l-10.75-6.21c-0.4-0.23-0.35-0.64,0.11-0.9l4.95-2.86c0.46-0.27,1.16-0.3,1.56-0.06
				l10.75,6.21c0.4,0.23,0.35,0.64-0.11,0.9l-4.95,2.86C130.42,187.13,129.72,187.15,129.32,186.92z"/>
			<path class="st1" d="M134.79,181.42l-8.72-5.04c-0.4-0.23-0.35-0.64,0.11-0.9l4.95-2.86c0.46-0.27,1.16-0.3,1.56-0.06l8.72,5.04
				c0.4,0.23,0.35,0.64-0.11,0.9l-4.95,2.86C135.9,181.62,135.2,181.65,134.79,181.42z"/>
			<path class="st2" d="M152.68,200.41l-4.99-2.88c-0.4-0.23-0.35-0.64,0.11-0.9l4.95-2.86c0.46-0.27,1.16-0.3,1.56-0.06l4.99,2.88
				c0.4,0.23,0.35,0.64-0.11,0.9l-4.95,2.86C153.78,200.62,153.08,200.64,152.68,200.41z"/>
			<path class="st1" d="M160.39,204.86l-4.99-2.88c-0.4-0.23-0.35-0.64,0.11-0.9l4.95-2.86c0.46-0.27,1.16-0.3,1.56-0.06l4.99,2.88
				c0.4,0.23,0.35,0.64-0.11,0.9l-4.95,2.86C161.49,205.07,160.79,205.1,160.39,204.86z"/>
			<path class="st1" d="M168.1,209.31l-4.99-2.88c-0.4-0.23-0.35-0.64,0.11-0.9l4.95-2.86c0.46-0.27,1.16-0.3,1.56-0.06l4.99,2.88
				c0.4,0.23,0.35,0.64-0.11,0.9l-4.95,2.86C169.2,209.52,168.5,209.55,168.1,209.31z"/>
			<path class="st1" d="M175.81,213.76l-4.99-2.88c-0.4-0.23-0.35-0.64,0.11-0.9l4.95-2.86c0.46-0.27,1.16-0.3,1.56-0.06l4.99,2.88
				c0.4,0.23,0.35,0.64-0.11,0.9l-4.95,2.86C176.91,213.97,176.21,214,175.81,213.76z"/>
			<path class="st1" d="M183.51,218.21l-4.99-2.88c-0.4-0.23-0.35-0.64,0.11-0.9l4.95-2.86c0.46-0.27,1.16-0.3,1.56-0.06l4.99,2.88
				c0.4,0.23,0.35,0.64-0.11,0.9l-4.95,2.86C184.62,218.42,183.92,218.45,183.51,218.21z"/>
			<path class="st1" d="M191.22,222.66l-4.99-2.88c-0.4-0.23-0.35-0.64,0.11-0.9l4.95-2.86c0.46-0.27,1.16-0.3,1.56-0.06l4.99,2.88
				c0.4,0.23,0.35,0.64-0.11,0.9l-4.95,2.86C192.32,222.87,191.62,222.9,191.22,222.66z"/>
			<path class="st1" d="M198.93,227.11l-4.99-2.88c-0.4-0.23-0.35-0.64,0.11-0.9l4.95-2.86c0.46-0.27,1.16-0.3,1.56-0.06l4.99,2.88
				c0.4,0.23,0.35,0.64-0.11,0.9l-4.95,2.86C200.03,227.32,199.33,227.35,198.93,227.11z"/>
			<path class="st1" d="M206.64,231.56l-4.99-2.88c-0.4-0.23-0.35-0.64,0.11-0.9l4.95-2.86c0.46-0.27,1.16-0.3,1.56-0.06l4.99,2.88
				c0.4,0.23,0.35,0.64-0.11,0.9l-4.95,2.86C207.74,231.77,207.04,231.8,206.64,231.56z"/>
			<path class="st1" d="M214.35,236.01l-4.99-2.88c-0.4-0.23-0.35-0.64,0.11-0.9l4.95-2.86c0.46-0.27,1.16-0.3,1.56-0.06l4.99,2.88
				c0.4,0.23,0.35,0.64-0.11,0.9l-4.95,2.86C215.45,236.22,214.75,236.25,214.35,236.01z"/>
			<path class="st1" d="M228.05,243.93l-10.89-6.29c-0.4-0.23-0.35-0.64,0.11-0.9l4.95-2.86c0.46-0.27,1.16-0.3,1.56-0.06
				l10.89,6.29c0.4,0.23,0.35,0.64-0.11,0.9l-4.95,2.86C229.15,244.13,228.45,244.16,228.05,243.93z"/>
			<path class="st1" d="M243.05,235.26l-9.19-5.31c-0.4-0.23-0.35-0.64,0.11-0.9l4.95-2.86c0.46-0.27,1.16-0.3,1.56-0.06l9.19,5.31
				c0.4,0.23,0.35,0.64-0.11,0.9l-4.95,2.86C244.16,235.46,243.46,235.49,243.05,235.26z"/>
			<path class="st1" d="M166.18,199.54l-4.99-2.88c-0.4-0.23-0.35-0.64,0.11-0.9l4.95-2.86c0.46-0.27,1.16-0.3,1.56-0.06l4.99,2.88
				c0.4,0.23,0.35,0.64-0.11,0.9l-4.95,2.86C167.28,199.75,166.58,199.77,166.18,199.54z"/>
			<path class="st1" d="M158.28,194.98l-4.99-2.88c-0.4-0.23-0.35-0.64,0.11-0.9l4.95-2.86c0.46-0.27,1.16-0.3,1.56-0.06l4.99,2.88
				c0.4,0.23,0.35,0.64-0.11,0.9l-4.95,2.86C159.38,195.18,158.68,195.21,158.28,194.98z"/>
			<path class="st2" d="M150.38,190.42l-4.99-2.88c-0.4-0.23-0.35-0.64,0.11-0.9l4.95-2.86c0.46-0.27,1.16-0.3,1.56-0.06l4.99,2.88
				c0.4,0.23,0.35,0.64-0.11,0.9l-4.95,2.86C151.48,190.62,150.78,190.65,150.38,190.42z"/>
			<path class="st1" d="M142.48,185.86l-4.99-2.88c-0.4-0.23-0.35-0.64,0.11-0.9l4.95-2.86c0.46-0.27,1.16-0.3,1.56-0.06l4.99,2.88
				c0.4,0.23,0.35,0.64-0.11,0.9l-4.95,2.86C143.58,186.06,142.88,186.09,142.48,185.86z"/>
			<path class="st1" d="M173.89,203.99l-4.99-2.88c-0.4-0.23-0.35-0.64,0.11-0.9l4.95-2.86c0.46-0.27,1.16-0.3,1.56-0.06l4.99,2.88
				c0.4,0.23,0.35,0.64-0.11,0.9l-4.95,2.86C174.99,204.2,174.29,204.22,173.89,203.99z"/>
			<path class="st1" d="M181.6,208.44l-4.99-2.88c-0.4-0.23-0.35-0.64,0.11-0.9l4.95-2.86c0.46-0.27,1.16-0.3,1.56-0.06l4.99,2.88
				c0.4,0.23,0.35,0.64-0.11,0.9l-4.95,2.86C182.7,208.65,182,208.67,181.6,208.44z"/>
			<path class="st1" d="M189.3,212.89l-4.99-2.88c-0.4-0.23-0.35-0.64,0.11-0.9l4.95-2.86c0.46-0.27,1.16-0.3,1.56-0.06l4.99,2.88
				c0.4,0.23,0.35,0.64-0.11,0.9l-4.95,2.86C190.41,213.1,189.71,213.12,189.3,212.89z"/>
			<path class="st1" d="M197.01,217.34l-4.99-2.88c-0.4-0.23-0.35-0.64,0.11-0.9l4.95-2.86c0.46-0.27,1.16-0.3,1.56-0.06l4.99,2.88
				c0.4,0.23,0.35,0.64-0.11,0.9l-4.95,2.86C198.11,217.55,197.41,217.57,197.01,217.34z"/>
			<path class="st1" d="M204.72,221.79l-4.99-2.88c-0.4-0.23-0.35-0.64,0.11-0.9l4.95-2.86c0.46-0.27,1.16-0.3,1.56-0.06l4.99,2.88
				c0.4,0.23,0.35,0.64-0.11,0.9l-4.95,2.86C205.82,222,205.12,222.02,204.72,221.79z"/>
			<path class="st1" d="M212.43,226.24l-4.99-2.88c-0.4-0.23-0.35-0.64,0.11-0.9l4.95-2.86c0.46-0.27,1.16-0.3,1.56-0.06l4.99,2.88
				c0.4,0.23,0.35,0.64-0.11,0.9l-4.95,2.86C213.53,226.45,212.83,226.47,212.43,226.24z"/>
			<path class="st1" d="M220.14,230.69l-4.99-2.88c-0.4-0.23-0.35-0.64,0.11-0.9l4.95-2.86c0.46-0.27,1.16-0.3,1.56-0.06l4.99,2.88
				c0.4,0.23,0.35,0.64-0.11,0.9l-4.95,2.86C221.24,230.9,220.54,230.92,220.14,230.69z"/>
			<path class="st1" d="M227.84,235.14l-4.99-2.88c-0.4-0.23-0.35-0.64,0.11-0.9l4.95-2.86c0.46-0.27,1.16-0.3,1.56-0.06l4.99,2.88
				c0.4,0.23,0.35,0.64-0.11,0.9l-4.95,2.86C228.94,235.35,228.24,235.37,227.84,235.14z"/>
			<path class="st1" d="M235.55,239.59l-4.99-2.88c-0.4-0.23-0.35-0.64,0.11-0.9l4.95-2.86c0.46-0.27,1.16-0.3,1.56-0.06l4.99,2.88
				c0.4,0.23,0.35,0.64-0.11,0.9l-4.95,2.86C236.65,239.8,235.95,239.82,235.55,239.59z"/>
			<path class="st1" d="M162.12,188.54l-4.99-2.88c-0.4-0.23-0.35-0.64,0.11-0.9l4.95-2.86c0.46-0.27,1.16-0.3,1.56-0.06l4.99,2.88
				c0.4,0.23,0.35,0.64-0.11,0.9l-4.95,2.86C163.22,188.74,162.52,188.77,162.12,188.54z"/>
			<path class="st1" d="M154.45,184.11l-4.99-2.88c-0.4-0.23-0.35-0.64,0.11-0.9l4.95-2.86c0.46-0.27,1.16-0.3,1.56-0.06l4.99,2.88
				c0.4,0.23,0.35,0.64-0.11,0.9l-4.95,2.86C155.55,184.31,154.85,184.34,154.45,184.11z"/>
			<path class="st1" d="M146.78,179.68l-4.99-2.88c-0.4-0.23-0.35-0.64,0.11-0.9l4.95-2.86c0.46-0.27,1.16-0.3,1.56-0.06l4.99,2.88
				c0.4,0.23,0.35,0.64-0.11,0.9l-4.95,2.86C147.88,179.88,147.18,179.91,146.78,179.68z"/>
			<path class="st1" d="M139.11,175.25l-4.99-2.88c-0.4-0.23-0.35-0.64,0.11-0.9l4.95-2.86c0.46-0.27,1.16-0.3,1.56-0.06l4.99,2.88
				c0.4,0.23,0.35,0.64-0.11,0.9l-4.95,2.86C140.22,175.45,139.52,175.48,139.11,175.25z"/>
			<path class="st1" d="M147,170.7l-4.99-2.88c-0.4-0.23-0.35-0.64,0.11-0.9l1.63-0.94c0.46-0.27,1.16-0.3,1.56-0.06l4.99,2.88
				c0.4,0.23,0.35,0.64-0.11,0.9l-1.63,0.94C148.1,170.9,147.4,170.93,147,170.7z"/>
			<path class="st1" d="M157.01,176.48l-4.99-2.88c-0.4-0.23-0.35-0.64,0.11-0.9l1.63-0.94c0.46-0.27,1.16-0.3,1.56-0.06l4.99,2.88
				c0.4,0.23,0.35,0.64-0.11,0.9l-1.63,0.94C158.11,176.68,157.41,176.71,157.01,176.48z"/>
			<path class="st1" d="M164.65,180.89l-4.99-2.88c-0.4-0.23-0.35-0.64,0.11-0.9l1.63-0.94c0.46-0.27,1.16-0.3,1.56-0.06l4.99,2.88
				c0.4,0.23,0.35,0.64-0.11,0.9l-1.63,0.94C165.75,181.09,165.05,181.12,164.65,180.89z"/>
			<path class="st1" d="M172.28,185.3l-4.99-2.88c-0.4-0.23-0.35-0.64,0.11-0.9l1.63-0.94c0.46-0.27,1.16-0.3,1.56-0.06l4.99,2.88
				c0.4,0.23,0.35,0.64-0.11,0.9l-1.63,0.94C173.39,185.5,172.69,185.53,172.28,185.3z"/>
			<path class="st1" d="M179.92,189.71l-4.99-2.88c-0.4-0.23-0.35-0.64,0.11-0.9l1.63-0.94c0.46-0.27,1.16-0.3,1.56-0.06l4.99,2.88
				c0.4,0.23,0.35,0.64-0.11,0.9l-1.63,0.94C181.02,189.91,180.32,189.94,179.92,189.71z"/>
			<path class="st1" d="M222.56,214.32l-4.99-2.88c-0.4-0.23-0.35-0.64,0.11-0.9l1.63-0.94c0.46-0.27,1.16-0.3,1.56-0.06l4.99,2.88
				c0.4,0.23,0.35,0.64-0.11,0.9l-1.63,0.94C223.66,214.53,222.96,214.55,222.56,214.32z"/>
			<path class="st1" d="M230.2,218.73l-4.99-2.88c-0.4-0.23-0.35-0.64,0.11-0.9l1.63-0.94c0.46-0.27,1.16-0.3,1.56-0.06l4.99,2.88
				c0.4,0.23,0.35,0.64-0.11,0.9l-1.63,0.94C231.3,218.94,230.6,218.96,230.2,218.73z"/>
			<path class="st1" d="M237.84,223.14l-4.99-2.88c-0.4-0.23-0.35-0.64,0.11-0.9l1.63-0.94c0.46-0.27,1.16-0.3,1.56-0.06l4.99,2.88
				c0.4,0.23,0.35,0.64-0.11,0.9l-1.63,0.94C238.94,223.34,238.24,223.37,237.84,223.14z"/>
			<path class="st1" d="M245.47,227.55l-4.99-2.88c-0.4-0.23-0.35-0.64,0.11-0.9l1.63-0.94c0.46-0.27,1.16-0.3,1.56-0.06l4.99,2.88
				c0.4,0.23,0.35,0.64-0.11,0.9l-1.63,0.94C246.57,227.75,245.87,227.78,245.47,227.55z"/>
			<path class="st1" d="M169.83,192.99l-4.99-2.88c-0.4-0.23-0.35-0.64,0.11-0.9l4.95-2.86c0.46-0.27,1.16-0.3,1.56-0.06l4.99,2.88
				c0.4,0.23,0.35,0.64-0.11,0.9l-4.95,2.86C170.93,193.19,170.23,193.22,169.83,192.99z"/>
			<path class="st1" d="M177.54,197.44l-4.99-2.88c-0.4-0.23-0.35-0.64,0.11-0.9l4.95-2.86c0.46-0.27,1.16-0.3,1.56-0.06l4.99,2.88
				c0.4,0.23,0.35,0.64-0.11,0.9l-4.95,2.86C178.64,197.64,177.94,197.67,177.54,197.44z"/>
			<path class="st1" d="M185.25,201.89l-4.99-2.88c-0.4-0.23-0.35-0.64,0.11-0.9l4.95-2.86c0.46-0.27,1.16-0.3,1.56-0.06l4.99,2.88
				c0.4,0.23,0.35,0.64-0.11,0.9l-4.95,2.86C186.35,202.09,185.65,202.12,185.25,201.89z"/>
			<path class="st1" d="M192.95,206.34l-4.99-2.88c-0.4-0.23-0.35-0.64,0.11-0.9l4.95-2.86c0.46-0.27,1.16-0.3,1.56-0.06l4.99,2.88
				c0.4,0.23,0.35,0.64-0.11,0.9l-4.95,2.86C194.05,206.54,193.35,206.57,192.95,206.34z"/>
			<path class="st1" d="M200.66,210.79l-4.99-2.88c-0.4-0.23-0.35-0.64,0.11-0.9l4.95-2.86c0.46-0.27,1.16-0.3,1.56-0.06l4.99,2.88
				c0.4,0.23,0.35,0.64-0.11,0.9l-4.95,2.86C201.76,210.99,201.06,211.02,200.66,210.79z"/>
			<path class="st1" d="M208.37,215.24l-4.99-2.88c-0.4-0.23-0.35-0.64,0.11-0.9l4.95-2.86c0.46-0.27,1.16-0.3,1.56-0.06l4.99,2.88
				c0.4,0.23,0.35,0.64-0.11,0.9l-4.95,2.86C209.47,215.44,208.77,215.47,208.37,215.24z"/>
			<path class="st1" d="M216.08,219.69l-4.99-2.88c-0.4-0.23-0.35-0.64,0.11-0.9l4.95-2.86c0.46-0.27,1.16-0.3,1.56-0.06l4.99,2.88
				c0.4,0.23,0.35,0.64-0.11,0.9l-4.95,2.86C217.18,219.89,216.48,219.92,216.08,219.69z"/>
			<path class="st1" d="M223.79,224.14l-4.99-2.88c-0.4-0.23-0.35-0.64,0.11-0.9l4.95-2.86c0.46-0.27,1.16-0.3,1.56-0.06l4.99,2.88
				c0.4,0.23,0.35,0.64-0.11,0.9l-4.95,2.86C224.89,224.34,224.19,224.37,223.79,224.14z"/>
			<path class="st1" d="M231.49,228.59l-4.99-2.88c-0.4-0.23-0.35-0.64,0.11-0.9l4.95-2.86c0.46-0.27,1.16-0.3,1.56-0.06l4.99,2.88
				c0.4,0.23,0.35,0.64-0.11,0.9l-4.95,2.86C232.59,228.79,231.89,228.82,231.49,228.59z"/>
			<path class="st1" d="M125.76,193.54l-14.7-8.49c-0.4-0.23-0.35-0.64,0.11-0.9l4.95-2.86c0.46-0.27,1.16-0.3,1.56-0.06l14.7,8.49
				c0.4,0.23,0.35,0.64-0.11,0.9l-4.95,2.86C126.86,193.74,126.16,193.77,125.76,193.54z"/>
			<path class="st1" d="M220.46,248.21l-14.7-8.49c-0.4-0.23-0.35-0.64,0.11-0.9l4.95-2.86c0.46-0.27,1.16-0.3,1.56-0.06l14.7,8.49
				c0.4,0.23,0.35,0.64-0.11,0.9l-4.95,2.86C221.56,248.41,220.86,248.44,220.46,248.21z"/>
			<path class="st1" d="M189.63,240.24l-4.99-2.88c-0.4-0.23-0.35-0.64,0.11-0.9l5.89-3.4c0.46-0.27,1.16-0.3,1.56-0.06l4.99,2.88
				c0.4,0.23,0.35,0.64-0.11,0.9l-5.89,3.4C190.73,240.44,190.03,240.47,189.63,240.24z"/>
			<path class="st1" d="M133.66,207.92l-7.98-4.61c-0.4-0.23-0.35-0.64,0.11-0.9l5.89-3.4c0.46-0.27,1.16-0.3,1.56-0.06l7.98,4.61
				c0.4,0.23,0.35,0.64-0.11,0.9l-5.89,3.4C134.76,208.12,134.06,208.15,133.66,207.92z"/>
			<path class="st1" d="M182.2,235.95l-7.98-4.61c-0.4-0.23-0.35-0.64,0.11-0.9l5.89-3.4c0.46-0.27,1.16-0.3,1.56-0.06l7.98,4.61
				c0.4,0.23,0.35,0.64-0.11,0.9l-5.89,3.4C183.31,236.15,182.61,236.18,182.2,235.95z"/>
			<path class="st1" d="M144.78,214.34l-7.98-4.61c-0.4-0.23-0.35-0.64,0.11-0.9l5.89-3.4c0.46-0.27,1.16-0.3,1.56-0.06l7.98,4.61
				c0.4,0.23,0.35,0.64-0.11,0.9l-5.89,3.4C145.88,214.55,145.18,214.57,144.78,214.34z"/>
			<path class="st1" d="M144.42,205.4l34.7,20.04c0.43,0.25,0.43,0.65,0,0.9l-6.01,3.47c-0.43,0.25-1.13,0.25-1.56,0l-34.7-20.04
				L144.42,205.4z"/>
			<path class="st1" d="M211.17,248.31l5.56,3.21c0.33,0.19,0.29,0.52-0.09,0.74l-2.41,1.39c-0.38,0.22-0.95,0.24-1.28,0.05
				l-5.56-3.21c-0.33-0.19-0.29-0.52,0.09-0.74l2.41-1.39C210.27,248.14,210.84,248.12,211.17,248.31z"/>
			<path class="st1" d="M203.4,243.82l5.56,3.21c0.33,0.19,0.29,0.52-0.09,0.74l-2.41,1.39c-0.38,0.22-0.95,0.24-1.28,0.05
				l-5.56-3.21c-0.33-0.19-0.29-0.52,0.09-0.74l2.41-1.39C202.5,243.65,203.07,243.63,203.4,243.82z"/>
			<path class="st1" d="M195.69,239.37l5.56,3.21c0.33,0.19,0.29,0.52-0.09,0.74l-2.41,1.39c-0.38,0.22-0.95,0.24-1.28,0.05
				l-5.56-3.21c-0.33-0.19-0.29-0.52,0.09-0.74l2.41-1.39C194.79,239.2,195.37,239.18,195.69,239.37z"/>
			<path class="st1" d="M207.66,241.36l5.56,3.21c0.33,0.19,0.29,0.52-0.09,0.74l-2.41,1.39c-0.38,0.22-0.95,0.24-1.28,0.05
				l-5.56-3.21c-0.33-0.19-0.29-0.52,0.09-0.74l2.41-1.39C206.76,241.2,207.33,241.17,207.66,241.36z"/>
		</g>
	</g>
	<g>
		<g>
			<path class="st0" d="M215.93,131.79l-4.77-2.76c-0.44-0.26-0.81-0.95-0.82-1.54l0,0c-0.01-0.59,0.34-0.87,0.78-0.61l4.77,2.76
				c0.44,0.26,0.81,0.95,0.82,1.54l0,0C216.73,131.77,216.38,132.04,215.93,131.79z"/>
			<path class="st0" d="M227.3,138.35l-7.04-4.06c-0.44-0.26-0.81-0.95-0.82-1.54l0,0c-0.01-0.59,0.34-0.87,0.78-0.61l7.04,4.06
				c0.44,0.26,0.81,0.95,0.82,1.54l0,0C228.1,138.33,227.75,138.61,227.3,138.35z"/>
			<path class="st0" d="M213.57,157.24l-4.77-2.76c-0.44-0.26-0.81-0.95-0.82-1.54l0,0c-0.01-0.59,0.34-0.87,0.78-0.61l4.77,2.76
				c0.44,0.26,0.81,0.95,0.82,1.54l0,0C214.36,157.22,214.01,157.5,213.57,157.24z"/>
			<path class="st0" d="M223.7,163.09l-7.04-4.06c-0.44-0.26-0.81-0.95-0.82-1.54l0,0c-0.01-0.59,0.34-0.87,0.78-0.61l7.04,4.06
				c0.44,0.26,0.81,0.95,0.82,1.54l0,0C224.5,163.07,224.15,163.35,223.7,163.09z"/>
			<path class="st0" d="M202.84,128.7l-2.98-1.72c-0.44-0.26-0.81-0.95-0.82-1.54l0,0c-0.01-0.59,0.34-0.87,0.78-0.61l2.98,1.72
				c0.44,0.26,0.81,0.95,0.82,1.54l0,0C203.64,128.68,203.29,128.95,202.84,128.7z"/>
			<path class="st0" d="M213.03,139.05l-9.11-5.26c-0.44-0.26-0.81-0.95-0.82-1.54l0,0c-0.01-0.59,0.34-0.87,0.78-0.61l9.11,5.26
				c0.44,0.26,0.81,0.95,0.82,1.54l0,0C213.82,139.03,213.47,139.3,213.03,139.05z"/>
			<path class="st0" d="M207.04,144.53l-2.98-1.72c-0.44-0.26-0.81-0.95-0.82-1.54l0,0c-0.01-0.59,0.34-0.87,0.78-0.61l2.98,1.72
				c0.44,0.26,0.81,0.95,0.82,1.54l0,0C207.84,144.51,207.49,144.79,207.04,144.53z"/>
			<path class="st0" d="M227.22,174.07l-7.96-4.6c-0.44-0.26-0.81-0.95-0.82-1.54l0,0c-0.01-0.59,0.34-0.87,0.78-0.61l7.96,4.6
				c0.44,0.26,0.81,0.95,0.82,1.54l0,0C228.02,174.05,227.67,174.32,227.22,174.07z"/>
			<path class="st0" d="M206.12,152.94l-1.91-1.11c-0.44-0.26-0.81-0.95-0.82-1.54l0,0c-0.01-0.59,0.34-0.87,0.78-0.61l1.91,1.11
				c0.44,0.26,0.81,0.95,0.82,1.54l0,0C206.92,152.92,206.56,153.2,206.12,152.94z"/>
			<path class="st0" d="M206.73,162.23l-2.38-1.37c-0.44-0.26-0.81-0.95-0.82-1.54l0,0c-0.01-0.59,0.34-0.87,0.78-0.61l2.38,1.37
				c0.44,0.26,0.81,0.95,0.82,1.54l0,0C207.53,162.22,207.17,162.49,206.73,162.23z"/>
			<path class="st0" d="M215.98,167.57l-6.27-3.62c-0.44-0.26-0.81-0.95-0.82-1.54l0,0c-0.01-0.59,0.34-0.87,0.78-0.61l6.27,3.62
				c0.44,0.26,0.81,0.95,0.82,1.54l0,0C216.77,167.55,216.42,167.83,215.98,167.57z"/>
			<path class="st0" d="M208.93,167.98l-4.51-2.6c-0.44-0.26-0.81-0.95-0.82-1.54l0,0c-0.01-0.59,0.34-0.87,0.78-0.61l4.51,2.6
				c0.44,0.26,0.81,0.95,0.82,1.54l0,0C209.73,167.96,209.38,168.23,208.93,167.98z"/>
			<path class="st0" d="M234.06,178.03l-2.89-1.67c-0.44-0.26-0.81-0.95-0.82-1.54l0,0c-0.01-0.59,0.34-0.87,0.78-0.61l2.89,1.67
				c0.44,0.26,0.81,0.95,0.82,1.54l0,0C234.86,178.01,234.5,178.29,234.06,178.03z"/>
			<path class="st0" d="M218.14,150.94l-7.96-4.6c-0.44-0.26-0.81-0.95-0.82-1.54l0,0c-0.01-0.59,0.34-0.87,0.78-0.61l7.96,4.6
				c0.44,0.26,0.81,0.95,0.82,1.54l0,0C218.93,150.92,218.58,151.19,218.14,150.94z"/>
			<path class="st0" d="M217.87,146.31l-13.88-8.01c-0.44-0.26-0.81-0.95-0.82-1.54l0,0c-0.01-0.59,0.34-0.87,0.78-0.61l13.88,8.01
				c0.44,0.26,0.81,0.95,0.82,1.54l0,0C218.66,146.3,218.31,146.57,217.87,146.31z"/>
			<path class="st0" d="M212.1,151.92l-7.96-4.6c-0.44-0.26-0.81-0.95-0.82-1.54l0,0c-0.01-0.59,0.34-0.87,0.78-0.61l7.96,4.6
				c0.44,0.26,0.81,0.95,0.82,1.54l0,0C212.89,151.9,212.54,152.18,212.1,151.92z"/>
			<path class="st0" d="M224.18,154.43l-2.89-1.67c-0.44-0.26-0.81-0.95-0.82-1.54l0,0c-0.01-0.59,0.34-0.87,0.78-0.61l2.89,1.67
				c0.44,0.26,0.81,0.95,0.82,1.54l0,0C224.97,154.41,224.62,154.68,224.18,154.43z"/>
			<path class="st0" d="M248.77,150.75l-17.14-9.89c-0.44-0.26-0.81-0.95-0.82-1.54l0,0c-0.01-0.59,0.34-0.87,0.78-0.61l17.14,9.89
				c0.44,0.26,0.81,0.95,0.82,1.54l0,0C249.57,150.73,249.22,151,248.77,150.75z"/>
			<path class="st0" d="M213.86,161.88l-9.57-5.53c-0.44-0.26-0.81-0.95-0.82-1.54l0,0c-0.01-0.59,0.34-0.87,0.78-0.61l9.57,5.53
				c0.44,0.26,0.81,0.95,0.82,1.54l0,0C214.65,161.86,214.3,162.13,213.86,161.88z"/>
			<path class="st0" d="M206.83,126.53l-7.04-4.06c-0.44-0.26-0.81-0.95-0.82-1.54l0,0c-0.01-0.59,0.34-0.87,0.78-0.61l7.04,4.06
				c0.44,0.26,0.81,0.95,0.82,1.54l0,0C207.62,126.51,207.27,126.78,206.83,126.53z"/>
			<path class="st0" d="M208.67,172.3l-8.15-4.71c-0.44-0.26-0.81-0.95-0.82-1.54l0,0c-0.01-0.59,0.34-0.87,0.78-0.61l8.15,4.71
				c0.44,0.26,0.81,0.95,0.82,1.54l0,0C209.47,172.28,209.11,172.55,208.67,172.3z"/>
		</g>
	</g>
</g>
<g>
	<g>
		<path class="st0" d="M0.23,179.38l41.99-24.45c8.32-4.8,16.16-5.56,22.09-2.14c5.92,3.42,9.19,10.6,9.19,20.2v3.08
			c-0.3,0.2-0.61,0.4-0.93,0.59v-3.67c0-9.26-3.1-16.15-8.73-19.4c-5.63-3.25-13.14-2.49-21.16,2.14L0.69,180.18
			c-0.22,0.13-0.5,0.05-0.63-0.17C-0.07,179.79,0.01,179.51,0.23,179.38z"/>
		<path class="st0" d="M131.18,150.26V55.63c0-18.94,13.35-42.06,29.75-51.53c8.03-4.64,15.61-5.37,21.34-2.07
			c5.72,3.3,8.88,10.23,8.88,19.51v6.6c-0.31,0.31-0.62,0.62-0.93,0.93v-7.52c0-8.93-2.99-15.58-8.41-18.71
			c-5.43-3.13-12.67-2.4-20.41,2.07c-16.15,9.32-29.29,32.08-29.29,50.73v94.63c0,15.7-9.24,34.28-21.77,45.46c0-0.41,0-0.83,0-1.24
			C122.37,183.42,131.18,165.47,131.18,150.26z"/>
		<path class="st1" d="M191.14,31.04L191.14,31.04c1.52-1.44,8.61-7.7,18.96-9.28c11.72-1.79,16.56,11.91,16.56,11.91
			s1.36,7.12,1.31,11.33c-0.05,4.21-0.35,19.51-0.35,19.51l-37.14-21.4l0-0.01c-0.15-0.08-0.26-0.23-0.26-0.41V31.84
			C190.53,31.53,190.83,31.35,191.14,31.04z"/>
	</g>
	<g>
		<g>
			<path class="st0" d="M217.47,22.33l-35.21-20.3l0.14,0.51c-5.43-3.5-13.63-3.88-24.6,4.16c-21.79,15.98-24.4,38.22-25.52,42.39
				c-1.11,4.17-0.65,30.58-0.65,30.58s-0.07,63.69-0.15,71.1c-0.07,7.41-2.23,15.72-6.39,24.69c-4.16,8.97-14.85,19.86-14.85,19.86
				v12.96c1.71,14.02,7.66,17.29,16.52,18.08c7.15,0.64,14.77-4.52,20.86-10.15c-0.22,0.23-0.37,0.38-0.37,0.38v12.96
				c1.71,14.02,7.66,17.29,16.52,18.08c8.86,0.8,18.44-7.32,24.94-14.19c6.49-6.87,11.97-17.36,15.01-26.82
				c3.04-9.46,2.03-21.69,2.03-21.69s0.07-69.62,0.15-83.35c0.07-13.73,0.51-11.33,5.01-25.13c4.5-13.8,16.44-23.46,16.44-23.46
				L256,44.49L217.47,22.33z"/>
			<path class="st1" d="M156.18,246.49c-0.48-0.66-6.76-4.86-8.35-12.27c-0.89-4.12-0.8-10.39-0.8-10.39s0.03-3.48,0.11-6.65
				c0.07-0.06,0.14-0.12,0.21-0.18c0-0.41,0-0.83,0-1.24c-0.06,0.05-0.12,0.1-0.17,0.15c0.02-0.71,0.05-1.39,0.08-1.96
				c0.18-3.29-2.25-10.31-2.25-10.31s-3.45-9.41-13.73-9.77c-9.12-0.32-18.73,6.24-20.77,7.72v-4.25c-0.14,0.09-0.28,0.18-0.42,0.27
				c0.01-0.57,0.02-1.15,0.04-1.72c0.07-0.06,0.14-0.12,0.21-0.18c0-0.41,0-0.83,0-1.24c-0.06,0.05-0.12,0.1-0.17,0.15
				c0.02-0.71,0.05-1.39,0.08-1.96c0.18-3.29-2.25-10.31-2.25-10.31s-3.45-9.41-13.73-9.77c-9.12-0.32-18.73,6.24-20.77,7.72v-4.25
				c-0.3,0.2-0.61,0.4-0.93,0.59v7.44c0,9.01,3,15.78,8.45,19.14l0.02,0.03l0.19,0.11c0.05,0.03,0.1,0.07,0.15,0.1
				c0.03,0.02,0.07,0.03,0.1,0.05l37.68,21.69c-0.01-0.01-0.03-0.04-0.05-0.05L156.18,246.49z"/>
			<g>
				<path class="st0" d="M101.32,174.08c0,0-0.28-0.15-0.78-0.35c-0.15-0.07-0.3-0.16-0.46-0.23l-35.78-20.71
					c0,0-6.57-3.45-14.52-0.54c-7.95,2.91-49.61,27.9-49.61,27.9l37.22,21.44l0.01,0c0.03,0.02,0.07,0.02,0.1,0.03l36.91,21.26
					c0,0,20.88-12.94,35.32-21.28l0.93-0.53c5.91-3.4,10.6-5.93,12.07-6.32c8.91-2.36,15.1,0.52,16.72,1.4L101.32,174.08z"/>
				<path class="st0" d="M139.44,196.14l0.43,0.25C139.87,196.39,139.71,196.29,139.44,196.14z"/>
			</g>
		</g>
		<path class="st1" d="M228.15,52.33L228.15,52.33c1.52-1.44,8.61-7.7,18.96-9.28c11.72-1.79,16.56,11.91,16.56,11.91
			s1.36,7.12,1.31,11.33c-0.05,4.21-0.35,19.51-0.35,19.51l-37.14-21.4l0-0.01c-0.15-0.08-0.26-0.23-0.26-0.41V53.13
			C227.54,52.82,227.85,52.64,228.15,52.33z"/>
		<g>
			<path class="st2" d="M163.42,248.18c4.1,0,8.63-1.37,13.32-4.08c16.29-9.4,29.53-32.35,29.53-51.15V98.32
				c0-18.65,13.14-41.4,29.29-50.73c7.74-4.46,14.98-5.2,20.41-2.07c5.43,3.13,8.41,9.78,8.41,18.71v21.15
				c0,0.26,0.21,0.46,0.46,0.46c0.26,0,0.46-0.21,0.46-0.46V64.24c0-9.28-3.15-16.21-8.88-19.51c-5.73-3.31-13.3-2.57-21.34,2.07
				c-16.4,9.47-29.75,32.59-29.75,51.53v94.63c0,18.51-13.04,41.1-29.07,50.35c-7.68,4.43-14.87,5.16-20.26,2.05
				c-5.39-3.11-8.35-9.7-8.35-18.57v-11.1c0-9.6-3.26-16.78-9.19-20.2c-5.93-3.42-13.77-2.66-22.09,2.14L74.4,222.07
				c-0.22,0.13-0.3,0.41-0.17,0.63c0.13,0.22,0.41,0.29,0.63,0.17l41.99-24.45c8.02-4.63,15.54-5.39,21.16-2.14
				c5.63,3.25,8.73,10.14,8.73,19.4v11.1c0,9.21,3.13,16.09,8.81,19.37C157.9,247.51,160.55,248.18,163.42,248.18z"/>
		</g>
	</g>
	<path class="st7" d="M166.32,121.51l-6.21-3.58c-0.58-0.33-1.05-1.23-1.07-2l0,0c-0.01-0.77,0.44-1.13,1.02-0.8l6.21,3.58
		c0.58,0.33,1.05,1.23,1.07,2l0,0C167.35,121.49,166.9,121.85,166.32,121.51z"/>
	<path class="st7" d="M179.5,129.12l-9.15-5.28c-0.58-0.33-1.05-1.23-1.07-2l0,0c-0.01-0.77,0.44-1.13,1.02-0.8l9.15,5.28
		c0.58,0.33,1.05,1.23,1.07,2l0,0C180.53,129.1,180.08,129.46,179.5,129.12z"/>
	<path class="st7" d="M165.62,97.86l-11.85-6.84c-0.58-0.33-1.05-1.23-1.07-2l0,0c-0.01-0.77,0.44-1.13,1.02-0.8l11.85,6.84
		c0.58,0.33,1.05,1.23,1.07,2l0,0C166.65,97.83,166.19,98.19,165.62,97.86z"/>
	<path class="st7" d="M157.84,104.99l-3.88-2.24c-0.58-0.33-1.05-1.23-1.07-2l0,0c-0.01-0.77,0.44-1.13,1.02-0.8l3.88,2.24
		c0.58,0.33,1.05,1.23,1.07,2l0,0C158.87,104.97,158.41,105.32,157.84,104.99z"/>
	<path class="st7" d="M156.64,115.92l-2.49-1.44c-0.58-0.33-1.05-1.23-1.07-2l0,0c-0.01-0.77,0.44-1.13,1.02-0.8l2.49,1.44
		c0.58,0.33,1.05,1.23,1.07,2l0,0C157.67,115.9,157.21,116.26,156.64,115.92z"/>
	<path class="st7" d="M172.26,113.32l-10.36-5.98c-0.58-0.33-1.05-1.23-1.07-2l0,0c-0.01-0.77,0.44-1.13,1.02-0.8l10.36,5.98
		c0.58,0.33,1.05,1.23,1.07,2l0,0C173.29,113.29,172.84,113.65,172.26,113.32z"/>
	<path class="st7" d="M171.91,107.31l-18.05-10.42c-0.58-0.33-1.05-1.23-1.07-2l0,0c-0.01-0.77,0.44-1.13,1.02-0.8l18.05,10.42
		c0.58,0.33,1.05,1.23,1.07,2l0,0C172.95,107.28,172.49,107.64,171.91,107.31z"/>
	<path class="st7" d="M164.41,114.6l-10.36-5.98c-0.58-0.33-1.05-1.23-1.07-2l0,0c-0.01-0.77,0.44-1.13,1.02-0.8l10.36,5.98
		c0.58,0.33,1.05,1.23,1.07,2l0,0C165.44,114.57,164.99,114.93,164.41,114.6z"/>
	<path class="st7" d="M180.12,117.85l-3.76-2.17c-0.58-0.33-1.05-1.23-1.07-2l0,0c-0.01-0.77,0.44-1.13,1.02-0.8l3.76,2.17
		c0.58,0.33,1.05,1.23,1.07,2l0,0C181.15,117.83,180.69,118.19,180.12,117.85z"/>
	<g>
		<path class="st7" d="M169.4,88.41l-6.21-3.58c-0.58-0.33-1.05-1.23-1.07-2l0,0c-0.01-0.77,0.44-1.13,1.02-0.8l6.21,3.58
			c0.58,0.33,1.05,1.23,1.07,2l0,0C170.43,88.39,169.97,88.74,169.4,88.41z"/>
		<path class="st7" d="M184.18,96.95l-9.15-5.28c-0.58-0.33-1.05-1.23-1.07-2l0,0c-0.01-0.77,0.44-1.13,1.02-0.8l9.15,5.28
			c0.58,0.33,1.05,1.23,1.07,2l0,0C185.21,96.92,184.76,97.28,184.18,96.95z"/>
		<path class="st7" d="M166.32,121.51l-6.21-3.58c-0.58-0.33-1.05-1.23-1.07-2l0,0c-0.01-0.77,0.44-1.13,1.02-0.8l6.21,3.58
			c0.58,0.33,1.05,1.23,1.07,2l0,0C167.35,121.49,166.9,121.85,166.32,121.51z"/>
		<path class="st7" d="M179.5,129.12l-9.15-5.28c-0.58-0.33-1.05-1.23-1.07-2l0,0c-0.01-0.77,0.44-1.13,1.02-0.8l9.15,5.28
			c0.58,0.33,1.05,1.23,1.07,2l0,0C180.53,129.1,180.08,129.46,179.5,129.12z"/>
		<path class="st7" d="M152.37,84.4l-3.88-2.24c-0.58-0.33-1.05-1.23-1.07-2l0,0c-0.01-0.77,0.44-1.13,1.02-0.8l3.88,2.24
			c0.58,0.33,1.05,1.23,1.07,2l0,0C153.41,84.37,152.95,84.73,152.37,84.4z"/>
		<path class="st7" d="M165.62,97.86l-11.85-6.84c-0.58-0.33-1.05-1.23-1.07-2l0,0c-0.01-0.77,0.44-1.13,1.02-0.8l11.85,6.84
			c0.58,0.33,1.05,1.23,1.07,2l0,0C166.65,97.83,166.19,98.19,165.62,97.86z"/>
		<path class="st7" d="M157.84,104.99l-3.88-2.24c-0.58-0.33-1.05-1.23-1.07-2l0,0c-0.01-0.77,0.44-1.13,1.02-0.8l3.88,2.24
			c0.58,0.33,1.05,1.23,1.07,2l0,0C158.87,104.97,158.41,105.32,157.84,104.99z"/>
		<path class="st7" d="M184.08,143.39l-10.36-5.98c-0.58-0.33-1.05-1.23-1.07-2l0,0c-0.01-0.77,0.44-1.13,1.02-0.8l10.36,5.98
			c0.58,0.33,1.05,1.23,1.07,2l0,0C185.11,143.37,184.65,143.72,184.08,143.39z"/>
		<path class="st7" d="M156.64,115.92l-2.49-1.44c-0.58-0.33-1.05-1.23-1.07-2l0,0c-0.01-0.77,0.44-1.13,1.02-0.8l2.49,1.44
			c0.58,0.33,1.05,1.23,1.07,2l0,0C157.67,115.9,157.21,116.26,156.64,115.92z"/>
		<path class="st7" d="M157.43,128.01l-3.09-1.78c-0.58-0.33-1.05-1.23-1.07-2l0,0c-0.01-0.77,0.44-1.13,1.02-0.8l3.09,1.78
			c0.58,0.33,1.05,1.23,1.07,2l0,0C158.46,127.98,158.01,128.34,157.43,128.01z"/>
		<path class="st7" d="M169.46,134.95l-8.15-4.71c-0.58-0.33-1.05-1.23-1.07-2l0,0c-0.01-0.77,0.44-1.13,1.02-0.8l8.15,4.71
			c0.58,0.33,1.05,1.23,1.07,2l0,0C170.49,134.93,170.03,135.28,169.46,134.95z"/>
		<path class="st7" d="M160.29,135.47l-5.86-3.38c-0.58-0.33-1.05-1.23-1.07-2l0,0c-0.01-0.77,0.44-1.13,1.02-0.8l5.86,3.38
			c0.58,0.33,1.05,1.23,1.07,2l0,0C161.33,135.45,160.87,135.81,160.29,135.47z"/>
		<path class="st7" d="M172.26,113.32l-10.36-5.98c-0.58-0.33-1.05-1.23-1.07-2l0,0c-0.01-0.77,0.44-1.13,1.02-0.8l10.36,5.98
			c0.58,0.33,1.05,1.23,1.07,2l0,0C173.29,113.29,172.84,113.65,172.26,113.32z"/>
		<path class="st7" d="M171.91,107.31l-18.05-10.42c-0.58-0.33-1.05-1.23-1.07-2l0,0c-0.01-0.77,0.44-1.13,1.02-0.8l18.05,10.42
			c0.58,0.33,1.05,1.23,1.07,2l0,0C172.95,107.28,172.49,107.64,171.91,107.31z"/>
		<path class="st7" d="M164.41,114.6l-10.36-5.98c-0.58-0.33-1.05-1.23-1.07-2l0,0c-0.01-0.77,0.44-1.13,1.02-0.8l10.36,5.98
			c0.58,0.33,1.05,1.23,1.07,2l0,0C165.44,114.57,164.99,114.93,164.41,114.6z"/>
		<path class="st7" d="M180.12,117.85l-3.76-2.17c-0.58-0.33-1.05-1.23-1.07-2l0,0c-0.01-0.77,0.44-1.13,1.02-0.8l3.76,2.17
			c0.58,0.33,1.05,1.23,1.07,2l0,0C181.15,117.83,180.69,118.19,180.12,117.85z"/>
		<path class="st7" d="M166.69,127.54l-12.45-7.19c-0.58-0.33-1.05-1.23-1.07-2l0,0c-0.01-0.77,0.44-1.13,1.02-0.8l12.45,7.19
			c0.58,0.33,1.05,1.23,1.07,2l0,0C167.73,127.52,167.27,127.88,166.69,127.54z"/>
		<path class="st7" d="M157.55,81.58l-9.15-5.28c-0.58-0.33-1.05-1.23-1.07-2l0,0c-0.01-0.77,0.44-1.13,1.02-0.8l9.15,5.28
			c0.58,0.33,1.05,1.23,1.07,2l0,0C158.59,81.55,158.13,81.91,157.55,81.58z"/>
		<path class="st7" d="M159.95,141.09l-10.6-6.12c-0.58-0.33-1.05-1.23-1.07-2l0,0c-0.01-0.77,0.44-1.13,1.02-0.8l10.6,6.12
			c0.58,0.33,1.05,1.23,1.07,2l0,0C160.99,141.07,160.53,141.42,159.95,141.09z"/>
	</g>
	<path class="st7" d="M164.86,177.2l-6.21-3.58c-0.58-0.33-1.05-1.23-1.07-2l0,0c-0.01-0.77,0.44-1.13,1.02-0.8l6.21,3.58
		c0.58,0.33,1.05,1.23,1.07,2l0,0C165.89,177.17,165.44,177.53,164.86,177.2z"/>
	<path class="st7" d="M178.04,184.81l-9.15-5.28c-0.58-0.33-1.05-1.23-1.07-2l0,0c-0.01-0.77,0.44-1.13,1.02-0.8l9.15,5.28
		c0.58,0.33,1.05,1.23,1.07,2l0,0C179.07,184.78,178.62,185.14,178.04,184.81z"/>
	<path class="st7" d="M164.16,153.54l-11.85-6.84c-0.58-0.33-1.05-1.23-1.07-2l0,0c-0.01-0.77,0.44-1.13,1.02-0.8l11.85,6.84
		c0.58,0.33,1.05,1.23,1.07,2l0,0C165.19,153.52,164.73,153.87,164.16,153.54z"/>
	<path class="st7" d="M156.38,160.67l-3.88-2.24c-0.58-0.33-1.05-1.23-1.07-2v0c-0.01-0.77,0.44-1.13,1.02-0.8l3.88,2.24
		c0.58,0.33,1.05,1.23,1.07,2l0,0C157.41,160.65,156.95,161.01,156.38,160.67z"/>
	<path class="st7" d="M155.18,171.61l-2.49-1.44c-0.58-0.33-1.05-1.23-1.07-2l0,0c-0.01-0.77,0.44-1.13,1.02-0.8l2.49,1.44
		c0.58,0.33,1.05,1.23,1.07,2l0,0C156.21,171.58,155.75,171.94,155.18,171.61z"/>
	<path class="st7" d="M170.8,169l-10.36-5.98c-0.58-0.33-1.05-1.23-1.07-2l0,0c-0.01-0.77,0.44-1.13,1.02-0.8l10.36,5.98
		c0.58,0.33,1.05,1.23,1.07,2v0C171.83,168.98,171.38,169.34,170.8,169z"/>
	<path class="st7" d="M170.46,162.99l-18.05-10.42c-0.58-0.33-1.05-1.23-1.07-2l0,0c-0.01-0.77,0.44-1.13,1.02-0.8l18.05,10.42
		c0.58,0.33,1.05,1.23,1.07,2l0,0C171.49,162.97,171.03,163.32,170.46,162.99z"/>
	<path class="st7" d="M162.95,170.28l-10.36-5.98c-0.58-0.33-1.05-1.23-1.07-2l0,0c-0.01-0.77,0.44-1.13,1.02-0.8l10.36,5.98
		c0.58,0.33,1.05,1.23,1.07,2l0,0C163.98,170.26,163.53,170.62,162.95,170.28z"/>
	<path class="st7" d="M178.66,173.54l-3.76-2.17c-0.58-0.33-1.05-1.23-1.07-2l0,0c-0.01-0.77,0.44-1.13,1.02-0.8l3.76,2.17
		c0.58,0.33,1.05,1.23,1.07,2l0,0C179.69,173.51,179.23,173.87,178.66,173.54z"/>
</g>
<g>
	<polygon class="st0" points="210.24,306.81 221.74,300.17 233.23,306.81 221.74,313.45 	"/>
	<polygon class="st0" points="234.64,292.53 246.14,285.9 257.64,292.53 246.14,299.17 	"/>
	<polygon class="st0" points="258.97,278.6 270.47,271.96 281.97,278.6 270.47,285.23 	"/>
	<g>
		<g>
			<g>
				<polygon class="st4" points="246.14,292.53 246.14,257.13 234.64,250.5 234.64,285.9 				"/>
				<polygon class="st10" points="246.14,257.13 257.64,250.5 257.64,285.9 246.14,292.53 				"/>
				<polygon class="st10" points="246.14,292.53 246.14,257.13 234.64,250.5 234.64,285.9 				"/>
			</g>
			<g>
				<polygon class="st10" points="221.74,306.81 221.74,286.9 210.24,280.26 210.24,300.17 				"/>
				<polygon class="st10" points="221.74,286.9 233.23,280.26 233.23,300.17 221.74,306.81 				"/>
				<polygon class="st11" points="210.24,280.26 221.74,273.62 233.23,280.26 221.74,286.9 				"/>
			</g>
			<g>
				<polygon class="st10" points="270.47,278.6 270.47,229.92 258.97,223.28 258.97,271.96 				"/>
				<polygon class="st10" points="270.47,229.92 281.97,223.28 281.97,271.96 270.47,278.6 				"/>
				<polygon class="st11" points="258.97,223.28 270.47,216.64 281.97,223.28 270.47,229.92 				"/>
			</g>
		</g>
		<polygon class="st11" points="234.64,250.5 246.14,243.86 257.64,250.5 246.14,257.13 		"/>
	</g>
</g>
<g>
	<path class="st0" d="M103.21,286.55c-9.8-5.66-25.69-5.66-35.49,0c-9.8,5.66-9.8,14.83,0,20.49c9.8,5.66,25.69,5.66,35.49,0
		C113.01,301.38,113.01,292.21,103.21,286.55z M93.62,301.51c-4.5,2.6-11.81,2.6-16.31,0c-4.5-2.6-4.5-6.82,0-9.42
		c4.5-2.6,11.81-2.6,16.31,0C98.13,294.69,98.13,298.9,93.62,301.51z"/>
	<g>
		<g>
			<path class="st12" d="M64.02,283.2l8.95,0.14c0.66-0.86,1.6-1.67,2.83-2.38c4.92-2.84,12.66-3.06,18.03-0.66l5.32-5l8.19,0.13
				c-0.4-0.26-0.82-0.53-1.26-0.78c-11.38-6.57-29.84-6.57-41.22,0c-2.09,1.21-3.8,2.56-5.12,3.99L64.02,283.2z"/>
			<polygon class="st10" points="107.33,262.43 107.33,275.42 99.14,275.3 99.14,262.3 			"/>
			<polygon class="st12" points="93.83,267.3 93.83,280.3 99.14,275.3 99.14,262.3 			"/>
			<path class="st12" d="M72.97,270.34v13l11.78-9.6l9.08,6.56v-13l-8.36-4.05c0,0-11.51,3.52-12.1,3.67
				C72.76,267.07,72.97,270.34,72.97,270.34z"/>
			<polygon class="st12" points="64.02,270.2 64.02,283.2 72.97,283.34 72.97,270.34 			"/>
			<polygon class="st10" points="59.74,265.64 59.74,278.63 64.02,283.2 64.02,270.2 			"/>
			<path class="st11" d="M64.02,270.2l8.95,0.14c0.66-0.86,1.6-1.67,2.83-2.38c4.92-2.84,12.66-3.06,18.03-0.66l5.32-5l8.19,0.13
				c-0.4-0.26-0.82-0.53-1.26-0.78c-11.38-6.57-29.84-6.57-41.22,0c-2.09,1.21-3.8,2.56-5.12,3.99L64.02,270.2z"/>
		</g>
		<g>
			<path class="st7" d="M96.52,268.9v11.95l7.75-1.86c0,0-0.45-6.99-0.62-7.18C103.49,271.63,96.52,268.9,96.52,268.9z"/>
			<g>
				<path class="st1" d="M90.66,280.85v13l0.84,0.89l5.46-3.15c0,0-0.85-9.92-0.95-10.12C95.91,281.27,90.66,280.85,90.66,280.85z"
					/>
				<path class="st2" d="M101.21,277.49l-4.68,4.41c3.9,3.09,3.44,7.44-1.39,10.23c-1.32,0.76-2.85,1.34-4.48,1.72l4.84,5.16
					l-4.29,4.03c5.45-0.63,10.64-2.16,14.87-4.6c9.78-5.65,11.15-14.31,4.11-20.81L101.21,277.49z"/>
				<polygon class="st2" points="91.21,290.04 91.21,303.04 101.83,298.94 114.61,286.75 114.56,272.95 101.04,283.66 				"/>
				<path class="st0" d="M101.21,264.49l-4.68,4.41c3.9,3.09,3.44,7.44-1.39,10.23c-1.32,0.76-2.85,1.34-4.48,1.72l4.84,5.16
					l-4.29,4.03c5.45-0.63,10.64-2.16,14.87-4.6c9.78-5.65,11.15-14.31,4.11-20.81L101.21,264.49z"/>
			</g>
		</g>
		<g>
			<path class="st2" d="M91.17,298.94l-4.27-4.55c-3.96,0.24-8.07-0.51-11.11-2.27c-3.14-1.81-4.43-4.28-3.88-6.64l-10.16-0.16
				l-3.91-4.16c-3.42,5.87-1.09,12.6,7.01,17.28c5.95,3.43,13.83,5.07,21.62,4.91L91.17,298.94z"/>
			<polygon class="st2" points="86.48,290.36 86.48,303.36 56.33,286.65 56.33,273.64 60.73,275.42 			"/>
			<polygon class="st1" points="91.17,285.94 91.17,298.94 86.48,303.36 86.48,290.36 			"/>
			<path class="st7" d="M91.17,285.94l-4.27-4.55c-3.96,0.24-8.07-0.51-11.11-2.27c-3.14-1.81-4.43-4.28-3.88-6.64l-10.16-0.16
				l-3.91-4.16c-3.42,5.87-1.09,12.6,7.01,17.28c5.95,3.43,13.83,5.07,21.62,4.91L91.17,285.94z"/>
		</g>
	</g>
</g>
<g>
	<g>
		<path class="st10" d="M218.59,67.51l-26.74-15.44c-0.53-0.31-1.01-0.32-1.38-0.11c0,0,0-0.02,0-0.02l-2.59,1.5
			c0,0,1.15,0.42,1.82,0.67v19.47c0,1.58,0.96,3.42,2.15,4.11l25.56,14.76v2.28l2.62-1.51l-0.01-0.01c0.44-0.27,0.73-0.86,0.73-1.71
			V71.62C220.75,70.04,219.78,68.2,218.59,67.51z"/>
		<path class="st11" d="M215.95,94.65l-26.74-15.44c-1.19-0.69-2.15-2.53-2.15-4.11V55.22c0-1.58,0.96-2.31,2.15-1.63l26.74,15.44
			c1.19,0.69,2.15,2.53,2.15,4.11v19.88C218.1,94.61,217.14,95.34,215.95,94.65z"/>
	</g>
	<g>
		<path class="st9" d="M198.21,72.36c0,1.15-0.81,1.62-1.8,1.04c-1-0.58-1.8-1.97-1.8-3.12c0-1.15,0.81-1.62,1.8-1.04
			C197.4,69.81,198.21,71.21,198.21,72.36z"/>
		<path class="st9" d="M203.67,75.52c0,1.15-0.81,1.62-1.8,1.04c-1-0.58-1.8-1.97-1.8-3.12c0-1.15,0.81-1.62,1.8-1.04
			C202.86,72.97,203.67,74.37,203.67,75.52z"/>
		<path class="st9" d="M209.14,78.67c0,1.15-0.81,1.62-1.8,1.04c-1-0.58-1.8-1.97-1.8-3.12c0-1.15,0.81-1.62,1.8-1.04
			C208.33,76.12,209.14,77.52,209.14,78.67z"/>
	</g>
</g>
<g>
	<g>
		<path class="st7" d="M88.58,37.14L62.35,22c-0.52-0.3-0.99-0.31-1.36-0.11c0,0,0-0.02,0-0.02l-2.54,1.47c0,0,1.13,0.41,1.79,0.65
			v19.1c0,1.55,0.94,3.36,2.11,4.03L87.42,61.6v2.24l2.57-1.48l-0.01-0.01c0.43-0.26,0.71-0.85,0.71-1.68v-19.5
			C90.69,39.62,89.75,37.81,88.58,37.14z"/>
		<path class="st0" d="M85.99,63.77L59.76,48.62c-1.17-0.67-2.11-2.48-2.11-4.03v-19.5c0-1.55,0.94-2.27,2.11-1.6l26.23,15.14
			c1.17,0.67,2.11,2.48,2.11,4.03v19.5C88.1,63.73,87.16,64.44,85.99,63.77z"/>
	</g>
	<g>
		<path class="st9" d="M68.58,41.9c0,1.13-0.79,1.59-1.77,1.02c-0.98-0.56-1.77-1.94-1.77-3.07c0-1.13,0.79-1.59,1.77-1.02
			C67.79,39.4,68.58,40.77,68.58,41.9z"/>
		<path class="st9" d="M73.94,45c0,1.13-0.79,1.59-1.77,1.02c-0.98-0.56-1.77-1.94-1.77-3.07c0-1.13,0.79-1.59,1.77-1.02
			C73.15,42.49,73.94,43.87,73.94,45z"/>
		<path class="st9" d="M79.3,48.09c0,1.13-0.79,1.59-1.77,1.02c-0.98-0.56-1.77-1.94-1.77-3.07c0-1.13,0.79-1.59,1.77-1.02
			C78.51,45.59,79.3,46.96,79.3,48.09z"/>
	</g>
</g>
</svg>
