<?xml version="1.0" encoding="utf-8"?>
<!-- Generator: Adobe Illustrator 24.0.3, SVG Export Plug-In . SVG Version: 6.00 Build 0)  -->
<svg version="1.1" xmlns="http://www.w3.org/2000/svg" xmlns:xlink="http://www.w3.org/1999/xlink" x="0px" y="0px"
	 viewBox="0 0 330.39 406.81" style="enable-background:new 0 0 330.39 406.81;" xml:space="preserve">
<style type="text/css">
	.st0{fill:#263238;}
	.st1{fill:#A6A8AA;}
	.st2{fill:#37474F;}
	.st3{fill:#455A64;}
	.st4{fill:#C63330;}
	.st5{fill:#272525;}
	.st6{fill:#FAFAFA;}
	.st7{fill:#E0E0E0;}
	.st8{fill:#F0F0F0;}
	.st9{opacity:0.4;}
	.st10{fill:#80211F;}
	.st11{fill:#EBEBEB;}
	.st12{fill:#F5F5F5;}
	.st13{opacity:0.8;fill:#1D85BF;}
	.st14{opacity:0.6;fill:#1D85BF;}
	.st15{fill:#FAFAFA;stroke:#E0E0E0;stroke-miterlimit:10;}
	.st16{fill:none;stroke:#455A64;stroke-width:0.75;stroke-linecap:round;stroke-linejoin:round;stroke-miterlimit:10;}
	.st17{opacity:0.3;fill:#A32B28;}
	.st18{fill:#932623;}
	.st19{opacity:0.88;fill:#1D85BF;}
	.st20{opacity:0.75;fill:#1D85BF;}
	.st21{fill:#97999B;}
	.st22{fill:#929496;}
	.st23{opacity:0.6;fill:#1973A4;}
	.st24{fill:#BB312E;}
</style>
<g id="Floor">
</g>
<g id="Shadows">
</g>
<g id="Clouds">
</g>
<g id="Device">
	<g id="Monitor_1_">
		<g id="XMLID_352_">
			<g id="XMLID_357_">
				<path id="XMLID_358_" class="st0" d="M176.45,319.2l-33.98-19.65c-3.5-2.02-5.25-4.67-5.25-7.32c0-2.65-0.01-4.73-0.01-4.73
					l35.26-19.88c1.87-1.08,3.38-3.7,3.38-5.86v-41.9l59.36,34.3l0,41.9c0,2.16-1.51,4.78-3.38,5.86l-29.99,17.28
					C194.82,323.25,183.46,323.25,176.45,319.2z"/>
			</g>
			<path id="XMLID_356_" class="st1" d="M220.95,303.48v4.71l10.88-6.27c1.86-1.07,3.38-3.69,3.38-5.86v-41.89l-11.31-6.52
				c-0.23,2.87-0.49,5.84-0.72,8.73l7.93,4.59v32.73c0,2.17-1.5,4.79-3.38,5.86L220.95,303.48z"/>
			<path id="XMLID_355_" class="st2" d="M231.11,293.7c0,2.16-1.51,4.78-3.38,5.86l-25.9,14.92c-7.01,4.04-18.37,4.05-25.37,0
				l-34-19.65c-7.01-4.04-7.01-10.6,0-14.65l25.91-14.93c1.87-1.08,3.38-3.7,3.38-5.86l0-32.74l59.36,34.3V293.7z"/>
			<path id="XMLID_354_" class="st0" d="M161.48,269.24L161.48,269.24l6.89-3.98c1.87-1.08,3.38-3.7,3.38-5.86l0-32.74l59.36,34.3
				v32.74c0,2.16-1.51,4.78-3.38,5.86l-6.77,3.91L161.48,269.24z"/>
			<path id="XMLID_353_" class="st3" d="M137.21,287.5c0,0,0,2.07,0,4.73c0,2.66,1.76,5.29,5.25,7.32l33.99,19.64
				c3.36,1.95,7.71,2.93,12.11,3.01v-4.71c-4.39-0.06-8.75-1.07-12.11-3.01l-33.99-19.66C138.96,292.82,137.21,290.16,137.21,287.5z
				"/>
		</g>
		<path id="XMLID_351_" class="st3" d="M326.42,334.39c-2.19,1.26-5.86,1.2-8.2-0.15c-29.18-16.85-200.38-115.69-229.56-132.53
			c-2.34-1.35-4.23-4.63-4.23-7.32V8.08c0-2.7,1.78-5.91,3.97-7.17c2.19-1.26,5.86-1.2,8.2,0.15l229.55,132.53
			c2.34,1.35,4.23,4.63,4.23,7.32l0,186.31C330.38,329.92,328.61,333.13,326.42,334.39z"/>
		<path id="XMLID_350_" class="st4" d="M318.22,334.24L88.66,201.7c-2.34-1.35-4.23-4.63-4.23-7.32V8.07c0-2.7,1.89-3.79,4.23-2.44
			l229.55,132.53c2.34,1.35,4.23,4.63,4.23,7.32l0,186.31C322.45,334.49,320.56,335.58,318.22,334.24z"/>
		<path id="XMLID_349_" class="st2" d="M318.22,334.24L88.66,201.7c-2.34-1.35-4.23-4.63-4.23-7.32V8.07c0-2.7,1.89-3.79,4.23-2.44
			l229.55,132.53c2.34,1.35,4.23,4.63,4.23,7.32l0,186.31C322.45,334.49,320.56,335.58,318.22,334.24z"/>
		<path id="XMLID_348_" class="st0" d="M318.84,339.06c2.34,1.04,5.59,1,7.58-0.16c2.19-1.27,3.96-4.47,3.96-7.19v-16.91l-7.93,4.59
			v16.91C322.46,338.77,320.89,339.88,318.84,339.06z"/>
		<path id="XMLID_347_" class="st2" d="M322.46,319.4l-0.01,16.9c0,2.7-1.89,3.79-4.23,2.44L88.66,206.21
			c-2.34-1.35-4.23-4.63-4.23-7.32v-16.94L322.46,319.4z"/>
		<path id="XMLID_346_" class="st5" d="M322.45,319.37l0,16.94c0,2.7-1.89,3.79-4.23,2.44L88.66,206.21
			c-2.34-1.35-4.23-4.63-4.23-7.32v-16.94L322.45,319.37z"/>
		<path id="XMLID_345_" class="st4" d="M314.52,298.19l0-150.06c0-1.62-1.14-3.59-2.54-4.39L94.91,18.4
			c-1.4-0.81-2.54-0.15-2.54,1.46l-0.01,150.07c0,1.62,1.14,3.59,2.54,4.39l217.08,125.32
			C313.38,300.46,314.52,299.81,314.52,298.19z"/>
		<path id="XMLID_344_" class="st1" d="M314.52,298.19l0-150.06c0-1.62-1.14-3.59-2.54-4.39L94.91,18.4
			c-1.4-0.81-2.54-0.15-2.54,1.46l-0.01,150.07c0,1.62,1.14,3.59,2.54,4.39l217.08,125.32
			C313.38,300.46,314.52,299.81,314.52,298.19z"/>
		<path id="XMLID_343_" class="st3" d="M203.44,256.05c2.19,1.27,3.97,4.34,3.97,6.87c0,2.53-1.78,3.56-3.97,2.29
			c-2.19-1.27-3.97-4.34-3.97-6.87C199.48,255.81,201.25,254.79,203.44,256.05z"/>
		<path id="XMLID_342_" class="st0" d="M321.21,141.31c0.76,1.33,1.23,2.83,1.25,4.18V319.4l7.93-4.59v-173.9
			c0-1.35-0.49-2.85-1.25-4.18L321.21,141.31z"/>
	</g>
</g>
<g id="Spreadsheets">
	<g id="Window_1_">
		<g id="Window_5_">
			<g id="XMLID_7126_">
				<path class="st4" d="M52.47,7.19c0.55-0.33,1.31-0.32,2.16,0.17l228.79,132.13c1.64,0.95,2.96,3.24,2.96,5.13v154.24
					c0,1.15-0.49,2.17-1.25,2.58c-0.48,0.26-3.03,1.74-3.79,2.15c-0.48,0.26-1.08,0.27-1.72-0.1L50.84,171.31
					c-1.64-0.94-2.97-3.24-2.97-5.13V11.22c0-0.97,0.35-1.65,0.92-1.95C49.33,9,51.92,7.52,52.47,7.19z"/>
			</g>
			<g id="XMLID_7118_">
				<g id="XMLID_7120_">
					<path class="st6" d="M280.6,303.28c-0.23,0-0.48-0.07-0.73-0.22L51.09,170.88c-1.47-0.85-2.72-3-2.72-4.69V11.22
						c0-1.01,0.43-1.62,1.14-1.62c0.32,0,0.69,0.12,1.07,0.34l228.79,132.13c1.47,0.85,2.71,3,2.71,4.7v154.24
						c0,0.62-0.17,1.23-0.47,1.66C281.43,302.95,281.09,303.28,280.6,303.28z"/>
					<path class="st7" d="M49.52,10.1c0.16,0,0.44,0.05,0.82,0.27l228.79,132.13c1.34,0.77,2.46,2.72,2.46,4.27v154.24
						c0,0.94-0.46,1.76-0.99,1.76c-0.14,0-0.3-0.05-0.48-0.15L51.34,170.45c-1.34-0.77-2.46-2.72-2.46-4.26V11.22
						C48.88,10.8,48.96,10.1,49.52,10.1 M49.52,9.1c-0.97,0-1.64,0.77-1.64,2.12v154.97c0,1.89,1.33,4.19,2.97,5.13L279.62,303.5
						c0.34,0.2,0.67,0.29,0.98,0.29c1.16,0,1.99-1.27,1.99-2.76V146.77c0-1.89-1.33-4.19-2.96-5.13L50.84,9.51
						C50.36,9.23,49.92,9.1,49.52,9.1L49.52,9.1z"/>
				</g>
				<path id="XMLID_7119_" class="st8" d="M285.13,301.44c-0.32,0.17-2.62,1.48-3.63,2.06c0.68-0.48,1.04-1.32,1.09-2.49V156.47
					l3.79-2.22v144.62C286.38,300.02,285.89,301.04,285.13,301.44z"/>
			</g>
			<g id="XMLID_7112_">
				<path id="XMLID_7117_" class="st4" d="M47.88,11.2c0.01-1.87,1.33-2.63,2.96-1.69l228.79,132.13c1.64,0.94,2.96,3.24,2.96,5.13
					l0,9.69L47.88,20.92V11.2z"/>
				<g id="XMLID_7114_" class="st9">
					<path class="st10" d="M50.84,9.51l228.78,132.13c0.81,0.48,1.56,1.28,2.09,2.2l3.77-2.18c-0.53-0.91-1.26-1.71-2.06-2.16
						L54.63,7.36c-0.85-0.49-1.6-0.5-2.15-0.18c-0.53,0.33-2.99,1.72-3.62,2.06C49.38,9,50.08,9.07,50.84,9.51z"/>
				</g>
				<g id="XMLID_7113_" class="st9">
					<path class="st10" d="M286.38,154.26v-9.63c0-0.96-0.35-2.02-0.9-2.96l-3.77,2.17c0.55,0.93,0.89,1.99,0.89,2.94v9.69
						L286.38,154.26z"/>
				</g>
			</g>
			<g id="XMLID_7076_">
				<polygon id="XMLID_7111_" class="st11" points="282.59,156.47 282.59,173.92 47.88,38.41 47.88,20.92 				"/>
				<g id="XMLID_7078_">
					<polygon id="XMLID_7110_" class="st7" points="272.81,155.17 257.63,146.45 257.63,155.15 272.82,163.92 					"/>
					<g id="XMLID_7103_">
						<polygon id="XMLID_7109_" class="st7" points="253.89,144.24 253.89,147.68 246.31,143.31 246.31,139.87 						"/>
						<polygon id="XMLID_7108_" class="st7" points="253.89,149.55 253.89,152.99 246.31,148.62 246.31,145.18 						"/>
						<polygon id="XMLID_7107_" class="st7" points="242.53,137.68 242.53,141.12 234.96,136.75 234.96,133.31 						"/>
						<polygon id="XMLID_7106_" class="st7" points="242.53,142.99 242.53,146.43 234.96,142.06 234.96,138.62 						"/>
						<polygon id="XMLID_7105_" class="st7" points="231.17,131.13 231.17,134.56 223.6,130.19 223.6,126.75 						"/>
						<polygon id="XMLID_7104_" class="st7" points="231.17,136.44 231.17,139.87 223.6,135.5 223.6,132.06 						"/>
					</g>
					<g id="XMLID_7096_">
						<polygon id="XMLID_7102_" class="st7" points="197.1,111.46 197.1,114.9 189.53,110.53 189.53,107.09 						"/>
						<polygon id="XMLID_7101_" class="st7" points="197.1,116.77 197.1,120.21 189.53,115.84 189.53,112.4 						"/>
						<polygon id="XMLID_7100_" class="st7" points="185.75,104.9 185.75,108.34 178.17,103.97 178.17,100.53 						"/>
						<polygon id="XMLID_7099_" class="st7" points="185.75,110.21 185.75,113.65 178.17,109.28 178.17,105.84 						"/>
						<polygon id="XMLID_7098_" class="st7" points="174.39,98.34 174.39,101.78 166.82,97.41 166.82,93.97 						"/>
						<polygon id="XMLID_7097_" class="st7" points="174.39,103.65 174.39,107.09 166.82,102.72 166.82,99.28 						"/>
					</g>
					<polygon id="XMLID_7095_" class="st7" points="219.82,124.57 200.89,113.64 200.89,122.39 219.81,133.31 					"/>
					<polygon id="XMLID_7094_" class="st7" points="163.03,91.79 147.85,83.07 147.85,91.77 163.03,100.53 					"/>
					<g id="XMLID_7087_">
						<polygon id="XMLID_7093_" class="st7" points="144.1,80.86 144.1,84.3 136.53,79.93 136.53,76.49 						"/>
						<polygon id="XMLID_7092_" class="st7" points="144.1,86.17 144.1,89.61 136.53,85.24 136.53,81.8 						"/>
						<polygon id="XMLID_7091_" class="st7" points="132.74,74.3 132.74,77.74 125.17,73.37 125.17,69.93 						"/>
						<polygon id="XMLID_7090_" class="st7" points="132.74,79.61 132.74,83.05 125.17,78.68 125.17,75.24 						"/>
						<polygon id="XMLID_7089_" class="st7" points="121.39,67.74 121.38,71.18 113.81,66.81 113.81,63.37 						"/>
						<polygon id="XMLID_7088_" class="st7" points="121.39,73.05 121.38,76.49 113.81,72.12 113.81,68.68 						"/>
					</g>
					<g id="XMLID_7080_">
						<polygon id="XMLID_7086_" class="st7" points="87.32,48.07 87.31,51.51 79.74,47.14 79.74,43.7 						"/>
						<polygon id="XMLID_7085_" class="st7" points="87.32,53.38 87.31,56.82 79.74,52.45 79.74,49.01 						"/>
						<polygon id="XMLID_7084_" class="st7" points="75.96,41.51 75.96,44.95 68.39,40.58 68.39,37.14 						"/>
						<polygon id="XMLID_7083_" class="st7" points="75.96,46.82 75.96,50.26 68.39,45.89 68.39,42.45 						"/>
						<polygon id="XMLID_7082_" class="st7" points="64.6,34.95 64.6,38.39 57.03,34.02 57.03,30.58 						"/>
						<polygon id="XMLID_7081_" class="st7" points="64.6,40.26 64.6,43.7 57.03,39.33 57.03,35.89 						"/>
					</g>
					<polygon id="XMLID_7079_" class="st7" points="110.03,61.19 91.1,50.26 91.1,59 110.02,69.93 					"/>
				</g>
				<polygon id="XMLID_7077_" class="st7" points="282.59,156.47 286.38,154.25 286.38,171.74 282.59,173.92 				"/>
			</g>
			<g id="XMLID_7073_">
				<path id="XMLID_7075_" class="st12" d="M108.45,49.02l0,0.64c0,1.03-0.72,1.45-1.61,0.93L60.85,24.04
					c-0.89-0.51-1.61-1.77-1.61-2.8l0-0.64c0-1.03,0.72-1.45,1.61-0.93l45.99,26.55C107.73,46.74,108.45,47.99,108.45,49.02z"/>
				<path id="XMLID_7074_" class="st3" d="M59.23,21.25l0-0.64c0-1.03,0.72-1.45,1.61-0.93l5.96,3.44h0l0,4.37l0,0l-5.96-3.44
					C59.96,23.53,59.23,22.28,59.23,21.25z"/>
			</g>
		</g>
		<g id="Spreadsheets_2_">
			<polygon id="XMLID_7072_" class="st8" points="278.8,176.1 51.66,44.98 51.66,53.7 259.88,173.92 259.89,287.58 278.8,298.5 			
				"/>
			<polygon id="XMLID_7071_" class="st4" points="259.88,173.92 240.97,163 240.97,171.72 259.88,182.66 			"/>
			<polygon id="XMLID_7070_" class="st4" points="259.88,243.85 240.97,232.93 240.97,241.66 259.88,252.59 			"/>
			<g id="XMLID_7067_">
				<polygon id="XMLID_7069_" class="st4" points="259.88,252.6 240.97,241.68 240.97,250.4 259.88,261.34 				"/>
				<polygon id="XMLID_7068_" class="st13" points="259.88,252.6 240.97,241.68 240.97,250.4 259.88,261.34 				"/>
			</g>
			<g id="XMLID_7064_">
				<polygon id="XMLID_7066_" class="st4" points="146.32,178.28 127.41,167.36 127.41,176.09 146.32,187.02 				"/>
				<polygon id="XMLID_7065_" class="st1" points="146.32,178.28 127.41,167.36 127.41,176.09 146.32,187.02 				"/>
			</g>
			<g id="XMLID_7061_">
				<polygon id="XMLID_7063_" class="st4" points="146.32,187.03 127.41,176.11 127.41,184.83 146.32,195.77 				"/>
				<polygon id="XMLID_7062_" class="st1" points="146.32,187.03 127.41,176.11 127.41,184.83 146.32,195.77 				"/>
			</g>
			<g id="XMLID_7058_">
				<polygon id="XMLID_7060_" class="st4" points="146.32,195.77 127.41,184.85 127.41,193.57 146.32,204.51 				"/>
				<polygon id="XMLID_7059_" class="st1" points="146.32,195.77 127.41,184.85 127.41,193.57 146.32,204.51 				"/>
			</g>
			<g id="XMLID_7055_">
				<polygon id="XMLID_7057_" class="st4" points="146.32,204.51 127.41,193.59 127.41,202.32 146.32,213.25 				"/>
				<polygon id="XMLID_7056_" class="st1" points="146.32,204.51 127.41,193.59 127.41,202.32 146.32,213.25 				"/>
			</g>
			<polygon id="XMLID_7054_" class="st4" points="165.23,119.27 146.32,108.35 146.32,152.06 165.23,163 			"/>
			<polygon id="XMLID_7053_" class="st4" points="165.23,171.73 146.32,160.81 146.32,222.01 165.23,232.95 			"/>
			<g id="XMLID_7050_">
				<polygon id="XMLID_7052_" class="st4" points="240.97,215.44 222.06,204.52 222.06,213.24 240.97,224.18 				"/>
				<polygon id="XMLID_7051_" class="st1" points="240.97,215.44 222.06,204.52 222.06,213.24 240.97,224.18 				"/>
			</g>
			<g id="XMLID_7047_">
				<polygon id="XMLID_7049_" class="st4" points="203.09,149.87 184.18,138.95 184.18,147.67 203.09,158.61 				"/>
				<polygon id="XMLID_7048_" class="st14" points="203.09,149.87 184.18,138.95 184.18,147.67 203.09,158.61 				"/>
			</g>
			<g id="XMLID_7044_">
				<polygon id="XMLID_7046_" class="st4" points="108.44,147.68 89.53,136.77 89.53,145.49 108.44,156.42 				"/>
				<polygon id="XMLID_7045_" class="st13" points="108.44,147.68 89.53,136.77 89.53,145.49 108.44,156.42 				"/>
			</g>
			<polygon id="XMLID_7043_" class="st4" points="108.44,165.18 89.53,154.26 89.53,162.98 108.44,173.92 			"/>
			<path id="XMLID_2338_" class="st7" d="M51.2,44.16l0,123.47l0.23,0.13l227.84,131.55l0-123.48l-0.23-0.13L51.2,44.16z
				 M52.13,150.71l17.99,10.39v7.67l-17.99-10.39L52.13,150.71z M278.34,192.78l-17.99-10.39v-7.67l17.99,10.39L278.34,192.78z
				 M183.69,182.94v7.67l-18-10.39v-7.67L183.69,182.94z M165.7,171.48v-7.67l18,10.39v7.67L165.7,171.48z M164.76,179.68l-18-10.39
				v-7.67l18,10.39V179.68z M146.77,160.55v-7.67l18,10.39v7.67L146.77,160.55z M146.77,151.8v-7.67l18,10.39v7.67L146.77,151.8z
				 M146.77,143.06v-7.67l18,10.39v7.67L146.77,143.06z M165.7,146.32l18,10.39v7.67l-18-10.39V146.32z M183.69,165.45v7.67
				l-18-10.39v-7.67L183.69,165.45z M184.63,165.99l18,10.39v7.67l-18-10.39V165.99z M202.62,185.13v7.67l-18-10.39v-7.67
				L202.62,185.13z M202.62,193.87v7.67l-18-10.39v-7.67L202.62,193.87z M202.62,202.62v7.67l-18-10.39v-7.67L202.62,202.62z
				 M183.69,199.36l-18-10.39v-7.67l18,10.39V199.36z M183.69,200.43v7.67l-18-10.39v-7.67L183.69,200.43z M164.76,197.17l-18-10.39
				v-7.67l18,10.39V197.17z M146.77,178.04v-7.67l18,10.39v7.67L146.77,178.04z M145.84,177.5l-18-10.39v-7.67l18,10.39V177.5z
				 M127.84,158.36v-7.67l18,10.39v7.67L127.84,158.36z M127.84,149.62v-7.67l18,10.39v7.67L127.84,149.62z M127.84,140.87v-7.67
				l18,10.39v7.67L127.84,140.87z M127.84,132.13v-7.67l18,10.39v7.67L127.84,132.13z M127.84,123.38v-7.67l18,10.39v7.67
				L127.84,123.38z M146.77,126.64l18,10.39v7.67l-18-10.39V126.64z M165.7,137.57l18,10.39v7.67l-18-10.39V137.57z M184.63,148.5
				l18,10.39v7.67l-18-10.39V148.5z M202.62,167.64v7.67l-18-10.39v-7.67L202.62,167.64z M203.55,168.18l18,10.39v7.67l-18-10.39
				V168.18z M221.55,187.31v7.67l-18-10.39v-7.67L221.55,187.31z M221.55,196.06v7.67l-18-10.39v-7.67L221.55,196.06z M221.55,204.8
				v7.67l-18-10.39v-7.67L221.55,204.8z M221.55,213.55v7.67l-18-10.39v-7.67L221.55,213.55z M221.55,222.29v7.67l-18-10.39v-7.67
				L221.55,222.29z M202.62,219.03l-18-10.39v-7.67l18,10.39V219.03z M202.62,220.11v7.67l-18-10.39v-7.67L202.62,220.11z
				 M183.69,216.85l-18-10.39v-7.67l18,10.39V216.85z M164.76,205.92l-18-10.39v-7.67l18,10.39V205.92z M145.84,194.99l-18-10.39
				v-7.67l18,10.39V194.99z M127.84,175.85v-7.67l18,10.39v7.67L127.84,175.85z M126.91,175.32l-18-10.39v-7.67l18,10.39V175.32z
				 M108.91,156.18v-7.67l18,10.39v7.67L108.91,156.18z M108.91,147.44v-7.67l18,10.39v7.67L108.91,147.44z M108.91,138.69v-7.67
				l18,10.39v7.67L108.91,138.69z M108.91,129.95v-7.67l18,10.39v7.67L108.91,129.95z M108.91,121.2v-7.67l18,10.39v7.67
				L108.91,121.2z M108.91,112.46v-7.67l18,10.39v7.67L108.91,112.46z M108.91,103.71v-7.67l18,10.39v7.67L108.91,103.71z
				 M127.84,106.97l18,10.39v7.67l-18-10.39V106.97z M146.77,117.9l18,10.39v7.67l-18-10.39V117.9z M165.7,128.83l18,10.39v7.67
				l-18-10.39V128.83z M184.63,139.76l18,10.39v7.67l-18-10.39V139.76z M203.55,150.69l18,10.39v7.67l-18-10.39V150.69z
				 M221.55,169.82v7.67l-18-10.39v-7.67L221.55,169.82z M222.48,170.36l18,10.39v7.67l-18-10.39V170.36z M240.48,189.49v7.67
				l-18-10.39v-7.67L240.48,189.49z M240.48,198.24v7.67l-18-10.39v-7.67L240.48,198.24z M240.48,206.98v7.67l-18-10.39v-7.67
				L240.48,206.98z M240.48,215.73v7.67l-18-10.39v-7.67L240.48,215.73z M240.48,224.47v7.67l-18-10.39v-7.67L240.48,224.47z
				 M240.48,233.22v7.67l-18-10.39v-7.67L240.48,233.22z M240.48,241.96v7.67l-18-10.39v-7.67L240.48,241.96z M221.55,238.71
				l-18-10.39v-7.67l18,10.39V238.71z M221.55,239.78v7.67l-18-10.39v-7.67L221.55,239.78z M202.62,236.52l-18-10.39v-7.67l18,10.39
				V236.52z M183.69,225.59l-18-10.39v-7.67l18,10.39V225.59z M164.76,214.66l-18-10.39v-7.67l18,10.39V214.66z M145.84,203.74
				l-18-10.39v-7.67l18,10.39V203.74z M126.91,192.81l-18-10.39v-7.67l18,10.39V192.81z M108.91,173.67V166l18,10.39v7.67
				L108.91,173.67z M107.98,173.13l-18-10.39v-7.67l18,10.39V173.13z M89.98,154v-7.67l18,10.39v7.67L89.98,154z M89.98,145.25
				v-7.67l18,10.39v7.67L89.98,145.25z M89.98,136.51v-7.67l18,10.39v7.67L89.98,136.51z M89.98,127.76v-7.67l18,10.39v7.67
				L89.98,127.76z M89.98,119.02v-7.67l18,10.39v7.67L89.98,119.02z M89.98,110.27v-7.67l18,10.39v7.67L89.98,110.27z M89.98,101.53
				v-7.67l18,10.39v7.67L89.98,101.53z M89.98,92.78v-7.67l18,10.39v7.67L89.98,92.78z M89.98,84.04v-7.67l18,10.39v7.67
				L89.98,84.04z M108.91,87.3l18,10.39v7.67l-18-10.39V87.3z M127.84,98.23l18,10.39v7.67l-18-10.39V98.23z M146.77,109.15
				l18,10.39v7.67l-18-10.39V109.15z M165.7,120.08l18,10.39v7.67l-18-10.39V120.08z M184.63,131.01l18,10.39v7.67l-18-10.39V131.01
				z M203.55,141.94l18,10.39V160l-18-10.39V141.94z M222.48,152.87l18,10.39v7.67l-18-10.39V152.87z M240.48,172v7.67l-18-10.39
				v-7.67L240.48,172z M241.41,172.54l18,10.39v7.67l-18-10.39V172.54z M259.41,191.68v7.67l-18-10.39v-7.67L259.41,191.68z
				 M259.41,200.42v7.67l-18-10.39v-7.67L259.41,200.42z M259.41,209.17v7.67l-18-10.39v-7.67L259.41,209.17z M259.41,217.91v7.67
				l-18-10.39v-7.67L259.41,217.91z M259.41,226.66v7.67l-18-10.39v-7.67L259.41,226.66z M259.41,235.4v7.67l-18-10.39v-7.67
				L259.41,235.4z M259.41,244.15v7.67l-18-10.39v-7.67L259.41,244.15z M259.41,252.89v7.67l-18-10.39v-7.67L259.41,252.89z
				 M259.41,261.64v7.67l-18-10.39v-7.67L259.41,261.64z M240.48,258.38l-18-10.39v-7.67l18,10.39V258.38z M240.48,259.45v7.67
				l-18-10.39v-7.67L240.48,259.45z M221.55,256.2l-18-10.39v-7.67l18,10.39V256.2z M202.62,245.27l-18-10.39v-7.67l18,10.39V245.27
				z M183.69,234.34l-18-10.39v-7.67l18,10.39V234.34z M164.76,223.41l-18-10.39v-7.67l18,10.39V223.41z M145.84,212.48l-18-10.39
				v-7.67l18,10.39V212.48z M126.91,201.55l-18-10.39v-7.67l18,10.39V201.55z M107.98,190.62l-18-10.39v-7.67l18,10.39V190.62z
				 M89.98,171.49v-7.67l18,10.39v7.67L89.98,171.49z M89.05,170.95l-18-10.39v-7.67l18,10.39V170.95z M71.05,151.81v-7.67l18,10.39
				v7.67L71.05,151.81z M71.05,143.07v-7.67l18,10.39v7.67L71.05,143.07z M71.05,134.32v-7.67l18,10.39v7.67L71.05,134.32z
				 M71.05,125.58v-7.67l18,10.39v7.67L71.05,125.58z M71.05,116.83v-7.67l18,10.39v7.67L71.05,116.83z M71.05,108.09v-7.67
				l18,10.39v7.67L71.05,108.09z M71.05,99.34v-7.67l18,10.39v7.67L71.05,99.34z M71.05,90.6v-7.67l18,10.39v7.67L71.05,90.6z
				 M71.05,81.85v-7.67l18,10.39v7.67L71.05,81.85z M71.05,73.11v-7.67l18,10.39v7.67L71.05,73.11z M71.05,64.36V56.7l18,10.39v7.66
				L71.05,64.36z M89.98,67.63l18,10.39v7.66l-18-10.39V67.63z M108.91,78.56l18,10.39v7.66l-18-10.39V78.56z M127.84,89.48
				l18,10.39v7.66l-18-10.39V89.48z M146.77,100.41l18,10.39v7.66l-18-10.39V100.41z M165.7,111.34l18,10.39v7.66l-18-10.39V111.34z
				 M184.63,122.27l18,10.39v7.66l-18-10.39V122.27z M203.55,133.2l18,10.39v7.66l-18-10.39V133.2z M222.48,144.13l18,10.39v7.66
				l-18-10.39V144.13z M241.41,155.06l18,10.39v7.66l-18-10.39V155.06z M259.41,174.19v7.67l-18-10.39v-7.67L259.41,174.19z
				 M278.34,201.53l-17.99-10.39v-7.67l17.99,10.39L278.34,201.53z M278.34,210.28l-17.99-10.39v-7.67l17.99,10.39V210.28z
				 M278.34,219.02l-17.99-10.39v-7.67l17.99,10.39L278.34,219.02z M278.34,227.77l-17.99-10.39v-7.67l17.99,10.39L278.34,227.77z
				 M278.34,236.51l-17.99-10.39v-7.67l17.99,10.39L278.34,236.51z M278.34,245.26l-18-10.39v-7.67l17.99,10.39L278.34,245.26z
				 M278.34,254l-18-10.39v-7.67l18,10.39L278.34,254z M278.34,262.75l-18-10.39v-7.67l18,10.39L278.34,262.75z M278.34,271.49
				l-18-10.39v-7.67l18,10.39V271.49z M278.34,280.24l-18-10.39v-7.67l18,10.39L278.34,280.24z M278.34,288.98l-18-10.39v-7.67
				l18,10.39L278.34,288.98z M259.41,278.05l-18-10.39v-7.67l18,10.39V278.05z M259.41,279.13v7.64l-18-10.39v-7.64L259.41,279.13z
				 M240.48,275.84l-18-10.39v-7.64l18,10.39V275.84z M221.55,264.91l-18-10.39v-7.64l18,10.39V264.91z M202.62,253.98l-18-10.39
				v-7.64l18,10.39V253.98z M183.69,243.05l-18-10.39v-7.64l18,10.39V243.05z M164.76,232.12l-18-10.39v-7.64l18,10.39V232.12z
				 M145.84,221.2l-18-10.39v-7.64l18,10.39V221.2z M126.91,210.27l-18-10.39v-7.64l18,10.39V210.27z M107.98,199.34l-18-10.39
				v-7.64l18,10.39V199.34z M89.05,188.41l-18-10.39v-7.64l18,10.39V188.41z M71.05,169.3v-7.67l18,10.39v7.67L71.05,169.3z
				 M52.13,141.96l17.99,10.39v7.67l-17.99-10.39L52.13,141.96z M52.13,133.22l17.99,10.39v7.67l-17.99-10.39V133.22z M52.13,124.47
				l17.99,10.39v7.67l-17.99-10.39L52.13,124.47z M52.13,115.73l17.99,10.39v7.67L52.13,123.4L52.13,115.73z M52.13,106.98
				l17.99,10.39v7.67l-17.99-10.39L52.13,106.98z M52.13,98.24l17.99,10.39v7.67l-17.99-10.39L52.13,98.24z M52.13,89.49
				l17.99,10.39v7.67L52.13,97.16L52.13,89.49z M52.13,80.75l17.99,10.39v7.67L52.13,88.42L52.13,80.75z M52.13,72l17.99,10.39v7.67
				L52.13,79.67V72z M52.13,63.26l17.99,10.39v7.67L52.13,70.93L52.13,63.26z M52.13,54.51L70.12,64.9v7.67L52.13,62.18L52.13,54.51
				z M52.13,45.77l17.99,10.39v7.66L52.13,53.44L52.13,45.77z M278.34,176.38l0,7.66l-17.99-10.39v-7.66L278.34,176.38z
				 M278.34,297.7l-18-10.39v-7.64l18,10.39L278.34,297.7z M52.13,167.09l0-7.64l17.99,10.39v7.64L52.13,167.09z"/>
			<g id="XMLID_2284_">
				<polygon id="XMLID_2337_" class="st15" points="127.41,97.4 51.66,53.71 51.66,97.43 127.41,141.12 				"/>
				<g id="XMLID_2285_">
					<polyline id="XMLID_2336_" class="st16" points="123.58,130.21 113.34,102.25 102.02,109.02 90.64,97.43 79.29,104.91 
						67.94,76.96 56.59,82.78 					"/>
					<path id="XMLID_2335_" class="st4" d="M113.34,100.93c0.63,0.36,1.14,1.25,1.14,1.98c0,0.73-0.51,1.03-1.14,0.66
						c-0.63-0.37-1.14-1.25-1.14-1.98C112.2,100.86,112.71,100.57,113.34,100.93z"/>
					<path id="XMLID_2329_" class="st4" d="M101.99,107.7c0.63,0.36,1.14,1.25,1.14,1.98c0,0.73-0.51,1.03-1.14,0.66
						c-0.63-0.37-1.14-1.25-1.14-1.98S101.36,107.33,101.99,107.7z"/>
					<path id="XMLID_2328_" class="st4" d="M90.64,96.11c0.63,0.36,1.14,1.25,1.14,1.98c0,0.73-0.51,1.03-1.14,0.66
						c-0.63-0.37-1.14-1.25-1.14-1.98C89.5,96.04,90.01,95.75,90.64,96.11z"/>
					<path id="XMLID_2327_" class="st4" d="M79.29,103.58c0.63,0.36,1.14,1.25,1.14,1.98c0,0.73-0.51,1.03-1.14,0.66
						c-0.63-0.37-1.14-1.25-1.14-1.98C78.15,103.52,78.66,103.22,79.29,103.58z"/>
					<path id="XMLID_2326_" class="st4" d="M67.94,75.64c0.63,0.36,1.14,1.25,1.14,1.98c0,0.73-0.51,1.03-1.14,0.66
						c-0.63-0.37-1.14-1.25-1.14-1.98C66.8,75.57,67.31,75.28,67.94,75.64z"/>
					<path id="XMLID_2290_" class="st4" d="M56.59,81.46c0.63,0.36,1.14,1.25,1.14,1.98c0,0.73-0.51,1.03-1.14,0.66
						c-0.63-0.37-1.14-1.25-1.14-1.98C55.45,81.39,55.96,81.1,56.59,81.46z"/>
				</g>
			</g>
		</g>
	</g>
</g>
<g id="Charts">
	<g id="Charts_3_">
		<g id="XMLID_77_">
			<polygon id="XMLID_80_" class="st3" points="20.15,214.75 40.29,226.38 20.14,238.01 0,226.38 			"/>
			<polygon id="XMLID_79_" class="st2" points="0,226.35 0,272.61 20.14,284.24 20.15,238.01 			"/>
			<polygon id="XMLID_78_" class="st0" points="20.15,238.01 20.14,284.24 40.29,272.61 40.29,226.36 			"/>
		</g>
		<g id="XMLID_71_">
			<polygon id="XMLID_76_" class="st4" points="46.65,250.11 66.79,261.73 46.64,273.36 26.5,261.73 			"/>
			<polygon id="XMLID_75_" class="st17" points="46.65,250.11 66.79,261.73 46.64,273.36 26.5,261.73 			"/>
			<polygon id="XMLID_74_" class="st4" points="26.5,261.71 26.5,287.91 46.64,299.54 46.65,273.37 			"/>
			<polygon id="XMLID_73_" class="st4" points="46.65,273.37 46.64,299.54 66.79,287.9 66.79,261.71 			"/>
			<polygon id="XMLID_72_" class="st18" points="46.65,273.37 46.64,299.54 66.79,287.9 66.79,261.71 			"/>
		</g>
		<g id="XMLID_64_">
			<polygon id="XMLID_70_" class="st4" points="73.15,254.53 93.29,266.15 73.14,277.79 53,266.16 			"/>
			<polygon id="XMLID_69_" class="st19" points="73.15,254.53 93.29,266.15 73.14,277.79 53,266.16 			"/>
			<polygon id="XMLID_68_" class="st4" points="53,266.13 53,303.21 73.14,314.84 73.14,277.79 			"/>
			<polygon id="XMLID_67_" class="st20" points="53,266.13 53,303.21 73.14,314.84 73.14,277.79 			"/>
			<polygon id="XMLID_66_" class="st4" points="73.14,277.79 73.14,314.84 93.29,303.2 93.29,266.13 			"/>
			<polygon id="XMLID_65_" class="st14" points="73.14,277.79 73.14,314.84 93.29,303.2 93.29,266.13 			"/>
		</g>
		<g id="XMLID_57_">
			<polygon id="XMLID_63_" class="st4" points="99.65,293.8 119.79,305.43 99.64,317.06 79.5,305.43 			"/>
			<polygon id="XMLID_62_" class="st21" points="99.65,293.8 119.79,305.43 99.64,317.06 79.5,305.43 			"/>
			<polygon id="XMLID_61_" class="st4" points="79.5,305.41 79.5,318.51 99.64,330.13 99.64,317.06 			"/>
			<polygon id="XMLID_60_" class="st1" points="79.5,305.41 79.5,318.51 99.64,330.13 99.64,317.06 			"/>
			<polygon id="XMLID_59_" class="st4" points="99.64,317.06 99.64,330.13 119.79,318.5 119.79,305.41 			"/>
			<polygon id="XMLID_58_" class="st22" points="99.64,317.06 99.64,330.13 119.79,318.5 119.79,305.41 			"/>
		</g>
	</g>
	<g id="Charts_2_">
		<g id="XMLID_37_">
			<path id="XMLID_56_" class="st0" d="M209.36,375.16v7.62l7.53-20.47v-7.61c0,0,0,0-0.01,0.01L209.36,375.16z"/>
			<polygon id="XMLID_55_" class="st2" points="209.36,375.16 209.36,382.78 178.3,372.01 178.3,364.39 			"/>
			<path id="XMLID_54_" class="st3" d="M216.89,354.7l-7.53,20.46l-31.06-10.77C186.82,356.95,201.65,353.22,216.89,354.7z"/>
			<path id="XMLID_53_" class="st4" d="M249.34,376.57c0.01,0.07,0.01,0.16,0.01,0.23L249.34,376.57L249.34,376.57z"/>
			<path id="XMLID_52_" class="st4" d="M212.46,384.78l4.61,21.7c18.83-1.84,32.43-11.36,32.27-22.25l0.01,0.02v-7.44
				c0,10.8-13.57,20.22-32.28,22.05l-3.17-14.91L212.46,384.78z"/>
			<path id="XMLID_51_" class="st21" d="M212.46,384.78l4.61,21.7c18.83-1.84,32.43-11.36,32.27-22.25l0.01,0.02v-7.44
				c0,10.8-13.57,20.22-32.28,22.05l-3.17-14.91L212.46,384.78z"/>
			<g id="XMLID_46_">
				<path id="XMLID_50_" class="st4" d="M213.53,399.11v7.62c-8.22,0.39-15.74-0.64-22.92-3.13c-8.88-3.08-15.15-7.97-17.65-13.77
					c-0.76-1.76-1.15-3.55-1.17-5.32c-0.01-0.72,0-7.87,0-7.87s2.15-0.17,4.67-2.86l5.82,2.02l26.64,9.24L213.53,399.11z"/>
				<path id="XMLID_49_" class="st23" d="M213.53,399.11v7.62c-8.22,0.39-15.74-0.64-22.92-3.13c-8.88-3.08-15.15-7.97-17.65-13.77
					c-0.76-1.76-1.15-3.55-1.17-5.32c-0.01-0.72,0-7.87,0-7.87s2.15-0.17,4.67-2.86l5.82,2.02l26.64,9.24L213.53,399.11z"/>
				<polygon id="XMLID_48_" class="st4" points="236.71,367.86 213.57,381.22 213.57,373.6 236.71,360.24 				"/>
				<polygon id="XMLID_47_" class="st18" points="236.71,367.86 213.57,381.22 213.57,373.6 236.71,360.24 				"/>
			</g>
			<g id="XMLID_40_">
				<path id="XMLID_45_" class="st4" d="M249.06,374.06c2.53,11.91-11.71,22.82-31.99,24.8l-4.61-21.7l26.78-15.46
					C244.82,365.2,248.04,369.25,249.06,374.06z"/>
				<path id="XMLID_44_" class="st1" d="M249.06,374.06c2.53,11.91-11.71,22.82-31.99,24.8l-4.61-21.7l26.78-15.46
					C244.82,365.2,248.04,369.25,249.06,374.06z"/>
				<path id="XMLID_43_" class="st4" d="M213.4,398.47l0.13,0.63c-8.22,0.39-15.74-0.64-22.92-3.13
					c-8.88-3.08-15.15-7.97-17.65-13.77c-2.36-5.47-1.11-11.13,3.5-16.05l5.82,2.02l26.64,9.24L213.4,398.47z"/>
				<path id="XMLID_42_" class="st20" d="M213.4,398.47l0.13,0.63c-8.22,0.39-15.74-0.64-22.92-3.13
					c-8.88-3.08-15.15-7.97-17.65-13.77c-2.36-5.47-1.11-11.13,3.5-16.05l5.82,2.02l26.64,9.24L213.4,398.47z"/>
				<path id="XMLID_41_" class="st4" d="M236.71,360.24l-23.14,13.36l6.8-18.48C226.82,356.05,231.85,357.63,236.71,360.24z"/>
			</g>
			<polygon id="XMLID_39_" class="st4" points="212.45,384.78 212.45,377.16 217.07,398.86 217.07,406.48 			"/>
			<polygon id="XMLID_38_" class="st22" points="212.45,384.78 212.45,377.16 217.07,398.86 217.07,406.48 			"/>
		</g>
		<g id="XMLID_28_">
			<g id="XMLID_30_">
				<polygon id="XMLID_36_" class="st4" points="182.93,343.27 187.98,346.18 182.93,349.09 177.89,346.18 				"/>
				<polygon id="XMLID_35_" class="st1" points="182.93,343.27 187.98,346.18 182.93,349.09 177.89,346.18 				"/>
				<polygon id="XMLID_34_" class="st4" points="177.89,346.17 177.89,349.09 182.93,352 182.93,349.09 				"/>
				<polygon id="XMLID_33_" class="st22" points="177.89,346.17 177.89,349.09 182.93,352 182.93,349.09 				"/>
				<polygon id="XMLID_32_" class="st4" points="182.93,349.09 182.93,352 187.97,349.09 187.98,346.17 				"/>
				<polygon id="XMLID_31_" class="st21" points="182.93,349.09 182.93,352 187.97,349.09 187.98,346.17 				"/>
			</g>
			<path id="XMLID_29_" class="st7" d="M175.24,341.01l-18.68-10.78c-1.11-0.64-2.87-0.68-3.91-0.07c-1.05,0.6-0.99,1.61,0.12,2.26
				l18.68,10.78c1.11,0.64,2.87,0.68,3.91,0.07S176.35,341.65,175.24,341.01z"/>
		</g>
		<g id="XMLID_19_">
			<g id="XMLID_21_">
				<polygon id="XMLID_27_" class="st4" points="171.58,349.82 176.62,352.73 171.58,355.64 166.53,352.73 				"/>
				<polygon id="XMLID_26_" class="st19" points="171.58,349.82 176.62,352.73 171.58,355.64 166.53,352.73 				"/>
				<polygon id="XMLID_25_" class="st4" points="166.53,352.73 166.53,355.65 171.58,358.56 171.58,355.65 				"/>
				<polygon id="XMLID_24_" class="st20" points="166.53,352.73 166.53,355.65 171.58,358.56 171.58,355.65 				"/>
				<polygon id="XMLID_23_" class="st4" points="171.58,355.65 171.58,358.56 176.62,355.65 176.62,352.73 				"/>
				<polygon id="XMLID_22_" class="st23" points="171.58,355.65 171.58,358.56 176.62,355.65 176.62,352.73 				"/>
			</g>
			<path id="XMLID_20_" class="st7" d="M163.88,347.57l-18.68-10.78c-1.11-0.64-2.87-0.68-3.91-0.07c-1.05,0.6-0.99,1.61,0.12,2.26
				l18.68,10.78c1.11,0.64,2.87,0.68,3.91,0.07C165.05,349.22,164.99,348.21,163.88,347.57z"/>
		</g>
		<g id="XMLID_11_">
			<g id="XMLID_13_">
				<polygon id="XMLID_18_" class="st4" points="160.22,356.38 165.26,359.29 160.22,362.2 155.18,359.29 				"/>
				<polygon id="XMLID_17_" class="st4" points="160.22,356.38 165.26,359.29 160.22,362.2 155.18,359.29 				"/>
				<polygon id="XMLID_16_" class="st24" points="155.18,359.28 155.18,362.21 160.22,365.12 160.22,362.2 				"/>
				<polygon id="XMLID_15_" class="st4" points="160.22,362.2 160.22,365.12 165.26,362.21 165.26,359.29 				"/>
				<polygon id="XMLID_14_" class="st18" points="160.22,362.2 160.22,365.12 165.26,362.21 165.26,359.29 				"/>
			</g>
			<path id="XMLID_12_" class="st7" d="M152.52,354.12l-18.68-10.78c-1.11-0.64-2.87-0.68-3.91-0.07c-1.05,0.6-0.99,1.61,0.12,2.26
				l18.68,10.78c1.11,0.64,2.87,0.68,3.91,0.07C153.69,355.78,153.64,354.77,152.52,354.12z"/>
		</g>
		<g id="XMLID_1_">
			<g id="XMLID_7_">
				<polygon id="XMLID_10_" class="st3" points="148.86,362.94 153.9,365.85 148.86,368.76 143.82,365.85 				"/>
				<polygon id="XMLID_9_" class="st2" points="143.82,365.84 143.82,368.76 148.86,371.67 148.86,368.76 				"/>
				<polygon id="XMLID_8_" class="st0" points="148.86,368.76 148.86,371.67 153.9,368.76 153.9,365.84 				"/>
			</g>
			<path id="XMLID_6_" class="st7" d="M141.16,360.68l-18.68-10.78c-1.11-0.64-2.87-0.68-3.91-0.07c-1.05,0.6-0.99,1.61,0.12,2.26
				l18.68,10.78c1.11,0.64,2.87,0.68,3.91,0.07C142.33,362.33,142.28,361.32,141.16,360.68z"/>
		</g>
	</g>
</g>
<g id="Character">
</g>
</svg>
