<?xml version="1.0" encoding="utf-8"?>
<!-- Generator: Adobe Illustrator 24.0.1, SVG Export Plug-In . SVG Version: 6.00 Build 0)  -->
<svg version="1.1" id="Layer_1" xmlns="http://www.w3.org/2000/svg" xmlns:xlink="http://www.w3.org/1999/xlink" x="0px" y="0px"
	 viewBox="0 0 1541 231.2" style="enable-background:new 0 0 1541 231.2;" xml:space="preserve">
<style type="text/css">
	.st0{fill:#FFFFFF;}
</style>
<g>
	<path class="st0" d="M1148.4,156l0,0.2L1148.4,156L1148.4,156z M1150.7,145.4l0.1,0l0-0.2L1150.7,145.4z M1285.2,16.9
		c0-0.1,0-0.1-0.1-0.2c-0.1,0-0.1,0-0.1,0.1c0,0.1,0,0.1,0,0.2C1285.1,17,1285.2,17,1285.2,16.9 M1285.7,18.2l-0.1,0.2l0.1,0
		L1285.7,18.2z M1149.4,151.9c-0.1,0-0.1,0-0.2,0.1c0,0.1,0,0.1,0,0.2c0.1,0,0.2,0,0.3-0.1C1149.4,152,1149.4,152,1149.4,151.9
		 M1070,160.8C1069.9,160.8,1069.9,160.8,1070,160.8c-0.1,0.2-0.1,0.4-0.1,0.6c0,0,0.1,0,0.1,0L1070,160.8z M1072,152.6
		c0,0-0.1,0-0.1,0c0,0.2,0,0.4,0,0.6c0.1,0,0.1,0,0.2,0V152.6L1072,152.6z M1070.4,158.5C1070.4,158.5,1070.4,158.5,1070.4,158.5
		c0.1-0.2,0.1-0.4,0.1-0.6c0,0-0.1,0-0.1,0C1070.4,158.1,1070.4,158.3,1070.4,158.5 M1074.1,145.5c0,0,0.1,0,0.1,0v-0.8
		c-0.1,0-0.1,0-0.1,0V145.5z M1074.7,142.7c0.1,0,0.1,0,0.2,0v-0.8c0,0-0.1,0-0.2,0V142.7z M1071.4,155.1c-0.1,0-0.1,0-0.2,0
		c0,0.3,0,0.6,0,0.8c0,0,0.1,0,0.1,0V155.1z M1152.3,153.2c-0.2,0-0.3,0-0.5,0c0.1,0.3,0.2,0.6,0.3,0.9c0.1,0,0.1,0,0.2-0.1
		L1152.3,153.2L1152.3,153.2z M1079.2,125.8c-0.1,0-0.2,0-0.3,0c0,0.3,0.1,0.6,0.1,0.9l0.2,0L1079.2,125.8L1079.2,125.8z
		 M1252.9,150.8c-0.1-0.1-0.1-0.3-0.2-0.4c-0.1-0.1-0.3,0.1-0.4,0.1c0.1,0.1,0.1,0.3,0.2,0.4C1252.6,151,1252.8,150.9,1252.9,150.8
		 M1080,122.8c-0.1,0-0.1,0-0.2,0c0,0.3,0,0.7-0.1,1c0.1,0,0.2,0,0.2,0V122.8z M1072.8,149.7c0,0-0.1,0-0.1,0v1c0,0,0.1,0,0.1,0
		V149.7z M1080.7,120.3c-0.1,0-0.2,0-0.3,0c0,0.3,0,0.7-0.1,1.1c0.1,0,0.2,0,0.3,0C1080.6,121.1,1080.6,120.7,1080.7,120.3
		 M1503.5,230.4c0-0.1,0-0.1,0-0.2h-1c0,0.1,0,0.1,0,0.2H1503.5z M1075.7,139.1c0,0-0.1,0-0.2,0v1.1c0,0,0.1,0,0.2,0V139.1z
		 M1077.2,133.8c-0.1,0-0.1,0-0.2,0v1.1c0.1,0,0.1,0,0.2,0V133.8z M1073.5,147.3c-0.1,0-0.2,0-0.2,0v1c0.1,0,0.1,0,0.2,0
		C1073.4,148,1073.4,147.6,1073.5,147.3 M1076.1,137.4c0,0,0.1,0,0.2,0v-1.1c-0.1,0-0.1,0-0.2,0V137.4z M1078.6,128.1
		c-0.1,0-0.1,0-0.2,0v1.3c0,0,0.1,0,0.2,0V128.1z M1077.4,132.2c0.1,0,0.2,0.1,0.3,0.1V131c-0.1,0-0.1,0-0.2,0
		C1077.5,131.4,1077.5,131.8,1077.4,132.2 M1086,22l0-0.2c-0.4,0-0.8,0-1.2,0.1c0,0,0,0.1,0,0.1H1086z M1070.6,146.3
		c-0.1,0-0.1,0-0.2,0v1.5c0.1,0,0.1,0,0.2,0V146.3z M914.5,71.2c-0.1-0.1-0.1-0.2-0.2-0.3c-0.5,0.2-0.9,0.5-1.4,0.7
		c0.1,0.1,0.1,0.2,0.2,0.3C913.6,71.7,914,71.5,914.5,71.2 M1151.5,139.6c-0.1,0-0.2,0-0.3,0v2.1c0.1,0,0.2,0,0.3,0V139.6z
		 M939.7,139.6c0.1,0,0.1,0,0.2,0v-3.2c-0.1,0-0.2,0-0.3,0C939.6,137.5,939.7,138.6,939.7,139.6 M1153,133.9
		c-0.9,1.3-1.4,2.8-0.8,4.8C1152.5,136.8,1152.7,135.4,1153,133.9 M945.7,86.8c-1.5,1.7-1.5,2.5,0,2.9V86.8z M1087.7,72.7
		c-0.4-0.7-0.7-1.2-1.1-1.8c-0.7,0.9-1.3,1.7-1.9,2.4c0.1,0.1,0.2,0.3,0.3,0.4C1085.7,73.4,1086.6,73.1,1087.7,72.7 M1299.5,156.3
		c0.3,2.5,1.2,3.6,3.2,4C1301.6,159,1300.7,157.8,1299.5,156.3 M1148.3,163.6c1.6-0.2,2.9-0.4,4.3-0.7c0-0.2,0-0.3,0-0.5
		c-0.9-0.3-1.8-0.6-2.7-0.9c-0.4,0.4-0.7,0.6-0.8,0.8C1148.8,162.8,1148.7,163.1,1148.3,163.6 M911.4,74.4c-0.1,0.2-0.1,0.4-0.2,0.6
		c0.6,0.5,1.1,0.9,1.7,1.4c0.8-0.6,1.5-1.1,2.5-2H911.4z M1155.1,160.5c1.9,1.9,3.9,1.4,6,0.9c-1.7-0.4-3.3-0.7-5-1
		C1155.9,160.4,1155.6,160.5,1155.1,160.5 M945.5,164.9c-0.2,2,1.6,3.8,5,5C948.9,168.3,947.2,166.6,945.5,164.9 M1166.7,157.3
		c0.1-1.7,0.1-1.7-0.5-2.8c-1.3,1.3-2.6,2.6-4,4c0.1,0.7,0.2,1.5,0.3,2.4C1164.5,160.2,1165.4,158.4,1166.7,157.3 M1309.1,203.3
		v-13.4C1307.2,194.3,1307.4,198.8,1309.1,203.3 M1311.1,169.1c0.4,1.7,3.8,6,6.3,8.1c1.1-1.6-0.2-2.6-1-3.5
		C1314.8,172.1,1313,170.7,1311.1,169.1 M903.9,80.9c0.2,0.2,0.3,0.3,0.5,0.5c2.1-1.1,4.3-1.8,5.9-3.9c-0.9-0.7-1.6-1.3-2.6-2
		C906.4,77.4,905.2,79.1,903.9,80.9 M1090.2,164.8c-1.3,0.4-2,1.9-2.6,5c-0.4,1.9-1.1,3.7-1.4,5.6c-0.3,1.9-1.5,3.6-1,5.6
		C1087.1,175.7,1088.5,170.4,1090.2,164.8 M1146.6,151.3c0.5-2.3,1-4.4,1.5-6.6c-0.7-0.6-1.4-1.1-2.1-1.6
		C1142.7,145.3,1142.9,148.4,1146.6,151.3 M1155.7,132.9c-0.6,3.1-1.2,5.9-1.8,9.1c2.8-1.3,4.6-2.9,5.2-5.5
		C1158.5,134.8,1157.5,133.6,1155.7,132.9 M1249.3,149.6c-2.3-0.7-4,0.4-5.7,1.6c-2.4,1.7-4.7,3.5-7,5.3c-0.3,0.2-0.5,0.6-0.7,1
		c1.5,0.1,3,0.1,4-0.6c2.3-1.6,4.4-3.6,6.6-5.4C1247.4,150.9,1248.3,150.3,1249.3,149.6 M1150.9,166c0.5,0.4,0.9,0.8,1.3,1.1
		c1.9,1.1,3.7,2.4,6.2,1.7c1.4-0.4,2.8-0.5,4.2-0.8c0.6-0.1,1.1-0.3,2-0.5C1160.1,164.7,1155.8,164,1150.9,166 M1250.1,32.7
		c6.9,0.9,19.8-3.4,22.2-9.5C1265.6,28.1,1258,30.8,1250.1,32.7 M1313.4,106c-3.3,2.3-7.7,11.3-7.8,16.1
		C1309.9,117.4,1312.7,112.4,1313.4,106 M1214.3,158.6c0-0.1-0.1-0.3-0.1-0.4h-12.4c-0.1,1.2,0,2.4-0.2,3.4c-0.2,1-0.7,1.9-1.1,2.8
		C1205.2,162.5,1209.8,160.5,1214.3,158.6 M1282,155.1c3.6-3.5,7.6-5.3,12.6-4.4c-0.4-1.2-0.7-2-1-2.9c-4.8,0-9.4,1.2-14.5,1.7
		C1280.1,151.4,1281,153.1,1282,155.1 M1276.6,19.3c2.2,4.3,3.6,9,8.5,11.2c0-0.4,0-0.7,0-1c0-0.4-0.1-0.8-0.1-1.2
		c0.5-4.9-1-9.1-4.1-12.8c-0.4-0.4-0.9-0.8-1.4-1.2C1278.5,16.2,1277.6,17.6,1276.6,19.3 M1099.1,169.5c0.1,0.3,0,0.5,0.1,0.6
		c2.1,1.5,4.3,3,6.4,4.5c1.3,0.9,2.6,0.9,4.4,0.3c-0.7-0.7-1.2-1.2-1.8-1.8c-0.6-0.6-0.9-1.3-0.3-2.5c10.8-1.9,21.8-3.8,32.8-5.7
		c-1.5-0.2-3.1-0.2-4.6-0.1c-4.8,0.6-9.7,1.1-14.5,1.7c-2,0.2-3.9,0.6-5.9,0.9c-5.4,0.6-10.8,1.1-16.2,1.6
		C1099.5,169.2,1099.4,169.3,1099.1,169.5 M1099.6,124.6c-0.7,3-1.4,5.6-2.1,8.2c-1.6,5.9-3.2,11.9-4.8,17.8
		c-0.9,3.5-1.9,6.9-2.8,10.4c-0.1,0.3,0.1,0.7,0.2,1.2c1.1-0.6,1.2-1.5,1.5-2.3c1-3.1,1.8-6.3,2.7-9.4c0.6-2.2,1.2-4.5,1.8-6.7
		c0.7-2.5,1.4-4.9,2.1-7.4c0.7-2.3,1.5-4.6,2.1-6.9c0.4-1.4,0.6-2.8,0.7-4.3c0.1-1.8-0.6-3.3-2.3-4.2c-0.8-0.4-1.6-0.8-2.4-1.1
		c-3.1-1.2-6.2-2.5-9.3-3.7c-1.6-0.6-3.3-1.4-5.2-0.2c-0.2,0.7-0.5,1.5-0.7,2.3c1.1-1.5,1.2-1.5,2.5-1.2c0.5,0.1,0.9,0.3,1.3,0.5
		c4,1.8,8,3.6,11.9,5.4C1097.8,123.5,1098.6,124,1099.6,124.6 M1040.6,164.8c-0.7,0-1.1-0.1-1.4,0c-3.2,1-6.5,1.5-9.8,2
		c-0.8,0.1-1.5,0.8-2.2,1.3c-0.7,0.6-1.2,1.4-1.8,2.1c-1.3,1.5-1.1,3,0.8,3.3c3.4,0.6,6.8,1.6,10.5,0.9c0.5-0.4,1-0.9,1.5-1.4
		c0.3-1.4,0.9-2.7,1.3-4.1C1040,167.7,1040.2,166.3,1040.6,164.8 M1113.7,174.8c2.9-0.4,5.7-0.9,8.5-1.2c1.5-0.2,3-0.2,4.5-0.5
		c4.8-0.7,9.6-1.4,14.4-2.2c3.2-0.5,6.5-0.2,9.6-1.6c-0.4-0.3-0.7-0.7-1.1-0.9c-1.8-0.8-3.4-2.2-5.6-1.6c-1.7,0.4-3.4,0.7-5.2,1
		c-1.2,0.2-2.4,0.3-3.6,0.5c-3.6,0.7-7.2,1.5-10.8,2.1c-3.7,0.6-7.4,1.1-11.1,1.7c-0.6,0.1-1.2,0.4-2,0.6
		C1112.3,173.5,1113,174.1,1113.7,174.8 M915,78.1c5.1,4.3,10.2,8.4,14.9,12.8c4.8,4.5,8.2,10.2,12.2,15.9c-0.1-1-0.1-1.5-0.2-2
		c-0.9-2.9-2.3-5.5-4-8.1c-2.9-4.6-6.3-8.8-10-12.7c-3.1-3.3-6.3-6.5-9.5-9.7C917.3,75.6,916.2,76.8,915,78.1 M1154.3,150.6
		c0.5,2.3,1,4.4,1.5,6.6c3.4,0.6,7.2-1.5,8.3-4.8c0.7-2.3,1-4.6,1.5-6.8c-1.2-1.5-2.1-2.8-3.1-4.2c-3.5,1.3-6.5,3-9.1,5.3
		c-0.7,0.6-0.6,2-0.9,3C1153.2,150.1,1153.8,150.4,1154.3,150.6 M1086.2,164.9c-5.3,0.6-10,1-14.9,1.5c-0.7,1.3-1.4,2.6-1,4.6
		c3.8,2.7,7.8,5.5,12.2,8.5C1083.7,174.5,1085.2,169.9,1086.2,164.9 M1498.7,184.6c0.1,0,0.2,0.1,0.3,0.1c1-2.6,1.9-5.2,3.1-7.7
		c0.9-2,1.4-4.1,1.6-6.2c0.3-3-0.9-5.6-3.6-7c-1.1-0.6-2.3-1.1-3.6-1.3c-4.5-0.7-8.9-0.6-13.3,0.5c-2.6,0.6-5.3,1.1-7.9,1.8
		c-3.1,0.7-6.2,1.4-9.3,2.2v2.1c0.8-0.1,1.4,0,2-0.2c4.9-1.9,10.2-2.5,15.3-3.4c2.9-0.5,5.9-0.4,8.9-0.1c2,0.2,4.2,0.8,5.3,2.7
		c0.8,1.5,1.5,3.3,1.6,4.9c0.1,3.3-0.2,6.5-0.4,9.8C1498.7,183.4,1498.7,184,1498.7,184.6 M959.1,164.7c-0.5,2.8-0.8,5.3-1.2,7.8
		c1.5,0.7,18.7,2.3,20.4,1.8c-0.7-3.5-1-7-2.2-10.3c-2,0.4-3.9,0.8-5.8,1.1c-1,0.2-2,0.3-3,0.6C964.5,166.3,961.8,166.8,959.1,164.7
		 M1075.2,183.2c-0.3-0.4-0.5-0.7-0.7-0.8c-3.7-2.9-7.4-5.7-11.1-8.7c-2-1.7-4-2.5-6.8-1.9c-2.6,0.5-5.4,0.5-8.1,0.6
		c-2.5,0-5,0.8-7.5-0.2c-0.4,1-0.7,1.9-1.2,3.2c1.6-0.1,2.9-0.2,4.3-0.3c2.7-0.2,5.5-0.2,7.8,1.6c0.6,0.5,1.3,0.9,1.8,1.5
		c1.1,1.2,2.3,2,3.8,2.7c2.1,0.9,4,2.3,5.8,3.4C1067.3,183.8,1071.2,183.5,1075.2,183.2 M1007.5,171.2c6.6-2.2,12.8-4.3,18.8-6.4
		c1.5-3.3,2.4-4.9,6-6.1c2.2-0.8,4.3-1.7,6.4-2.6c1.4-0.6,1.6-1.2,1.1-2.9c-1.1,0.5-2.1,1.1-3.2,1.4c-3.7,0.8-7.3,1.9-11.1,2
		c-2,0.1-3.8,0.8-5.4,1.8c-2.9,1.8-6,3.3-9.3,4.1c-1.2,0.3-1.9,0.8-2.1,2C1008.3,166.4,1007.9,168.5,1007.5,171.2 M979.1,163.5
		c-0.2,4,1.5,7.4,1.7,11.3c3.3,0.2,6.5,0.2,9.7,0.5c4.4,0.4,8.3-1,12.4-2.3c0.6-0.2,1.1-0.8,1.7-1.1c-0.3-1.5-0.5-2.9-0.8-4.2
		c-0.3-1.3,0.3-2.8-0.7-3.6C995,163.9,987.2,163.7,979.1,163.5 M1065.7,30.6c2.3-3.5,3.2-7.4,2.8-11.6c-5.9-1.8-11.9-2.9-16.9-6.6
		c-4.1,7.5-7.4,17.6-6.7,20.5c3.9,0.2,6.1,0.5,8,6.5c0.7,0.3,1.5,0.5,2.5,0.9C1056.7,34.9,1060.5,32.1,1065.7,30.6 M944.4,110.3
		c0.5,0.8,1,1.6,1.5,2.3c3.4,5.7,6.8,11.5,9.7,17.6c2,4.3,3.6,8.7,3.5,13.6c-0.1,2.2,0,4.5,0.1,6.7c0.1,1.3,0.3,2.6,0.6,4.3
		c0.8-1.1,1.5-1.8,1.9-2.6c0.6-1.1,1.3-2.3,1.6-3.5c0.7-3.6,0.7-7.2-0.1-10.7c-1.1-4.7-2.7-9.1-4.8-13.5c-1.9-4-4-8-4.8-12.4
		c-1-5.8,0.3-10.9,4.5-15.2c0.3-0.3,0.6-0.7,1-1.1c-2.9-4.6-6-8.9-10.7-12c-0.5,5.9-0.1,11.6,1.9,17.1c-1.5,0.9-2,0.9-2.6-0.2
		c-0.2-0.3-0.2-0.8-0.4-1.1c-0.8-2-1.8-3.6-3-4.7c0.3,4,0.4,7.8,0.8,11.5C945.2,107.7,945.4,109.1,944.4,110.3 M910.7,46.1
		c-0.4-0.5-0.7-0.9-1.1-1.3c-0.7-0.8-0.9-1.8-0.7-2.9c0.9-4.1,2.2-7.9,4.4-11.5c5.7-9.1,14.4-13.8,24.3-16.8c3-0.9,6.1-1.4,9.1-1.7
		c5-0.6,10-0.6,15.1,0c-0.1-0.2-0.2-0.4-0.3-0.5c-0.2-0.2-0.5-0.4-0.7-0.6c-4.1-3.1-9.1-3.9-14-4.1c-4.3-0.2-8.7-0.4-13.1,0.6
		c-3.2,0.7-6.4,1-9.5,2.1c-3.4,1.1-6.6,2.6-9.2,5.3c-2.3,2.4-4.2,5.1-5.7,8.1c-2.6,5.4-4.3,10.9-4,17.1c0.2,3.2,1.2,5.9,3.9,7.8
		c0.2,0.1,0.4,0.1,0.8,0.2C910.2,47.1,910.5,46.6,910.7,46.1 M1065.6,190.5c0.1-0.9,0.2-1.8,0.3-2.4c2.8-0.4,5.4-0.9,8-1.2
		c2.6-0.3,5.2-0.5,7.7-0.7v-4.1c-4.8-3.4-9.6-6.8-14.4-10.2c0.2-1,0.3-1.8,0.4-2.8h-1.6c-0.4-0.8-0.8-1.5-1.2-2
		c-6.9,1.2-13.9,0.6-20.8,2.5c0.3,0.4,0.4,0.8,0.6,0.8c0.7,0.1,1.4,0,2.2,0c4.3-0.4,8.6-0.8,12.9-1.2c1-0.1,1.8,0.3,2.6,0.9
		c5.4,4.2,10.8,8.3,16.3,12.5c0.7,0.5,1.2,1.2,1.7,1.8c-0.9,1.2-1.9,1.2-3,1.3c-3,0.1-6.1,0.3-9.1,0.4c-0.4,0-0.8,0.1-1.2,0.2
		c-2.4,0.6-4.6-0.2-6.6-1.3c-2.9-1.6-5.8-3.3-8.4-5.3c-2.2-1.6-4.5-2.2-7.2-2c-1.6,0.1-3.2,0.2-4.8,0.2c-3.2,0.2-6.4,0.3-9.6,0.5
		c-0.8,0-1.7,0-2.8,0c0.9,3.8,0.7,7.4,0.6,11c0,0.4,0.2,0.9,0.3,1.5c3.7-0.1,7.3,0.1,10.9-0.6c0.9-0.2,2-0.5,2.8-0.1
		c2.4,0.9,5.2,0.3,7.3,2c0.3,0.2,0.9,0.1,1.4,0.1c1.3,0.1,2.5,0.1,3.8,0.2c1.2,0.1,2.5,0.4,3.7-0.1c0.1-1.1-1.1-2.2,0.4-2.8
		C1061.2,189.3,1063,191.5,1065.6,190.5 M1097.5,19.1c-0.7-0.4-1.3-0.9-2.1-1c-3.5-0.8-6.3-2.9-8.6-5.4c-5.7-6.4-13.4-8.2-21.4-9.1
		c-3.9-0.4-7.6,0.4-11.3,1.4c-0.5,0.1-0.9,0.3-1.3,0.5c-2.8,1-5.1,2.8-7.4,4.6c-1,0.7-2,1.6-2.7,2.6c-1.8,2.5-2.6,5.4-3.1,8.4
		c-0.7,3.7-1,7.3-0.6,11c0.2,2,0.8,4,1.3,6.5c0.5-0.8,0.8-1.1,0.9-1.4c1-4.1,1.9-8.3,2.9-12.4c1.4-5.5,3.7-10.5,6.6-15.7
		c0.7,0.2,1.6,0.1,2,0.6c2.8,3,6.6,4,10.3,5.2c2.4,0.8,5,1.2,7.4,1.8c3.3,0.7,6.5,1.5,9.8,2.1c3.6,0.6,7.3,1.1,10.9,1.6
		c0.4,0.1,0.9,0.3,1.3,0.5c0.2,0.7,0.4,1.4,0.5,2.1C1095.5,22.9,1096.9,21.7,1097.5,19.1 M1087.1,162c3.2-12,6.4-23.9,9.7-36.1
		c-2.1-1.4-4.4-2.2-6.6-3.1c-2.2-0.9-4.2-2.3-6.6-2.8c-0.6,2-1.2,3.8-1.7,5.5c-1.6,6.2-3.1,12.4-4.7,18.5c-1.2,4.6-2.7,9.2-3.9,13.8
		c-0.5,1.9-0.9,3.8-1.4,5.9C1077.1,163.2,1082.2,163.5,1087.1,162 M1173,181.7c0.1-0.2,0.1-0.4,0.1-0.5c-1.1-0.6-2.1-1.3-3.2-1.9
		c-4.1-2.2-8.1-4.4-12.2-6.6c-1.2-0.6-2.3-1.1-3.7-0.9c-3.3,0.4-6.7,0.9-10,1.3c-3.7,0.5-7.4,1.1-11.2,1.5c-4.7,0.6-9.4,1.1-14,1.7
		c-0.9,0.1-1.9,0-2.6,1c4.8,4.5,9.5,8.9,14.1,13.2c1-0.3,1.7-0.6,2.3-0.8c4.7-1,9.3-1.9,14-2.9c4.7-1,9.5-1.9,14.2-2.9
		c2.9-0.6,5.8-1.1,8.7-1.6C1170.8,182.2,1171.9,182,1173,181.7 M1296.3,147.6c0.3,1,0.5,1.9,0.9,2.8s0.9,1.8,1.6,2.3
		c3.2,2.3,5.4,5.3,7.1,8.8c0.8,1.6,1.8,2.9,3.5,3.8c2.4,1.3,4.5,3.2,6.7,4.9c2.4,1.8,4.5,3.7,4.1,7.6c5-7.4,9.5-14.2,14.3-21.4
		c-1.4-2.3-2.8-4.9-4.6-7.2c-4.1-5.2-9.1-8.8-16.2-7.6c-4.2,0.7-8.5,1.4-12.8,2.1c-0.1,0.9-0.2,1.7-0.2,2.2
		C1299.6,147.9,1297.7,146.9,1296.3,147.6 M1278.5,10.5c-0.1-0.2-0.3-0.7-0.7-1c-2.3-2.1-4.9-3.9-8-4.5c-4.8-1.1-9.6-0.8-14.4,0.7
		c-4.2,1.4-8,3.3-11.4,6.2c-5.6,4.8-7.6,11-7.2,18.1c0,0.7,0.3,1.4,0.5,2.2c0.9-0.1,1.7-0.1,2.5-0.2c1.8-0.3,3.6-0.8,5.4-1.1
		c4.1-0.5,7.9-1.7,11.8-2.9c4.7-1.5,9.2-3.4,13.2-6.3c2.7-1.9,5-4.2,6.4-7.2C1277.2,13.3,1277.8,12,1278.5,10.5 M1247.2,115.8
		c1.1,2.3,3.8,2.5,4.8,4.4c0.1,0.8,0.2,1.6,0.3,2.4c2.3,1.2,4.5,2.4,6.7,3.6c0.6,1.3,1.3,2.4,1.6,3.7c0.9,3.3,3,5.7,5.8,7.5
		c2.3,1.5,4.3,3.5,6.6,5c1.8,1.2,3.2,3.1,4.9,5c0.7-0.1,1.6-0.3,2.5-0.5c0.7-0.1,1.4-0.4,2.1-0.5c2.3-0.2,4.6-0.4,6.9-0.7
		c0.9-0.1,1.8-0.5,2.8-0.8c-2.4-4.6-3.2-9.3-2-14.4c-0.2-0.4-0.6-1-0.8-1.6c-1.5-4.5-4.1-8.4-6.7-12.3c-1.3-2-2.8-3.8-3.7-6.1
		c-0.5-1.5-1.5-2.8-2.6-4c-1-1.1-2.1-2.5-4.1-1.7c0,0.4,0,0.9,0.1,1.2c0.8,2.2,1.6,4.5,2.6,6.7c1.3,2.8,2.2,5.6,1.6,8.8
		c-1,1.2-2.2,1.4-3.7,0.8c-0.6-0.2-1.3-0.2-1.9-0.4c-1.7-0.4-3.4-0.8-5.1-1.3c-2.3-0.7-4.5-1.6-6.7-2.3c-2-0.7-4-1.6-6.1-2.1
		C1251.3,115.8,1249.4,115.1,1247.2,115.8 M1103.8,125.1c-0.5,2-0.9,3.7-1.3,5.4c-1.1,3.9-2.2,7.7-3.3,11.5
		c-1.1,4.1-2.2,8.1-3.3,12.2c-0.7,2.4-1.5,4.9-2.2,7.4c1.4,0,2.7,0.1,3.9,0c2.4-0.2,4.8-0.6,7.1-0.8c0.6-0.1,1.1-0.1,1.7-0.2
		c4-0.4,7.9-0.8,11.9-1.1c3.3-0.3,6.6-0.4,9.8-0.7c4.1-0.4,8.1-0.8,12.2-1.2c0.6-0.1,1.2-0.1,2.2-0.3c-1.7-0.9-2.8-1.5-4-2.2
		c-5-2.8-9.7-6.1-13.7-10.3c-4.2-4.4-8.7-8.3-13.7-11.9c-2.2-1.6-4.4-3.2-5.8-5.5C1104.9,126.5,1104.3,125.9,1103.8,125.1
		 M905.6,73.4c-1.4-2-2.8-3.7-3.8-5.5c-2-3.6-1.6-7.4,1.8-10c0.8-0.6,1.5-1.4,2.3-2c-1.2-2.8-2.4-5.6-3.7-8.4
		c-0.9,0.3-1.5,0.5-2,0.8c-2.7,1.5-5.4,3-8,4.7c-1.9,1.2-3.9,2.5-5.4,4.2c-3.3,3.6-5.7,7.8-8.3,11.9c-0.3,0.5-0.5,1.2-0.6,1.8
		c-0.4,2.8-0.8,5.7-1.2,8.5c-0.5,4.3,0.2,8.4,2.3,12.2c1.5,2.8,3.3,5.4,5,8.1c0.1,0.2,0.4,0.2,0.5,0.3c1.5-2.4,2.9-4.7,4.4-7.1
		c0.7-1.1,1.2-2.2,1.8-3.3c1.9-3.5,4-6.8,6.7-9.8C900,77.1,902.6,75.2,905.6,73.4 M1411.3,27c-0.4-4.5-2.2-8.5-5.2-11.8
		c-1.1-1.2-2.2-2.3-2.8-3.9c-1.1-2.7-3.6-4.1-6.2-5.3c-3.3-1.5-6.7-2.4-10.3-2.9c-3-0.4-6-1-9.1-1c-5.1-0.2-10.1,0.8-15.1,2.1
		c-4.2,1.1-8.1,2.8-11.9,4.9c-4.8,2.6-9.2,5.9-12.9,10c-0.9,1-1.7,2.1-2.2,3.4c-0.7,1.6,0,3,1.6,3.7c2.9,1.3,6.1,1.3,9.2,1.2
		c0.3,0,0.7-0.4,1-0.5c2.2-0.8,4.3-1.9,6.6-1.8c5.4,0.2,10.7-0.4,15.9-1.8c3.5-1,7-2,10.5-3.2c2.8-1,5.6-2.2,8.4-3.4
		c2.5-1.1,5-2.1,7.3-3.4c1.6-0.9,3-0.6,4.2,0.4c1.7,1.4,3.4,2.9,5,4.4C1407.9,20.7,1409.7,23.9,1411.3,27 M1324.3,216.9
		c-1-0.5-1.8-0.9-2.7-1.3c-2-0.8-3.5-2.2-4.7-3.9c-1.8-2.5-2.5-5.3-2.6-8.3c-0.2-3.7,0.4-7.3,1.2-10.9c0.9-4.3,2.3-8.4,4-12.5
		c0.2-0.4,0.3-0.9,0.4-1.4c-1.2,0.8-2.3,1.5-3.3,2.3c-1.8,1.2-3,2.9-3.7,4.9c-1,3-1.6,6-1.5,9.2c0.1,3,0.1,5.9,0,8.9
		c-0.1,2.6-0.8,3.1-3.6,2.7c-1.3-1.5-2.2-3.4-2.3-5.6c-0.1-2.4,0-4.8-0.1-7.2c-0.1-2.8,1-5.2,2.6-7.3c2-2.7,4.1-5.3,6.2-8
		c0.1-1.5-1.4-2.1-2.2-3.1c-2.4-3.1-5.2-6.1-6.9-9.6c-1.9-1.3-3.8-2.5-5.5-3.9c-1.3-1-2.5-2.2-2.8-4c-0.6-5.2-2.1-4.5-5.4-4.6
		c-0.2,0-0.5,0-0.7,0c-3.5,0.1-5.8,2.2-7.8,4.8c0.5,1.8,0.8,3.4,1.5,4.9c2.9,6.2,5.5,12.5,7.4,19.1c1,3.5,1.5,7,1.6,10.6
		c0,1.1,0.2,2.2,0.3,3.3c0.4,3.1,1.7,5.8,3.2,8.5c2.9,5.5,6.7,10.4,11.4,14.6c1,0.9,2.2,1.6,3.7,1.4
		C1316.2,219.8,1320.2,218.7,1324.3,216.9 M942,98.4c0-1.9-0.2-3.3,0-4.6c0.5-3.2-0.6-5.8-2.4-8.3c-0.4-0.5-0.7-1.1-1.1-1.6
		c-4.1-6.2-8.7-12-14.5-16.6c-1.7-1.3-2.6-2.8-2.8-4.8c0-0.4-0.2-0.8-0.3-1.2c-1.1-4.1-0.9-8,1.3-11.1c0.2-3.3,0.1-6,0.4-8.6
		c0.5-4.7,5.2-6.4,9.2-4.4c1.9,0.9,3,2.5,4.3,4c1.4,1.6,2.6,1.7,3.9,0c1.5-1.8,2.7-3.9,4.2-5.8c1-1.3,2-2.8,3.4-3.6
		c1.5-0.9,2.6-2,3.5-3.4c0.7-1.1,1.2-2.4,1.9-3.6c1.3-2.2,2.6-4.5,4.2-6.6c1.1-1.4,2.7-2.5,4-3.6c-1.1-1-2.5-1.2-3.9-1.1
		c-3.7,0.1-7.3,0.2-11,0.7c-4.3,0.6-8.4,1.6-12.5,3.1c-4,1.5-7.8,3.4-11.3,6.1C916.8,28,913.4,34,911.5,41c-0.3,1.1-0.2,2.2,0.4,3.2
		c0.5,0.8,0.8,1.8,0.8,2.7c-0.3,3-0.8,6-1.2,9c-0.2,1.1-1,2-2.1,1.9c-2.5-0.3-3.6,1.7-5.1,3c-1.3,1.2-1.4,2.9-0.8,4.5
		c1,2.6,2.6,4.8,4.7,6.5c1.7-1.1,3.2-2.1,4.7-3.1c1.3-0.8,1.9-0.8,3.2,0.3c2.5,2.1,5,4.3,7.3,6.5c6,5.7,11.6,11.8,16.2,18.8
		C940.2,95.5,940.9,96.7,942,98.4 M1409.1,65.3c0,0-0.3,0-0.4,0.2c-3.7,3.7-8.4,4.4-13.2,4.1c-3.4-0.2-6.8-0.2-10.2-1.1
		c-4.3-1.1-7.9-2.9-10.4-6.5c-1.4-2-2.7-4.1-4.1-6.2c-2.4-3.4-5.2-6.2-9.4-7.5c-0.6,0.5-1.3,1-2.1,1.7v7.8c-1.6,0.4-3,0.7-4.6,1.1
		c-0.3-0.7-0.8-1.4-0.9-2.1c-0.2-1.3-0.2-2.7-0.4-4.1c-0.5-3.2-1-6.5-2.7-9c-1.2-0.6-2.1-1-3-1.4c0.1-3.7-0.1-7.2-1.4-10.6
		c-1.1,1-1.3,2.1-1.4,3.2c-0.2,3.5-0.5,7-0.9,10.5c-0.2,1.7,0.1,3,1.4,4.1c2,1.7,2.8,4,2.9,6.6c0.1,1.7,0.2,3.4,0.4,5
		c0.3,3.3,0.5,6.6,2.2,9.5c1.5,2.5,3.2,5,4.8,7.4c1.8,2.8,3.4,5.6,3.2,9.1c0,1,0.2,2.1,0.4,3.1c0.3,1.6,1.3,2.6,3,2.6
		c1.7,0,3.5-0.2,5.2-0.7c1.4-0.4,2.6-1.4,4-1.9c1.7-0.6,3.5-1.2,5.4-0.4c1.1,0.5,2,0.1,2.9-0.6c4.1-3,8.1-6.1,12.3-9
		c2.1-1.4,4.4-2.5,6.8-3.4c1.9-0.7,4-0.9,6.1-1.3c2.5-0.6,5.1-1.2,7.5-1.7C1411.1,71,1410.1,68.2,1409.1,65.3 M1090.8,25.3
		c-6.9-0.4-13.2-1.7-19.6-3.6c-0.4,1.8-0.6,3.4-1.1,4.9c-0.9,3.1-2,6.1-5.8,7.1c-3.2,0.8-5.5,3.1-6.1,6.6c-0.1,0.7-0.3,1.4-0.4,2.1
		c-0.4,0.1-0.8,0.3-1,0.2c-1.7-0.2-3.5-0.5-5.2-0.8c-0.3-0.3-0.6-0.5-0.7-0.8c-0.3-0.9-0.6-1.8-0.9-2.7c-0.9-2.8-2.3-3.6-5.4-2.8
		c-0.1,0.4-0.4,1-0.4,1.5c-0.1,3.6-0.2,7.2,1.1,10.7c0.9,2.5,2.7,3.8,5.1,4.2c0.9,0.2,1.5,0.4,1.8,1.3c0.2,0.7,0.4,1.4,0.7,2
		c1.3,3.2,2.9,6.2,5.5,8.5c2.5,2.2,5.7,3.1,8.6,4.4c1.8,0.8,3.8,1.1,5.6,1.9c3,1.3,6,1.3,9.2,1.3c1.3,0,2.1-0.7,2.7-1.8
		c1.6-3.3,2.7-6.8,3.1-10.5c0.2-2.2,0.7-4.4,1.2-6.6c0.4-1.9,1.4-3.7,1.5-5.5c0.1-2.6,1-4.9,2.2-7c1-1.8,0.9-3.5,0.6-5.3
		c-0.1-0.9-0.4-1.7-0.6-2.6C1091.8,29.9,1091.3,27.7,1090.8,25.3 M1152.5,130.9c-0.6-0.3-1.1-0.6-1.6-0.8c-2.4-1.1-4.8-2.4-6.8-4.3
		c-1-0.9-2-1.8-3-2.8c-2.9-3.1-6.1-5.9-8.6-9.3c-4.6-6.3-8.9-12.8-13.2-19.3c-4.8-7.4-11.2-13.2-18.1-18.5c-1-0.8-2.1-1.6-3.5-1.6
		c0,0.2-0.1,0.3-0.1,0.4c0.2,0.3,0.4,0.6,0.7,0.9c3.5,3.6,5.5,7.9,6.3,12.7c0.9,5.3,0.8,10.7-0.2,16c-0.5,3.1-1.5,6.2-2.3,9.3
		c-0.5,1.8-0.5,3.4,0.7,5c1.7,2.4,3.1,5,4.8,7.4c0.9,1.3,2.1,2.6,3.4,3.6c5.7,4.1,11.1,8.5,15.8,13.7c0.5,0.6,1.2,1.1,1.8,1.6
		c4.9,4.3,10.3,7.9,16.5,10.3c0.2,0.1,0.3,0.2,0.7,0.4c0.2-0.6,0.3-1.1,0.4-1.6c-0.9-0.8-1.8-1.5-2.6-2.3c-2.8-2.7-3.2-5.9-1-9.1
		c1.1-1.6,3.1-2.4,4.5-1.8c0.4,0.2,0.8,0.4,1.4,0.7c0.6-3.3,1.2-6.4,1.8-9.5C1151,131.7,1151.6,131.4,1152.5,130.9 M887.3,186.2
		c5,0.5,26.4,0.3,28.1-0.2c-0.7-1.9-1.5-3.9-2.2-5.8c-1.1-3.2-2.3-6.5-3.3-9.7c-1.5-5-2.5-10.1-3.2-15.3c-0.3-2.5-1-5-1.7-7.5
		c-1.2-4.1-2.5-8.3-3.9-12.3c-1-2.9-2.1-5.9-3.4-8.7c-1.5-3.1-2.4-6.3-2.4-9.7c-0.1-4.4,0-8.8,0-13.2c0-1.2,0.2-2.4,0.4-3.6
		c0.6-3.7,1-7.4,2.4-11c0.2-0.5,0-1.2,0-2c-3,1.9-5.4,4.1-6.7,7.1c-2,4.5-3.6,9.2-4.8,14c-0.5,1.9-1.1,3.8-1.7,5.8
		c-0.7-0.1-1.2-0.2-2-0.4c-0.2,1.7-0.6,3.4-0.6,5c0.1,8.5,0.2,17,0.5,25.5c0.3,8.5,0.9,16.9,1.5,25.4c0.2,2.6,0.5,5.3,1,7.9
		C885.9,180.4,886.7,183.2,887.3,186.2 M1144.6,204.6c0,0.2,0,0.4,0,0.6c0.9,0.1,1.8,0.3,2.8,0.3c6.6,0.4,13.1,0.7,19.7,1.1
		c0.4,0,0.8,0.1,1.2,0.1c5.8,0.4,11.5,0.8,17.2,1.2c5.1,0.3,10.3,0.2,15.4,0.8c4.3,0.5,8.6,0.6,12.9,0.8c1.2,0.1,2.3-0.2,3.4-0.9
		c2.2-1.3,4.5-2.4,6.8-3.5c4.1-2.1,8.2-4.2,12.2-6.3c4.3-2.2,8.6-4.4,12.9-6.7c2.6-1.4,5.2-2.7,8-4.2c-3.5-0.4-6.7-0.8-9.9-1
		c-5.8-0.3-11.5-0.5-17.3-0.7c-0.6,0-1.1-0.1-1.7-0.1c-5.8-0.4-11.7-0.9-17.5-1.2c-3.2-0.2-6.4-0.4-9.6-0.6
		c-3.8-0.2-7.7-0.6-11.5-0.7c-0.8,0-1.7,0.3-2.5,0.7c-3.4,1.6-6.9,3.3-10.3,5c-3.7,1.7-7.4,3.4-11,5.2c-4.5,2.1-9.1,4.3-13.6,6.4
		C1149.7,202.1,1147.1,203.4,1144.6,204.6 M1236.8,43.1c-1,1-1,1.9-0.9,3c0.3,2.6,1.4,4.9,2.4,7.2c0.2,0.4,0.4,0.7,0.6,1.1
		c0.9,2.8,2.9,4,5.9,3.7c0.4,0.8,0.8,1.4,1.1,2.2c2.5,6.3,6.8,11,12.3,14.8c3.1,2.2,6.3,2.4,9.8,1.6c1.2-0.3,2.4-0.9,3.6-1.2
		c2.2-0.5,4-1.7,5.3-3.4c1.4-2,2.8-4,4.1-6.1c1.2-1.9,2.2-4,3.5-6.2c-0.9-1.5,0-3.3,0.4-5c0.1-0.5,0.5-1.1,1-1.2
		c1.6-0.7,2.2-1.9,2.6-3.4c0.3-1.1,0.8-2.1,0.9-3.2c0.2-2.1,0.8-4.3-0.8-6.2c-0.6,0.5-1.2,0.9-1.7,1.3c-1.2-0.3-1.4-1-1.5-2
		c-0.1-1.3-0.3-2.5-0.6-3.8c-0.5-2.2-1.5-4.1-3.4-5.3c-1.5-0.9-2.5-2.2-3.4-3.6c-0.7-1.2-1.4-2.4-2.1-3.6c-0.6,0.6-1.2,1-1.7,1.5
		c-4.1,5.6-10.1,8.1-16.6,9.4c-4.4,0.9-8.9,1.2-13.4,0.7c-1.4-0.2-2.7,0-3.6,1.4c-0.2,1.7-0.1,3.3,0.8,4.8c0.7,1.2,1.2,2.4,1.7,3.7
		c0.2,0.7,0.2,1.5,0.3,2c-1.5,1-2.3-0.3-3.4-0.5C1238.2,46.5,1238.3,44.2,1236.8,43.1 M942.7,85.8c0.9-4.4,2.1-8,4.7-11
		c1.6-1.9,3.6-3.2,6-3.5c1.4-0.2,2.9,0.1,4.3,0.3c2.2,0.4,4.2,0.5,6.4-0.1c3.1-0.9,4.2-2,4.4-5.3c0.1-1.4,0-2.7,0-4.1
		c0-1.6-0.1-3.2,0-4.8c0.1-2.5,1.1-3.6,3.6-4c1.3-0.2,2.5-0.5,3.4-1.8c-0.9-1.3-1.7-2.5-2.6-3.7c-2.8-4.2-4.8-8.5-2.6-13.7
		c0.2-0.4,0.2-0.8,0.2-1.2c-0.2-1.2-0.2-2.4-0.6-3.5c-1.6-3.6-3.4-7.2-5.2-10.8c-0.6-1.2-1.2-1.5-2.5-1.1c-1.4,0.4-2.3,1.4-3,2.5
		c-1.5,2.4-2.9,4.9-4.3,7.4c-1.2,2.1-2,4.6-4.2,5.7c-2.3,1.2-3.6,3-4.9,5c-1.1,1.7-2.2,3.3-3.5,4.8c-1,1.3-2.4,2.1-4.2,1.9
		c-1.6-0.1-2.6-1.1-3.5-2.2c-0.9-0.9-1.6-2-2.6-2.8c-2.4-2-5.8-1.1-6.7,1.8c-0.3,0.9-0.4,1.9-0.4,2.8c0,2,0.2,4,0.3,6.1
		c-3.6,4.4-2.3,9.1-0.6,13.8C932.1,70.2,937.5,77.6,942.7,85.8 M1463.6,164.8c0.3-3.2,0.6-6.4,0.8-9.6c0.1-1.8,0-3.6,0.2-5.3
		c1-6.9-0.2-13.5-2.6-20c-0.7-2-1.6-4.1-1.8-6.2c-0.2-2.2-1.1-4.1-2-5.8c-1.2-2.4-2.6-4.7-2.7-7.5c0-0.4-0.2-0.8-0.4-1.1
		c-1.3-2.9-3.2-5.4-5-8.1c-0.3-0.4-0.7-0.9-1.1-1.2c-6-4.5-12.2-8.9-18.8-12.6c-2.4-1.3-5-2.4-7.9-2.2c-3.3,0.2-6.4,1.1-9.6,1.8
		c-4.2,1.1-8.4,2.3-12.5,3.8c-3.9,1.4-7.7,2.8-11.6,4.4c-5.6,2.2-10.9,4.8-15.7,8.4c-0.7,0.5-1.7,0.7-2.2,1.3
		c-2.7,3.8-5.3,7.5-7.7,11.4c-1.3,2.2-2.1,4.6-3.2,6.9c-2.5,5-5.2,9.9-7.7,14.9c-2.3,4.6-5,8.8-8.6,12.5c-2.2,2.3-4.9,4.4-4.8,8.2
		c0,0.6-0.7,1.4-1.2,1.6c-0.6,0.2-1.4-0.3-2.2-0.5c-0.6,0.8-1.4,1.7-2.1,2.7c-2,3.1-3.8,6.2-5.8,9.3c-0.9,1.4-2.1,2.6-3,4
		c-2.6,4.1-4,8.7-5.5,13.2c-1.1,3.4-1.8,7-2,10.6c-0.1,3.4-0.2,6.9,1.6,10c1.9,3.3,5.1,5,8.8,4.3c3.8-0.6,6.7-2.8,9.6-5.1
		c6.2-5.1,11.4-11.3,16.4-17.6c4.4-5.6,8.8-11.3,13.1-17c1.7-2.2,3.9-3.9,6.6-5c3.5-1.5,7.1-2.9,10.5-4.5c4.7-2.2,8.6-5.4,11.7-9.5
		c3.8-5,6.1-10.7,7.6-16.8s1-12.1-0.7-18c-1.1-4.1-2.9-7.9-5.6-11.3c-2.6-3.4-5.4-6.7-9.6-8.3c-0.5-0.2-1-0.7-1.7-1.4
		c0.7-0.5,1.1-1,1.6-1.1c4.2-0.8,8.4-1.9,12.7-2.3c8.1-0.7,16.3-1.5,24.5-0.9c5.7,0.4,11.3,1.2,16.6,3.3c4.1,1.7,7.8,4.1,10.2,7.9
		c1.4,2.3,3.2,4.6,2.8,7.6c1.2,1.4,2,2.9,1.8,4.8c-0.1,0.5,0.2,1.1,0.4,1.6c0.8,1.7,1.2,3.5,0.6,5.1c0.4,0.9,0.8,1.7,0.9,2.4
		c0.9,5.6,1.5,11.1,1.4,16.7c0,6.3,0,12.5-0.1,18.8c0,0.8,0,1.7,0.1,2.8C1460.5,165.8,1461.8,165.4,1463.6,164.8 M1391,228.6
		c0.4-0.8,0.8-1.3,1-1.9c1-3.3,2-6.6,2.9-9.9c1.6-5.4,3.1-10.9,4.7-16.3c0.5-1.7,0.9-3.4,1.6-5c2.5-5.8,6.3-10.7,11.4-14.5
		c5.1-3.9,10.8-6.7,17.3-7.7c0.3-0.1,0.6-0.1,0.9-0.2c4.7-1.2,9.4-2.4,14.1-3.6c3-0.7,6.1-1.3,9.1-2.1c0.6-0.1,1.1-0.6,1.7-0.9
		c0.2-2.4,0.3-4.8,0.4-7.1c0.5-10.8-0.6-21.6-0.9-32.4c0-0.3,0-0.7-0.2-0.9c-1.2-1.4-0.7-3-0.9-4.6c-0.5-2.5-1.4-4.9-1.9-7.4
		c-0.3-1.4-1.5-2.6-2.1-4c-1.8-3.9-4.7-6.6-8.4-8.5c-5.3-2.8-11.2-3.8-17.1-4.2c-8.6-0.7-17.1-0.1-25.7,1.1c-2.7,0.4-5.3,0.8-8,1.3
		c0.2,0.3,0.2,0.5,0.3,0.6c0.2,0.2,0.3,0.4,0.5,0.5c4.9,3.6,8.1,8.5,10.5,13.9c1.6,3.6,2.6,7.3,3.1,11.2c0.6,4.6,0.3,9.2-0.7,13.6
		c-1,4.6-2.8,8.9-5.2,13c-3.5,5.9-8.1,10.6-14.3,13.6c-3.2,1.6-6.6,3-10,4.4c-3,1.2-5.7,2.8-7.7,5.5c-3.8,5.1-7.7,10.1-11.6,15.1
		c-0.6,0.7-1.1,1.5-1.7,2.2c0.6,0,1-0.1,1.3-0.3c2.2-2.1,4.7-3.7,7.8-4.3c0.9-0.2,1.9-1,2.5-1.8c3.6-4.8,8.4-8,13.5-10.7
		c1.5-0.8,3.2-1.4,4.9-1.7c1.6-0.4,1.8,0,2.8,1.9c-0.6,0.7-1.2,1.5-1.9,2.3c-2.4,2.7-5.8,4.1-8.7,6.1c-2.7,1.7-5.6,3.1-8.4,4.5
		c-0.9,0.5-1.8,1-2.2,2.1c-0.8,2.3-2,4.5-2.7,6.9c-0.5,1.6-0.2,3.5-1,5.1c-0.2,0.4,0.1,0.9,0.1,1.4c0.1,0.6,0.3,1.1,0.2,1.6
		c-0.4,4.3-1,8.5-1.2,12.8c0,0.1,0,0.1-0.1,0.2c-0.6,2.8-1.2,5.6-1.8,8.8C1370.3,228.6,1380.7,228.6,1391,228.6 M1251.2,72.8
		c0,0-0.1-0.1-0.1-0.1C1251.1,72.7,1251.2,72.7,1251.2,72.8c0.6,3.3,1.2,6.5,2.4,9.7c0.8,2.2,1.8,4.4,3.3,6.3c1.7,2,3.7,3.1,6.5,2.4
		c3.3-0.8,6.2-2.3,9-4.2c5.3-3.7,9.3-8.4,11.2-14.7c0.5-1.8,0.6-3.8,0-5.5c-0.9,1.5-1.7,2.9-2.6,4.3c-2,3-4.3,5.6-7.8,6.7
		c-1.4,0.5-2.8,0.7-4.2,1.2c-3.9,1.3-7.7,1.2-11.1-1.3C1255.6,76,1253.4,74.4,1251.2,72.8 M1074.5,83.8c0.2-0.1,0.3-0.1,0.4-0.2
		c3-3.2,4.4-3.1,8,0c0.2,0.2,0.5,0.4,0.7,0.6c1.2,1.3,2.5,2.6,3.9,4.1c1.3-4.4,1.6-8.5,1.1-12.8c-0.5,0-0.9-0.2-1.3-0.1
		c-2.5,0.6-5,1.1-7.4,1.8C1076.8,78.3,1075.1,80.6,1074.5,83.8l-0.1,0.2L1074.5,83.8z M1382.1,178.2c-3.8,1.4-7.2,3.4-10,6.3
		c-0.1,0.1,0,0.3-0.1,0.5c-0.1,0.1-0.2,0.1-0.1,0.1c0,0,0-0.1,0.1-0.1c1.3-0.6,2.8-1.1,4-1.9c2.1-1.3,4.1-2.9,6.1-4.3
		C1382.1,178.5,1382.1,178.3,1382.1,178.2c0-0.1,0.1-0.1,0.1-0.1C1382.3,178,1382.2,178.1,1382.1,178.2 M902.2,79.5
		c-0.9-0.2-1.5,0.4-2,1c-0.9,1.1-1.9,2.2-2.8,3.3c-0.2,0.3-0.3,0.7-0.5,1.1c2.8-0.5,4-2.3,4.8-4.6C901.7,80,902,79.8,902.2,79.5
		c0-0.2,0.1-0.4,0-0.1L902.2,79.5L902.2,79.5z M938.7,130.1v-5.3C938.2,126.5,937.9,128.3,938.7,130.1c0.1,1.7,0.1,3.4,0.2,5.2
		C939.2,133.5,939.8,131.7,938.7,130.1 M1283.9,15L1283.9,15L1283.9,15c0.1,0.3,0.2,0.6,0.2,0.8c0.1,0,0.1,0,0.2-0.1
		C1284.2,15.5,1284.1,15.2,1283.9,15 M1277.2,152.2c0.3,1.7,0.8,3.4,0.8,5.2c0.1,4.8-2.2,8.2-6.4,10.3c-3.7,1.9-7.7,3.1-12,2.8
		c-2.7-0.2-4.9,1-7,2.1c-2.6,1.4-4.7,0.8-6.9-0.7c-0.4-0.3-0.7-0.6-1.1-0.9c-1.7,1-3.3,2.2-5.5,1.1c0.2-0.4,0.2-1.1,0.5-1.2
		c2.6-0.7,4.3-3.3,7.3-3.4c0.2,1,0.4,1.8,0.5,2.6c1.5,1.3,3.2,1,4.6,0.2c2.7-1.5,5.5-2.3,8.6-2.2c3.8,0,7.4-1,10.7-3
		c3.3-2,4.7-4.9,4.1-8.6c-0.4-2.3-1-4.6-1.6-7.1c0.3-0.4,0.7-0.8,1.2-1.4c-1.7-2-3.4-4-5.2-6.1c-2.6,0.3-4.1-2-6.1-3.3
		c-2.7-1.8-4.6-4.3-5.3-7.4c-0.6-2.8-2.7-3.9-5-4.9c-0.8-0.4-1.7-0.9-2.4-1.5c-0.6-0.6-1.1-1.4-1.3-2.2c-0.3-1.1-0.9-1.7-1.9-2.3
		c-1.9-1.1-3.7-2.4-2.8-5.4c1.7-2.3,4.3-1.6,6.6-1.1c2.4,0.5,4.7,1.4,7.1,2.2c1.1,0.4,2.3,0.8,3.3,1.3c3.1,1.5,6.4,1.9,9.6,2.9
		c0.7,0.2,1.6,0,2.4,0c0.4-1.8,0-3.5-0.7-4.7c-1-1.8-1.4-3.7-2.2-5.5c-0.5-1.1-0.9-2.2-1.3-3.3c-0.3-0.9-0.5-1.8-0.7-2.6
		c2.9-1.9,5.4-1.7,7.9,0.3c1.6,1.3,2.9,2.8,3.7,4.6c1.3,3.2,3.4,5.7,5.2,8.6c2.1,3.5,4.6,6.7,5.5,10.8c0.3,1.4,0.4,2.9,0.6,4.3
		c0.2,2.5,0.2,5,0.7,7.4c0.4,1.8,1.4,3.5,2.2,5.4c1.2-0.1,2.2-0.2,3.5-0.3c0-1.1,0-2,0-3c-0.2-4.1,0.4-8,1.6-11.9
		c0.5-1.7,1.1-3.3,1.7-5c1.3-3.8,2.6-7.5,4-11.2c1.1-2.9,2.4-5.7,4.5-8.1c0.5-0.5,1-1.1,1.6-1.4c1.9-1.3,2-1.3,3.9,0.4
		c0.4,2.2,0.2,4.5-0.7,6.7c-1.2,3.3-2.6,6.5-4.9,9.3c-1.2,1.4-2.5,2.9-3.9,4.1c-2.2,1.9-3.6,4.1-3.6,7.2c0.1,2.9,0.1,5.7,0.4,8.8
		c1-0.1,1.8-0.1,2.6-0.2c2.4-0.4,4.7-0.8,7.1-1.2c7.9-1.4,13.8,2,18.6,7.8c1.9,2.3,3.5,4.9,5.3,7.6c0.2-0.6,0.4-1.1,0.4-1.6
		c0-1.3-0.1-2.6-0.2-3.8c-0.3-2.8-0.5-5.6-1-8.4c-0.4-2.4-1.2-4.6-1.7-7c-0.2-1-0.4-2-0.4-3.1c-0.3-5.4-0.4-10.9-0.7-16.3
		c-0.1-1-0.4-2-0.8-3c-1.3-3.6-2-7.2-2.1-11c-0.1-2.4-0.2-4.8-0.5-7.2c-0.6-4.1-3.1-7.2-5.7-10.3c-2.8-3.4-6.5-5-10.6-6
		c-5-1.2-9.8-3-14.5-5.4c-3-1.6-6.2-2.9-9.2-4.5c-1.2-0.6-2.1-1.5-3.1-2.3c0.7,6.9-1.7,12.8-6.1,18.1c-3.5,4.2-8,7.2-12.9,9.6
		c-1.5,0.7-3.2,1.2-4.8,1.4c-3,0.5-5.5-0.9-7.4-3c-2.3-2.7-3.8-5.9-4.7-9.3c-0.6-2.3-0.8-4.8-1.7-7c-0.8-2.2-2.2-4.2-3.4-6.2
		c-0.3-0.6-0.9-1.1-1.4-1.7c-1.3,0.5-2.6,1.1-4,1.5c-1.4,0.4-2.7,0.8-4.1,1.1c-1.4,0.3-2.8,0.4-4.3,0.7c-1.1,0.2-2.1,0.7-3.2,0.8
		c-2.2,0.3-3.6,1.7-5,3.1c-4.5,4.6-8.7,9.5-12.3,14.8c-1.4,2.1-3.3,3.9-5.3,5.4c-2.7,2-4.5,4.6-5.6,7.6c-1.8,5.1-5.3,8.8-9.2,12.2
		c-0.5,0.4-1.1,0.7-1.6,1c-2.4,1.2-3.7,3.5-4.8,5.8c-1.2,2.6-3.2,4.5-5.3,6.3c-2.5,2.3-5.1,4.4-7.5,6.7c-1.9,1.9-3.3,4.3-3.6,7.1
		c-0.2,1.8-0.6,3.6,0,5.4c0.4,1.1,0.2,2.4,0.2,3.6c0,1.5-0.1,3,0.5,4.5c0.8,1.8,0.3,3.6-1,5.1c-1.4,1.7-3,3.1-5.1,4.2
		c0.5,0.4,0.9,0.8,1.4,1c1.8,0.7,3.6,1.4,5.4,2c1.1,0.4,1.8,0.9,1.5,2.5c-1.8,0.4-3.7,0.6-5.5,1.1c-1.8,0.5-3.8-0.1-6,1
		c2.5,1.4,4.6,2.5,6.6,3.6c3.7,2,7.3,3.9,11,5.9c0.7,0.4,1.3,0.7,1.2,1.6c-0.1,1-0.9,1.1-1.8,1.3c-4.3,0.9-8.6,1.8-12.9,2.7
		c-3.7,0.7-7.4,1.4-11,2.1c-3.3,0.7-6.7,1.5-10,2.2c-1.1,0.2-2.2,0.3-3.3,0.5c-2.6,0.5-5.2,1.1-7.7,1.6c-1.6,0.3-2.8,0-4.1-1.3
		c-4.4-4.4-9-8.5-13.6-12.8c-0.7-0.6-1.3-1.2-2.3-1c-3.9,1-7.1-0.3-10.1-2.7c-2-1.6-4.4-2.9-6.5-4.4c-0.7-0.5-1.9-1.1-1-2.8
		c3.4-0.4,7-0.9,10.7-1.4c3.6-0.4,7.1-0.8,10.7-1.2c0.6-0.1,1.1-0.1,1.7-0.2c3.5-0.4,7-0.8,10.5-1.2c4.5-0.5,9-1.2,13.6-1.6
		c1.2-0.1,2.4,0.6,3.7,0.9v-3.1c-1.2-0.6-2.6-0.2-3.9-0.1c-4.2,0.4-8.4,0.8-12.7,1.2c-7,0.7-14,1.5-21,2.2
		c-3.6,0.4-7.2,0.5-10.8,0.8c-1.2,0.1-2.5,0.4-3.8,0.6c-2.3,6.9-3.8,13.8-6.2,20.6c-0.9-0.4-1.5-0.6-2.3-0.9
		c0.1,1.3,0.3,2.4,0.4,3.9c-5.4,1-10.7,1.4-15.9,1.5c-0.6,1-1.1,1.8-1.6,2.6c-1.9,0.3-3.7,0.6-6.1,0.9c-0.4,0.4-1.2,1.1-2.1,2
		c-2.2,0.1-4.6,0.5-6.8-0.9c-0.3-0.2-0.8-0.3-1.1-0.4c-6.3-0.3-12.5-2-18.8-0.3c-2.2,0.6-4.7,0.6-6.7-1.3c0.1-1.2,0.2-2.5,0.3-3.7
		c0.6-3.7,0.4-7.3-1.8-10.6c-0.3-0.5-0.2-1.4-0.3-2.3c-2.2-1.6-1.6-4-1-6.6c-5.5,1.4-10.7,3.5-15.8,5.4c0,0.2,0.1,0.3,0.1,0.5
		c0.8-0.1,1.7-0.1,2.5-0.2c1.5-0.2,3-0.4,4.5-0.6c1.9-0.4,3.5,0.4,4.8,1.6c3.5,3.2,5.7,7.3,6.4,12c0.7,4.8-1.7,6.9-5.8,7.4
		c-6,0.8-12,1.2-18,1.5c-5.4,0.3-10.8,0.2-16.1,0.7c-10.4,1-20.8,1-31.2,1.4c-8.6,0.3-17.2,0.4-25.7,0.8c-3.6,0.1-6.2-1.2-7.8-4.4
		c-0.2-0.4-0.5-0.8-0.8-1.4c-0.8-0.1-1.8-0.3-2.7-0.3c-23.7,0-891.1,0-914.7,0c-1.2,0-2-0.2-2.4-1.7c0.5-0.3,1-0.7,1.6-0.8
		c0.6-0.1,1.3,0,1.9,0c23.7,0,891.1,0,914.7,0c1,0,1.9,0,3,0c1.1,1.9,2.2,3.8,3.4,5.7c1.5,0.1,3,0.4,4.5,0.4
		c10-0.1,20.1-0.2,30.1-0.6c9.2-0.3,18.4-0.9,27.6-1.4c8.6-0.5,17.1-0.9,25.7-1.5c2.6-0.2,5.2-0.7,7.8-1.2c2-0.4,2.7-1.3,2.7-3.4
		c0-2.8-1-5.3-2.4-7.7c-0.2-0.4-0.6-0.8-0.8-1.2c-1.6-2.9-3.9-4.1-7.3-3.6c-5.2,0.7-10.5,0.9-15.8,1.4c-1.1,0.1-2.2,0.4-3.3,0.6
		c-3.4,0.6-6.8,1.2-10.2,1.6c-3.1,0.4-3.3,0.1-4.4-2.8c-0.5-0.1-1-0.3-1.6-0.3c-3.3-0.2-6.6-0.3-9.8-0.6c-4.1-0.4-8.3-0.6-12.4-1.6
		c-4.2-1-8-3.1-10.9-6.4c-0.4-0.5-0.8-1-0.9-1.6c-0.4-2.4-0.8-4.7-1-7.1c-0.1-0.9,0.3-1.9,0.5-3c0,0-0.2,0.1-0.5,0.1
		c-2-1.5-2-4-2.7-6.1c-0.3-0.8,0.3-1.9,0.5-2.9c-1.3-0.6-1.9-1.8-2-3.1c-0.7-6-2.2-12-2.2-18.1c0-2.6-0.4-5.1-0.4-7.7
		c0-1.8,0.3-3.7,0.5-5.7h2.4c1.7,3.9,2,7.8,2.5,11.7c0.8,5.7,1.5,11.4,2.2,17.2c0.3,2.7,0.7,5.4,0.9,8.1c0.1,0.8-0.3,1.7-0.4,2.5
		c-0.1,0.7-0.3,1.3-0.1,2.1c0.1-0.4,0.3-0.9,0.4-1.3c0.1,0.1,0.2,0.2,0.3,0.3c0.2,0.7,0.4,1.4,0.4,2.1c0,3.3,1.8,5.8,3.6,8.1
		c2.1,2.6,4.7,4.7,7.5,6.5c0.2-0.1,0.4-0.2,0.4-0.3c0.1-2.9,0.6-5.7,1.4-8.5c0.4-1.6,0.2-3.5,0.1-5.3c-0.2-3.2-0.5-6.4-0.7-9.6
		c-0.2-2.7-0.2-5.5-0.7-8.1c-0.3-1.8-0.9-3.6-1.7-5.2c-1.9-4-3.9-8-6.1-11.9c-3.5-5.9-7.2-11.8-11-17.6
		c-4.7-7.1-10.2-13.4-17.1-18.4c-2.1-1.5-4-3.2-6-4.8c-0.5-0.4-1-0.7-1.4-1c-3.3,1.9-6.5,3.7-9.7,5.5c-0.6,0.3-1.2,0.9-1.4,1.5
		c-1.5,4.4-2.8,8.8-3.2,13.5c-0.2,2.5-0.4,4.9-0.7,7.4c-0.5,4.8,0.2,9.4,0.7,14.1c0.1,0.8,0.4,1.5,0.8,2.2c3.6,7.2,6.1,14.9,8,22.7
		c0.9,3.6,1.9,7.1,2.4,10.8c1.3,8.8,4,17.1,7.3,25.2c0.7,1.8,1.3,3.6,1.8,5.1c-0.7,1.2-1.6,1.4-2.6,1.4c-9.4,0-18.8,0-28.2,0
		c-1.8,0-2.2-0.4-2.7-2.1c-1.5-5.4-2.4-10.9-3-16.5c-0.8-7.2-1.2-14.4-1.4-21.6c-0.2-7.4-0.5-14.9-1-22.4
		c-0.4-5.8,0.5-11.5,1.7-17.1c0.3-1.2,0.6-2.5,1.1-3.7c0.9-2.2,0.2-4.1-0.8-5.9c-0.8-1.4-1.6-2.8-2.6-4c-4.3-5.4-5-11.6-4.4-18.1
		c0.1-1.1,0.2-2.2,0.4-3.3c0-0.4,0-0.8,0.2-1.2c1.8-3.8,2.5-8.1,5.2-11.7c2-2.5,3.9-4.9,6.2-7.2c0.1-0.1,0.2-0.3,0.3-0.4
		c3.6-2.2,6.5-5.3,10.4-7c1.7-0.7,3.7-1.1,5.8-1.7c2.3,2.1,2.3,5.7,4.7,8.2c0.4-0.6,0.7-1,1.2-1.7c-0.6-1-1.1-2-1.8-3
		c-1-1.7-2.1-3.4-3.2-5c-1.1-1.5-1.3-3.3-1.2-5c0-2.2,0.4-4.5,0.8-6.6c0.4-2,1.1-4,1.7-6c1.6-4.8,4-9.2,7.5-12.9
		c2.5-2.6,5.5-4.6,9-5.7c2.9-0.9,5.8-1.8,8.7-2.5c1.8-0.4,3.7-0.5,5.5-0.6c4.4-0.1,8.8-0.2,13.2-0.1c4.9,0.1,9.4,1.6,13.3,4.6
		c0.8,0.6,1.5,1.4,2.3,2.1c1.3,1.2,1.8,2.8,1.5,4.6c-0.1,0.5-0.1,1.2,0.1,1.6c1.3,2.9,2.8,5.7,4.1,8.6c0.5,1.1,1.1,2.3,1.6,3.4
		c0.9,1.8,0.6,3.7,0.3,5.7c-0.3,1.6-0.4,3.2-0.5,4.8c-0.2,1.9,1,3.3,1.8,4.9c0.8,1.6,1.9,3.1,3.1,4.6c2,2.6,1.1,5.3-2.1,6.1
		c-0.8,0.2-1.7,0.2-2.6,0.3c-1.2,0.7-1.5,1.8-1.4,3.1c0.1,1,0.2,1.9,0.2,2.9c-0.1,2.5,0.1,5-0.4,7.4c-0.5,2.5-2.1,4.6-4.9,4.9
		c-3,0.3-6.1,0.6-9.1,0.2c-3.7-0.6-6,0.9-8,3.5c-0.3,0.4-0.6,0.9-0.9,1.4c-0.1,0.1,0,0.3,0,0.7c3,2.1,6,4.5,8.3,7.5
		c2.3,3,4.8,5.9,6.2,9.4c-1.1,1-2.1,1.8-3,2.7c-3,3.3-3.8,7.2-3.2,11.6c0.5,4.1,2.2,7.6,4,11.2c3,6.2,5.3,12.7,6.2,19.6
		c0.6,4.8-0.5,9.2-3.2,13.2c-1,1.6-2,3.4-2.3,5.2c-0.5,2.9,0.8,4.1,3.8,3.6c2.9-0.4,5.8-1,8.7-1.5c0.8-0.1,1.7-0.3,2.7-0.5
		c-0.1-0.8-0.1-1.5-0.3-2.2c-1.1-5.3-2.4-10.6-3.2-16c-0.5-3.1-0.5-6.4-0.1-9.6c0.3-2.7,3.3-6.1,6.4-6.3c0.8-0.1,1.6-0.2,2.4-0.3
		c3.8-0.1,7.5-0.1,11.3-0.1c1.1,0,2.2-0.1,2.5,1.5c1.5-3.1,1.7-6.1,1-9.1c-0.6-2.7-1.2-5.3-1.8-7.9c-1-4.1,0.2-7.9,1.9-11.6
		c0-0.1,0.2-0.2,0.5-0.4c0.5,0.4,1,0.9,1.6,1.4c-1.8,3.5-1.8,7.2-1.4,10.9c0.1,0.8,0.3,1.6,0.4,2.3c0.5,2.3,1.1,4.7,1.4,7
		c0.5,3.7-0.6,7.1-2.4,10.3c-0.7,1.2-1,2.3-0.9,3.7c0.3,4.6,0.6,9.3,0.8,13.9c0.1,1.9,0.1,3.9,0,5.8c-0.1,1.3-0.5,2.6-0.7,3.8
		c-1.2,0.5-1.9,0.3-2.2-0.7c-0.2-0.4-0.3-0.9-0.4-1.4c-1.3-6.5-2.2-13-0.9-19.5c0.2-1.3,0.5-2.5,0.6-3.8c0.1-1.3-0.1-2.6-0.2-4.1
		c-1.3,0-2.6-0.1-3.8,0c-2.9,0.2-5.8,0.4-8.6,0.6c-2.9,0.2-4.2,1.1-4.9,4c-0.4,1.8-0.7,3.6-0.5,5.4c0.3,3.2,1,6.3,1.6,9.4
		c0.7,3.7,1.4,7.4,2.1,11.1c0,0.2,0.2,0.4,0.3,0.7c8.8,1.2,17.7,1.4,26.6,1c0.4,0.8,0.8,1.5,1.5,2.7c0.2-1.4,0.4-2.2,0.5-3.2
		c1.6-0.6,3.2-1.3,4.8-1.6c3-0.7,5.5-2.4,8.2-3.9c0.9-0.5,1.9-0.9,2.9-1.1c3-0.6,6-0.8,9-1.5c2.3-0.5,4.5-1.4,6.8-2.1
		c0.7-0.2,1.5-0.2,2.2-0.3c2.2,1.9,2.8,3.9,1.6,5.5c-1.1,1.5-2.6,2.3-4.3,2.9c-2.3,0.9-4.5,1.9-6.8,2.9c-0.9,0.4-1.7,1-1.3,2.2
		c3.8-0.8,7.8-0.9,11.4-2.8c-0.3-0.6-0.6-1.2-0.8-1.8c0.5-0.9,1-1.1,1.8-0.8c1,0.4,1.8,1,1.8,2c0,1.2-0.3,2.4-0.5,3.5
		c-0.2,0.6-0.5,1.2-1,2.3c7.9-0.8,15.4-1.5,23-2.2c0.1-0.4,0.2-0.9,0.3-1.3c0.4-3.2,0.8-6.3,1.3-9.5c0.6-4,1.1-8.1,1.7-12.1
		c0.1-0.5,0.2-0.9,0.3-1.4c1.6-7.2,2.1-14.6,1.3-22c-0.2-1.5,0-3.1-0.2-4.6c-0.3-2.8-0.7-5.6-1.1-8.3c-0.3-2.2-0.7-4.4-1.7-6.4
		c-0.6-1.1-1-2.5-1.9-3.2c-3.2-2.8-5-6.4-6.9-10c-0.3-0.6-0.6-1.1-1.1-1.8c-5.7,1.6-9.8,5.7-14.2,9.1c-1.3-0.1-1.6-1.1-2-2
		c-0.8-2.2-1.7-4.3-2.4-6.5c-1.2-4-2.2-8-3.4-12.2c0.9,0.4,1.4,0.8,2.1,1.1c0.2-0.4,0.3-0.7,0.4-1l0,0c0.6,2,1.2,3.9,1.8,5.9
		c1.1,3.5,2.1,7,3.2,10.5c0.1,0.3,0.3,0.5,0.6,0.8c3.8-3.4,7.9-6.2,12.8-8.1c-1-1.1-1.8-1.9-2.6-2.7c-2.7-2.7-5.6-5.2-8.2-8
		c-1.5-1.6-2.6-3.5-3.8-5.4c-0.8-1.3-0.7-1.6,0.8-2.7c2.3,5.1,6.8,8.3,10.7,12.2c-1.7-5.8-4.1-11.4-6-17.1c0.6-0.7,1.2-0.5,1.7,0.1
		c0.8,1.1,1.7,2.2,2.2,3.4c1.7,4.1,3.1,8.3,4.7,12.5c0.7,1.9,1.4,3.7,2.4,5.4c0.7,1.3,1.9,2.3,2.9,3.6c-0.5,1.1-0.2,2,0.3,3.1
		c1.7,3.8,4.2,6.9,7.3,9.6c0.5,1.2,1,2.3,1.4,3.5c1.3,4,1.8,8.1,2.4,12.2c0.9,6.5,0.7,12.9,0.6,19.4c0,0.9-0.2,1.9-0.3,2.9
		c-0.6,3.5-1.2,6.9-1.7,10.4c-0.1,0.5,0.1,1.1,0.1,1.6c0.4-0.7,0.5-1.3,0.6-1.9c1-3.9,2-7.7,3.1-11.6c1.3-5,2.7-10,4-15
		c0.8-3,4.1-4.8,7-3.7c2.9,1.1,5.7,2.4,8.6,3.5c1.7,0.7,3.4,1.2,5,1.8c0-1.3-0.3-2.6,0-3.6c1.3-4,2.3-8.1,2.9-12.3
		c1-6.6,1-13.1-1.8-19.3c-1.7-3.8-4.2-6.8-7.9-8.9c-0.6,0.3-1.1,0.6-1.6,0.9c0.7,4.5-0.2,8.8-0.8,13.2c-0.2,1.5-0.2,3.2-1.8,4.3
		c-0.4-0.3-0.9-0.4-1.2-0.8c-0.9-1-1.7-2.1-2.6-3.1c-1.3-1.4-2.7-2.9-4.2-4.2c-1.5-1.4-2.1-1.3-3.3,0.2c-1,1.1-1.9,2.3-2.7,3.6
		c-1.4,2.2-2.6,4.5-4,6.8h-1.7c0.2-1.3,0.2-2.5,0.5-3.8c0.9-3.5,2-7,3.5-10.4c1.5-3.3,3.7-5.5,7.3-6.1c0.2,0,0.4-0.2,0.7-0.3
		c0.1,0,0.1-0.1,0.2-0.4c-0.3-0.1-0.7-0.2-1-0.3c-5.1-0.4-9.9-2-14.6-4.1c-2.2-1-4.5-1.9-6.7-3.1c-2.7-1.4-4.5-3.7-5.9-6.4
		c-0.8-1.5-1.4-3-2.2-4.5c-0.3-0.6-0.7-1.1-1.1-1.7c-0.2,0.1-0.3,0.1-0.5,0.2c0,0.5,0,0.9,0.1,1.4c-1.3,1.1-2.1-0.2-3.2-0.8
		c-0.6,2.4-1.2,4.7-1.9,7.1c-0.2,0-0.5,0-0.7-0.1c-0.4-0.2-0.8-0.5-1.1-0.9c0.3-1.6,0.4-3.1,0.8-4.6c0.3-1.4,0.2-2.7-0.3-4
		c-1.2-3.2-2.6-6.4-3.6-9.6c-1.9-6-3.4-12.1-2.4-18.6c0.4-2.9,0.7-5.7,1.6-8.4c1.2-3.6,3-6.8,6.6-8.7c1.2-0.7,2.3-1.8,3.5-2.5
		c3.8-2.3,8-3.6,12.5-3.5c3.8,0.1,7.7,0,11.5,0.7c6.2,1.2,11.8,3.9,16.1,8.7c2.8,3.2,6.4,5.2,10.6,5.7c1.3,1.8,1.2,3.8-0.3,6
		c-0.8,1.2-1.9,1.9-5.2,3.2c0,0.3-0.1,0.6,0,0.9c0.6,2.7,1.2,5.5,1.8,8.2c0.7,2.5,0,4.8-1.1,6.9c-0.9,1.7-1.4,3.5-1.6,5.5
		c-0.1,0.9-0.5,1.8-0.8,2.8c-0.9,2.8-1.4,5.7-1.8,8.6c-0.5,3.8-1.6,7.5-2.5,11.1c1.5,0.5,3.5,1,5.2,1.9c0.8,0.4,1.6,0.6,2.5,0.6
		c0.3,0,0.7,0,1,0c2.6-0.3,4.9,0.6,6.9,2.2c7.4,5.7,14,12.2,19.1,20.1c4.2,6.6,8.6,13,13.2,19.3c2.2,3,5.3,5.4,8,8.1
		c2,2.1,4.1,4,6.6,5.3c2.1,1,4.1,2.1,6.2,3.1c0.5,0.2,0.9,0.6,1.4,0.9c3,1.8,4.5,4.3,3.3,8.1c2.2-1,3.2,0.4,4.4,1.7
		c0.2-0.3,0.5-0.6,0.6-0.8c0.8-4.8,3.9-8.1,7.3-11.1c2.1-1.8,4-3.6,6.1-5.4c1.6-1.3,2.6-2.9,3.5-4.8c1.2-2.5,3-4.5,5.4-6.2
		c3.9-2.8,7.4-6,9.2-10.7c1.7-4.3,4.3-8.1,8.2-10.9c1.7-1.2,3.1-3,4.3-4.7c3.6-5.3,7.8-10.1,12.3-14.6c2.2-2.2,4.8-3.5,7.9-4
		c3.5-0.5,7-1.4,10.4-2.4c1.3-0.4,2.5-1.3,3.9-2c-0.4-0.9-0.8-1.7-1.2-2.5c-3.7-0.6-5.8-2.9-7.1-6.1c-0.9-2.3-1.8-4.6-2.5-7
		c-0.6-2-0.6-4,0.8-5.9c1-1.3,2.4-1.1,3.5-1.6c0.2-1.8,0.4-3.5,0.6-5.4c-0.9,0-2-0.1-3.3-0.2c-0.2-0.8-0.5-1.5-0.5-2.3
		c-0.1-2.7-0.3-5.5,0-8.2c0.6-5.3,3-9.9,7-13.5c4.2-3.8,9.1-6.3,14.6-7.8c3.2-0.9,6.4-1,9.7-0.9c6.1,0.2,10.8,3.2,14.9,7.5
		c0.6,0.6,1.1,1.4,1.9,1.8c3.8,2,5.3,5.4,6.3,9.4c1,4.1,0.3,8.1-0.5,12.2c-0.3,1.6-0.6,3.1-0.8,4.8c4.1,1.3,4.4,4.5,4,8
		c-0.2,1.8-0.4,3.7-0.9,5.4c-0.7,2-1.7,4-3.8,4.9c-0.7,4.1,1.2,8,4.7,9.6c4.7,2.3,9.4,4.5,14.2,6.7c1.7,0.7,3.5,1.2,5.2,1.6
		c3.2,0.8,6.3,1.7,9.2,3.2c0.9,0.4,1.9,0.9,2.6,1.6c2.8,2.9,5.6,5.8,7.5,9.5c1.1,2.2,1.4,4.4,1.7,6.7c0.4,3.8,0.6,7.7,1,11.5
		c0.1,0.7,0.2,1.4,0.5,2.1c1.6,4,2.2,8.2,2.3,12.4c0.1,3.3,0.1,6.6,0.2,9.9c0,1.1,0.1,2.3,0.5,3.3c1.5,4.5,2,9.2,2.4,13.9
		c0.1,0.9,0.3,1.8,0.4,3.1c0.8-0.7,1.3-1.1,1.7-1.5c4-3.9,6.9-8.5,9.3-13.4c1.3-2.7,2.9-5.3,4.2-8c1.7-3.5,3.3-7.1,4.9-10.6
		c2.3-4.8,5.5-9.1,8.7-13.3c1.8-2.4,3.5-4.7,3.7-7.9c0-0.7,0.8-1.4,1.4-2.1c0.6-0.7,1.6-1,1.8-2.3c-1.8,0.4-3.4,0.9-5,1.6
		c-1.8,0.8-3.7,1.6-5.6,2c-4.4,1-7.6-1.5-8.4-5.9c-0.1-0.2-0.1-0.5-0.1-0.7c0.6-4.7-1.9-8.2-4.5-11.8c-2.6-3.6-4.7-7.4-5.4-11.9
		c-0.2-1.4-0.2-2.9-0.3-4.3c-0.1-1.6-0.2-3.2-0.3-4.8c-0.2-2-1-3.7-2.5-5c-1.7-1.6-2.1-3.5-1.8-5.9c0.4-2.9,0.6-5.9,0.7-8.9
		c0.1-2.3,0.6-4.4,1.9-6.5c-0.9-0.6-1.8-0.3-2.6-0.4c-1.9-0.1-3.8-0.4-5.5-1.4c-3-1.7-3.8-4.4-2-7.5c1.7-2.9,4-5.2,6.5-7.3
		c3.9-3.3,8.2-6,12.8-8.2c3.4-1.6,6.9-2.8,10.5-3.7c7.7-2,15.4-1.7,23.2-0.7c4.6,0.6,9.3,1.8,13.3,4.2c2.3,1.4,4.4,3.1,5.5,5.8
		c0.4,0.9,1.1,1.7,1.8,2.5c3.7,3.7,5.7,8.2,6.5,13.3c0.5,3.3,0.9,6.7,0.8,10c-0.2,5.3-0.6,10.7-2.5,16.1c-0.7-0.1-1.3-0.2-1.8-0.2
		c0.3-3.5,0.7-6.6,0.8-9.8c0.3-10-2.5-18.7-10.4-25.4c-0.4-0.4-0.9-0.7-1.3-1c-0.4-0.3-0.9-0.6-1.4-1c-3.6,1.7-7.1,3.4-10.8,5
		c-2.6,1.1-5.2,2.1-7.8,2.9c-3.9,1.2-7.8,2.2-11.7,3.2c-4.2,1.1-8.5,1.5-12.8,1.4c-3.1-0.1-4.2,0.3-6.6,1.8
		c0.6,3.6,1.1,7.1,1.7,10.9c3,1.8,4.1,5,4.7,8.5c0.3,1.9,0.6,3.8,1,5.7c0.1,0.5,0.3,1,0.9,1.4c0-0.6,0-1.2,0-1.9c0-1-0.1-1.9,0-2.9
		c0.5-4.5,4.4-6.3,8.2-4c3.7,2.2,6.4,5.2,8.7,8.7c1.2,1.8,2.4,3.8,3.7,5.5c1.6,2.2,3.8,3.3,6.4,4.2c5.5,1.8,11.1,1.6,16.6,1.2
		c4-0.2,7.1-2.3,8.3-6.4c0.4-1.5,0.5-1.5,2.2-1c0.7,5,1.3,10.1,4.6,14.5c1.2,0.1,2.5,0.2,3.8,0.4c1.9,1.7,2.1,4.2,3.2,6.3
		c0.2,0.4-0.4,1.2-0.7,1.9c-2.7-1.2-4.7-2.9-6.4-4.8c-0.8-0.9-1.6-1.3-2.7-1.1c-2.2,0.4-4.4,0.8-6.6,1.2c-0.9,0.2-1.9,0.5-2.8,0.5
		c-4.5,0.2-8,2.6-11.5,4.9c-3.7,2.5-7.2,5.3-10.7,7.9c-0.9,0.7-1.5,1.4-1.8,2.6c-0.3,1.1-1.4,2.1-2.1,3.1c-0.3,0.4-0.5,0.9-0.8,1.4
		l-0.1,0.1l0.1-0.1c2.1-1,4.1-2,6.2-3c2.7-1.2,5.3-2.6,8-3.6c4.5-1.7,9.1-3.2,13.7-4.7c2.7-0.9,5.4-1.7,8.2-2.5
		c0.8-0.2,1.7-0.3,2.6-0.4c2.4-0.4,4.8-0.8,7.3-1.2c2.7-0.4,5.1,0.5,7.3,1.7c5.7,2.9,11.1,6.5,16.2,10.3c1.4,1.1,3,2.1,4.4,3.2
		c2.9,2.2,4.5,5.4,5.5,8.7c0.9,2.8,2.1,5.4,3.3,8.1c0.8,1.7,1.4,3.4,2,5.1c-0.1,0.2-0.2,0.3-0.1,0.1c-0.1,0.2,0,0.1,0-0.1
		c1.1,3.2,2.3,6.4,3.4,9.7c0.7,2.1,1.2,4.3,1.9,6.4c0.8,2.3,1.1,4.6,1.1,7.1c0.1,6.4-0.5,12.8-1.3,19.2c-0.1,0.6,0,1.3,0,2.2
		c4.4-1.1,8.8-2.3,13.2-3.4c0.8-0.2,1.6-0.3,2.4-0.4c2.6-0.4,5.2-0.9,7.8-1.1c4-0.3,7.9,0.4,11.6,2.1c3.8,1.7,6.1,6.6,5,11.1
		c-0.8,3.1-2,6-3.2,9c-1.8,4.3-3.5,8.6-5.2,12.8c-1.3,3.2-2.7,6.3-4.1,9.4c-0.2,0.4-0.6,0.8-1,1.2c-1.1-0.8-1.2-1.6-0.9-2.6
		c0.7-2.5,1.3-4.9,1.9-7.4c0.8-3.5,2-7,2.4-10.5c0.5-4.4,1.5-8.9,0.3-13.4c-0.4-1.8-1.3-3-3.1-3.2c-3.3-0.2-6.6-0.4-9.8-0.2
		c-3.2,0.3-6.4,1-9.6,1.8c-2.4,0.5-4.7,1.4-7.1,2c-1.1,0.3-2.3,0.8-3.6,0.1v-4c-1.7,0.5-3.3,0.2-4.6,1.5c-0.3,3.8-0.7,7.7-1.1,11.7
		c1.6,0.3,2.9-0.4,4.2-0.7c2.8-0.8,5.6-1.8,8.5-2.5c3.1-0.8,6.3-1.2,9.4-2c3.5-0.8,7.8,1.2,9.5,4.5c1,1.9,1.6,4,1.6,6.2
		c0,3.7-0.3,7.3-1.2,10.9c-1.6,6.9-4.1,13.4-7.1,19.7c-1.5,3.2-3.1,6.3-4.6,9.5c-0.2,0.5-0.3,1-0.6,1.9c1,0,1.8,0.1,2.6,0.1
		c6.2-0.1,29.5-0.3,30.9-0.2c5.3,0.1,22.2,0.2,27.5,0.3c0.9,0,1.9,0.1,2.8,0.2c0.4,1.4-0.1,2.1-1.3,2.3c-0.4,0.1-12.5,0-12.8,0
		c-16.8,0-33.5,0-50.3,0c-1.2,0-2.3,0-2.8-1.6c0.9-1.9,1.9-3.9,3-6c2.9-5.7,5.6-11.6,7.8-17.7c2.2-6.1,4.1-12.3,3.8-18.9
		c-0.1-1.9-0.3-3.8-1.3-5.5c-1.6-2.6-3.9-3.8-6.9-3.3c-3.4,0.6-6.7,1.5-10,2.3c-2.2,0.5-4.3,1.1-6.5,1.7c-2,0.6-3.9,1.3-5.9,1.9
		c-0.8,0.3-1.7,0.6-2.6-0.5c0.3-4.4,0.7-9,1.1-13.8c-0.8,0-1.4-0.1-1.8,0c-3.6,0.9-7.3,1.8-10.9,2.7c-2.7,0.7-5.4,1.5-8.1,2.2
		c-2.2,0.6-4.3,1-6.5,1.5c-9.6,2.1-17,7.6-22.5,15.6c-1.6,2.4-2.7,5.1-3.6,7.8c-1.4,4.6-2.8,9.1-4.2,13.7
		c-1.6,5.2-3.1,10.4-4.6,15.6c-0.6,1.9-0.9,2.2-2.8,2.2c-10.7,0-21.3,0-32,0c-1.1,0-2.1-0.1-2.4-1.2c0.8-2.4,1.6-4.6,2.1-7
		c0.4-1.9,0.6-3.8,0.9-5.7c0.2-1.2,0.6-2.3,0.8-3.4c0.2-0.8,0.1-1.6,0.1-2.4c0-1.2-0.1-2.4,0-3.6c0.1-1.9-0.2-3.8,1-5.6
		c0.4-0.6,0.5-1.6,0.4-2.3c-0.4-2.7,0.4-5.2,1.3-7.7c-1.2-0.3-2.1,0.1-3,0.8c-3.5,3-7.1,5.8-10.6,8.9c-4,3.5-7.8,7.3-11.8,10.8
		c-1.8,1.5-3.9,2.8-6,3.8c-3.4,1.6-6.9,3-10.4,4.2c-2.9,1-6,1.5-9.1,2.2c-1.5,0.3-2.9-0.2-4.3-1.1c-3.4-2.3-5.9-5.4-8.3-8.6
		c-2.6-3.4-4.8-7-6.5-10.9c-1.3-3.1-2.5-6.2-2.2-9.7c0.3-4-0.9-7.8-2-11.5c-1.8-6.3-4.4-12.3-7.2-18.2c-0.3-0.6-0.5-1.1-0.8-1.8
		c-0.6,1.6-0.5,2.4-0.3,4.2c0.3,2.3,1.5,4.2,2.2,6.3c1.9,5.1,3.9,10.3,5.7,15.4c0.2,0.6,0.2,1.3,0.2,2.1c-0.7,0.1-1,0.3-1.4,0.3
		c-4.2-0.2-8.3-0.4-12.5-0.6c-3.9-0.2-7.8-0.5-11.8-0.7c-0.6,0-1.3,0.1-1.8,0.4c-4.9,2.5-9.7,5.1-14.6,7.6
		c-5.2,2.7-10.4,5.3-15.6,7.9c-4.9,2.5-9.8,5-14.6,7.6c-1,0.6-1.9,0.7-3,0.6c-4.6-0.4-9.3-0.8-13.9-1.1c-0.2,0-0.5,0-0.7-0.1
		c-6.4-0.4-12.8-0.7-19.2-1.1c-4.2-0.2-8.3-0.3-12.5-0.6c-4.8-0.3-9.6-0.8-14.4-1.2c-1.8-0.1-3.7-0.1-5.5-0.2
		c-2.7-0.2-5.4-0.4-8.1-0.7c-0.7-0.1-1.4-0.5-2.1-0.7c0.4-1.7,1.7-2,2.7-2.5c6-2.9,12-5.8,18.1-8.7c5.6-2.6,11.3-5.2,16.9-7.8
		c4.1-1.9,8.2-3.8,12.1-5.9c1.5-0.8,2.9-0.6,4.4-0.5c3.5,0.2,7,0.4,10.5,0.8c5.8,0.6,11.7,0.1,17.5,1.2c0.5,0.1,1,0.1,1.4,0.1
		c6.1,0.2,12.2,0.4,18.3,0.7c5.5,0.3,11,0.8,16.5,1.2c0.5,0,1,0.1,1.4,0.1c5.2,0.2,5.2,0.2,9.7-2.4c1.2-0.7,2.5-1.3,4.1-2.1
		c-4.5-0.4-8.4-0.7-12.4-1c-4.2-0.3-8.5-0.4-12.7-0.6c-7.1-0.4-14.2-0.8-21.4-1.3c-0.2,0-0.5,0-0.7-0.1c-7.5-0.4-15.1-0.8-22.6-1.1
		c-5.1-0.2-10.1-0.4-15.2-0.6c-1.8-0.1-3.5-0.2-5.3-0.5c-0.7-0.1-1.3-0.5-1.9-0.8c0.4-1.8,1.8-2,2.9-2.5c5.1-2.2,10.3-4.2,15.4-6.4
		c0.6-0.2,1.1-0.7,1.7-1.1c-1.6-0.4-3-0.4-4.4,0.4c-1.5,0.8-3,0.9-4.5-0.2c-1.8,1.7-3.8,2.2-6.1,1.7c-0.7-0.1-1.5-0.1-2.1,0.1
		c-3.1,1-5.8-0.1-7.6-2.7c-1.8-2.7-1.8-5.6-1.4-8.5c0.1-1,1-1.9,1.8-2.7c0.8-0.8,1.5-1.6,1.6-2.8c0.3-2.2,1.2-3.9,3.7-4.5
		c0.7-0.2,1.3-1.1,1.9-1.7c2.2-2.9,5.9-3.6,8.8-1.3c1.8,1.4,3.4,3.1,5.1,4.7c0.4,0.4,0.8,0.7,1.3,1.2c3-2.8,6-5.6,9-8.4
		c2.7-2.6,5.2-5.4,7.1-8.7c0.8-1.3,1.9-2.6,3.1-3.6c1.7-1.5,3.2-0.9,3.7,1.3c0.8,4.1,2.7,7.8,4.3,11.6c2,4.6,3.9,9.3,3.5,14.5
		c-0.1,0.6,0.1,1.2,0.1,2h3.8c4-3,7.9-6,11.8-8.9c0.8-0.6,2-1.2,3-1.2c5.1-0.1,10.1-0.1,15.2-0.1c0.7,1.1,1.2,2.1,1.8,3.1
		c-1.1,0.6-1.7,0.2-2.4-0.4c-1.6-1.6-2-1.5-3.5,0c-1,1-2.2,1.9-3.8,1.8c-1.4,0-2.8,0.3-4.6,0.4c-2.1,2.8-5.2,5.1-8.6,7.1
		c-1.2,0.7-2.3,1.1-3.6,1c-1.1-0.1-2.2,0-3.4,0c-0.4,1.3-0.9,2.4-1.2,3.5c-0.3,1.1-0.5,2.3-0.7,3.6c1.2,0.6,2.6,1.1,1.9,2.7
		c-2.3,0.5-3.8-0.3-4-2.4c-0.1-1.2,0.1-2.4,0.3-3.6c0.2-1.2,0.6-2.3,0.9-3.7h-3.9c-1.5-0.7-1.7-1.6-1.7-2.6
		c-0.1-1.9-0.2-3.8-0.3-5.8c-0.1-4-2.1-7.5-3.4-11.1c-1.2-3.1-2.5-6.1-3.7-9.1c-0.2-0.4-0.4-0.8-0.8-1.6c-3,4.4-5.8,8.5-9.5,11.9
		c-3.6,3.3-7.1,6.8-11.3,9.7c-0.7-0.9-1.3-1.7-2-2.4c-1.7-1.9-3.3-3.9-5.6-5.1c-1.8-1-3.5-0.9-4.5,0.8c-0.9,1.5-2,2.4-3.6,2.9
		c-0.6,0.2-1.2,0.8-1.8,1.3c-0.1,1.1-0.2,2.2-0.4,3.6c-2.1,1.4-3.7,3.4-3.4,6.4c0.2,2.1,1.2,3.8,2.7,5.2c1.6,0.5,3.3,0.5,4.2-0.3
		c1.9,0.2,3.4,0.4,4.9,0.6c0.2-1,0.3-1.8,0.4-2.7c2.3-0.3,4.2,2.3,6.8,0.8c0.1-0.5,0.2-1.3,0.3-2.1c2-1.5,2.3,1.9,4.1,1.4
		c1.7-1.6,0-3.9,0.7-5.9c0.5-0.1,1-0.4,1.6-0.4c6.7,0,13.3,0,20,0c0.8,0,1.9-0.1,2,1.5c-0.7,0.4-1.4,1-2.3,1.4
		c-3.9,1.6-7.8,3.2-11.7,4.8c-4,1.7-8,3.5-12,5.2c-2.8,1.2-5.6,2.3-8.4,3.4c-0.8,0.3-1.5,0.8-2.2,1.5c1,0,2,0,3,0
		c11.4,0.6,22.8,0.9,34.1,1.8c9,0.7,18.1,0.9,27.1,1.4c8.6,0.5,17.1,1.1,25.9,1.6c0.2,0.4,0.5,0.9,0.8,1.5c-2.9,2.4-6.7,3.3-10,6.1
		c6.5,0.3,12.5,0.6,18.5,0.8c-0.2-2.8-1.6-4.9-2.3-7.2c-0.8-2.3-1.6-4.5-2.5-6.7c-0.6-1.5-1.2-2.9-1.9-4.4c-0.8-1.9-1.2-3.9-1-5.9
		c0.1-1.1,0.4-2.2,0.8-3.2c0.3-0.8,0.8-1.5,1.2-2.4c-0.7-1.7-1.4-3.3-2.2-4.9c-0.1-0.1-0.5-0.1-0.8-0.1L1277.2,152.2L1277.2,152.2z"
		/>
	<path class="st0" d="M1029.3,74.9c-0.5,0.7-5.4,2.1-5.8,2.7c-3.2,1.2-6.2,2.4-9.2,3.5c-0.8,0.3-1.7,0.4-2.6,0.7
		c-7.4,6.2-14.4,19.9-14.4,21.2c-1-0.5-1.3-1.6-2-2c1.6-3.3,6.8-12.3,8.9-15.1c1.2-1.5,2.5-2.8,3.9-4.1c1.2-1.1,2.7-1.9,4.3-2.4
		c3-1,5.9-2.3,8.9-3.4c1.1-0.4,6.7-3.3,7.9-2.1V74.9z"/>
</g>
</svg>
