<?xml version="1.0" encoding="utf-8"?>
<!-- Generator: Adobe Illustrator 24.0.3, SVG Export Plug-In . SVG Version: 6.00 Build 0)  -->
<svg version="1.1" id="Layer_1" xmlns="http://www.w3.org/2000/svg" xmlns:xlink="http://www.w3.org/1999/xlink" x="0px" y="0px"
	 viewBox="0 0 230.99 210.79" style="enable-background:new 0 0 230.99 210.79;" xml:space="preserve">
<style type="text/css">
	.st0{clip-path:url(#SVGID_2_);}
	.st1{display:none;fill:#F2F2F2;}
	.st2{fill:#F2F2F2;}
</style>
<g>
	<defs>
		<rect id="SVGID_1_" width="230.99" height="210.79"/>
	</defs>
	<clipPath id="SVGID_2_">
		<use xlink:href="#SVGID_1_"  style="overflow:visible;"/>
	</clipPath>
	<g class="st0">
		<g>
			<g>
				<path class="st1" d="M234.65,78.63l-37.55,21.68l-37.55-21.68V35.27l37.55-21.68l37.55,21.68V78.63 M235.3,79.01V34.9
					l-38.2-22.05L158.9,34.9v44.11l38.2,22.06L235.3,79.01L235.3,79.01z"/>
				<path class="st2" d="M234.65,78.63l-37.55,21.68l-37.55-21.68V35.27l37.55-21.68l37.55,21.68V78.63 M235.3,79.01V34.9
					l-38.2-22.05L158.9,34.9v44.11l38.2,22.06L235.3,79.01L235.3,79.01z"/>
				<path class="st2" d="M274.29,147.51l-37.55,21.68l-37.55-21.68v-43.36l37.55-21.68l37.55,21.68V147.51 M274.94,147.89v-44.11
					l-38.2-22.06l-38.2,22.06v44.11l38.2,22.05L274.94,147.89L274.94,147.89z"/>
				<path class="st2" d="M274.29,147.51l-37.55,21.68l-37.55-21.68v-43.36l37.55-21.68l37.55,21.68V147.51 M274.94,147.89v-44.11
					l-38.2-22.06l-38.2,22.06v44.11l38.2,22.05L274.94,147.89L274.94,147.89z"/>
				<path class="st2" d="M115.56,147.51l-37.55,21.68l-37.55-21.68v-43.36l37.55-21.68l37.55,21.68V147.51 M116.21,147.89v-44.11
					l-38.2-22.06l-38.2,22.06v44.11l38.2,22.05L116.21,147.89L116.21,147.89z"/>
				<path class="st2" d="M234.65,216.4l-37.55,21.68l-37.55-21.68v-43.36l37.55-21.68l37.55,21.68V216.4 M235.3,216.77v-44.11
					l-38.2-22.05l-38.2,22.05v44.11l38.2,22.05L235.3,216.77L235.3,216.77z"/>
				<path class="st2" d="M234.65,216.4l-37.55,21.68l-37.55-21.68v-43.36l37.55-21.68l37.55,21.68V216.4 M235.3,216.77v-44.11
					l-38.2-22.05l-38.2,22.05v44.11l38.2,22.05L235.3,216.77L235.3,216.77z"/>
				<path class="st2" d="M194.7,147.51l-37.55,21.68l-37.55-21.68v-43.36l37.55-21.68l37.55,21.68V147.51 M195.35,147.89v-44.11
					l-38.2-22.06l-38.2,22.06v44.11l38.2,22.05L195.35,147.89L195.35,147.89z"/>
				<path class="st2" d="M194.7,147.51l-37.55,21.68l-37.55-21.68v-43.36l37.55-21.68l37.55,21.68V147.51 M195.35,147.89v-44.11
					l-38.2-22.06l-38.2,22.06v44.11l38.2,22.05L195.35,147.89L195.35,147.89z"/>
				<path class="st2" d="M155.07,216.4l-37.55,21.68L79.97,216.4v-43.36l37.55-21.68l37.55,21.68V216.4 M155.72,216.77v-44.11
					l-38.2-22.05l-38.2,22.05v44.11l38.2,22.05L155.72,216.77L155.72,216.77z"/>
				<path class="st2" d="M155.07,216.4l-37.55,21.68L79.97,216.4v-43.36l37.55-21.68l37.55,21.68V216.4 M155.72,216.77v-44.11
					l-38.2-22.05l-38.2,22.05v44.11l38.2,22.05L155.72,216.77L155.72,216.77z"/>
				<path class="st2" d="M75.75,216.4L38.2,238.08L0.65,216.4v-43.36l37.55-21.68l37.55,21.68V216.4 M76.4,216.77v-44.11
					l-38.2-22.05L0,172.66v44.11l38.2,22.05L76.4,216.77L76.4,216.77z"/>
				<path class="st2" d="M75.75,216.4L38.2,238.08L0.65,216.4v-43.36l37.55-21.68l37.55,21.68V216.4 M76.4,216.77v-44.11
					l-38.2-22.05L0,172.66v44.11l38.2,22.05L76.4,216.77L76.4,216.77z"/>
			</g>
		</g>
	</g>
</g>
</svg>
