<?xml version="1.0" encoding="utf-8"?>
<!-- Generator: Adobe Illustrator 24.0.3, SVG Export Plug-In . SVG Version: 6.00 Build 0)  -->
<svg version="1.1" id="Layer_1" xmlns="http://www.w3.org/2000/svg" xmlns:xlink="http://www.w3.org/1999/xlink" x="0px" y="0px"
	 viewBox="0 0 198.08 210.79" style="enable-background:new 0 0 198.08 210.79;" xml:space="preserve">
<style type="text/css">
	.st2{fill:#e9e9e9;}
	.hex-rotate {
		fill:#e9e9e9;
		animation-duration: 3000ms;
		animation-iteration-count: infinite;
		animation-timing-function: linear;
		transform-origin: center;
		transform-box: fill-box;
		animation: rotate 3000ms linear infinite;
	}
	.delay {
		animation-delay: 1500ms;
	}
	@keyframes rotate {
		20%, 100% {
			transform: rotate(360deg);
		}
		0% {
			transform: rotate(0deg);
		}
		100% {
			transform: rotate(360deg);
		}
	}
</style>
<g>
	<defs>
		<polygon id="SVGID_1_" points="-0.28,0.12 197.72,0.72 197.44,210.79 -0.28,210.79 		"/>
	</defs>
	<clipPath id="SVGID_2_">
		<use xlink:href="#SVGID_1_"  style="overflow:visible;"/>
	</clipPath>
	<g class="st0">
		<g>
			<g>
				<path class="st2 hex-rotate delay" d="M130.55,235.11l-21.68-37.55l21.68-37.55h43.36l21.68,37.55l-21.68,37.55H130.55 M130.18,235.76h44.11
					l22.05-38.2l-22.05-38.2h-44.11l-22.06,38.2L130.18,235.76L130.18,235.76z"/>
				<path class="st2" d="M-7.21,235.11l-21.68-37.55l21.68-37.55h43.36l21.68,37.55l-21.68,37.55H-7.21 M-7.59,235.76h44.11
					l22.05-38.2l-22.05-38.2H-7.59l-22.05,38.2L-7.59,235.76L-7.59,235.76z"/>
				<path class="st2" d="M61.58,195.16L39.9,157.61l21.68-37.55h43.36l21.68,37.55l-21.68,37.55H61.58 M61.2,195.81h44.11
					l22.06-38.2l-22.06-38.2H61.2l-22.05,38.2L61.2,195.81L61.2,195.81z"/>
				<path class="st2" d="M-7.21,155.53l-21.68-37.55l21.68-37.55h43.36l21.68,37.55l-21.68,37.55H-7.21 M-7.59,156.18h44.11
					l22.05-38.2l-22.05-38.2H-7.59l-22.05,38.2L-7.59,156.18L-7.59,156.18z"/>
			</g>
		</g>
	</g>
</g>
</svg>
