<?xml version="1.0" encoding="utf-8"?>
<!-- Generator: Adobe Illustrator 24.0.3, SVG Export Plug-In . SVG Version: 6.00 Build 0)  -->
<svg version="1.1" id="Layer_1" xmlns="http://www.w3.org/2000/svg" xmlns:xlink="http://www.w3.org/1999/xlink" x="0px" y="0px"
	 viewBox="0 0 432 288" style="enable-background:new 0 0 432 288;" xml:space="preserve">
<style type="text/css">
	.st0{clip-path:url(#SVGID_2_);}
	.st2{fill:#e9e9e9;}
	.hex-rotate {
		fill:#e9e9e9;
		animation-duration: 3000ms;
		animation-iteration-count: infinite;
		animation-timing-function: linear;
		transform-origin: center;
		transform-box: fill-box;
		animation: rotate 3000ms linear infinite;
	}
	.delay {
		animation-delay: 1500ms;
	}
	@keyframes rotate {
		20%, 100% {
			transform: rotate(360deg);
		}
		0% {
			transform: rotate(0deg);
		}
		100% {
			transform: rotate(360deg);
		}
	}
</style>
<g>
	<defs>
		<rect id="SVGID_1_" x="-0.05" y="0.25" width="431.76" height="287.84"/>
	</defs>
	<clipPath id="SVGID_2_">
		<use xlink:href="#SVGID_1_"  style="overflow:visible;"/>
	</clipPath>
	<g class="st0">
		<g>
			<g>
				<path class="st2 hex-rotate" d="M334.1-23.1l21.68,37.55L334.1,52h-43.36l-21.68-37.55l21.68-37.55H334.1 M334.48-23.75h-44.11l-22.05,38.2
					l22.05,38.2h44.11l22.05-38.2L334.48-23.75L334.48-23.75z"/>
				<path class="st2" d="M402.99-62.74l21.68,37.55l-21.68,37.55h-43.36l-21.68-37.55l21.68-37.55H402.99 M403.36-63.38h-44.11
					l-22.06,38.2l22.06,38.2h44.11l22.05-38.2L403.36-63.38L403.36-63.38z"/>
				<path class="st2" d="M471.87-23.1l21.68,37.55L471.87,52h-43.36l-21.68-37.55l21.68-37.55H471.87 M472.25-23.75h-44.11
					l-22.05,38.2l22.05,38.2h44.11l22.05-38.2L472.25-23.75L472.25-23.75z"/>
				<path class="st2" d="M471.87-23.1l21.68,37.55L471.87,52h-43.36l-21.68-37.55l21.68-37.55H471.87 M472.25-23.75h-44.11
					l-22.05,38.2l22.05,38.2h44.11l22.05-38.2L472.25-23.75L472.25-23.75z"/>
				<path class="st2" d="M25.67,154.47l21.68,37.55l-21.68,37.55h-43.36l-21.68-37.55l21.68-37.55H25.67 M26.05,153.82h-44.11
					l-22.05,38.2l22.05,38.2h44.11l22.06-38.2L26.05,153.82L26.05,153.82z"/>
				<path class="st2" d="M402.99,16.85l21.68,37.55l-21.68,37.55h-43.36L337.95,54.4l21.68-37.55H402.99 M403.36,16.2h-44.11
					L337.2,54.4l22.06,38.2h44.11l22.05-38.2L403.36,16.2L403.36,16.2z"/>
				<path class="st2" d="M471.87,56.49l21.68,37.55l-21.68,37.55h-43.36l-21.68-37.55l21.68-37.55H471.87 M472.25,55.84h-44.11
					l-22.05,38.2l22.05,38.2h44.11l22.05-38.2L472.25,55.84L472.25,55.84z"/>
				<path class="st2" d="M471.87,135.8l21.68,37.55l-21.68,37.55h-43.36l-21.68-37.55l21.68-37.55H471.87 M472.25,135.15h-44.11
					l-22.05,38.2l22.05,38.2h44.11l22.05-38.2L472.25,135.15L472.25,135.15z"/>
				<path class="st2 hex-rotate delay" d="M94.56,194.43l21.68,37.55l-21.68,37.55H51.2l-21.68-37.55l21.68-37.55H94.56 M94.93,193.78H50.82
					l-22.06,38.2l22.06,38.2h44.11l22.05-38.2L94.93,193.78L94.93,193.78z"/>
				<path class="st2" d="M163.44,234.06l21.68,37.55l-21.68,37.55h-43.36L98.4,271.61l21.68-37.55H163.44 M163.81,233.41H119.7
					l-22.05,38.2l22.05,38.2h44.11l22.05-38.2L163.81,233.41L163.81,233.41z"/>
			</g>
		</g>
	</g>
</g>
</svg>
