<?xml version="1.0" encoding="utf-8"?>
<!-- Generator: Adobe Illustrator 24.0.3, SVG Export Plug-In . SVG Version: 6.00 Build 0)  -->
<svg version="1.1" id="Layer_1" xmlns="http://www.w3.org/2000/svg" xmlns:xlink="http://www.w3.org/1999/xlink" x="0px" y="0px"
	 viewBox="0 0 432 288" style="enable-background:new 0 0 432 288;" xml:space="preserve">
<style type="text/css">
	.st0{clip-path:url(#SVGID_2_);}
	.st1{display:none;clip-path:url(#SVGID_4_);}
	.st2{display:inline;fill:url(#SVGID_5_);}
	.st3{display:inline;fill:url(#SVGID_6_);}
	.st4{display:inline;fill:url(#SVGID_7_);}
	.st5{display:inline;fill:url(#SVGID_8_);}
	.st6{display:inline;fill:url(#SVGID_9_);}
	.st7{display:inline;fill:url(#SVGID_10_);}
	.st8{display:inline;fill:url(#SVGID_11_);}
	.st9{display:inline;fill:url(#SVGID_12_);}
	.st10{display:inline;fill:url(#SVGID_13_);}
	.st11{display:inline;fill:url(#SVGID_14_);}
	.st12{display:inline;fill:url(#SVGID_15_);}
	.st13{display:inline;fill:url(#SVGID_16_);}
	.st14{display:inline;fill:url(#SVGID_17_);}
	.st15{display:inline;fill:url(#SVGID_18_);}
	.st16{display:inline;fill:url(#SVGID_19_);}
	.st17{display:inline;fill:url(#SVGID_20_);}
	.st18{display:inline;fill:url(#SVGID_21_);}
	.st19{display:inline;fill:url(#SVGID_22_);}
	.st20{display:inline;fill:url(#SVGID_23_);}
	.st21{display:inline;fill:url(#SVGID_24_);}
	.st22{display:inline;fill:url(#SVGID_25_);}
	.st23{display:inline;fill:url(#SVGID_26_);}
	.st24{display:inline;fill:url(#SVGID_27_);}
	.st25{display:inline;fill:url(#SVGID_28_);}
	.st26{clip-path:url(#SVGID_4_);}
	.st27{display:none;fill:#FAFAFA;}
	.st28{fill:#FAFAFA;}
	.st29{clip-path:url(#SVGID_2_);fill:#FAFAFA;}
	
	.st28 {
		animation-duration: 3000ms;
		animation-iteration-count: infinite;
		animation-timing-function: linear;
		transform-origin: center;
		transform-box: fill-box;
		animation: rotate 3000ms linear infinite;
	}
	.st28.reverse {
		animation-name: rotate-reverse;
		animation-delay: 1000ms;
	}
	@keyframes rotate {
		20%, 100% {
			transform: rotate(360deg);
		}
		0% {
			transform: rotate(0deg);
		}
		100% {
			transform: rotate(360deg);
		}
	}
	@keyframes rotate-reverse {
		20%, 100% {
			transform: rotate(-360deg);
		}
		0% {
			transform: rotate(0deg);
		}
		100% {
			transform: rotate(-360deg);
		}
	}
</style>
<g>
	<defs>
		<rect id="SVGID_1_" x="-451.58" y="0.19" width="430.74" height="287.5"/>
	</defs>
	<clipPath id="SVGID_2_">
		<use xlink:href="#SVGID_1_"  style="overflow:visible;"/>
	</clipPath>
	<g class="st0">
		<g>
			<defs>
				<rect id="SVGID_3_" x="-452" width="432" height="288"/>
			</defs>
			<use xlink:href="#SVGID_3_"  style="display:none;overflow:visible;fill:#EDEDED;"/>
			<clipPath id="SVGID_4_">
				<use xlink:href="#SVGID_3_"  style="display:none;overflow:visible;"/>
			</clipPath>
			
			
		</g>
	</g>
	<path class="st29" d="M334.1,56.49l21.68,37.55l-21.68,37.55h-43.36l-21.68-37.55l21.68-37.55H334.1 M334.48,55.84h-44.11
		l-22.05,38.2l22.05,38.2h44.11l22.05-38.2L334.48,55.84L334.48,55.84z"/>
	<path class="st29" d="M402.99,96.17l21.68,37.55l-21.68,37.55h-43.36l-21.68-37.55l21.68-37.55H402.99 M403.36,95.52h-44.11
		l-22.06,38.2l22.06,38.2h44.11l22.05-38.2L403.36,95.52L403.36,95.52z"/>
</g>
<path class="st28 reverse" d="M334.1,56.49l21.68,37.55l-21.68,37.55h-43.36l-21.68-37.55l21.68-37.55H334.1 M334.48,55.84h-44.11
	l-22.05,38.2l22.05,38.2h44.11l22.05-38.2L334.48,55.84L334.48,55.84z"/>
<path class="st28" d="M402.99,96.17l21.68,37.55l-21.68,37.55h-43.36l-21.68-37.55l21.68-37.55H402.99 M403.36,95.52h-44.11
	l-22.06,38.2l22.06,38.2h44.11l22.05-38.2L403.36,95.52L403.36,95.52z"/>
</svg>
