<?xml version="1.0" encoding="utf-8"?>
<!-- Generator: Adobe Illustrator 24.0.3, SVG Export Plug-In . SVG Version: 6.00 Build 0)  -->
<svg version="1.1" id="Layer_1" xmlns="http://www.w3.org/2000/svg" xmlns:xlink="http://www.w3.org/1999/xlink" x="0px" y="0px"
	 viewBox="0 0 432 288" style="enable-background:new 0 0 432 288;" xml:space="preserve">
<style type="text/css">
	.st0{clip-path:url(#SVGID_2_);}
	.st1{display:none;clip-path:url(#SVGID_4_);}
	.st2{display:inline;fill:url(#SVGID_5_);}
	.st3{display:inline;fill:url(#SVGID_6_);}
	.st4{display:inline;fill:url(#SVGID_7_);}
	.st5{display:inline;fill:url(#SVGID_8_);}
	.st6{display:inline;fill:url(#SVGID_9_);}
	.st7{display:inline;fill:url(#SVGID_10_);}
	.st8{display:inline;fill:url(#SVGID_11_);}
	.st9{display:inline;fill:url(#SVGID_12_);}
	.st10{display:inline;fill:url(#SVGID_13_);}
	.st11{display:inline;fill:url(#SVGID_14_);}
	.st12{display:inline;fill:url(#SVGID_15_);}
	.st13{display:inline;fill:url(#SVGID_16_);}
	.st14{display:inline;fill:url(#SVGID_17_);}
	.st15{display:inline;fill:url(#SVGID_18_);}
	.st16{display:inline;fill:url(#SVGID_19_);}
	.st17{display:inline;fill:url(#SVGID_20_);}
	.st18{display:inline;fill:url(#SVGID_21_);}
	.st19{display:inline;fill:url(#SVGID_22_);}
	.st20{display:inline;fill:url(#SVGID_23_);}
	.st21{display:inline;fill:url(#SVGID_24_);}
	.st22{display:inline;fill:url(#SVGID_25_);}
	.st23{display:inline;fill:url(#SVGID_26_);}
	.st24{display:inline;fill:url(#SVGID_27_);}
	.st25{display:inline;fill:url(#SVGID_28_);}
	.st26{clip-path:url(#SVGID_4_);}
	.st27{display:none;fill:#FAFAFA;}
	.st28{fill:#FAFAFA;}
	.st29{clip-path:url(#SVGID_2_);fill:#FAFAFA;}
</style>
<g>
	<defs>
		<rect id="SVGID_1_" x="0.42" y="0.19" width="430.74" height="287.5"/>
	</defs>
	<clipPath id="SVGID_2_">
		<use xlink:href="#SVGID_1_"  style="overflow:visible;"/>
	</clipPath>
	<g class="st0">
		<g>
			<defs>
				<rect id="SVGID_3_" width="432" height="288"/>
			</defs>
			<use xlink:href="#SVGID_3_"  style="display:none;overflow:visible;fill:#EDEDED;"/>
			<clipPath id="SVGID_4_">
				<use xlink:href="#SVGID_3_"  style="display:none;overflow:visible;"/>
			</clipPath>
			<g class="st1">
				
					<linearGradient id="SVGID_5_" gradientUnits="userSpaceOnUse" x1="291.8781" y1="-1951.8945" x2="394.1741" y2="-2054.1904" gradientTransform="matrix(-1 0 0 -1 572.9154 -1598.0608)">
					<stop  offset="0" style="stop-color:#000000"/>
					<stop  offset="0.6007" style="stop-color:#252525"/>
					<stop  offset="1" style="stop-color:#404040"/>
				</linearGradient>
				<polygon class="st2" points="197.78,461.93 265.63,461.93 299.56,403.17 265.63,344.4 197.78,344.4 163.85,403.17 				"/>
				
					<linearGradient id="SVGID_6_" gradientUnits="userSpaceOnUse" x1="294.8647" y1="-1954.8811" x2="387.5585" y2="-2047.575" gradientTransform="matrix(-1 0 0 -1 572.9154 -1598.0608)">
					<stop  offset="0" style="stop-color:#000000"/>
					<stop  offset="0.6007" style="stop-color:#252525"/>
					<stop  offset="1" style="stop-color:#404040"/>
				</linearGradient>
				<polygon class="st3" points="197.78,461.93 265.63,461.93 299.56,403.17 265.63,344.4 197.78,344.4 163.85,403.17 				"/>
				
					<linearGradient id="SVGID_7_" gradientUnits="userSpaceOnUse" x1="397.8451" y1="-2012.8676" x2="500.1412" y2="-2115.1636" gradientTransform="matrix(-1 0 0 -1 572.9154 -1598.0608)">
					<stop  offset="0" style="stop-color:#000000"/>
					<stop  offset="0.6007" style="stop-color:#252525"/>
					<stop  offset="1" style="stop-color:#404040"/>
				</linearGradient>
				<polygon class="st4" points="91.81,522.91 159.67,522.91 193.59,464.14 159.67,405.37 91.81,405.37 57.88,464.14 				"/>
				
					<linearGradient id="SVGID_8_" gradientUnits="userSpaceOnUse" x1="400.8317" y1="-2015.8542" x2="493.5256" y2="-2108.5481" gradientTransform="matrix(-1 0 0 -1 572.9154 -1598.0608)">
					<stop  offset="0" style="stop-color:#000000"/>
					<stop  offset="0.6007" style="stop-color:#252525"/>
					<stop  offset="1" style="stop-color:#404040"/>
				</linearGradient>
				<polygon class="st5" points="91.81,522.91 159.67,522.91 193.59,464.14 159.67,405.37 91.81,405.37 57.88,464.14 				"/>
				
					<linearGradient id="SVGID_9_" gradientUnits="userSpaceOnUse" x1="503.8122" y1="-1951.8945" x2="606.1082" y2="-2054.1904" gradientTransform="matrix(-1 0 0 -1 572.9154 -1598.0608)">
					<stop  offset="0" style="stop-color:#000000"/>
					<stop  offset="0.6007" style="stop-color:#252525"/>
					<stop  offset="1" style="stop-color:#404040"/>
				</linearGradient>
				<polygon class="st6" points="-14.16,461.93 53.7,461.93 87.63,403.17 53.7,344.4 -14.16,344.4 -48.09,403.17 				"/>
				
					<linearGradient id="SVGID_10_" gradientUnits="userSpaceOnUse" x1="506.7988" y1="-1954.8811" x2="599.4926" y2="-2047.575" gradientTransform="matrix(-1 0 0 -1 572.9154 -1598.0608)">
					<stop  offset="0" style="stop-color:#000000"/>
					<stop  offset="0.6007" style="stop-color:#252525"/>
					<stop  offset="1" style="stop-color:#404040"/>
				</linearGradient>
				<polygon class="st7" points="-14.16,461.93 53.7,461.93 87.63,403.17 53.7,344.4 -14.16,344.4 -48.09,403.17 				"/>
				
					<linearGradient id="SVGID_11_" gradientUnits="userSpaceOnUse" x1="79.9441" y1="-1707.4415" x2="182.2401" y2="-1809.7375" gradientTransform="matrix(-1 0 0 -1 572.9154 -1598.0608)">
					<stop  offset="0" style="stop-color:#404040"/>
					<stop  offset="0.3993" style="stop-color:#252525"/>
					<stop  offset="1" style="stop-color:#000000"/>
				</linearGradient>
				<polygon class="st8" points="409.71,217.48 477.57,217.48 511.49,158.71 477.57,99.95 409.71,99.95 375.78,158.71 				"/>
				
					<linearGradient id="SVGID_12_" gradientUnits="userSpaceOnUse" x1="82.9307" y1="-1710.4281" x2="175.6245" y2="-1803.1219" gradientTransform="matrix(-1 0 0 -1 572.9154 -1598.0608)">
					<stop  offset="0" style="stop-color:#404040"/>
					<stop  offset="0.3993" style="stop-color:#252525"/>
					<stop  offset="1" style="stop-color:#000000"/>
				</linearGradient>
				<polygon class="st9" points="409.71,217.48 477.57,217.48 511.49,158.71 477.57,99.95 409.71,99.95 375.78,158.71 				"/>
				
					<linearGradient id="SVGID_13_" gradientUnits="userSpaceOnUse" x1="291.8781" y1="-1829.4578" x2="394.1741" y2="-1931.7538" gradientTransform="matrix(-1 0 0 -1 572.9154 -1598.0608)">
					<stop  offset="0" style="stop-color:#000000"/>
					<stop  offset="0.6007" style="stop-color:#252525"/>
					<stop  offset="1" style="stop-color:#404040"/>
				</linearGradient>
				<polygon class="st10" points="197.78,339.5 265.63,339.5 299.56,280.73 265.63,221.96 197.78,221.96 163.85,280.73 				"/>
				
					<linearGradient id="SVGID_14_" gradientUnits="userSpaceOnUse" x1="294.8647" y1="-1832.4443" x2="387.5586" y2="-1925.1383" gradientTransform="matrix(-1 0 0 -1 572.9154 -1598.0608)">
					<stop  offset="0" style="stop-color:#000000"/>
					<stop  offset="0.6007" style="stop-color:#252525"/>
					<stop  offset="1" style="stop-color:#404040"/>
				</linearGradient>
				<polygon class="st11" points="197.78,339.5 265.63,339.5 299.56,280.73 265.63,221.96 197.78,221.96 163.85,280.73 				"/>
				
					<linearGradient id="SVGID_15_" gradientUnits="userSpaceOnUse" x1="397.8451" y1="-1890.4308" x2="500.1412" y2="-1992.7268" gradientTransform="matrix(-1 0 0 -1 572.9154 -1598.0608)">
					<stop  offset="0" style="stop-color:#000000"/>
					<stop  offset="0.6007" style="stop-color:#252525"/>
					<stop  offset="1" style="stop-color:#404040"/>
				</linearGradient>
				<polygon class="st12" points="91.81,400.47 159.67,400.47 193.59,341.7 159.67,282.94 91.81,282.94 57.88,341.7 				"/>
				
					<linearGradient id="SVGID_16_" gradientUnits="userSpaceOnUse" x1="400.8317" y1="-1893.4174" x2="493.5256" y2="-1986.1113" gradientTransform="matrix(-1 0 0 -1 572.9154 -1598.0608)">
					<stop  offset="0" style="stop-color:#000000"/>
					<stop  offset="0.6007" style="stop-color:#252525"/>
					<stop  offset="1" style="stop-color:#404040"/>
				</linearGradient>
				<polygon class="st13" points="91.81,400.47 159.67,400.47 193.59,341.7 159.67,282.94 91.81,282.94 57.88,341.7 				"/>
				
					<linearGradient id="SVGID_17_" gradientUnits="userSpaceOnUse" x1="397.8451" y1="-1768.4146" x2="500.1412" y2="-1870.7107" gradientTransform="matrix(-1 0 0 -1 572.9154 -1598.0608)">
					<stop  offset="0" style="stop-color:#000000"/>
					<stop  offset="0.6007" style="stop-color:#252525"/>
					<stop  offset="1" style="stop-color:#404040"/>
				</linearGradient>
				<polygon class="st14" points="91.81,278.45 159.67,278.45 193.59,219.69 159.67,160.92 91.81,160.92 57.88,219.69 				"/>
				
					<linearGradient id="SVGID_18_" gradientUnits="userSpaceOnUse" x1="400.8317" y1="-1771.4011" x2="493.5256" y2="-1864.0951" gradientTransform="matrix(-1 0 0 -1 572.9154 -1598.0608)">
					<stop  offset="0" style="stop-color:#000000"/>
					<stop  offset="0.6007" style="stop-color:#252525"/>
					<stop  offset="1" style="stop-color:#404040"/>
				</linearGradient>
				<polygon class="st15" points="91.81,278.45 159.67,278.45 193.59,219.69 159.67,160.92 91.81,160.92 57.88,219.69 				"/>
				
					<linearGradient id="SVGID_19_" gradientUnits="userSpaceOnUse" x1="503.8122" y1="-1829.4578" x2="606.1082" y2="-1931.7538" gradientTransform="matrix(-1 0 0 -1 572.9154 -1598.0608)">
					<stop  offset="0" style="stop-color:#000000"/>
					<stop  offset="0.6007" style="stop-color:#252525"/>
					<stop  offset="1" style="stop-color:#404040"/>
				</linearGradient>
				<polygon class="st16" points="-14.16,339.5 53.7,339.5 87.63,280.73 53.7,221.96 -14.16,221.96 -48.09,280.73 				"/>
				
					<linearGradient id="SVGID_20_" gradientUnits="userSpaceOnUse" x1="506.7987" y1="-1832.4443" x2="599.4927" y2="-1925.1383" gradientTransform="matrix(-1 0 0 -1 572.9154 -1598.0608)">
					<stop  offset="0" style="stop-color:#000000"/>
					<stop  offset="0.6007" style="stop-color:#252525"/>
					<stop  offset="1" style="stop-color:#404040"/>
				</linearGradient>
				<polygon class="st17" points="-14.16,339.5 53.7,339.5 87.63,280.73 53.7,221.96 -14.16,221.96 -48.09,280.73 				"/>
				
					<linearGradient id="SVGID_21_" gradientUnits="userSpaceOnUse" x1="503.8122" y1="-1707.4415" x2="606.1082" y2="-1809.7375" gradientTransform="matrix(-1 0 0 -1 572.9154 -1598.0608)">
					<stop  offset="0" style="stop-color:#000000"/>
					<stop  offset="0.6007" style="stop-color:#252525"/>
					<stop  offset="1" style="stop-color:#404040"/>
				</linearGradient>
				<polygon class="st18" points="-14.16,217.48 53.7,217.48 87.63,158.71 53.7,99.95 -14.16,99.95 -48.09,158.71 				"/>
				
					<linearGradient id="SVGID_22_" gradientUnits="userSpaceOnUse" x1="506.7988" y1="-1710.4281" x2="599.4926" y2="-1803.1219" gradientTransform="matrix(-1 0 0 -1 572.9154 -1598.0608)">
					<stop  offset="0" style="stop-color:#000000"/>
					<stop  offset="0.6007" style="stop-color:#252525"/>
					<stop  offset="1" style="stop-color:#404040"/>
				</linearGradient>
				<polygon class="st19" points="-14.16,217.48 53.7,217.48 87.63,158.71 53.7,99.95 -14.16,99.95 -48.09,158.71 				"/>
				
					<linearGradient id="SVGID_23_" gradientUnits="userSpaceOnUse" x1="79.9441" y1="-1585.0048" x2="182.2401" y2="-1687.3008" gradientTransform="matrix(-1 0 0 -1 572.9154 -1598.0608)">
					<stop  offset="0" style="stop-color:#404040"/>
					<stop  offset="0.3993" style="stop-color:#252525"/>
					<stop  offset="1" style="stop-color:#000000"/>
				</linearGradient>
				<polygon class="st20" points="409.71,95.04 477.57,95.04 511.49,36.28 477.57,-22.49 409.71,-22.49 375.78,36.28 				"/>
				
					<linearGradient id="SVGID_24_" gradientUnits="userSpaceOnUse" x1="82.9307" y1="-1587.9913" x2="175.6245" y2="-1680.6852" gradientTransform="matrix(-1 0 0 -1 572.9154 -1598.0608)">
					<stop  offset="0" style="stop-color:#404040"/>
					<stop  offset="0.3993" style="stop-color:#252525"/>
					<stop  offset="1" style="stop-color:#000000"/>
				</linearGradient>
				<polygon class="st21" points="409.71,95.04 477.57,95.04 511.49,36.28 477.57,-22.49 409.71,-22.49 375.78,36.28 				"/>
				
					<linearGradient id="SVGID_25_" gradientUnits="userSpaceOnUse" x1="185.9111" y1="-1645.9778" x2="288.2071" y2="-1748.2738" gradientTransform="matrix(-1 0 0 -1 572.9154 -1598.0608)">
					<stop  offset="0" style="stop-color:#404040"/>
					<stop  offset="0.3993" style="stop-color:#252525"/>
					<stop  offset="1" style="stop-color:#000000"/>
				</linearGradient>
				<polygon class="st22" points="303.74,156.02 371.6,156.02 405.53,97.25 371.6,38.49 303.74,38.49 269.81,97.25 				"/>
				
					<linearGradient id="SVGID_26_" gradientUnits="userSpaceOnUse" x1="188.8977" y1="-1648.9645" x2="281.5915" y2="-1741.6583" gradientTransform="matrix(-1 0 0 -1 572.9154 -1598.0608)">
					<stop  offset="0" style="stop-color:#404040"/>
					<stop  offset="0.3993" style="stop-color:#252525"/>
					<stop  offset="1" style="stop-color:#000000"/>
				</linearGradient>
				<polygon class="st23" points="303.74,156.02 371.6,156.02 405.53,97.25 371.6,38.49 303.74,38.49 269.81,97.25 				"/>
				
					<linearGradient id="SVGID_27_" gradientUnits="userSpaceOnUse" x1="291.8781" y1="-1585.0048" x2="394.1741" y2="-1687.3008" gradientTransform="matrix(-1 0 0 -1 572.9154 -1598.0608)">
					<stop  offset="0" style="stop-color:#404040"/>
					<stop  offset="0.3993" style="stop-color:#252525"/>
					<stop  offset="1" style="stop-color:#000000"/>
				</linearGradient>
				<polygon class="st24" points="197.78,95.04 265.63,95.04 299.56,36.28 265.63,-22.49 197.78,-22.49 163.85,36.28 				"/>
				
					<linearGradient id="SVGID_28_" gradientUnits="userSpaceOnUse" x1="294.8647" y1="-1587.9913" x2="387.5585" y2="-1680.6852" gradientTransform="matrix(-1 0 0 -1 572.9154 -1598.0608)">
					<stop  offset="0" style="stop-color:#404040"/>
					<stop  offset="0.3993" style="stop-color:#252525"/>
					<stop  offset="1" style="stop-color:#000000"/>
				</linearGradient>
				<polygon class="st25" points="197.78,95.04 265.63,95.04 299.56,36.28 265.63,-22.49 197.78,-22.49 163.85,36.28 				"/>
			</g>
			<g class="st26">
				<path class="st27" d="M334.1-23.1l21.68,37.55L334.1,52h-43.36l-21.68-37.55l21.68-37.55H334.1 M334.48-23.75h-44.11
					l-22.05,38.2l22.05,38.2h44.11l22.05-38.2L334.48-23.75L334.48-23.75z"/>
				<path class="st28" d="M334.1-23.1l21.68,37.55L334.1,52h-43.36l-21.68-37.55l21.68-37.55H334.1 M334.48-23.75h-44.11
					l-22.05,38.2l22.05,38.2h44.11l22.05-38.2L334.48-23.75L334.48-23.75z"/>
				<path class="st28" d="M402.99-62.74l21.68,37.55l-21.68,37.55h-43.36l-21.68-37.55l21.68-37.55H402.99 M403.36-63.38h-44.11
					l-22.06,38.2l22.06,38.2h44.11l22.05-38.2L403.36-63.38L403.36-63.38z"/>
				<path class="st28" d="M402.99-62.74l21.68,37.55l-21.68,37.55h-43.36l-21.68-37.55l21.68-37.55H402.99 M403.36-63.38h-44.11
					l-22.06,38.2l22.06,38.2h44.11l22.05-38.2L403.36-63.38L403.36-63.38z"/>
				<path class="st28" d="M471.87-23.1l21.68,37.55L471.87,52h-43.36l-21.68-37.55l21.68-37.55H471.87 M472.25-23.75h-44.11
					l-22.05,38.2l22.05,38.2h44.11l22.05-38.2L472.25-23.75L472.25-23.75z"/>
				<path class="st28" d="M471.87-23.1l21.68,37.55L471.87,52h-43.36l-21.68-37.55l21.68-37.55H471.87 M472.25-23.75h-44.11
					l-22.05,38.2l22.05,38.2h44.11l22.05-38.2L472.25-23.75L472.25-23.75z"/>
				<path class="st28" d="M25.67,154.47l21.68,37.55l-21.68,37.55h-43.36l-21.68-37.55l21.68-37.55H25.67 M26.05,153.82h-44.11
					l-22.05,38.2l22.05,38.2h44.11l22.06-38.2L26.05,153.82L26.05,153.82z"/>
				<path class="st28" d="M25.67,154.47l21.68,37.55l-21.68,37.55h-43.36l-21.68-37.55l21.68-37.55H25.67 M26.05,153.82h-44.11
					l-22.05,38.2l22.05,38.2h44.11l22.06-38.2L26.05,153.82L26.05,153.82z"/>
				<path class="st28" d="M402.99,16.85l21.68,37.55l-21.68,37.55h-43.36L337.95,54.4l21.68-37.55H402.99 M403.36,16.2h-44.11
					L337.2,54.4l22.06,38.2h44.11l22.05-38.2L403.36,16.2L403.36,16.2z"/>
				<path class="st28" d="M402.99,16.85l21.68,37.55l-21.68,37.55h-43.36L337.95,54.4l21.68-37.55H402.99 M403.36,16.2h-44.11
					L337.2,54.4l22.06,38.2h44.11l22.05-38.2L403.36,16.2L403.36,16.2z"/>
				<path class="st28" d="M471.87,56.49l21.68,37.55l-21.68,37.55h-43.36l-21.68-37.55l21.68-37.55H471.87 M472.25,55.84h-44.11
					l-22.05,38.2l22.05,38.2h44.11l22.05-38.2L472.25,55.84L472.25,55.84z"/>
				<path class="st28" d="M471.87,56.49l21.68,37.55l-21.68,37.55h-43.36l-21.68-37.55l21.68-37.55H471.87 M472.25,55.84h-44.11
					l-22.05,38.2l22.05,38.2h44.11l22.05-38.2L472.25,55.84L472.25,55.84z"/>
				<path class="st28" d="M471.87,135.8l21.68,37.55l-21.68,37.55h-43.36l-21.68-37.55l21.68-37.55H471.87 M472.25,135.15h-44.11
					l-22.05,38.2l22.05,38.2h44.11l22.05-38.2L472.25,135.15L472.25,135.15z"/>
				<path class="st28" d="M471.87,135.8l21.68,37.55l-21.68,37.55h-43.36l-21.68-37.55l21.68-37.55H471.87 M472.25,135.15h-44.11
					l-22.05,38.2l22.05,38.2h44.11l22.05-38.2L472.25,135.15L472.25,135.15z"/>
				<path class="st28" d="M25.67,234.06l21.68,37.55l-21.68,37.55h-43.36l-21.68-37.55l21.68-37.55H25.67 M26.05,233.41h-44.11
					l-22.05,38.2l22.05,38.2h44.11l22.06-38.2L26.05,233.41L26.05,233.41z"/>
				<path class="st28" d="M25.67,234.06l21.68,37.55l-21.68,37.55h-43.36l-21.68-37.55l21.68-37.55H25.67 M26.05,233.41h-44.11
					l-22.05,38.2l22.05,38.2h44.11l22.06-38.2L26.05,233.41L26.05,233.41z"/>
				<path class="st28" d="M94.56,194.43l21.68,37.55l-21.68,37.55H51.2l-21.68-37.55l21.68-37.55H94.56 M94.93,193.78H50.82
					l-22.06,38.2l22.06,38.2h44.11l22.05-38.2L94.93,193.78L94.93,193.78z"/>
				<path class="st28" d="M94.56,194.43l21.68,37.55l-21.68,37.55H51.2l-21.68-37.55l21.68-37.55H94.56 M94.93,193.78H50.82
					l-22.06,38.2l22.06,38.2h44.11l22.05-38.2L94.93,193.78L94.93,193.78z"/>
				<path class="st28" d="M163.44,234.06l21.68,37.55l-21.68,37.55h-43.36L98.4,271.61l21.68-37.55H163.44 M163.81,233.41H119.7
					l-22.05,38.2l22.05,38.2h44.11l22.05-38.2L163.81,233.41L163.81,233.41z"/>
				<path class="st28" d="M163.44,234.06l21.68,37.55l-21.68,37.55h-43.36L98.4,271.61l21.68-37.55H163.44 M163.81,233.41H119.7
					l-22.05,38.2l22.05,38.2h44.11l22.05-38.2L163.81,233.41L163.81,233.41z"/>
			</g>
		</g>
	</g>
	<path class="st29" d="M334.1,56.49l21.68,37.55l-21.68,37.55h-43.36l-21.68-37.55l21.68-37.55H334.1 M334.48,55.84h-44.11
		l-22.05,38.2l22.05,38.2h44.11l22.05-38.2L334.48,55.84L334.48,55.84z"/>
	<path class="st29" d="M402.99,96.17l21.68,37.55l-21.68,37.55h-43.36l-21.68-37.55l21.68-37.55H402.99 M403.36,95.52h-44.11
		l-22.06,38.2l22.06,38.2h44.11l22.05-38.2L403.36,95.52L403.36,95.52z"/>
</g>
</svg>
