<?xml version="1.0" encoding="utf-8"?>
<!-- Generator: Adobe Illustrator 24.0.3, SVG Export Plug-In . SVG Version: 6.00 Build 0)  -->
<svg version="1.1" id="Layer_1" xmlns="http://www.w3.org/2000/svg" xmlns:xlink="http://www.w3.org/1999/xlink" x="0px" y="0px"
	 viewBox="0 0 432 288" style="enable-background:new 0 0 432 288;" xml:space="preserve">
<style type="text/css">
	.st0{clip-path:url(#SVGID_2_);}
	.st1{display:none;fill:#FFFFFF;}
	.st2{fill:#FFFFFF;}
</style>
<g>
	<defs>
		<rect id="SVGID_1_" x="451.95" y="0.25" width="431.76" height="287.84"/>
	</defs>
	<clipPath id="SVGID_2_">
		<use xlink:href="#SVGID_1_"  style="overflow:visible;"/>
	</clipPath>
	<g class="st0">
		<g>
			<g>
				<path class="st2" d="M477.67,154.47l21.68,37.55l-21.68,37.55h-43.36l-21.68-37.55l21.68-37.55H477.67 M478.05,153.82h-44.11
					l-22.05,38.2l22.05,38.2h44.11l22.05-38.2L478.05,153.82L478.05,153.82z"/>
				<path class="st2" d="M477.67,154.47l21.68,37.55l-21.68,37.55h-43.36l-21.68-37.55l21.68-37.55H477.67 M478.05,153.82h-44.11
					l-22.05,38.2l22.05,38.2h44.11l22.05-38.2L478.05,153.82L478.05,153.82z"/>
				<path class="st2" d="M477.67,234.06l21.68,37.55l-21.68,37.55h-43.36l-21.68-37.55l21.68-37.55H477.67 M478.05,233.41h-44.11
					l-22.05,38.2l22.05,38.2h44.11l22.05-38.2L478.05,233.41L478.05,233.41z"/>
				<path class="st2" d="M477.67,234.06l21.68,37.55l-21.68,37.55h-43.36l-21.68-37.55l21.68-37.55H477.67 M478.05,233.41h-44.11
					l-22.05,38.2l22.05,38.2h44.11l22.05-38.2L478.05,233.41L478.05,233.41z"/>
			</g>
		</g>
	</g>
</g>
</svg>
