<?xml version="1.0" encoding="utf-8"?>
<!-- Generator: Adobe Illustrator 24.0.3, SVG Export Plug-In . SVG Version: 6.00 Build 0)  -->
<svg version="1.1" id="Layer_1" xmlns="http://www.w3.org/2000/svg" xmlns:xlink="http://www.w3.org/1999/xlink" x="0px" y="0px"
	 viewBox="0 0 432 288" style="enable-background:new 0 0 432 288;" xml:space="preserve">
<style type="text/css">
	.st0{display:none;clip-path:url(#SVGID_2_);}
	.st1{display:inline;fill:url(#SVGID_3_);}
	.st2{display:inline;fill:url(#SVGID_4_);}
	.st3{display:inline;fill:url(#SVGID_5_);}
	.st4{display:inline;fill:url(#SVGID_6_);}
	.st5{display:inline;fill:url(#SVGID_7_);}
	.st6{display:inline;fill:url(#SVGID_8_);}
	.st7{display:inline;fill:url(#SVGID_9_);}
	.st8{display:inline;fill:url(#SVGID_10_);}
	.st9{display:inline;fill:url(#SVGID_11_);}
	.st10{display:inline;fill:url(#SVGID_12_);}
	.st11{display:inline;fill:url(#SVGID_13_);}
	.st12{display:inline;fill:url(#SVGID_14_);}
	.st13{display:inline;fill:url(#SVGID_15_);}
	.st14{display:inline;fill:url(#SVGID_16_);}
	.st15{display:inline;fill:url(#SVGID_17_);}
	.st16{display:inline;fill:url(#SVGID_18_);}
	.st17{display:inline;fill:url(#SVGID_19_);}
	.st18{display:inline;fill:url(#SVGID_20_);}
	.st19{display:inline;fill:url(#SVGID_21_);}
	.st20{display:inline;fill:url(#SVGID_22_);}
	.st21{display:inline;fill:url(#SVGID_23_);}
	.st22{display:inline;fill:url(#SVGID_24_);}
	.st23{display:inline;fill:url(#SVGID_25_);}
	.st24{display:inline;fill:url(#SVGID_26_);}
	.st25{clip-path:url(#SVGID_2_);}
	.st26{fill:url(#SVGID_27_);}
	.st27{fill:url(#SVGID_28_);}
	.st28{fill:url(#SVGID_29_);}
	.st29{fill:url(#SVGID_30_);}
	.st30{fill:url(#SVGID_31_);}
	.st31{fill:url(#SVGID_32_);}
	.st32{fill:url(#SVGID_33_);}
	.st33{fill:url(#SVGID_34_);}
	.st34{fill:url(#SVGID_35_);}
	.st35{fill:url(#SVGID_36_);}
	.st36{fill:url(#SVGID_37_);}
	.st37{fill:url(#SVGID_38_);}
	.st38{fill:url(#SVGID_39_);}
	.st39{fill:url(#SVGID_40_);}
	.st40{fill:url(#SVGID_41_);}
	.st41{fill:url(#SVGID_42_);}
	.st42{fill:url(#SVGID_43_);}
	.st43{fill:url(#SVGID_44_);}
	.st44{fill:url(#SVGID_45_);}
	.st45{fill:url(#SVGID_46_);}
	.st46{fill:url(#SVGID_47_);}
	.st47{fill:url(#SVGID_48_);}
	.st48{fill:url(#SVGID_49_);}
	.st49{fill:url(#SVGID_50_);}
	.st50{fill:url(#SVGID_51_);}
	.st51{fill:url(#SVGID_52_);}
	.st52{fill:url(#SVGID_53_);}
	.st53{fill:url(#SVGID_54_);}
	.st54{fill:url(#SVGID_55_);}
	.st55{fill:url(#SVGID_56_);}
	.st56{fill:url(#SVGID_57_);}
	.st57{fill:url(#SVGID_58_);}
	.st58{fill:url(#SVGID_59_);}
	.st59{fill:url(#SVGID_60_);}
	.st60{fill:url(#SVGID_61_);}
	.st61{fill:url(#SVGID_62_);}
	.st62{fill:url(#SVGID_63_);}
	.st63{fill:url(#SVGID_64_);}
	.st64{fill:url(#SVGID_65_);}
	.st65{fill:url(#SVGID_66_);}
	.st66{fill:url(#SVGID_67_);}
	.st67{fill:url(#SVGID_68_);}
	.st68{fill:url(#SVGID_69_);}
	.st69{fill:url(#SVGID_70_);}
	.st70{fill:url(#SVGID_71_);}
	.st71{fill:url(#SVGID_72_);}
	.st72{fill:url(#SVGID_73_);}
	.st73{fill:url(#SVGID_74_);}
	.st74{display:none;fill:#FAFAFA;}
	.st75{fill:#FAFAFA;}
</style>
<g>
	<g>
		<defs>
			<rect id="SVGID_1_" width="432" height="288"/>
		</defs>
		<use xlink:href="#SVGID_1_"  style="overflow:visible;fill:#EDEDED;"/>
		<clipPath id="SVGID_2_">
			<use xlink:href="#SVGID_1_"  style="overflow:visible;"/>
		</clipPath>
		<g class="st0">
			<linearGradient id="SVGID_3_" gradientUnits="userSpaceOnUse" x1="214.9296" y1="57.367" x2="282.8888" y2="-10.5922">
				<stop  offset="0" style="stop-color:#FBFBFB"/>
				<stop  offset="0.2188" style="stop-color:#F5F5F5"/>
				<stop  offset="0.5174" style="stop-color:#E4E3E4"/>
				<stop  offset="0.8603" style="stop-color:#C8C7C8"/>
				<stop  offset="1" style="stop-color:#BAB9BA"/>
			</linearGradient>
			<polygon class="st1" points="270.24,-14.45 225.16,-14.45 202.62,24.59 225.16,63.63 270.24,63.63 292.78,24.59 			"/>
			<linearGradient id="SVGID_4_" gradientUnits="userSpaceOnUse" x1="216.9138" y1="55.3829" x2="278.4938" y2="-6.1972">
				<stop  offset="0" style="stop-color:#FBFBFB"/>
				<stop  offset="0.2188" style="stop-color:#F5F5F5"/>
				<stop  offset="0.5174" style="stop-color:#E4E3E4"/>
				<stop  offset="0.8603" style="stop-color:#C8C7C8"/>
				<stop  offset="1" style="stop-color:#BAB9BA"/>
			</linearGradient>
			<polygon class="st2" points="270.24,-14.45 225.16,-14.45 202.62,24.59 225.16,63.63 270.24,63.63 292.78,24.59 			"/>
			<linearGradient id="SVGID_5_" gradientUnits="userSpaceOnUse" x1="285.3275" y1="16.8603" x2="353.2867" y2="-51.0989">
				<stop  offset="0" style="stop-color:#FBFBFB"/>
				<stop  offset="0.2188" style="stop-color:#F5F5F5"/>
				<stop  offset="0.5174" style="stop-color:#E4E3E4"/>
				<stop  offset="0.8603" style="stop-color:#C8C7C8"/>
				<stop  offset="1" style="stop-color:#BAB9BA"/>
			</linearGradient>
			<polygon class="st3" points="340.64,-54.95 295.56,-54.95 273.02,-15.91 295.56,23.13 340.64,23.13 363.18,-15.91 			"/>
			<linearGradient id="SVGID_6_" gradientUnits="userSpaceOnUse" x1="287.3116" y1="14.8762" x2="348.8918" y2="-46.7039">
				<stop  offset="0" style="stop-color:#FBFBFB"/>
				<stop  offset="0.2188" style="stop-color:#F5F5F5"/>
				<stop  offset="0.5174" style="stop-color:#E4E3E4"/>
				<stop  offset="0.8603" style="stop-color:#C8C7C8"/>
				<stop  offset="1" style="stop-color:#BAB9BA"/>
			</linearGradient>
			<polygon class="st4" points="340.64,-54.95 295.56,-54.95 273.02,-15.91 295.56,23.13 340.64,23.13 363.18,-15.91 			"/>
			<linearGradient id="SVGID_7_" gradientUnits="userSpaceOnUse" x1="355.7255" y1="57.3669" x2="423.6846" y2="-10.5922">
				<stop  offset="0" style="stop-color:#FBFBFB"/>
				<stop  offset="0.2188" style="stop-color:#F5F5F5"/>
				<stop  offset="0.5174" style="stop-color:#E4E3E4"/>
				<stop  offset="0.8603" style="stop-color:#C8C7C8"/>
				<stop  offset="1" style="stop-color:#BAB9BA"/>
			</linearGradient>
			<polygon class="st5" points="411.04,-14.45 365.96,-14.45 343.42,24.59 365.96,63.63 411.04,63.63 433.58,24.59 			"/>
			<linearGradient id="SVGID_8_" gradientUnits="userSpaceOnUse" x1="357.7096" y1="55.3828" x2="419.2897" y2="-6.1972">
				<stop  offset="0" style="stop-color:#FBFBFB"/>
				<stop  offset="0.2188" style="stop-color:#F5F5F5"/>
				<stop  offset="0.5174" style="stop-color:#E4E3E4"/>
				<stop  offset="0.8603" style="stop-color:#C8C7C8"/>
				<stop  offset="1" style="stop-color:#BAB9BA"/>
			</linearGradient>
			<polygon class="st6" points="411.04,-14.45 365.96,-14.45 343.42,24.59 365.96,63.63 411.04,63.63 433.58,24.59 			"/>
			<linearGradient id="SVGID_9_" gradientUnits="userSpaceOnUse" x1="74.1337" y1="219.7665" x2="142.0929" y2="151.8073">
				<stop  offset="0" style="stop-color:#BAB9BA"/>
				<stop  offset="0.1397" style="stop-color:#C8C7C8"/>
				<stop  offset="0.4826" style="stop-color:#E4E3E4"/>
				<stop  offset="0.7812" style="stop-color:#F5F5F5"/>
				<stop  offset="1" style="stop-color:#FBFBFB"/>
			</linearGradient>
			<polygon class="st7" points="129.45,147.95 84.37,147.95 61.83,186.99 84.37,226.03 129.45,226.03 151.99,186.99 			"/>
			<linearGradient id="SVGID_10_" gradientUnits="userSpaceOnUse" x1="76.1179" y1="217.7823" x2="137.698" y2="156.2023">
				<stop  offset="0" style="stop-color:#BAB9BA"/>
				<stop  offset="0.1397" style="stop-color:#C8C7C8"/>
				<stop  offset="0.4826" style="stop-color:#E4E3E4"/>
				<stop  offset="0.7812" style="stop-color:#F5F5F5"/>
				<stop  offset="1" style="stop-color:#FBFBFB"/>
			</linearGradient>
			<polygon class="st8" points="129.45,147.95 84.37,147.95 61.83,186.99 84.37,226.03 129.45,226.03 151.99,186.99 			"/>
			<linearGradient id="SVGID_11_" gradientUnits="userSpaceOnUse" x1="214.9296" y1="138.7064" x2="282.8888" y2="70.7472">
				<stop  offset="0" style="stop-color:#FBFBFB"/>
				<stop  offset="0.2188" style="stop-color:#F5F5F5"/>
				<stop  offset="0.5174" style="stop-color:#E4E3E4"/>
				<stop  offset="0.8603" style="stop-color:#C8C7C8"/>
				<stop  offset="1" style="stop-color:#BAB9BA"/>
			</linearGradient>
			<polygon class="st9" points="270.24,66.89 225.16,66.89 202.62,105.93 225.16,144.97 270.24,144.97 292.78,105.93 			"/>
			<linearGradient id="SVGID_12_" gradientUnits="userSpaceOnUse" x1="216.9138" y1="136.7222" x2="278.4938" y2="75.1422">
				<stop  offset="0" style="stop-color:#FBFBFB"/>
				<stop  offset="0.2188" style="stop-color:#F5F5F5"/>
				<stop  offset="0.5174" style="stop-color:#E4E3E4"/>
				<stop  offset="0.8603" style="stop-color:#C8C7C8"/>
				<stop  offset="1" style="stop-color:#BAB9BA"/>
			</linearGradient>
			<polygon class="st10" points="270.24,66.89 225.16,66.89 202.62,105.93 225.16,144.97 270.24,144.97 292.78,105.93 			"/>
			<linearGradient id="SVGID_13_" gradientUnits="userSpaceOnUse" x1="285.3275" y1="98.1997" x2="353.2867" y2="30.2405">
				<stop  offset="0" style="stop-color:#FBFBFB"/>
				<stop  offset="0.2188" style="stop-color:#F5F5F5"/>
				<stop  offset="0.5174" style="stop-color:#E4E3E4"/>
				<stop  offset="0.8603" style="stop-color:#C8C7C8"/>
				<stop  offset="1" style="stop-color:#BAB9BA"/>
			</linearGradient>
			<polygon class="st11" points="340.64,26.39 295.56,26.39 273.02,65.43 295.56,104.47 340.64,104.47 363.18,65.43 			"/>
			<linearGradient id="SVGID_14_" gradientUnits="userSpaceOnUse" x1="287.3116" y1="96.2156" x2="348.8918" y2="34.6354">
				<stop  offset="0" style="stop-color:#FBFBFB"/>
				<stop  offset="0.2188" style="stop-color:#F5F5F5"/>
				<stop  offset="0.5174" style="stop-color:#E4E3E4"/>
				<stop  offset="0.8603" style="stop-color:#C8C7C8"/>
				<stop  offset="1" style="stop-color:#BAB9BA"/>
			</linearGradient>
			<polygon class="st12" points="340.64,26.39 295.56,26.39 273.02,65.43 295.56,104.47 340.64,104.47 363.18,65.43 			"/>
			<linearGradient id="SVGID_15_" gradientUnits="userSpaceOnUse" x1="285.3275" y1="179.2597" x2="353.2867" y2="111.3005">
				<stop  offset="0" style="stop-color:#FBFBFB"/>
				<stop  offset="0.2188" style="stop-color:#F5F5F5"/>
				<stop  offset="0.5174" style="stop-color:#E4E3E4"/>
				<stop  offset="0.8603" style="stop-color:#C8C7C8"/>
				<stop  offset="1" style="stop-color:#BAB9BA"/>
			</linearGradient>
			<polygon class="st13" points="340.64,107.45 295.56,107.45 273.02,146.49 295.56,185.53 340.64,185.53 363.18,146.49 			"/>
			<linearGradient id="SVGID_16_" gradientUnits="userSpaceOnUse" x1="287.3116" y1="177.2756" x2="348.8918" y2="115.6955">
				<stop  offset="0" style="stop-color:#FBFBFB"/>
				<stop  offset="0.2188" style="stop-color:#F5F5F5"/>
				<stop  offset="0.5174" style="stop-color:#E4E3E4"/>
				<stop  offset="0.8603" style="stop-color:#C8C7C8"/>
				<stop  offset="1" style="stop-color:#BAB9BA"/>
			</linearGradient>
			<polygon class="st14" points="340.64,107.45 295.56,107.45 273.02,146.49 295.56,185.53 340.64,185.53 363.18,146.49 			"/>
			<linearGradient id="SVGID_17_" gradientUnits="userSpaceOnUse" x1="355.7255" y1="138.7063" x2="423.6846" y2="70.7472">
				<stop  offset="0" style="stop-color:#FBFBFB"/>
				<stop  offset="0.2188" style="stop-color:#F5F5F5"/>
				<stop  offset="0.5174" style="stop-color:#E4E3E4"/>
				<stop  offset="0.8603" style="stop-color:#C8C7C8"/>
				<stop  offset="1" style="stop-color:#BAB9BA"/>
			</linearGradient>
			<polygon class="st15" points="411.04,66.89 365.96,66.89 343.42,105.93 365.96,144.97 411.04,144.97 433.58,105.93 			"/>
			<linearGradient id="SVGID_18_" gradientUnits="userSpaceOnUse" x1="357.7096" y1="136.7222" x2="419.2897" y2="75.1422">
				<stop  offset="0" style="stop-color:#FBFBFB"/>
				<stop  offset="0.2188" style="stop-color:#F5F5F5"/>
				<stop  offset="0.5174" style="stop-color:#E4E3E4"/>
				<stop  offset="0.8603" style="stop-color:#C8C7C8"/>
				<stop  offset="1" style="stop-color:#BAB9BA"/>
			</linearGradient>
			<polygon class="st16" points="411.04,66.89 365.96,66.89 343.42,105.93 365.96,144.97 411.04,144.97 433.58,105.93 			"/>
			<linearGradient id="SVGID_19_" gradientUnits="userSpaceOnUse" x1="355.7255" y1="219.7664" x2="423.6846" y2="151.8073">
				<stop  offset="0" style="stop-color:#FBFBFB"/>
				<stop  offset="0.2188" style="stop-color:#F5F5F5"/>
				<stop  offset="0.5174" style="stop-color:#E4E3E4"/>
				<stop  offset="0.8603" style="stop-color:#C8C7C8"/>
				<stop  offset="1" style="stop-color:#BAB9BA"/>
			</linearGradient>
			<polygon class="st17" points="411.04,147.95 365.96,147.95 343.42,186.99 365.96,226.03 411.04,226.03 433.58,186.99 			"/>
			<linearGradient id="SVGID_20_" gradientUnits="userSpaceOnUse" x1="357.7096" y1="217.7823" x2="419.2897" y2="156.2023">
				<stop  offset="0" style="stop-color:#FBFBFB"/>
				<stop  offset="0.2188" style="stop-color:#F5F5F5"/>
				<stop  offset="0.5174" style="stop-color:#E4E3E4"/>
				<stop  offset="0.8603" style="stop-color:#C8C7C8"/>
				<stop  offset="1" style="stop-color:#BAB9BA"/>
			</linearGradient>
			<polygon class="st18" points="411.04,147.95 365.96,147.95 343.42,186.99 365.96,226.03 411.04,226.03 433.58,186.99 			"/>
			<linearGradient id="SVGID_21_" gradientUnits="userSpaceOnUse" x1="74.1337" y1="301.1059" x2="142.0929" y2="233.1467">
				<stop  offset="0" style="stop-color:#BAB9BA"/>
				<stop  offset="0.1397" style="stop-color:#C8C7C8"/>
				<stop  offset="0.4826" style="stop-color:#E4E3E4"/>
				<stop  offset="0.7812" style="stop-color:#F5F5F5"/>
				<stop  offset="1" style="stop-color:#FBFBFB"/>
			</linearGradient>
			<polygon class="st19" points="129.45,229.29 84.37,229.29 61.83,268.33 84.37,307.37 129.45,307.37 151.99,268.33 			"/>
			<linearGradient id="SVGID_22_" gradientUnits="userSpaceOnUse" x1="76.1179" y1="299.1218" x2="137.698" y2="237.5417">
				<stop  offset="0" style="stop-color:#BAB9BA"/>
				<stop  offset="0.1397" style="stop-color:#C8C7C8"/>
				<stop  offset="0.4826" style="stop-color:#E4E3E4"/>
				<stop  offset="0.7812" style="stop-color:#F5F5F5"/>
				<stop  offset="1" style="stop-color:#FBFBFB"/>
			</linearGradient>
			<polygon class="st20" points="129.45,229.29 84.37,229.29 61.83,268.33 84.37,307.37 129.45,307.37 151.99,268.33 			"/>
			<linearGradient id="SVGID_23_" gradientUnits="userSpaceOnUse" x1="144.5317" y1="260.5991" x2="212.4908" y2="192.64">
				<stop  offset="0" style="stop-color:#BAB9BA"/>
				<stop  offset="0.1397" style="stop-color:#C8C7C8"/>
				<stop  offset="0.4826" style="stop-color:#E4E3E4"/>
				<stop  offset="0.7812" style="stop-color:#F5F5F5"/>
				<stop  offset="1" style="stop-color:#FBFBFB"/>
			</linearGradient>
			<polygon class="st21" points="199.85,188.78 154.77,188.78 132.23,227.82 154.77,266.87 199.85,266.87 222.39,227.82 			"/>
			<linearGradient id="SVGID_24_" gradientUnits="userSpaceOnUse" x1="146.5158" y1="258.615" x2="208.0959" y2="197.035">
				<stop  offset="0" style="stop-color:#BAB9BA"/>
				<stop  offset="0.1397" style="stop-color:#C8C7C8"/>
				<stop  offset="0.4826" style="stop-color:#E4E3E4"/>
				<stop  offset="0.7812" style="stop-color:#F5F5F5"/>
				<stop  offset="1" style="stop-color:#FBFBFB"/>
			</linearGradient>
			<polygon class="st22" points="199.85,188.78 154.77,188.78 132.23,227.82 154.77,266.87 199.85,266.87 222.39,227.82 			"/>
			<linearGradient id="SVGID_25_" gradientUnits="userSpaceOnUse" x1="214.9296" y1="301.1059" x2="282.8888" y2="233.1467">
				<stop  offset="0" style="stop-color:#BAB9BA"/>
				<stop  offset="0.1397" style="stop-color:#C8C7C8"/>
				<stop  offset="0.4826" style="stop-color:#E4E3E4"/>
				<stop  offset="0.7812" style="stop-color:#F5F5F5"/>
				<stop  offset="1" style="stop-color:#FBFBFB"/>
			</linearGradient>
			<polygon class="st23" points="270.24,229.29 225.16,229.29 202.62,268.33 225.16,307.37 270.24,307.37 292.78,268.33 			"/>
			<linearGradient id="SVGID_26_" gradientUnits="userSpaceOnUse" x1="216.9138" y1="299.1218" x2="278.4938" y2="237.5417">
				<stop  offset="0" style="stop-color:#BAB9BA"/>
				<stop  offset="0.1397" style="stop-color:#C8C7C8"/>
				<stop  offset="0.4826" style="stop-color:#E4E3E4"/>
				<stop  offset="0.7812" style="stop-color:#F5F5F5"/>
				<stop  offset="1" style="stop-color:#FBFBFB"/>
			</linearGradient>
			<polygon class="st24" points="270.24,229.29 225.16,229.29 202.62,268.33 225.16,307.37 270.24,307.37 292.78,268.33 			"/>
		</g>
		<g class="st25">
			
				<linearGradient id="SVGID_27_" gradientUnits="userSpaceOnUse" x1="291.8781" y1="-1951.8945" x2="394.1741" y2="-2054.1904" gradientTransform="matrix(-1 0 0 -1 572.9154 -1598.0608)">
				<stop  offset="0" style="stop-color:#000000"/>
				<stop  offset="0.6007" style="stop-color:#252525"/>
				<stop  offset="1" style="stop-color:#404040"/>
			</linearGradient>
			<polygon class="st26" points="197.78,461.93 265.63,461.93 299.56,403.17 265.63,344.4 197.78,344.4 163.85,403.17 			"/>
			
				<linearGradient id="SVGID_28_" gradientUnits="userSpaceOnUse" x1="294.8647" y1="-1954.8811" x2="387.5585" y2="-2047.575" gradientTransform="matrix(-1 0 0 -1 572.9154 -1598.0608)">
				<stop  offset="0" style="stop-color:#000000"/>
				<stop  offset="0.6007" style="stop-color:#252525"/>
				<stop  offset="1" style="stop-color:#404040"/>
			</linearGradient>
			<polygon class="st27" points="197.78,461.93 265.63,461.93 299.56,403.17 265.63,344.4 197.78,344.4 163.85,403.17 			"/>
			
				<linearGradient id="SVGID_29_" gradientUnits="userSpaceOnUse" x1="397.8451" y1="-2012.8676" x2="500.1412" y2="-2115.1636" gradientTransform="matrix(-1 0 0 -1 572.9154 -1598.0608)">
				<stop  offset="0" style="stop-color:#000000"/>
				<stop  offset="0.6007" style="stop-color:#252525"/>
				<stop  offset="1" style="stop-color:#404040"/>
			</linearGradient>
			<polygon class="st28" points="91.81,522.91 159.67,522.91 193.59,464.14 159.67,405.37 91.81,405.37 57.88,464.14 			"/>
			
				<linearGradient id="SVGID_30_" gradientUnits="userSpaceOnUse" x1="400.8317" y1="-2015.8542" x2="493.5256" y2="-2108.5481" gradientTransform="matrix(-1 0 0 -1 572.9154 -1598.0608)">
				<stop  offset="0" style="stop-color:#000000"/>
				<stop  offset="0.6007" style="stop-color:#252525"/>
				<stop  offset="1" style="stop-color:#404040"/>
			</linearGradient>
			<polygon class="st29" points="91.81,522.91 159.67,522.91 193.59,464.14 159.67,405.37 91.81,405.37 57.88,464.14 			"/>
			
				<linearGradient id="SVGID_31_" gradientUnits="userSpaceOnUse" x1="503.8122" y1="-1951.8945" x2="606.1082" y2="-2054.1904" gradientTransform="matrix(-1 0 0 -1 572.9154 -1598.0608)">
				<stop  offset="0" style="stop-color:#000000"/>
				<stop  offset="0.6007" style="stop-color:#252525"/>
				<stop  offset="1" style="stop-color:#404040"/>
			</linearGradient>
			<polygon class="st30" points="-14.16,461.93 53.7,461.93 87.63,403.17 53.7,344.4 -14.16,344.4 -48.09,403.17 			"/>
			
				<linearGradient id="SVGID_32_" gradientUnits="userSpaceOnUse" x1="506.7988" y1="-1954.8811" x2="599.4926" y2="-2047.575" gradientTransform="matrix(-1 0 0 -1 572.9154 -1598.0608)">
				<stop  offset="0" style="stop-color:#000000"/>
				<stop  offset="0.6007" style="stop-color:#252525"/>
				<stop  offset="1" style="stop-color:#404040"/>
			</linearGradient>
			<polygon class="st31" points="-14.16,461.93 53.7,461.93 87.63,403.17 53.7,344.4 -14.16,344.4 -48.09,403.17 			"/>
			
				<linearGradient id="SVGID_33_" gradientUnits="userSpaceOnUse" x1="79.9441" y1="-1707.4415" x2="182.2401" y2="-1809.7375" gradientTransform="matrix(-1 0 0 -1 572.9154 -1598.0608)">
				<stop  offset="0" style="stop-color:#404040"/>
				<stop  offset="0.3993" style="stop-color:#252525"/>
				<stop  offset="1" style="stop-color:#000000"/>
			</linearGradient>
			<polygon class="st32" points="409.71,217.48 477.57,217.48 511.49,158.71 477.57,99.95 409.71,99.95 375.78,158.71 			"/>
			
				<linearGradient id="SVGID_34_" gradientUnits="userSpaceOnUse" x1="82.9307" y1="-1710.4281" x2="175.6245" y2="-1803.1219" gradientTransform="matrix(-1 0 0 -1 572.9154 -1598.0608)">
				<stop  offset="0" style="stop-color:#404040"/>
				<stop  offset="0.3993" style="stop-color:#252525"/>
				<stop  offset="1" style="stop-color:#000000"/>
			</linearGradient>
			<polygon class="st33" points="409.71,217.48 477.57,217.48 511.49,158.71 477.57,99.95 409.71,99.95 375.78,158.71 			"/>
			
				<linearGradient id="SVGID_35_" gradientUnits="userSpaceOnUse" x1="291.8781" y1="-1829.4578" x2="394.1741" y2="-1931.7538" gradientTransform="matrix(-1 0 0 -1 572.9154 -1598.0608)">
				<stop  offset="0" style="stop-color:#000000"/>
				<stop  offset="0.6007" style="stop-color:#252525"/>
				<stop  offset="1" style="stop-color:#404040"/>
			</linearGradient>
			<polygon class="st34" points="197.78,339.5 265.63,339.5 299.56,280.73 265.63,221.96 197.78,221.96 163.85,280.73 			"/>
			
				<linearGradient id="SVGID_36_" gradientUnits="userSpaceOnUse" x1="294.8647" y1="-1832.4443" x2="387.5586" y2="-1925.1383" gradientTransform="matrix(-1 0 0 -1 572.9154 -1598.0608)">
				<stop  offset="0" style="stop-color:#000000"/>
				<stop  offset="0.6007" style="stop-color:#252525"/>
				<stop  offset="1" style="stop-color:#404040"/>
			</linearGradient>
			<polygon class="st35" points="197.78,339.5 265.63,339.5 299.56,280.73 265.63,221.96 197.78,221.96 163.85,280.73 			"/>
			
				<linearGradient id="SVGID_37_" gradientUnits="userSpaceOnUse" x1="397.8451" y1="-1890.4308" x2="500.1412" y2="-1992.7268" gradientTransform="matrix(-1 0 0 -1 572.9154 -1598.0608)">
				<stop  offset="0" style="stop-color:#000000"/>
				<stop  offset="0.6007" style="stop-color:#252525"/>
				<stop  offset="1" style="stop-color:#404040"/>
			</linearGradient>
			<polygon class="st36" points="91.81,400.47 159.67,400.47 193.59,341.7 159.67,282.94 91.81,282.94 57.88,341.7 			"/>
			
				<linearGradient id="SVGID_38_" gradientUnits="userSpaceOnUse" x1="400.8317" y1="-1893.4174" x2="493.5256" y2="-1986.1113" gradientTransform="matrix(-1 0 0 -1 572.9154 -1598.0608)">
				<stop  offset="0" style="stop-color:#000000"/>
				<stop  offset="0.6007" style="stop-color:#252525"/>
				<stop  offset="1" style="stop-color:#404040"/>
			</linearGradient>
			<polygon class="st37" points="91.81,400.47 159.67,400.47 193.59,341.7 159.67,282.94 91.81,282.94 57.88,341.7 			"/>
			
				<linearGradient id="SVGID_39_" gradientUnits="userSpaceOnUse" x1="397.8451" y1="-1768.4146" x2="500.1412" y2="-1870.7107" gradientTransform="matrix(-1 0 0 -1 572.9154 -1598.0608)">
				<stop  offset="0" style="stop-color:#000000"/>
				<stop  offset="0.6007" style="stop-color:#252525"/>
				<stop  offset="1" style="stop-color:#404040"/>
			</linearGradient>
			<polygon class="st38" points="91.81,278.45 159.67,278.45 193.59,219.69 159.67,160.92 91.81,160.92 57.88,219.69 			"/>
			
				<linearGradient id="SVGID_40_" gradientUnits="userSpaceOnUse" x1="400.8317" y1="-1771.4011" x2="493.5256" y2="-1864.0951" gradientTransform="matrix(-1 0 0 -1 572.9154 -1598.0608)">
				<stop  offset="0" style="stop-color:#000000"/>
				<stop  offset="0.6007" style="stop-color:#252525"/>
				<stop  offset="1" style="stop-color:#404040"/>
			</linearGradient>
			<polygon class="st39" points="91.81,278.45 159.67,278.45 193.59,219.69 159.67,160.92 91.81,160.92 57.88,219.69 			"/>
			
				<linearGradient id="SVGID_41_" gradientUnits="userSpaceOnUse" x1="503.8122" y1="-1829.4578" x2="606.1082" y2="-1931.7538" gradientTransform="matrix(-1 0 0 -1 572.9154 -1598.0608)">
				<stop  offset="0" style="stop-color:#000000"/>
				<stop  offset="0.6007" style="stop-color:#252525"/>
				<stop  offset="1" style="stop-color:#404040"/>
			</linearGradient>
			<polygon class="st40" points="-14.16,339.5 53.7,339.5 87.63,280.73 53.7,221.96 -14.16,221.96 -48.09,280.73 			"/>
			
				<linearGradient id="SVGID_42_" gradientUnits="userSpaceOnUse" x1="506.7987" y1="-1832.4443" x2="599.4927" y2="-1925.1383" gradientTransform="matrix(-1 0 0 -1 572.9154 -1598.0608)">
				<stop  offset="0" style="stop-color:#000000"/>
				<stop  offset="0.6007" style="stop-color:#252525"/>
				<stop  offset="1" style="stop-color:#404040"/>
			</linearGradient>
			<polygon class="st41" points="-14.16,339.5 53.7,339.5 87.63,280.73 53.7,221.96 -14.16,221.96 -48.09,280.73 			"/>
			
				<linearGradient id="SVGID_43_" gradientUnits="userSpaceOnUse" x1="503.8122" y1="-1707.4415" x2="606.1082" y2="-1809.7375" gradientTransform="matrix(-1 0 0 -1 572.9154 -1598.0608)">
				<stop  offset="0" style="stop-color:#000000"/>
				<stop  offset="0.6007" style="stop-color:#252525"/>
				<stop  offset="1" style="stop-color:#404040"/>
			</linearGradient>
			<polygon class="st42" points="-14.16,217.48 53.7,217.48 87.63,158.71 53.7,99.95 -14.16,99.95 -48.09,158.71 			"/>
			
				<linearGradient id="SVGID_44_" gradientUnits="userSpaceOnUse" x1="506.7988" y1="-1710.4281" x2="599.4926" y2="-1803.1219" gradientTransform="matrix(-1 0 0 -1 572.9154 -1598.0608)">
				<stop  offset="0" style="stop-color:#000000"/>
				<stop  offset="0.6007" style="stop-color:#252525"/>
				<stop  offset="1" style="stop-color:#404040"/>
			</linearGradient>
			<polygon class="st43" points="-14.16,217.48 53.7,217.48 87.63,158.71 53.7,99.95 -14.16,99.95 -48.09,158.71 			"/>
			
				<linearGradient id="SVGID_45_" gradientUnits="userSpaceOnUse" x1="79.9441" y1="-1585.0048" x2="182.2401" y2="-1687.3008" gradientTransform="matrix(-1 0 0 -1 572.9154 -1598.0608)">
				<stop  offset="0" style="stop-color:#404040"/>
				<stop  offset="0.3993" style="stop-color:#252525"/>
				<stop  offset="1" style="stop-color:#000000"/>
			</linearGradient>
			<polygon class="st44" points="409.71,95.04 477.57,95.04 511.49,36.28 477.57,-22.49 409.71,-22.49 375.78,36.28 			"/>
			
				<linearGradient id="SVGID_46_" gradientUnits="userSpaceOnUse" x1="82.9307" y1="-1587.9913" x2="175.6245" y2="-1680.6852" gradientTransform="matrix(-1 0 0 -1 572.9154 -1598.0608)">
				<stop  offset="0" style="stop-color:#404040"/>
				<stop  offset="0.3993" style="stop-color:#252525"/>
				<stop  offset="1" style="stop-color:#000000"/>
			</linearGradient>
			<polygon class="st45" points="409.71,95.04 477.57,95.04 511.49,36.28 477.57,-22.49 409.71,-22.49 375.78,36.28 			"/>
			
				<linearGradient id="SVGID_47_" gradientUnits="userSpaceOnUse" x1="185.9111" y1="-1645.9778" x2="288.2071" y2="-1748.2738" gradientTransform="matrix(-1 0 0 -1 572.9154 -1598.0608)">
				<stop  offset="0" style="stop-color:#404040"/>
				<stop  offset="0.3993" style="stop-color:#252525"/>
				<stop  offset="1" style="stop-color:#000000"/>
			</linearGradient>
			<polygon class="st46" points="303.74,156.02 371.6,156.02 405.53,97.25 371.6,38.49 303.74,38.49 269.81,97.25 			"/>
			
				<linearGradient id="SVGID_48_" gradientUnits="userSpaceOnUse" x1="188.8977" y1="-1648.9645" x2="281.5915" y2="-1741.6583" gradientTransform="matrix(-1 0 0 -1 572.9154 -1598.0608)">
				<stop  offset="0" style="stop-color:#404040"/>
				<stop  offset="0.3993" style="stop-color:#252525"/>
				<stop  offset="1" style="stop-color:#000000"/>
			</linearGradient>
			<polygon class="st47" points="303.74,156.02 371.6,156.02 405.53,97.25 371.6,38.49 303.74,38.49 269.81,97.25 			"/>
			
				<linearGradient id="SVGID_49_" gradientUnits="userSpaceOnUse" x1="291.8781" y1="-1585.0048" x2="394.1741" y2="-1687.3008" gradientTransform="matrix(-1 0 0 -1 572.9154 -1598.0608)">
				<stop  offset="0" style="stop-color:#404040"/>
				<stop  offset="0.3993" style="stop-color:#252525"/>
				<stop  offset="1" style="stop-color:#000000"/>
			</linearGradient>
			<polygon class="st48" points="197.78,95.04 265.63,95.04 299.56,36.28 265.63,-22.49 197.78,-22.49 163.85,36.28 			"/>
			
				<linearGradient id="SVGID_50_" gradientUnits="userSpaceOnUse" x1="294.8647" y1="-1587.9913" x2="387.5585" y2="-1680.6852" gradientTransform="matrix(-1 0 0 -1 572.9154 -1598.0608)">
				<stop  offset="0" style="stop-color:#404040"/>
				<stop  offset="0.3993" style="stop-color:#252525"/>
				<stop  offset="1" style="stop-color:#000000"/>
			</linearGradient>
			<polygon class="st49" points="197.78,95.04 265.63,95.04 299.56,36.28 265.63,-22.49 197.78,-22.49 163.85,36.28 			"/>
		</g>
		<g class="st25">
			<linearGradient id="SVGID_51_" gradientUnits="userSpaceOnUse" x1="185.6886" y1="6.5526" x2="288.0157" y2="-95.7745">
				<stop  offset="0" style="stop-color:#FBFBFB"/>
				<stop  offset="0.2188" style="stop-color:#F5F5F5"/>
				<stop  offset="0.5174" style="stop-color:#E4E3E4"/>
				<stop  offset="0.8603" style="stop-color:#C8C7C8"/>
				<stop  offset="1" style="stop-color:#BAB9BA"/>
			</linearGradient>
			<polygon class="st50" points="268.98,-101.58 201.1,-101.58 167.16,-42.8 201.1,15.99 268.98,15.99 302.91,-42.8 			"/>
			<linearGradient id="SVGID_52_" gradientUnits="userSpaceOnUse" x1="188.6761" y1="3.5651" x2="281.3981" y2="-89.1569">
				<stop  offset="0" style="stop-color:#FBFBFB"/>
				<stop  offset="0.2188" style="stop-color:#F5F5F5"/>
				<stop  offset="0.5174" style="stop-color:#E4E3E4"/>
				<stop  offset="0.8603" style="stop-color:#C8C7C8"/>
				<stop  offset="1" style="stop-color:#BAB9BA"/>
			</linearGradient>
			<polygon class="st51" points="268.98,-101.58 201.1,-101.58 167.16,-42.8 201.1,15.99 268.98,15.99 302.91,-42.8 			"/>
			<linearGradient id="SVGID_53_" gradientUnits="userSpaceOnUse" x1="291.6878" y1="-54.439" x2="394.0149" y2="-156.7661">
				<stop  offset="0" style="stop-color:#FBFBFB"/>
				<stop  offset="0.2188" style="stop-color:#F5F5F5"/>
				<stop  offset="0.5174" style="stop-color:#E4E3E4"/>
				<stop  offset="0.8603" style="stop-color:#C8C7C8"/>
				<stop  offset="1" style="stop-color:#BAB9BA"/>
			</linearGradient>
			<polygon class="st52" points="374.97,-162.57 307.1,-162.57 273.16,-103.79 307.1,-45 374.97,-45 408.91,-103.79 			"/>
			<linearGradient id="SVGID_54_" gradientUnits="userSpaceOnUse" x1="294.6753" y1="-57.4265" x2="387.3973" y2="-150.1485">
				<stop  offset="0" style="stop-color:#FBFBFB"/>
				<stop  offset="0.2188" style="stop-color:#F5F5F5"/>
				<stop  offset="0.5174" style="stop-color:#E4E3E4"/>
				<stop  offset="0.8603" style="stop-color:#C8C7C8"/>
				<stop  offset="1" style="stop-color:#BAB9BA"/>
			</linearGradient>
			<polygon class="st53" points="374.97,-162.57 307.1,-162.57 273.16,-103.79 307.1,-45 374.97,-45 408.91,-103.79 			"/>
			<linearGradient id="SVGID_55_" gradientUnits="userSpaceOnUse" x1="397.687" y1="6.5526" x2="500.0141" y2="-95.7745">
				<stop  offset="0" style="stop-color:#FBFBFB"/>
				<stop  offset="0.2188" style="stop-color:#F5F5F5"/>
				<stop  offset="0.5174" style="stop-color:#E4E3E4"/>
				<stop  offset="0.8603" style="stop-color:#C8C7C8"/>
				<stop  offset="1" style="stop-color:#BAB9BA"/>
			</linearGradient>
			<polygon class="st54" points="480.97,-101.58 413.1,-101.58 379.16,-42.8 413.1,15.99 480.97,15.99 514.91,-42.8 			"/>
			<linearGradient id="SVGID_56_" gradientUnits="userSpaceOnUse" x1="400.6745" y1="3.5651" x2="493.3965" y2="-89.1569">
				<stop  offset="0" style="stop-color:#FBFBFB"/>
				<stop  offset="0.2188" style="stop-color:#F5F5F5"/>
				<stop  offset="0.5174" style="stop-color:#E4E3E4"/>
				<stop  offset="0.8603" style="stop-color:#C8C7C8"/>
				<stop  offset="1" style="stop-color:#BAB9BA"/>
			</linearGradient>
			<polygon class="st55" points="480.97,-101.58 413.1,-101.58 379.16,-42.8 413.1,15.99 480.97,15.99 514.91,-42.8 			"/>
			<linearGradient id="SVGID_57_" gradientUnits="userSpaceOnUse" x1="-26.3098" y1="251.0799" x2="76.0173" y2="148.7527">
				<stop  offset="0" style="stop-color:#FBFBFB"/>
				<stop  offset="0.2188" style="stop-color:#F5F5F5"/>
				<stop  offset="0.5174" style="stop-color:#E4E3E4"/>
				<stop  offset="0.8603" style="stop-color:#C8C7C8"/>
				<stop  offset="1" style="stop-color:#BAB9BA"/>
			</linearGradient>
			<polygon class="st56" points="56.98,142.95 -10.9,142.95 -44.84,201.73 -10.9,260.51 56.98,260.51 90.92,201.73 			"/>
			<linearGradient id="SVGID_58_" gradientUnits="userSpaceOnUse" x1="-23.3223" y1="248.0924" x2="69.3997" y2="155.3703">
				<stop  offset="0" style="stop-color:#FBFBFB"/>
				<stop  offset="0.2188" style="stop-color:#F5F5F5"/>
				<stop  offset="0.5174" style="stop-color:#E4E3E4"/>
				<stop  offset="0.8603" style="stop-color:#C8C7C8"/>
				<stop  offset="1" style="stop-color:#BAB9BA"/>
			</linearGradient>
			<polygon class="st57" points="56.98,142.95 -10.9,142.95 -44.84,201.73 -10.9,260.51 56.98,260.51 90.92,201.73 			"/>
			<linearGradient id="SVGID_59_" gradientUnits="userSpaceOnUse" x1="185.6886" y1="129.0265" x2="288.0157" y2="26.6994">
				<stop  offset="0" style="stop-color:#FBFBFB"/>
				<stop  offset="0.2188" style="stop-color:#F5F5F5"/>
				<stop  offset="0.5174" style="stop-color:#E4E3E4"/>
				<stop  offset="0.8603" style="stop-color:#C8C7C8"/>
				<stop  offset="1" style="stop-color:#BAB9BA"/>
			</linearGradient>
			<polygon class="st58" points="268.98,20.89 201.1,20.89 167.16,79.68 201.1,138.46 268.98,138.46 302.91,79.68 			"/>
			<linearGradient id="SVGID_60_" gradientUnits="userSpaceOnUse" x1="188.6761" y1="126.039" x2="281.3981" y2="33.317">
				<stop  offset="0" style="stop-color:#FBFBFB"/>
				<stop  offset="0.2188" style="stop-color:#F5F5F5"/>
				<stop  offset="0.5174" style="stop-color:#E4E3E4"/>
				<stop  offset="0.8603" style="stop-color:#C8C7C8"/>
				<stop  offset="1" style="stop-color:#BAB9BA"/>
			</linearGradient>
			<polygon class="st59" points="268.98,20.89 201.1,20.89 167.16,79.68 201.1,138.46 268.98,138.46 302.91,79.68 			"/>
			<linearGradient id="SVGID_61_" gradientUnits="userSpaceOnUse" x1="291.6878" y1="68.0349" x2="394.0149" y2="-34.2922">
				<stop  offset="0" style="stop-color:#FBFBFB"/>
				<stop  offset="0.2188" style="stop-color:#F5F5F5"/>
				<stop  offset="0.5174" style="stop-color:#E4E3E4"/>
				<stop  offset="0.8603" style="stop-color:#C8C7C8"/>
				<stop  offset="1" style="stop-color:#BAB9BA"/>
			</linearGradient>
			<polygon class="st60" points="374.97,-40.1 307.1,-40.1 273.16,18.69 307.1,77.47 374.97,77.47 408.91,18.69 			"/>
			<linearGradient id="SVGID_62_" gradientUnits="userSpaceOnUse" x1="294.6753" y1="65.0474" x2="387.3973" y2="-27.6746">
				<stop  offset="0" style="stop-color:#FBFBFB"/>
				<stop  offset="0.2188" style="stop-color:#F5F5F5"/>
				<stop  offset="0.5174" style="stop-color:#E4E3E4"/>
				<stop  offset="0.8603" style="stop-color:#C8C7C8"/>
				<stop  offset="1" style="stop-color:#BAB9BA"/>
			</linearGradient>
			<polygon class="st61" points="374.97,-40.1 307.1,-40.1 273.16,18.69 307.1,77.47 374.97,77.47 408.91,18.69 			"/>
			<linearGradient id="SVGID_63_" gradientUnits="userSpaceOnUse" x1="291.6878" y1="190.0883" x2="394.0149" y2="87.7612">
				<stop  offset="0" style="stop-color:#FBFBFB"/>
				<stop  offset="0.2188" style="stop-color:#F5F5F5"/>
				<stop  offset="0.5174" style="stop-color:#E4E3E4"/>
				<stop  offset="0.8603" style="stop-color:#C8C7C8"/>
				<stop  offset="1" style="stop-color:#BAB9BA"/>
			</linearGradient>
			<polygon class="st62" points="374.97,81.96 307.1,81.96 273.16,140.74 307.1,199.52 374.97,199.52 408.91,140.74 			"/>
			<linearGradient id="SVGID_64_" gradientUnits="userSpaceOnUse" x1="294.6753" y1="187.1008" x2="387.3973" y2="94.3787">
				<stop  offset="0" style="stop-color:#FBFBFB"/>
				<stop  offset="0.2188" style="stop-color:#F5F5F5"/>
				<stop  offset="0.5174" style="stop-color:#E4E3E4"/>
				<stop  offset="0.8603" style="stop-color:#C8C7C8"/>
				<stop  offset="1" style="stop-color:#BAB9BA"/>
			</linearGradient>
			<polygon class="st63" points="374.97,81.96 307.1,81.96 273.16,140.74 307.1,199.52 374.97,199.52 408.91,140.74 			"/>
			<linearGradient id="SVGID_65_" gradientUnits="userSpaceOnUse" x1="397.687" y1="129.0265" x2="500.0141" y2="26.6994">
				<stop  offset="0" style="stop-color:#FBFBFB"/>
				<stop  offset="0.2188" style="stop-color:#F5F5F5"/>
				<stop  offset="0.5174" style="stop-color:#E4E3E4"/>
				<stop  offset="0.8603" style="stop-color:#C8C7C8"/>
				<stop  offset="1" style="stop-color:#BAB9BA"/>
			</linearGradient>
			<polygon class="st64" points="480.97,20.89 413.1,20.89 379.16,79.68 413.1,138.46 480.97,138.46 514.91,79.68 			"/>
			<linearGradient id="SVGID_66_" gradientUnits="userSpaceOnUse" x1="400.6745" y1="126.039" x2="493.3965" y2="33.317">
				<stop  offset="0" style="stop-color:#FBFBFB"/>
				<stop  offset="0.2188" style="stop-color:#F5F5F5"/>
				<stop  offset="0.5174" style="stop-color:#E4E3E4"/>
				<stop  offset="0.8603" style="stop-color:#C8C7C8"/>
				<stop  offset="1" style="stop-color:#BAB9BA"/>
			</linearGradient>
			<polygon class="st65" points="480.97,20.89 413.1,20.89 379.16,79.68 413.1,138.46 480.97,138.46 514.91,79.68 			"/>
			<linearGradient id="SVGID_67_" gradientUnits="userSpaceOnUse" x1="397.687" y1="251.0799" x2="500.0141" y2="148.7527">
				<stop  offset="0" style="stop-color:#FBFBFB"/>
				<stop  offset="0.2188" style="stop-color:#F5F5F5"/>
				<stop  offset="0.5174" style="stop-color:#E4E3E4"/>
				<stop  offset="0.8603" style="stop-color:#C8C7C8"/>
				<stop  offset="1" style="stop-color:#BAB9BA"/>
			</linearGradient>
			<polygon class="st66" points="480.97,142.95 413.1,142.95 379.16,201.73 413.1,260.51 480.97,260.51 514.91,201.73 			"/>
			<linearGradient id="SVGID_68_" gradientUnits="userSpaceOnUse" x1="400.6745" y1="248.0924" x2="493.3965" y2="155.3703">
				<stop  offset="0" style="stop-color:#FBFBFB"/>
				<stop  offset="0.2188" style="stop-color:#F5F5F5"/>
				<stop  offset="0.5174" style="stop-color:#E4E3E4"/>
				<stop  offset="0.8603" style="stop-color:#C8C7C8"/>
				<stop  offset="1" style="stop-color:#BAB9BA"/>
			</linearGradient>
			<polygon class="st67" points="480.97,142.95 413.1,142.95 379.16,201.73 413.1,260.51 480.97,260.51 514.91,201.73 			"/>
			<linearGradient id="SVGID_69_" gradientUnits="userSpaceOnUse" x1="-26.3098" y1="373.5538" x2="76.0173" y2="271.2267">
				<stop  offset="0" style="stop-color:#FBFBFB"/>
				<stop  offset="0.2188" style="stop-color:#F5F5F5"/>
				<stop  offset="0.5174" style="stop-color:#E4E3E4"/>
				<stop  offset="0.8603" style="stop-color:#C8C7C8"/>
				<stop  offset="1" style="stop-color:#BAB9BA"/>
			</linearGradient>
			<polygon class="st68" points="56.98,265.42 -10.9,265.42 -44.84,324.21 -10.9,382.99 56.98,382.99 90.92,324.21 			"/>
			<linearGradient id="SVGID_70_" gradientUnits="userSpaceOnUse" x1="-23.3223" y1="370.5663" x2="69.3997" y2="277.8443">
				<stop  offset="0" style="stop-color:#FBFBFB"/>
				<stop  offset="0.2188" style="stop-color:#F5F5F5"/>
				<stop  offset="0.5174" style="stop-color:#E4E3E4"/>
				<stop  offset="0.8603" style="stop-color:#C8C7C8"/>
				<stop  offset="1" style="stop-color:#BAB9BA"/>
			</linearGradient>
			<polygon class="st69" points="56.98,265.42 -10.9,265.42 -44.84,324.21 -10.9,382.99 56.98,382.99 90.92,324.21 			"/>
			<linearGradient id="SVGID_71_" gradientUnits="userSpaceOnUse" x1="79.6894" y1="312.5622" x2="182.0165" y2="210.2351">
				<stop  offset="0" style="stop-color:#FBFBFB"/>
				<stop  offset="0.2188" style="stop-color:#F5F5F5"/>
				<stop  offset="0.5174" style="stop-color:#E4E3E4"/>
				<stop  offset="0.8603" style="stop-color:#C8C7C8"/>
				<stop  offset="1" style="stop-color:#BAB9BA"/>
			</linearGradient>
			<polygon class="st70" points="162.98,204.43 95.1,204.43 61.16,263.21 95.1,322 162.98,322 196.92,263.21 			"/>
			<linearGradient id="SVGID_72_" gradientUnits="userSpaceOnUse" x1="82.6769" y1="309.5747" x2="175.3989" y2="216.8527">
				<stop  offset="0" style="stop-color:#FBFBFB"/>
				<stop  offset="0.2188" style="stop-color:#F5F5F5"/>
				<stop  offset="0.5174" style="stop-color:#E4E3E4"/>
				<stop  offset="0.8603" style="stop-color:#C8C7C8"/>
				<stop  offset="1" style="stop-color:#BAB9BA"/>
			</linearGradient>
			<polygon class="st71" points="162.98,204.43 95.1,204.43 61.16,263.21 95.1,322 162.98,322 196.92,263.21 			"/>
			<linearGradient id="SVGID_73_" gradientUnits="userSpaceOnUse" x1="185.6886" y1="373.5538" x2="288.0157" y2="271.2267">
				<stop  offset="0" style="stop-color:#FBFBFB"/>
				<stop  offset="0.2188" style="stop-color:#F5F5F5"/>
				<stop  offset="0.5174" style="stop-color:#E4E3E4"/>
				<stop  offset="0.8603" style="stop-color:#C8C7C8"/>
				<stop  offset="1" style="stop-color:#BAB9BA"/>
			</linearGradient>
			<polygon class="st72" points="268.98,265.42 201.1,265.42 167.16,324.21 201.1,382.99 268.98,382.99 302.91,324.21 			"/>
			<linearGradient id="SVGID_74_" gradientUnits="userSpaceOnUse" x1="188.6761" y1="370.5663" x2="281.3981" y2="277.8443">
				<stop  offset="0" style="stop-color:#FBFBFB"/>
				<stop  offset="0.2188" style="stop-color:#F5F5F5"/>
				<stop  offset="0.5174" style="stop-color:#E4E3E4"/>
				<stop  offset="0.8603" style="stop-color:#C8C7C8"/>
				<stop  offset="1" style="stop-color:#BAB9BA"/>
			</linearGradient>
			<polygon class="st73" points="268.98,265.42 201.1,265.42 167.16,324.21 201.1,382.99 268.98,382.99 302.91,324.21 			"/>
		</g>
		<g class="st25">
			<path class="st74" d="M334.1-23.1l21.68,37.55L334.1,52h-43.36l-21.68-37.55l21.68-37.55H334.1 M334.48-23.75h-44.11l-22.05,38.2
				l22.05,38.2h44.11l22.05-38.2L334.48-23.75L334.48-23.75z"/>
			<path class="st75" d="M334.1-23.1l21.68,37.55L334.1,52h-43.36l-21.68-37.55l21.68-37.55H334.1 M334.48-23.75h-44.11l-22.05,38.2
				l22.05,38.2h44.11l22.05-38.2L334.48-23.75L334.48-23.75z"/>
			<path class="st75" d="M402.99-62.74l21.68,37.55l-21.68,37.55h-43.36l-21.68-37.55l21.68-37.55H402.99 M403.36-63.38h-44.11
				l-22.06,38.2l22.06,38.2h44.11l22.05-38.2L403.36-63.38L403.36-63.38z"/>
			<path class="st75" d="M402.99-62.74l21.68,37.55l-21.68,37.55h-43.36l-21.68-37.55l21.68-37.55H402.99 M403.36-63.38h-44.11
				l-22.06,38.2l22.06,38.2h44.11l22.05-38.2L403.36-63.38L403.36-63.38z"/>
			<path class="st75" d="M471.87-23.1l21.68,37.55L471.87,52h-43.36l-21.68-37.55l21.68-37.55H471.87 M472.25-23.75h-44.11
				l-22.05,38.2l22.05,38.2h44.11l22.05-38.2L472.25-23.75L472.25-23.75z"/>
			<path class="st75" d="M471.87-23.1l21.68,37.55L471.87,52h-43.36l-21.68-37.55l21.68-37.55H471.87 M472.25-23.75h-44.11
				l-22.05,38.2l22.05,38.2h44.11l22.05-38.2L472.25-23.75L472.25-23.75z"/>
			<path class="st75" d="M25.67,154.47l21.68,37.55l-21.68,37.55h-43.36l-21.68-37.55l21.68-37.55H25.67 M26.05,153.82h-44.11
				l-22.05,38.2l22.05,38.2h44.11l22.06-38.2L26.05,153.82L26.05,153.82z"/>
			<path class="st75" d="M25.67,154.47l21.68,37.55l-21.68,37.55h-43.36l-21.68-37.55l21.68-37.55H25.67 M26.05,153.82h-44.11
				l-22.05,38.2l22.05,38.2h44.11l22.06-38.2L26.05,153.82L26.05,153.82z"/>
			<path class="st75" d="M402.99,16.85l21.68,37.55l-21.68,37.55h-43.36L337.95,54.4l21.68-37.55H402.99 M403.36,16.2h-44.11
				L337.2,54.4l22.06,38.2h44.11l22.05-38.2L403.36,16.2L403.36,16.2z"/>
			<path class="st75" d="M402.99,16.85l21.68,37.55l-21.68,37.55h-43.36L337.95,54.4l21.68-37.55H402.99 M403.36,16.2h-44.11
				L337.2,54.4l22.06,38.2h44.11l22.05-38.2L403.36,16.2L403.36,16.2z"/>
			<path class="st75" d="M471.87,56.49l21.68,37.55l-21.68,37.55h-43.36l-21.68-37.55l21.68-37.55H471.87 M472.25,55.84h-44.11
				l-22.05,38.2l22.05,38.2h44.11l22.05-38.2L472.25,55.84L472.25,55.84z"/>
			<path class="st75" d="M471.87,56.49l21.68,37.55l-21.68,37.55h-43.36l-21.68-37.55l21.68-37.55H471.87 M472.25,55.84h-44.11
				l-22.05,38.2l22.05,38.2h44.11l22.05-38.2L472.25,55.84L472.25,55.84z"/>
			<path class="st75" d="M471.87,135.8l21.68,37.55l-21.68,37.55h-43.36l-21.68-37.55l21.68-37.55H471.87 M472.25,135.15h-44.11
				l-22.05,38.2l22.05,38.2h44.11l22.05-38.2L472.25,135.15L472.25,135.15z"/>
			<path class="st75" d="M471.87,135.8l21.68,37.55l-21.68,37.55h-43.36l-21.68-37.55l21.68-37.55H471.87 M472.25,135.15h-44.11
				l-22.05,38.2l22.05,38.2h44.11l22.05-38.2L472.25,135.15L472.25,135.15z"/>
			<path class="st75" d="M25.67,234.06l21.68,37.55l-21.68,37.55h-43.36l-21.68-37.55l21.68-37.55H25.67 M26.05,233.41h-44.11
				l-22.05,38.2l22.05,38.2h44.11l22.06-38.2L26.05,233.41L26.05,233.41z"/>
			<path class="st75" d="M25.67,234.06l21.68,37.55l-21.68,37.55h-43.36l-21.68-37.55l21.68-37.55H25.67 M26.05,233.41h-44.11
				l-22.05,38.2l22.05,38.2h44.11l22.06-38.2L26.05,233.41L26.05,233.41z"/>
			<path class="st75" d="M94.56,194.43l21.68,37.55l-21.68,37.55H51.2l-21.68-37.55l21.68-37.55H94.56 M94.93,193.78H50.82
				l-22.06,38.2l22.06,38.2h44.11l22.05-38.2L94.93,193.78L94.93,193.78z"/>
			<path class="st75" d="M94.56,194.43l21.68,37.55l-21.68,37.55H51.2l-21.68-37.55l21.68-37.55H94.56 M94.93,193.78H50.82
				l-22.06,38.2l22.06,38.2h44.11l22.05-38.2L94.93,193.78L94.93,193.78z"/>
			<path class="st75" d="M163.44,234.06l21.68,37.55l-21.68,37.55h-43.36L98.4,271.61l21.68-37.55H163.44 M163.81,233.41H119.7
				l-22.05,38.2l22.05,38.2h44.11l22.05-38.2L163.81,233.41L163.81,233.41z"/>
			<path class="st75" d="M163.44,234.06l21.68,37.55l-21.68,37.55h-43.36L98.4,271.61l21.68-37.55H163.44 M163.81,233.41H119.7
				l-22.05,38.2l22.05,38.2h44.11l22.05-38.2L163.81,233.41L163.81,233.41z"/>
		</g>
	</g>
</g>
</svg>
