<?xml version="1.0" encoding="utf-8"?>
<!-- Generator: Adobe Illustrator 24.0.3, SVG Export Plug-In . SVG Version: 6.00 Build 0)  -->
<svg version="1.1" id="Layer_1" xmlns="http://www.w3.org/2000/svg" xmlns:xlink="http://www.w3.org/1999/xlink" x="0px" y="0px"
	 viewBox="0 0 198.08 187.36" style="enable-background:new 0 0 198.08 187.36;" xml:space="preserve">
<style type="text/css">
	.st0{clip-path:url(#SVGID_2_);}
	.st1{fill:#F2F2F2;}
</style>
<g>
	<g>
		<defs>
			<rect id="SVGID_1_" y="0.12" width="197.73" height="210.67"/>
		</defs>
		<clipPath id="SVGID_2_">
			<use xlink:href="#SVGID_1_"  style="overflow:visible;"/>
		</clipPath>
		<g class="st0">
			<g>
				<g>
					<path class="st1" d="M66.89-8.27l21.68,37.55L66.89,66.83H23.53L1.85,29.28L23.53-8.27H66.89 M67.26-8.92H23.15L1.1,29.28
						l22.05,38.2h44.11l22.06-38.2L67.26-8.92L67.26-8.92z"/>
					<path class="st1" d="M135.86,110.99l21.68,37.55l-21.68,37.55H92.5l-21.68-37.55l21.68-37.55H135.86 M136.24,110.34H92.13
						l-22.05,38.2l22.05,38.2h44.11l22.06-38.2L136.24,110.34L136.24,110.34z"/>
					<path class="st1" d="M135.77-47.91l21.68,37.55l-21.68,37.55H92.41L70.73-10.36l21.68-37.55H135.77 M136.15-48.56H92.04
						l-22.06,38.2l22.06,38.2h44.11l22.05-38.2L136.15-48.56L136.15-48.56z"/>
					<path class="st1" d="M204.65-8.27l21.68,37.55l-21.68,37.55h-43.36l-21.68-37.55l21.68-37.55H204.65 M205.03-8.92h-44.11
						l-22.05,38.2l22.05,38.2h44.11l22.05-38.2L205.03-8.92L205.03-8.92z"/>
					<path class="st1" d="M135.86,31.68l21.68,37.55l-21.68,37.55H92.5L70.82,69.23L92.5,31.68H135.86 M136.24,31.03H92.13
						l-22.06,38.2l22.06,38.2h44.11l22.05-38.2L136.24,31.03L136.24,31.03z"/>
					<path class="st1" d="M204.65,71.32l21.68,37.55l-21.68,37.55h-43.36l-21.68-37.55l21.68-37.55L204.65,71.32 M205.03,70.67
						h-44.11l-22.05,38.2l22.05,38.2h44.11l22.05-38.2L205.03,70.67L205.03,70.67z"/>
				</g>
			</g>
		</g>
	</g>
</g>
</svg>
