<?xml version="1.0" encoding="utf-8"?>
<!-- Generator: Adobe Illustrator 24.0.3, SVG Export Plug-In . SVG Version: 6.00 Build 0)  -->
<svg version="1.1" id="Layer_1" xmlns="http://www.w3.org/2000/svg" xmlns:xlink="http://www.w3.org/1999/xlink" x="0px" y="0px"
	 viewBox="0 0 198.08 210.79" style="enable-background:new 0 0 198.08 210.79;" xml:space="preserve">
<style type="text/css">
	.st0{clip-path:url(#SVGID_2_);}
	.st2{fill:#F2F2F2;}
	
	.hex-rotate {
		animation-duration: 3000ms;
		animation-iteration-count: infinite;
		animation-timing-function: linear;
		transform-origin: center;
		transform-box: fill-box;
		animation: rotate 3000ms linear infinite;
	}
	.delay {
		animation-delay: 1500ms;
	}
	@keyframes rotate {
		20%, 100% {
			transform: rotate(360deg);
		}
		0% {
			transform: rotate(0deg);
		}
		100% {
			transform: rotate(360deg);
		}
	}
</style>
<g>
	<defs>
		<rect id="SVGID_1_" x="-234.03" y="0.12" width="431.76" height="287.84"/>
	</defs>
	<clipPath id="SVGID_2_">
		<use xlink:href="#SVGID_1_"  style="overflow:visible;"/>
	</clipPath>
	<g class="st0">
		<g>
			<g>
				<path class="st2" d="M66.89-24.21l21.68,37.55L66.89,50.89H23.53L1.85,13.34l21.68-37.55H66.89 M67.26-24.86H23.15L1.1,13.34
					l22.05,38.2h44.11l22.06-38.2L67.26-24.86L67.26-24.86z"/>
				<path class="st2" d="M135.86,95.05l21.68,37.55l-21.68,37.55H92.5L70.82,132.6L92.5,95.05H135.86 M136.24,94.4H92.13
					l-22.05,38.2l22.05,38.2h44.11l22.06-38.2L136.24,94.4L136.24,94.4z"/>
				<path class="st2" d="M135.77-63.85l21.68,37.55l-21.68,37.55H92.41L70.73-26.3l21.68-37.55H135.77 M136.15-64.5H92.04
					L69.98-26.3l22.06,38.2h44.11l22.05-38.2L136.15-64.5L136.15-64.5z"/>
				<path class="st2" d="M204.65-24.21l21.68,37.55l-21.68,37.55h-43.36l-21.68-37.55l21.68-37.55H204.65 M205.03-24.86h-44.11
					l-22.05,38.2l22.05,38.2h44.11l22.05-38.2L205.03-24.86L205.03-24.86z"/>
				<path class="st2 hex-rotate" d="M135.86,15.74l21.68,37.55l-21.68,37.55H92.5L70.82,53.29L92.5,15.74H135.86 M136.24,15.09H92.13
					l-22.06,38.2l22.06,38.2h44.11l22.05-38.2L136.24,15.09L136.24,15.09z"/>
				<path class="st2" d="M204.65,55.38l21.68,37.55l-21.68,37.55h-43.36l-21.68-37.55l21.68-37.55H204.65 M205.03,54.73h-44.11
					l-22.05,38.2l22.05,38.2h44.11l22.05-38.2L205.03,54.73L205.03,54.73z"/>
			</g>
		</g>
	</g>
</g>
</svg>
